<svg width="320" height="176" viewBox="0 0 320 176" fill="none" xmlns="http://www.w3.org/2000/svg">
<rect width="320" height="176" rx="8" fill="black"/>
<path d="M160.791 100.603C160.128 100.603 159.63 100.438 159.132 99.9402C158.634 99.4427 158.468 98.9452 158.468 98.2819V86.1764L152.495 93.6387C151.997 94.302 151.499 94.4678 150.67 94.4678C149.84 94.4678 149.342 94.1362 148.844 93.6387L142.871 86.1764V98.2819C142.871 98.9452 142.705 99.4427 142.207 99.9402C141.709 100.438 141.211 100.603 140.548 100.603C139.884 100.603 139.386 100.438 138.888 99.9402C138.391 99.4427 138.225 98.9452 138.225 98.2819V79.3774C138.225 78.2166 138.722 77.5533 139.884 77.2216C140.88 76.89 141.875 77.0558 142.539 78.0508L150.835 88.498L159.132 78.0508C159.796 77.2216 160.625 76.89 161.787 77.2216C162.948 77.5533 163.446 78.3824 163.446 79.3774V98.2819C163.446 98.9452 163.28 99.4427 162.783 99.9402C161.953 100.438 161.455 100.603 160.791 100.603Z" fill="white"/>
<path d="M189.332 97.1211C189.664 97.7845 189.664 98.2819 189.498 98.9453C189.332 99.6086 188.834 99.9402 188.336 100.272C188.004 100.438 187.672 100.604 187.341 100.604C186.345 100.604 185.681 100.106 185.183 99.2769L183.524 95.9603H172.241L170.581 99.2769C170.25 99.9402 169.918 100.272 169.254 100.438C168.59 100.604 168.092 100.604 167.429 100.272C166.765 99.9402 166.433 99.6086 166.267 98.9453C166.101 98.2819 166.101 97.7845 166.433 97.1211L175.725 78.3825C176.057 77.5533 176.887 77.2217 177.882 77.2217C178.878 77.2217 179.542 77.5533 180.04 78.3825L189.332 97.1211ZM181.035 91.1513L177.882 84.684L174.564 91.1513H181.035Z" fill="white"/>
<path d="M192.484 79.3778C192.484 78.7144 192.65 78.217 193.148 77.7195C193.646 77.222 194.144 77.0562 194.807 77.0562H204.929C207.252 77.0562 209.244 77.8853 210.903 79.5436C212.562 81.2019 213.392 83.1918 213.392 85.5134C213.392 87.0059 213.06 88.4983 212.23 89.825C211.401 91.1516 210.405 92.1466 209.244 92.8099L212.894 96.7898C213.392 97.2873 213.558 97.7848 213.558 98.4481C213.558 99.1114 213.226 99.6089 212.728 100.106C212.23 100.438 211.732 100.77 211.069 100.77C210.405 100.77 209.741 100.438 209.244 99.9405L203.934 93.9707H197.296V98.2822C197.296 98.9456 197.13 99.443 196.633 99.9405C196.135 100.438 195.637 100.604 194.973 100.604C194.31 100.604 193.812 100.438 193.314 99.9405C192.816 99.443 192.65 98.9456 192.65 98.2822V79.3778H192.484ZM197.13 89.1617H204.929C205.925 89.1617 206.755 88.83 207.584 88.1667C208.248 87.5034 208.58 86.5084 208.58 85.5134C208.58 84.5184 208.248 83.5235 207.584 82.8602C206.92 82.1968 205.925 81.8652 204.929 81.8652H197.13V89.1617Z" fill="white"/>
<path d="M217.042 81.6994C216.378 81.6994 215.88 81.5335 215.382 81.036C214.885 80.5386 214.719 80.0411 214.719 79.3778C214.719 78.7144 214.885 78.217 215.382 77.7195C215.88 77.222 216.378 77.0562 217.042 77.0562H233.137C233.801 77.0562 234.299 77.222 234.797 77.7195C235.294 78.217 235.46 78.7144 235.46 79.3778C235.46 80.0411 235.294 80.5386 234.797 81.036C234.299 81.5335 233.801 81.6994 233.137 81.6994H227.33V98.1164C227.33 98.7797 227.164 99.2772 226.666 99.7747C226.168 100.272 225.67 100.438 225.007 100.438C224.343 100.438 223.845 100.272 223.347 99.7747C222.849 99.2772 222.683 98.7797 222.683 98.1164V81.6994H217.042Z" fill="white"/>
<path d="M240.604 100.604C239.941 100.604 239.443 100.438 238.945 99.9405C238.447 99.443 238.281 98.9456 238.281 98.2822V79.3778C238.281 78.7144 238.447 78.217 238.945 77.7195C239.443 77.222 239.941 77.0562 240.604 77.0562H256.7C257.363 77.0562 257.861 77.222 258.359 77.7195C258.857 78.217 259.023 78.7144 259.023 79.3778C259.023 80.0411 258.857 80.5386 258.359 81.036C257.861 81.5335 257.363 81.6994 256.7 81.6994H242.927V86.5084H255.372C256.036 86.5084 256.534 86.6742 257.032 87.1717C257.529 87.6692 257.695 88.1667 257.695 88.83C257.695 89.4933 257.529 89.9908 257.032 90.4883C256.534 90.9858 256.036 91.1516 255.372 91.1516H242.927V95.7948H256.7C257.363 95.7948 257.861 95.9606 258.359 96.4581C258.857 96.9556 259.023 97.4531 259.023 98.1164C259.023 98.7797 258.857 99.2772 258.359 99.7747C257.861 100.272 257.363 100.438 256.7 100.438H240.604V100.604Z" fill="white"/>
<path d="M280.925 77.5533C281.423 78.0508 281.755 78.5483 281.755 79.2116C281.755 79.8749 281.589 80.3724 281.257 80.8699L274.454 88.6639L281.257 96.6236C281.755 97.1211 281.921 97.6186 281.755 98.2819C281.589 98.9452 281.423 99.4427 280.925 99.9402C280.427 100.272 279.93 100.438 279.432 100.438C278.768 100.438 278.104 100.106 277.606 99.6086L271.301 92.3121L264.996 99.6086C264.498 100.106 264 100.438 263.17 100.438C262.507 100.438 262.009 100.272 261.677 99.9402C261.179 99.4427 260.847 98.9452 260.847 98.2819C260.847 97.6186 261.013 97.1211 261.345 96.6236L268.148 88.6639L261.345 80.8699C260.847 80.3724 260.681 79.8749 260.847 79.2116C260.847 78.5483 261.179 78.0508 261.677 77.5533C262.175 77.0558 262.839 76.89 263.336 77.0558C264 77.0558 264.498 77.3875 264.996 77.885L271.301 85.1814L277.606 77.885C278.104 77.3875 278.602 77.0558 279.266 77.0558C279.93 77.0558 280.427 77.2217 280.925 77.5533Z" fill="white"/>
<path d="M73.3435 121C65.7106 121 59.5712 114.864 59.5712 107.236V79.5427C59.5712 76.3919 62.2261 73.7387 65.3788 73.7387C68.5315 73.7387 71.1864 76.3919 71.1864 79.5427V107.236C71.1864 108.397 72.182 109.392 73.3435 109.392C74.505 109.392 75.5006 108.397 75.5006 107.236V79.5427C75.5006 72.412 69.693 66.608 62.5579 66.608C55.4229 66.608 49.6152 72.412 49.6152 79.5427V115.196C49.6152 118.347 46.9603 121 43.8076 121C40.6549 121 38 118.347 38 115.196V79.5427C38 65.9447 48.9515 55 62.5579 55C76.1644 55 87.1159 65.9447 87.1159 79.5427V107.236C87.1159 114.698 80.9764 121 73.3435 121Z" fill="white"/>
<path d="M103.708 121C100.555 121 97.9004 118.347 97.9004 115.196V72.412C97.9004 69.2613 95.4114 66.608 92.0928 66.608C88.9401 66.608 86.2852 63.9548 86.2852 60.804C86.2852 57.6533 89.106 55 92.2587 55C101.883 55 109.682 62.794 109.682 72.412V115.196C109.516 118.347 107.027 121 103.708 121Z" fill="white"/>
</svg>
