<svg width="320" height="320" viewBox="0 0 320 320" fill="none" xmlns="http://www.w3.org/2000/svg">
<rect width="320" height="320" rx="8" fill="black"/>
<path d="M159.552 194.477C144.809 194.477 132.951 182.626 132.951 167.893V114.403C132.951 108.318 138.079 103.193 144.168 103.193C150.258 103.193 155.386 108.318 155.386 114.403V167.893C155.386 170.135 157.309 172.056 159.552 172.056C161.796 172.056 163.719 170.135 163.719 167.893V114.403C163.719 100.631 152.501 89.4206 138.72 89.4206C124.939 89.4206 113.722 100.631 113.722 114.403V183.267C113.722 189.352 108.594 194.477 102.504 194.477C96.415 194.477 91.2871 189.352 91.2871 183.267V114.403C91.2871 88.1394 112.44 67 138.72 67C165.001 67 186.153 88.1394 186.153 114.403V167.893C186.153 182.306 174.295 194.477 159.552 194.477Z" fill="white"/>
<path d="M218.201 194.477C212.111 194.477 206.983 189.352 206.983 183.267V100.631C206.983 94.5453 202.176 89.4206 195.766 89.4206C189.677 89.4206 184.549 84.2959 184.549 78.2103C184.549 72.1247 189.997 67 196.087 67C214.675 67 229.738 82.0538 229.738 100.631V183.267C229.418 189.352 224.61 194.477 218.201 194.477Z" fill="white"/>
<path d="M104.461 253.416C103.706 253.416 103.139 253.227 102.572 252.661C102.006 252.095 101.817 251.529 101.817 250.774V236.994L95.0171 245.488C94.4505 246.243 93.8838 246.432 92.9394 246.432C91.995 246.432 91.4284 246.055 90.8618 245.488L84.0621 236.994V250.774C84.0621 251.529 83.8732 252.095 83.3066 252.661C82.7399 253.227 82.1733 253.416 81.4178 253.416C80.6622 253.416 80.0956 253.227 79.529 252.661C78.9623 252.095 78.7734 251.529 78.7734 250.774V229.255C78.7734 227.933 79.3401 227.178 80.6622 226.801C81.7955 226.423 82.9288 226.612 83.6843 227.745L93.1283 239.637L102.572 227.745C103.328 226.801 104.272 226.423 105.594 226.801C106.917 227.178 107.483 228.122 107.483 229.255V250.774C107.483 251.529 107.294 252.095 106.728 252.661C105.783 253.227 105.217 253.416 104.461 253.416Z" fill="white"/>
<path d="M136.949 249.453C137.326 250.208 137.326 250.774 137.138 251.529C136.949 252.284 136.382 252.662 135.815 253.039C135.438 253.228 135.06 253.417 134.682 253.417C133.549 253.417 132.793 252.851 132.227 251.907L130.338 248.131H117.494L115.605 251.907C115.227 252.662 114.85 253.039 114.094 253.228C113.339 253.417 112.772 253.417 112.017 253.039C111.261 252.662 110.883 252.284 110.694 251.529C110.506 250.774 110.505 250.208 110.883 249.453L121.461 228.123C121.838 227.179 122.783 226.801 123.916 226.801C125.049 226.801 125.805 227.179 126.371 228.123L136.949 249.453ZM127.505 242.657L123.916 235.296L120.138 242.657H127.505Z" fill="white"/>
<path d="M140.537 229.255C140.537 228.5 140.726 227.934 141.293 227.368C141.859 226.802 142.426 226.613 143.181 226.613H154.703C157.347 226.613 159.614 227.557 161.503 229.444C163.392 231.332 164.336 233.597 164.336 236.24C164.336 237.939 163.958 239.637 163.014 241.148C162.069 242.658 160.936 243.79 159.614 244.545L163.769 249.076C164.336 249.642 164.525 250.208 164.525 250.963C164.525 251.718 164.147 252.285 163.58 252.851C163.014 253.228 162.447 253.606 161.692 253.606C160.936 253.606 160.181 253.228 159.614 252.662L153.57 245.867H146.015V250.774C146.015 251.529 145.826 252.096 145.259 252.662C144.692 253.228 144.126 253.417 143.37 253.417C142.615 253.417 142.048 253.228 141.482 252.662C140.915 252.096 140.726 251.529 140.726 250.774V229.255H140.537ZM145.826 240.392H154.703C155.836 240.392 156.781 240.015 157.725 239.26C158.481 238.505 158.858 237.372 158.858 236.24C158.858 235.107 158.481 233.975 157.725 233.219C156.97 232.464 155.836 232.087 154.703 232.087H145.826V240.392Z" fill="white"/>
<path d="M168.492 231.898C167.736 231.898 167.17 231.709 166.603 231.143C166.037 230.577 165.848 230.011 165.848 229.255C165.848 228.5 166.037 227.934 166.603 227.368C167.17 226.802 167.736 226.613 168.492 226.613H186.813C187.569 226.613 188.136 226.802 188.702 227.368C189.269 227.934 189.458 228.5 189.458 229.255C189.458 230.011 189.269 230.577 188.702 231.143C188.136 231.709 187.569 231.898 186.813 231.898H180.203V250.586C180.203 251.341 180.014 251.907 179.447 252.473C178.88 253.04 178.314 253.228 177.558 253.228C176.803 253.228 176.236 253.04 175.669 252.473C175.103 251.907 174.914 251.341 174.914 250.586V231.898H168.492Z" fill="white"/>
<path d="M195.312 253.417C194.557 253.417 193.99 253.228 193.423 252.662C192.857 252.096 192.668 251.529 192.668 250.774V229.255C192.668 228.5 192.857 227.934 193.423 227.368C193.99 226.802 194.557 226.613 195.312 226.613H213.634C214.389 226.613 214.956 226.802 215.522 227.368C216.089 227.934 216.278 228.5 216.278 229.255C216.278 230.011 216.089 230.577 215.522 231.143C214.956 231.709 214.389 231.898 213.634 231.898H197.957V237.372H212.123C212.878 237.372 213.445 237.561 214.011 238.127C214.578 238.694 214.767 239.26 214.767 240.015C214.767 240.77 214.578 241.336 214.011 241.903C213.445 242.469 212.878 242.658 212.123 242.658H197.957V247.943H213.634C214.389 247.943 214.956 248.132 215.522 248.698C216.089 249.264 216.278 249.831 216.278 250.586C216.278 251.341 216.089 251.907 215.522 252.473C214.956 253.04 214.389 253.228 213.634 253.228H195.312V253.417Z" fill="white"/>
<path d="M241.21 227.179C241.777 227.745 242.155 228.311 242.155 229.066C242.155 229.821 241.966 230.388 241.588 230.954L233.844 239.826L241.588 248.886C242.155 249.453 242.344 250.019 242.155 250.774C241.966 251.529 241.777 252.095 241.21 252.662C240.644 253.039 240.077 253.228 239.511 253.228C238.755 253.228 237.999 252.85 237.433 252.284L230.255 243.978L223.078 252.284C222.511 252.85 221.945 253.228 221 253.228C220.245 253.228 219.678 253.039 219.3 252.662C218.734 252.095 218.356 251.529 218.356 250.774C218.356 250.019 218.545 249.453 218.923 248.886L226.667 239.826L218.923 230.954C218.356 230.388 218.167 229.821 218.356 229.066C218.356 228.311 218.734 227.745 219.3 227.179C219.867 226.612 220.623 226.424 221.189 226.612C221.945 226.612 222.511 226.99 223.078 227.556L230.255 235.862L237.433 227.556C237.999 226.99 238.566 226.612 239.322 226.612C240.077 226.612 240.644 226.801 241.21 227.179Z" fill="white"/>
</svg>
