<svg width="320" height="176" viewBox="0 0 320 176" fill="none" xmlns="http://www.w3.org/2000/svg">
<rect width="320" height="176" rx="8" fill="black"/>
<path d="M160 147C127.414 147 101 120.586 101 88C101 55.4136 127.414 29 160 29C192.586 29 219 55.4136 219 88C219 120.586 192.586 147 160 147Z" fill="white"/>
<path d="M159.85 117.477C152.972 117.477 147.439 111.948 147.439 105.073V80.1171C147.439 77.2777 149.832 74.8867 152.673 74.8867C155.514 74.8867 157.907 77.2777 157.907 80.1171V105.073C157.907 106.12 158.804 107.016 159.85 107.016C160.897 107.016 161.794 106.12 161.794 105.073V80.1171C161.794 73.6912 156.561 68.4608 150.131 68.4608C143.701 68.4608 138.467 73.6912 138.467 80.1171V112.247C138.467 115.086 136.075 117.477 133.234 117.477C130.393 117.477 128 115.086 128 112.247V80.1171C128 67.863 137.869 58 150.131 58C162.393 58 172.262 67.863 172.262 80.1171V105.073C172.262 111.798 166.729 117.477 159.85 117.477Z" fill="black"/>
<path d="M187.217 117.477C184.375 117.477 181.983 115.086 181.983 112.247V73.6912C181.983 70.8518 179.74 68.4608 176.749 68.4608C173.908 68.4608 171.516 66.0697 171.516 63.2304C171.516 60.391 174.058 58 176.899 58C185.572 58 192.6 65.0237 192.6 73.6912V112.247C192.45 115.086 190.207 117.477 187.217 117.477Z" fill="black"/>
</svg>
