<svg width="517" height="638" viewBox="0 0 517 638" fill="none" xmlns="http://www.w3.org/2000/svg">
<path d="M276.423 11.7773H274.893C165.693 11.7773 77.1719 100.437 77.1719 209.806V593.625H474.133V209.796C474.133 100.427 385.612 11.7773 276.423 11.7773Z" fill="#E6E6E6" stroke="#E0E0E0" stroke-miterlimit="10" stroke-linejoin="round"/>
<path d="M275.652 48.8315C183.151 48.8315 108.168 123.931 108.168 216.576V560.577H443.136V216.576C443.136 123.931 368.153 48.8315 275.652 48.8315Z" fill="white"/>
<path d="M365.405 560.577V505.377H338.517V427.203H293.802L286.982 560.577H365.405Z" fill="#E0E0E0"/>
<path d="M355.144 348.268V342.259H330.146V190.037L308.148 173.012V560.577H330.146V487.471H354.144V481.462H330.146V470.446H354.144V464.437H330.146V366.294H355.144V360.285H330.146V348.268H355.144Z" fill="#F3F4F9"/>
<path d="M175.662 560.577H214.658V60.2979C200.64 65.7859 187.541 73.1165 175.662 81.9895V560.577Z" fill="#E6E6E6"/>
<path d="M189.16 560.577H214.658V60.2979C205.759 63.7829 197.239 68.0091 189.16 72.8962V560.577Z" fill="#F3F4F9"/>
<path d="M330.148 170.679V157.009C330.148 155.036 327.898 153.924 326.338 155.116L316.739 162.467C315.439 163.458 315.509 165.441 316.879 166.342L326.478 172.662C328.048 173.703 330.148 172.571 330.148 170.679Z" fill="#F55681"/>
<path d="M308.148 173.012V188.495L330.146 205.369V190.037L308.148 173.012Z" fill="#E6E6E6"/>
<path d="M404.32 560.578V109.19C398.361 102.039 391.822 95.3894 384.772 89.3105C368.854 109.69 349.006 144.591 349.006 191.9C349.006 264.226 349.006 518.246 349.006 560.568H404.32V560.578Z" fill="#F3F4F9"/>
<path d="M404.32 560.578V109.19C398.361 102.039 391.822 95.3894 384.772 89.3105C368.854 109.69 349.006 144.591 349.006 191.9C349.006 264.226 349.006 518.246 349.006 560.568H404.32V560.578Z" stroke="#E0E0E0" stroke-miterlimit="10" stroke-linejoin="round"/>
<path d="M385.063 560.577L348.996 532.737" stroke="#E0E0E0" stroke-miterlimit="10" stroke-linejoin="round"/>
<path d="M395.732 481.091L348.996 519.637" stroke="#E0E0E0" stroke-miterlimit="10" stroke-linejoin="round"/>
<path d="M395.732 365.753L348.996 402.437" stroke="#E0E0E0" stroke-miterlimit="10" stroke-linejoin="round"/>
<path d="M395.732 337.812L348.996 298.435" stroke="#E0E0E0" stroke-miterlimit="10" stroke-linejoin="round"/>
<path d="M395.73 560.577H404.32V109.189C401.58 105.895 398.71 102.72 395.73 99.6455V560.577Z" fill="#E0E0E0"/>
<path d="M443.137 560.577V216.576C443.137 201.153 441.047 186.221 437.158 172.031C430.478 172.281 425.139 177.769 425.139 184.529V560.577H443.137Z" fill="#E0E0E0"/>
<path d="M443.137 245.858C399.551 247.13 361.145 278.987 361.145 319.215C361.145 359.714 405.98 385.973 443.137 386.694V245.858Z" fill="white" stroke="#E0E0E0" stroke-miterlimit="10" stroke-linejoin="round"/>
<path d="M443.137 560.577V373.435C428.098 373.455 417.039 377.701 413.09 381.006C413.09 381.006 440.137 424.379 440.137 483.465C440.137 526.057 440.137 550.332 440.137 560.577H443.137Z" fill="#F3F4F9"/>
<path d="M443.137 560.577V373.435C428.098 373.455 417.039 377.701 413.09 381.006C413.09 381.006 440.137 424.379 440.137 483.465C440.137 526.057 440.137 550.332 440.137 560.577H443.137Z" stroke="#E0E0E0" stroke-miterlimit="10" stroke-linejoin="round"/>
<path d="M284.151 534.539C284.151 475.914 272.512 428.385 258.154 428.385C243.795 428.385 232.156 475.914 232.156 534.539C232.156 543.523 232.426 552.245 232.946 560.577H283.361C283.881 552.245 284.151 543.523 284.151 534.539Z" fill="#E0E0E0"/>
<path d="M121.167 429.386L115.667 424.379H108.168V560.577H121.167V429.386Z" fill="#E0E0E0"/>
<path d="M156.164 560.578V448.414C156.164 443.437 152.135 439.401 147.165 439.401C142.196 439.401 138.166 443.437 138.166 448.414V560.578H156.164Z" fill="#E0E0E0"/>
<path d="M395.732 127.887L351.416 163.709" stroke="#E0E0E0" stroke-miterlimit="10" stroke-linejoin="round"/>
<path d="M395.731 216.866L349.336 181.234" stroke="#E0E0E0" stroke-miterlimit="10" stroke-linejoin="round"/>
<path d="M395.732 247.261L348.996 284.986" stroke="#E0E0E0" stroke-miterlimit="10" stroke-linejoin="round"/>
<path d="M395.732 451.649L348.996 413.673" stroke="#E0E0E0" stroke-miterlimit="10" stroke-linejoin="round"/>
<path d="M361.145 319.225C361.145 321.369 361.275 323.482 361.524 325.545C368.154 320.197 388.492 309.101 443.137 309.101V301.199C411.55 301.199 379.963 303.803 361.215 317.022C361.185 317.753 361.145 318.484 361.145 319.225Z" fill="#F55681"/>
<path d="M300.249 543.512L198.599 458.128L108.168 493.029V560.577H300.249V543.512Z" fill="white" stroke="#E0E0E0" stroke-miterlimit="10" stroke-linejoin="round"/>
<path d="M160.663 505.497C138.645 505.497 119.297 516.914 108.168 534.149V560.577H222.697C218.987 529.552 192.64 505.497 160.663 505.497Z" fill="#F3F4F9"/>
<path d="M123.918 560.577H197.411C193.941 543.432 178.803 530.534 160.664 530.534C142.526 530.534 127.398 543.432 123.918 560.577Z" fill="white" stroke="#F55681" stroke-miterlimit="10" stroke-linejoin="round"/>
<path d="M187.4 511.496L230.056 484.546" stroke="#E0E0E0" stroke-miterlimit="10" stroke-linejoin="round"/>
<path d="M237.547 506.599V528.891L246.067 537.243V560.577" fill="white"/>
<path d="M237.547 506.599V528.891L246.067 537.243V560.577" stroke="#E0E0E0" stroke-miterlimit="10" stroke-linejoin="round"/>
<path d="M258.564 537.904V560.577" stroke="#E0E0E0" stroke-miterlimit="10" stroke-linejoin="round"/>
<path d="M276.572 523.624V560.577" stroke="#E0E0E0" stroke-miterlimit="10" stroke-linejoin="round"/>
<path d="M275.652 48.8315C183.151 48.8315 108.168 123.931 108.168 216.576V560.577H443.136V216.576C443.136 123.931 368.153 48.8315 275.652 48.8315Z" stroke="#E0E0E0" stroke-miterlimit="10" stroke-linejoin="round"/>
<path d="M458.134 432.391C461.448 432.391 464.134 429.7 464.134 426.382C464.134 423.063 461.448 420.373 458.134 420.373C454.821 420.373 452.135 423.063 452.135 426.382C452.135 429.7 454.821 432.391 458.134 432.391Z" fill="#F55681" stroke="#F55681" stroke-miterlimit="10" stroke-linejoin="round"/>
<path d="M458.134 457.427C461.448 457.427 464.134 454.736 464.134 451.418C464.134 448.099 461.448 445.409 458.134 445.409C454.821 445.409 452.135 448.099 452.135 451.418C452.135 454.736 454.821 457.427 458.134 457.427Z" fill="white" stroke="#F55681" stroke-miterlimit="10" stroke-linejoin="round"/>
<path d="M108.17 266.148H102.17V298.195H108.17V266.148Z" fill="#F55681"/>
<path d="M108.17 306.207H102.17V338.253H108.17V306.207Z" fill="white"/>
<path d="M108.17 346.265H102.17V378.311H108.17V346.265Z" fill="#F55681"/>
<path d="M108.169 560.577L77.1719 593.625H474.133L443.136 560.577H108.169Z" stroke="#E0E0E0" stroke-miterlimit="10" stroke-linejoin="round"/>
<path d="M270.824 581.097C289.904 581.097 305.371 578.353 305.371 574.968C305.371 571.583 289.904 568.839 270.824 568.839C251.744 568.839 236.277 571.583 236.277 574.968C236.277 578.353 251.744 581.097 270.824 581.097Z" fill="#E0E0E0"/>
<path d="M179.923 347.066C179.403 346.806 177.273 345.363 176.343 344.342C175.413 343.331 171.304 337.172 170.094 336.17C168.884 335.169 168.294 331.353 168.294 331.353C168.294 331.353 166.694 330.942 166.364 332.645C166.024 334.347 166.534 336.501 167.714 337.502C168.884 338.503 167.564 340.146 166.674 340.016C165.794 339.885 159.815 338.924 156.825 335.97C153.835 333.015 151.046 336.781 152.946 340.506C154.835 344.222 157.625 351.713 170.094 351.713C175.023 351.713 176.543 355.558 176.543 355.558L179.923 347.066Z" fill="#A0616A" stroke="#864B53" stroke-miterlimit="10" stroke-linejoin="round"/>
<path d="M379.623 334.788C379.623 334.788 375.853 336.01 374.323 339.845C372.804 343.691 373.724 344.572 372.884 345.834C372.044 347.096 368.994 349.97 366.074 349.85L370.514 354.747L372.484 356.149C372.484 356.149 373.234 353.225 376.663 353.475C380.093 353.726 385.742 353.606 389.842 348.648C393.942 343.691 392.982 338.834 392.352 337.863C391.722 336.891 387.552 342.62 381.243 342.62C378.893 342.62 378.053 341.768 378.233 340.947C378.403 340.126 380.603 337.212 379.623 334.788Z" fill="#A0616A" stroke="#864B53" stroke-miterlimit="10" stroke-linejoin="round"/>
<path d="M278.324 353.786H264.045V363.51H278.324V353.786Z" fill="#A0616A" stroke="#864B53" stroke-miterlimit="10" stroke-linejoin="round"/>
<path d="M258.876 344.042C258.876 344.042 257.296 344.112 257.426 345.714C257.556 347.316 258.466 346.886 258.646 348.298C258.836 349.71 258.626 350.601 259.216 351.172C259.756 351.693 261.406 351.623 261.296 350.421C261.186 349.229 258.876 344.042 258.876 344.042Z" fill="#A0616A" stroke="#864B53" stroke-miterlimit="10" stroke-linejoin="round"/>
<path d="M283.763 344.042C283.763 344.042 285.343 344.112 285.213 345.714C285.083 347.316 284.173 346.886 283.993 348.298C283.803 349.71 284.013 350.601 283.423 351.172C282.883 351.693 281.233 351.623 281.343 350.421C281.453 349.229 283.763 344.042 283.763 344.042Z" fill="#A0616A" stroke="#864B53" stroke-miterlimit="10" stroke-linejoin="round"/>
<path d="M270.623 324.944C262.914 324.944 257.385 329.11 257.385 339.485C257.385 344.472 259.975 344.903 260.474 348.548C260.974 352.194 260.834 357.862 268.894 357.862C276.953 357.862 280.732 357.471 281.712 352.464C282.692 347.457 282.742 346.666 282.972 345.844C283.202 345.023 284.952 341.708 285.142 338.223C285.332 334.738 282.962 324.944 270.623 324.944Z" fill="#2F2E41"/>
<path d="M241.846 559.065C241.846 559.065 238.666 560.757 238.006 564.523C238.006 564.523 233.477 564.463 233.787 571.022C233.827 571.894 235.247 573.586 237.696 574.497C240.146 575.409 246.295 575.729 250.125 574.548C250.935 574.297 251.635 564.242 251.065 561.759C250.485 559.255 241.846 559.065 241.846 559.065Z" fill="#2F2E41"/>
<path d="M296.382 562.36C296.252 562.75 295.032 568.889 295.422 572.975C295.422 572.975 296.822 575.659 301.872 575.94C306.921 576.22 312.801 574.337 313.73 571.724C314.66 569.11 311.911 566.015 308.911 564.984C308.911 564.984 307.281 561.288 305.991 560.337L296.382 562.36Z" fill="#2F2E41"/>
<path d="M248.566 431.099C248.566 431.099 246.056 436.356 246.526 455.154C246.996 473.951 243.026 501.031 243.356 515.772C243.686 530.514 232.827 558.705 237.257 559.976C237.897 560.157 243.756 563.121 251.346 563.031C251.346 563.031 254.935 555.961 257.125 539.296C259.315 522.632 269.174 470.696 273.633 462.975C273.633 462.975 278.863 480.561 281.853 499.829C284.842 519.097 288.192 534.129 291.272 546.407C294.341 558.685 295.421 563.562 295.421 563.562C295.421 563.562 305.39 560.748 307.55 561.399C307.55 561.399 304.7 515.061 300.541 500.67C300.541 500.67 300.571 447.503 296.761 431.099H248.566Z" fill="#E6E6E6"/>
<path d="M247.236 436.987C250.796 435.355 258.455 432.991 273.374 432.581C283.173 432.31 291.442 434.213 297.711 436.496C297.421 434.433 297.102 432.611 296.752 431.099H248.556C248.566 431.099 247.836 432.641 247.236 436.987Z" fill="#D44E72"/>
<path d="M263.285 456.806C263.285 456.806 264.805 459.36 269.315 460.662C269.315 460.662 268.295 461.323 266.455 461.132C266.455 461.132 267.505 461.924 270.515 462.274C273.524 462.625 268.215 472.469 266.065 488.222C263.915 503.975 260.166 511.035 257.506 514.08C254.836 517.134 257.176 518.346 259.156 516.754C261.136 515.161 253.066 559.476 247.347 560.868C243.587 561.789 239.498 561.098 236.418 559.005C236.588 559.526 236.858 559.866 237.268 559.987C237.908 560.167 243.767 563.131 251.357 563.041C251.357 563.041 254.946 555.971 257.136 539.306C259.326 522.642 269.185 470.706 273.644 462.985C273.174 461.363 272.184 458.909 272.184 458.909C266.715 458.969 263.285 456.806 263.285 456.806Z" fill="#E0E0E0"/>
<path d="M271.534 358.392C267.754 358.573 262.535 359.033 260.715 359.925C260.715 359.925 259.805 361.217 259.905 363.78C259.905 363.78 250.756 361.156 243.186 360.726C235.617 360.295 224.608 361.767 218.519 358.693C212.429 355.618 189.572 347.276 179.243 345.954C179.243 345.954 175.323 347.797 175.613 357.211C175.613 357.211 197.071 370.13 218.729 376.769C240.387 383.409 241.997 388.196 243.986 402.457C245.976 416.717 245.636 427.002 245.046 429.556C244.456 432.11 245.786 434.573 248.156 434.313C248.156 434.313 276.193 429.716 297.321 433.582C297.321 433.582 299.991 406.733 303.131 392.562C305.64 381.256 310.53 381.466 318.709 379.613C323.049 378.632 342.127 372.162 355.046 364.491C367.964 356.83 374.054 356.87 374.054 356.87C374.054 356.87 371.134 346.255 366.305 345.123C366.305 345.123 351.036 352.694 340.077 355.749C329.118 358.803 312.22 362.599 312.22 362.599C312.22 362.599 297.581 358.843 283.003 362.478C283.003 362.478 282.193 359.484 281.303 358.983C280.413 358.483 275.513 358.202 271.534 358.392Z" fill="#F55681"/>
<path d="M300.541 500.67C300.541 500.67 300.551 490.325 300.221 477.346C299.781 486.76 298.971 497.666 297.711 499.579C295.461 503.014 300.791 501.872 302.121 514.26C302.601 518.706 303.591 523.964 304.851 528.721C303.701 517.605 302.231 506.509 300.541 500.67Z" fill="#E0E0E0"/>
<path d="M298.211 559.986C294.422 558.084 288.562 534.98 288.152 533.288C289.202 537.994 290.252 542.361 291.262 546.417C294.332 558.695 295.412 563.572 295.412 563.572C295.412 563.572 305.381 560.758 307.54 561.409C305.671 560.287 302.101 561.939 298.211 559.986Z" fill="#E0E0E0"/>
<path d="M294.192 381.276C294.192 381.276 291.902 422.035 259.855 423.047C259.855 423.047 275.704 430.057 286.323 409.397C291.532 399.272 293.942 389.217 294.192 381.276Z" fill="#D44E72"/>
<path d="M214.08 375.257C215.63 375.788 217.18 376.299 218.74 376.78C240.398 383.419 242.007 388.206 243.997 402.467C244.437 405.642 244.767 408.626 244.997 411.36C246.287 404.7 246.177 394.275 242.717 388.427C237.768 380.074 220.629 375.818 214.08 375.257Z" fill="#D44E72"/>
<path d="M248.877 424.699C249.007 423.808 249.287 422.796 247.817 424.539C245.337 427.463 246.147 424.409 245.477 424.869C245.407 427.143 245.247 428.755 245.057 429.566C246.557 426.682 248.557 426.922 248.877 424.699Z" fill="#D44E72"/>
<path d="M304.731 383.379C303.301 386.674 302.691 391.03 302.451 394.625C302.671 393.914 302.901 393.233 303.151 392.572C308.191 378.973 314.3 379.904 318.73 379.624C320.129 379.533 322.969 378.762 326.609 377.51C321.219 377.46 307.281 377.49 304.731 383.379Z" fill="#D44E72"/>
<path d="M24.2477 410.479C37.3632 410.479 47.9954 399.83 47.9954 386.694C47.9954 373.558 37.3632 362.909 24.2477 362.909C11.1322 362.909 0.5 373.558 0.5 386.694C0.5 399.83 11.1322 410.479 24.2477 410.479Z" fill="#F55681"/>
<path d="M33.0473 390.259C32.8773 389.768 32.6473 389.308 32.3573 388.867C32.0574 388.426 31.6974 388.026 31.2674 387.655C30.8375 387.285 30.3675 386.964 29.8476 386.684C30.9075 386.173 31.7274 385.492 32.3073 384.641C32.8773 383.79 33.1672 382.848 33.1672 381.807C33.1672 380.815 32.9873 379.884 32.6173 379.023C32.2473 378.162 31.7474 377.41 31.1074 376.78C30.4675 376.149 29.7176 375.648 28.8577 375.277C28.2877 375.037 27.6978 374.877 27.0778 374.797H27.1678V371.742H24.868V374.696L25.508 374.727L23.4082 374.717V371.742H21.1084V374.707L15.209 374.686V377.481H17.5088V396.208H15.209V398.962H21.1084V401.636H23.4082V398.962H24.868V401.636H27.1678V398.962H26.2379C27.2178 398.962 28.1377 398.772 28.9876 398.401C29.8476 398.031 30.5975 397.52 31.2274 396.869C31.8674 396.218 32.3673 395.457 32.7373 394.585C33.1073 393.714 33.2872 392.773 33.2872 391.751C33.2972 391.251 33.2072 390.75 33.0473 390.259ZM20.6285 377.491H26.1179C26.6179 377.491 27.0878 377.611 27.5278 377.861C27.9677 378.111 28.3577 378.422 28.6877 378.822C29.0176 379.213 29.2776 379.664 29.4676 380.174C29.6576 380.685 29.7576 381.196 29.7576 381.717C29.7576 382.197 29.6576 382.658 29.4676 383.109C29.2776 383.559 29.0176 383.95 28.6977 384.29C28.3777 384.631 27.9877 384.901 27.5478 385.102C27.1078 385.302 26.6279 385.402 26.1179 385.402H20.6285V377.491ZM29.6076 393.444C29.4176 393.965 29.1676 394.435 28.8377 394.846C28.5077 395.256 28.1277 395.587 27.6878 395.847C27.2478 396.108 26.7779 396.228 26.2679 396.228H20.6285V388.196H26.2679C26.7679 388.196 27.2378 388.296 27.6778 388.497C28.1177 388.697 28.4977 388.967 28.8277 389.308C29.1476 389.648 29.4076 390.039 29.5976 390.479C29.7876 390.92 29.8876 391.371 29.8876 391.841C29.8876 392.382 29.7976 392.913 29.6076 393.444Z" fill="white"/>
<path d="M452.136 38.4962C458.918 38.4962 464.415 32.9903 464.415 26.1983C464.415 19.4064 458.918 13.9004 452.136 13.9004C445.355 13.9004 439.857 19.4064 439.857 26.1983C439.857 32.9903 445.355 38.4962 452.136 38.4962Z" fill="#21202F"/>
<path d="M456.687 28.041C456.597 27.7906 456.477 27.5503 456.327 27.32C456.177 27.0896 455.987 26.8893 455.767 26.699C455.547 26.5088 455.297 26.3385 455.037 26.1983C455.587 25.9379 456.007 25.5774 456.307 25.1368C456.607 24.6961 456.757 24.2054 456.757 23.6746C456.757 23.1639 456.667 22.6832 456.477 22.2325C456.287 21.7819 456.027 21.4013 455.697 21.0708C455.367 20.7404 454.977 20.48 454.537 20.2897C454.247 20.1595 453.937 20.0894 453.617 20.0393H453.667V18.457H452.477V19.9793L452.807 19.9993H451.717V18.457H450.527V19.9893L447.477 19.9793V21.4214H448.667V31.1055H447.477V32.5476H450.527V33.9296H451.717V32.5476H452.477V33.9296H453.667V32.5476H453.187C453.697 32.5476 454.167 32.4474 454.607 32.2571C455.047 32.0669 455.437 31.7965 455.767 31.466C456.097 31.1255 456.357 30.7349 456.547 30.2843C456.737 29.8336 456.827 29.3429 456.827 28.8221C456.817 28.5517 456.777 28.3014 456.687 28.041ZM450.267 21.4414H453.107C453.367 21.4414 453.607 21.5015 453.837 21.6317C454.067 21.7618 454.267 21.9221 454.437 22.1324C454.607 22.3327 454.747 22.573 454.837 22.8334C454.937 23.0938 454.987 23.3642 454.987 23.6346C454.987 23.8849 454.937 24.1253 454.837 24.3556C454.737 24.586 454.607 24.7963 454.437 24.9665C454.267 25.1468 454.067 25.287 453.847 25.3871C453.617 25.4873 453.377 25.5474 453.107 25.5474H450.267V21.4414ZM454.917 29.6934C454.817 29.9638 454.687 30.2042 454.517 30.4145C454.347 30.6248 454.147 30.795 453.927 30.9352C453.697 31.0654 453.457 31.1355 453.197 31.1355H450.287V26.9895H453.197C453.457 26.9895 453.697 27.0395 453.927 27.1497C454.157 27.2498 454.357 27.3901 454.517 27.5703C454.687 27.7506 454.817 27.9509 454.917 28.1712C455.017 28.4015 455.067 28.6319 455.067 28.8722C455.057 29.1426 455.007 29.423 454.917 29.6934Z" fill="white"/>
<path d="M165.434 124.261C199.695 124.261 227.468 96.4443 227.468 62.1306C227.468 27.8168 199.695 0 165.434 0C131.174 0 103.4 27.8168 103.4 62.1306C103.4 96.4443 131.174 124.261 165.434 124.261Z" fill="#F55681"/>
<path d="M141.5 62.6177L164.446 77L188.5 63.0611L164.446 23L141.5 62.6177Z" fill="white"/>
<path d="M141.5 68.5432L164.666 101L188.5 68L164.446 82.3658L141.5 68.5432Z" fill="white"/>
<path d="M390.982 193.792C401.596 193.792 410.2 185.175 410.2 174.544C410.2 163.914 401.596 155.296 390.982 155.296C380.368 155.296 371.764 163.914 371.764 174.544C371.764 185.175 380.368 193.792 390.982 193.792Z" fill="#2F2E41"/>
<path d="M382.693 174.635L390.783 179.672L399.262 174.795L390.783 160.774L382.693 174.635Z" fill="white"/>
<path d="M382.693 176.638L390.863 188.315L399.262 176.447L390.783 181.615L382.693 176.638Z" fill="white"/>
<path d="M358.325 638C376.361 638 390.982 623.356 390.982 605.292C390.982 587.228 376.361 572.584 358.325 572.584C340.289 572.584 325.668 587.228 325.668 605.292C325.668 623.356 340.289 638 358.325 638Z" fill="#F55681"/>
<path d="M345.52 605.429L358.024 613.213L371.138 605.675L358.024 584L345.52 605.429Z" fill="white"/>
<path d="M345.52 608.537L358.142 626.594L371.138 608.228L358.024 616.23L345.52 608.537Z" fill="white"/>
<path d="M485.503 384.831C502.622 384.831 516.5 370.931 516.5 353.785C516.5 336.64 502.622 322.74 485.503 322.74C468.384 322.74 454.506 336.64 454.506 353.785C454.506 370.931 468.384 384.831 485.503 384.831Z" fill="#F55681"/>
<path d="M490.152 353.784L485.5 349.124L480.848 353.784L485.5 358.443L490.152 353.784Z" fill="white"/>
<path d="M469.899 349.131L465.246 353.79L469.899 358.45L474.552 353.79L469.899 349.131Z" fill="white"/>
<path d="M472.234 346.795L476.884 351.452L485.503 342.83L494.092 351.432L498.742 346.775L485.503 333.516L472.234 346.795Z" fill="white"/>
<path d="M469.899 349.131L465.246 353.79L469.899 358.45L474.552 353.79L469.899 349.131Z" fill="white"/>
<path d="M485.503 364.742L476.884 356.119L472.234 360.776L485.503 374.055L498.762 360.776L494.112 356.119L485.503 364.742Z" fill="white"/>
<path d="M501.082 349.124L496.43 353.784L501.082 358.444L505.735 353.784L501.082 349.124Z" fill="white"/>
<path d="M192.532 583.651C205.388 583.651 215.809 573.213 215.809 560.337C215.809 547.461 205.388 537.023 192.532 537.023C179.676 537.023 169.254 547.461 169.254 560.337C169.254 573.213 179.676 583.651 192.532 583.651Z" fill="#2F2E41"/>
<path d="M195.747 560.335L192.533 557.117L189.32 560.335L192.533 563.553L195.747 560.335Z" fill="white"/>
<path d="M181.751 557.118L178.537 560.336L181.751 563.554L184.964 560.336L181.751 557.118Z" fill="white"/>
<path d="M183.367 555.509L186.578 558.734L192.529 552.773L198.462 558.715L201.673 555.5L192.529 546.333L183.367 555.509Z" fill="white"/>
<path d="M181.751 557.117L178.537 560.335L181.751 563.553L184.964 560.335L181.751 557.117Z" fill="white"/>
<path d="M192.529 567.909L186.578 561.948L183.367 565.164L192.529 574.34L201.691 565.164L198.471 561.948L192.529 567.909Z" fill="white"/>
<path d="M203.286 557.12L200.072 560.338L203.286 563.556L206.499 560.338L203.286 557.12Z" fill="white"/>
<path d="M121.168 179.932C129.728 179.932 136.667 172.983 136.667 164.41C136.667 155.837 129.728 148.887 121.168 148.887C112.609 148.887 105.67 155.837 105.67 164.41C105.67 172.983 112.609 179.932 121.168 179.932Z" fill="#2F2E41"/>
<path d="M123.502 164.405L121.176 162.075L118.85 164.405L121.176 166.735L123.502 164.405Z" fill="white"/>
<path d="M113.371 162.077L111.045 164.407L113.371 166.737L115.698 164.407L113.371 162.077Z" fill="white"/>
<path d="M114.541 160.915L116.871 163.248L121.17 158.932L125.47 163.238L127.8 160.905L121.17 154.275L114.541 160.915Z" fill="white"/>
<path d="M113.371 162.077L111.045 164.407L113.371 166.737L115.698 164.407L113.371 162.077Z" fill="white"/>
<path d="M121.168 169.888L116.869 165.571L114.539 167.905L121.168 174.544L127.808 167.905L125.478 165.571L121.168 169.888Z" fill="white"/>
<path d="M128.959 162.078L126.633 164.408L128.959 166.738L131.285 164.408L128.959 162.078Z" fill="white"/>
<path d="M276.597 385.391L276.196 386.591C276.115 386.837 275.885 387.001 275.626 387.001H265.926C265.516 387.001 265.226 387.402 265.356 387.791C265.437 388.037 265.666 388.202 265.926 388.202H274.826C275.237 388.202 275.526 388.603 275.396 388.992L273.795 393.796C273.714 394.041 273.485 394.206 273.225 394.206H265.395C265.136 394.206 264.906 394.041 264.825 393.796L264.424 392.595C264.294 392.206 264.584 391.805 264.994 391.805H271.494C271.751 391.805 271.981 391.64 272.064 391.395C272.194 391.006 271.904 390.605 271.494 390.605H264.195C263.935 390.605 263.706 390.44 263.625 390.194L262.024 385.391C261.894 385.001 262.183 384.601 262.594 384.601H276.027C276.437 384.601 276.727 385.004 276.597 385.391Z" fill="white"/>
<path d="M282.859 385.391L282.458 386.592C282.377 386.837 282.148 387.002 281.888 387.002H279.791L280.59 384.601H282.287C282.699 384.601 282.989 385.004 282.859 385.391Z" fill="white"/>
<path d="M285.318 381.79L284.917 382.991C284.836 383.236 284.607 383.401 284.347 383.401H280.994L281.52 381.82C281.682 381.331 282.141 381 282.658 381H284.748C285.158 381 285.448 381.401 285.318 381.79Z" fill="white"/>
<path d="M277.689 387.004H279.787L277.523 393.798C277.441 394.044 277.212 394.208 276.953 394.208H275.687C275.277 394.208 274.987 393.807 275.117 393.418L277.119 387.414C277.2 387.168 277.43 387.004 277.689 387.004Z" fill="white"/>
<path d="M280.986 383.4L280.585 384.601H278.887C278.476 384.601 278.187 384.2 278.316 383.811C278.398 383.565 278.627 383.4 278.887 383.4H280.986Z" fill="white"/>
<path d="M275.671 397C276.202 397 276.632 396.569 276.632 396.038C276.632 395.507 276.202 395.077 275.671 395.077C275.14 395.077 274.709 395.507 274.709 396.038C274.709 396.569 275.14 397 275.671 397Z" fill="white"/>
<path d="M269.313 397C269.844 397 270.275 396.569 270.275 396.038C270.275 395.507 269.844 395.077 269.313 395.077C268.782 395.077 268.352 395.507 268.352 396.038C268.352 396.569 268.782 397 269.313 397Z" fill="white"/>
</svg>
