<?xml version="1.0" encoding="utf-8"?>
<!-- Generator: Adobe Illustrator 24.1.3, SVG Export Plug-In . SVG Version: 6.00 Build 0)  -->
<svg version="1.1" id="图层_1" xmlns="http://www.w3.org/2000/svg" xmlns:xlink="http://www.w3.org/1999/xlink" x="0px" y="0px"
	 viewBox="0 0 1920 660" style="enable-background:new 0 0 1920 660;" xml:space="preserve">
<style type="text/css">
	.st0{fill:#F5F5F5;}
	.st1{fill:#FFFFFF;stroke:#E6E6E6;stroke-miterlimit:10;}
	.st2{fill:#FFB8B8;}
	.st3{fill:#FF4480;}
	.st4{fill:#21202F;}
	.st5{fill:#2F2E41;}
	.st6{fill:none;stroke:#2F2E41;stroke-linecap:round;stroke-miterlimit:10;}
	.st7{fill:none;stroke:#FAA5A5;stroke-linecap:round;stroke-miterlimit:10;}
	.st8{fill:#FAA5A5;}
	.st9{fill:none;stroke:#FAA5A5;stroke-width:0.5;stroke-linecap:round;stroke-miterlimit:10;}
	.st10{fill:none;stroke:#2F2E41;stroke-width:0.5;stroke-linecap:round;stroke-miterlimit:10;}
	.st11{fill:#FFFFFF;}
	.st12{fill:#E6E6E6;}
	.st13{fill:none;stroke:#000000;stroke-width:0.25;stroke-miterlimit:10;}
	.st14{fill:none;stroke:#E6E6E6;stroke-linecap:round;stroke-miterlimit:10;}
	.st15{fill:none;stroke:#FFFFFF;stroke-linecap:round;stroke-miterlimit:10;}
	.st16{fill:#E0E0E0;}
	.st17{fill:#D44E72;}
	.st18{fill:#C93F6A;}
	.st19{fill:none;stroke:#FAA5A5;stroke-linecap:round;}
	.st20{fill:#A0616A;}
	.st21{fill:#864B53;}
	.st22{fill:none;stroke:#2F2E41;stroke-miterlimit:10;}
	.st23{fill:none;stroke:#D44E72;stroke-linecap:round;stroke-miterlimit:10;}
	.st24{fill:none;stroke:#E6E6E6;stroke-miterlimit:10;}
	.st25{fill:none;stroke:#E6E6E6;stroke-linecap:round;stroke-dasharray:8,8;}
	.st26{fill:none;stroke:#D44E72;stroke-miterlimit:10;}
	.st27{fill:none;stroke:#FF4480;stroke-linecap:round;stroke-miterlimit:10;}
	.st28{fill:none;stroke:#21202F;stroke-linecap:round;stroke-miterlimit:10;}
	.st29{fill:none;stroke:#E6E6E6;stroke-linecap:round;stroke-linejoin:round;stroke-miterlimit:10;}
	.st30{fill:none;stroke:#E0E0E0;stroke-linecap:round;stroke-linejoin:round;stroke-miterlimit:10;}
	.st31{fill:none;stroke:#E6E6E6;stroke-width:0.75;stroke-linecap:round;stroke-miterlimit:10;}
	.st32{fill:none;stroke:#E6E6E6;stroke-width:0.75;stroke-linecap:round;stroke-miterlimit:10;stroke-dasharray:11.76,11.76;}
	.st33{fill:none;stroke:#2F2E41;stroke-width:0.25;stroke-linecap:round;stroke-miterlimit:10;}
	.st34{fill:none;stroke:#864B53;stroke-linecap:round;stroke-miterlimit:10;}
	.st35{fill:#FFFFFF;stroke:#E6E6E6;stroke-linecap:round;stroke-linejoin:round;stroke-miterlimit:10;}
	.st36{fill:#FF4480;}
	.st37{font-family:'Aqumtwo-Classic';}
	.st38{font-size:12.5787px;}
	.st39{fill:none;stroke:#FF4480;stroke-width:4;stroke-linecap:round;stroke-linejoin:round;stroke-miterlimit:10;}
</style>
<path class="st0" d="M1921.7,0.2H1.7v660h1920V0.2z"/>
<path class="st1" d="M480.9,490.2c99.6,0,180.3-80.7,180.3-180.3c0-99.6-80.7-180.3-180.3-180.3c-99.6,0-180.3,80.7-180.3,180.3
	C300.6,409.5,381.3,490.2,480.9,490.2z"/>
<path class="st1" d="M712.4,430.5H524.8c-4.1,0-7.4-3.3-7.4-7.4V304.5c0-4.1,3.3-7.4,7.4-7.4h187.6c4.1,0,7.4,3.3,7.4,7.4v118.6
	C719.8,427.1,716.5,430.5,712.4,430.5z"/>
<path class="st1" d="M663.2,412.4c26.3,0,47.6-21.3,47.6-47.6c0-26.3-21.3-47.6-47.6-47.6s-47.6,21.3-47.6,47.6
	C615.6,391.1,636.9,412.4,663.2,412.4z"/>
<path class="st2" d="M649.6,344.7l-0.8,20.1l17.9,2.4c0,0,3.9-3.7,4.4-4.3c0.5-0.6,2.4-17.2,2.4-17.2l-14-6.4L649.6,344.7z"/>
<path class="st3" d="M689.8,382.9c-5.1-0.8-9.4-1.1-13.1-5.1c-3.8-4-1.7-11.2-1.7-11.2l-18.6,5c0,0,4,5.5,0,10.1
	c-4,4.6-9,0.4-20.2,4.5c-4.6,1.7-7.6,5.4-9.5,9c8.7,10.5,21.9,17.1,36.6,17.1c15.9,0,30-7.8,38.6-19.8
	C698.8,387.4,693.5,383.4,689.8,382.9z"/>
<path class="st2" d="M663.5,389.9c12,0.1,16.3-5.7,17.7-9c-1.6-0.7-3.1-1.7-4.5-3.2c-3.8-4-1.7-11.2-1.7-11.2l-18.6,5.1
	c0,0,4,5.5,0,10.1c-1.2,1.3-2.4,1.9-3.9,2.2C653.8,387.2,656.9,389.9,663.5,389.9z"/>
<path class="st4" d="M683.4,355.6c0,0-0.7,13.7-7.5,12.7s-6.7-2.2-6.7-2.7c0-0.5,5.2-15.8,5.2-15.8L683.4,355.6z"/>
<path class="st5" d="M672.3,331.3c0,0-5.1-9.8-17.4-7.7s-15.3,12.7-5.6,19.5c0,0-2.2,3.8,3.7,3.1s7.2-3.8,7.2-3.8s1.2,5.7,7.9,4.7
	c0,0-1.2,7.6,6.4,7.1c0,0,0.9,7.6,11.8,3.1c9.4-3.9,2-18.4-3.1-19.1c0,0-0.8-8.4-5.4-9C673.1,328.5,672.3,331.3,672.3,331.3z"/>
<path class="st2" d="M674.5,354.2c0,0,1-2.7,5-2.3c4,0.4,3.5,9.7-5.3,8.9L674.5,354.2z"/>
<path class="st5" d="M674.5,354.2c0,0.4-0.4,10.8-0.8,13.7s-2.1,6.4-9.2,7.3c-7,0.8-12.6,0.7-15.5-4.9c-3-5.6,0-11.3,4-11.6
	c4-0.3,6.4,0.3,8.9,3.8c2.5,3.5,9.5-1.5,9.8-9.9L674.5,354.2z"/>
<path class="st6" d="M660.7,349.5c0,0,1.8-0.3,3.4,1.4"/>
<path class="st6" d="M651.7,349.5c0,0-1.4-0.3-2,0.3"/>
<path class="st7" d="M655,350.9c0,0-2.5,3.4-2.7,5.2c-0.1,1.8,4,1.1,4,1.1"/>
<path class="st5" d="M661,353.5c0.4,0,0.7-0.4,0.7-0.8c0-0.5-0.3-0.8-0.7-0.8c-0.4,0-0.7,0.4-0.7,0.8
	C660.2,353.2,660.6,353.5,661,353.5z"/>
<path class="st5" d="M651,353.4c0.4,0,0.7-0.4,0.7-0.8c0-0.5-0.3-0.8-0.7-0.8c-0.4,0-0.7,0.4-0.7,0.8
	C650.3,353.1,650.6,353.4,651,353.4z"/>
<path class="st7" d="M675.5,358.4c0,0,0.2-1.6,2.2-2"/>
<path class="st1" d="M607.9,345.1h-61.8c-0.5,0-1-0.4-1-1v-12.5c0-0.6,0.5-1,1-1h61.8c0.5,0,1,0.4,1,1v12.5
	C608.9,344.7,608.5,345.1,607.9,345.1z"/>
<path class="st1" d="M607.9,380.5h-40c-0.5,0-1-0.4-1-1v-8.4c0-0.5,0.5-1,1-1h40c0.5,0,1,0.5,1,1v8.4
	C608.9,380,608.5,380.5,607.9,380.5z"/>
<path class="st1" d="M607.9,399.3h-74.4c-0.5,0-1-0.4-1-1v-8.4c0-0.5,0.5-1,1-1h74.4c0.5,0,1,0.5,1,1v8.4
	C608.9,398.9,608.5,399.3,607.9,399.3z"/>
<path class="st1" d="M450.7,352.5H283.1c-2.3,0-4.1-1.8-4.1-4.1V237.6c0-2.3,1.8-4.1,4.1-4.1h167.6c2.3,0,4.1,1.8,4.1,4.1v110.8
	C454.9,350.7,453,352.5,450.7,352.5z"/>
<path class="st1" d="M326,333.4c21.9,0,39.6-17.7,39.6-39.6c0-21.9-17.7-39.6-39.6-39.6c-21.9,0-39.6,17.7-39.6,39.6
	C286.5,315.7,304.2,333.4,326,333.4z"/>
<path class="st5" d="M335.3,265.5c0,0,7.6-1.2,9.7,4.8c2,6.1-2,9.2-2,9.2s-5.1,11.5-1.5,15s10.6,5.2,12.1,13.1s-5.6,12.1-5.6,12.1
	H300c0,0-2.8-7.8,2.5-15.6c2.9-4.3,8.7-3.5,10.2-9.3c1.6-5.8-2.2-12.8,2.7-21.6S327.8,260.5,335.3,265.5z"/>
<path class="st3" d="M355.3,320.5c-0.9-12.6-12.1-11.5-16-13.3c-4-1.9-1.7-9.2-1.7-9.2l-15.9-8.6c0,0,2.2,7.7,1.1,14.7
	c-1.1,7-9.4,3.4-18,6.9c-4.9,2-7.1,6.3-7.9,9.7c7.2,7.8,17.6,12.7,29,12.7C337.6,333.4,348,328.4,355.3,320.5z"/>
<path class="st2" d="M313,309.2c1.1,2.1,4.7,7.1,15.7,6.6c11.1-0.6,16-5,17.5-6.8c-2.7-0.8-5.4-1.1-6.9-1.8c-4-1.9-1.7-9.2-1.7-9.2
	l-15.9-8.6c0,0,2.2,7.7,1.1,14.7C322.1,308.8,318.1,308.7,313,309.2z"/>
<path class="st8" d="M327.3,293.9c0,0.5,0.4,5,9.7,9.2c-0.2-2.5,0.6-5.1,0.6-5.1l-11.5-6.2C326.5,292.7,327.3,293.9,327.3,293.9z"/>
<path class="st2" d="M331.7,275.8c0,0,3.6,3.2,9.7,2.7c0,0,6.6,10,1.8,19c-4.8,8.9-20.8-5.8-20.8-5.8s-5.4-0.3-4-6.5
	c0.8-3.4,4.9-2.5,5.3,0.2c0,0-0.5-6.9,1-8.2c0,0,6.9,3.6,8.2,2.1C334.1,277.7,331.7,275.8,331.7,275.8z"/>
<path class="st3" d="M324.3,298.1h-2.7c-0.4,0-0.7-0.3-0.7-0.7v-7c0-0.4,0.3-0.7,0.7-0.7h2.7c0.4,0,0.7,0.3,0.7,0.7v7
	C325,297.8,324.7,298.1,324.3,298.1z"/>
<path class="st5" d="M333.8,287.2c0.4-0.1,0.6-0.7,0.4-1.3c-0.2-0.6-0.7-0.9-1.1-0.8c-0.4,0.1-0.6,0.7-0.4,1.3
	C332.9,287,333.4,287.3,333.8,287.2z"/>
<path class="st5" d="M341.9,285.8c0.4-0.1,0.6-0.7,0.4-1.3c-0.2-0.6-0.7-0.9-1.1-0.8c-0.4,0.1-0.6,0.7-0.4,1.3
	C341,285.6,341.5,285.9,341.9,285.8z"/>
<path class="st9" d="M338.4,284.4c0,0,0.5,2,1.6,3.3s-1.5,2.3-1.5,2.3"/>
<path class="st10" d="M332.8,282.3c0,0-3,1.4-3.8,2.5"/>
<path class="st10" d="M339.3,281.6c0,0,2.1-0.4,3.5,0.1"/>
<path class="st8" d="M334.4,291.5c0,0,4.8-0.3,6.5,1.6c0,0-2.9,3.5-5.3,2C333.3,293.5,334.4,291.5,334.4,291.5z"/>
<path class="st1" d="M433.4,277.5h-55.1c-0.7,0-1.3-0.6-1.3-1.4v-7.2c0-0.7,0.6-1.4,1.3-1.4h55.1c0.7,0,1.4,0.6,1.4,1.4v7.2
	C434.7,276.9,434.1,277.5,433.4,277.5z"/>
<path class="st1" d="M404.5,306.7h-26.2c-0.7,0-1.4-0.6-1.4-1.4v-4.5c0-0.7,0.6-1.4,1.4-1.4h26.2c0.7,0,1.4,0.6,1.4,1.4v4.5
	C405.8,306.1,405.2,306.7,404.5,306.7z"/>
<path class="st1" d="M435.9,319.7h-57.6c-0.7,0-1.3-0.6-1.3-1.4v-4.5c0-0.7,0.6-1.3,1.3-1.3h57.6c0.7,0,1.4,0.6,1.4,1.3v4.5
	C437.2,319,436.6,319.7,435.9,319.7z"/>
<path class="st1" d="M448.8,461.1H335.8c-1.8,0-3.2-1.4-3.2-3.2v-66.7c0-1.8,1.4-3.2,3.2-3.2h113.1c1.8,0,3.2,1.4,3.2,3.2V458
	C452,459.7,450.6,461.1,448.8,461.1z"/>
<path class="st1" d="M415,449.3c13.4,0,24.3-10.9,24.3-24.3c0-13.4-10.9-24.3-24.3-24.3c-13.4,0-24.3,10.9-24.3,24.3
	C390.7,438.4,401.6,449.3,415,449.3z"/>
<path class="st5" d="M422.6,404.4c1.3-1.3,7.2-0.7,8,5.5c0.8,6.1-2.4,7.6-4.5,7.7l-15.2,4.1c0,0-4.3-1.7-3.7-7.9
	c0.4-4.5,5.9-4.8,7.8-4.5c0,0-0.8-1.9,0.8-2.1c1.6-0.3,5.9,0.7,6.5,1.9C422.4,408.9,421.2,405.8,422.6,404.4z"/>
<path class="st11" d="M415,449c-6.6,0-12.7-2.6-17.2-7.3c0.7-2.4,2.3-6.2,5-6.9c1.5-0.4,3-0.4,4.2-0.4c0.4,0,0.8,0,1.1,0
	c0.3,0,0.7,0,1,0c1.4,0,2.7-0.1,3.1-0.9c0.6-1.4,0.6-6.5,0.6-7.9l9.8,4.1c-0.2,0.8-0.8,3.6,0.6,5.1c0.6,0.6,2,0.7,3.7,0.7
	c2.9,0,6.4,0,8.2,2.7C430.6,445,423.1,449,415,449z"/>
<path class="st12" d="M413.1,426l9.2,3.8c-0.2,1-0.7,3.7,0.7,5.1c0.7,0.7,2.1,0.7,3.9,0.8c2.8,0,6.2,0,7.9,2.5
	c-4.4,6.6-11.8,10.6-19.8,10.6c-6.4,0-12.4-2.5-16.9-7.1c0.7-2.3,2.3-6,4.8-6.6c1.5-0.3,3-0.4,4.1-0.4c0.4,0,0.8,0,1.1,0
	c0.3,0,0.7,0,1,0c1.5,0,2.9-0.1,3.4-1.1C413,432.3,413.1,427.9,413.1,426z M412.6,425.2c0,0,0.1,6.7-0.6,8.2
	c-0.3,0.7-1.4,0.8-2.9,0.8c-0.6,0-1.4,0-2.1,0c-1.4,0-2.8,0.1-4.3,0.4c-2.8,0.7-4.5,4.7-5.2,7.2c4.4,4.6,10.6,7.5,17.5,7.5
	c8.6,0,16.1-4.4,20.4-11.1c-2.8-4.6-10.6-2-12-3.6c-1.5-1.6-0.5-5.1-0.5-5.1L412.6,425.2z"/>
<path class="st8" d="M423.4,434.6c-1.5-1.6-0.5-5.1-0.5-5.1l-10.4-4.3c0,0,0.1,6.7-0.6,8.2c-0.2,0.5-0.9,0.7-1.8,0.8
	c1,1.4,3.4,3.5,8.5,3.4c3.1-0.1,4.8-1.2,5.6-2.6C423.8,434.9,423.5,434.8,423.4,434.6z"/>
<path class="st2" d="M426.1,417.5c-1.8,0.1-4.2-0.7-6.3-2c-2.1-1.4-6-2.4-7.2-0.4c-1.3,2-0.2,4.6-0.2,4.6s-3.4-0.7-3.5,2.9
	c0,2.4,3.5,3.6,3.5,3.6s2,6.1,8.5,5.5C427.4,431.1,426.1,417.5,426.1,417.5z"/>
<path class="st13" d="M417.8,419.2c0,0-1.8-0.4-2.8,0.5"/>
<path class="st13" d="M422.7,419.1c0,0,1.5-0.2,2.3,0.6"/>
<path class="st13" d="M420.8,420.4c0,0,1.2,2.6,0.4,3.6c-0.8,1-1.6,0-1.6,0"/>
<path class="st13" d="M418.3,425.8c0,0,0,1.1,2.3,1.2"/>
<path class="st5" d="M416.9,421.8c0.3,0,0.5-0.3,0.5-0.6c0-0.3-0.2-0.6-0.5-0.6s-0.5,0.3-0.5,0.6
	C416.4,421.5,416.6,421.8,416.9,421.8z"/>
<path class="st5" d="M423.4,421.8c0.3,0,0.5-0.3,0.5-0.6c0-0.3-0.2-0.6-0.5-0.6c-0.3,0-0.5,0.3-0.5,0.6
	C422.9,421.5,423.1,421.8,423.4,421.8z"/>
<path class="st12" d="M362,415.8h22.5c0.4,0,0.8-0.3,0.8-0.8v-7.3c0-0.4-0.3-0.8-0.8-0.8H362c-0.4,0-0.8,0.3-0.8,0.8v7.3
	C361.2,415.5,361.6,415.8,362,415.8z"/>
<path class="st12" d="M365.4,432.3h19.1c0.4,0,0.8-0.3,0.8-0.8v-5.9c0-0.4-0.3-0.8-0.8-0.8h-19.1c-0.4,0-0.8,0.3-0.8,0.8v5.9
	C364.6,432,365,432.3,365.4,432.3z"/>
<path class="st12" d="M343.9,443.2h40.6c0.4,0,0.8-0.3,0.8-0.8v-5.9c0-0.4-0.3-0.8-0.8-0.8h-40.6c-0.4,0-0.8,0.3-0.8,0.8v5.9
	C343.2,442.8,343.5,443.2,343.9,443.2z"/>
<path class="st1" d="M648.3,129.4c16.4,0,29.7-13.3,29.7-29.7c0-16.4-13.3-29.7-29.7-29.7c-16.4,0-29.7,13.3-29.7,29.7
	C618.6,116.1,631.9,129.4,648.3,129.4z"/>
<path class="st1" d="M1124.4,124.5H779.6v223.6h344.8V124.5z"/>
<path class="st14" d="M896.3,171.1h227.8"/>
<path class="st14" d="M913,193.1h137.7"/>
<path class="st14" d="M913,209.4h105.3"/>
<path class="st14" d="M913,225.8h105.3"/>
<path class="st5" d="M897.1,124.5H779.6v223.6h117.5V124.5z"/>
<path class="st15" d="M797.8,156h51.9"/>
<path class="st15" d="M797.8,181.8h51.9"/>
<path class="st15" d="M808.8,193.1h40.9"/>
<path class="st15" d="M808.8,204.4h40.9"/>
<path class="st15" d="M808.8,215.6h40.9"/>
<path class="st15" d="M797.8,239.8h68.7"/>
<path class="st15" d="M808.8,262.4h57.7"/>
<path class="st15" d="M808.8,273.6h57.7"/>
<path class="st15" d="M797.8,298.2h51.9"/>
<path class="st15" d="M808.8,309.5h40.9"/>
<path class="st15" d="M808.8,320.8h40.9"/>
<path class="st15" d="M808.8,332h57.7"/>
<path class="st12" d="M930.4,210.9H816.8c-1.3,0-2.3-1-2.3-2.3v-38.2c0-1.3,1-2.3,2.3-2.3h113.6c1.3,0,2.3,1,2.3,2.3v38.2
	C932.7,209.9,931.7,210.9,930.4,210.9z"/>
<path class="st15" d="M825.2,178h96.4"/>
<path class="st15" d="M825.2,189.2h96.4"/>
<path class="st15" d="M825.2,200.5h74.8"/>
<path class="st3" d="M799.1,143.3c1.8,0,3.2-1.4,3.2-3.2s-1.4-3.2-3.2-3.2c-1.8,0-3.2,1.4-3.2,3.2S797.3,143.3,799.1,143.3z"/>
<path class="st11" d="M813,143.3c1.8,0,3.2-1.4,3.2-3.2s-1.4-3.2-3.2-3.2c-1.8,0-3.2,1.4-3.2,3.2S811.2,143.3,813,143.3z"/>
<path class="st4" d="M826.8,143.3c1.8,0,3.2-1.4,3.2-3.2s-1.4-3.2-3.2-3.2c-1.8,0-3.2,1.4-3.2,3.2S825.1,143.3,826.8,143.3z"/>
<path class="st11" d="M799.4,253.1c1.1,0,2-0.9,2-2c0-1.1-0.9-2-2-2c-1.1,0-2,0.9-2,2C797.4,252.2,798.3,253.1,799.4,253.1z"/>
<path class="st11" d="M799.4,264.4c1.1,0,2-0.9,2-2c0-1.1-0.9-2-2-2c-1.1,0-2,0.9-2,2C797.4,263.5,798.3,264.4,799.4,264.4z"/>
<path class="st11" d="M799.4,275.6c1.1,0,2-0.9,2-2c0-1.1-0.9-2-2-2c-1.1,0-2,0.9-2,2C797.4,274.7,798.3,275.6,799.4,275.6z"/>
<path class="st11" d="M799.4,311.5c1.1,0,2-0.9,2-2s-0.9-2-2-2c-1.1,0-2,0.9-2,2S798.3,311.5,799.4,311.5z"/>
<path class="st11" d="M799.4,322.8c1.1,0,2-0.9,2-2c0-1.1-0.9-2-2-2c-1.1,0-2,0.9-2,2C797.4,321.9,798.3,322.8,799.4,322.8z"/>
<path class="st11" d="M799.4,334c1.1,0,2-0.9,2-2c0-1.1-0.9-2-2-2c-1.1,0-2,0.9-2,2C797.4,333.1,798.3,334,799.4,334z"/>
<path class="st11" d="M891,235.2h-17.4v11H891V235.2z"/>
<path class="st15" d="M809,249.5h57.7"/>
<path class="st1" d="M806.9,374.7l5.8,51.7h17.5l6.5-51.4L806.9,374.7z"/>
<path class="st1" d="M806.1,372.2H836c0.4,0,0.8,0.2,1,0.6l1.5,2.5c0.5,0.8-0.1,1.9-1.1,1.9h-32.2c-0.8,0-1.4-0.8-1.2-1.6l0.8-2.5
	C805.1,372.5,805.6,372.2,806.1,372.2z"/>
<path class="st12" d="M811.6,417.6c4-1.3,10.5-2.2,19.6,0.2l3.8-29.4c-2,1.4-4.6,2.3-7.7,1.7c-7.8-1.5-9.7-1.7-12.6-1.3
	c-1.4,0.2-3.8,0.2-6.3-0.4L811.6,417.6z"/>
<path class="st1" d="M811.3,346.6c-2.7,0.3-3.9,5.8,0,7.8c0,0-4.6,5.8-2.4,11c2.2,5.2,15.8,4.2,16.5-3.6c0.7-7.8-6.3-11.5-10.7-10.3
	C814.7,351.5,815.7,346.1,811.3,346.6z"/>
<path class="st1" d="M803.6,349.1c0.9,0,1.7-0.7,1.7-1.7c0-0.9-0.7-1.7-1.7-1.7c-0.9,0-1.7,0.7-1.7,1.7
	C801.9,348.4,802.6,349.1,803.6,349.1z"/>
<path class="st1" d="M815.5,341.5c0,0.2-0.1,0.4-0.2,0.6c-0.6,1.2-2.3,1.6-3.5,1.6c-1.6,0-3.2-0.5-4.2-1.8c-0.7-0.9-1-2.1-0.6-3.2
	c0.7-2.2,5.4-2,6.8-0.9C814.8,338.5,815.7,340.1,815.5,341.5z"/>
<path class="st12" d="M1047,397.6c0,0-26.4-32.7,6.3-50.8c0,0,18.5,8,17.2,28.9h-2c0,0-1.8-13.3-14-20.5
	C1054.5,355.1,1059.7,382.9,1047,397.6z"/>
<path class="st16" d="M1100.4,312.9c0,0,0.9,4.9-5.5,10.4c-6.4,5.5-9.2,13.5-10.3,18.7c-1.1,5.2-7.8,13.9-8,13.9
	c-0.2,0,4.3,18.9,4.3,18.9s3.5-10.6,6.3-17.2s14.3-17.8,16-25.8C1104.9,323.6,1100.4,312.9,1100.4,312.9z"/>
<path class="st12" d="M1065.4,307.7c0,0-3.2,54.2,13.7,69.8l2.3-0.6C1081.4,376.9,1091.4,358.4,1065.4,307.7z"/>
<path class="st16" d="M1122.3,384.9c0,0-2.8-29.7-14.6-29.9c-11.8-0.1-22.8,29.2-22.8,29.2l4.1-0.7c0,0,4.1-16.6,18.1-19.8
	C1107.1,363.7,1107.1,385,1122.3,384.9z"/>
<path class="st12" d="M1130.8,358c0,0,9.7-21.8-4.8-32.1c-14.4-10.3-42.5,40.4-39.8,53.8l2.7-2.2c0,0,9.2-34.9,32-40
	C1127.5,336,1130.8,358,1130.8,358z"/>
<path class="st1" d="M1038.3,329.2c0,0,4.4,14.3,23.2,9.9C1061.5,339.1,1058.5,327.6,1038.3,329.2z"/>
<path class="st16" d="M1080.3,324.5c0,0-3.9-12.2,5.7-14C1086,310.5,1088.6,319.1,1080.3,324.5z"/>
<path class="st1" d="M1062.8,375.2h37.5l6.9,17.9l-10.3,34.2h-30.3l-10.3-34.2L1062.8,375.2z"/>
<path class="st1" d="M1096.9,427.3l10.3-34.2l-50.9-0.1l10.3,34.2H1096.9z"/>
<path class="st1" d="M1172.3,412.7h-55.5v8.9h55.5V412.7z"/>
<path class="st3" d="M1109.5,415.4c-0.3,2.6,0,6.2,2.4,9.7h62.9c1.4,0,2.5-1.1,2.5-2.5s-1.1-2.5-2.5-2.5h-51.7c-1.7,0-3-1.4-3-3
	c0-1.7,1.4-3,3-3h52.8c0.8,0,1.4-0.6,1.4-1.4s-0.6-1.4-1.4-1.4h-61.7C1111.8,411.3,1109.7,413.1,1109.5,415.4z"/>
<path class="st1" d="M760.2,413.3c0,0,0.5-8,9.6-8c9.1,0,9.8,11.2,9.8,11.2L760.2,413.3z"/>
<path class="st1" d="M754.5,426.4l-3.6-10c-1-2.8,1.1-5.7,4-5.7h32.9c4,0,4,8.6-1.3,15.7H754.5z"/>
<path class="st1" d="M762.8,339.1c1.4,0,2.5,1,2.6,2.4l6.1,65.1c0.1,0.6-0.5,1.1-1.1,1c-0.4-0.1-0.6-0.4-0.7-0.8l-9.5-64.7
	C759.9,340.5,761.2,339.1,762.8,339.1z"/>
<path class="st1" d="M774.5,329.2c0,4.1-3.2,7.5-7.2,7.8c-0.2,0-0.4,0-0.6,0c-0.1,0-0.3,0-0.4,0c-4.1-0.2-7.4-3.6-7.4-7.8
	c0-4.3,3.5-7.8,7.8-7.8c0.6,0,1.1,0.1,1.6,0.2c0.3,0.1,0.7,0.2,1,0.3C772.3,322.9,774.5,325.8,774.5,329.2z"/>
<path class="st12" d="M767.6,333.3c1.6,0,2.9-1.3,2.9-2.9c0-1.6-1.3-2.9-2.9-2.9c-1.6,0-2.9,1.3-2.9,2.9
	C764.7,332,766,333.3,767.6,333.3z"/>
<path class="st1" d="M769.5,319.5c0.4,0.1,0.7,0,1-0.2l45.1-36c1.4-1.1,1.7-3,0.7-4.5c-1.1-1.7-3.5-1.9-5-0.6L769,317.4
	C768.2,318.1,768.6,319.3,769.5,319.5z"/>
<path class="st1" d="M825.3,285.9c3.6,0,6.6-2.9,6.6-6.6c0-3.6-3-6.6-6.6-6.6c-3.6,0-6.6,3-6.6,6.6
	C818.8,282.9,821.7,285.9,825.3,285.9z"/>
<path class="st12" d="M825.8,280.9c1.2,0,2.1-1,2.1-2.1c0-1.2-1-2.1-2.1-2.1c-1.2,0-2.1,1-2.1,2.1
	C823.7,280,824.6,280.9,825.8,280.9z"/>
<path class="st1" d="M834.1,287c-4.4,4.2-3.4,11.5-1.9,17.6c1.5,6.1-6.9,12.6-5.5,16.9c1.4,4.3,4.3,7,4.3,7s17.4-4.1,28-13
	c10.5-8.9,16.9-17,16.8-22.7l-3.9-5.6c-1-1.5-3-2.2-4.8-1.6c-2.8,0.9-7.3,2-12,1.7C847.5,286.9,840.4,281,834.1,287z"/>
<path class="st12" d="M871.9,287.3c-0.1-0.1-0.2-0.2-0.3-0.3c-1.8,4.4-6.1,12.6-13.2,17.4c-3,2-6.6,3.5-10.3,5
	c-7.7,3.2-15.6,6.4-20.2,15.2c0.4,0.8,0.8,1.4,1.3,2c4.1-9,12-12.3,19.7-15.4c3.6-1.5,7.4-3,10.6-5.2c7-4.7,11.3-12.4,13.4-17.1
	L871.9,287.3z"/>
<path class="st12" d="M834.6,294.7c0.7,0,1.2-0.6,1.2-1.3c0-0.7-0.6-1.3-1.2-1.3c-0.7,0-1.2,0.6-1.2,1.3
	C833.3,294.1,833.9,294.7,834.6,294.7z"/>
<path class="st12" d="M838.2,292.3c0.7,0,1.2-0.6,1.2-1.3c0-0.7-0.6-1.3-1.2-1.3c-0.7,0-1.2,0.6-1.2,1.3
	C836.9,291.7,837.5,292.3,838.2,292.3z"/>
<path class="st12" d="M840.7,288.8c0.7,0,1.2-0.6,1.2-1.3c0-0.7-0.6-1.3-1.2-1.3c-0.7,0-1.2,0.6-1.2,1.3
	C839.4,288.2,840,288.8,840.7,288.8z"/>
<path class="st12" d="M769.3,321.8l-2,15.1c-0.2,0-0.4,0-0.6,0c-0.1,0-0.3,0-0.4,0l2-15.4C768.7,321.6,769,321.7,769.3,321.8z"/>
<path class="st12" d="M829.3,273.9l-8.6,10l0.8,0.6l8.6-10L829.3,273.9z"/>
<path class="st3" d="M935,325c0,0-16.8,4.4-18,12c-1.2,7.6,3.7,13.1,8.2,15.5h57.8c0,0,6.3-2.7,6.3-11.9c0-9.2-13.3-15.4-21.4-15.9
	C959.8,324.2,935,325,935,325z"/>
<path class="st17" d="M955.6,326.9c0,0-17.9-0.5-24.2,1.8c-6.3,2.3-11.4,5.1-9.5,7.3c4.8,5.7,19.7,7.7,21.1,12.7h26.5
	c0,0,0.5-4.2,10.2-8.1c3.8-1.6,2.1-10.8-11.1-12.5C955.3,326.4,955.6,326.9,955.6,326.9z"/>
<path class="st18" d="M930,341.1c5.7,2.5,12,4.4,13,7.6h26.5c0,0,0.5-3.8,8.9-7.6C954.9,336.4,934.7,340.1,930,341.1z"/>
<path class="st4" d="M969,336.4c-5.5,1.7-8.9-1.4-10-3.1c3.8-6.3,12-18,13.6-14.7c1.7,3.4,6.6,2.4,8.9,1.6c-0.4,5.5-5.8,6.8-8.4,6.8
	C974,329.4,974.4,334.7,969,336.4z"/>
<path class="st8" d="M940.8,331.3v10.3c0,0,4.2,9.4,12.9,9.4c8.7,0,13.3-6.2,13.3-10.5c0-4.2,0-9.8,0-9.8L940.8,331.3z"/>
<path class="st5" d="M948.1,272c5-0.4,8.4,1.9,9.4,3.1c6.7,0,8.7,4.5,8.9,6.8c1.2-1.2,4.7-2.1,7.3,1c2.6,3.1,2.3,9.6,1.6,12.1
	c2.1,1,3.1,5.8,2.6,12.1c-0.4,5-3.7,12.2-5.2,15.2l-0.5,4.2c-1,2.1-10,14.7-17.3,14.7c-5.9,0-11.8-6.7-14.1-10v5.2
	c-4.6-1.3-5.8-6.8-5.8-9.4c-6.3,0-7.5-4.5-7.3-6.8c1.6,0.7,5.2,1.7,7.3,0c2.1-1.7-1.9-4.5-4.2-5.8c-6.3-2.9-4-10.3-2.1-13.6
	c-2.9-10.1,3.7-16.8,7.3-18.9C939.2,275.2,941.8,272.6,948.1,272z"/>
<path class="st4" d="M945.5,283.1c5.2-1,5.9,4,5.8,5.8l-9.4,10.5C941,293.7,940.3,284.1,945.5,283.1z"/>
<path class="st4" d="M953.4,288.3c4.2-0.8,4.2-6.6,3.7-9.4c5,4.6,2.8,9.3,1,11L953.4,288.3z"/>
<path class="st4" d="M967,288.8c-3.4-2.5-7.3-1.4-8.9-0.5l12.6,16.3C969.1,300.4,971.2,292,967,288.8z"/>
<path class="st2" d="M947.6,287.3h6.8h6.8c3.1,0,5.2,2.1,6.3,5.8c1,3.7,0,4.2,1,6.8c1,2.6,2.6,2.6,3.7,5.8c1,3.1,1,8.4,0,12.6
	c-1,4.2-5.8,13.1-10,13.1s-2.6-2.1-6.8-2.1s-2.1,3.7-8.4,2.1c-6.3-1.6-9.4-12.6-10-17.3c-0.5-4.7-0.5-7.3,2.1-10.5
	c2.6-3.1,3.1-6.8,3.1-10.5C942.4,289.4,944.4,287.3,947.6,287.3z"/>
<path class="st2" d="M931.3,317.1c-2.1-5,0.9-9.4,2.6-11c0,3.4,1.7,6.6,2.6,7.9l1,8.4C936.4,322.7,933.4,322.2,931.3,317.1z"/>
<path class="st2" d="M980.1,313c0-4.6-3.1-6.5-4.7-6.8c-0.5,1.6-1.7,5.3-2.1,7.9c-0.4,2.5-0.5,6.6-0.5,8.4
	C975.9,322.4,980.1,318.7,980.1,313z"/>
<path class="st5" d="M942.5,301.9h3.1h2.2c0.9,0,1.8,0,1.8,0.5c0,0.5,0,1.6-0.9,1.6h-3.6c-2.2,0-4.2,0.7-4.9,1
	C940.3,303.5,941.6,301.9,942.5,301.9z"/>
<path class="st5" d="M967.4,301.9h-3.1H962c-0.9,0-1.8,0-1.8,0.5c0,0.5,0,1.6,0.9,1.6h3.6c2.2,0,4.2,0.7,4.9,1
	C969.6,303.5,968.3,301.9,967.4,301.9z"/>
<ellipse class="st5" cx="946" cy="309.3" rx="1.6" ry="2.1"/>
<ellipse class="st5" cx="963.9" cy="309.3" rx="1.6" ry="2.1"/>
<path class="st11" d="M955.5,328.2c-3.4,0-5.9-2.8-6.8-4.2h13.6C961.4,325.4,958.8,328.2,955.5,328.2z"/>
<path class="st5" d="M945,322.4c1.3-2.5,7.2-2.8,10-2.6c2.9,0,8.4,0.5,10.5,2.6c1.7,1.7,0.3,4.9-0.5,6.3c0.4-2.5-0.9-4.2-2.2-4.7
	h-14.6c-1.7,0-2.4,3.1-2.6,4.7C944.9,327.7,943.8,325,945,322.4z"/>
<path class="st8" d="M956.5,313.5c0.2-3.4-1.2-6.3-1.2-6.3s-1.4,2.9-1.2,6.3c0.2,3.4-3.7,2.7-3.4,4.8c0.4,2.1,2.4,3.9,4.6,3.9
	c2.2,0,4.2-1.7,4.6-3.9C960.2,316.2,956.3,316.9,956.5,313.5z"/>
<path class="st19" d="M932.9,312.4c0.9,0.4,2.6,1.6,2.6,3.7"/>
<path class="st19" d="M935.5,315c-0.5-0.3-1.8-0.8-2.6,0"/>
<path class="st19" d="M977.5,312.4c-0.9,0.4-2.6,1.6-2.6,3.7"/>
<path class="st19" d="M974.9,315c0.5-0.3,1.8-0.8,2.6,0"/>
<path class="st17" d="M927.5,345.4c0,0-6.2-3.8-8.6-5.6c-1-0.7-1.4-2.3-1.6-3.9c-0.1,0.4-0.2,0.7-0.3,1.1c-0.7,4.5,0.7,8.2,3,11.1
	C923,345.7,927.5,345.4,927.5,345.4z"/>
<path class="st17" d="M989.4,340.6c0-0.7-0.1-1.4-0.2-2.1c-0.7,2.5-2.7,5.4-7.7,7c0,0,2.2,2.5,5.1,4.1
	C988,347.8,989.4,344.9,989.4,340.6z"/>
<path class="st1" d="M1017.9,384.4c0,0,5.8,76-16.8,84.4c-22.7,8.4-92.7-0.3-92.7-0.3s-25.8-9.8-21-63.1l73.6-30.3L1017.9,384.4z"/>
<path class="st1" d="M894.2,542.1l-13.8,78.6c-0.1,0.9,0.6,1.7,1.5,1.5c0.5-0.1,1-0.5,1.1-1l19.8-74.9L894.2,542.1z"/>
<path class="st1" d="M902,555.6l-11.5,52.2c-0.2,0.8,0.4,1.6,1.3,1.6h0.3c0.6,0,1.1-0.4,1.3-0.9l14.5-50.5L902,555.6z"/>
<path class="st1" d="M1012.3,542.1l13.8,78.6c0.2,0.9-0.6,1.7-1.5,1.5c-0.5-0.1-1-0.5-1.1-1l-19.8-74.9L1012.3,542.1z"/>
<path class="st1" d="M1004.4,555.6l11.5,52.2c0.2,0.8-0.5,1.6-1.3,1.6h-0.3c-0.6,0-1.1-0.4-1.3-0.9l-14.5-50.5L1004.4,555.6z"/>
<path class="st1" d="M879.2,435.4l-11.8,0.3c-1,0-1.8,0.9-1.7,1.9c0.8,8.2,5.4,41.2,27.4,54.8c14.4,8.9,60.1,9.1,60.1,9.1
	s43.4,2.3,57.2-6.7c13.8-9,27.4-19.6,27.9-58c0,0-8.1-4.1-14.6,0.1c0,0-5.7,32.2-25.7,37.7c-20,5.5-81.2,1.4-81.2,1.4
	s-30.3-4.9-35.2-38.5C881.5,436.3,880.4,435.4,879.2,435.4z"/>
<path class="st1" d="M1002,489.7c-41.1,10.8-94.7,0-94.7,0c-28.2-7.7-34.6-39.9-36-54.2l-3.9,0.1c-1,0-1.8,0.9-1.7,1.9
	c0.8,8.2,5.4,41.2,27.4,54.8c14.4,8.9,60.1,9.1,60.1,9.1s43.4,2.3,57.2-6.7c13.8-9,27.4-19.6,27.9-58c0,0-1.8-0.9-4.3-1.4
	C1035,450.5,1032.9,481.6,1002,489.7z"/>
<path class="st3" d="M901.5,352.5c0,0-26.2,36.1-24.7,56.2c1.5,20.1,62.4,20.1,62.4,20.1H993c0,0,35.7-0.6,38.8-21.9
	c3-20.8-16.8-50.8-29.3-54.2c-0.2-0.1-0.5-0.1-0.7-0.2C989.2,350.1,901.5,352.5,901.5,352.5z"/>
<path class="st17" d="M879,414.2c11.1,14.5,60.2,14.5,60.2,14.5H993c0,0,32.2-0.6,38.1-18.8c-2.1,0.9-4.7,1.4-8.1,1.2
	c-14.5-0.5-22.2-9.8-23-15.6c-0.8-5.9,5.1-3.1,5.1-3.1s6.6,7.9,11.1,3.8c1.7-1.6-11.1-1.9-10.9-11.2s-98,4.9-98,4.9l-1.3-1.2
	c0,0-10.1,4-10,6.3s3.9-0.3,4,3.4C900.1,401.5,888.5,411.5,879,414.2z"/>
<path class="st2" d="M919.8,597.8l0.8,8.2l-7.4,1.3l-1.8-11.4L919.8,597.8z"/>
<path class="st16" d="M904.4,591.2c0,0-1.7,8.8,12.5,8.8c5,0,6.2-2.4,6.2-2.4l-2.9-10.8L904.4,591.2z"/>
<path class="st2" d="M989.2,595.3c-0.2,0.3,1.2,8.1,1.2,8.1l1.4,6.1l5.4-4.3l2.8-4.2c0,0-1.6-5.9-2.3-5.8
	C997,595.4,989.2,595.3,989.2,595.3z"/>
<path class="st16" d="M987,588.6l-0.7,8c0,0,11.2,3.8,16.5,1l0.8-8.9L987,588.6L987,588.6z"/>
<path class="st12" d="M913.2,450.3c0,0-30.6,24.7-32.3,35.8c-1.7,11.1,9.6,61.4,13,74.4s9,22.9,9,22.9s-6.2,1.8-3.3,7.3
	c2.9,5.5,24.4,2.8,27.8,0.4c3.4-2.4,1.1-9.5-2.8-13.4c0,0-4.3-11.3-2.7-25.2c1.6-14-2.1-19.1-2.1-19.1s0-12.8-1.2-21.1
	c-1.2-8.3-0.2-14.2-0.2-14.2s24.8-11,27.9-15.1h10.4c0,0,20.8,10.4,34.1,12c0,0-12.3,57.4-5.1,76.7c0,0-8.8,13.5-3,18.5
	c5.9,5,24.7,3.4,27.5-1.9s-3.7-11.2-3.7-11.2s15.1-62.9,15.1-77c0,0,4-11.4,2.1-20.8c-1.9-9.3-24.1-26.6-31-28.6L913.2,450.3z"/>
<path class="st16" d="M994,495.6c0,0,7-1.9,6.4-4.8s-33.8-16.9-48-16.2c-7.8,0.4-15.1,4.1-17.7,6.3c-2.6,2.2-19.6,13.1-24.3,13.5
	c0,0-0.2,2.3,2.9,3.1c0,0-7.9,0.6-8.6,2.7c0,0,8.1,2.8,12.5,40.2c4.4,37.4,3.1,43.5,5.6,43.9c1,0.2,3.2,0.4,5.7,0.4
	c-0.7-2.5-2.2-5.1-4.1-7c0,0-4.3-11.3-2.7-25.2c1.6-14-2.1-19.1-2.1-19.1s0-12.8-1.2-21.1c-1.2-8.3-0.2-14.2-0.2-14.2
	s24.8-11,27.9-15.1h10.4c0,0,20.8,10.4,34,12c0,0-12.3,57.4-5.1,76.7c0,0,2-26.8,4.8-38.3C993.1,521.8,1003.5,501.8,994,495.6z"/>
<path class="st16" d="M1002,456.3c-3.9-2.7-7.3-4.7-9.4-5.3l-79.4-0.7c0,0-1,0.8-2.6,2.1c2.2,2.1,5.8,4,11.6,4.5
	c13.6,1.2,25.2,1.6,34.5,2.4C964.9,460.2,996.5,461.9,1002,456.3z"/>
<path class="st3" d="M907.5,428.7c0,0-5.4,19.3,1.4,20l-0.1,3c0,0,12.9,5.9,44.4,5.9c31.5,0,43.4-4.7,43.4-6.1
	c-0.1-1.4-0.9-3.4,0.7-4.8c1.5-1.4,4.3-2.8,0.7-15.2L907.5,428.7z"/>
<path class="st17" d="M936.5,449.6c-3.3-2.3-1.7,2.5-1.7,2.5c-5.9-4.3-22.8-3.3-25.9-3.4l-0.2,3c0,0,12.9,5.9,44.4,5.9
	c31.5,0,43.4-4.7,43.4-6.1s-0.9-3.4,0.7-4.8C980.3,458.3,939.8,451.9,936.5,449.6z"/>
<path class="st17" d="M970.3,431.5c-4.9,3-10.1,5.4-15.4,7.6c-5.3,2.2-10.7,4-16.3,5.4c-2.8,0.7-5.6,1.3-8.5,1.7
	c-2.9,0.4-5.8,0.6-8.8,0.3c-1.5-0.1-3-0.4-4.5-1l-1.1-0.5l-1-0.6c-0.4-0.2-0.6-0.5-0.9-0.7c-0.3-0.2-0.6-0.5-0.9-0.8
	c-1.1-1.1-2.1-2.4-2.5-3.9c-0.4-1.5-0.3-3.2,0.6-4.3c-0.4,1.4-0.2,2.8,0.5,3.9c0.7,1.1,1.6,2,2.7,2.7c0.3,0.2,0.5,0.4,0.8,0.5
	c0.3,0.2,0.6,0.4,0.9,0.5l0.8,0.3l0.9,0.2c0.3,0.1,0.6,0.1,0.9,0.2c0.3,0,0.6,0.1,1,0.1c0.7,0,1.3,0.1,2,0.1
	c5.4-0.1,10.9-1.4,16.3-2.7c5.4-1.3,10.8-2.9,16.3-4.5C959.3,434.6,964.8,433,970.3,431.5z"/>
<path class="st16" d="M1004.8,586.5c0.4,1.9,3.9,1.6,6-1c-0.1-4.3-4.4-8.2-4.4-8.2S1004.3,583.8,1004.8,586.5z"/>
<path class="st5" d="M909.8,597.1c-4-1.2-10.9,2.1-10.2,4.3s8.7,6.7,8.7,6.7s-9.7,7.9-13.3,9.8c-3.6,1.9-4.7,5.2-2.5,6.8
	c2.2,1.6,22.3,5,31.6-3.5c1.6-1.5,0.7-4.8-1-6.6c-1.7-1.9-0.5-8.4-1.9-10.8c-1.4-2.3-4.5-0.3-4.3,1.7
	C916.9,605.5,916.7,599.2,909.8,597.1z"/>
<path class="st3" d="M895.3,621.3c1.6-0.1,2.3-3.9,6.6-3.4c4.3,0.5,3.7,4.5,7,4c8.7-1.3,13.2-4.3,15.2-6.1c-0.3-0.5-0.6-0.9-0.9-1.3
	c-1.7-1.9-0.5-8.4-1.9-10.8c-1.4-2.3-4.5-0.3-4.3,1.7c0,0-0.2-6.3-7.1-8.4c-4-1.2-10.9,2.1-10.2,4.3c0.6,2.2,8.6,6.7,8.6,6.7
	s-9.7,7.9-13.3,9.8c-1.6,0.8-2.7,1.9-3.2,3C893,621.3,894.5,621.4,895.3,621.3z"/>
<path class="st5" d="M902.5,347.4l103.4,0c2.5,0,4.4,2,4.3,4.5l-2,68.3c-0.1,2.3-2,4.2-4.4,4.2h-97c-2.3,0-4.2-1.8-4.3-4.1
	l-4.4-68.3C898,349.5,900,347.4,902.5,347.4z"/>
<path class="st3" d="M999.5,596c-2.7,0.2-7.8,9.9-7.8,9.9s0.8-2.3-1.5-3.9c0,0-5.6,8-2.5,12.8c0,0-4.8,3.4-1.9,6.8
	c2.9,3.4,25.4,7.6,32.9,1.1c2.2-1.8-0.7-5.2-4.3-6.6s-11.1-6.7-12.4-8.8c0,0,7.2-2.6,7.7-5.9C1010.1,598.2,1004.2,595.6,999.5,596z"
	/>
<path class="st5" d="M1018.7,622.8c0.9-0.8,0.9-1.9,0.3-3c-0.9,0.5-2,1-2.7,1.1c-1.6,0.2-2-1.8-4.7-2.8c-2.6-1-5.3,0.1-5.3,0.1
	l-3.4,3.5c-11.1-0.8-15.6-3-17.4-4.6c-0.8,1.3-1.1,2.9,0.2,4.5C988.7,625.1,1011.2,629.2,1018.7,622.8z"/>
<path class="st17" d="M986.7,611.2c1.9,0.4,4.5-3.2,4.9-5.2l0.1-0.4c0.1-0.8,0.1-2.3-1.6-3.5C990.1,602,986.8,606.8,986.7,611.2z"/>
<path class="st11" d="M909.7,601.6c-2.4-1.2-5.9-0.2-5.7,1.1c0.2,1.3,2.1,3,4.4,3.9s3.8,0.4,3.9-0.7
	C912.2,604.8,909.8,601.7,909.7,601.6z"/>
<path class="st11" d="M999.3,602.9c0.4-0.9,1.3-1.5,2.2-1.7c1.5-0.3,3.7-0.4,4.1,0.9c0.6,2.1-4.2,5.6-5.2,5.2
	c-0.3-0.1-0.8-0.3-1.3-0.5c-0.9-0.4-1.2-1.4-0.8-2.2L999.3,602.9z"/>
<path class="st14" d="M1004.6,607.9c0,0-10-0.1-7.9,1.5c1.5,1.2,6,0.7,8.4,0.3c0.2,0,0.4,0.3,0.1,0.4c-1.9,1-5.2,2.9-4,3.2
	c1.7,0.5,8-3.4,8.9-1.3c0.7,1.6-4.5,3.1-6.5,3"/>
<path class="st14" d="M915,609.1c0,0-10.8-2.8-11.6,0c-0.6,1.9,7.4,2.4,6.8,4.3c-0.8,2.8-10.8-3-11.5-0.2c-0.3,1.4,5.1,2.3,5.1,2.3"
	/>
<path class="st1" d="M783.9,436.3l-61.1,183.2c-0.2,0.7-0.8,1.1-1.5,1.1c-1.1,0-1.8-1-1.5-2L769.9,437L783.9,436.3z"/>
<path class="st1" d="M764.5,436.5l-59.8,196.8c-0.5,1.8,0.8,3.6,2.7,3.6c1.2,0,2.3-0.8,2.7-1.9l64.8-200.2L764.5,436.5z"/>
<path class="st1" d="M788.6,438.7h-30.7l-2.3-8.2H791L788.6,438.7z"/>
<path class="st1" d="M1120.2,436.3l61,183.2c0.2,0.7,0.8,1.1,1.5,1.1c1.1,0,1.8-1,1.6-2L1134.1,437L1120.2,436.3z"/>
<path class="st1" d="M1139.6,436.5l59.8,196.8c0.5,1.8-0.8,3.6-2.7,3.6c-1.2,0-2.3-0.8-2.7-1.9l-64.8-200.2L1139.6,436.5z"/>
<path class="st1" d="M1115.4,438.7h30.7l2.3-8.2h-35.4L1115.4,438.7z"/>
<path class="st1" d="M1192.4,433.9H707.6l-2.8-9.5h490.1L1192.4,433.9z"/>
<path class="st1" d="M1415.5,329.1c72.1,0,130.6-58.4,130.6-130.6c0-72.1-58.5-130.6-130.6-130.6s-130.6,58.4-130.6,130.6
	C1284.9,270.7,1343.4,329.1,1415.5,329.1z"/>
<path class="st1" d="M1471.8,235.5h29.4l5.4-29.4h-29.4L1471.8,235.5z"/>
<path class="st20" d="M1368.7,127.7c0,0,3.8,14.3,4,22.2c0.2,7.8-2.8,14.1-12,12.5c0,0-3.3,9.1-0.2,13l-22.5-6.2l4.6-11.4l-3.6-17.9
	l10.7-16.4L1368.7,127.7z"/>
<path class="st5" d="M1355,116c0,0,0.3-1.9,2.7-2.5s9.3-1.1,10.9,0.5s-0.5,4.4,0.4,5.1c0.9,0.7,2.3-1,4.9,2.2
	c2.6,3.2,1.4,7.7-2.8,8.3s-12.8,0.3-14.6,4.3c-1.7,4,0.8,11.1,0.8,11.1s-3.3-3.1-6.2-2.7c-2.8,0.4-5.7,2.6-4.3,7.5
	c1.4,5,5.5,5.1,5.5,5.1s-0.7,6-6.9,7.5c-6.2,1.5-11.1-2.7-12.4-10.8c0,0-6.8-0.3-4.8-7.5c0,0-4.4-3.3-2.6-10.2
	c1.8-6.9,7.8-5.8,7.8-5.8s-2.2-9.9,7.3-11.9S1355,116,1355,116z"/>
<path class="st21" d="M1353.1,162.8c0.9,2.3,3.7,4.7,6.2,6.2c0.3-3.4,1.4-6.6,1.4-6.6c-3.4-1.1-4.5-2-5.4-2.8
	C1354.3,158.8,1351.7,159.4,1353.1,162.8z"/>
<path class="st22" d="M1370.9,148.5c2.6-0.3,4.4-3.5,4-7.1c-0.4-3.6-2.9-6.3-5.5-6c-2.6,0.3-4.4,3.5-4,7.1
	C1365.8,146.2,1368.3,148.8,1370.9,148.5z"/>
<path class="st22" d="M1353.2,142.2l12.1-1.7"/>
<path class="st1" d="M1581.2,237.9h-194.1v9.6h194.1V237.9z"/>
<path class="st1" d="M1499.4,237.5h-29.8c0,0,1.5-9.7,10.6-12.2C1489.4,222.8,1498.2,228.7,1499.4,237.5z"/>
<path class="st20" d="M1464.2,220.8c0,0,11.1-4.5,24.1,0.4c13,4.9,10.5,13.2,10.5,13.2s-2.3-6.8-14.4-6.8c-12.1,0-16.9,7.9-16.9,7.9
	L1464.2,220.8z"/>
<path class="st1" d="M1522.2,233.1h-73.3v4.8h73.3V233.1z"/>
<path class="st3" d="M1468.3,237.7h-57.6c0,0-16.1-5.6-22.7-13.9c0,0,10.8,38.5,10.1,52c0,0.2,0,0.5,0,0.7H1365l-34.5-99.7h33.7
	c0,0,8.7-2.1,19.3,3.3c10.6,5.4,26.2,29.5,39.1,33.8c12.9,4.3,37.3,0.3,44.8,3C1467.5,216.9,1471.1,231.8,1468.3,237.7z"/>
<path class="st3" d="M1369.6,179.7c0,0-13.3-12.7-32.1-13.4c-10.3-0.4-16.2,2.6-19.5,5.3c-2.7,2.2-3.2,6.1-1.2,9
	c3.1,4.4,9.6,10.5,22.4,10.4C1359.4,190.9,1369.6,179.7,1369.6,179.7z"/>
<path class="st17" d="M1318.7,182.9c3.6,3.9,9.9,8.1,20.5,8c20.2-0.1,30.4-11.3,30.4-11.3S1340.6,188.6,1318.7,182.9z"/>
<path class="st23" d="M1367.1,181.1c0,0-18.7-15-51.3-5.6"/>
<path class="st17" d="M1410.8,237.7h57.6c0.5-1.1,0.8-2.5,1-4.1c-7.2,0-27.6,0-34.2,0c-8,0-16.5-2.3-31.1-8.9
	c-14.7-6.6-20-7.6-22.1,1c-2.1,8.6,9.2,18.2,7,32.6c-1.3,8.7-1.7,14.7-1.8,18.2h11c0-0.2,0-0.4,0-0.7c0.7-13.5-10.1-52-10.1-52
	C1394.7,232.1,1410.8,237.7,1410.8,237.7z"/>
<path class="st17" d="M1348,187.8l30.3,91.4h-18.7l-30.4-92.1L1348,187.8z"/>
<path class="st16" d="M1446.9,297.7l-31.7-9.3l-59.9-2c0,0-1,20.6,7,26.3c0,0,56.8-0.8,60.9-0.8s4.2,0,4.2,0s6.2-0.2,13.4,14.8
	c5.5-1.1,11-2.5,16.3-4.3L1446.9,297.7z"/>
<path class="st12" d="M1442.7,272.7c-6.3,0-75.6,0-75.6,0l-15.3-1.9c0,0-2.9,8.5,3,20.6c5.9,12.1,14.7,12,22.5,12
	c7.8,0,28.2,0,35.1,0c7,0,17.5-1.3,25.5,5.6c4.8,4.2,8.1,11.2,9.8,16c10.5-2.7,20.6-6.6,29.9-11.7
	C1461.3,272.3,1448.6,272.7,1442.7,272.7z"/>
<path class="st23" d="M1384.1,181.3c0,0-10.8,12.2,0.2,35.1"/>
<path class="st1" d="M1396.2,296.1l-8.2,17.6h12.8l8.4-17.6H1396.2z"/>
<path class="st1" d="M1419,296.1l-7.6,17.6l8.8-0.2l7.3-17.4H1419z"/>
<path class="st1" d="M1449.5,287.6c0,2.8-1.1,5.2-2.9,7c-1.8,1.8-4.3,2.9-7,2.9h-41.7c-5.5,0-10-4.5-10-9.9c0-2.8,1.1-5.2,2.9-7
	c1.8-1.8,4.3-2.9,7-2.9h41.7c4.9,0,9,3.6,9.8,8.3c0,0,0,0,0,0C1449.4,286.5,1449.5,287,1449.5,287.6z"/>
<path class="st1" d="M1449.3,285.9C1449.3,285.9,1449.3,285.9,1449.3,285.9c-0.3,1.4-0.9,2.6-1.9,3.5c-1.2,1.2-3,2-4.9,2h-40
	c-3.8,0-6.9-3.1-6.9-6.9c0-1.9,0.8-3.6,2-4.9s3-2,4.9-2h37C1444.4,277.6,1448.6,281.2,1449.3,285.9z"/>
<path class="st1" d="M1563.5,207.5h-140.4c-2.6,0-4.5-2.4-4-4.9l17.6-86c0.4-1.9,2.1-3.2,4-3.2h140.4c2.6,0,4.5,2.4,4,4.9l-17.6,86
	C1567.1,206.2,1565.4,207.5,1563.5,207.5z"/>
<path class="st1" d="M1418.1,309.7h-71.2c16.3,10.1,35.1,16.7,55.2,18.8h16c5.2,0,9.4-4.2,9.4-9.4S1423.3,309.7,1418.1,309.7z"/>
<path class="st12" d="M1371.6,297.6h-39.1c-1.3,0-2.6-0.5-3.6-1.4c-1.6-1.4-3.1-2.8-4.6-4.3c-0.1,0-0.1-0.1-0.2-0.2
	c-0.7-0.7-1.4-1.4-2.1-2.1c-1.5-1.5-2.9-3.1-4.3-4.6c0,0,0,0,0,0c-1.4-1.5-2.7-3.1-4-4.7c0,0-0.1-0.1-0.1-0.1
	c-0.7-0.8-1.3-1.7-2-2.5c0,0,0,0-0.1-0.1c-0.6-0.8-1.2-1.6-1.8-2.5c-0.6-0.8-1.2-1.6-1.8-2.5c-0.1-0.2-0.3-0.4-0.4-0.6
	c-0.5-0.7-1-1.4-1.4-2.1c-0.6-0.9-1.2-1.8-1.7-2.7c-0.6-0.9-1.1-1.8-1.7-2.7c-1.1-1.8-2.1-3.7-3.1-5.6c-0.5-0.9-1-1.9-1.5-2.9
	c-0.5-1-0.9-1.9-1.4-2.9c-0.5-1-0.9-2-1.3-2.9c-0.4-1-0.9-2-1.3-3.1c-0.2-0.5-0.4-1-0.6-1.4c-0.4-1-0.8-2-1.1-3
	c-0.2-0.5-0.4-1.1-0.6-1.6c-1-2.8-1.8-5.6-2.6-8.4c-0.2-0.5-0.3-1.1-0.4-1.6c-0.1-0.3-0.2-0.6-0.2-1c-0.1-0.5-0.2-1-0.4-1.5
	c-0.3-1.2-0.6-2.4-0.8-3.7c-0.1-0.4-0.2-0.8-0.2-1.1c-0.4-2.2-0.8-4.4-1.1-6.6c-0.1-0.4-0.1-0.7-0.2-1.1c0-0.3-0.1-0.7-0.1-1
	c-0.1-0.4-0.1-0.9-0.2-1.3c-0.1-0.5-0.1-1.1-0.2-1.6c-0.1-0.4-0.1-0.9-0.1-1.3c-0.1-0.5-0.1-1-0.1-1.5c0-0.5-0.1-1.1-0.1-1.6
	c0-0.3-0.1-0.7-0.1-1.1c0-0.4-0.1-0.9-0.1-1.3c-0.1-2.3-0.2-4.5-0.2-6.8c0-1,0-2,0-3.1v0c0-0.9,0.1-1.8,0.1-2.7
	c0.1-1.4,0.1-2.7,0.2-4.1c0-0.5,0.1-1.1,0.1-1.6c0-0.4,0.1-0.8,0.1-1.1c0-0.5,0.1-1.1,0.2-1.6c0.1-0.6,0.1-1.2,0.2-1.8
	c0-0.4,0.1-0.8,0.1-1.2h50.8c2.4,0,4.5,1.5,5.2,3.8l34.8,105.3C1378,293.9,1375.3,297.6,1371.6,297.6z"/>
<path class="st1" d="M1358.2,291.9h-31.7c-1.4-0.6-2.6-1.1-3.9-1.6c-0.2-0.2-0.4-0.4-0.6-0.6c-1.5-1.5-2.9-3.1-4.3-4.6c0,0,0,0,0,0
	c-1.4-1.5-2.7-3.1-4-4.7c0,0-0.1-0.1-0.1-0.1c-0.7-0.8-1.3-1.7-2-2.5c0,0,0,0-0.1-0.1c-0.6-0.8-1.2-1.6-1.8-2.5
	c-0.6-0.8-1.2-1.6-1.8-2.5c-0.2-0.2-0.3-0.4-0.4-0.6c-0.5-0.7-1-1.4-1.4-2.1c-0.6-0.9-1.2-1.8-1.7-2.7c-0.6-0.9-1.1-1.8-1.7-2.7
	c-1.1-1.9-2.1-3.7-3.1-5.6c-0.5-0.9-1-1.9-1.5-2.9c-0.5-1-0.9-1.9-1.4-2.9c-0.4-1-0.9-2-1.3-2.9c-0.4-1-0.9-2-1.3-3.1
	c-0.2-0.5-0.4-1-0.6-1.4c-0.4-1-0.8-2-1.1-3c-0.2-0.5-0.4-1.1-0.6-1.6c-1-2.8-1.8-5.6-2.6-8.4c-0.2-0.5-0.3-1.1-0.4-1.6
	c-0.1-0.3-0.2-0.6-0.2-1c-0.1-0.5-0.2-1-0.4-1.5c-0.3-1.2-0.6-2.4-0.8-3.7c-0.1-0.4-0.2-0.8-0.2-1.1c-0.4-2.2-0.8-4.4-1.1-6.6
	c-0.1-0.4-0.1-0.7-0.2-1.1c-0.1-0.3-0.1-0.7-0.1-1c-0.1-0.4-0.1-0.9-0.2-1.3c-0.1-0.5-0.1-1.1-0.2-1.6c-0.1-0.4-0.1-0.9-0.1-1.3
	c-0.1-0.5-0.1-1-0.1-1.5c0-0.5-0.1-1.1-0.1-1.6c0-0.3-0.1-0.7-0.1-1.1c0-0.4,0-0.9-0.1-1.3c-0.1-2.3-0.2-4.5-0.2-6.8c0-1,0-2,0-3.1
	v0c0-0.9,0.1-1.8,0.1-2.7c0.1-1.4,0.1-2.7,0.2-4.1c0-0.5,0.1-1.1,0.1-1.6c0-0.4,0.1-0.8,0.1-1.1c0-0.5,0.1-1.1,0.2-1.6
	c0.1-0.6,0.1-1.2,0.2-1.8c0-0.4,0.1-0.8,0.2-1.2h39.2c2.4,0,4.5,1.5,5.2,3.8l32.9,99.6C1364.6,288.3,1362,291.9,1358.2,291.9z"/>
<path class="st12" d="M1560.9,183.9H1436c-2.5,0-4.4-2.3-3.9-4.8l11-54.2c0.4-1.9,2-3.2,3.9-3.2h124.9c2.5,0,4.4,2.3,3.9,4.8
	l-11,54.2C1564.4,182.5,1562.8,183.9,1560.9,183.9z"/>
<path class="st1" d="M1551.4,128.9h-58.4c-0.9,0-1.6,0.6-1.8,1.5l-9.3,39.6c-0.3,1.2,0.6,2.3,1.9,2.3h58.4c0.9,0,1.6-0.6,1.8-1.5
	l9.3-39.6C1553.6,130.1,1552.7,128.9,1551.4,128.9z"/>
<path class="st3" d="M1489.9,179.8h-40.7c-1.3,0-2.2-1.2-2-2.4l5-26.5c0.2-1,1-1.7,2-1.7h40.7c1.3,0,2.2,1.2,2,2.4l-5.1,26.5
	C1491.7,179.1,1490.8,179.8,1489.9,179.8z"/>
<path class="st11" d="M1450.7,174.6l4-20.8c0.2-0.9,0.9-1.5,1.8-1.5h34.9c1.2,0,2.1,1.1,1.8,2.2l-4,20.8c-0.2,0.9-0.9,1.5-1.8,1.5
	h-35C1451.4,176.8,1450.5,175.7,1450.7,174.6z"/>
<path class="st12" d="M1461.7,160.5h-2.9c-0.4,0-0.8-0.4-0.7-0.8l0.6-2.9c0.1-0.3,0.4-0.5,0.7-0.5h2.9c0.4,0,0.8,0.4,0.7,0.8
	l-0.6,2.9C1462.3,160.2,1462,160.5,1461.7,160.5z"/>
<path class="st12" d="M1470.1,160.5h-2.9c-0.4,0-0.8-0.4-0.7-0.8l0.6-2.9c0.1-0.3,0.3-0.5,0.7-0.5h2.9c0.4,0,0.8,0.4,0.7,0.8
	l-0.6,2.9C1470.7,160.2,1470.4,160.5,1470.1,160.5z"/>
<path class="st12" d="M1459.9,169.4h-2.9c-0.4,0-0.8-0.4-0.7-0.8l0.6-2.9c0.1-0.3,0.3-0.5,0.7-0.5h2.9c0.4,0,0.8,0.4,0.7,0.8
	l-0.6,2.9C1460.5,169.2,1460.2,169.4,1459.9,169.4z"/>
<path class="st12" d="M1468.3,169.4h-2.9c-0.4,0-0.8-0.4-0.7-0.8l0.6-2.9c0.1-0.3,0.3-0.5,0.7-0.5h2.9c0.4,0,0.8,0.4,0.7,0.8
	l-0.6,2.9C1468.9,169.2,1468.6,169.4,1468.3,169.4z"/>
<path class="st12" d="M1478.5,160.5h-2.9c-0.4,0-0.8-0.4-0.7-0.8l0.6-2.9c0.1-0.3,0.3-0.5,0.7-0.5h2.9c0.4,0,0.8,0.4,0.7,0.8
	l-0.6,2.9C1479.1,160.2,1478.8,160.5,1478.5,160.5z"/>
<path class="st24" d="M1489.6,137.5h62.4"/>
<path class="st12" d="M1496.1,134.7c0.7,0,1.3-0.6,1.3-1.3c0-0.7-0.6-1.3-1.3-1.3s-1.3,0.6-1.3,1.3
	C1494.8,134.1,1495.4,134.7,1496.1,134.7z"/>
<path class="st12" d="M1502.2,134.7c0.7,0,1.3-0.6,1.3-1.3c0-0.7-0.6-1.3-1.3-1.3c-0.7,0-1.3,0.6-1.3,1.3
	C1500.8,134.1,1501.4,134.7,1502.2,134.7z"/>
<path class="st12" d="M1508.2,134.7c0.7,0,1.3-0.6,1.3-1.3c0-0.7-0.6-1.3-1.3-1.3s-1.3,0.6-1.3,1.3
	C1506.9,134.1,1507.5,134.7,1508.2,134.7z"/>
<path class="st1" d="M1620.8,135.8h-56.9c-1.1,0-2,0.7-2.2,1.7l-6.5,26.5c-0.3,1.4,0.7,2.8,2.2,2.8h56.9c1.1,0,2-0.7,2.2-1.7
	l6.5-26.5C1623.4,137.2,1622.3,135.8,1620.8,135.8z"/>
<path class="st12" d="M1566.1,142.9h15.6c1.2,0,2.1,1.1,1.8,2.2l-2.7,13.4c-0.2,0.9-1,1.5-1.8,1.5h-15.5c-1.2,0-2.1-1.1-1.8-2.2
	l2.7-13.4C1564.4,143.5,1565.2,142.9,1566.1,142.9z"/>
<path class="st14" d="M1589.8,144.7h25.7"/>
<path class="st14" d="M1588.5,150.5h22.6"/>
<path class="st14" d="M1587.3,156.3h15.2"/>
<path class="st1" d="M1471.6,137.8h-65.9c-1.2,0-2-1.1-1.8-2.2l9-40.1c0.2-0.8,0.9-1.4,1.8-1.4h65.9c1.2,0,2,1.1,1.8,2.2l-9,40.1
	C1473.2,137.3,1472.5,137.8,1471.6,137.8z"/>
<path class="st12" d="M1425.7,131.6h-8.3l0.8-2.8h8.3L1425.7,131.6z"/>
<path class="st12" d="M1427.6,124.8h-8.3l1.9-7.9h8.3L1427.6,124.8z"/>
<path class="st12" d="M1443.2,131.6h-8.3l0.8-2.8h8.3L1443.2,131.6z"/>
<path class="st12" d="M1445.1,124.8h-8.3l4.7-17.5h8.3L1445.1,124.8z"/>
<path class="st12" d="M1460.8,131.6h-8.3l0.8-2.8h8.3L1460.8,131.6z"/>
<path class="st12" d="M1462.7,124.8h-8.3l5.5-24.8h8.3L1462.7,124.8z"/>
<path class="st1" d="M1439.9,77.2h-37.1c-0.8,0-1.5,0.5-1.7,1.3l-9.6,32.8c-0.3,1.2,0.5,2.3,1.7,2.3h37.1c0.8,0,1.5-0.5,1.7-1.3
	l9.6-32.8C1441.9,78.4,1441.1,77.2,1439.9,77.2z"/>
<path class="st12" d="M1429,87.1h-20.8l-3.9,14.4h20.8L1429,87.1z"/>
<path class="st16" d="M1407.2,90.7l8.3,5.8l12.3-5l1.2-4.4h-20.8l-0.8,3"/>
<path class="st1" d="M1428.3,92.9c2,0,3.6-1.6,3.6-3.6c0-2-1.6-3.6-3.6-3.6c-2,0-3.6,1.6-3.6,3.6
	C1424.7,91.3,1426.3,92.9,1428.3,92.9z"/>
<path class="st1" d="M1523.2,84.8h-57.3c-1.2,0-2.1-1.2-1.7-2.4l3.7-11.2c0.2-0.7,0.9-1.2,1.7-1.2h57.3c1.2,0,2.1,1.2,1.7,2.4
	l-3.7,11.2C1524.7,84.3,1524,84.8,1523.2,84.8z"/>
<path class="st24" d="M1421.1,192.8h148.9"/>
<path class="st1" d="M1416.7,164.7h-28.5c-1.2,0-2-1.1-1.7-2.2l3.2-12.3c0.2-0.8,0.9-1.3,1.7-1.3h28.5c1.2,0,2,1.1,1.7,2.2
	l-3.2,12.3C1418.3,164.2,1417.5,164.7,1416.7,164.7z"/>
<path class="st25" d="M316.5,482c25.8,1,79.3-1.7,86.5-20.5"/>
<path class="st25" d="M655,431c-5.7,11.7-26,26.7-62-6.5C548,383,527,324,453.5,324"/>
<path class="st25" d="M278,315c-17.2-23.2-20.6-72.4,103-84s199.8-14.2,222.5-14"/>
<path class="st25" d="M678.5,96.5c10,4.5,20.3,13.3-18.5,12.5c-48.5-1-68-15.5-40-21.5"/>
<path class="st25" d="M678,96c49.8,2.8,164.1,16.2,222.5,47c73,38.5,108.5-50,60.5-43s-53,90,34.5,79.5c70-8.4,125.2-46.2,144-64"/>
<path class="st1" d="M1254.7,127L1254.7,127c0,4.7-0.3,9.3-1,13.8c-0.1,0.9-0.3,1.9-0.4,2.8c-0.5,3-1.2,5.9-1.9,8.7
	c-2.7,9.9-6.9,19.2-12.4,27.6c-0.8,1.3-1.7,2.5-2.6,3.7c-6.5,9-14.6,16.9-23.7,23.2c-15.6,10.7-34.4,16.9-54.7,16.9
	c-14.1,0-27.5-3-39.6-8.4c-0.1,0-0.2-0.1-0.3-0.1c-3.6-1.6-7.1-3.5-10.4-5.5c-4.7-2.8-9.1-6-13.2-9.6c-13-11.3-23-26-28.5-42.7
	c-3.2-9.5-4.9-19.7-4.9-30.3c0-53.4,43.3-96.7,96.7-96.7c30.5,0,57.6,14.1,75.4,36.1c2.5,3.1,4.8,6.3,6.9,9.7
	c1.4,2.2,2.6,4.4,3.8,6.7c1.1,2.1,2.1,4.3,3.1,6.6c2.1,4.9,3.8,10,5,15.3v0C1253.8,111.8,1254.7,119.3,1254.7,127z"/>
<path class="st1" d="M1254.7,127L1254.7,127c0,4.7-0.3,9.3-1,13.8c-0.1,0.9-0.3,1.9-0.4,2.8c-0.5,3-1.2,5.9-1.9,8.7
	c-2.7,9.9-6.9,19.2-12.4,27.6c-0.8,1.3-1.7,2.5-2.6,3.7c-6.5,9-14.6,16.9-23.7,23.2c-15.6,10.7-34.4,16.9-54.7,16.9
	c-14.1,0-27.5-3-39.6-8.4c-0.1,0-0.2-0.1-0.3-0.1c-3.6-1.6-7.1-3.5-10.4-5.5V66.4h125.6c2.5,3.1,4.8,6.3,6.9,9.7
	c1.4,2.2,2.6,4.4,3.8,6.7c1.1,2.1,2.1,4.3,3.1,6.5c2.1,4.9,3.8,10,5,15.3v0C1253.8,111.8,1254.7,119.3,1254.7,127z"/>
<path class="st1" d="M1254.7,127L1254.7,127c0,4.7-0.3,9.3-1,13.8c-0.1,0.9-0.3,1.9-0.4,2.8c-0.5,3-1.2,5.9-1.9,8.7
	c-2.7,9.9-6.9,19.2-12.4,27.6c-0.8,1.3-1.7,2.5-2.6,3.7c-6.5,9-14.6,16.9-23.7,23.2c-15.6,10.7-34.4,16.9-54.7,16.9
	c-14.1,0-27.5-3-39.6-8.4V76.1h121.8c1.4,2.2,2.6,4.4,3.8,6.7c1.1,2.1,2.1,4.3,3.1,6.5c2.1,4.9,3.8,10,5,15.3v0
	C1253.8,111.8,1254.7,119.3,1254.7,127z"/>
<path class="st1" d="M1253.2,140.8c-0.5,3.9-1.2,7.8-1.9,11.5h-126.7v-11.5H1253.2z"/>
<path class="st1" d="M1136.6,84h-13.8v56.6h13.8V84z"/>
<path class="st1" d="M1129.7,134.9c1.2,0,2.3-1,2.3-2.3c0-1.3-1-2.3-2.3-2.3s-2.3,1-2.3,2.3C1127.4,133.9,1128.4,134.9,1129.7,134.9
	z"/>
<path class="st1" d="M1153.1,84h-13.8v56.6h13.8V84z"/>
<path class="st1" d="M1146.2,134.9c1.2,0,2.3-1,2.3-2.3c0-1.3-1-2.3-2.3-2.3s-2.3,1-2.3,2.3C1143.9,133.9,1144.9,134.9,1146.2,134.9
	z"/>
<path class="st1" d="M1254.7,127L1254.7,127c0,4.7-0.3,9.3-1,13.8h-53.6V127H1254.7z"/>
<path class="st1" d="M1248.7,136.2c1.2,0,2.3-1,2.3-2.3s-1-2.3-2.3-2.3s-2.3,1-2.3,2.3S1247.5,136.2,1248.7,136.2z"/>
<path class="st4" d="M1167.8,44.4c0,0-7,15.5-4.4,23.1c2.6,7.6,8.6-20.2,8.6-20.2L1167.8,44.4z"/>
<path class="st5" d="M1165.8,27.4c0,0-5.4,19,8.5,28s22.8,8.3,22.8,8.3s0.6,8.2-2.1,12.5c-0.2,0.2,1.7,2.2,2,2
	c3.5-2.1,11.3-9.9,14.4-17.6c3.8-9.5,1-18.8-6-23.2s-16.8-3.1-18.9-6.8c-2.2-3.7-1.8-8.5-1.3-9.6c0,0-8.9,2.8-7.3,12.1
	C1177.7,33.2,1169.4,36.1,1165.8,27.4z"/>
<path class="st2" d="M1169.2,50.7c0,0-8.8,16.7-7.4,28.2s9.1,20.6,10.9,20.9c1.8,0.3,15.5-0.5,23.9-7.8c3.7-3.2,3.1-11.5,3.1-11.5
	s6.2,0.2,9.3-3.8c3.1-4.1,2.4-8.4,0-9.8c-2.2-1.3-9.4,4.9-11.9,9.1c-0.3,0.5-1,0.6-1.4,0.2c-0.3-0.3-0.4-0.7-0.2-1.1
	c0.8-1.8,3.2-7.4,3.3-13.1C1198.8,62,1182.3,63.9,1169.2,50.7z"/>
<path class="st7" d="M1176.7,69.9c0,0-4.3,6.9-4.3,9c0,1.2,4.5,0.9,4.5,0.9"/>
<path class="st2" d="M1179.6,98.4l1.5,8.6c0,0,10.1-2.5,11.3-2.7c1.2-0.2,1.5-1.4,1.5-1.4s-1.1-5.4,0.7-11.7L1179.6,98.4z"/>
<path class="st8" d="M1209.1,66.9c-2.2-1.3-9.4,4.9-11.9,9.1c-0.3,0.5-1,0.6-1.4,0.2c-0.3-0.2-0.4-0.6-0.3-0.9l0,0
	c-0.7,1.4-7,8.6-21.3,6.8c-6.5-0.8-10.3-3.9-12.5-7c-0.1,1.3,0,2.6,0.1,3.9c1.4,11.5,9.1,20.6,10.9,20.9c1.8,0.3,15.5-0.5,23.9-7.8
	c3.7-3.2,3.1-11.5,3.1-11.5s6.2,0.2,9.3-3.8C1212.2,72.7,1211.5,68.3,1209.1,66.9z"/>
<path class="st6" d="M1168.4,63c0,0,3.5-0.7,4.9,1.2"/>
<path class="st6" d="M1186.1,66.7c0,0,2.5-1,3.4,1.5"/>
<path class="st5" d="M1169.1,71.8c0.6,0,1.1-0.7,1.1-1.5s-0.5-1.5-1.1-1.5s-1.1,0.7-1.1,1.5S1168.5,71.8,1169.1,71.8z"/>
<path class="st5" d="M1186.1,74.4c0.6,0,1.1-0.7,1.1-1.5s-0.5-1.5-1.1-1.5c-0.6,0-1.1,0.7-1.1,1.5S1185.5,74.4,1186.1,74.4z"/>
<path class="st6" d="M1172.9,87.8c0,0,3.7,2.7,7.7-1.3"/>
<path class="st1" d="M1135.8,210.1c-13.2,2.2-40.6-19.3-40.6-19.3c0,2.9-0.3,6.2-0.6,9.2c-13-11.3-23-26-28.5-42.7
	c0.4-12.1,1.5-21.3,1.5-21.3l28.6,6.3c17.8,6.7,47.2,23.5,47.2,23.5S1149,208,1135.8,210.1z"/>
<path class="st17" d="M1200.8,96.8c0,0-13.9,9.6-28,7.4c0,0-0.5,2.3,3.2,5.7c0,0-3.1,1.2-12.6,10.2c-9.5,8.9-23.9,28.8-24.9,33.3
	c-1,4.5-4.6,18.1,1,24c5.7,5.8,36.4,11.5,36.4,11.5l14-33.8l16.8-41c0,0-1.3-6.8-5.5-8.2C1201.2,105.6,1203.3,101.8,1200.8,96.8z"/>
<path class="st3" d="M1199.7,113.3c-4.6-4.2-14.2-4.1-18.6,2.2c-4.4,6.3-23.4,24.5-30.7,28.9l7.8,20.1c0,0,15.6-0.4,30.3-18.7
	C1203.1,127.5,1204.5,117.7,1199.7,113.3z"/>
<path class="st3" d="M1149.8,142l-7.3,3.9c-0.6,0.3-1,1-1,1.7c0,4.1,0.8,17.6,10.3,23.4c0.4,0.3,1,0.3,1.5,0.2
	c1.9-0.5,6.9-1.9,9.8-3.6c1.2-0.7,1.3-2.4,0.2-3.3c-3.2-2.3-9.1-8.1-10.6-20.9C1152.5,142.1,1151,141.3,1149.8,142z"/>
<path class="st4" d="M1083.3,82.1l-17.7-6.5h-4.4l3.5,57.6l2,0.2l-0.8,3.7l53.8,11l-0.5-4.8l-32.8-20.8L1083.3,82.1z"/>
<path class="st5" d="M1064.7,133.2l2,0.2l-0.8,3.7l53.8,11l-0.5-4.8l-51-10.3l-2.6-57.4h-4.4L1064.7,133.2z"/>
<path class="st2" d="M1143.1,147.9c0,0-13.8-6.1-19.6-8.2c-5.9-2-19.8-18-46-20.1c0,0,0.4,1.6,2.4,2.6c2,1,6.8,2.1,7.7,2.6
	c0,0-4.1,1.2-3.9,4c0.2,2.8,6.8,8.8,9.5,4.4c0,0,7,0.7,15.5,9.1c8.6,8.4,28.8,24.1,38.7,22.1L1143.1,147.9z"/>
<path class="st7" d="M1090,127.2c0,0-2.8-0.2-4.6,3.5"/>
<path class="st7" d="M1090.6,129.7c0,0-3.1,0.5-3.3,3"/>
<path class="st7" d="M1093.2,133.3c-2-0.2-3.8,0.3-3.8,0.3"/>
<path class="st12" d="M1252.4,103.6c-0.1,0.3-0.2,0.7-0.4,1.1v0c-0.6,1.7-1.3,3.6-2.1,5.6c-0.2,0.7-0.5,1.3-0.8,2.1
	c-0.3,0.8-0.7,1.7-1,2.5c-1.7,4.4-3.6,9.5-5.7,15.5c-5.8,17.6-6.3,40.9-6.1,53.2c-17.6,24.3-46.2,40.1-78.4,40.1
	c-14.2,0-27.7-3.1-39.8-8.6c-0.1-0.1-0.2-0.2-0.2-0.3c-0.3-0.4-0.6-0.8-0.9-1.2c-0.6-0.9-1.1-1.8-1.6-2.7c-0.1-0.3-0.3-0.6-0.4-0.9
	c-0.2-0.5-0.4-1-0.6-1.5c-0.4-1.3-0.8-2.7-1-4.1c0-0.1,0-0.1,0-0.2c-0.2-1.6-0.3-3.2-0.3-4.8c0-0.5,0-1.1,0.1-1.6
	c0-0.3,0.1-0.7,0.1-1.1c0.4-3.9,1.5-7.7,3.1-11c0,0,0-0.1,0-0.1c0.3-0.6,0.6-1.1,0.9-1.6c1.9-3.4,4.4-6,7.2-7.3
	c22.6-10.4,51.3,2.1,51.3,2.1s9.6-46.3,30.8-70.8c14-16.3,28.4-24.3,37.6-25.3c4.6-0.5,7.9,0.8,9.1,3.8c0.4,0.8,0.6,1.7,0.9,2.5
	c0,0,0,0,0,0c0.1,0.5,0.2,1.1,0.3,1.6v0c0.1,0.5,0.1,1.1,0.2,1.6C1254.7,95.7,1253.9,99.2,1252.4,103.6z"/>
<path class="st16" d="M1252.4,103.6c-0.1,0.3-0.2,0.7-0.4,1.1v0c-0.6,1.7-1.3,3.6-2.1,5.6c-0.2,0.7-0.5,1.4-0.8,2.1
	c-0.3,0.8-0.7,1.7-1,2.5c-1.7,4.4-3.6,9.5-5.7,15.5c-5.8,17.6-6.3,40.9-6.1,53.2c-17.6,24.3-46.2,40.1-78.4,40.1
	c-14.2,0-27.7-3.1-39.8-8.6c-0.1-0.1-0.2-0.2-0.2-0.3c-0.3-0.4-0.6-0.8-0.9-1.1c-0.6-0.9-1.1-1.8-1.6-2.7c-0.1-0.3-0.3-0.6-0.4-0.9
	c-0.2-0.5-0.4-1-0.6-1.5c-0.4-1.3-0.8-2.7-1-4.1c0-0.1,0-0.1,0-0.2c-0.3-2.1-0.4-4.2-0.2-6.4c0-0.4,0.1-0.7,0.1-1.1
	c0.4-3.9,1.5-7.7,3.1-11c0,0,0-0.1,0-0.1c0.3-0.6,0.6-1.1,0.9-1.6c-3.2,34.4,59.1,30.2,72.7,25.9c14.3-4.5,11.1-19,4.8-21.2
	c-6.3-2.1-8.9-10.3,2-8.8c10.9,1.5,23.2-6.8,23.2-20.3c0-22.1,3.9-57.1,17.5-66.1c3.6-2.4,6.9-3.7,9.7-4.3c2.7-0.6,5-0.6,6.9-0.3
	c0.3,1.1,0.5,2.2,0.5,3.2C1254.7,95.7,1253.9,99.2,1252.4,103.6z"/>
<path class="st1" d="M1238.9,179.9c-0.8,1.3-1.7,2.5-2.6,3.7c-6.5,9-14.6,16.9-23.7,23.2c-2.2-4.1-3.8-8.8-4.3-13.6
	c-1.4-15.5,1.1-15.7-2.6-30.4C1205.8,162.7,1227.3,167.2,1238.9,179.9z"/>
<path class="st2" d="M1209.1,66.9c-2.1-1.3-8.7,4.3-11.5,8.5c-1.8,3,2.2,5.2,2.2,5.2s6.2,0.2,9.3-3.8
	C1212.2,72.7,1211.5,68.3,1209.1,66.9z"/>
<path class="st25" d="M1216.5,48c7.8-5.3,23.1-12,21.5,4c-2,20-230.5,194.5-134,157"/>
<path class="st25" d="M1252.5,84.5c36.8-42.2,124.3-99.4,179.5,9c69,135.5,72,296.5,6,235"/>
<path class="st25" d="M1302,132c-27.7-19.3-84.3-26.4-89.5,100s2.5,191.7,7,208.5"/>
<path class="st1" d="M1330.7,452c0,31.6-17.1,59.1-42.6,73.9c-12.6,7.3-27.1,11.4-42.7,11.4c-11.9,0-23.2-2.4-33.5-6.8
	c-30.5-13-51.9-43.3-51.9-78.5c0-47.1,38.2-85.3,85.3-85.3C1292.5,366.7,1330.7,404.9,1330.7,452z"/>
<path class="st5" d="M1223.3,359.3c-1.4,4.2,1.2,5.5,0,10.1c-1.2,4.6-4.6,8.6-2.1,12.5c2.6,4,6,1.9,7.9,4.8s5.2,7.8,12.4,0.1
	l11.9-2.6c0,0,5,2.2,6.9-2.2s-0.8-6-1-9.7s4.8-2.4,2.1-11.2c-2.7-8.8-11.5-9.1-17.4-7s-10.1,1.7-13.5,1.2
	C1226.9,354.8,1224.1,356.9,1223.3,359.3z"/>
<path class="st3" d="M1253.4,387.3v-3.1c0,0-2.3-2.4-7.6-0.9c-5.3,1.5-4.9,4.7-4.9,4.7l1.7,2.5L1253.4,387.3z"/>
<path class="st8" d="M1238.8,404.9c0,0-7.3-2.2-8.5,2.8c-1.2,5,5.7,10.5,10,8.7C1244.6,414.5,1238.8,404.9,1238.8,404.9z"/>
<path class="st8" d="M1263.1,404.5c0,0,3.8-2.2,6.2-0.3s2,8.3-0.8,9.8s-6.4,0.6-6.7-0.9C1261.6,411.6,1263.1,404.5,1263.1,404.5z"/>
<path class="st1" d="M1293,494.5l-6-11.6l1,43c-12.6,7.3-27.1,11.4-42.7,11.4c-11.9,0-23.2-2.4-33.5-6.8V485l-31.4-3.6
	c1.5-8.9,22.5-30.5,36.1-37.6c0.2-0.1,0.4-0.2,0.6-0.3c0.2-0.1,0.4-0.2,0.6-0.3c0.4-0.2,0.7-0.4,1.1-0.5c0.4-0.2,0.8-0.3,1.1-0.4
	c0.3-0.1,0.6-0.2,0.9-0.3c0.8-0.2,1.7-0.5,2.4-0.7c11-2.9,14.9-1.3,19.4-5.4c4.8-4.4,2.3-11.4,2.3-11.4l16.1-1.8
	c-1.7,5.5-2.6,8.3,2,13.5c2.4,2.7,8.8,4.2,15.7,6c0.5,0.1,1,0.2,1.5,0.4c0.4,0.1,0.8,0.2,1.2,0.3c0.4,0.1,0.8,0.2,1.2,0.3
	s0.8,0.2,1.2,0.4c0.4,0.1,0.8,0.2,1.2,0.4c0.6,0.2,1.1,0.4,1.7,0.6c3.4,1.1,6.5,2.5,8.9,4.2c15,11.2,22.1,34,22.1,34L1293,494.5z"/>
<path class="st3" d="M1288.1,525.9c-12.6,7.3-27.1,11.4-42.7,11.4c-11.9,0-23.2-2.4-33.5-6.8v-44.2l4.7-2.8v-39.7
	c0.2-0.1,0.4-0.2,0.6-0.3c0.2-0.1,0.4-0.2,0.6-0.3c0.4-0.2,0.7-0.3,1.1-0.5c0.4-0.2,0.8-0.3,1.1-0.4c0.3-0.1,0.6-0.2,0.9-0.3
	c0.8-0.2,1.7-0.5,2.4-0.7v36.1h55.6v-35.3c0.5,0.1,1,0.2,1.5,0.4c0.4,0.1,0.8,0.2,1.2,0.3c0.4,0.1,0.8,0.2,1.2,0.3s0.8,0.2,1.2,0.4
	c0.4,0.1,0.8,0.2,1.2,0.4c0.6,0.2,1.1,0.4,1.7,0.5v38.5L1288.1,525.9z"/>
<path class="st26" d="M1236.5,495.5v8.5c0,8.2,6.7,14.9,14.9,14.9c8.2,0,14.9-6.7,14.9-14.9v-7.8L1236.5,495.5z"/>
<path class="st8" d="M1263.2,436.2c-4.6-5.2-3.7-8-2-13.5l-16.1,1.8c0,0,2.5,7-2.3,11.4c-3.2,2.9-6.1,3-11.3,3.8
	c3.2,3.9,9.6,9.1,20.8,9.1c11.2,0,17.1-4.7,20-8.3C1268.1,439.2,1264.8,438,1263.2,436.2z"/>
<path class="st2" d="M1237.4,401.7c0,0-0.3,18.7,5.3,24.4c5.6,5.7,16.2,5.1,18.4-1.1c2.2-6.2,5.6-16.7,2.8-24.9
	c-2.8-8.2-10.7-10.8-10.7-10.8L1237.4,401.7z"/>
<path class="st5" d="M1251.3,385.5c-3.8-0.1-20.8,4.1-15.3,19c0,0,12.6-0.3,16.9-11.8c0,0,4.4,10,12.3,11.5
	C1265.3,404.2,1269.8,386.1,1251.3,385.5z"/>
<path class="st27" d="M1245,413.1c2.8,0,5.1-2.3,5.1-5.1c0-2.8-2.3-5.1-5.1-5.1c-2.8,0-5.1,2.3-5.1,5.1
	C1239.9,410.8,1242.2,413.1,1245,413.1z"/>
<path class="st27" d="M1257.4,413.1c2.8,0,5.1-2.3,5.1-5.1c0-2.8-2.3-5.1-5.1-5.1c-2.8,0-5.1,2.3-5.1,5.1
	C1252.3,410.8,1254.6,413.1,1257.4,413.1z"/>
<path class="st7" d="M1252,409c0,0-0.4,0.5,0.6,1.9c1,1.4,1.1,2.3,0,3.1"/>
<path class="st27" d="M1248.8,419c0,0,1.7,2.4,5.7-0.1"/>
<path class="st28" d="M1254.5,400.2c0,0,2.8-0.6,5,0.2"/>
<path class="st27" d="M1250.1,408c0,0,1.4-0.4,2.2,0"/>
<path class="st27" d="M1240.1,406.8l-2.8-2.6"/>
<path class="st27" d="M1262.4,406.5c0,0,2.2-0.5,2.5-2.8"/>
<path class="st3" d="M1253.5,438.6c3,0,6.4-0.6,10-2.1c-0.1-0.1-0.2-0.2-0.3-0.3c-0.7-0.8-1.2-1.5-1.7-2.2c-7.4,2.8-13.4,1.3-17-0.4
	c-0.4,0.8-1,1.6-1.8,2.2c0,0-0.1,0.1-0.1,0.1C1245.2,437.3,1248.9,438.6,1253.5,438.6z"/>
<path class="st2" d="M1180.5,484.1c0,0-10.1,19-5.9,26.4c4.2,7.4,34.6,6.4,59-26.4l-1.1-9.7c0,0-8.9-0.9-27.6,10.4L1180.5,484.1z"/>
<path class="st2" d="M1204.8,484.8c-11.5-0.1-21.4,1.1-25.5,1.7c0.7-1.4,1.2-2.3,1.2-2.3L1204.8,484.8z"/>
<path class="st1" d="M1207.6,483.2c-0.9,0.5-1.8,1-2.7,1.6h-0.1c-11.5-0.1-21.4,1.1-25.5,1.7c-1.3,0.2-2,0.3-2,0.3
	c-1.3-1.6-0.3-7.5,1.6-7.6C1191.8,478.3,1202.1,481.2,1207.6,483.2z"/>
<path class="st5" d="M1228.7,466.3h46.8c0.7,0,1.2,0.7,1.1,1.4l-7.4,29.8c-0.1,0.5-0.6,0.8-1.1,0.8h-33c-0.5,0-1-0.4-1.1-0.9
	l-6.4-29.8C1227.5,467,1228,466.3,1228.7,466.3z"/>
<path class="st29" d="M1288.1,478.4H1278v4.1h10.1V478.4z"/>
<path class="st1" d="M1283.1,484.9c1.1,0,2-0.9,2-2c0-1.1-0.9-2-2-2s-2,0.9-2,2C1281.1,484,1282,484.9,1283.1,484.9z"/>
<path class="st2" d="M1318.8,484.1c2.8,7.4,11.1,32.8-2.4,37c-13.5,4.2-39.8-10.3-58.8-27.3c0,0-19.4,2.6-21-9.7
	c0-0.3,0.3-0.6,0.6-0.4c2.1,1.3,8.9,4.8,15.9,2.7c2.3-0.7-1.8-3.5-4.9-3.4c-0.4,0-0.6-0.5-0.2-0.7c0.8-0.5,2.5-0.9,6.2-0.2
	c6.7,1.1,8.6,4.6,18.5,8.4s15.7,5,21.6,5.7l4.1-3.7L1318.8,484.1z"/>
<path class="st1" d="M1291.9,494.4c0,0,12.8-11.8,26.9-15c0,0,2.4,0.9,3.2,5.5c0,0-13.7,3.1-27.8,11.3
	C1294.1,496.2,1293.2,496.6,1291.9,494.4z"/>
<path class="st12" d="M1194.9,437.5h-30.5c-1.2,0-2.2-1-2.2-2.2v-38.7c0-1.2,1-2.2,2.2-2.2h30.5c1.2,0,2.2,1,2.2,2.2v38.7
	C1197.1,436.5,1196.1,437.5,1194.9,437.5z"/>
<path class="st11" d="M1169.9,404.8h-2.8c-0.3,0-0.5-0.2-0.5-0.5v-2.8c0-0.3,0.2-0.5,0.5-0.5h2.8c0.3,0,0.5,0.2,0.5,0.5v2.8
	C1170.4,404.6,1170.2,404.8,1169.9,404.8z"/>
<path class="st15" d="M1174.8,402.8h17.4"/>
<path class="st30" d="M1168.6,402.3l1.8,1.8l3.3-3.3"/>
<path class="st11" d="M1169.9,413.9h-2.8c-0.3,0-0.5-0.2-0.5-0.5v-2.8c0-0.3,0.2-0.5,0.5-0.5h2.8c0.3,0,0.5,0.2,0.5,0.5v2.8
	C1170.4,413.6,1170.2,413.9,1169.9,413.9z"/>
<path class="st15" d="M1174.8,411.8h17.4"/>
<path class="st30" d="M1168.6,411.4l1.8,1.8l3.3-3.3"/>
<path class="st11" d="M1169.9,422.9h-2.8c-0.3,0-0.5-0.2-0.5-0.5v-2.8c0-0.3,0.2-0.5,0.5-0.5h2.8c0.3,0,0.5,0.2,0.5,0.5v2.8
	C1170.4,422.7,1170.2,422.9,1169.9,422.9z"/>
<path class="st15" d="M1174.8,420.9h17.4"/>
<path class="st30" d="M1168.6,420.5l1.8,1.8l3.3-3.3"/>
<path class="st11" d="M1169.9,432h-2.8c-0.3,0-0.5-0.2-0.5-0.5v-2.8c0-0.3,0.2-0.5,0.5-0.5h2.8c0.3,0,0.5,0.2,0.5,0.5v2.8
	C1170.4,431.8,1170.2,432,1169.9,432z"/>
<path class="st15" d="M1174.8,430h17.4"/>
<path class="st30" d="M1168.6,429.6l1.8,1.8l3.3-3.3"/>
<path class="st1" d="M1568.4,525.6c0,5.6-0.8,11-2.4,16c-1,3.1-2.2,6.2-3.7,9.1c-0.8,1.5-1.6,2.9-2.5,4.3c-5.7,8.9-14,16-23.8,20.3
	c-1.3,0.6-2.7,1.1-4.1,1.6c-5.6,2-11.6,3-17.9,3c-1,0-2.1,0-3.1-0.1c-28.6-1.6-51.3-25.3-51.3-54.3c0-30,24.3-54.4,54.4-54.4
	C1544.1,471.2,1568.4,495.6,1568.4,525.6z"/>
<path class="st4" d="M1534.8,469.8c0,0-5.1,0.9-5.6,4.7s0.8,7.1,4.2,8.1l8.4,12.5c0,0,1.8,3.3,2.7,0.8c0,0,4.2,4.4,8.1,1.2
	c3.9-3.2,0.5-7.1,0.5-7.1s10.3,5.1,15.4-3.4c5.1-8.6-1.5-15.5-7.7-15.1c0,0,3.2-7.1-3.4-10.4c-6.6-3.2-10.9,2-10.6,3.7
	c0,0-4.1-4.2-9.1-1.3C1534.2,465.5,1534.8,469.8,1534.8,469.8z"/>
<path class="st3" d="M1530.7,482.4c0,0,3.3-1.6,7.5,3c4.2,4.5,2.1,9.8,2.1,9.8L1530.7,482.4z"/>
<path class="st27" d="M1514.3,512.9c0.9-0.3,0.7-3.5-0.5-7.1c-1.2-3.6-2.8-6.4-3.7-6.1c-0.9,0.3-0.7,3.5,0.5,7.1
	C1511.8,510.5,1513.5,513.2,1514.3,512.9z"/>
<path class="st2" d="M1511.9,495.5c0,0,0.1,4.1,0.9,6.3c0.8,2.2,0.7,5-2.3,7.8c0,0,2.5,2.2,5.4,1.4c0,0,3.2,13.9,15,7.7
	c0,0,3.5,3.5,0.2,12.3l10.8,3.6l9.3-12.6c0,0-5.7-6.7-7.2-14l-7-13.3l-18.7-5.3L1511.9,495.5z"/>
<path class="st5" d="M1512,489c-2.1,3.1-0.1,6.5-0.1,6.5s2.2,0.3,3-1.4c0,0,2.6,3.2,6.5,0.7c0,0,2.1,6.8,8,5.1c0,0,0.2-2.5,2.9-2.7
	c2.8-0.2,4.6,0.6,5.6,3.9c0.7,2.2-1.5,4.4-1.5,4.4s1.8,4.2,7.6,2.3c0,0-0.1-22.6-12.6-25.8C1528.4,481.4,1515.8,483.4,1512,489z"/>
<path class="st9" d="M1533,499.4c0,0-3.7,2.4-1.5,6.2"/>
<path class="st9" d="M1534,502.5c0,0-1,1.8-3.3,0.6"/>
<path class="st27" d="M1521.2,511.4c2.2-0.8,2.8-4.6,1.4-8.5c-1.4-3.9-4.3-6.5-6.5-5.7c-2.2,0.8-2.8,4.6-1.4,8.5
	C1516.2,509.6,1519,512.2,1521.2,511.4z"/>
<path class="st3" d="M1532,511.7c1.5,0,2.6-1.2,2.6-2.6s-1.2-2.6-2.6-2.6c-1.5,0-2.6,1.2-2.6,2.6S1530.6,511.7,1532,511.7z"/>
<path class="st27" d="M1522.3,501.8c0,0,4.1-2,7.5-2.8"/>
<path class="st8" d="M1502.6,553.5c0.1-0.3,0.1-0.6,0.2-0.9c-2.4-0.6-5.1-1.2-7.5-1.7c-6.6-1.4-12.3-3.2-13.4-6.8
	c0,0-0.5,0.5-0.2,1.8c0.3,1.3,2.5,3.1,2.5,3.1s-2.9,1-3.2,3.3c0,0,2.6-0.7,3.8-1.5c0,0-2.4,2-2.2,3.3c0,0,2.1-0.6,2.6-1.7
	c0,0-0.8,3.4,0.3,3.5l0.7-0.2c0,0-0.4-1.3,1.1-3.2c0,0,1.3-0.7,4.3,0.7c0,0-2.1,0.2-3.7,0c0,0-2.1,0.6,7,2.9c1.8,0.5,4,0.8,6.3,1.2
	C1501.7,556,1502.3,554.8,1502.6,553.5z"/>
<path class="st17" d="M1521.7,559.5l9.9-27.7l-21,22.5c0,0-5.2-1.3-10.6-2.5c-0.6,1.2-1.5,3-1.8,4.8
	C1507.6,558.5,1521.7,559.5,1521.7,559.5z"/>
<path class="st3" d="M1566,541.7c-1,3.1-2.2,6.2-3.7,9.1c-0.5,1-1.1,2-1.6,2.9c-0.3,0.5-0.6,1-0.9,1.4c-5.7,8.9-14,16-23.8,20.3
	c-1.3,0.6-2.7,1.1-4.1,1.6c-5.6,2-11.6,3-17.9,3c-1,0-2.1,0-3.1-0.1c-0.3-3.3-0.1-6.6,0.4-9.9c0.1-0.4,0.1-0.8,0.2-1.2v0
	c0.6-3.5,1.5-6.8,2.6-10v0c0.2-0.5,0.4-1.1,0.6-1.6c0.1-0.2,0.2-0.5,0.3-0.7c3-7.7,6.9-13.8,9.2-16.1c1.9-1.9,3.4-4,4.6-5.6
	c1.6-2.3,2.4-3.9,2.4-3.9c11,0.4,20.1-9,20.1-9c2.7,4.6,10.4,7.4,12.8,13.5C1564.9,537.5,1565.6,539.6,1566,541.7z"/>
<path class="st17" d="M1562.3,550.7c-0.5,1-1.1,2-1.6,2.9c-0.3,0.5-0.6,1-0.9,1.4c-5.7,8.9-14,16-23.8,20.3
	c-1.3,0.6-2.7,1.1-4.1,1.6c-7.3-1.3-16.9-5.3-20.6-6.9c0.1-0.4,0.1-0.8,0.2-1.2v0c0.6-3.5,1.5-6.8,2.6-10v0c0.2-0.5,0.4-1.1,0.6-1.6
	c0.1-0.2,0.2-0.5,0.3-0.7c4.7-0.1,15.3,0.6,15.3,0.6c3.8-10.9,9.4-14.7,9.4-14.7l3.4,8.5l17-3.2
	C1560.2,547.7,1561.3,549,1562.3,550.7z"/>
<path class="st31" d="M1446.3,475.5c0,0,2.3,0.8,5.8,1.6"/>
<path class="st32" d="M1463.3,480.3c4,2.5,7.4,7.3,9.8,14.9c3.4,11.1,6.8,18.2,25.7,20.2c18.9,1.9,21.6,16.4,3.3,22.7
	c-7.3,2.5-13.6,3.4-18.6,3.5"/>
<path class="st31" d="M1477.6,541.3c-3.8-0.4-5.9-1.2-5.9-1.2"/>
<path class="st5" d="M1442.4,522l33.3-2.9h2v45.3h-35.5L1442.4,522z"/>
<path class="st4" d="M1477.7,519.1h-2v45.3h2V519.1z"/>
<path class="st5" d="M1498.6,560h-24.4v3.7h24.4V560z"/>
<path class="st1" d="M1506,562.5h-66.4v3.1h66.4V562.5z"/>
<path class="st2" d="M1501.3,557.4c0.2-0.4,0.4-0.8,0.7-1.1c-0.2,0-0.3,0-0.5,0c-0.4,0-0.9-0.1-1.3-0.1h-0.1c-0.6,0-1.2-0.1-1.9-0.1
	c-1.4-0.1-2.8-0.1-4.2-0.2c0,0,0,0,0,0c-2.9-0.1-5.7-0.1-7.9-0.1c-0.3,0-0.6,0-0.9,0c-1.5,0.1-2.8,0.2-3.8,0.4c0,0-0.1,0.5,1.4,0.7
	c1.5,0.1,4.3,0.8,4.3,0.8s-1.8,1.4-0.5,3.7c1.3,2.4,2.7,1,2.7,1s-0.4-1,0.3-1.4c0.6-0.4,2.7-0.8,6.4,1.1c0.5,0.2,1.4,0.7,2.6,1.3
	c0.4,0.2,0.9,0.4,1.4,0.7C1500.1,561.7,1500.3,559.4,1501.3,557.4z"/>
<path class="st3" d="M1559.8,555.1c-5.7,8.9-14,16-23.8,20.3c-0.7-0.1-1.4-0.2-2.1-0.3c-0.3,0-0.6-0.1-0.9-0.1
	c-2-0.3-4.1-0.7-6.2-1.2c-0.3-0.1-0.7-0.2-1.1-0.3c-0.5-0.1-0.9-0.2-1.4-0.4c-2.8-0.8-5.5-1.6-8.1-2.5c-0.5-0.2-1-0.3-1.5-0.5
	c-1.1-0.4-2.2-0.8-3.2-1.2c0,0,0,0-0.1,0c-0.3-0.1-0.5-0.2-0.8-0.3c-0.8-0.3-1.5-0.6-2.2-0.9c-2.5-1-4.8-2-6.7-2.9
	c-0.3-0.1-0.6-0.3-0.9-0.4c-0.9-0.4-1.6-0.8-2.3-1.1c-0.2-2.8,0.4-4.9,1-6.2c0.2-0.4,0.3-0.6,0.5-0.9h0.1c0.4,0,0.9,0.1,1.3,0.1
	c0.7,0,1.3,0.1,2,0.1c0.6,0,1.2,0.1,1.8,0.1c0.3,0,0.6,0,0.9,0.1c0.6,0,1.2,0.1,1.8,0.1c1.3,0.1,2.6,0.2,3.9,0.3
	c0.7,0.1,1.4,0.1,2.1,0.2c0.2,0,0.5,0,0.7,0.1c1.5,0.1,3,0.3,4.5,0.4c0.5,0,1,0.1,1.5,0.1c0.5,0.1,0.9,0.1,1.4,0.1c0,0,0,0,0.1,0
	h0.1c0.2,0,0.4,0,0.7,0.1c5.4,0.5,9,1,9,1c0.1-8.5,7.8-16.5,7.8-16.5l20.4,5.2C1560.2,547.7,1560.3,550.9,1559.8,555.1z"/>
<path class="st16" d="M1431,467.5l5.8,8.4l6.6-1.3l1,0.9l1.8-2l5.6-1.9L1431,467.5z"/>
<path class="st12" d="M1431,467.5l12.4,7.1l-6.6,1.3L1431,467.5z"/>
<path class="st12" d="M1451.7,471.6l-5.6,1.9l-15.2-6L1451.7,471.6z"/>
<path class="st25" d="M1259.5,538c4.2,13.5,14.8,18.7,24-68.5c11.5-109,82.5-103,98-66.5s20.5,135,60.5,135"/>
<path class="st25" d="M1567,507c17.5,1.3,35.8,11.5-31,41.5c-83.5,37.5-51,36.5-38,31"/>
<path class="st25" d="M1561.5,555.5c12,4.3,28.8,15.7,0,26.5"/>
<path class="st1" d="M641.7,260.1H528.5c-2.6,0-4.7-2.1-4.7-4.7v-61.8c0-2.6,2.1-4.7,4.7-4.7h113.1c2.6,0,4.7,2.1,4.7,4.7v61.8
	C646.3,258,644.3,260.1,641.7,260.1z"/>
<path class="st1" d="M610.5,246.4c13.2,0,23.8-10.7,23.8-23.8c0-13.2-10.7-23.8-23.8-23.8c-13.2,0-23.8,10.7-23.8,23.8
	C586.6,235.8,597.3,246.4,610.5,246.4z"/>
<path class="st17" d="M615,214c-0.9-1.1-0.7-4.5,1.7-5.8c2.4-1.3,4.7-1,5.5,0.7c0.9,1.7-0.9,4.7-4.6,5.6C614,215.5,615,214,615,214z
	"/>
<path class="st3" d="M591.3,236.8c4.3,5.9,11,8.9,18.8,8.9c8.3,0,16-3.5,20.2-10c-0.1-0.8-0.1-1.7,0-2.4c0.6-4.1,0.3-10.3-2.4-11.5
	c-2.7-1.2-7.4-1.8-8.5-3.5c-1.1-1.7-0.8-6.3-4.5-7.7c-3.7-1.4-5.8-0.2-5.8-0.2c-4.3,0-4.6,3.1-4.9,5.1c-0.3,2-0.3,4.5-3.5,5.9
	c-3.2,1.4-2.9,3.2-2.7,6.7C598.2,231.2,591.7,230.6,591.3,236.8z"/>
<path class="st11" d="M610.5,246.2c-5.3,0-10.4-1.7-14.6-5c0.3-1.4,1.1-3.2,2.9-4.1c2-1,4.8-1.2,6.8-1.3c1.8-0.1,2.7-0.2,3-0.6
	c0.6-0.9,0.9-4-0.2-5.6c0,0,0-0.1,0-0.2c0.3-1,5-2.9,8.2-3.9c-0.5,1.2-1.6,4-0.2,6.3c1.4,2.5,3.7,2.7,5.3,2.9c0.4,0,0.7,0.1,1,0.1
	c0.9,0.2,4,0.9,5.2,3.7C623.4,243.4,617.1,246.2,610.5,246.2z"/>
<path class="st12" d="M616.2,225.8c-0.6,1.4-1.2,3.9,0,6c1.5,2.6,3.8,2.9,5.5,3.1c0.4,0,0.7,0.1,1,0.1c0.9,0.2,3.8,0.9,5,3.4
	c-4.4,4.8-10.6,7.5-17.1,7.5c-5.2,0-10.2-1.7-14.3-4.9c0.3-1.3,1.1-2.9,2.8-3.8c2-1,4.7-1.2,6.7-1.2c1.8-0.1,2.8-0.2,3.2-0.7
	c0.6-1,1-4.1-0.2-5.9C608.8,228.7,612.1,227.1,616.2,225.8z M617.1,225c0,0-10,3.2-8.9,4.7c1,1.5,0.8,4.5,0.2,5.4
	c-0.6,0.9-6.1,0-9.7,1.8c-2,1-2.8,2.9-3.1,4.4c4.1,3.2,9.2,5.2,14.8,5.2c7,0,13.4-3.1,17.7-7.9c-1.1-2.8-4-3.8-5.5-4
	c-1.8-0.3-4.5-0.1-6.1-2.9C615,228.7,617.1,225,617.1,225z"/>
<path class="st8" d="M616.6,231.6c-1.5-2.6,0.1-5.8,0.4-6.5L617,225c-1.1,0.4-9.8,3.2-8.8,4.6c1,1.5,0.8,4.5,0.2,5.4
	c-0.2,0.3-1.3,0.4-2.7,0.5c0,1.9,0.9,4.1,5.2,4.4c5.7,0.3,7.9-3.6,8.8-5.8C618.6,233.7,617.5,233,616.6,231.6z"/>
<path class="st2" d="M608.5,215.2c0,0,3.1-1.6,4.6,0.7c1.5,2.3-0.7,6.7,3.8,5.8c0,0,2.3-0.6,2.4,1.9c0.1,2.5-2.2,2.5-2.2,2.5
	s-6.2,6.6-10.7,4.4c-4.5-2.2-2.7-14.6,0.3-16C608,214,608.5,215.2,608.5,215.2z"/>
<path class="st33" d="M610.5,218.7c0,0,1.5-0.1,1.8,0.6"/>
<path class="st33" d="M607.3,218.7c0,0-1.2-0.5-2,0"/>
<path class="st9" d="M608.2,220.5c0,0,0.1,1.9-1,2.6c0,0,0.6,1,1.6,1.3"/>
<path class="st9" d="M608.4,226.5c0,0,2.5,0.1,3.5-1.9"/>
<path class="st5" d="M606,221.1c0.3,0,0.5-0.3,0.5-0.6c0-0.3-0.2-0.6-0.5-0.6s-0.5,0.3-0.5,0.6C605.5,220.9,605.8,221.1,606,221.1z"
	/>
<path class="st5" d="M610.9,221.1c0.3,0,0.5-0.3,0.5-0.6c0-0.3-0.2-0.6-0.5-0.6c-0.3,0-0.5,0.3-0.5,0.6
	C610.4,220.9,610.7,221.1,610.9,221.1z"/>
<path class="st12" d="M580.3,215.4h-38.8c-0.5,0-1-0.4-1-1V207c0-0.6,0.5-1,1-1h38.8c0.6,0,1,0.4,1,1v7.4
	C581.3,215,580.9,215.4,580.3,215.4z"/>
<path class="st12" d="M579.9,231.9h-21.6c-0.5,0-1-0.4-1-1v-4.4c0-0.6,0.5-1,1-1h21.6c0.5,0,1,0.4,1,1v4.4
	C580.9,231.5,580.4,231.9,579.9,231.9z"/>
<path class="st12" d="M579.9,242.2H536c-0.5,0-1-0.5-1-1v-4.4c0-0.5,0.5-1,1-1h43.9c0.5,0,1,0.5,1,1v4.4
	C580.9,241.8,580.4,242.2,579.9,242.2z"/>
<path class="st25" d="M647,225.5c7,1.5,18.9,1.7,10.5-9.5c-10.5-14-112-120-40-120"/>
<path class="st5" d="M435.8,126.3c0,0,5.5-5,14.3-4c8.8,1,8.9,7.2,8.9,7.2s4.9,0.8,5.7,5.2c0.4,2.4-1.3,3.3-1.3,3.3s2.6,4.7-0.8,6.3
	c0,0,2.8,4.9-1.4,5.8l-30.4-2.7c0,0-5.4-19,0-22.1C432.4,124.3,435.8,126.3,435.8,126.3z"/>
<path class="st17" d="M434.3,169.9l-1.7-0.7l-2.6,0.5c0,0-0.5,2.4-0.4,2.7c0.1,0.3,2.8,1.4,2.8,1.4s2.9-0.6,3-1.5
	C435.6,171.5,434.3,169.9,434.3,169.9z"/>
<path class="st3" d="M426.2,175.1c0,0-20.8,0.6-40.9,24.8c-0.5,0.6-0.2,1.5,0.6,1.6c3.9,0.8,13.5,3.9,18.9,14.3
	c0.2,0.4,0.8,0.6,1.1,0.3c1.5-1.1,4.7-3.5,6.4-3.4c0,0,3.1,17.2,1.5,32.2c-1.6,15.1,0.6,21,9.7,21.2c9.1,0.1,59.3-13.2,59.3-13.2
	s5.3-2.6,1.1-18.6l10-20l-14.2-21.5c0,0-3-7.4-9.5-12.1c-6.5-4.6-14-6.5-14-6.5L426.2,175.1z"/>
<path class="st4" d="M482,233.3v4.6h-59.7v-11.4h30.2L482,233.3z"/>
<path class="st17" d="M417.9,209.5c0.3-0.4,0.5-0.8,0.5-1.3C418.4,208.3,418.2,208.7,417.9,209.5z"/>
<path class="st17" d="M430,265.4c-0.2,0-0.4,0-0.6-0.1c-12.9-0.8-11.4-6.9-10-13.4c1.3-6.4-3.4-27-3.2-33.2c0.1-4.2,1.1-7.5,1.8-9.2
	c-1.1,1.6-3.6,3-5.5,3.1c0,0,3.1,17.2,1.5,32.2c-1.6,15.1,0.6,21,9.7,21.2C425,266.1,427.2,265.8,430,265.4z"/>
<path class="st20" d="M433.9,152.4c0,0,5,15.5-4.2,20.6c0,0,6.2,13,14.3,12.1s7.1-6.4,7.1-6.4l0-14.7L433.9,152.4z"/>
<path class="st21" d="M444,185.1c6.2-0.7,7-4.1,7.1-5.7c-1.2,2-4,4.7-10.2,3.9c-9.3-1.3-6.8-15.3-6.8-15.3h0c-0.9,2-2.2,3.8-4.4,5
	C429.6,173,435.9,186,444,185.1z"/>
<path class="st21" d="M436.2,155.5c0,0-0.4,13.7,14.9,15.8l0-7.4l-12.5-8.4L436.2,155.5L436.2,155.5z"/>
<path class="st20" d="M460.4,140.9c0,0,3.9,16.6-7.8,26.9c-3,2.7-15.9-2.6-17.7-13.6c0,0-7.7,0.2-6.6-7.2c0.5-3.6,4.2-3.9,5.9-3.2
	c0,0,0.5,4.1,3,3.7c2.5-0.4,1.5-6.5,1.5-6.5s3.1,1.8,4.4-1.9c0,0,1.9,2.7,3.7-0.8c0,0,3.8,5.4,10.4,1.3
	C457.3,139.4,457.3,141.3,460.4,140.9z"/>
<path class="st5" d="M446.8,146.3c-2.7,0.5-2.6,1.7-2.4,2.1c0.5,1.1,6.1-0.6,6.1-1.4C450.6,146.2,449.1,145.8,446.8,146.3z"/>
<path class="st5" d="M461,147.2c-0.9-0.7-1.9-1.1-3.1-1.2c-1,0-1.9,0.1-2.1,0.5c-0.4,0.7,2.4,0.6,3.2,1c1.5,0.7,1.7,1.9,2.6,1.1
	C462.1,148.3,461.6,147.7,461,147.2z"/>
<path class="st5" d="M448.6,152.2c0.5,0,0.9-0.5,0.9-1.2c0-0.6-0.4-1.2-0.9-1.2s-0.9,0.5-0.9,1.2
	C447.7,151.6,448.1,152.2,448.6,152.2z"/>
<path class="st5" d="M458.1,152.4c0.5,0,0.9-0.5,0.9-1.2c0-0.6-0.4-1.2-0.9-1.2s-0.9,0.5-0.9,1.2
	C457.2,151.9,457.6,152.4,458.1,152.4z"/>
<path class="st34" d="M454.8,150.2c0,0-0.1,2.9,0.8,5.2c0.9,2.3-2.1,2.9-4.2,1.3"/>
<path class="st34" d="M450.9,160.1c0,0-3,0-4.4-3.3"/>
<path class="st34" d="M447.4,160.5c0,0,0.1-1-1.2-1"/>
<path class="st34" d="M430.7,146.5c0,0,3.2-0.1,4.9,3.6"/>
<path class="st17" d="M426.2,175.1c0,0,1.2,9.2,12.9,12.9l4.9-6.3l-7.1,0.8L426.2,175.1z"/>
<path class="st3" d="M433.7,168.8c0,0-2.3-1.3-5.5,0.9c0,0-1.5,1.9-2,5.3c0,0,4.9,9.4,13.1,11.8l4.6-5.1c0,0-7-0.1-12.7-10.9
	c-0.3-0.6,0.2-1.2,0.8-1.2c0.3,0,0.6,0.1,1,0.3C433,170,433.5,169.3,433.7,168.8z"/>
<path class="st17" d="M446.9,181.4l4.4,5.4c0,0,6.4-4.6,5-12.6L446.9,181.4z"/>
<path class="st3" d="M451.1,169.4c2,0.4,5.2,4.8,5.2,4.8s1,6.3-5,11.5l-4.4-4.4c0,0,3.6-4.3,4.2-8.9L451.1,169.4z"/>
<path class="st20" d="M385.7,201.4c0,0-11.7,7.9-15.4,26.9s54.1,12.2,54.1,12.2s18.7,7.7,27.4-3.1c0,0-12.5,3.3-16-1.9
	c0,0,3.8-1.5,5.3-4.1c0,0-1.7-1.3-7.2,0.6c0,0-4,0.6-5.6,0.3c-1.6-0.3-20.6-11.6-28.7-11.6c0,0,0.5-2.8,5.1-4.8
	C404.9,215.9,399.9,203.8,385.7,201.4z"/>
<path class="st20" d="M487.8,189.5c-3.6-3.3-13.4-6.1-17.5-5.2c-4.2,0.9-8.6,13.9-7.2,15.7c1.4,1.8,7.4-7.5,7.4-7.5s-0.7,1.7,1,2.2
	s7.9,2.4,10.2,0.9c0,0,1.5,0.5,2.4,6.7c0.9,6.2,2.7,16.1,2.7,16.1s-8.1,9.7-8.1,9.9s5.7,12.9,14.4,14.9c8.7,2,17.6-0.4,16.8-11.1
	c-0.8-10.6-8.1-18.2-11.6-24.8C496.8,204.7,493.1,194.3,487.8,189.5z"/>
<path class="st34" d="M486.3,221.4c0,0-0.1,4.7,4.3,9.3"/>
<path class="st34" d="M472.8,194.5c0,0,0-1.9,2.1-2.9"/>
<path class="st34" d="M475.5,195.2c0,0,0.8-1.7,2-2.3"/>
<path class="st5" d="M454.5,204.2h45.2L482,233.3h-42.9L454.5,204.2z"/>
<path class="st20" d="M478.9,368.4l-16.9,7.6l-9.3-14.7l16-6.5L478.9,368.4z"/>
<path class="st3" d="M464.2,371c0,0,3.9-2.8,6-2.6c2.2,0.1,5.8,5.9,5.5,7.5c-0.3,1.6-1.4,2.9-1.4,2.9s2.4,6.5,2.9,10.8
	c0,0,9.5,7.4,7.5,11.7c-2,4.3-8.3,7-11.5,6.4c-3.2-0.6-9.6-10.8-9.6-10.8L464.2,371z"/>
<path class="st35" d="M477.9,400c-5.3,2.8-12.1-4.8-14.2-7.5l-0.1,4.3c0,0,6.4,10.1,9.6,10.8c3.2,0.6,9.5-2.1,11.5-6.4
	c0.9-1.9-0.4-4.3-2.2-6.4C482.2,396.4,481.1,398.3,477.9,400z"/>
<path class="st20" d="M454.1,445.4l6.3,24.1l9.9-4.3l-0.2-24.3L454.1,445.4z"/>
<path class="st12" d="M480.8,251c-2.8-2.4-13.5-1.4-21.6-0.2c-2.5,0.4-4.7,0.7-6.4,1c-1.9,0.3-3.1,0.6-3.1,0.6
	c-8.8,1.8-23.6,7.3-25.9,9.7c-2.3,2.4-2.8,9.9-1.4,18.9c1.4,8.9,9,57.4,9.8,60.3c0.8,2.9,2.6,35.3,3.2,44.7c0.6,9.5,18,63.5,18,63.5
	l20.1-5.4c0,0-7.2-73.2-8.9-89.5l17.4,19c0,0,43.7-37.7,44.1-55.8C526.5,299.8,495.2,263,480.8,251z M487.6,323.6
	c-3.9,2.2-9.2,7.1-12,13.2c-2.8,6.1-7.9,15.2-11.3,16.2c0-0.3-0.1-0.5-0.1-0.7c-1-8.6,0.4-61.4,0.4-61.4s25.1,22.9,27.8,27.8
	C492.4,318.7,491.5,321.4,487.6,323.6z"/>
<path class="st16" d="M422.3,281c0.1,0.8,0.3,2,0.5,3.4c4-2.9,8-6.6,9.1-9.9c1.7-4.9,0.6-12.8-0.1-16.6c-4,1.6-7.2,3.2-8.2,4.2
	C421.5,264.6,421,272.1,422.3,281z"/>
<path class="st16" d="M462.2,271.2c0,0-2.5-11.6-9.4-19.3c1.7-0.3,3.9-0.7,6.4-1c1.2,2.3,3.1,6.4,4.5,10.2
	C466,267,464,270.8,462.2,271.2z"/>
<path class="st3" d="M461.5,460.2l-1.2,5.5c0,0-3.1-1.4-4.5,0.2c-1.4,1.6,3.2,5.6,3.3,7.6c0.2,2,1.7,12.1,1.7,12.1s6.5,9.9,9.2,9.4
	c2.7-0.5,21.3,0,21.3,0s2.5-0.7,2.6-4.3c0.2-3.6-1.2-9.4-13.9-10.2c0,0-3.3-9-7.3-12.6c0,0,4.6-8.5,1-10.8
	C470.2,454.8,461.5,460.2,461.5,460.2z"/>
<path class="st35" d="M464,484.5l-3.5-0.2c0,0-0.7,8.8-0.2,10.8c0.5,2,22,0.9,32.3,0.9c2.2,0,2.2-3.6,1.3-4.3s-21.6,0.8-25.3,0.1
	C464.9,491,464,484.5,464,484.5z"/>
<path class="st23" d="M477.2,389.6c0,0-3.5-0.6-4.9,0.9"/>
<path class="st21" d="M472.5,190.1c0,0-2.3-0.2-4.6,3.9c-2.3,4.2-4.4,6.2-5.1,5.2c0,0.3,0.1,0.6,0.2,0.7c1.4,1.8,7.4-7.5,7.4-7.5
	C471.2,191.2,472.5,190.1,472.5,190.1z"/>
<path class="st21" d="M470.5,192.4c0,0-0.1,0.2-0.1,0.4L470.5,192.4z"/>
<path class="st21" d="M404.9,215.9c0,0-0.6-1.5-2.1-3.6c-2.1,2.4-5.2,5.1-9,5.9c-7.1,1.5-8.1,3.3-8.1,3.3c4.6-1.5,14-0.8,14-0.8
	S400.3,217.9,404.9,215.9z"/>
<path class="st16" d="M500.7,319.1c1.4-4.6-8.6-5.8-19-16.1s-17-21.7-17-21.7s0,6.8-0.1,9.5c0,0,25.1,22.9,27.8,27.8
	c0,0-0.9,2.7-4.8,4.9s-9.2,7.1-12,13.2c-2.8,6.1-7.9,15.2-11.3,16.2l0.2,1.7l2,2.2c1.9,1.4,15.2-23.6,20.2-27.8
	C493.8,323.2,499.3,323.7,500.7,319.1z"/>
<path class="st25" d="M418.5,388c-3.2-7.5-12.3-16.9-23.5,5.5c-14,28-14.5,78.5,27.5,81S534,448,563,396.5s58.5-135.5,76-100"/>
<g>
	<text transform="matrix(1 0 0 1 958.3212 152.8268)" class="st36 st37 st38">MartEx</text>
	<g>
		<path class="st39" d="M932,145v10.3c0,1.6,1.3,3,3,3l0,0c1.6,0,3-1.3,3-3V145c0-3.9-3.1-7-7-7l0,0c-3.9,0-7,3.1-7,7v13.3"/>
		<path class="st39" d="M946.3,158.3v-16c0-2.4-1.9-4.3-4.3-4.3"/>
	</g>
</g>
</svg>
