<svg width="440" height="280" viewBox="0 0 440 280" fill="none" xmlns="http://www.w3.org/2000/svg">
<path d="M440 0H0V280H440V0Z" fill="#F7F8FA"/>
<path d="M257.367 40.4646C273.107 41.8546 287.277 47.7646 297.317 60.5546C302.177 66.7446 305.637 74.0646 306.997 81.8346C310.927 104.265 299.577 128.875 309.477 149.385C313.047 156.785 319.137 162.855 322.057 170.535C326.617 182.495 322.467 196.495 314.257 206.315C306.047 216.135 294.367 222.405 282.517 227.245C253.577 239.045 221.097 243.545 190.697 236.255C175.347 232.575 160.367 225.705 149.527 214.225C138.167 202.205 132.137 186.015 128.947 169.785C125.227 150.845 125.067 130.815 131.467 112.605C137.797 94.6146 150.307 79.1646 165.497 67.6246C176.867 58.9846 189.627 52.1546 203.037 47.2846C219.717 41.2346 237.977 39.1346 255.637 40.3146C256.227 40.3646 256.797 40.4146 257.367 40.4646Z" fill="#F3F4F9"/>
<path d="M311.747 56.4847C310.157 57.9247 308.917 59.5947 308.357 61.1647C306.697 65.8547 308.017 71.5947 312.427 74.2547C314.017 75.2147 315.897 75.5747 317.757 75.6347C319.487 75.6847 321.277 75.4647 322.807 74.6447C325.017 73.4547 326.417 71.1047 326.997 68.6647C327.577 66.2247 327.417 63.6747 327.157 61.1747C326.987 59.5647 326.767 57.9347 326.127 56.4447C323.387 50.1447 316.197 52.4547 311.747 56.4847Z" fill="#F3F4F9"/>
<path d="M109.017 189.265C108.717 198.165 112.347 206.655 117.147 213.975C122.007 221.385 130.987 233.755 141.477 230.175C144.717 229.065 147.287 225.705 146.717 222.335C145.997 218.075 141.477 215.255 138.177 213.065C133.917 210.225 130.247 207.365 127.317 203.045C123.517 197.425 121.567 190.385 119.067 184.135C118.537 182.795 117.967 181.415 116.897 180.455C111.617 175.695 109.127 185.925 109.017 189.265Z" fill="#F3F4F9"/>
<path d="M267.908 160.405C267.908 160.405 275.218 165.385 274.838 171.395C274.468 177.395 273.138 181.235 284.438 194.695L271.958 197.785C271.958 197.785 273.128 188.565 270.968 179.855C269.828 175.275 267.638 172.655 268.148 168.335C268.148 168.335 269.218 171.785 270.828 170.555C272.448 169.315 270.248 163.345 267.908 160.405Z" fill="#FAA5A5"/>
<path d="M230.256 197.774C230.256 197.774 213.826 165.654 207.386 162.744C200.946 159.834 195.676 162.144 177.536 171.414C159.396 180.684 129.016 191.664 129.176 198.424C129.336 205.184 133.676 206.794 145.436 201.734C157.196 196.674 177.796 183.694 194.806 190.024C211.816 196.344 220.156 214.834 220.156 214.834L230.256 197.774Z" fill="white"/>
<path d="M199.057 182.695C189.327 180.165 186.677 181.055 154.847 194.245C141.557 199.755 134.007 201.465 129.707 201.595C131.177 205.535 135.837 205.855 145.437 201.725C157.197 196.665 177.797 183.685 194.807 190.005C211.817 196.325 220.157 214.815 220.157 214.815L224.967 206.695C218.607 198.275 206.047 184.515 199.057 182.695Z" fill="#E0E0E0"/>
<path d="M146.499 170.282L146.498 170.282C141.272 165.883 139.359 160.558 139.05 156.347C138.895 154.236 139.145 152.419 139.571 151.149C139.785 150.511 140.036 150.034 140.284 149.727C140.54 149.41 140.732 149.345 140.826 149.345C141.886 149.345 142.702 149.647 143.426 150.193C144.166 150.751 144.826 151.576 145.541 152.652C145.934 153.242 146.341 153.905 146.783 154.627C147.93 156.498 149.316 158.76 151.313 161.146C156.949 167.88 169.313 172.955 191.288 172.885C202.155 172.85 209.776 175.714 215.431 179.343C220.119 182.351 223.46 185.882 226.213 188.792C226.792 189.404 227.345 189.988 227.879 190.534C230.996 193.723 234.044 195 236.335 195.471C237.477 195.706 238.426 195.739 239.094 195.712C239.356 195.701 239.576 195.681 239.747 195.661L250.486 223.201L241.653 230.135C231.145 232.661 222.287 226.04 215.295 217.611C211.8 213.397 208.806 208.773 206.345 204.711C205.449 203.234 204.621 201.824 203.863 200.534C202.55 198.301 201.449 196.429 200.586 195.198C199.852 194.152 198.601 193.14 197.007 192.152C195.405 191.158 193.416 190.164 191.165 189.167C186.664 187.173 181.066 185.149 175.325 183.092C175.016 182.981 174.706 182.87 174.396 182.759C168.943 180.806 163.404 178.821 158.553 176.796C153.414 174.649 149.105 172.479 146.499 170.282Z" fill="white" stroke="#E0E0E0"/>
<path d="M241.887 230.605L249.637 224.515C240.577 223.265 227.457 218.875 215.467 205.145C194.497 181.105 182.027 183.535 171.917 180.445C161.817 177.345 153.877 172.855 146.577 167.965C142.177 165.015 139.747 158.895 138.517 154.495C138.347 159.035 140.017 165.495 146.177 170.685C156.857 179.685 194.777 187.805 200.177 195.505C205.587 203.195 220.177 235.945 241.887 230.605Z" fill="#E6E6E6"/>
<path d="M304.587 184.695C304.587 184.695 295.747 196.675 240.067 195.115C240.067 195.115 235.417 198.745 236.687 208.085C237.957 217.435 245.437 219.015 241.887 230.605C241.887 230.605 255.347 236.315 279.307 226.815C303.267 217.315 313.106 208.765 315.576 188.405L304.587 184.695Z" fill="#FF4480"/>
<path d="M315.566 188.405L307.096 185.535C307.096 185.535 310.086 203.035 285.146 217.305C267.646 227.315 251.106 225.775 242.796 223.965C242.936 225.795 242.716 227.935 241.896 230.605C241.896 230.605 255.356 236.315 279.316 226.815C303.266 217.315 313.096 208.765 315.566 188.405Z" fill="#D44E72"/>
<path d="M150.537 117.854C150.537 117.854 164.247 129.424 167.187 143.314C167.187 143.314 174.657 135.054 184.937 131.184C190.757 128.994 187.697 124.454 184.937 120.484C182.177 116.514 173.877 107.804 174.007 101.024C174.007 101.024 158.187 103.644 150.537 117.854Z" fill="#E6E6E6"/>
<path d="M154.027 117.914C154.027 117.914 159.567 121.454 161.967 126.834C161.967 126.834 164.427 123.994 167.067 122.014C167.067 122.014 163.117 114.664 160.177 113.304C160.177 113.304 157.237 113.084 154.027 117.914Z" fill="white"/>
<path d="M165.326 111.294C165.326 111.294 168.806 107.284 171.616 107.064" stroke="white" stroke-width="0.5" stroke-miterlimit="10" stroke-linecap="round"/>
<path d="M168.066 115.194C168.066 115.194 169.986 112.534 173.046 112.384" stroke="white" stroke-width="0.5" stroke-miterlimit="10" stroke-linecap="round"/>
<path d="M170.838 118.664C170.838 118.664 175.088 117.124 176.108 115.194" stroke="white" stroke-width="0.5" stroke-miterlimit="10" stroke-linecap="round"/>
<path d="M166.018 130.644C166.018 130.644 170.338 121.984 179.158 120.064" stroke="white" stroke-width="0.5" stroke-miterlimit="10" stroke-linecap="round"/>
<path d="M168.467 134.974C168.467 134.974 173.727 126.104 181.077 124.234" stroke="white" stroke-width="0.5" stroke-miterlimit="10" stroke-linecap="round"/>
<path d="M211.758 66C208.592 66.0075 205.69 64.3926 202.946 63.0245C200.49 61.7985 197.414 61.0509 195.238 59.3837C192.676 57.4176 194.724 54.5842 195.744 52.3937C197.052 49.5977 197.898 46.5625 198.911 43.6543C199.341 42.4208 199.795 41.1424 200.694 40.1855C203.075 37.6362 206.513 39.8341 209.053 40.8882C212.635 42.3834 216.225 43.8786 219.814 45.3738C223.729 47.0036 216.792 60.864 215.65 63.1068C215.167 64.0562 214.615 65.0431 213.67 65.5439C213.051 65.8579 212.416 65.9925 211.758 66Z" fill="#2F2E41"/>
<path d="M210.702 53.2623C209.921 51.6568 207.389 47.6209 205.848 49.4791C205.566 49.8135 205.426 50.2521 205.292 50.6757C204.919 51.8575 204.539 53.0393 204.166 54.2211C204.019 54.6968 203.878 55.2691 204.173 55.6631C204.49 56.0793 205.102 56.0273 205.602 55.9381C207.002 55.6779 208.402 55.4178 209.802 55.1502C210.287 55.061 210.878 54.8752 210.984 54.3623C211.04 54.1022 210.941 53.8346 210.843 53.5893C210.808 53.4927 210.758 53.3887 210.702 53.2623Z" fill="white"/>
<path d="M315.067 161.064C315.067 161.064 305.117 159.414 300.697 172.874C297.847 181.544 303.247 188.414 303.247 188.414C303.247 188.414 302.657 191.204 299.297 192.574C298.267 192.994 298.207 194.414 299.197 194.914C303.287 196.984 311.027 199.034 315.567 188.414C315.567 188.414 330.417 178.614 325.107 170.684C319.807 162.744 322.457 163.814 315.067 161.064Z" fill="#FFB8B8"/>
<path d="M323.518 149.915C323.348 148.705 322.108 147.975 320.958 148.385C316.428 150.025 307.088 154.605 310.188 163.865C311.368 167.385 323.648 171.505 320.468 177.355C317.288 183.205 314.328 181.755 314.498 187.745C314.598 191.105 328.888 187.675 330.848 177.355C332.808 167.035 326.508 160.605 324.998 156.235C324.188 153.865 323.748 151.545 323.518 149.915Z" fill="#2F2E41"/>
<path d="M253.247 145.695L260.568 143.215C261.498 142.905 262.487 143.485 262.647 144.455L267.038 169.735C267.158 170.455 266.788 171.165 266.128 171.465L260.677 173.945C259.767 174.355 258.707 173.845 258.467 172.875L252.217 147.605C252.007 146.785 252.457 145.965 253.247 145.695Z" fill="white" stroke="#2F2E41" stroke-width="0.5" stroke-miterlimit="10" stroke-linejoin="round"/>
<path d="M255.147 159.475C253.647 162.145 251.847 167.455 255.387 174.455C255.387 174.455 251.037 192.825 247.527 202.165C244.017 211.505 244.867 215.785 251.007 217.055C257.157 218.325 273.507 216.735 276.637 213.805L272.487 204.085C272.487 204.085 263.467 209.145 257.787 205.145C252.107 201.145 260.417 182.725 260.937 176.135C261.007 175.295 261.047 174.495 261.057 173.755C261.187 168.635 260.317 165.755 260.317 165.755C260.317 165.755 259.017 170.115 257.727 169.905C257.547 169.885 257.367 169.765 257.197 169.535C256.257 168.305 255.667 165.045 255.757 161.945L255.147 159.475Z" fill="#FFB8B8"/>
<path d="M292.998 198.884C295.168 202.714 289.688 213.234 275.508 216.084C275.508 216.084 268.498 210.804 268.488 204.074C268.488 201.214 274.588 198.504 280.528 197.294C286.468 196.084 291.578 196.384 292.998 198.884Z" fill="#FF4480"/>
<path d="M293.058 199.024C292.898 199.094 292.738 199.204 292.578 199.374C290.798 201.184 289.828 203.654 288.058 205.514C287.458 206.144 286.828 206.724 286.168 207.264C281.978 210.684 276.508 212.314 271.078 211.374C273.078 214.254 275.508 216.094 275.508 216.094C289.538 213.264 295.038 202.964 293.058 199.024Z" fill="#D44E72"/>
<path d="M238.058 143.595C238.228 143.485 238.388 143.375 238.548 143.265C239.538 143.635 240.598 143.815 241.678 143.815C240.948 143.345 240.298 142.765 239.748 142.105C240.698 142.555 241.808 142.655 242.868 142.345C241.988 141.915 241.178 141.345 240.478 140.615C240.798 139.465 240.668 138.205 240.008 137.155C238.738 135.125 235.988 134.605 233.858 135.985C233.558 136.185 233.288 136.405 233.038 136.645C231.268 133.495 231.098 129.805 232.308 126.475C231.538 126.535 230.758 126.785 230.048 127.245C228.708 128.115 227.928 129.535 227.858 130.975C227.498 130.365 227.318 129.685 227.288 129.005L227.238 129.035C225.358 130.255 224.598 132.535 225.308 134.435C225.028 134.185 224.768 133.895 224.558 133.565C224.408 133.335 224.288 133.085 224.188 132.835C222.948 134.295 222.698 136.375 223.688 137.985C221.848 137.415 220.218 136.245 219.118 134.545C218.928 134.255 218.758 133.945 218.608 133.645C218.548 135.965 219.148 138.295 220.488 140.345C224.828 147.005 233.018 146.875 238.058 143.595Z" fill="#FF4480"/>
<circle cx="278.5" cy="110.5" r="19.5" fill="white"/>
<path d="M278.371 120.184C276.131 120.184 274.33 118.383 274.33 116.145V108.018C274.33 107.094 275.109 106.315 276.034 106.315C276.959 106.315 277.738 107.094 277.738 108.018V116.145C277.738 116.485 278.03 116.777 278.371 116.777C278.712 116.777 279.004 116.485 279.004 116.145V108.018C279.004 105.926 277.3 104.223 275.206 104.223C273.113 104.223 271.408 105.926 271.408 108.018V118.48C271.408 119.405 270.629 120.184 269.704 120.184C268.779 120.184 268 119.405 268 118.48V108.018C268 104.028 271.214 100.816 275.206 100.816C279.199 100.816 282.413 104.028 282.413 108.018V116.145C282.413 118.334 280.611 120.184 278.371 120.184Z" fill="#FF4480"/>
<path d="M287.281 120.184C286.355 120.184 285.576 119.405 285.576 118.48V105.926C285.576 105.001 284.846 104.223 283.872 104.223C282.947 104.223 282.168 103.444 282.168 102.52C282.168 101.595 282.996 100.816 283.921 100.816C286.745 100.816 289.033 103.103 289.033 105.926V118.48C288.985 119.405 288.254 120.184 287.281 120.184Z" fill="#FF4480"/>
</svg>
