<svg width="64" height="104" viewBox="0 0 64 104" fill="none" xmlns="http://www.w3.org/2000/svg">
<path d="M16.44 58.88C21.1013 58.88 24.88 55.1013 24.88 50.44C24.88 45.7787 21.1013 42 16.44 42C11.7787 42 8 45.7787 8 50.44C8 55.1013 11.7787 58.88 16.44 58.88Z" stroke="#FF4480" stroke-width="2" stroke-miterlimit="10" stroke-linecap="round" stroke-linejoin="round"/>
<path d="M41.7399 84.8299C50.339 84.8299 57.3099 77.859 57.3099 69.2599C57.3099 60.6609 50.339 53.6899 41.7399 53.6899C33.1409 53.6899 26.1699 60.6609 26.1699 69.2599C26.1699 77.859 33.1409 84.8299 41.7399 84.8299Z" stroke="#2F2E41" stroke-width="2" stroke-miterlimit="10" stroke-linecap="round" stroke-linejoin="round"/>
<path d="M11.7593 101.54V83.69C11.7593 83.16 11.3293 82.74 10.8093 82.74H7.9793C7.4493 82.74 7.0293 83.17 7.0293 83.69V101.55C7.0293 102.08 7.4593 102.5 7.9793 102.5H10.7993C11.3293 102.5 11.7593 102.07 11.7593 101.54Z" fill="#2F2E41"/>
<path d="M10.4199 86.05H24.8499C27.7899 86.05 30.1799 88.4401 30.1799 91.3801H38.8099C42.2299 91.3801 44.9999 94.15 44.9999 97.57C44.9999 98.24 44.4499 98.7901 43.7799 98.7901H10.4199V86.05Z" stroke="#2F2E41" stroke-width="2" stroke-miterlimit="10" stroke-linecap="round" stroke-linejoin="round"/>
<path d="M30.1795 91.3799H22.7695" stroke="#2F2E41" stroke-width="2" stroke-miterlimit="10" stroke-linecap="round" stroke-linejoin="round"/>
<path d="M41.4134 76.3908C39.8196 76.3908 38.5376 75.1096 38.5376 73.5167V67.734C38.5376 67.0761 39.0919 66.522 39.7503 66.522C40.4086 66.522 40.963 67.0761 40.963 67.734V73.5167C40.963 73.7591 41.1709 73.9669 41.4134 73.9669C41.6559 73.9669 41.8638 73.7591 41.8638 73.5167V67.734C41.8638 66.245 40.6511 65.033 39.1612 65.033C37.6713 65.033 36.4586 66.245 36.4586 67.734V75.1788C36.4586 75.8368 35.9042 76.3908 35.2459 76.3908C34.5876 76.3908 34.0332 75.8368 34.0332 75.1788V67.734C34.0332 64.8945 36.32 62.6091 39.1612 62.6091C42.0024 62.6091 44.2893 64.8945 44.2893 67.734V73.5167C44.2893 75.075 43.0073 76.3908 41.4134 76.3908Z" fill="#FF4480"/>
<path d="M47.7534 76.3908C47.095 76.3908 46.5407 75.8368 46.5407 75.1788V66.245C46.5407 65.5871 46.0209 65.033 45.3279 65.033C44.6696 65.033 44.1152 64.479 44.1152 63.8211C44.1152 63.1632 44.7043 62.6091 45.3626 62.6091C47.3722 62.6091 49.0007 64.2366 49.0007 66.245V75.1788C48.9661 75.8368 48.4463 76.3908 47.7534 76.3908Z" fill="#FF4480"/>
</svg>
