<?xml version="1.0" encoding="utf-8"?>
<!-- Generator: Adobe Illustrator 24.1.3, SVG Export Plug-In . SVG Version: 6.00 Build 0)  -->
<svg version="1.1" id="图层_1" xmlns="http://www.w3.org/2000/svg" xmlns:xlink="http://www.w3.org/1999/xlink" x="0px" y="0px"
	 viewBox="0 0 64 104" style="enable-background:new 0 0 64 104;" xml:space="preserve">
<style type="text/css">
	.st0{fill:none;stroke:#FF4480;stroke-width:2;stroke-linecap:round;stroke-linejoin:round;stroke-miterlimit:10;}
	.st1{fill:none;stroke:#2F2E41;stroke-width:2;stroke-linecap:round;stroke-linejoin:round;stroke-miterlimit:10;}
	.st2{fill:#2F2E41;}
	.st3{fill:#FF4480;}
</style>
<path class="st0" d="M16.4,58.9c4.7,0,8.4-3.8,8.4-8.4S21.1,42,16.4,42S8,45.8,8,50.4S11.8,58.9,16.4,58.9z"/>
<path class="st1" d="M41.7,84.8c8.6,0,15.6-7,15.6-15.6c0-8.6-7-15.6-15.6-15.6c-8.6,0-15.6,7-15.6,15.6
	C26.2,77.9,33.1,84.8,41.7,84.8z"/>
<path class="st2" d="M11.8,101.5V83.7c0-0.5-0.4-1-0.9-1H8c-0.5,0-0.9,0.4-0.9,1v17.9c0,0.5,0.4,0.9,0.9,0.9h2.8
	C11.3,102.5,11.8,102.1,11.8,101.5z"/>
<path class="st1" d="M10.4,86h14.4c2.9,0,5.3,2.4,5.3,5.3h8.6c3.4,0,6.2,2.8,6.2,6.2c0,0.7-0.5,1.2-1.2,1.2H10.4V86z"/>
<path class="st1" d="M30.2,91.4h-7.4"/>
<g>
	<g>
		<g>
			<g>
				<g>
					<path class="st3" d="M41.5,75.3c-1.4,0-2.5-1.1-2.5-2.5v-5.1c0-0.6,0.5-1.1,1.1-1.1s1.1,0.5,1.1,1.1v5.1c0,0.2,0.2,0.4,0.4,0.4
						S42,73,42,72.8v-5.1c0-1.3-1.1-2.4-2.4-2.4c-1.3,0-2.4,1.1-2.4,2.4v6.6c0,0.6-0.5,1.1-1.1,1.1S35,74.9,35,74.3v-6.6
						c0-2.5,2-4.5,4.5-4.5s4.5,2,4.5,4.5v5.1C44,74.2,42.9,75.3,41.5,75.3z"/>
				</g>
			</g>
			<g>
				<g>
					<path class="st3" d="M47.1,75.3c-0.6,0-1.1-0.5-1.1-1.1v-7.9c0-0.6-0.5-1.1-1.1-1.1s-1.1-0.5-1.1-1.1s0.5-1.1,1.1-1.1
						c1.8,0,3.2,1.4,3.2,3.2v7.9C48.2,74.9,47.7,75.3,47.1,75.3z"/>
				</g>
			</g>
		</g>
	</g>
</g>
</svg>
