<?xml version="1.0" encoding="utf-8"?>
<!-- Generator: Adobe Illustrator 24.1.3, SVG Export Plug-In . SVG Version: 6.00 Build 0)  -->
<svg version="1.1" id="图层_1" xmlns="http://www.w3.org/2000/svg" xmlns:xlink="http://www.w3.org/1999/xlink" x="0px" y="0px"
	 viewBox="0 0 440 280" style="enable-background:new 0 0 440 280;" xml:space="preserve">
<style type="text/css">
	.st0{fill:#F7F8FA;}
	.st1{fill:#F3F4F9;}
	.st2{fill:#FAA5A5;}
	.st3{fill:#FFFFFF;}
	.st4{fill:#E0E0E0;}
	.st5{fill:#FFFFFF;stroke:#E0E0E0;}
	.st6{fill:#E6E6E6;}
	.st7{fill:#FF4480;}
	.st8{fill:#D44E72;}
	.st9{fill:none;stroke:#FFFFFF;stroke-width:0.5;stroke-linecap:round;stroke-miterlimit:10;}
	.st10{fill:#2F2E41;}
	.st11{fill:#FFB8B8;}
	.st12{fill:#FFFFFF;stroke:#2F2E41;stroke-width:0.5;stroke-linejoin:round;stroke-miterlimit:10;}
	.st13{fill:#FF4480;}
</style>
<path class="st0" d="M440,0H0v280h440V0z"/>
<path class="st1" d="M257.4,40.5c15.7,1.4,29.9,7.3,39.9,20.1c4.9,6.2,8.3,13.5,9.7,21.3c3.9,22.4-7.4,47,2.5,67.6
	c3.6,7.4,9.7,13.5,12.6,21.2c4.6,12,0.4,26-7.8,35.8c-8.2,9.8-19.9,16.1-31.7,20.9c-28.9,11.8-61.4,16.3-91.8,9
	c-15.4-3.7-30.3-10.6-41.2-22c-11.4-12-17.4-28.2-20.6-44.4c-3.7-18.9-3.9-39,2.5-57.2c6.3-18,18.8-33.4,34-45
	c11.4-8.6,24.1-15.5,37.5-20.3c16.7-6,34.9-8.1,52.6-7C256.2,40.4,256.8,40.4,257.4,40.5z"/>
<path class="st1" d="M311.7,56.5c-1.6,1.4-2.8,3.1-3.4,4.7c-1.7,4.7-0.3,10.4,4.1,13.1c1.6,1,3.5,1.3,5.3,1.4c1.7,0.1,3.5-0.2,5.1-1
	c2.2-1.2,3.6-3.5,4.2-6c0.6-2.4,0.4-5,0.2-7.5c-0.2-1.6-0.4-3.2-1-4.7C323.4,50.1,316.2,52.5,311.7,56.5z"/>
<path class="st1" d="M109,189.3c-0.3,8.9,3.3,17.4,8.1,24.7c4.9,7.4,13.8,19.8,24.3,16.2c3.2-1.1,5.8-4.5,5.2-7.8
	c-0.7-4.3-5.2-7.1-8.5-9.3c-4.3-2.8-7.9-5.7-10.9-10c-3.8-5.6-5.8-12.7-8.2-18.9c-0.5-1.3-1.1-2.7-2.2-3.7
	C111.6,175.7,109.1,185.9,109,189.3z"/>
<path class="st2" d="M267.9,160.4c0,0,7.3,5,6.9,11c-0.4,6-1.7,9.8,9.6,23.3l-12.5,3.1c0,0,1.2-9.2-1-17.9
	c-1.1-4.6-3.3-7.2-2.8-11.5c0,0,1.1,3.4,2.7,2.2C272.4,169.3,270.2,163.3,267.9,160.4z"/>
<path class="st3" d="M230.3,197.8c0,0-16.4-32.1-22.9-35s-11.7-0.6-29.9,8.7s-48.5,20.2-48.4,27c0.2,6.8,4.5,8.4,16.3,3.3
	c11.8-5.1,32.4-18,49.4-11.7c17,6.3,25.4,24.8,25.4,24.8L230.3,197.8z"/>
<path class="st4" d="M199.1,182.7c-9.7-2.5-12.4-1.6-44.2,11.5c-13.3,5.5-20.8,7.2-25.1,7.4c1.5,3.9,6.1,4.3,15.7,0.1
	c11.8-5.1,32.4-18,49.4-11.7c17,6.3,25.3,24.8,25.3,24.8l4.8-8.1C218.6,198.3,206,184.5,199.1,182.7z"/>
<path class="st5" d="M146.5,170.3L146.5,170.3c-5.2-4.4-7.1-9.7-7.4-13.9c-0.2-2.1,0.1-3.9,0.5-5.2c0.2-0.6,0.5-1.1,0.7-1.4
	c0.3-0.3,0.4-0.4,0.5-0.4c1.1,0,1.9,0.3,2.6,0.8c0.7,0.6,1.4,1.4,2.1,2.5c0.4,0.6,0.8,1.3,1.2,2c1.1,1.9,2.5,4.1,4.5,6.5
	c5.6,6.7,18,11.8,40,11.7c10.9,0,18.5,2.8,24.1,6.5c4.7,3,8,6.5,10.8,9.4c0.6,0.6,1.1,1.2,1.7,1.7c3.1,3.2,6.2,4.5,8.5,4.9
	c1.1,0.2,2.1,0.3,2.8,0.2c0.3,0,0.5,0,0.7-0.1l10.7,27.5l-8.8,6.9c-10.5,2.5-19.4-4.1-26.4-12.5c-3.5-4.2-6.5-8.8-8.9-12.9
	c-0.9-1.5-1.7-2.9-2.5-4.2c-1.3-2.2-2.4-4.1-3.3-5.3c-0.7-1-2-2.1-3.6-3c-1.6-1-3.6-2-5.8-3c-4.5-2-10.1-4-15.8-6.1
	c-0.3-0.1-0.6-0.2-0.9-0.3c-5.5-2-11-3.9-15.8-6C153.4,174.6,149.1,172.5,146.5,170.3z"/>
<path class="st6" d="M241.9,230.6l7.8-6.1c-9.1-1.2-22.2-5.6-34.2-19.4c-21-24-33.4-21.6-43.5-24.7c-10.1-3.1-18-7.6-25.3-12.5
	c-4.4-2.9-6.8-9.1-8.1-13.5c-0.2,4.5,1.5,11,7.7,16.2c10.7,9,48.6,17.1,54,24.8C205.6,203.2,220.2,235.9,241.9,230.6z"/>
<path class="st7" d="M304.6,184.7c0,0-8.8,12-64.5,10.4c0,0-4.6,3.6-3.4,13c1.3,9.3,8.8,10.9,5.2,22.5c0,0,13.5,5.7,37.4-3.8
	s33.8-18.1,36.3-38.4L304.6,184.7z"/>
<path class="st8" d="M315.6,188.4l-8.5-2.9c0,0,3,17.5-22,31.8c-17.5,10-34,8.5-42.3,6.7c0.1,1.8-0.1,4-0.9,6.6
	c0,0,13.5,5.7,37.4-3.8C303.3,217.3,313.1,208.8,315.6,188.4z"/>
<path class="st6" d="M150.5,117.9c0,0,13.7,11.6,16.6,25.5c0,0,7.5-8.3,17.8-12.1c5.8-2.2,2.8-6.7,0-10.7
	c-2.8-4-11.1-12.7-10.9-19.5C174,101,158.2,103.6,150.5,117.9z"/>
<path class="st3" d="M154,117.9c0,0,5.5,3.5,7.9,8.9c0,0,2.5-2.8,5.1-4.8c0,0-3.9-7.3-6.9-8.7C160.2,113.3,157.2,113.1,154,117.9z"
	/>
<path class="st9" d="M165.3,111.3c0,0,3.5-4,6.3-4.2"/>
<path class="st9" d="M168.1,115.2c0,0,1.9-2.7,5-2.8"/>
<path class="st9" d="M170.8,118.7c0,0,4.2-1.5,5.3-3.5"/>
<path class="st9" d="M166,130.6c0,0,4.3-8.7,13.1-10.6"/>
<path class="st9" d="M168.5,135c0,0,5.3-8.9,12.6-10.7"/>
<path class="st10" d="M211.8,66c-3.2,0-6.1-1.6-8.8-3c-2.5-1.2-5.5-2-7.7-3.6c-2.6-2-0.5-4.8,0.5-7c1.3-2.8,2.2-5.8,3.2-8.7
	c0.4-1.2,0.9-2.5,1.8-3.5c2.4-2.5,5.8-0.4,8.4,0.7c3.6,1.5,7.2,3,10.8,4.5c3.9,1.6-3,15.5-4.2,17.7c-0.5,0.9-1,1.9-2,2.4
	C213.1,65.9,212.4,66,211.8,66z"/>
<path class="st3" d="M210.7,53.3c-0.8-1.6-3.3-5.6-4.9-3.8c-0.3,0.3-0.4,0.8-0.6,1.2c-0.4,1.2-0.8,2.4-1.1,3.5c-0.1,0.5-0.3,1,0,1.4
	c0.3,0.4,0.9,0.4,1.4,0.3c1.4-0.3,2.8-0.5,4.2-0.8c0.5-0.1,1.1-0.3,1.2-0.8c0.1-0.3,0-0.5-0.1-0.8C210.8,53.5,210.8,53.4,210.7,53.3
	z"/>
<path class="st11" d="M315.1,161.1c0,0-9.9-1.6-14.4,11.8c-2.9,8.7,2.6,15.5,2.6,15.5s-0.6,2.8-4,4.2c-1,0.4-1.1,1.8-0.1,2.3
	c4.1,2.1,11.8,4.1,16.4-6.5c0,0,14.9-9.8,9.5-17.7C319.8,162.7,322.5,163.8,315.1,161.1z"/>
<path class="st10" d="M323.5,149.9c-0.2-1.2-1.4-1.9-2.6-1.5c-4.5,1.6-13.9,6.2-10.8,15.5c1.2,3.5,13.5,7.6,10.3,13.5
	c-3.2,5.9-6.1,4.4-6,10.4c0.1,3.4,14.4-0.1,16.4-10.4c2-10.3-4.3-16.8-5.9-21.1C324.2,153.9,323.7,151.5,323.5,149.9z"/>
<path class="st12" d="M253.2,145.7l7.3-2.5c0.9-0.3,1.9,0.3,2.1,1.2l4.4,25.3c0.1,0.7-0.2,1.4-0.9,1.7l-5.5,2.5
	c-0.9,0.4-2-0.1-2.2-1.1l-6.3-25.3C252,146.8,252.5,146,253.2,145.7z"/>
<path class="st11" d="M255.1,159.5c-1.5,2.7-3.3,8,0.2,15c0,0-4.3,18.4-7.9,27.7c-3.5,9.3-2.7,13.6,3.5,14.9
	c6.2,1.3,22.5-0.3,25.6-3.2l-4.1-9.7c0,0-9,5.1-14.7,1.1c-5.7-4,2.6-22.4,3.2-29c0.1-0.8,0.1-1.6,0.1-2.4c0.1-5.1-0.7-8-0.7-8
	s-1.3,4.4-2.6,4.1c-0.2,0-0.4-0.1-0.5-0.4c-0.9-1.2-1.5-4.5-1.4-7.6L255.1,159.5z"/>
<path class="st7" d="M293,198.9c2.2,3.8-3.3,14.3-17.5,17.2c0,0-7-5.3-7-12c0-2.9,6.1-5.6,12-6.8C286.5,196.1,291.6,196.4,293,198.9
	z"/>
<path class="st8" d="M293.1,199c-0.2,0.1-0.3,0.2-0.5,0.3c-1.8,1.8-2.8,4.3-4.5,6.1c-0.6,0.6-1.2,1.2-1.9,1.8
	c-4.2,3.4-9.7,5-15.1,4.1c2,2.9,4.4,4.7,4.4,4.7C289.5,213.3,295,203,293.1,199z"/>
<path class="st7" d="M238.1,143.6c0.2-0.1,0.3-0.2,0.5-0.3c1,0.4,2.1,0.6,3.1,0.6c-0.7-0.5-1.4-1.1-1.9-1.7c0.9,0.4,2.1,0.6,3.1,0.2
	c-0.9-0.4-1.7-1-2.4-1.7c0.3-1.2,0.2-2.4-0.5-3.5c-1.3-2-4-2.6-6.1-1.2c-0.3,0.2-0.6,0.4-0.8,0.7c-1.8-3.2-1.9-6.8-0.7-10.2
	c-0.8,0.1-1.6,0.3-2.3,0.8c-1.3,0.9-2.1,2.3-2.2,3.7c-0.4-0.6-0.5-1.3-0.6-2l0,0c-1.9,1.2-2.6,3.5-1.9,5.4c-0.3-0.2-0.5-0.5-0.8-0.9
	c-0.1-0.2-0.3-0.5-0.4-0.7c-1.2,1.5-1.5,3.5-0.5,5.1c-1.8-0.6-3.5-1.7-4.6-3.4c-0.2-0.3-0.4-0.6-0.5-0.9c-0.1,2.3,0.5,4.6,1.9,6.7
	C224.8,147,233,146.9,238.1,143.6z"/>
<circle class="st3" cx="278.5" cy="110.5" r="19.5"/>
<g>
	<g>
		<g>
			<g>
				<g>
					<path class="st13" d="M278.4,117.6c-1.6,0-2.9-1.3-2.9-2.9v-5.9c0-0.7,0.6-1.3,1.3-1.3c0.7,0,1.3,0.6,1.3,1.3v5.9
						c0,0.2,0.2,0.5,0.5,0.5s0.5-0.2,0.5-0.5v-5.9c0-1.5-1.3-2.8-2.8-2.8c-1.5,0-2.8,1.3-2.8,2.8v7.6c0,0.7-0.6,1.3-1.3,1.3
						s-1.3-0.6-1.3-1.3v-7.6c0-2.9,2.3-5.2,5.2-5.2s5.2,2.3,5.2,5.2v5.9C281.3,116.3,280.1,117.6,278.4,117.6z"/>
				</g>
			</g>
			<g>
				<g>
					<path class="st13" d="M284.9,117.6c-0.7,0-1.3-0.6-1.3-1.3v-9.1c0-0.7-0.6-1.3-1.3-1.3c-0.7,0-1.3-0.6-1.3-1.3s0.6-1.3,1.3-1.3
						c2.1,0,3.7,1.6,3.7,3.7v9.1C286.2,117.1,285.6,117.6,284.9,117.6z"/>
				</g>
			</g>
		</g>
	</g>
</g>
</svg>
