<?xml version="1.0" encoding="utf-8"?>
<!-- Generator: Adobe Illustrator 24.1.3, SVG Export Plug-In . SVG Version: 6.00 Build 0)  -->
<svg version="1.1" id="图层_1" xmlns="http://www.w3.org/2000/svg" xmlns:xlink="http://www.w3.org/1999/xlink" x="0px" y="0px"
	 viewBox="0 0 440 280" style="enable-background:new 0 0 440 280;" xml:space="preserve">
<style type="text/css">
	.st0{fill:none;stroke:#E0E0E0;}
	.st1{fill:#FF4480;}
	.st2{fill:none;stroke:#E0E0E0;stroke-linecap:round;stroke-linejoin:round;stroke-miterlimit:10;}
	.st3{fill:#FFFFFF;stroke:#2F2E41;stroke-width:2;stroke-linecap:round;stroke-linejoin:round;stroke-miterlimit:10;}
	.st4{fill:#FFFFFF;stroke:#FF4480;stroke-width:2;stroke-linecap:round;stroke-linejoin:round;stroke-miterlimit:10;}
	.st5{fill:none;stroke:#FF4480;stroke-width:2;stroke-linecap:round;stroke-linejoin:round;stroke-miterlimit:10;}
	.st6{fill:#FFFFFF;}
	.st7{fill:none;stroke:#2F2E41;stroke-width:2;stroke-linecap:round;stroke-linejoin:round;stroke-miterlimit:10;}
	.st8{fill:#E0E0E0;}
</style>
<line class="st0" x1="204" y1="140.5" x2="100" y2="140.5"/>
<path class="st1" d="M89.3,169.7c16.2,0,29.3-13.1,29.3-29.3S105.5,111,89.3,111C73.1,111,60,124.1,60,140.3S73.1,169.7,89.3,169.7z
	"/>
<path class="st2" d="M366.6,194.3v-93.5l-81-46.8l-81,46.8v93.5l81,46.8L366.6,194.3z"/>
<path class="st2" d="M285.6,54v187"/>
<path class="st2" d="M204.6,100.8h162"/>
<path class="st2" d="M204.6,194.3h162"/>
<path class="st2" d="M204.6,100.8l81,140.3"/>
<path class="st2" d="M285.6,54l81,140.3"/>
<path class="st2" d="M366.6,100.8l-81,140.3"/>
<path class="st2" d="M285.6,54l-81,140.3"/>
<path class="st2" d="M204.6,100.8l162,93.5"/>
<path class="st2" d="M204.6,194.3l162-93.5"/>
<path class="st3" d="M286.1,51.8c3.4,0,6.1-2.7,6.1-6.1s-2.7-6.1-6.1-6.1c-3.4,0-6.1,2.7-6.1,6.1S282.8,51.8,286.1,51.8z"/>
<path class="st3" d="M277.5,65.1c-2.1,0-3.6-2-2.9-4c1.6-4.8,6.2-8.2,11.5-8.2s9.8,3.4,11.5,8.2c0.7,2-0.8,4-2.9,4H277.5z"/>
<path class="st1" d="M287.9,47.1c0.3,0,0.5,0.3,0.4,0.6c-0.2,1-1.1,1.7-2.2,1.7c-1,0-1.9-0.7-2.2-1.7c-0.1-0.3,0.1-0.6,0.4-0.6
	H287.9z"/>
<path class="st4" d="M299.6,66.1h-7.8c-0.6,0-1.1-0.5-1.1-1.2l0.4-7.2c0-0.6,0.5-1,1.1-1h7c0.6,0,1,0.5,1.1,1l0.4,7.2
	C300.7,65.6,300.2,66.1,299.6,66.1z"/>
<path class="st5" d="M297.5,59.3v-3.4c0-1-0.8-1.8-1.8-1.8c-1,0-1.9,0.8-1.9,1.8v3.4"/>
<path class="st3" d="M286.1,238.8c3.4,0,6.1-2.7,6.1-6.1c0-3.4-2.7-6.1-6.1-6.1c-3.4,0-6.1,2.7-6.1,6.1
	C280.1,236.1,282.8,238.8,286.1,238.8z"/>
<path class="st3" d="M277.5,252.1c-2.1,0-3.6-2-2.9-4c1.6-4.8,6.2-8.2,11.5-8.2s9.8,3.4,11.5,8.2c0.7,1.9-0.8,4-2.9,4H277.5z"/>
<path class="st1" d="M287.9,234.1c0.3,0,0.5,0.3,0.4,0.6c-0.2,1-1.1,1.7-2.2,1.7c-1,0-1.9-0.7-2.2-1.7c-0.1-0.3,0.1-0.6,0.4-0.6
	H287.9z"/>
<path class="st4" d="M299.6,253.1h-7.8c-0.6,0-1.1-0.5-1.1-1.2l0.4-7.2c0-0.6,0.5-1.1,1.1-1.1h7c0.6,0,1,0.5,1.1,1.1l0.4,7.2
	C300.7,252.6,300.2,253.1,299.6,253.1z"/>
<path class="st5" d="M297.5,246.3v-3.4c0-1-0.8-1.9-1.8-1.9c-1,0-1.9,0.8-1.9,1.9v3.4"/>
<path class="st3" d="M205.1,98.5c3.4,0,6.1-2.7,6.1-6.1s-2.7-6.1-6.1-6.1c-3.4,0-6.1,2.7-6.1,6.1S201.8,98.5,205.1,98.5z"/>
<path class="st3" d="M196.6,111.9c-2.1,0-3.6-2-2.9-4c1.6-4.8,6.2-8.2,11.5-8.2s9.8,3.4,11.5,8.2c0.7,1.9-0.8,4-2.9,4H196.6z"/>
<path class="st1" d="M206.9,93.9c0.3,0,0.5,0.3,0.4,0.6c-0.2,1-1.1,1.7-2.2,1.7c-1,0-1.9-0.7-2.2-1.7c-0.1-0.3,0.1-0.6,0.4-0.6
	H206.9z"/>
<path class="st4" d="M218.6,112.9h-7.8c-0.6,0-1.1-0.5-1.1-1.2l0.4-7.2c0-0.6,0.5-1.1,1.1-1.1h7c0.6,0,1,0.5,1.1,1.1l0.4,7.2
	C219.7,112.4,219.2,112.9,218.6,112.9z"/>
<path class="st5" d="M216.5,106v-3.4c0-1-0.8-1.8-1.8-1.8c-1,0-1.9,0.8-1.9,1.8v3.4"/>
<path class="st3" d="M205.1,192c3.4,0,6.1-2.7,6.1-6.1c0-3.4-2.7-6.1-6.1-6.1c-3.4,0-6.1,2.7-6.1,6.1
	C199.1,189.3,201.8,192,205.1,192z"/>
<path class="st3" d="M196.6,205.4c-2.1,0-3.6-2-2.9-4c1.6-4.8,6.2-8.2,11.5-8.2s9.8,3.4,11.5,8.2c0.7,1.9-0.8,4-2.9,4H196.6z"/>
<path class="st1" d="M206.9,187.4c0.3,0,0.5,0.3,0.4,0.6c-0.2,1-1.1,1.7-2.2,1.7c-1,0-1.9-0.7-2.2-1.7c-0.1-0.3,0.1-0.6,0.4-0.6
	H206.9z"/>
<path class="st4" d="M218.6,206.4h-7.8c-0.6,0-1.1-0.5-1.1-1.2l0.4-7.2c0-0.6,0.5-1.1,1.1-1.1h7c0.6,0,1,0.5,1.1,1.1l0.4,7.2
	C219.7,205.9,219.2,206.4,218.6,206.4z"/>
<path class="st5" d="M216.5,199.6v-3.4c0-1-0.8-1.9-1.8-1.9c-1,0-1.9,0.8-1.9,1.9v3.4"/>
<path class="st3" d="M367.1,192c3.4,0,6.1-2.7,6.1-6.1c0-3.4-2.7-6.1-6.1-6.1c-3.4,0-6.1,2.7-6.1,6.1C361,189.3,363.8,192,367.1,192
	z"/>
<path class="st3" d="M358.5,205.4c-2.1,0-3.6-2-2.9-4c1.6-4.8,6.2-8.2,11.5-8.2s9.8,3.4,11.5,8.2c0.7,1.9-0.8,4-2.9,4H358.5z"/>
<path class="st1" d="M368.8,187.4c0.3,0,0.5,0.3,0.4,0.6c-0.2,1-1.1,1.7-2.2,1.7c-1,0-1.9-0.7-2.2-1.7c-0.1-0.3,0.1-0.6,0.4-0.6
	H368.8z"/>
<path class="st4" d="M380.5,206.4h-7.8c-0.6,0-1.1-0.5-1.1-1.2l0.4-7.2c0-0.6,0.5-1.1,1.1-1.1h7c0.6,0,1,0.5,1.1,1.1l0.4,7.2
	C381.6,205.9,381.1,206.4,380.5,206.4z"/>
<path class="st5" d="M378.5,199.6v-3.4c0-1-0.8-1.9-1.9-1.9c-1,0-1.9,0.8-1.9,1.9v3.4"/>
<path class="st3" d="M367.1,98.5c3.4,0,6.1-2.7,6.1-6.1s-2.7-6.1-6.1-6.1c-3.4,0-6.1,2.7-6.1,6.1S363.8,98.5,367.1,98.5z"/>
<path class="st3" d="M358.5,111.9c-2.1,0-3.6-2-2.9-4c1.6-4.8,6.2-8.2,11.5-8.2s9.8,3.4,11.5,8.2c0.7,1.9-0.8,4-2.9,4H358.5z"/>
<path class="st1" d="M368.8,93.9c0.3,0,0.5,0.3,0.4,0.6c-0.2,1-1.1,1.7-2.2,1.7c-1,0-1.9-0.7-2.2-1.7c-0.1-0.3,0.1-0.6,0.4-0.6
	H368.8z"/>
<path class="st4" d="M380.5,112.9h-7.8c-0.6,0-1.1-0.5-1.1-1.2l0.4-7.2c0-0.6,0.5-1.1,1.1-1.1h7c0.6,0,1,0.5,1.1,1.1l0.4,7.2
	C381.6,112.4,381.1,112.9,380.5,112.9z"/>
<path class="st5" d="M378.5,106v-3.4c0-1-0.8-1.8-1.9-1.8c-1,0-1.9,0.8-1.9,1.8v3.4"/>
<path class="st6" d="M277.8,166.5l15.6-4.1c-0.5-3.1,2-5.5,2-5.5c4.9-3.5,8.2-9.5,8.2-15.8c0-9.9-8-17.9-17.9-17.9
	c-9.9,0-17.9,8-17.9,17.9c0,6.5,3.5,12.7,8.6,16.1"/>
<path class="st7" d="M277.8,166.5l15.6-4.1c-0.5-3.1,2-5.5,2-5.5c4.9-3.5,8.2-9.5,8.2-15.8c0-9.9-8-17.9-17.9-17.9
	c-9.9,0-17.9,8-17.9,17.9c0,6.5,3.5,12.7,8.6,16.1"/>
<path class="st7" d="M293.4,167.7l-15.6,4.1"/>
<path class="st7" d="M280.9,176.6c1.2,0.9,2.7,1.5,4.4,1.5s3.1-0.6,4.4-1.5"/>
<path class="st5" d="M285.6,110.7v5"/>
<path class="st5" d="M261.5,120.7l3.5,3.5"/>
<path class="st5" d="M254.3,144.9h5"/>
<path class="st5" d="M264.3,166.3l3.5-3.5"/>
<path class="st5" d="M307.1,166.2l-3.5-3.5"/>
<path class="st5" d="M317.1,144.8h-5"/>
<path class="st5" d="M309.8,120.7l-3.5,3.5"/>
<path class="st1" d="M285.3,150.3c4.5,0,8.2-3.8,8.2-8.6s-3.7-8.6-8.2-8.6c-4.5,0-8.2,3.8-8.2,8.6S280.7,150.3,285.3,150.3z"/>
<path class="st8" d="M205,140.5l-6.8,3.9v-7.8L205,140.5z"/>
<g>
	<g>
		<g>
			<g>
				<path class="st6" d="M89.2,152.7c-2.8,0-5.1-2.2-5.1-5.1v-10.4c0-1.2,1-2.2,2.2-2.2s2.2,1,2.2,2.2v10.4c0,0.4,0.4,0.8,0.8,0.8
					s0.8-0.4,0.8-0.8v-10.4c0-2.6-2.2-4.9-4.9-4.9c-2.6,0-4.9,2.2-4.9,4.9v13.4c0,1.2-1,2.2-2.2,2.2c-1.2,0-2.2-1-2.2-2.2v-13.4
					c0-5.1,4.1-9.1,9.1-9.1s9.1,4.1,9.1,9.1v10.4C94.3,150.5,92.1,152.7,89.2,152.7z"/>
			</g>
		</g>
		<g>
			<g>
				<path class="st6" d="M100.6,152.7c-1.2,0-2.2-1-2.2-2.2v-16c0-1.2-1-2.2-2.2-2.2c-1.2,0-2.2-1-2.2-2.2c0-1.2,1-2.2,2.2-2.2
					c3.7,0,6.5,2.8,6.5,6.5v16C102.8,151.9,101.8,152.7,100.6,152.7z"/>
			</g>
		</g>
	</g>
</g>
</svg>
