<svg width="326" height="219" viewBox="0 0 326 219" fill="none" xmlns="http://www.w3.org/2000/svg">
<line x1="147" y1="102.5" x2="43" y2="102.5" stroke="#E0E0E0"/>
<path d="M32.33 131.66C48.5285 131.66 61.66 118.529 61.66 102.33C61.66 86.1315 48.5285 73 32.33 73C16.1315 73 3 86.1315 3 102.33C3 118.529 16.1315 131.66 32.33 131.66Z" fill="#F55681"/>
<path d="M309.63 156.28V62.76L228.64 16L147.65 62.76V156.28L228.64 203.04L309.63 156.28Z" stroke="#E0E0E0" stroke-miterlimit="10" stroke-linecap="round" stroke-linejoin="round"/>
<path d="M228.64 16V203.04" stroke="#E0E0E0" stroke-miterlimit="10" stroke-linecap="round" stroke-linejoin="round"/>
<path d="M147.65 62.76H309.63" stroke="#E0E0E0" stroke-miterlimit="10" stroke-linecap="round" stroke-linejoin="round"/>
<path d="M147.65 156.28H309.63" stroke="#E0E0E0" stroke-miterlimit="10" stroke-linecap="round" stroke-linejoin="round"/>
<path d="M147.65 62.76L228.64 203.04" stroke="#E0E0E0" stroke-miterlimit="10" stroke-linecap="round" stroke-linejoin="round"/>
<path d="M228.64 16L309.63 156.28" stroke="#E0E0E0" stroke-miterlimit="10" stroke-linecap="round" stroke-linejoin="round"/>
<path d="M309.63 62.76L228.64 203.04" stroke="#E0E0E0" stroke-miterlimit="10" stroke-linecap="round" stroke-linejoin="round"/>
<path d="M228.64 16L147.65 156.28" stroke="#E0E0E0" stroke-miterlimit="10" stroke-linecap="round" stroke-linejoin="round"/>
<path d="M147.65 62.76L309.63 156.28" stroke="#E0E0E0" stroke-miterlimit="10" stroke-linecap="round" stroke-linejoin="round"/>
<path d="M147.65 156.28L309.63 62.76" stroke="#E0E0E0" stroke-miterlimit="10" stroke-linecap="round" stroke-linejoin="round"/>
<path d="M229.121 13.7799C232.473 13.7799 235.191 11.0623 235.191 7.70989C235.191 4.35752 232.473 1.63989 229.121 1.63989C225.768 1.63989 223.051 4.35752 223.051 7.70989C223.051 11.0623 225.768 13.7799 229.121 13.7799Z" fill="white" stroke="#2F2E41" stroke-width="2" stroke-miterlimit="10" stroke-linecap="round" stroke-linejoin="round"/>
<path d="M220.541 27.14C218.481 27.14 216.971 25.12 217.641 23.17C219.281 18.42 223.801 15 229.111 15C234.421 15 238.941 18.41 240.581 23.17C241.251 25.12 239.741 27.14 237.681 27.14H220.541Z" fill="white" stroke="#2F2E41" stroke-width="2" stroke-miterlimit="10" stroke-linecap="round" stroke-linejoin="round"/>
<path d="M230.851 9.13989C231.141 9.13989 231.361 9.41989 231.291 9.69989C231.041 10.6599 230.171 11.3799 229.121 11.3799C228.081 11.3799 227.201 10.6699 226.951 9.69989C226.881 9.41989 227.091 9.13989 227.391 9.13989H230.851Z" fill="#F55681"/>
<path d="M242.561 28.1399H234.761C234.151 28.1399 233.671 27.5999 233.701 26.9599L234.101 19.7099C234.131 19.1199 234.601 18.6599 235.161 18.6599H242.151C242.711 18.6599 243.171 19.1199 243.211 19.7099L243.611 26.9599C243.651 27.5999 243.171 28.1399 242.561 28.1399Z" fill="white" stroke="#F55681" stroke-width="2" stroke-miterlimit="10" stroke-linecap="round" stroke-linejoin="round"/>
<path d="M240.511 21.29V17.85C240.511 16.83 239.681 16 238.661 16C237.641 16 236.811 16.83 236.811 17.85V21.29" stroke="#F55681" stroke-width="2" stroke-miterlimit="10" stroke-linecap="round" stroke-linejoin="round"/>
<path d="M229.121 200.78C232.473 200.78 235.191 198.062 235.191 194.71C235.191 191.358 232.473 188.64 229.121 188.64C225.768 188.64 223.051 191.358 223.051 194.71C223.051 198.062 225.768 200.78 229.121 200.78Z" fill="white" stroke="#2F2E41" stroke-width="2" stroke-miterlimit="10" stroke-linecap="round" stroke-linejoin="round"/>
<path d="M220.541 214.14C218.481 214.14 216.971 212.12 217.641 210.17C219.281 205.42 223.801 202 229.111 202C234.421 202 238.941 205.41 240.581 210.17C241.251 212.12 239.741 214.14 237.681 214.14H220.541Z" fill="white" stroke="#2F2E41" stroke-width="2" stroke-miterlimit="10" stroke-linecap="round" stroke-linejoin="round"/>
<path d="M230.851 196.14C231.141 196.14 231.361 196.42 231.291 196.7C231.041 197.66 230.171 198.38 229.121 198.38C228.081 198.38 227.201 197.67 226.951 196.7C226.881 196.42 227.091 196.14 227.391 196.14H230.851Z" fill="#F55681"/>
<path d="M242.561 215.14H234.761C234.151 215.14 233.671 214.6 233.701 213.96L234.101 206.71C234.131 206.12 234.601 205.66 235.161 205.66H242.151C242.711 205.66 243.171 206.12 243.211 206.71L243.611 213.96C243.651 214.6 243.171 215.14 242.561 215.14Z" fill="white" stroke="#F55681" stroke-width="2" stroke-miterlimit="10" stroke-linecap="round" stroke-linejoin="round"/>
<path d="M240.511 208.29V204.85C240.511 203.83 239.681 203 238.661 203C237.641 203 236.811 203.83 236.811 204.85V208.29" stroke="#F55681" stroke-width="2" stroke-miterlimit="10" stroke-linecap="round" stroke-linejoin="round"/>
<path d="M148.131 60.5399C151.483 60.5399 154.201 57.8223 154.201 54.4699C154.201 51.1175 151.483 48.3999 148.131 48.3999C144.778 48.3999 142.061 51.1175 142.061 54.4699C142.061 57.8223 144.778 60.5399 148.131 60.5399Z" fill="white" stroke="#2F2E41" stroke-width="2" stroke-miterlimit="10" stroke-linecap="round" stroke-linejoin="round"/>
<path d="M139.55 73.9C137.49 73.9 135.98 71.88 136.65 69.93C138.29 65.18 142.81 61.76 148.12 61.76C153.43 61.76 157.95 65.17 159.59 69.93C160.26 71.88 158.75 73.9 156.69 73.9H139.55Z" fill="white" stroke="#2F2E41" stroke-width="2" stroke-miterlimit="10" stroke-linecap="round" stroke-linejoin="round"/>
<path d="M149.861 55.8999C150.151 55.8999 150.371 56.1799 150.301 56.4599C150.051 57.4199 149.181 58.1399 148.131 58.1399C147.091 58.1399 146.211 57.4299 145.961 56.4599C145.891 56.1799 146.101 55.8999 146.401 55.8999H149.861Z" fill="#F55681"/>
<path d="M161.571 74.8999H153.771C153.161 74.8999 152.681 74.3599 152.711 73.7199L153.111 66.4699C153.141 65.8799 153.611 65.4199 154.171 65.4199H161.161C161.721 65.4199 162.181 65.8799 162.221 66.4699L162.621 73.7199C162.661 74.3599 162.181 74.8999 161.571 74.8999Z" fill="white" stroke="#F55681" stroke-width="2" stroke-miterlimit="10" stroke-linecap="round" stroke-linejoin="round"/>
<path d="M159.521 68.05V64.61C159.521 63.59 158.691 62.76 157.671 62.76C156.651 62.76 155.821 63.59 155.821 64.61V68.05" stroke="#F55681" stroke-width="2" stroke-miterlimit="10" stroke-linecap="round" stroke-linejoin="round"/>
<path d="M148.131 154.05C151.483 154.05 154.201 151.333 154.201 147.98C154.201 144.628 151.483 141.91 148.131 141.91C144.778 141.91 142.061 144.628 142.061 147.98C142.061 151.333 144.778 154.05 148.131 154.05Z" fill="white" stroke="#2F2E41" stroke-width="2" stroke-miterlimit="10" stroke-linecap="round" stroke-linejoin="round"/>
<path d="M139.55 167.42C137.49 167.42 135.98 165.4 136.65 163.45C138.29 158.7 142.81 155.28 148.12 155.28C153.43 155.28 157.95 158.69 159.59 163.45C160.26 165.4 158.75 167.42 156.69 167.42H139.55Z" fill="white" stroke="#2F2E41" stroke-width="2" stroke-miterlimit="10" stroke-linecap="round" stroke-linejoin="round"/>
<path d="M149.861 149.42C150.151 149.42 150.371 149.7 150.301 149.98C150.051 150.94 149.181 151.66 148.131 151.66C147.091 151.66 146.211 150.95 145.961 149.98C145.891 149.7 146.101 149.42 146.401 149.42H149.861Z" fill="#F55681"/>
<path d="M161.571 168.42H153.771C153.161 168.42 152.681 167.88 152.711 167.24L153.111 159.99C153.141 159.4 153.611 158.94 154.171 158.94H161.161C161.721 158.94 162.181 159.4 162.221 159.99L162.621 167.24C162.661 167.87 162.181 168.42 161.571 168.42Z" fill="white" stroke="#F55681" stroke-width="2" stroke-miterlimit="10" stroke-linecap="round" stroke-linejoin="round"/>
<path d="M159.521 161.57V158.13C159.521 157.11 158.691 156.28 157.671 156.28C156.651 156.28 155.821 157.11 155.821 158.13V161.57" stroke="#F55681" stroke-width="2" stroke-miterlimit="10" stroke-linecap="round" stroke-linejoin="round"/>
<path d="M310.111 154.05C313.463 154.05 316.181 151.333 316.181 147.98C316.181 144.628 313.463 141.91 310.111 141.91C306.758 141.91 304.041 144.628 304.041 147.98C304.041 151.333 306.758 154.05 310.111 154.05Z" fill="white" stroke="#2F2E41" stroke-width="2" stroke-miterlimit="10" stroke-linecap="round" stroke-linejoin="round"/>
<path d="M301.53 167.42C299.47 167.42 297.96 165.4 298.63 163.45C300.27 158.7 304.79 155.28 310.1 155.28C315.41 155.28 319.93 158.69 321.57 163.45C322.24 165.4 320.73 167.42 318.67 167.42H301.53Z" fill="white" stroke="#2F2E41" stroke-width="2" stroke-miterlimit="10" stroke-linecap="round" stroke-linejoin="round"/>
<path d="M311.84 149.42C312.13 149.42 312.35 149.7 312.28 149.98C312.03 150.94 311.16 151.66 310.11 151.66C309.07 151.66 308.19 150.95 307.94 149.98C307.87 149.7 308.08 149.42 308.38 149.42H311.84Z" fill="#F55681"/>
<path d="M323.55 168.42H315.75C315.14 168.42 314.66 167.88 314.69 167.24L315.09 159.99C315.12 159.4 315.59 158.94 316.15 158.94H323.14C323.7 158.94 324.16 159.4 324.2 159.99L324.6 167.24C324.64 167.87 324.15 168.42 323.55 168.42Z" fill="white" stroke="#F55681" stroke-width="2" stroke-miterlimit="10" stroke-linecap="round" stroke-linejoin="round"/>
<path d="M321.5 161.57V158.13C321.5 157.11 320.67 156.28 319.65 156.28C318.63 156.28 317.8 157.11 317.8 158.13V161.57" stroke="#F55681" stroke-width="2" stroke-miterlimit="10" stroke-linecap="round" stroke-linejoin="round"/>
<path d="M310.111 60.5399C313.463 60.5399 316.181 57.8223 316.181 54.4699C316.181 51.1175 313.463 48.3999 310.111 48.3999C306.758 48.3999 304.041 51.1175 304.041 54.4699C304.041 57.8223 306.758 60.5399 310.111 60.5399Z" fill="white" stroke="#2F2E41" stroke-width="2" stroke-miterlimit="10" stroke-linecap="round" stroke-linejoin="round"/>
<path d="M301.53 73.9C299.47 73.9 297.96 71.88 298.63 69.93C300.27 65.18 304.79 61.76 310.1 61.76C315.41 61.76 319.93 65.17 321.57 69.93C322.24 71.88 320.73 73.9 318.67 73.9H301.53Z" fill="white" stroke="#2F2E41" stroke-width="2" stroke-miterlimit="10" stroke-linecap="round" stroke-linejoin="round"/>
<path d="M311.84 55.8999C312.13 55.8999 312.35 56.1799 312.28 56.4599C312.03 57.4199 311.16 58.1399 310.11 58.1399C309.07 58.1399 308.19 57.4299 307.94 56.4599C307.87 56.1799 308.08 55.8999 308.38 55.8999H311.84Z" fill="#F55681"/>
<path d="M323.55 74.8999H315.75C315.14 74.8999 314.66 74.3599 314.69 73.7199L315.09 66.4699C315.12 65.8799 315.59 65.4199 316.15 65.4199H323.14C323.7 65.4199 324.16 65.8799 324.2 66.4699L324.6 73.7199C324.64 74.3599 324.15 74.8999 323.55 74.8999Z" fill="white" stroke="#F55681" stroke-width="2" stroke-miterlimit="10" stroke-linecap="round" stroke-linejoin="round"/>
<path d="M321.5 68.05V64.61C321.5 63.59 320.67 62.76 319.65 62.76C318.63 62.76 317.8 63.59 317.8 64.61V68.05" stroke="#F55681" stroke-width="2" stroke-miterlimit="10" stroke-linecap="round" stroke-linejoin="round"/>
<path d="M220.841 128.49L236.451 124.39C235.931 121.25 238.411 118.91 238.411 118.91C243.321 115.39 246.571 109.4 246.571 103.11C246.571 93.24 238.571 85.23 228.691 85.23C218.821 85.23 210.811 93.23 210.811 103.11C210.811 109.6 214.271 115.77 219.441 119.24" fill="white"/>
<path d="M220.841 128.49L236.451 124.39C235.931 121.25 238.411 118.91 238.411 118.91C243.321 115.39 246.571 109.4 246.571 103.11C246.571 93.24 238.571 85.23 228.691 85.23C218.821 85.23 210.811 93.23 210.811 103.11C210.811 109.6 214.271 115.77 219.441 119.24" stroke="#2F2E41" stroke-width="2" stroke-miterlimit="10" stroke-linecap="round" stroke-linejoin="round"/>
<path d="M236.441 129.67L220.831 133.77" stroke="#2F2E41" stroke-width="2" stroke-miterlimit="10" stroke-linecap="round" stroke-linejoin="round"/>
<path d="M223.9 138.61C225.11 139.54 226.61 140.09 228.25 140.09C229.89 140.09 231.39 139.53 232.6 138.61" stroke="#2F2E41" stroke-width="2" stroke-miterlimit="10" stroke-linecap="round" stroke-linejoin="round"/>
<path d="M228.641 72.6799V77.6799" stroke="#F55681" stroke-width="2" stroke-miterlimit="10" stroke-linecap="round" stroke-linejoin="round"/>
<path d="M204.48 82.73L208.02 86.26" stroke="#F55681" stroke-width="2" stroke-miterlimit="10" stroke-linecap="round" stroke-linejoin="round"/>
<path d="M197.26 106.91H202.26" stroke="#F55681" stroke-width="2" stroke-miterlimit="10" stroke-linecap="round" stroke-linejoin="round"/>
<path d="M207.301 128.3L210.841 124.77" stroke="#F55681" stroke-width="2" stroke-miterlimit="10" stroke-linecap="round" stroke-linejoin="round"/>
<path d="M250.121 128.24L246.591 124.71" stroke="#F55681" stroke-width="2" stroke-miterlimit="10" stroke-linecap="round" stroke-linejoin="round"/>
<path d="M260.101 106.82H255.101" stroke="#F55681" stroke-width="2" stroke-miterlimit="10" stroke-linecap="round" stroke-linejoin="round"/>
<path d="M252.821 82.6599L249.291 86.1999" stroke="#F55681" stroke-width="2" stroke-miterlimit="10" stroke-linecap="round" stroke-linejoin="round"/>
<path d="M228.251 112.26C232.779 112.26 236.451 108.414 236.451 103.67C236.451 98.9257 232.779 95.0798 228.251 95.0798C223.722 95.0798 220.051 98.9257 220.051 103.67C220.051 108.414 223.722 112.26 228.251 112.26Z" fill="#F55681"/>
<path d="M148 102.5L141.25 106.397L141.25 98.6029L148 102.5Z" fill="#E0E0E0"/>
<path d="M31.6996 116.317C28.309 116.317 25.5819 113.592 25.5819 110.203V97.9018C25.5819 96.5023 26.7612 95.3237 28.1616 95.3237C29.5621 95.3237 30.7414 96.5023 30.7414 97.9018V110.203C30.7414 110.719 31.1836 111.161 31.6996 111.161C32.2155 111.161 32.6578 110.719 32.6578 110.203V97.9018C32.6578 94.7344 30.078 92.1563 26.9086 92.1563C23.7392 92.1563 21.1595 94.7344 21.1595 97.9018V113.739C21.1595 115.139 19.9802 116.317 18.5797 116.317C17.1793 116.317 16 115.139 16 113.739V97.9018C16 91.8616 20.8647 87 26.9086 87C32.9526 87 37.8172 91.8616 37.8172 97.9018V110.203C37.8172 113.518 35.0901 116.317 31.6996 116.317Z" fill="white"/>
<path d="M45.188 116.317C43.7875 116.317 42.6082 115.139 42.6082 113.739V94.7344C42.6082 93.3348 41.5026 92.1563 40.0285 92.1563C38.628 92.1563 37.4487 90.9777 37.4487 89.5781C37.4487 88.1786 38.7017 87 40.1022 87C44.3772 87 47.8414 90.4621 47.8414 94.7344V113.739C47.7677 115.139 46.6621 116.317 45.188 116.317Z" fill="white"/>
</svg>
