<?xml version="1.0" encoding="utf-8"?>
<!-- Generator: Adobe Illustrator 24.1.3, SVG Export Plug-In . SVG Version: 6.00 Build 0)  -->
<svg version="1.1" id="图层_1" xmlns="http://www.w3.org/2000/svg" xmlns:xlink="http://www.w3.org/1999/xlink" x="0px" y="0px"
	 viewBox="0 0 200 48" style="enable-background:new 0 0 200 48;" xml:space="preserve">
<style type="text/css">
	.st0{fill-rule:evenodd;clip-rule:evenodd;fill:#C8CDD6;}
	.st1{fill:#C8CDD6;}
</style>
<path class="st0" d="M74.2,23.4L59.5,8.7v10.8L45,30.3l14.5,0v7.8L74.2,23.4z"/>
<path class="st0" d="M22.6,23.4l14.6,14.7V27.5l14.4-10.8l-14.4,0v-8L22.6,23.4z"/>
<path class="st1" d="M96.7,32.1H85.4v-3.2l6.4-7.2h-6.3v-3.2h10.9v3.1l-6.6,7.3h6.7V32.1z"/>
<path class="st1" d="M112,18.4l-5.4,5.7l5.5,7.9h-4.5l-3.6-5.2l-1.5,1.6v3.6h-3.7V12h3.7v11.5l4.7-5.1L112,18.4L112,18.4z"/>
<path class="st1" d="M127.9,17.1l-3.4,1.1c-0.1-0.7-0.5-1.3-1-1.9c-0.6-0.6-1.4-0.9-2.5-0.9c-0.9,0-1.6,0.3-2.2,0.7
	c-0.6,0.5-0.9,1.1-0.9,1.7c0,1.2,0.7,1.9,2.1,2.2l2.7,0.5c1.7,0.3,3.1,1,4,2.1c1,1.1,1.4,2.3,1.4,3.7c0,1.6-0.6,3-1.9,4.3
	c-1.3,1.2-3,1.8-5.1,1.8c-1.2,0-2.3-0.2-3.3-0.6s-1.8-0.9-2.4-1.5c-0.6-0.6-1.1-1.3-1.4-2c-0.3-0.7-0.5-1.4-0.6-2.2l3.5-0.9
	c0.1,1.1,0.5,1.9,1.2,2.6c0.7,0.7,1.8,1.1,3.1,1.1c1,0,1.8-0.2,2.3-0.7c0.6-0.4,0.9-1,0.9-1.7c0-0.6-0.2-1.1-0.6-1.5
	c-0.4-0.4-1-0.7-1.7-0.9l-2.7-0.6c-1.6-0.3-2.8-1-3.7-2c-0.9-1-1.4-2.2-1.4-3.7c0-1.7,0.7-3.2,2-4.4c1.3-1.2,2.9-1.8,4.8-1.8
	c1.1,0,2.1,0.2,3,0.5c0.9,0.3,1.6,0.7,2.1,1.3c0.5,0.5,0.9,1.1,1.2,1.6C127.6,15.9,127.8,16.5,127.9,17.1z"/>
<path class="st1" d="M134.4,37.4h-3.9l3.2-7.1l-5.8-11.9h4.1l3.6,8l3.3-8h3.9L134.4,37.4z"/>
<path class="st1" d="M148,24.2v7.8h-3.7V18.4h3.6v1.7c0.4-0.7,0.9-1.2,1.7-1.5c0.7-0.4,1.5-0.5,2.3-0.5c1.6,0,2.8,0.5,3.6,1.5
	c0.8,1,1.3,2.3,1.3,3.9v8.6H153v-7.9c0-0.8-0.2-1.5-0.6-2c-0.4-0.5-1-0.7-1.9-0.7c-0.8,0-1.4,0.3-1.8,0.8
	C148.2,22.7,148,23.4,148,24.2z"/>
<path class="st1" d="M165.7,21.4c-1,0-1.8,0.3-2.5,1c-0.7,0.7-1,1.6-1,2.8c0,1.2,0.3,2.1,1,2.8c0.7,0.7,1.5,1,2.5,1
	c0.9,0,1.6-0.2,2.1-0.7c0.5-0.5,0.9-1,1-1.6l3.2,1.1c-0.3,1.3-1,2.3-2.2,3.2c-1.1,0.9-2.5,1.4-4.2,1.4c-2,0-3.7-0.7-5.1-2
	c-1.4-1.4-2-3.1-2-5.2c0-2.1,0.7-3.8,2-5.2c1.4-1.4,3-2,5-2c1.7,0,3.1,0.4,4.2,1.4c1.1,0.9,1.8,2,2.1,3.2l-3.3,1.1
	C168.2,22.2,167.2,21.4,165.7,21.4z"/>
</svg>
