<svg width="150" height="30" viewBox="0 0 150 30" fill="none" xmlns="http://www.w3.org/2000/svg">
<g clip-path="url(#clip0_644_9505)">
<path fill-rule="evenodd" clip-rule="evenodd" d="M51.6004 14.7L36.9004 0V10.8L22.4004 21.6H36.9004V29.4L51.6004 14.7Z" fill="#C8CDD6"/>
<path fill-rule="evenodd" clip-rule="evenodd" d="M0 14.7L14.6 29.4V18.8L29 8H14.6V0L0 14.7Z" fill="#C8CDD6"/>
<path d="M74.1008 23.3998H62.8008V20.1998L69.2008 12.9998H62.9008V9.7998H73.8008V12.8998L67.2008 20.1998H73.9008V23.3998H74.1008Z" fill="#C8CDD6"/>
<path d="M89.3992 9.6998L83.9992 15.3998L89.4992 23.2998H84.9992L81.3992 18.0998L79.8992 19.6998V23.2998H76.1992V3.2998H79.8992V14.7998L84.5992 9.6998H89.3992Z" fill="#C8CDD6"/>
<path d="M105.301 8.3999L101.901 9.4999C101.801 8.7999 101.401 8.1999 100.901 7.5999C100.301 6.9999 99.5008 6.6999 98.4008 6.6999C97.5008 6.6999 96.8008 6.9999 96.2008 7.3999C95.6008 7.8999 95.3008 8.4999 95.3008 9.0999C95.3008 10.2999 96.0008 10.9999 97.4008 11.2999L100.101 11.7999C101.801 12.0999 103.201 12.7999 104.101 13.8999C105.101 14.9999 105.501 16.1999 105.501 17.5999C105.501 19.1999 104.901 20.5999 103.601 21.8999C102.301 23.0999 100.601 23.6999 98.5008 23.6999C97.3008 23.6999 96.2008 23.4999 95.2008 23.0999C94.2008 22.6999 93.4008 22.1999 92.8008 21.5999C92.2008 20.9999 91.7008 20.2999 91.4008 19.5999C91.1008 18.8999 90.9008 18.1999 90.8008 17.3999L94.3008 16.4999C94.4008 17.5999 94.8008 18.3999 95.5008 19.0999C96.2008 19.7999 97.3008 20.1999 98.6008 20.1999C99.6008 20.1999 100.401 19.9999 100.901 19.4999C101.501 19.0999 101.801 18.4999 101.801 17.7999C101.801 17.1999 101.601 16.6999 101.201 16.2999C100.801 15.8999 100.201 15.5999 99.5008 15.3999L96.8008 14.7999C95.2008 14.4999 94.0008 13.7999 93.1008 12.7999C92.2008 11.7999 91.7008 10.5999 91.7008 9.0999C91.7008 7.3999 92.4008 5.8999 93.7008 4.6999C95.0008 3.4999 96.6008 2.8999 98.5008 2.8999C99.6008 2.8999 100.601 3.0999 101.501 3.3999C102.401 3.6999 103.101 4.0999 103.601 4.6999C104.101 5.1999 104.501 5.7999 104.801 6.2999C105.001 7.1999 105.201 7.7999 105.301 8.3999Z" fill="#C8CDD6"/>
<path d="M111.801 28.7002H107.901L111.101 21.6002L105.301 9.7002H109.401L113.001 17.7002L116.301 9.7002H120.201L111.801 28.7002Z" fill="#C8CDD6"/>
<path d="M125.399 15.4999V23.2999H121.699V9.6999H125.299V11.3999C125.699 10.6999 126.199 10.1999 126.999 9.8999C127.699 9.4999 128.499 9.3999 129.299 9.3999C130.899 9.3999 132.099 9.8999 132.899 10.8999C133.699 11.8999 134.199 13.1999 134.199 14.7999V23.3999H130.399V15.4999C130.399 14.6999 130.199 13.9999 129.799 13.4999C129.399 12.9999 128.799 12.7999 127.899 12.7999C127.099 12.7999 126.499 13.0999 126.099 13.5999C125.599 13.9999 125.399 14.6999 125.399 15.4999Z" fill="#C8CDD6"/>
<path d="M143.1 12.6998C142.1 12.6998 141.3 12.9998 140.6 13.6998C139.9 14.3998 139.6 15.2998 139.6 16.4998C139.6 17.6998 139.9 18.5998 140.6 19.2998C141.3 19.9998 142.1 20.2998 143.1 20.2998C144 20.2998 144.7 20.0998 145.2 19.5998C145.7 19.0998 146.1 18.5998 146.2 17.9998L149.4 19.0998C149.1 20.3998 148.4 21.3998 147.2 22.2998C146.1 23.1998 144.7 23.6998 143 23.6998C141 23.6998 139.3 22.9998 137.9 21.6998C136.5 20.2998 135.9 18.5998 135.9 16.4998C135.9 14.3998 136.6 12.6998 137.9 11.2998C139.3 9.8998 140.9 9.2998 142.9 9.2998C144.6 9.2998 146 9.6998 147.1 10.6998C148.2 11.5998 148.9 12.6998 149.2 13.8998L145.9 14.9998C145.6 13.4998 144.6 12.6998 143.1 12.6998Z" fill="#C8CDD6"/>
</g>
<defs>
<clipPath id="clip0_644_9505">
<rect width="149.4" height="29.4" fill="white"/>
</clipPath>
</defs>
</svg>
