<?xml version="1.0" encoding="utf-8"?>
<!-- Generator: Adobe Illustrator 24.1.3, SVG Export Plug-In . SVG Version: 6.00 Build 0)  -->
<svg version="1.1" id="图层_1" xmlns="http://www.w3.org/2000/svg" xmlns:xlink="http://www.w3.org/1999/xlink" x="0px" y="0px"
	 viewBox="0 0 630 552" style="enable-background:new 0 0 630 552;" xml:space="preserve">
<style type="text/css">
	.st0{fill:#FFFFFF;stroke:#E0E0E0;}
	.st1{fill:#E0E0E0;stroke:#E0E0E0;}
	.st2{fill:none;stroke:#E0E0E0;stroke-linecap:round;stroke-linejoin:round;stroke-miterlimit:10;}
	.st3{fill:#2F2E41;}
	.st4{fill:#21202F;}
	.st5{fill:#A0616A;stroke:#864B53;stroke-linejoin:round;stroke-miterlimit:10;}
	.st6{fill:#864B53;}
	.st7{fill:#A0616A;}
	.st8{fill:#FF4480;}
	.st9{fill:#FFFFFF;}
	.st10{fill:#E6E6E6;}
	.st11{fill:#D44E72;}
	.st12{fill:none;stroke:#864B53;stroke-linecap:round;stroke-linejoin:round;stroke-miterlimit:10;}
	.st13{fill:#FFFFFF;stroke:#E6E6E6;}
	.st14{fill:#515667;}
	.st15{fill:none;stroke:#FF4480;stroke-linejoin:round;stroke-miterlimit:10;}
	.st16{fill:#FFB8B8;}
	.st17{fill:#E0E0E0;}
	.st18{fill:#FAA5A5;}
	.st19{fill:#FFFFFF;stroke:#E0E0E0;stroke-linejoin:round;stroke-miterlimit:10;}
	.st20{fill:none;stroke:#FAA5A5;stroke-linecap:round;stroke-linejoin:round;stroke-miterlimit:10;}
	.st21{fill:none;stroke:#FFFFFF;stroke-width:2;stroke-linecap:round;stroke-linejoin:round;stroke-miterlimit:10;}
	.st22{fill:#E6E6E6;stroke:#E0E0E0;stroke-linejoin:round;stroke-miterlimit:10;}
	.st23{fill:none;stroke:#FFFFFF;stroke-linecap:round;stroke-linejoin:round;stroke-miterlimit:10;}
	.st24{fill:none;stroke:#FFFFFF;stroke-width:2;stroke-linecap:round;stroke-miterlimit:10;}
	.st25{fill:#FF4480;}
</style>
<path class="st0" d="M409,228.1h-0.4c-4.1-0.2-7.3-3.6-7.3-7.7v-68.9c0-2.7,2.2-4.9,4.9-4.9h61.5c4.3,0,7.7,3.5,7.7,7.7v16.2h-13.7
	c-0.6,0-1,0.4-1,1v49c0,4.2-3.4,7.7-7.7,7.7H409z"/>
<path class="st1" d="M475.4,170.9h0.5v0h-14.2h-0.1c0,0,0.1,0,0.1,0H475.4z M460,224.7c-1.4,2.3-4,3.9-7,3.9H409
	c-4.5,0-8.2-3.7-8.2-8.2v-68.9c0-2,1-3.7,2.6-4.7c-1.6,1-2.6,2.7-2.6,4.6v68.9c0,4.5,3.7,8.2,8.2,8.2h44.1
	C456,228.6,458.6,227,460,224.7z M468.1,146.1L468.1,146.1c2.7,0.2,5,1.6,6.4,3.7C473.1,147.6,470.8,146.2,468.1,146.1z"/>
<path class="st1" d="M461.7,171.4V154c0-4,3.2-7.2,7.2-7.2h0.2c4,0,7.2,3.2,7.2,7.2v17.4H461.7z"/>
<path class="st1" d="M461.2,154c0-1.9,0.7-3.6,1.8-5C461.9,150.4,461.2,152.1,461.2,154l0,17.4v0.1c0,0,0-0.1,0-0.1V154z"/>
<path class="st1" d="M399.2,229.1c-4.8,0-8.7-3.9-8.7-8.7v-17.2h53.8v17.2c0,4.8,3.9,8.7,8.7,8.7H399.2z"/>
<path class="st1" d="M453,228.6v0.5v0.5c0.3,0,0.5-0.2,0.5-0.5S453.3,228.6,453,228.6z M453,228.6c-4.5,0-8.2-3.7-8.2-8.2
	C444.8,224.9,448.4,228.6,453,228.6z"/>
<path class="st2" d="M412,159.1h26.3"/>
<path class="st2" d="M412,171.4h26.3"/>
<path class="st2" d="M412,183.8h26.3"/>
<path class="st2" d="M412,196.1h26.3"/>
<path class="st2" d="M450.1,156.1h-4.4v4.4h4.4V156.1z"/>
<path class="st2" d="M446.6,157.8l1.3,0.9l5.1-3.8"/>
<path class="st2" d="M450.1,168.6h-4.4v4.4h4.4V168.6z"/>
<path class="st2" d="M446.6,170.3l1.3,0.9l5.1-3.8"/>
<path class="st2" d="M450.1,181.2h-4.4v4.4h4.4V181.2z"/>
<path class="st2" d="M446.6,182.8l1.3,0.9l5.1-3.8"/>
<path class="st2" d="M450.1,193.7h-4.4v4.4h4.4V193.7z"/>
<path class="st2" d="M446.6,195.4l1.3,0.9l5.1-3.8"/>
<path class="st3" d="M211.2,268.8c0.2-0.5,0.4-1.1,0.6-1.7c3.1-3.9,5-8.8,4.8-13.9c-0.4-9.6-6.2-18.1-14.8-21.5
	c0-0.9-0.1-1.8-0.5-2.6c0-0.1,0-0.1,0-0.2c-0.4-9.2-7.5-17-17-17c-2.3,0-4.6,0.5-6.7,1.5c-0.6-0.1-1.1-0.2-1.8-0.2
	c-0.2,0-0.3,0-0.5,0c-0.5-1.3-1.7-2.3-3.5-2.3c0,0-0.1,0-0.1,0c-0.8-8.8-7.7-16.1-16.9-16.1c-7.8,0-15.2,6-16.7,13.6
	c-1.7-0.6-3.5-1-5.5-1c-5.3,0-10.5,3-13.5,7.4c-0.2,0.1-0.4,0.3-0.5,0.4c-0.8,0.8-1.1,1.8-1.1,2.8c-0.6,1.7-1,3.5-0.9,5.4
	c0,0.3,0.1,0.6,0.1,0.9c-1.7,0.5-2.8,1.7-3.5,3.2c-2-1.5-4.7-2.5-7.9-2.5c-14.5,0-16.9,18.8-7.2,25c-0.7,2.4-0.8,4.9-0.2,7.4
	c-2.8,2.1-4.6,5.4-4.6,9.9c0,8,2.5,15.5,6.5,22.4c3.3,5.7,7.5,12,12.3,16.5c7.7,7.2,18.7,8.5,27.4,4.4c3.2,2.8,6.4,5.5,9.6,8.3
	c1.3,1.1,2.8,1.8,4.4,2c0.4,2.9,2.4,5.6,6.2,5.6c5.1,0,7.1-4.9,5.9-8.7c4.1,0.1,8.3-0.6,12.6-2.2c8.8-3.2,15.4-6.9,18.8-16.1
	c0.6-1.7,0.8-3.4,0.6-5.2c0.3-0.3,0.5-0.6,0.7-1c1.7,0.7,3.5,1.1,5.5,1.1c7.6,0,14-6.4,14-14C217.6,275.6,215,271.3,211.2,268.8z"/>
<path class="st4" d="M217.5,278.6c-0.4,1-0.7,2-1.1,2.9c-2.2,5.8-9,9.4-15,8c-1.6-0.3-3.1-1-4.7-0.9c-4.2,0.2-6.4,5-8.2,8.8
	c-1.7,3.6-3.9,7.2-7.4,9.4c-3.4,2.1-8.2,2.5-11.3,0c-3.6-2.9-3.9-8.1-5.2-12.5c-1.9-7-7-13.1-13.5-16.3c-6.5-3.2-14.4-3.6-21.2-0.8
	c-0.4,2.4,1.9,4.4,3,6.5c1.8,3.4,0.6,7.9-2.2,10.5c-2.8,2.6-6.9,3.6-10.8,3.2c-8.1-0.7-15.1-6.8-18-14.3c-2.9-7.5-2.1-16.2,1-23.6
	c1.5-3.5,3.5-7.2,2.3-10.8c-0.7-2.1-2.5-3.7-3.8-5.6c-2.4-3.6-2.7-8.4-0.9-12.3c0.8-1.7,2-3.2,3.5-4.4c0.5-0.4,1.5-0.8,2.2-1.3
	c-0.4,0-0.8-0.1-1.3-0.1c-14.5,0-16.9,18.8-7.2,25c-0.7,2.4-0.8,4.9-0.2,7.4c-2.8,2.1-4.6,5.4-4.7,9.9c0,8,2.5,15.5,6.5,22.4
	c3.3,5.7,7.4,12,12.3,16.5c7.7,7.2,18.7,8.5,27.4,4.4c3.2,2.8,6.4,5.5,9.7,8.3c1.3,1.1,2.8,1.8,4.4,2c0.4,2.9,2.4,5.6,6.2,5.6
	c5.1,0,7.1-4.9,5.9-8.7c4.1,0.1,8.3-0.6,12.6-2.2c8.8-3.2,15.5-6.9,18.8-16.1c0.6-1.7,0.8-3.4,0.6-5.2c0.3-0.3,0.5-0.6,0.7-1
	c1.7,0.7,3.5,1.1,5.4,1.1c7.6,0,14-6.4,14-14C217.6,279.9,217.6,279.2,217.5,278.6z"/>
<path class="st5" d="M139.9,291.4c0,0,1.9,21.4-2.7,28.7c-4.5,7.2-20.5,7.4-25.3,6.4c0,0,8.8,30.3,36.9,35.1
	c28,4.8,43.4-13.9,40.7-20.4c-2.8-6.6-16.9-5.2-21-13.9c-4-8.6,0.8-16.5,0.8-16.5L139.9,291.4z"/>
<path class="st6" d="M168.5,327.3c-4-8.6,0.8-16.5,0.8-16.5l-28.1-17.4c0.3,1.7,2,3.8,2.6,5.1c1.4,3,1.9,6.4,3.1,9.5
	c3,7.3,10.2,11.9,15.9,17.4c2.4,2.3,4.6,4.8,7.2,6.8c2.7,2,5.9,3.4,9.2,3c0.2,0,0.4-0.1,0.6-0.1
	C175.3,333.5,170.6,331.8,168.5,327.3z"/>
<path class="st7" d="M168.2,316.4c-4.7-0.6-17.1-8.2-22.8-14.7c-2.7-3.1-3.8-6.2-4.6-8.5c-0.1-0.4-0.3-0.8-0.4-1.2
	c-1-2.8-0.9-6.4-0.8-7.9c0-0.2-0.1-0.4-0.3-0.5c-2-0.7-4.2-1.5-6-3c-3.5-2.9-5.8-8.1-3.4-12.3c1.2-2.1,3.4-3.2,5.9-3.2
	c2.2,0,4.4,0.8,6,2.3c0.5,0.5,1,1,1.5,1.7c0.1,0.1,0.2,0.2,0.4,0.2h0c0.2,0,0.3-0.1,0.4-0.2c2.4-3.6,5.8-6.5,10-8.5
	c0.1-0.1,0.2-0.2,0.3-0.3l0.5-1.7c0.2-0.6,0.4-1.4,0.7-2.2c0-0.1,0-0.1,0-0.2c0-0.9,0.3-1.8,0.9-2.6c0,0,0.1-0.1,0.1-0.1
	c0.3-0.7,0.9-1.2,1.7-1.6c1-0.5,1.9-0.8,3-0.8c2.9,0,5.6,2.1,8.1,4.1l0.7,0.5c2,1.5,3.7,2.3,5.1,2.3c1.1,0,2-0.4,2.8-1.2
	c0.4-0.4,0.7-1.1,1-1.8c0.2-0.5,0.5-1.1,0.7-1.4c0.5-0.7,0.9-1.1,1.5-1.4l0.1-0.1c0.1-0.1,0.4-0.2,0.4-0.2c0.1,0,0.1-0.1,0.1-0.1
	c0.1,0,0.1,0,0.2-0.1l0.2-0.1c0.4-0.2,0.9-0.3,1.4-0.4c0.3,0,0.6-0.1,0.8-0.1c4,0,6.8,4.9,8,9.1c0.9,3.2,0.9,6.6,0.1,10.5
	c-0.2,1-0.7,2-1.2,3c-0.6,1.2-1.2,2.5-1.4,3.7c-0.1,0.3,0.1,1.1,1.2,5.3c0.2,0.9,0.5,1.7,0.5,1.9c0.6,4.1,0.4,6.7-8.2,19.1
	C179.6,309.8,173.8,314.5,168.2,316.4z"/>
<path class="st6" d="M161.4,250.8v1c2.7,0,5.3,2,7.8,4l0.7,0.5c2.1,1.6,3.9,2.4,5.4,2.4c1.2,0,2.3-0.5,3.2-1.4
	c0.5-0.5,0.8-1.2,1.1-1.9c0.2-0.5,0.4-1,0.6-1.3c0.5-0.6,0.9-1,1.4-1.3c0,0,0.1,0,0.1,0c0.1-0.1,0.2-0.1,0.3-0.1
	c0.1,0,0.1-0.1,0.1-0.1c0,0,0.1,0,0.1-0.1c0.1,0,0.1,0,0.2-0.1l0.1,0l0.1,0c0.4-0.2,0.8-0.3,1.2-0.3c0,0,0,0,0.1,0
	c0.2,0,0.5-0.1,0.7-0.1c3.7,0,6.4,4.7,7.5,8.7c0.9,3.1,0.9,6.4,0.1,10.3c-0.2,0.9-0.7,1.9-1.2,2.9c-0.6,1.2-1.2,2.5-1.4,3.8
	c-0.1,0.4,0,1,1.2,5.6c0.2,0.8,0.4,1.7,0.5,1.8c0.5,3.7,0.8,5.9-8.1,18.8c-3.8,5.5-9.5,10.1-14.9,12.1c-4.6-0.7-16.8-8.2-22.4-14.5
	c-2.6-3-3.7-6.1-4.5-8.3c-0.1-0.4-0.3-0.8-0.4-1.2c-1-2.7-0.9-6.3-0.8-7.7c0-0.5-0.2-0.9-0.7-1c-2-0.7-4.1-1.4-5.9-2.9
	c-3.3-2.7-5.6-7.7-3.2-11.6c1.5-2.6,4.1-3,5.5-3c2.1,0,4.2,0.8,5.7,2.1c0.5,0.5,1,1,1.4,1.6c0.2,0.3,0.5,0.4,0.8,0.4c0,0,0,0,0,0
	c0.3,0,0.6-0.2,0.8-0.4c2.4-3.5,5.7-6.3,9.8-8.3c0.3-0.1,0.5-0.4,0.5-0.6l0.2-0.9l0.2-0.8c0.2-0.9,0.5-1.5,0.7-2.1
	c0.1-0.1,0.1-0.3,0.1-0.4c0-0.8,0.3-1.6,0.8-2.2c0.1-0.1,0.1-0.1,0.1-0.2c0.3-0.6,0.8-1,1.4-1.4c0.9-0.5,1.8-0.7,2.7-0.7
	L161.4,250.8z M161.4,250.8c-1,0-2.1,0.2-3.2,0.8c-0.9,0.5-1.5,1.1-1.9,1.8c-0.8,0.9-1.1,1.9-1.1,2.9c-0.3,0.7-0.5,1.5-0.7,2.2
	c-0.2,0.6-0.3,1.1-0.5,1.7c-4.1,2-7.6,4.8-10.2,8.7c-0.5-0.6-1-1.2-1.6-1.8c-1.7-1.5-4.1-2.4-6.4-2.4c-2.5,0-4.9,1-6.4,3.4
	c-2.7,4.4-0.1,10,3.5,12.9c1.9,1.5,4,2.4,6.2,3.1c-0.1,2.2-0.1,5.5,0.9,8.1c0.9,2.4,1.8,6.1,5.1,9.8c5.8,6.6,18.6,14.4,23.3,14.9
	c5.7-2,11.7-6.9,15.6-12.5c8.8-12.8,8.8-15.4,8.3-19.5c-0.1-0.5-1.8-6.7-1.7-7c0.3-2.2,2.1-4.5,2.6-6.7c0.8-3.6,0.9-7.1-0.1-10.8
	c-1.2-4.1-4.1-9.5-8.5-9.5c-0.3,0-0.6,0-0.9,0.1c-0.5,0.1-1,0.2-1.5,0.4c-0.1,0-0.1,0.1-0.2,0.1c-0.1,0-0.1,0-0.2,0.1
	c-0.1,0.1-0.2,0.1-0.3,0.2c-0.1,0.1-0.2,0.1-0.3,0.2c0,0-0.1,0.1-0.1,0.1c-0.6,0.4-1,0.8-1.6,1.5c-0.6,0.8-1,2.5-1.6,3.1
	c-0.7,0.8-1.6,1.1-2.4,1.1c-1.7,0-3.6-1.2-4.8-2.2C167.7,253.4,164.7,250.8,161.4,250.8z"/>
<path class="st8" d="M138.9,289.4c2.5,0,4.6,2.1,4.6,4.6s-2,4.6-4.6,4.6s-4.6-2.1-4.6-4.6S136.4,289.4,138.9,289.4z M138.9,288.4
	c-3.1,0-5.6,2.5-5.6,5.6c0,3.1,2.5,5.6,5.6,5.6s5.6-2.5,5.6-5.6C144.5,290.9,142,288.4,138.9,288.4z"/>
<path class="st7" d="M190.2,464.8c-15.6,0-32.3-11.7-34.7-13.5l44.5-106.2h6.8c1.8,2.8,20,32.4,11.2,88.1
	C214.5,454.1,205.2,464.8,190.2,464.8z"/>
<path class="st6" d="M206.4,345.6c2.4,3.8,19.5,33.1,10.9,87.5c-3.3,20.7-12.4,31.2-27.1,31.2c-14.8,0-30.8-10.8-34.1-13.1
	l44.2-105.6H206.4z M207,344.6h-7.4l-44.8,106.9c0,0,18.2,13.8,35.3,13.8c12.4,0,24.2-7.2,28.1-32C227.7,374,207,344.6,207,344.6z"
	/>
<path class="st9" d="M32.8,500.9c0,0-26.1,20-23.5,49.4h171.3v-74.5L32.8,500.9z"/>
<path class="st10" d="M9.3,550.2h9.9c0.4-3.6,2-14.6,8.7-21.1c1.3-1.3,3.1-2.2,5-2.4c12.5-1.4,18.4-14.4,18.4-14.4
	s-7.2-6.2-14.2-12.2l-4.3,0.7C32.8,500.9,6.6,520.9,9.3,550.2z"/>
<path class="st8" d="M200.7,362.8c1.3-6.6,3.4-12.9,6.3-18.2c0,0-3.9-5.7-18.7-6.9l0,0c-0.2-0.1-3.8-1.6-7.9-2.9
	c0.1,0.5,21,11.7-5.4,24.2c-5.2,2.5-33,2.2-43.4-7.1c-6.4-5.8-10.1-10.1-12.7-20.4l-0.6-5.1c-8.5-0.3-19.1-2.4-32-0.6
	c-4,0.5-6.4,10.4-10.8,11.8c-19,6.1-81,83.6-53.2,119.6c4.8,6.2,5.2,15.2,27,5.3c-3.9,14.6-9.2,29.2-16.4,38.4
	c0,0,14.5,23.3,87.5,23.2c38-0.1,57.9-30,68.3-58.8c9.6-26.5,11-52,11-52s-2-14.2-1.2-30.9C198.7,376,199.3,369.3,200.7,362.8z"/>
<path class="st11" d="M177.5,383.1c-4.2,1.5-23.3,16.9-36.2,19.1c-12.9,2.3-78.4,43.4-69.7,19.5c8.7-23.9,23.3-46.6,27.2-58
	l-13.6-10.6l-37.3,8.9c-6.2,7.6-12.4,16.5-17.8,25.9l-2.7,29.2c0,0-5.5,17.5-9.4,32.9c1.1,2.5,2.4,4.9,4.1,7.1
	c4.8,6.2,5.2,15.2,27,5.3c-3.9,14.6-9.2,29.2-16.4,38.4c0,0,4.4,7.1,20.4,13.4c-4-3.1-4.3-7.6-4.7-11.7c-0.8-6.6-12.7-6,1.9-23.5
	s39.2-27.7,57.5-43.1c18.2-15.4,42.6-29.1,51.3-34.6c8.7-5.5,24.4-7.4,33.9-12.9c2.4-1.4,4.1-2.4,5.2-3.1c0-1,0.1-2,0.1-3
	c0-1,0.1-2,0.2-3C193.3,379,180.8,381.9,177.5,383.1z"/>
<path class="st11" d="M65.3,518.1c1.5,0.4,3.1,0.8,4.8,1.2C69,518.8,67.4,518.4,65.3,518.1z"/>
<path class="st7" d="M15.9,473c-4.3,0-7.4-1.2-9.2-3.4c-7.4-9.6-8.2-24.3-2.3-43.4c13-41.9,55.4-93.7,68.9-98
	c4.2-1.4,8.5-2.3,12.8-2.9c1-0.1,1.9-0.2,2.9-0.2c10.2,0,12.4,8.3,13.1,11c0,0.2,0.1,0.4,0.1,0.5c2.3,7.6,1.2,21.6-6.5,34.5
	c-6.5,10.9-25.2,32.3-33.6,40.5c24.9-13.1,68.2-22.6,77-24.5c3-0.6,6.3-4,9.1-7.3c1.2-1.3,2.3-2.8,3.6-4.3c1.3-1.6,2.6-3.2,4-4.8
	c3.5-4,7.7-8.2,12.1-9.1c1.8-0.4,4.1-0.7,6.8-0.8c1.4-0.1,2.9-0.1,4.5-0.1c0.7,0,1.4,0,2.2,0c3.4,0.1,7.3,0.3,11.1,0.6
	c3,0.3,5.9,0.6,8.3,0.9c1.7,0.2,3.2,0.5,4,0.7c1.3,0.4,2.1,1,2.4,1.9c0.4,1.2-0.3,2.6-0.8,3.4c1,0.5,2.9,1.6,2.9,3.6
	c0,2.2-5.2,2.9-8.2,3.2c0.6,0.6,1.2,1.6,1.2,3.2c0,1.7-1.2,3.2-3.6,4.4c-2.7,1.3-6.3,1.9-7.7,2.1c0.2,0.7,0.1,1.3-0.2,1.9
	c-1,1.8-4.4,3.1-10,3.8c-2.8,0.4-5.4,0.5-6.2,0.5c-7.6,10.1-27.2,12.4-29.2,12.6C109.5,430,75.5,451.1,49.4,463
	C34.7,469.6,23.4,473,15.9,473z"/>
<path class="st6" d="M88.9,325.5c10.5,0,12.2,9.2,12.8,11.1c2.4,8,0.9,21.8-6.4,34.1c-7.7,12.8-32.9,41-37,43.5
	c24.2-14.4,72.4-24.9,80.9-26.7c3-0.6,6.1-3.7,9.4-7.4c2.4-2.8,5-6.1,7.6-9c3.8-4.4,7.8-8.1,11.8-9c1.9-0.4,4.2-0.7,6.7-0.8
	c1.4-0.1,2.9-0.1,4.5-0.1c0.7,0,1.4,0,2.1,0c3.7,0.1,7.6,0.3,11.1,0.6c3.2,0.3,6.1,0.6,8.3,0.9c1.8,0.3,3.2,0.5,3.9,0.7
	c4.2,1.1,1,5.1,1,5.1s3.1,1,3.1,3.3c0,2.3-9.1,2.8-9.1,2.8s2.1,0.8,2.1,3.6c0,1.8-1.5,3-3.4,4c-3.4,1.7-8.2,2.1-8.2,2.1
	c1.6,3.5-4.5,5-9.7,5.6c-3.4,0.4-6.4,0.5-6.4,0.5c-7.7,10.5-29.1,12.6-29.1,12.6c-36,26.5-70.4,47.6-95.9,59.3
	c-14.2,6.5-25.6,10-33.2,10c-4.1,0-7.1-1-8.8-3.2c-27.8-36.1,47.4-134.5,66.4-140.7c4.5-1.5,8.7-2.4,12.7-2.9
	C87.2,325.6,88.1,325.5,88.9,325.5z M88.9,324.5c-0.9,0-1.9,0.1-2.9,0.2c-4.3,0.6-8.7,1.6-12.8,2.9c-7,2.3-21.1,16.4-35,35
	C22.3,384.3,9.8,407.3,4,426c-6,19.3-5.2,34.1,2.4,43.9c1.9,2.4,5.1,3.6,9.6,3.6c7.6,0,19-3.4,33.7-10.1
	c26.1-11.9,60.2-32.9,95.9-59.2c2.6-0.3,21.6-2.7,29.2-12.6c1,0,3.4-0.1,6-0.5c5.9-0.7,9.3-2.1,10.4-4c0.2-0.4,0.4-1,0.4-1.7
	c1.7-0.3,4.8-0.9,7.3-2.1c2.6-1.3,3.9-2.9,3.9-4.9c0-1.2-0.3-2.1-0.8-2.8c3.6-0.4,7.8-1.3,7.8-3.6c0-1.9-1.5-3.1-2.7-3.8
	c0.5-0.9,0.9-2.1,0.5-3.3c-0.2-0.8-0.9-1.8-2.8-2.3c-0.9-0.2-2.3-0.5-4.1-0.8c-2.4-0.4-5.3-0.7-8.3-1c-3.9-0.3-7.7-0.6-11.2-0.6
	c-0.7,0-1.4,0-2.2,0c-1.6,0-3.1,0-4.5,0.1c-2.7,0.1-5,0.4-6.9,0.8c-4.5,1-8.8,5.2-12.3,9.3c-1.3,1.5-2.7,3.2-4,4.8
	c-1.2,1.5-2.4,2.9-3.6,4.2c-2.8,3.2-5.9,6.5-8.8,7.1c-8.5,1.8-49,10.8-74.3,23.1c9.3-9.6,25.8-28.9,31.4-38.4
	c7.8-13,8.9-27.2,6.5-34.9c0-0.1-0.1-0.3-0.1-0.5C100.5,328.4,95.9,324.5,88.9,324.5z"/>
<path class="st6" d="M62.4,412c8.6-8.2,27.1-30,33.6-40.5c7.7-12.5,9.1-27.1,6.7-35.1c-0.4-1.2-1.6-6.1-5.2-9
	c0,0,16.5,24.2-16.3,59.6c-30.1,32.5-38.2,37.6-37.1,36.8c0,0,6.6-5,13.7-9.4L62.4,412z"/>
<path class="st11" d="M129,459.8c0,0-78.4,29.8-73.5,36.8C57.7,499.7,70.5,506.3,129,459.8z"/>
<path class="st7" d="M205.6,368.6c0,0-12.9-1.8-22.9,0.8L205.6,368.6z"/>
<path class="st12" d="M205.6,368.6c0,0-12.9-1.8-22.9,0.8"/>
<path class="st7" d="M199.6,374.7c0,0-14.4-0.6-22.1,1.3L199.6,374.7z"/>
<path class="st12" d="M199.6,374.7c0,0-14.4-0.6-22.1,1.3"/>
<path class="st7" d="M190.2,384.5c0,0-10.6-1.1-17.5,1.7L190.2,384.5z"/>
<path class="st12" d="M190.2,384.5c0,0-10.6-1.1-17.5,1.7"/>
<path class="st6" d="M161.1,278.6c0.9,0,1.6-0.7,1.6-1.6s-0.7-1.6-1.6-1.6c-0.9,0-1.6,0.7-1.6,1.6S160.2,278.6,161.1,278.6z"/>
<path class="st6" d="M181.6,280c0.9,0,1.6-0.7,1.6-1.6c0-0.9-0.7-1.6-1.6-1.6c-0.9,0-1.6,0.7-1.6,1.6C180,279.3,180.7,280,181.6,280
	z"/>
<path class="st12" d="M155,269.8c2.9-1.8,7.3-1.9,10.4-0.3c0.8,0.4,1.6,1,1.8,1.7"/>
<path class="st12" d="M180,270.7c1.7-0.8,3.9-1,5.7-0.4c0.7,0.2,2.1,0.9,2.1,1.9"/>
<path class="st12" d="M173.5,290.8c1.4-0.7,2-1.2,2.5-1.8c0.3-0.3,0.5-0.6,0.5-1c0-0.4-0.2-0.7-0.4-1c-0.8-1.4-1.4-3-1.7-4.6
	c-0.5-2.4,0.3-4.9,1.5-6.9"/>
<path class="st6" d="M161.8,296.8c-1,0.2,3.7,4.8,7.4,5.5c3.6,0.7,5.3-1.1,5.4-2.1c0,0,1.5-0.4,1.2-1.8
	C175.5,297.1,171,294.9,161.8,296.8z"/>
<circle class="st13" cx="323.5" cy="47.5" r="47"/>
<path class="st14" d="M325,234c8.8,0,16-7.2,16-16s-7.2-16-16-16s-16,7.2-16,16S316.2,234,325,234z"/>
<path class="st9" d="M330.6,220.2c-0.1-0.3-0.3-0.6-0.5-0.9c-0.2-0.3-0.4-0.5-0.7-0.7c-0.3-0.2-0.6-0.4-0.9-0.6
	c0.7-0.3,1.2-0.7,1.6-1.3c0.4-0.5,0.6-1.1,0.6-1.8c0-0.6-0.1-1.2-0.4-1.7c-0.2-0.5-0.6-1-1-1.4c-0.4-0.4-0.9-0.7-1.5-0.9
	c-0.4-0.1-0.8-0.2-1.2-0.3h0.1v-1.9h-1.5v1.8l0.4,0h-1.4v-1.8h-1.5v1.8l-3.8,0v1.7h1.5v11.6H319v1.7h3.8v1.7h1.5v-1.7h1v1.7h1.5
	v-1.7h-0.6c0.6,0,1.2-0.1,1.8-0.3c0.6-0.2,1-0.6,1.5-1c0.4-0.4,0.7-0.9,1-1.4c0.2-0.5,0.4-1.1,0.4-1.8
	C330.8,220.8,330.7,220.5,330.6,220.2z M322.5,212.3h3.6c0.3,0,0.6,0.1,0.9,0.2c0.3,0.2,0.5,0.3,0.8,0.6c0.2,0.2,0.4,0.5,0.5,0.8
	c0.1,0.3,0.2,0.6,0.2,1c0,0.3-0.1,0.6-0.2,0.9c-0.1,0.3-0.3,0.5-0.5,0.7c-0.2,0.2-0.5,0.4-0.8,0.5c-0.3,0.1-0.6,0.2-0.9,0.2h-3.6
	L322.5,212.3L322.5,212.3z M328.4,222.2c-0.1,0.3-0.3,0.6-0.5,0.9c-0.2,0.3-0.5,0.5-0.7,0.6c-0.3,0.2-0.6,0.2-0.9,0.2h-3.7v-5h3.7
	c0.3,0,0.6,0.1,0.9,0.2c0.3,0.1,0.5,0.3,0.7,0.5c0.2,0.2,0.4,0.4,0.5,0.7c0.1,0.3,0.2,0.6,0.2,0.8
	C328.6,221.5,328.5,221.8,328.4,222.2z"/>
<path class="st8" d="M399.1,372.7c8.5,0,15.4-6.9,15.4-15.4c0-8.5-6.9-15.4-15.4-15.4s-15.4,6.9-15.4,15.4
	C383.7,365.8,390.6,372.7,399.1,372.7z"/>
<path class="st15" d="M399.1,388.6c17.2,0,31.2-14,31.2-31.2s-14-31.2-31.2-31.2c-17.2,0-31.2,14-31.2,31.2S381.9,388.6,399.1,388.6
	z"/>
<path class="st16" d="M493.6,367.7c-4.5,0-8.5-0.5-12.1-1.6c-8.2-2.4-22.4-12.9-28.5-17.4c-1.5-1.1-2.5-1.8-3-2.2
	c-0.3-0.2-0.5-0.8-0.6-1.5c-0.4-4.3,3.1-14.3,9.5-20.1c6.6-6,8.8-13.6,6.6-23.3c-1-4.6,20.2-15.7,35.1-22.2
	c0.6,4.6,4.9,30.3,19.3,37.1c5.8,2.7,9.1,5.3,9.7,7.8c0.5,1.7-0.5,3-1.1,3.9c-0.3,0.4-0.5,0.7-0.6,1c-1.4,4.3-12.3,35.1-18.2,36.4
	C505.9,366.6,499.9,367.7,493.6,367.7z"/>
<path class="st17" d="M500.3,280.2c0.9,6,5.4,30.2,19.4,36.8c7,3.3,9,5.9,9.5,7.5c0.4,1.5-0.4,2.6-1,3.5c-0.3,0.4-0.5,0.8-0.6,1.1
	c-1.9,6.1-12.6,34.9-17.8,36.1c-3.9,0.9-9.8,2-16.1,2c-4.4,0-8.4-0.5-12-1.6c-8.2-2.4-22.3-12.9-28.3-17.3c-1.5-1.1-2.5-1.8-3-2.2
	c-0.1,0-0.3-0.4-0.3-1.2c-0.4-4.2,3.1-14,9.3-19.6c6.6-6,8.9-14,6.8-23.8c-0.2-0.8,0.5-4.2,16.9-12.9
	C490.1,284.8,497.5,281.5,500.3,280.2z M501.1,278.8c0,0-37.5,16.2-36,23c1.5,6.8,1.5,15.5-6.5,22.8c-8,7.3-11.3,20.8-8.8,22.4
	c2.5,1.6,21.4,16.6,31.6,19.6c4,1.2,8.2,1.6,12.2,1.6c6.4,0,12.3-1.1,16.3-2c6.5-1.5,18.1-35.2,18.5-36.8c0.5-1.5,7.1-6.1-8.3-13.3
	C504.7,308.9,501.1,278.8,501.1,278.8z"/>
<path class="st18" d="M500.3,279.1c-5.4,2.4-36.6,16.4-35.2,22.6c1.5,6.8,1.5,15.5-6.5,22.8c-2.8,2.5-5,5.8-6.6,9.1
	c2.3,0.9,4.9,1.1,7.3,0.3c-0.9-2.2,0.2-4.9,1.9-6.6c1.8-1.7,4.1-2.6,6.3-3.7c8-3.9,14.6-10.1,20.2-17c4.6-5.6,8.6-11.9,10.7-18.9
	C499.3,285,499.9,282,500.3,279.1z"/>
<path class="st19" d="M627.8,461.2l-55.1,1.3c0,0,19.5,45.5,20,88.3h-187c0,0-27.4-42.6-21.5-89.1c4.9-38.2,12.4-79,23.8-101
	c10.4-19.9,25.2-30.9,50.6-36.2c0,0-1.2,22.9,12.2,27.5s40,0.9,49.3-35.9c0,0,20.3-5.7,37,3.4C573.8,328.6,637.6,397,627.8,461.2z"
	/>
<path class="st10" d="M418.4,534.9c8.5,3,33.4-3,21.1-14.5s-20.9-34.3-20.9-34.3s-15.9,28.8-17.4,31.3
	C399.7,520,409.8,531.9,418.4,534.9z"/>
<path class="st17" d="M553.4,446.4c9.9-16.1-7.3-63.5-7.3-63.5s0,44-17,75.8s-6,39.4,27.4,59.9c33.3,20.5-93,20.8-99.2,26.5
	c-1.8,1.7-2.6,3.7-2.7,5.7h138.1c-0.5-42.8-20-88.3-20-88.3l2.6-0.1C563.2,453.7,553.4,446.4,553.4,446.4z"/>
<path class="st16" d="M440.1,509.2c-0.3,0-0.5,0-0.8-0.1c-0.6-0.1-1.1-0.5-1.4-1.1c-1.1-2.1,0.2-6.2,0.2-6.2c0.1-0.1,0-0.3,0-0.4
	c-0.1-0.1-0.2-0.2-0.3-0.2c0,0-2.1-0.5-3.2-2.4c-0.9-1.7-0.8-4.1,0.4-7c2.8-7,13.5-27.7,25-30.8c1.8-0.5,3.8-0.7,6-0.7
	c3.2,0,6.6,0.5,10.1,1c3.8,0.6,7.8,1.1,12,1.1c3.7,0,7-0.5,10.2-1.4l2.5-0.7c15-4.5,50-14.9,77.9-14.9c0.9,0,1.8,0,2.7,0
	c27.1,0.7,39.8,9,41.7,10.4c-0.7,2.8-6.6,24-25.9,27.8c-6.7,1.3-19,2-36.3,2c-25.1,0-52.4-1.4-52.7-1.5c0,0,0,0,0,0
	c-0.1,0-0.2,0-0.2,0.1c-0.1,0-6.6,3.4-17.5,3.4c-2.4,0-4.9-0.2-7.4-0.5c0,0,0,0-0.1,0c-0.2,0-0.3,0.1-0.4,0.2
	c-0.1,0.1-6.4,9.4-15.9,9.4c-0.8,0-0.8-1.6-0.8-1.6c0-0.2-0.1-0.4-0.4-0.5c0,0-0.1,0-0.1,0c-0.2,0-0.3,0.1-0.4,0.2
	c0,0.1-4.5,6.6-8.9,6.6c-0.4,0-0.9-0.1-1.3-0.2c-2.5-0.8-1.8-5-1.8-5c0-0.2-0.1-0.5-0.3-0.6c-0.1,0-0.1,0-0.1,0
	c-0.2,0-0.4,0.1-0.5,0.3C451.8,496,445.7,509.2,440.1,509.2z"/>
<path class="st18" d="M578.5,444.8v1c0.9,0,1.8,0,2.7,0c25.9,0.6,38.6,8.3,41.2,10.1c-1,3.8-7,23.5-25.4,27.1
	c-6.7,1.3-18.9,2-36.3,2c-25.1,0-52.4-1.4-52.7-1.5c0,0,0,0-0.1,0c-0.2,0-0.3,0-0.5,0.1c-0.1,0-6.5,3.3-17.2,3.3
	c-2.4,0-4.9-0.2-7.4-0.5c0,0-0.1,0-0.1,0c-0.3,0-0.6,0.2-0.8,0.4c-0.1,0.1-6.2,9.1-15.5,9.1c-0.1-0.1-0.3-0.6-0.3-1.1
	c0-0.4-0.3-0.8-0.7-1c-0.1,0-0.2,0-0.3,0c-0.3,0-0.6,0.2-0.8,0.4c-1.2,1.8-5.1,6.4-8.5,6.4c-0.4,0-0.8-0.1-1.1-0.2
	c-2.1-0.7-1.5-4.4-1.5-4.5c0.1-0.5-0.2-1-0.7-1.1c-0.1,0-0.2,0-0.3,0c-0.4,0-0.7,0.2-0.9,0.6c-1.7,3.6-6.9,13-11.3,13
	c-0.2,0-0.5,0-0.7-0.1c-0.5-0.1-0.8-0.4-1.1-0.8c-0.9-1.6-0.1-4.7,0.2-5.8c0.1-0.3,0.1-0.6-0.1-0.8c-0.1-0.2-0.4-0.4-0.7-0.5
	c0,0-1.9-0.4-2.8-2.2c-0.8-1.6-0.7-3.8,0.4-6.6c3.5-8.7,14.2-27.7,24.7-30.5c1.8-0.5,3.7-0.7,5.9-0.7c3.2,0,6.5,0.5,10,1
	c3.9,0.6,7.8,1.2,12,1.2c3.7,0,7.1-0.5,10.4-1.4l2.5-0.7c14.9-4.5,49.9-14.9,77.7-14.9L578.5,444.8z M578.5,444.8
	c-29.5,0-66.4,11.5-80.5,15.6c-3.5,1-6.8,1.4-10.1,1.4c-7.9,0-15.3-2.2-22-2.2c-2.1,0-4.1,0.2-6.1,0.8c-11.1,3-21.9,22.4-25.4,31.1
	s3.2,10.1,3.2,10.1s-2.3,7,1.6,7.9c0.3,0.1,0.6,0.1,0.9,0.1c6,0,12.2-13.6,12.2-13.6s-0.8,4.6,2.2,5.6c0.5,0.1,0.9,0.2,1.4,0.2
	c4.7,0,9.3-6.9,9.3-6.9s0,2.1,1.3,2.1c9.9,0,16.3-9.6,16.3-9.6c2.7,0.4,5.2,0.5,7.5,0.5c11.1,0,17.7-3.5,17.7-3.5s27.3,1.5,52.7,1.5
	c14.7,0,28.7-0.5,36.4-2c21.2-4.2,26.3-28.5,26.3-28.5s-12.3-9.9-42.3-10.6C580.4,444.9,579.5,444.8,578.5,444.8z"/>
<path class="st18" d="M405.7,550.8h-29.3c0,0,1.9-42.6,7.8-89.1c8.2,3.2,21.3,5.7,41.8,4.2C426,465.9,426.3,525.4,405.7,550.8z"/>
<path class="st10" d="M438.5,380.7C438.5,380.6,438.5,380.6,438.5,380.7C438.5,380.6,438.5,380.6,438.5,380.7z"/>
<path class="st17" d="M438.5,380.7c-0.6,2.6-18.1,76.2-43.6,79.6c-3.6,0.5-7.2,1-10.7,1.5c-0.9,7.6-1,15-0.5,22.2
	c6.9,0,42.3-18.1,42.3-18.1C428.2,424.9,438.1,382.6,438.5,380.7z"/>
<path class="st20" d="M437.6,501.7c1.7-4.8,8.7-17.2,14.7-24.4"/>
<path class="st20" d="M452.3,496.1c2.6-4.1,7.5-11.1,10-14.9"/>
<path class="st20" d="M465.2,495c0,0,5.9-9.8,9.1-12.1"/>
<path class="st18" d="M623.6,455.5c0,0-12.3-9.9-42.3-10.6c-11.2-0.3-23.7,1.2-35.7,3.5c21-3.4,56,1.7,64.4,7.2
	c8.8,5.8,1.5,21.2,1.4,21.4C620.8,468.3,623.6,455.5,623.6,455.5z"/>
<path class="st16" d="M464.1,308.1c-2.7,0-4.7-0.3-5.2-0.3c-4.3-3.7-19.5-26.8-20.5-30.1c-0.5-1.6,0.1-4.6,0.6-7.4
	c0.6-2.9,1.1-5.7,0.5-7.4c-0.6-1.9-3.1-3.6-5.3-5.1c-1.1-0.8-2.6-1.8-2.6-2.2c0.2-1.3,1.1-5.7,1.1-5.7c0-0.1,0-0.2,0-0.2l-1.5-6.3
	c0.9-1.4,6.2-9.3,7.3-11.1c1-1.6,7-3.6,10-3.6h0.2c2.8,0.1,36.5,7,38.3,7.4c9.7,5.2,24.3,13.2,25.2,14c0.5,0.8-0.6,8.7-1.9,15.8
	l-8.9,8.9c-0.1,0.1-0.1,0.2-0.1,0.4l0,3.2c0,2.9-1.2,5.6-3.2,7.7c-5.4,5.5-18.4,18.4-23.7,20.5C471.3,307.5,467.9,308.1,464.1,308.1
	z"/>
<path class="st18" d="M448.4,229.1c0.1,0,0.1,0,0.2,0c2.3,0.1,28.1,5.3,38.1,7.3c9,4.8,23.3,12.6,24.9,13.8c0.3,1.4-0.7,8.7-2,15.3
	l-8.8,8.8c-0.2,0.2-0.3,0.4-0.3,0.7l0,3.2c0,2.8-1.1,5.4-3,7.4c-11.3,11.5-19.9,19-23.5,20.4c-2.7,1-6.1,1.6-9.9,1.6
	c-2.4,0-4.4-0.2-5-0.3c-4.4-3.9-19.2-26.5-20.2-29.8c-0.5-1.5,0.1-4.5,0.6-7.1c0.6-3,1.1-5.9,0.5-7.6c-0.7-2-3.2-3.8-5.5-5.4
	c-0.9-0.6-2.1-1.4-2.4-1.9c0.2-1.5,1.1-5.5,1.1-5.5c0-0.1,0-0.3,0-0.4l-1.5-6.1c1.2-1.8,6.1-9.2,7.2-11
	C439.7,231.1,445.4,229.1,448.4,229.1z M448.4,228.1c-3,0-9.2,1.9-10.4,3.9c-1.2,2-7.4,11.3-7.4,11.3l1.6,6.5c0,0-0.9,4.4-1.1,5.8
	c-0.2,1.3,6.9,4.4,7.9,7.5s-2.2,11.3-1.1,14.8c1.1,3.4,16.5,27,20.7,30.4c0,0,2.3,0.4,5.5,0.4c3,0,6.8-0.3,10.2-1.7
	c5.3-2,17.9-14.5,23.9-20.6c2.1-2.2,3.3-5,3.3-8.1l0-3.2l9-9c0,0,2.9-15.3,1.8-16.4c-1-1.1-25.3-14.1-25.3-14.1s-35.5-7.3-38.4-7.4
	C448.6,228.1,448.5,228.1,448.4,228.1z"/>
<path class="st7" d="M479.8,203.2c-18.4-7.1-69.7-16.4-72.8,16.2c-1.4,14.3,15.9,28.5,25.2,30.4c0,0,0.3-3.9,2.3-6
	c0,0,22.9,4.1,34.9-2.4c0,0-0.7,9.3,14.2,14.4c0,0,2.1,5.9,2.4,11.2c0,0.7,0.8,1.1,1.4,0.8l3.4-2c0,0-1.6-13.8,4.5-16.9
	c6.1-3.1,14,1.5,14.5,6.8s-3.4,11-9.4,12.6c0,0,0.1,6.2,0,10.4c0,0,0.5-1.5,5.8-5.1c5.3-3.7,9.8-9.1,7.6-23.5
	c-2.2-14.4-2.3-41-23.3-37.2C490.5,213,487,206,479.8,203.2z"/>
<path class="st6" d="M456.8,250.5c-1.1,0.3-1.8,1.5-1.4,2.6c0.3,0.8,0.9,1.6,2.2,2c3.1,1,9-2.6,11.5-2.7c2.5,0-0.1-2.5-3.5-2.6
	C462.6,249.7,460.1,249.7,456.8,250.5z"/>
<path class="st6" d="M463.1,263.6c1.1,0,2-0.9,2-2s-0.9-2-2-2s-2,0.9-2,2S461.9,263.6,463.1,263.6z"/>
<path class="st6" d="M445,265.7c1,0,1.9-0.8,1.9-1.9s-0.8-1.9-1.9-1.9s-1.9,0.8-1.9,1.9S444,265.7,445,265.7z"/>
<path class="st6" d="M440.3,257.1c1.3-1.6-0.6-3.2-0.6-3.2c-3-1-5.9-0.7-8.4,0c-0.1,0.7-0.2,1.3-0.3,1.6c-0.1,0.4,0.7,1.1,1.7,1.8
	C436.5,256.8,439.4,258.2,440.3,257.1z"/>
<path class="st12" d="M451.5,259.9c0,0,1.2,13.4-1.1,17.6c-1,1.9,4.7,2.4,6.5,2"/>
<path class="st12" d="M456.5,291.3c4.4-0.3,8.6-1.8,12.3-4.3"/>
<path class="st12" d="M495.2,262.2c-1.6-3.9,1.8-12.1,6.9-8.8"/>
<path class="st6" d="M432.2,249.8c0,0,0.3-3.9,2.3-6c0,0,12.7,2.3,24.2,0.7c-12.8,0-25.8-3.5-36.3-10.9c-2.8-2-5.5-4.3-7.7-7
	c-0.6-0.7-1.1-1.4-1.6-2.2c-2.4-3.7-3.8-8-3.4-12.4c0.1-0.8,0.2-1.6,0.1-2.3c-1.5,2.7-2.5,5.9-2.8,9.6
	C405.6,233.7,422.9,247.9,432.2,249.8z"/>
<path class="st6" d="M513.9,250.2c-0.9-5.9-1.5-13.9-3.2-20.9c0,1,0,2.1,0,3.2c0,5.3-0.7,11.8-5,13.5c-0.6,0.2-1.2,0.4-1.6,0.9
	c-0.3,0.4-0.4,0.9-0.4,1.4c0,0.2,0,0.4,0,0.6c3.3,1.3,5.9,4.1,6.2,7.1c0.5,5.4-3.4,11-9.4,12.6c0,0,0.1,6.2,0,10.4
	c0,0,0.5-1.5,5.8-5.1C511.5,270,516.1,264.6,513.9,250.2z"/>
<path class="st8" d="M284,106c10.5,0,19-8.5,19-19s-8.5-19-19-19s-19,8.5-19,19S273.5,106,284,106z"/>
<path class="st9" d="M277.4,87.1l6.5,4l6.8-3.9L283.8,76L277.4,87.1z"/>
<path class="st9" d="M277.4,88.7l6.6,9.3l6.7-9.5l-6.8,4.1L277.4,88.7z"/>
<path class="st8" d="M256,306c12.7,0,23-10.3,23-23s-10.3-23-23-23s-23,10.3-23,23S243.3,306,256,306z"/>
<path class="st10" d="M26.7,195h56.1c4.8,0,8.7,3.9,8.7,8.7v30l12.8,8.5H83.2H26.7c-4.8,0-8.7-3.9-8.7-8.7v-29.9
	C18,198.9,21.9,195,26.7,195z"/>
<path class="st21" d="M75.1,224.4H35.4"/>
<path class="st21" d="M75.1,211.1H35.4"/>
<path class="st22" d="M241.5,395h-63.3l-83.7,66.3h147V395z"/>
<path class="st1" d="M139.5,461.7H241v88H139.5V461.7z"/>
<path class="st19" d="M418.1,527.7v-139l-92.8-72.5l-92.9,72.5v139l-14,22.5h106.9h106.9L418.1,527.7z"/>
<path class="st19" d="M325.2,309.1l-125.6,98.2v11.2l125.6-96.6l125.6,96.6v-11.2L325.2,309.1z"/>
<path class="st19" d="M316.8,435.9h-58.5c-1.1,0-2,0.9-2,2v62.9c0,1.1,0.9,2,2,2h58.5c1.1,0,2-0.9,2-2v-62.9
	C318.8,436.8,317.9,435.9,316.8,435.9z"/>
<path class="st22" d="M391.8,433.2h-46c-1.1,0-2,0.9-2,2v97.6c0,1.1,0.9,2,2,2h46c1.1,0,2-0.9,2-2v-97.6
	C393.8,434.1,392.9,433.2,391.8,433.2z"/>
<path class="st19" d="M399.1,534.9H339v7.6h60.1V534.9z"/>
<path class="st19" d="M406.3,542.4h-75v7.8h75V542.4z"/>
<path class="st19" d="M372.7,386.2h-95c-1.1,0-2,0.9-2,2v15c0,1.1,0.9,2,2,2h95c1.1,0,2-0.9,2-2v-15
	C374.7,387.1,373.8,386.2,372.7,386.2z"/>
<path class="st1" d="M325.5,329.5l-0.3-0.2l-0.3,0.2l-92,70.6v-6.5l92.4-71l92.3,71v6.5L325.5,329.5z"/>
<path class="st23" d="M187.6,402L129,450.1"/>
<path class="st23" d="M188.2,422.4l-16.3,16.5"/>
<path class="st19" d="M164.9,477.3v50.4h52.2V478L164.9,477.3z"/>
<path class="st19" d="M99.3,490.9h-7v59h7V490.9z"/>
<path class="st19" d="M165.3,490.9h-7v59h7V490.9z"/>
<path class="st19" d="M231.3,490.9h-7v59h7V490.9z"/>
<path class="st19" d="M297.3,490.9h-7v59h7V490.9z"/>
<path class="st19" d="M363.3,490.9h-7v59h7V490.9z"/>
<path class="st19" d="M429.3,490.9h-7v59h7V490.9z"/>
<path class="st19" d="M495.3,490.9h-7v59h7V490.9z"/>
<path class="st19" d="M488.3,531.9h-389v3h389V531.9z"/>
<path class="st19" d="M488.3,504.9h-389v3h389V504.9z"/>
<path class="st8" d="M601.6,330.2h-56.1c-4.8,0-8.7-3.9-8.7-8.7v-30L524,283h21.1h56.5c4.8,0,8.7,3.9,8.7,8.7v29.9
	C610.3,326.4,606.4,330.2,601.6,330.2z"/>
<path class="st24" d="M553.2,300.8h39.7"/>
<path class="st24" d="M553.2,314.2h39.7"/>
<path class="st9" d="M247.2,281.5l-2.2,1.9l9.1,9.6c0,0,2.1-7.3,12.5-17.6L266,274c0,0-9.9,6.7-13.5,12L247.2,281.5z"/>
<path class="st14" d="M120.2,545c6.8,0,12.3-5.5,12.3-12.3c0-6.8-5.5-12.3-12.3-12.3c-6.8,0-12.3,5.5-12.3,12.3
	C107.9,539.5,113.4,545,120.2,545z"/>
<path class="st9" d="M135.7,541.3c-34.7,0-46-3.7-46.4-15c-0.6-14.5,12.5-20.9,25.9-26.2c6.1-2.4,13.7-6.2,21.7-10.2
	c9.9-4.9,20.1-10,28.8-13.2c14.4-5.2,45.8-5.5,52-5.5h0.8c1.2,0,28.8,0.7,37.9,4.1c6.7,2.5,12,9.8,15.5,14.6
	c1.3,1.8,2.5,3.4,3.3,4.2c7.7,7.3,14.8,24.5,8.8,36c-4.5,8.6-26.8,8.9-63.9,9.3c-13.7,0.2-29.2,0.4-46.7,1
	C157.3,541,145.3,541.3,135.7,541.3z"/>
<path class="st17" d="M217.8,471.6c0.5,0,0.8,0,0.8,0s28.6,0.6,37.7,4.1c9.1,3.4,15.5,15.7,18.7,18.7c7.3,6.9,14.6,24.1,8.7,35.4
	c-5.9,11.3-44.9,7.7-110.2,10.1c-14.9,0.5-27.4,0.9-37.7,0.9c-34.8,0-45.5-3.6-45.9-14.5c-0.6-14.1,12-20.4,25.6-25.7
	c13.6-5.4,34.8-17.6,50.5-23.3C180.3,471.9,212.3,471.6,217.8,471.6z M217.8,470.6c-6.2,0-37.7,0.3-52.2,5.6
	c-8.7,3.2-19,8.3-28.9,13.2c-8,4-15.6,7.7-21.7,10.1c-13.6,5.4-26.8,11.9-26.2,26.7c0.5,11.7,11.9,15.5,46.9,15.5
	c9.6,0,21.6-0.3,37.7-0.9c17.5-0.6,33-0.8,46.7-1c38.6-0.5,59.8-0.8,64.4-9.6c6.1-11.7-1.1-29.2-8.9-36.6c-0.8-0.8-2-2.3-3.3-4.2
	c-3.5-4.9-8.9-12.2-15.8-14.8c-9.2-3.4-36.9-4.1-38-4.1C218.6,470.6,218.3,470.6,217.8,470.6z"/>
<path class="st14" d="M179.7,474c-5.2,0.8-10.1,1.8-13.7,3.1c-11.8,4.3-26.6,12.2-39,18.2c11.9,1.6,31.6,2,42.7-6.6
	c12.5-9.7,27.7-14,27.7-14L179.7,474z"/>
<path class="st14" d="M227.9,476.5c-10-0.4-22.3-2-43,8.2s-20.7,14.6-18.8,15.3c1.9,0.7,48.1-2.1,66.4-4.2s26.3-3.5,26.7-9.7
	C259.6,479.9,258.4,477.7,227.9,476.5z"/>
<path class="st10" d="M121.5,500.2c0,0,21.8-1,23.7,0.2c1.8,1.2-20.5,14.5-42.9,10.8C102.3,511.2,101.9,508.6,121.5,500.2z"/>
<path class="st9" d="M135.7,541.3c-34.7,0-46-3.7-46.4-15c-0.1-3.3,0.4-6.3,1.7-9c0.1-0.1,0.2-0.2,0.3-0.3c0,0,0.1,0,0.2,0
	c0.1,0,0.2,0,0.3,0.1c3.2,1.9,8.3,2.9,15.2,2.9c0.8,0,1.7,0,2.6,0c9.7-0.3,16.3-4,23.4-7.9c7.3-4,14.8-8.1,25.8-8.1
	c0.4,0,0.7,0,1.1,0c1.6,0,3.3,0.1,5,0.1c22.1,0,53.3-3,69.6-6.8c5.8-1.3,13.3-2,22.4-2c8.5,0,16.4,0.6,20.3,1c0.1,0,0.2,0.1,0.3,0.2
	c6.3,6.9,12.2,22.9,6.6,33.7c-4.4,8.6-26.8,8.9-63.9,9.3c-13.7,0.2-29.2,0.4-46.7,1C157.3,541,145.3,541.3,135.7,541.3z"/>
<path class="st17" d="M256.8,495.7c8.3,0,16,0.6,20.3,0.9c6.6,7.2,11.9,23,6.5,33.2c-5.9,11.3-44.9,7.7-110.2,10.1
	c-14.9,0.5-27.4,0.9-37.7,0.9c-34.8,0-45.5-3.6-45.9-14.5c-0.1-3.3,0.5-6.2,1.6-8.8c2.6,1.5,7.2,3,15.5,3c0.8,0,1.7,0,2.6,0
	c20.2-0.7,28-16,49.1-16c0.4,0,0.7,0,1.1,0c1.6,0,3.3,0.1,5.1,0.1c22,0,53.5-3.1,69.7-6.8C241.1,496.2,249.2,495.7,256.8,495.7z
	 M256.8,494.7c-9.2,0-16.7,0.7-22.5,2c-16.3,3.7-47.5,6.7-69.5,6.7c-1.8,0-3.4,0-5-0.1c-0.4,0-0.8,0-1.1,0c-11.1,0-18.7,4.2-26,8.2
	c-7,3.9-13.6,7.5-23.1,7.8c-0.9,0-1.7,0-2.6,0c-8.5,0-12.8-1.5-14.9-2.8c-0.2-0.1-0.3-0.1-0.5-0.1c-0.1,0-0.2,0-0.3,0
	c-0.3,0.1-0.5,0.3-0.6,0.5c-1.3,2.8-1.9,5.9-1.7,9.2c0.5,11.7,11.9,15.5,46.9,15.5c9.6,0,21.6-0.3,37.7-0.9c17.5-0.6,33-0.8,46.7-1
	c38.6-0.5,59.8-0.8,64.4-9.6c5.7-11-0.3-27.3-6.7-34.3c-0.2-0.2-0.4-0.3-0.6-0.3C273.2,495.3,265.3,494.7,256.8,494.7z"/>
<path class="st10" d="M266.9,530.6c-30.3,8.2-115.2,3.7-148.9,1.3c-17.6-1.2-25-4.9-28.1-8.1c-0.1,0.8-0.1,1.6,0,2.4
	c0.6,14.2,18.3,16.1,83.6,13.7s104.3,1.2,110.2-10.1c0.9-1.7,1.5-3.4,1.8-5.1C281.1,526.4,275.1,528.4,266.9,530.6z"/>
<path class="st14" d="M149.1,549.9c8.8,0,16-7.2,16-16c0-8.8-7.2-16-16-16c-8.8,0-16,7.2-16,16C133.1,542.7,140.3,549.9,149.1,549.9
	z"/>
<path class="st9" d="M149.1,543c5.1,0,9.2-4.1,9.2-9.2c0-5.1-4.1-9.2-9.2-9.2c-5.1,0-9.2,4.1-9.2,9.2C140,538.9,144.1,543,149.1,543
	z"/>
<path class="st14" d="M264.4,549.9c8.8,0,16-7.2,16-16c0-8.8-7.2-16-16-16c-8.8,0-16,7.2-16,16C248.4,542.7,255.6,549.9,264.4,549.9
	z"/>
<path class="st9" d="M264.4,543c5.1,0,9.2-4.1,9.2-9.2c0-5.1-4.1-9.2-9.2-9.2c-5.1,0-9.2,4.1-9.2,9.2
	C255.3,538.9,259.4,543,264.4,543z"/>
<g>
	<g>
		<g>
			<g>
				<path class="st25" d="M323.3,68.7c-4.9,0-8.7-3.8-8.7-8.7V42.3c0-2.1,1.7-3.8,3.8-3.8s3.8,1.7,3.8,3.8V60c0,0.7,0.7,1.4,1.4,1.4
					s1.4-0.7,1.4-1.4V42.3c0-4.5-3.8-8.3-8.3-8.3c-4.5,0-8.3,3.8-8.3,8.3v22.9c0,2.1-1.7,3.8-3.8,3.8c-2.1,0-3.8-1.7-3.8-3.8V42.3
					c0-8.7,7-15.6,15.6-15.6s15.6,7,15.6,15.6V60C332,64.9,328.2,68.7,323.3,68.7z"/>
			</g>
		</g>
		<g>
			<g>
				<path class="st25" d="M342.8,68.7c-2.1,0-3.8-1.7-3.8-3.8V37.4c0-2.1-1.7-3.8-3.8-3.8c-2.1,0-3.8-1.7-3.8-3.8s1.7-3.8,3.8-3.8
					c6.3,0,11.1,4.9,11.1,11.1v27.5C346.6,67.3,344.8,68.7,342.8,68.7z"/>
			</g>
		</g>
	</g>
</g>
</svg>
