<?xml version="1.0" encoding="utf-8"?>
<!-- Generator: Adobe Illustrator 24.1.3, SVG Export Plug-In . SVG Version: 6.00 Build 0)  -->
<svg version="1.1" id="图层_1" xmlns="http://www.w3.org/2000/svg" xmlns:xlink="http://www.w3.org/1999/xlink" x="0px" y="0px"
	 viewBox="0 0 854 644" style="enable-background:new 0 0 854 644;" xml:space="preserve">
<style type="text/css">
	.st0{fill:#FF4480;}
	.st1{fill:#FFFFFF;}
	.st2{fill:#D44E72;}
	.st3{fill:#515667;}
	.st4{fill:#2F2E41;}
	.st5{fill:#21202F;}
	.st6{fill:none;stroke:#E0E0E0;stroke-miterlimit:10;}
	.st7{fill:#E0E0E0;}
	.st8{fill:#FFFFFF;filter:url(#Adobe_OpacityMaskFilter);}
	.st9{mask:url(#path-19-inside-1_59_4829_1_);fill:#E0E0E0;}
	.st10{fill:none;stroke:#E0E0E0;stroke-linejoin:round;stroke-miterlimit:10;}
	.st11{fill:#FFFFFF;stroke:#E0E0E0;stroke-linejoin:round;stroke-miterlimit:10;}
	.st12{fill:#E6E6E6;}
	.st13{fill:none;stroke:#515667;stroke-miterlimit:10;}
	.st14{fill:#FFFFFF;filter:url(#Adobe_OpacityMaskFilter_1_);}
	.st15{mask:url(#path-45-inside-2_59_4829_1_);fill:#E0E0E0;}
	.st16{fill:#E0E0E0;stroke:#E0E0E0;}
	.st17{fill:#FFFFFF;stroke:#E0E0E0;stroke-width:0.5;stroke-linejoin:round;stroke-miterlimit:10;}
	.st18{fill:#FFFFFF;stroke:#E0E0E0;}
	.st19{fill:none;stroke:#E0E0E0;stroke-linecap:round;stroke-miterlimit:10;}
	.st20{fill:#F3F4F9;}
	.st21{fill:#FAA5A5;stroke:#FAA5A5;stroke-linejoin:round;stroke-miterlimit:10;}
	.st22{fill:#FFFFFF;stroke:#C8D4E8;stroke-linejoin:round;stroke-miterlimit:10;}
	.st23{fill:#FFB8B8;stroke:#FAA5A5;stroke-linejoin:round;stroke-miterlimit:10;}
	.st24{fill:#FFB8B8;}
	.st25{fill:#FAA5A5;}
	.st26{fill:#FF4480;stroke:#D44E72;stroke-linejoin:round;stroke-miterlimit:10;}
	.st27{fill:none;stroke:#FFFFFF;stroke-width:1.5;stroke-linecap:round;stroke-linejoin:round;stroke-miterlimit:10;}
	.st28{fill:#D44E72;stroke:#D44E72;stroke-linejoin:round;stroke-miterlimit:10;}
	.st29{fill:#E6E6E6;stroke:#E0E0E0;stroke-linejoin:round;stroke-miterlimit:10;}
	.st30{fill:none;stroke:#FAA5A5;stroke-linecap:round;stroke-linejoin:round;stroke-miterlimit:10;}
	.st31{fill:#A0616A;}
	.st32{fill:#864B53;}
	.st33{fill:none;stroke:#864B53;stroke-linecap:round;stroke-linejoin:round;stroke-miterlimit:10;}
	.st34{fill:none;stroke:#E0E0E0;stroke-width:4;stroke-linecap:round;stroke-linejoin:round;stroke-miterlimit:10;}
	.st35{fill:none;stroke:#FF4480;stroke-miterlimit:10;}
	.st36{fill:#FFFFFF;stroke:#E0E0E0;stroke-miterlimit:10;}
	.st37{fill:#E0E0E0;stroke:#E0E0E0;stroke-linejoin:round;stroke-miterlimit:10;}
	.st38{fill:#FFFFFF;fill-opacity:0.37;}
</style>
<path class="st0" d="M778.3,133.5c0.1,0,0.1,0.1,0.2,0.1c0,0.1,0,0.1-0.1,0.2c-0.1,0.1-0.2,0.2-0.3,0.3c-0.2,0.1-0.3,0.2-0.5,0.3
	c-0.2,0.1-0.4,0.2-0.6,0.3c-0.2,0.1-0.4,0.1-0.6,0.2l-2.3,0.4l1.1-1.3l2.3-0.4c0.2,0,0.4-0.1,0.5-0.1
	C778.1,133.4,778.3,133.4,778.3,133.5z"/>
<path class="st0" d="M778.4,132.9c-0.2,0.1-0.4,0.1-0.6,0.2l-2.2,0.4l1.1-1.3l2.2-0.4c0.2-0.1,0.4-0.1,0.5,0c0.1,0,0.2,0,0.3,0.1
	c0.1,0,0.1,0.1,0.1,0.2c0,0.1,0,0.1-0.1,0.2c-0.1,0.1-0.2,0.2-0.3,0.3c-0.1,0.1-0.3,0.2-0.5,0.3
	C778.8,132.7,778.6,132.8,778.4,132.9z"/>
<path class="st1" d="M779.9,133.3c0,0.1,0,0.1-0.1,0.2c-0.1,0.2-0.3,0.3-0.6,0.5c-0.3,0.2-0.6,0.3-0.9,0.5c-0.3,0.2-0.7,0.3-1.1,0.4
	c-0.4,0.1-0.8,0.2-1.2,0.3l0.4-0.1l-0.4,0.4l-0.9,0.2l0.4-0.4l-0.6,0.1l-0.4,0.4l-0.9,0.2l0.4-0.4l-2.4,0.5l0.4-0.5l0.9-0.2l2.6-3.1
	l-0.9,0.2l0.4-0.5l2.4-0.5l0.4-0.5l0.9-0.2l-0.4,0.5l0.9-0.2l-0.3,0l0.4-0.5l0.9-0.2l-0.4,0.5h0c0.2,0,0.5-0.1,0.7-0.1
	c0.3,0,0.5,0,0.7,0.1s0.3,0.1,0.3,0.3c0,0.1,0,0.3-0.2,0.4c-0.1,0.2-0.4,0.4-0.7,0.5c-0.3,0.2-0.8,0.4-1.3,0.5c0.2,0,0.3,0,0.4,0.1
	c0.1,0,0.2,0.1,0.3,0.1C779.9,133.2,779.9,133.2,779.9,133.3z M778.1,134.1c0.2-0.1,0.3-0.2,0.3-0.3c0.1-0.1,0.1-0.1,0.1-0.2
	c0-0.1-0.1-0.1-0.1-0.1c-0.1,0-0.2-0.1-0.4,0c-0.1,0-0.3,0-0.5,0.1l-2.3,0.4l-1.1,1.3l2.3-0.4c0.2-0.1,0.4-0.1,0.6-0.2
	c0.2-0.1,0.4-0.2,0.6-0.3C777.8,134.3,777.9,134.2,778.1,134.1z M776.7,132.1l-1.1,1.3l2.2-0.4c0.2-0.1,0.4-0.1,0.6-0.2
	c0.2-0.1,0.4-0.1,0.6-0.2c0.2-0.1,0.3-0.2,0.5-0.3c0.1-0.1,0.2-0.2,0.3-0.3c0.1-0.1,0.1-0.2,0.1-0.2c0-0.1,0-0.1-0.1-0.2
	c-0.1,0-0.2-0.1-0.3-0.1c-0.1,0-0.3,0-0.5,0L776.7,132.1z"/>
<path class="st0" d="M780.3,129.2c5.5-1.1,8.5-0.1,6.5,2.2c-1.9,2.3-8,5-13.5,6.1c-5.5,1.1-8.5,0.1-6.5-2.2
	C768.8,133.1,774.8,130.3,780.3,129.2z M779.2,134c0.3-0.2,0.5-0.3,0.6-0.5c0.1-0.1,0.1-0.2,0.1-0.2c0-0.1,0-0.1-0.1-0.2
	c-0.1,0-0.1-0.1-0.3-0.1c-0.1,0-0.3,0-0.4-0.1c0.5-0.2,0.9-0.4,1.3-0.5c0.3-0.2,0.6-0.4,0.7-0.5c0.1-0.2,0.2-0.3,0.2-0.4
	c0-0.1-0.1-0.2-0.3-0.2c-0.2-0.1-0.4-0.1-0.7-0.1c-0.2,0-0.4,0-0.7,0.1h0l0.4-0.5l-0.9,0.2l-0.4,0.5l0.3,0l-0.8,0.2l0.4-0.5
	l-0.9,0.2l-0.4,0.5l-2.4,0.5l-0.4,0.5l0.9-0.2l-2.6,3.1l-0.9,0.2l-0.4,0.5l2.4-0.5l-0.4,0.4l0.9-0.2l0.4-0.4l0.6-0.1l-0.4,0.4
	l0.9-0.2l0.4-0.4l-0.4,0.1c0.4-0.1,0.8-0.2,1.2-0.3c0.4-0.1,0.8-0.3,1.1-0.4C778.6,134.4,778.9,134.2,779.2,134z"/>
<path class="st2" d="M786.6,127.1c-0.3-1.2-3-1.5-7.1-0.7c-5.5,1.1-11.6,3.8-13.5,6.1c-0.5,0.6-0.7,1.1-0.5,1.5l0.8,2.9
	c-0.1-0.4,0-0.9,0.5-1.5c1.9-2.3,8-5,13.5-6.1c4.1-0.8,6.7-0.5,7.1,0.7L786.6,127.1z"/>
<path class="st3" d="M649.1,486.3c0.3,0.6,0.6,1.3,0.7,2c0.1,0.7,0.2,1.3,0,2c-0.1,0.7-0.4,1.4-0.8,2c-0.4,0.6-0.8,1.1-1.3,1.4
	c-0.5,0.4-1.1,0.6-1.7,0.7c-0.6,0.1-1.3,0-1.9-0.2l-7.3-3l2-10.7l7.3,3c0.7,0.3,1.2,0.6,1.8,1.2
	C648.4,485.1,648.8,485.7,649.1,486.3z"/>
<path class="st1" d="M654.3,489.8c0.1,0.7,0.1,1.4-0.1,2.1c-0.2,1.4-0.7,2.5-1.4,3.5c-0.7,1-1.5,1.7-2.5,2.2c-1,0.5-2.1,0.8-3.3,0.9
	c-1.2,0-2.4-0.2-3.7-0.7l1.2,0.5l-0.7,3.6l-3-1.2l0.7-3.6l-1.9-0.8l-0.7,3.6l-3-1.2l0.7-3.6l-7.6-3.1l0.7-3.7l3,1.2l4.8-24.9l-3-1.2
	l0.7-3.7l7.6,3.2l0.8-4l3,1.2l-0.7,4l2.7,1.1l-0.8-0.4l0.8-3.9l3,1.2l-0.8,4.1l-0.1,0c0.8,0.5,1.5,1,2.2,1.6c1,1,1.8,2,2.5,3.2
	c0.7,1.2,1.1,2.5,1.4,3.8c0.3,1.3,0.2,2.7,0,4c-0.3,1.4-0.9,2.5-1.8,3.3c-1,0.8-2.2,1.3-3.7,1.4c0.6,0.6,1.1,1.3,1.6,2
	c0.5,0.7,0.8,1.4,1.1,2.2C654.1,488.3,654.3,489.1,654.3,489.8z M649.1,492.2c0.4-0.6,0.6-1.3,0.8-2c0.1-0.6,0.1-1.3,0-2
	c-0.1-0.7-0.4-1.3-0.7-2c-0.3-0.6-0.8-1.2-1.3-1.7c-0.5-0.5-1.1-0.9-1.8-1.2l-7.3-3l-2,10.7l7.3,3c0.7,0.3,1.3,0.3,1.9,0.2
	c0.6-0.1,1.2-0.4,1.7-0.7C648.3,493.3,648.7,492.8,649.1,492.2z M641.5,466.2l-2,10.5l7.1,2.9c0.7,0.3,1.3,0.4,1.9,0.4
	c0.6,0,1.2-0.2,1.7-0.5c0.5-0.3,0.9-0.7,1.3-1.2c0.4-0.5,0.6-1.1,0.7-1.7c0.1-0.7,0.1-1.4,0-2.2c-0.1-0.8-0.3-1.5-0.7-2.2
	c-0.3-0.7-0.7-1.3-1.3-1.9c-0.5-0.6-1.1-1-1.7-1.2L641.5,466.2z"/>
<path class="st3" d="M650.2,447.4c17.6,7.3,29.1,27.9,25.6,46.2c-3.5,18.2-20.6,27.1-38.2,19.8c-17.6-7.2-29.1-27.9-25.6-46.2
	C615.5,449,632.6,440.1,650.2,447.4z M652.8,495.4c0.7-1,1.2-2.1,1.4-3.5c0.1-0.7,0.1-1.4,0.1-2.1c-0.1-0.7-0.3-1.5-0.5-2.2
	c-0.3-0.8-0.6-1.5-1.1-2.2c-0.5-0.7-1-1.4-1.6-2c1.5-0.1,2.7-0.6,3.7-1.4c1-0.8,1.6-1.9,1.8-3.3c0.3-1.3,0.2-2.6,0-4
	c-0.3-1.3-0.7-2.6-1.4-3.8c-0.7-1.2-1.5-2.2-2.5-3.2c-0.7-0.6-1.4-1.1-2.2-1.6l0.1,0l0.8-4.1l-3-1.2l-0.8,3.9l0.8,0.4l-2.7-1.1
	l0.7-4l-3-1.2l-0.8,4l-7.6-3.1l-0.7,3.7l3,1.2l-4.8,24.9l-3-1.2l-0.7,3.7l7.6,3.1l-0.7,3.6l3,1.2l0.7-3.6l1.9,0.8l-0.7,3.6l3,1.2
	l0.7-3.6l-1.2-0.5c1.3,0.5,2.5,0.8,3.7,0.7c1.2,0,2.3-0.3,3.3-0.9C651.3,497.1,652.1,496.4,652.8,495.4z"/>
<path class="st3" d="M648.5,480c-0.6,0-1.3-0.1-1.9-0.4l-7.1-2.9l2-10.5l7.1,2.9c0.6,0.3,1.2,0.7,1.7,1.2c0.5,0.6,0.9,1.2,1.3,1.9
	c0.3,0.7,0.5,1.4,0.7,2.2c0.1,0.8,0.1,1.5,0,2.2c-0.1,0.6-0.4,1.2-0.7,1.7c-0.4,0.5-0.8,0.9-1.3,1.2
	C649.7,479.8,649.2,480,648.5,480z"/>
<path class="st4" d="M662.7,512.7l-5.2,2.9c-7,3.9-16,4.5-25.1,0.7c-17.6-7.2-29.1-27.9-25.6-46.2c1.7-8.8,6.5-15.4,13.1-19.1
	l5.2-2.9c-6.6,3.7-11.4,10.3-13.1,19.1c-3.5,18.2,8,38.9,25.6,46.2C646.7,517.2,655.7,516.6,662.7,512.7z"/>
<path class="st5" d="M331.2,530.3L310,543.4c0,0-8.7-15.6-8.4-16.9c0.3-1.3,5.9-17.6,9.3-17.8c3.5-0.2,14.5-5.7,17.2-1.1
	c2.7,4.6,6.5,6.9,6.5,7.6C334.6,515.9,331.2,530.3,331.2,530.3z"/>
<path class="st5" d="M305,532.4c1.4-9.4,6.7-16.4,12-15.6l8,1.2l-1.1,7.7c0.6,2.8,0.7,6.1,0.2,9.5c-0.5,3.4-1.5,6.5-2.9,9l-1.1,7.8
	l-8-1.2C306.8,550.1,303.7,541.8,305,532.4z"/>
<path class="st5" d="M232.6,591.1c-0.3,0.2-11.3-11.2-22.6-6.5c-11.3,4.7-7.3,12.3-15.6,19.2c-10.6,8.7-3.7,11.4-12.5,16.6
	c-8.8,5.2-8.6-25.1-8.6-25.1s20.5-37.5,31.5-36.6c11,0.9,22.5,6.8,23.7,7.4C238,570.4,232.6,591.1,232.6,591.1z"/>
<path class="st5" d="M211.4,572.7C211.4,572.7,211.5,572.7,211.4,572.7c0.6,0.2,1.2,0.3,1.7,0.5c4.5,1.5,13.3,5,17.1,11.3l-7.1,9
	c-0.5,3.1-1.7,6.3-3.5,9.3c-3.2,5.3-7.7,9.2-12.6,11.3l-4.5,5.7c0,0-9.1-3.4-14.2-8.1c-0.1-0.1-0.1-0.1-0.2-0.2
	c-0.1-0.1-0.2-0.2-0.3-0.2c-6-6-6.7-16.8-1.1-26.3C192.6,575.6,202.9,570.6,211.4,572.7z"/>
<path class="st1" d="M94.2,576.8c-1.5,3.2-1.9,7.9,0.8,13.6c32.2,30.2,70.8,27.5,84,25.5c2.6-0.4,4.8-2.4,5.3-5c1.3-6,3.1-15,5-19.2
	c4.3-9.8,15.2-23.7,29.5-23.2c10.7,0.4,15.2,12.6,16.9,18.7c24.8-11.4,72.4-43.5,72.4-45.3c0.1-7.5,1.5-15.9,4.8-21.6
	c3.3-5.7,13.3-9.6,17.9-5c4.6,4.6,2.1,15.4,2,15.8c4.7-4.9,3.8-29.4,2.4-39.7c-0.1-0.8-0.2-1.5-0.3-2.1c-0.1-0.5-0.2-1-0.3-1.4
	c-1.6-6.2-13.8-7.6-18.1-11.5c-4.3-3.9-4.5-10.7-4.5-10.7c-18.1-13.4-52.8-12.9-52.8-12.9c-24.6,2.2-54.5,11.8-76.3,25.3
	C161,491.6,141,518.5,141,518.5c-38.6,18.1-47.6,35.2-48.7,42.2C91.2,567.6,94.2,576.8,94.2,576.8z"/>
<path class="st6" d="M195,570.1c2.7,0.5,7.4,2.2,11.9,4.3"/>
<path class="st6" d="M276.3,522c0,0,2.1,29.4-1.7,43.1c-0.3,1.1-0.7,2.3-1.2,3.5"/>
<path class="st6" d="M231.4,582.6c1-10.7,2-28.5-1.8-36"/>
<path class="st7" d="M325.8,513.4c2.2-2.4,2.5-5,2.7-7.2c0.2-2,0.3-3.7,1.9-5c3.1-2.5,4.5-6.3,4.8-9.6c-0.1-0.8-0.2-1.5-0.3-2.1
	c0.1,3.7-1.1,8.4-4.8,11.4c-1.7,1.4-1.9,3.3-2,5.3c-0.2,2.2-0.4,4.6-2.5,7C324.7,514,325.1,514.2,325.8,513.4z"/>
<defs>
	<filter id="Adobe_OpacityMaskFilter" filterUnits="userSpaceOnUse" x="324.1" y="489.2" width="12.1" height="25.7">
		<feColorMatrix  type="matrix" values="1 0 0 0 0  0 1 0 0 0  0 0 1 0 0  0 0 0 1 0"/>
	</filter>
</defs>
<mask maskUnits="userSpaceOnUse" x="324.1" y="489.2" width="12.1" height="25.7" id="path-19-inside-1_59_4829_1_">
	<path class="st8" d="M325.8,513.4c2.2-2.4,2.5-5,2.7-7.2c0.2-2,0.3-3.7,1.9-5c3.1-2.5,4.5-6.3,4.8-9.6c-0.1-0.8-0.2-1.5-0.3-2.1
		c0.1,3.7-1.1,8.4-4.8,11.4c-1.7,1.4-1.9,3.3-2,5.3c-0.2,2.2-0.4,4.6-2.5,7C324.7,514,325.1,514.2,325.8,513.4z"/>
</mask>
<path class="st9" d="M325.8,513.4l-0.7-0.7l0,0L325.8,513.4z M328.5,506.2l1,0.1v0L328.5,506.2z M330.4,501.1l0.6,0.8h0L330.4,501.1
	z M335.2,491.5l1,0.1l0-0.1l0-0.1L335.2,491.5z M334.9,489.4l1-0.2l-2,0.2L334.9,489.4z M330.1,500.8l0.6,0.8l0,0L330.1,500.8z
	 M328,506.1l-1-0.1v0L328,506.1z M325.5,513.1l-0.7-0.7l0,0L325.5,513.1z M326.6,514c2.5-2.7,2.7-5.6,2.9-7.8l-2-0.2
	c-0.2,2.2-0.4,4.5-2.4,6.6L326.6,514z M329.5,506.2c0.2-2.1,0.3-3.4,1.5-4.3l-1.3-1.5c-1.9,1.6-2.1,3.8-2.2,5.7L329.5,506.2z
	 M331,501.9c3.4-2.8,4.8-6.8,5.2-10.3l-2-0.2c-0.3,3.2-1.6,6.6-4.5,9L331,501.9z M336.2,491.4c-0.1-0.8-0.2-1.5-0.3-2.2l-2,0.4
	c0.1,0.6,0.2,1.3,0.3,2.1L336.2,491.4z M333.9,489.4c0.1,3.5-1.1,7.9-4.4,10.6l1.3,1.5c4-3.3,5.2-8.4,5.1-12.2L333.9,489.4z
	 M329.5,500c-2.1,1.7-2.2,4.1-2.4,6l2,0.2c0.2-2.1,0.4-3.5,1.7-4.6L329.5,500z M327.1,506c-0.2,2.2-0.4,4.3-2.3,6.4l1.5,1.3
	c2.4-2.6,2.6-5.4,2.8-7.5L327.1,506z M324.8,512.4c-0.2,0.3-0.4,0.5-0.6,0.8c-0.1,0.1-0.1,0.3-0.2,0.5c0,0.2,0,0.7,0.4,1
	c0.4,0.3,0.8,0.2,0.9,0.2c0.2,0,0.3-0.1,0.4-0.2c0.2-0.1,0.5-0.4,0.7-0.6l-1.5-1.3c-0.1,0.2-0.2,0.2-0.3,0.3c0,0,0,0,0.1,0
	c0,0,0.4-0.1,0.7,0.1c0.4,0.3,0.4,0.7,0.4,0.8c0,0.1,0,0.1,0,0.1c0,0,0,0,0,0c0,0,0,0,0,0s0,0,0,0c0,0,0,0,0,0c0,0,0,0,0-0.1
	c0-0.1,0.1-0.1,0.2-0.2L324.8,512.4z"/>
<path class="st3" d="M179,616c2.7-0.4,4.8-2.4,5.3-5c1.3-6,3.2-15,5-19.2c4.1-9.5,15.2-23.7,29.5-23.2c10.7,0.4,15.2,12.6,16.9,18.7
	c24.8-11.4,72.4-43.5,72.4-45.3c0.1-7.5,1.5-15.9,4.8-21.6c3.3-5.7,13.3-9.6,17.9-5c4.6,4.7,2,15.8,2,15.8l-1.6-1
	c0,0,2.2-14.6-6.2-14.4c-4.3,0.1-8.5,3.8-10.4,7c-1.9,3.1-2.7,6.4-3.1,9.3c-0.9,6.1-0.6,9.8-0.5,10.6c0,0.8-1.7,1.8-5.1,4.2
	c-3.3,2.3-32.9,24.2-69.7,42.4h0c-1.2,0.6-2.4,1.2-3.5,1.7c0,0-0.1-0.9-0.3-2.4c-0.9-5.5-5.5-16.2-16.6-16.2
	c-12.7-0.1-24.4,14.5-26,26.1c-1.1,7.5-2.4,17.6-3.4,20.1c-0.5,1.3-4.3,2.6-4.3,2.6c-5.5,1.9-20.1,3-31.5,1.3
	c-18.2-2.7-45.7-18.5-52.1-26.7c-1.5-1.9-2.6-3.7-3.4-5.5C127.2,620.6,165.8,618,179,616z"/>
<path class="st1" d="M321.9,490.8c0,0,6.6-3.8,11.3-5.2c0.6,0.7,1.1,1.5,1.3,2.4c0.1,0.4,0.2,0.9,0.3,1.4c0.1,0.6,0.2,1.3,0.3,2.1
	c1,7.3,1.7,21.8,0.4,31.3c0.4-7.8,0.8-24.3-2.8-24.8c0,0,1.8-4.1,0.6-6.1C332.3,489.9,324.9,489.1,321.9,490.8z"/>
<path class="st10" d="M94.2,576.8c-1.5,3.2-1.9,7.9,0.8,13.6c32.2,30.2,70.8,27.5,84,25.5c2.6-0.4,4.8-2.4,5.3-5
	c1.3-6,3.1-15,5-19.2c4.5-10.1,15.2-23.7,29.5-23.2c10.7,0.4,15.2,12.6,16.9,18.7c24.8-11.4,72.4-43.5,72.4-45.3
	c0.1-7.5,1.5-15.9,4.8-21.6c3.3-5.7,13.3-9.6,17.9-5c4.6,4.6,2.1,15.4,2,15.8c4.7-4.9,3.8-29.4,2.4-39.7c-0.1-0.8-0.2-1.5-0.3-2.1
	c-0.1-0.5-0.2-1-0.3-1.4c-1.6-6.2-13.8-7.6-18.1-11.5c-4.3-3.9-4.5-10.7-4.5-10.7c-18.1-13.4-52.8-12.9-52.8-12.9
	c-24.6,2.2-54.5,11.8-76.3,25.3C161,491.6,141,518.5,141,518.5c-38.6,18.1-47.6,35.2-48.7,42.2C91.2,567.6,94.2,576.8,94.2,576.8z"
	/>
<path class="st11" d="M141,518.5l79.2,24.2c0,0,2.8,3.9-3,8c-5.8,4.2-22.6,13-27,18.5c-4.4,5.5-21.5,16.2-30.4,10.2
	s-42.1-17.6-61.9-20.3c-1.9-0.3-3.6-0.6-5.1-1C95.6,550.1,106.4,534.7,141,518.5z"/>
<path class="st12" d="M157.3,526.1l0.3-2.5l-2.4-0.7c0,0-38.1,21.2-45.7,38.4C118,544.9,157.3,526.1,157.3,526.1z"/>
<path class="st12" d="M192.2,534.1c0,0-0.4,5.2-4.9,7.2c-27.6,12.2-45.1,30.1-45.1,30.1c18.2-19.6,40.3-31.8,40.3-31.8"/>
<path class="st11" d="M216,551.7c5.6-3.4,5.2-7.6,5.2-7.6c0.6-5.3,15.8-47.3,35-57.7c29.2-15.9,55.8-20.6,55.8-20.6
	c0,0.1,0.2,6.8,4.5,10.7c3.7,3.3,13.1,4.8,16.8,9.1c0,0-8.6,2.6-22,11.8c-13.4,9.2-31.2,22.5-35,24.7c0,0-23,13.9-46.7,24.6
	c-23.7,10.7-37.2,22.7-37.2,22.7s-3.6,5.6-2.6,1.2C190.7,566.1,210.4,555.1,216,551.7z"/>
<path class="st6" d="M229.5,546.6c0,0-3-2.6-3.4-5.2c0,0,0-0.1,0-0.2c0-0.3,0-0.6,0.1-1"/>
<path class="st12" d="M306,528.1c0,0-0.6,1.9-1,6.2c-7,1.4-43.6,21.5-66.4,40.8C238.6,575.1,259.4,554.8,306,528.1z"/>
<path class="st3" d="M95,590.4c0,0,3.4-0.9,7,1.9c6.4,5,25.1,14.9,44.3,18c7.9,1.3,13,6.5,13,6.5l-0.1,0.2
	C141.5,616.2,116.8,610.8,95,590.4z"/>
<path class="st4" d="M95,590.4c0,0,1.1-0.3,2.6-0.1c2.2,0.3,3.1,1,3.3,1.1c0,0-2.4-0.8-1.7,0.9c0.6,1.7,25.5,20,53.7,22.4
	c3.1,1.5,5.8,1.9,6.4,2c0,0,0,0,0,0c0,0,0.1,0,0.1,0c0,0,0,0,0,0c0,0,0,0,0,0l-0.1,0.2C141.5,616.2,116.8,610.8,95,590.4z"/>
<path class="st3" d="M330.1,501.3c-0.1,0.1-0.3,0.3-0.4,0.4l0.4-5.8c0.1-1,0.4-2,1-2.8c2.9-4,2.2-7.3,2.1-7.5
	c0.6,0.7,1.1,1.4,1.4,2.3c0.1,0.4,0.2,0.8,0.3,1.3C335.3,492.5,334.9,497.4,330.1,501.3z"/>
<path class="st11" d="M146.3,528c8.9,2.2,27.7,8.6,43.6,14.1c15.9,5.5,31.4,1.1,31.4,1.1c0.6-5.3,15.7-46.5,34.8-56.9
	c18-9.8,35.1-15.4,45.5-18.2c0.2-0.1,0.4-0.1,0.5-0.2c6.1-1.6,9.8-2.3,9.8-2.3c-18.1-13.4-52.8-12.9-52.8-12.9
	c-3.8,0.3-7.6,0.8-11.6,1.5c-0.5,0.1-1,0.2-1.4,0.2c-21.6,3.8-45.2,12.3-63.3,23.5C161,491.6,141,518.5,141,518.5
	S137.4,525.8,146.3,528z"/>
<path class="st12" d="M311.4,480.9c0.1,0.5,0,1-0.2,1.5c-1.4,2.7-7.5,14-15.4,19.2c-9,5.9-49.1,33.1-68,40.6c-0.8,0.3-1.6-0.2-1.7-1
	c0-0.3,0-0.6,0.1-1c0.4-2.3,8.4-27.8,23-42.1c14.6-14.3,40.3-20.1,48.7-20.3C305.6,477.6,310.6,477.6,311.4,480.9z"/>
<path class="st6" d="M264.1,487.6c0,0,8.2,27.8,8.2,29.3c0,0,2.4,4.4,3.9,5.1"/>
<path class="st6" d="M314.9,517.8c0.9-7.2-3.3-20.6-3.3-20.6c-0.2,0-0.4-0.1-0.6-0.1c-4.3-0.9-8.3-2.9-11.5-5.9
	c-3.6-3.2-8.5-8.2-10.1-12.2"/>
<path class="st6" d="M311.4,480.9c0.1,0.5,0,1-0.2,1.5c-1.4,2.7-7.5,14-15.4,19.2c-9,5.9-49.1,33.1-68,40.6c-0.8,0.3-1.6-0.2-1.7-1
	c0-0.3,0-0.6,0.1-1c0.4-2.3,8.4-27.8,23-42.1c14.6-14.3,40.3-20.1,48.7-20.3C305.6,477.6,310.6,477.6,311.4,480.9z"/>
<path class="st3" d="M228.7,537.5c3-8.5,11.1-27.2,21.7-37.5c3.1-3.1,6.9-5.7,11-8c0.4-0.2,1,0,1.1,0.5c1,4.2,3.5,14.9,4.7,23.9
	c0,0.4-0.1,0.7-0.5,0.9c-12.7,7.7-27,16.1-37.1,20.9C229.1,538.5,228.6,538.1,228.7,537.5z"/>
<path class="st12" d="M234.8,522.7c-0.4,3-0.5,9.1,4.5,11.4c-3.8,2-7.3,3.9-10.4,5.4c-0.5,0.3-1.1-0.3-0.9-0.8
	C229.3,534.8,231.7,529,234.8,522.7z"/>
<path class="st3" d="M292.9,482.2c-0.1-0.2,0-0.5,0.3-0.6c1.9-0.3,3.5-0.4,4.7-0.4c2,0,3.6-0.1,5-0.1c1.7,0,3.3,0.2,4.6,0.4
	c0.9,0.1,1.4,1.2,0.9,2c-1.3,1.9-3.2,4.9-5.5,7.9c-0.1,0.2-0.4,0.2-0.6,0.1C296.3,486.9,293.9,483.9,292.9,482.2z"/>
<path class="st3" d="M290.9,483.6c1.9,2.6,5.3,6.8,9.4,9.8c0.3,0.2,0.3,0.6,0.1,0.9c-2,2.2-4.1,4.2-6.2,5.6
	c-0.9,0.6-2.1,1.4-3.6,2.4c-3.3,2.2-8.3,5.4-14.1,9c-0.5,0.3-1.1,0-1.3-0.5c-1.9-10.8-5.3-17.8-7-20.9c-0.3-0.5-0.1-1.1,0.5-1.3
	c6.8-2.9,13.8-4.9,19.4-6C289.1,482.3,290.2,482.7,290.9,483.6z"/>
<path class="st3" d="M229.5,553.6c0,0,1.4,4.3,0.7,5.5c-0.7,1.2-6.7,4.6-11.9,3.1C218.3,562.1,224.7,555.9,229.5,553.6z"/>
<path class="st12" d="M300.8,493.4c0.3,0.2,0.4,0.7,0.1,1c-1,1.2-2.1,2.2-3.1,3.2l-2.3-8.9C297.1,490.3,298.9,492,300.8,493.4z"/>
<path class="st13" d="M321.7,507.5c-2.2,0-3.9-2.4-3.8-5.4c0-2.9,1.8-5.3,4-5.3c2.2,0,3.9,2.4,3.8,5.4
	C325.6,505.2,323.8,507.5,321.7,507.5z"/>
<path class="st7" d="M246.1,454.6c29.5,3.6,52.9,12.5,55.5,13.6c0.1,0,0.1,0,0.2,0.1c0.2,0.6,1.5,3.7,4.8,6.2c1.8,1.4,4,1.8,5.8,1.8
	c1.8,0,3.3-0.3,3.4-0.3l0,0l-0.1-0.2l-0.1-0.2c-0.1,0-5.4,1.3-8.8-1.4c-3.3-2.6-4.6-5.8-4.7-6.1c0,0,0,0,0,0l0-0.1l-0.1,0
	c-0.2-0.1-23.9-9.6-54.5-13.5C247.1,454.5,246.6,454.5,246.1,454.6z"/>
<defs>
	<filter id="Adobe_OpacityMaskFilter_1_" filterUnits="userSpaceOnUse" x="246" y="453.3" width="71.2" height="23.9">
		<feColorMatrix  type="matrix" values="1 0 0 0 0  0 1 0 0 0  0 0 1 0 0  0 0 0 1 0"/>
	</filter>
</defs>
<mask maskUnits="userSpaceOnUse" x="246" y="453.3" width="71.2" height="23.9" id="path-45-inside-2_59_4829_1_">
	<path class="st14" d="M246.1,454.6c29.5,3.6,52.9,12.5,55.5,13.6c0.1,0,0.1,0,0.2,0.1c0.2,0.6,1.5,3.7,4.8,6.2
		c1.8,1.4,4,1.8,5.8,1.8c1.8,0,3.3-0.3,3.4-0.3l0,0l-0.1-0.2l-0.1-0.2c-0.1,0-5.4,1.3-8.8-1.4c-3.3-2.6-4.6-5.8-4.7-6.1c0,0,0,0,0,0
		l0-0.1l-0.1,0c-0.2-0.1-23.9-9.6-54.5-13.5C247.1,454.5,246.6,454.5,246.1,454.6z"/>
</mask>
<path class="st15" d="M246.1,454.6l-0.2-1l0,2L246.1,454.6z M301.7,468.2l0.4-0.9l0,0l0,0L301.7,468.2z M301.8,468.3l0.9-0.4
	l-0.2-0.4l-0.4-0.2L301.8,468.3z M306.6,474.5l-0.6,0.8l0,0L306.6,474.5z M312.4,476.3l0-1h0L312.4,476.3z M315.8,475.9l0.2,1l0.1,0
	l0.1,0L315.8,475.9z M315.8,475.9l0.4,0.9l0.9-0.4l-0.4-0.9L315.8,475.9z M315.8,475.7l-1,0.2l0,0.1l0,0.1L315.8,475.7z
	 M315.7,475.5l1-0.2l-0.3-1.1l-1.1,0.4L315.7,475.5z M306.9,474.1l-0.6,0.8l0,0L306.9,474.1z M302.2,468.1h-1v0.2l0.1,0.2
	L302.2,468.1z M302.2,468h1v-0.2l-0.1-0.2L302.2,468z M302.2,467.9l0.9-0.3l-0.1-0.4l-0.4-0.2L302.2,467.9z M302.1,467.9l0.4-0.9
	l0,0l0,0L302.1,467.9z M247.6,454.4l0.1-1l-0.2,0l-0.2,0L247.6,454.4z M246,455.6c29.4,3.6,52.6,12.5,55.3,13.5l0.7-1.9
	c-2.7-1.1-26.1-10.1-55.8-13.6L246,455.6z M301.3,469.1c0.1,0,0.1,0.1,0.2,0.1l0.7-1.9c0,0-0.1,0-0.1-0.1L301.3,469.1z M300.9,468.6
	c0.3,0.7,1.6,3.9,5.1,6.6l1.2-1.6c-3.1-2.4-4.3-5.3-4.5-5.8L300.9,468.6z M306,475.3c2,1.6,4.5,2,6.4,2l0-2c-1.7,0-3.7-0.4-5.2-1.6
	L306,475.3z M312.4,477.3c2,0,3.5-0.3,3.6-0.4l-0.5-1.9c-0.1,0-1.4,0.3-3.1,0.3L312.4,477.3z M316.3,476.8L316.3,476.8l-0.9-1.8l0,0
	L316.3,476.8z M316.7,475.5l-0.1-0.2l-1.8,0.9l0.1,0.2L316.7,475.5z M316.7,475.5l-0.1-0.2l-1.9,0.5l0,0.2L316.7,475.5z
	 M315.3,474.6C315.4,474.6,315.4,474.6,315.3,474.6C315.4,474.6,315.4,474.6,315.3,474.6c0.1,0,0.1,0,0.1,0c0,0,0,0,0,0
	C315.4,474.6,315.4,474.6,315.3,474.6C315.4,474.6,315.3,474.6,315.3,474.6c-0.2,0-0.4,0.1-0.7,0.1c-0.5,0.1-1.3,0.1-2.1,0.1
	c-1.7,0-3.6-0.4-5.1-1.5l-1.2,1.6c2,1.5,4.4,1.9,6.3,1.9c0.9,0,1.8-0.1,2.4-0.2c0.3,0,0.5-0.1,0.7-0.1c0.1,0,0.2,0,0.2,0
	c0,0,0,0,0.1,0c0,0,0,0,0,0c0,0,0,0,0,0c0,0,0,0,0,0c0,0,0,0,0.1,0L315.3,474.6z M307.5,473.4c-3.1-2.4-4.3-5.5-4.4-5.7l-1.9,0.7
	c0.1,0.3,1.5,3.8,5,6.5L307.5,473.4z M303.2,468.1C303.2,468.1,303.2,468.1,303.2,468.1L303.2,468.1L303.2,468.1L303.2,468.1
	L303.2,468.1L303.2,468.1L303.2,468.1L303.2,468.1L303.2,468.1L303.2,468.1L303.2,468.1L303.2,468.1L303.2,468.1L303.2,468.1
	L303.2,468.1L303.2,468.1L303.2,468.1C303.2,468.1,303.2,468.1,303.2,468.1L303.2,468.1L303.2,468.1L303.2,468.1L303.2,468.1
	L303.2,468.1L303.2,468.1L303.2,468.1L303.2,468.1L303.2,468.1L303.2,468.1L303.2,468.1L303.2,468.1L303.2,468.1L303.2,468.1
	L303.2,468.1L303.2,468.1C303.2,468.1,303.2,468.1,303.2,468.1L303.2,468.1L303.2,468.1L303.2,468.1L303.2,468.1L303.2,468.1
	L303.2,468.1L303.2,468.1L303.2,468.1L303.2,468.1L303.2,468.1L303.2,468.1L303.2,468.1L303.2,468.1L303.2,468.1L303.2,468.1
	L303.2,468.1L303.2,468.1C303.2,468.1,303.2,468.1,303.2,468.1L303.2,468.1L303.2,468.1L303.2,468.1L303.2,468.1L303.2,468.1
	L303.2,468.1L303.2,468.1L303.2,468.1L303.2,468.1L303.2,468.1L303.2,468.1L303.2,468.1L303.2,468.1L303.2,468.1L303.2,468.1
	L303.2,468.1L303.2,468.1L303.2,468.1L303.2,468.1L303.2,468.1L303.2,468.1L303.2,468.1L303.2,468.1L303.2,468.1L303.2,468.1
	L303.2,468.1L303.2,468.1L303.2,468.1L303.2,468.1L303.2,468.1L303.2,468.1L303.2,468.1L303.2,468.1
	C303.2,468.1,303.2,468.1,303.2,468.1L303.2,468.1L303.2,468.1L303.2,468.1L303.2,468.1L303.2,468.1L303.2,468.1L303.2,468.1
	L303.2,468.1L303.2,468.1L303.2,468.1L303.2,468.1L303.2,468.1L303.2,468.1L303.2,468.1L303.2,468.1L303.2,468.1L303.2,468.1
	L303.2,468.1L303.2,468.1L303.2,468.1L303.2,468.1L303.2,468.1L303.2,468.1L303.2,468.1L303.2,468.1L303.2,468.1L303.2,468.1
	L303.2,468.1L303.2,468.1L303.2,468.1L303.2,468.1L303.2,468.1L303.2,468.1L303.2,468.1L303.2,468.1L303.2,468.1L303.2,468.1
	L303.2,468.1L303.2,468.1L303.2,468.1L303.2,468.1L303.2,468.1L303.2,468.1L303.2,468.1L303.2,468.1L303.2,468.1L303.2,468.1
	L303.2,468.1L303.2,468.1L303.2,468.1L303.2,468.1L303.2,468.1L303.2,468.1C303.2,468,303.2,468,303.2,468.1L303.2,468.1
	L303.2,468.1L303.2,468.1L303.2,468.1L303.2,468.1L303.2,468.1L303.2,468.1L303.2,468.1L303.2,468.1L303.2,468.1L303.2,468.1
	L303.2,468.1L303.2,468.1L303.2,468.1L303.2,468.1L303.2,468.1L303.2,468.1L303.2,468.1L303.2,468.1L303.2,468.1L303.2,468.1
	L303.2,468.1L303.2,468.1L303.2,468.1L303.2,468.1L303.2,468.1L303.2,468.1L303.2,468.1L303.2,468.1L303.2,468.1L303.2,468.1
	L303.2,468.1L303.2,468.1L303.2,468.1L303.2,468.1L303.2,468.1L303.2,468.1C303.2,468,303.2,468,303.2,468.1L303.2,468.1
	L303.2,468.1L303.2,468.1L303.2,468.1L303.2,468.1L303.2,468.1L303.2,468.1L303.2,468.1L303.2,468.1L303.2,468.1L303.2,468.1
	L303.2,468.1L303.2,468.1L303.2,468.1L303.2,468.1L303.2,468.1L303.2,468.1L303.2,468.1L303.2,468.1L303.2,468.1L303.2,468.1
	L303.2,468.1L303.2,468.1L303.2,468.1L303.2,468.1L303.2,468.1L303.2,468.1L303.2,468.1L303.2,468.1L303.2,468.1L303.2,468.1
	L303.2,468.1L303.2,468.1L303.2,468.1L303.2,468.1L303.2,468.1L303.2,468.1L303.2,468.1L303.2,468.1
	C303.2,468,303.2,468,303.2,468.1L303.2,468.1L303.2,468.1L303.2,468.1L303.2,468.1L303.2,468.1L303.2,468.1L303.2,468.1
	L303.2,468.1L303.2,468.1L303.2,468.1L303.2,468.1L303.2,468.1L303.2,468.1L303.2,468.1L303.2,468.1L303.2,468.1L303.2,468.1
	L303.2,468.1L303.2,468.1L303.2,468.1L303.2,468.1L303.2,468.1L303.2,468.1L303.2,468.1L303.2,468.1L303.2,468.1L303.2,468.1
	L303.2,468.1L303.2,468.1L303.2,468.1L303.2,468.1L303.2,468.1L303.2,468.1L303.2,468.1L303.2,468.1L303.2,468.1L303.2,468.1
	L303.2,468.1L303.2,468.1L303.2,468.1L303.2,468.1L303.2,468.1L303.2,468.1C303.2,468,303.2,468,303.2,468.1L303.2,468.1
	L303.2,468.1L303.2,468.1L303.2,468.1L303.2,468.1L303.2,468.1L303.2,468.1L303.2,468.1L303.2,468.1L303.2,468.1L303.2,468.1
	L303.2,468.1L303.2,468.1L303.2,468.1L303.2,468.1L303.2,468.1L303.2,468.1L303.2,468.1L303.2,468.1L303.2,468.1L303.2,468.1
	L303.2,468.1L303.2,468.1C303.2,468,303.2,468,303.2,468.1L303.2,468.1L303.2,468.1L303.2,468.1L303.2,468.1L303.2,468.1
	L303.2,468.1L303.2,468.1L303.2,468.1L303.2,468.1L303.2,468.1L303.2,468.1L303.2,468.1L303.2,468.1L303.2,468.1L303.2,468.1
	L303.2,468.1L303.2,468.1L303.2,468.1L303.2,468.1L303.2,468.1L303.2,468.1L303.2,468.1L303.2,468.1L303.2,468.1L303.2,468.1
	C303.2,468,303.2,468,303.2,468.1L303.2,468.1L303.2,468.1L303.2,468.1L303.2,468.1L303.2,468.1L303.2,468.1L303.2,468.1
	L303.2,468.1L303.2,468.1L303.2,468.1L303.2,468.1L303.2,468.1L303.2,468.1L303.2,468.1L303.2,468.1L303.2,468.1L303.2,468.1
	L303.2,468.1L303.2,468.1L303.2,468.1L303.2,468.1L303.2,468.1L303.2,468.1L303.2,468.1L303.2,468.1L303.2,468.1L303.2,468.1
	L303.2,468.1C303.2,468,303.2,468,303.2,468.1L303.2,468.1L303.2,468.1L303.2,468.1L303.2,468.1L303.2,468.1L303.2,468.1
	L303.2,468.1L303.2,468.1L303.2,468.1L303.2,468.1L303.2,468.1L303.2,468.1L303.2,468.1L303.2,468.1L303.2,468.1L303.2,468.1
	L303.2,468.1L303.2,468.1L303.2,468.1L303.2,468.1L303.2,468.1L303.2,468.1L303.2,468.1L303.2,468.1L303.2,468.1L303.2,468.1
	L303.2,468.1L303.2,468.1L303.2,468.1L303.2,468.1L303.2,468.1L303.2,468.1L303.2,468.1L303.2,468.1L303.2,468.1L303.2,468.1
	L303.2,468.1L303.2,468.1L303.2,468.1L303.2,468.1L303.2,468.1L303.2,468.1L303.2,468.1L303.2,468.1L303.2,468.1L303.2,468.1
	L303.2,468.1L303.2,468.1L303.2,468.1L303.2,468.1L303.2,468.1L303.2,468.1L303.2,468.1L303.2,468.1L303.2,468.1L303.2,468.1
	L303.2,468.1L303.2,468.1L303.2,468.1L303.2,468.1L303.2,468.1L303.2,468.1L303.2,468.1L303.2,468.1L303.2,468.1L303.2,468.1
	L303.2,468.1L303.2,468.1L303.2,468.1L303.2,468.1L303.2,468.1L303.2,468.1L303.2,468.1L303.2,468.1L303.2,468.1L303.2,468.1
	C303.2,468,303.2,468,303.2,468.1L303.2,468.1L303.2,468.1L303.2,468.1L303.2,468.1L303.2,468.1L303.2,468.1L303.2,468.1
	L303.2,468.1L303.2,468.1L303.2,468.1L303.2,468.1L303.2,468.1L303.2,468.1L303.2,468.1L303.2,468.1L303.2,468.1L303.2,468.1
	L303.2,468.1L303.2,468.1L303.2,468.1L303.2,468.1L303.2,468.1L303.2,468.1L303.2,468.1L303.2,468.1L303.2,468.1L303.2,468.1
	L303.2,468.1L303.2,468.1L303.2,468.1L303.2,468.1L303.2,468.1L303.2,468.1L303.2,468.1L303.2,468.1L303.2,468.1L303.2,468.1
	L303.2,468.1L303.2,468.1L303.2,468.1L303.2,468.1L303.2,468.1L303.2,468.1L303.2,468.1L303.2,468.1L303.2,468.1L303.2,468.1
	L303.2,468.1L303.2,468.1L303.2,468.1L303.2,468.1L303.2,468.1L303.2,468.1L303.2,468.1L303.2,468.1L303.2,468.1L303.2,468.1
	L303.2,468.1L303.2,468.1L303.2,468.1L303.2,468.1L303.2,468.1L303.2,468.1L303.2,468.1L303.2,468.1L303.2,468.1L303.2,468.1
	L303.2,468.1L303.2,468.1L303.2,468.1L303.2,468.1L303.2,468.1L303.2,468.1L303.2,468.1L303.2,468.1L303.2,468.1L303.2,468.1
	L303.2,468.1L303.2,468.1L303.2,468.1L303.2,468.1L303.2,468.1L303.2,468.1L303.2,468.1L303.2,468.1L303.2,468.1L303.2,468.1
	L303.2,468.1L303.2,468.1L303.2,468.1L303.2,468.1L303.2,468.1c0,0,0,0-1,0s-1,0-1,0l0,0l0,0l0,0l0,0l0,0l0,0l0,0l0,0l0,0l0,0l0,0
	l0,0l0,0l0,0l0,0l0,0l0,0l0,0l0,0l0,0l0,0l0,0l0,0l0,0l0,0l0,0l0,0l0,0l0,0l0,0l0,0l0,0l0,0l0,0l0,0l0,0l0,0l0,0l0,0l0,0l0,0l0,0
	l0,0l0,0l0,0l0,0l0,0l0,0l0,0l0,0l0,0l0,0l0,0l0,0l0,0l0,0l0,0l0,0l0,0l0,0l0,0l0,0l0,0l0,0l0,0l0,0l0,0l0,0l0,0l0,0l0,0l0,0l0,0
	l0,0l0,0l0,0l0,0l0,0l0,0l0,0l0,0l0,0l0,0l0,0l0,0l0,0l0,0l0,0l0,0l0,0l0,0l0,0c0,0,0,0,0,0l0,0l0,0l0,0l0,0l0,0l0,0l0,0l0,0l0,0
	l0,0l0,0l0,0l0,0l0,0l0,0l0,0l0,0l0,0l0,0l0,0l0,0l0,0l0,0l0,0l0,0l0,0l0,0l0,0l0,0l0,0l0,0l0,0l0,0l0,0l0,0l0,0l0,0l0,0l0,0l0,0
	l0,0l0,0v0l0,0l0,0l0,0l0,0l0,0l0,0l0,0l0,0l0,0l0,0l0,0l0,0l0,0l0,0l0,0l0,0l0,0l0,0l0,0l0,0l0,0l0,0l0,0l0,0l0,0l0,0l0,0l0,0l0,0
	l0,0l0,0l0,0l0,0c0,0,0,0,0,0l0,0l0,0l0,0l0,0l0,0l0,0l0,0l0,0l0,0l0,0l0,0l0,0l0,0l0,0l0,0l0,0l0,0l0,0l0,0l0,0l0,0l0,0l0,0l0,0
	l0,0l0,0l0,0l0,0c0,0,0,0,0,0l0,0l0,0l0,0l0,0l0,0l0,0l0,0l0,0l0,0l0,0l0,0l0,0l0,0l0,0l0,0l0,0l0,0l0,0l0,0l0,0l0,0l0,0l0,0l0,0
	l0,0c0,0,0,0,0,0l0,0l0,0l0,0l0,0l0,0l0,0l0,0l0,0l0,0l0,0l0,0l0,0l0,0l0,0l0,0l0,0l0,0l0,0l0,0l0,0l0,0l0,0l0,0c0,0,0,0,0,0l0,0
	l0,0l0,0l0,0l0,0l0,0l0,0l0,0l0,0l0,0l0,0l0,0l0,0l0,0l0,0l0,0l0,0l0,0l0,0l0,0l0,0v0l0,0l0,0l0,0l0,0l0,0l0,0l0,0l0,0l0,0l0,0l0,0
	l0,0l0,0l0,0l0,0l0,0l0,0l0,0l0,0l0,0l0,0c0,0,0,0,0,0l0,0l0,0l0,0l0,0l0,0l0,0l0,0l0,0l0,0l0,0l0,0l0,0l0,0l0,0l0,0l0,0l0,0l0,0
	l0,0v0l0,0l0,0l0,0l0,0l0,0l0,0l0,0l0,0l0,0l0,0l0,0l0,0l0,0l0,0l0,0l0,0l0,0l0,0l0,0c0,0,0,0,0,0l0,0l0,0l0,0l0,0l0,0l0,0l0,0l0,0
	l0,0l0,0l0,0l0,0l0,0l0,0l0,0l0,0l0,0l0,0v0l0,0l0,0l0,0l0,0l0,0l0,0l0,0l0,0l0,0l0,0l0,0l0,0l0,0l0,0l0,0l0,0l0,0l0,0c0,0,0,0,0,0
	l0,0l0,0l0,0l0,0l0,0l0,0l0,0l0,0l0,0l0,0l0,0l0,0l0,0l0,0l0,0l0,0l0,0v0l0,0l0,0l0,0l0,0l0,0l0,0l0,0l0,0l0,0l0,0l0,0l0,0l0,0l0,0
	l0,0l0,0l0,0v0l0,0l0,0l0,0l0,0l0,0l0,0l0,0l0,0l0,0l0,0l0,0l0,0l0,0l0,0l0,0l0,0l0,0c0,0,0,0,0,0l0,0l0,0l0,0l0,0l0,0l0,0l0,0l0,0
	l0,0l0,0l0,0l0,0l0,0l0,0l0,0l0,0v0l0,0l0,0l0,0l0,0l0,0l0,0l0,0l0,0l0,0l0,0l0,0l0,0l0,0l0,0l0,0l0,0c0,0,0,0,0,0l0,0l0,0l0,0l0,0
	l0,0l0,0l0,0l0,0l0,0l0,0l0,0l0,0l0,0l0,0l0,0l0,0l0,0c0,0,0,0,0,0l0,0l0,0l0,0l0,0l0,0l0,0l0,0l0,0l0,0l0,0l0,0l0,0l0,0l0,0l0,0
	l0,0c0,0,0,0,0,0l0,0l0,0l0,0l0,0l0,0l0,0l0,0l0,0l0,0l0,0l0,0l0,0l0,0l0,0l0,0l0,0c0,0,0,0,0,0H303.2z M303.2,467.7L303.2,467.7
	l-1.9,0.5l0,0.1L303.2,467.7z M302.6,467L302.6,467l-0.9,1.8l0.1,0L302.6,467z M302.5,467c-0.3-0.1-24-9.7-54.8-13.6l-0.3,2
	c15.2,1.9,28.8,5.3,38.5,8.2c4.9,1.4,8.8,2.8,11.5,3.7c1.4,0.5,2.4,0.9,3.1,1.2c0.4,0.1,0.6,0.2,0.8,0.3c0.1,0,0.2,0.1,0.2,0.1
	c0,0,0,0,0.1,0c0,0,0,0,0,0L302.5,467z M247.4,453.4c-0.5,0.1-0.9,0.2-1.4,0.3l0.3,2c0.5-0.1,1-0.2,1.5-0.3L247.4,453.4z"/>
<path class="st3" d="M95.3,568c-1.4,0.1-2.8-4.8-1.9-11.1c1.6-3.9,5-9.3,11.5-15.4c0.2-0.1,0.3-0.2,0.3-0.2s0.4,5.3-3.8,11.1
	C97.2,558,96.9,567.9,95.3,568z"/>
<path class="st3" d="M121.3,573.3c11.5,3.3,23.1,6.7,23.9,12c0.9,5.3-2.4,12.5-8.7,12.8c-6.2,0.3-33.2-8.3-37.6-16.7
	c-4.3-8.4-2.8-13.7,1.4-13.8C104.6,567.6,121.3,573.3,121.3,573.3z"/>
<path class="st4" d="M99,581.4c-4.3-8.4-2.8-13.7,1.4-13.8c0.4,0,0.8,0,1.4,0.1c-1.3,1.4-2.6,3.6-1.8,6.2c1.5,4.8,3.8,13,24.2,18.2
	c8.5,2.2,14.2,3.1,17.8,3.4c-1.4,1.4-3.3,2.4-5.5,2.5C130.3,598.4,103.4,589.8,99,581.4z"/>
<path class="st3" d="M177.8,592.3c0,0,2.9,1.5,2.5,3.8c-0.5,2.3-1.8,10-3.4,10.8c-1.5,0.8-15.9,1.4-18.5,0.3
	c-2.6-1.1-3.5-3.9-3.5-3.9s0.7-6.6,5-8.2C164.3,593.4,177.8,592.3,177.8,592.3z"/>
<path class="st3" d="M177.5,611.3c0,0-1.7,3.5-2.5,3.6c-0.8,0-10.4,0.6-10.4,0.6s-2.5-1.4-3.3-3.3
	C161.4,612.2,169.3,612.6,177.5,611.3z"/>
<path class="st4" d="M96.6,588.7c0,0-3.7-0.9-3.6-7.6c0.2-1.6,0.6-3,1.1-4.2C97.8,585.3,96.6,588.7,96.6,588.7z"/>
<path class="st3" d="M94.6,577.8c1.3,3.1,1.9,5.5,2.1,7.3c0,0-2.1,0.8-2.9-2.5C93.4,581.1,94,579.1,94.6,577.8z"/>
<path class="st16" d="M236.2,532.7L236.2,532.7l0.3-0.1l0.1-0.3l0,0v0l0,0h0l0,0c0,0,0,0,0,0c0,0,0-0.1,0-0.2c0-0.1,0.1-0.3,0.2-0.6
	c0.2-0.5,0.5-1.2,1-1.9c1-1.4,2.6-3.1,5.3-3.7c2.7-0.7,5.6,0,7.8,1.1c1.1,0.5,2,1.2,2.6,1.7c0.3,0.3,0.5,0.5,0.6,0.8
	c0.1,0.2,0.1,0.3,0.1,0.4v0c-0.2,0.8-0.3,2.2-0.5,3.4c-0.1,0.6-0.1,1.2-0.2,1.6c0,0.1,0,0.3,0,0.4c-7.5,3.1-13.3,3.1-17.1,2.3
	c-2-0.4-3.4-1-4.4-1.5c-0.5-0.2-0.9-0.5-1.1-0.6c0,0,0,0,0,0c0.1-0.2,0.3-0.4,0.7-0.7c0.5-0.4,1.2-0.7,1.9-1
	c0.7-0.3,1.4-0.5,1.9-0.7c0.3-0.1,0.5-0.2,0.6-0.2C236.1,532.8,236.1,532.8,236.2,532.7L236.2,532.7L236.2,532.7L236.2,532.7
	L236.2,532.7L236.2,532.7z"/>
<path class="st1" d="M236.1,532.3c0,0,1.3-5.4,7-6.8c5.6-1.4,12.1,3,11.8,4.5c-0.3,1.6-0.8,5.6-0.8,5.6c-6.2,2.6-11.3,3.1-15.1,2.8
	c-0.9-0.8-1.7-1.5-2.1-1.9C235.4,535,236.1,532.3,236.1,532.3z"/>
<path class="st12" d="M254.4,532.7c-0.2,1.5-0.4,2.9-0.4,2.9c-15.5,6.5-23.7,0-23.7,0S247.4,539.7,254.4,532.7z"/>
<path class="st11" d="M272.3,455.7c-1.5-0.3-5.9,2.1-7.3,5.5c-0.3,0.9,5.8,1.7,7.8-0.5c1.1-1.2-0.6-1.9-0.6-1.9L272.3,455.7z"/>
<path class="st12" d="M266.7,460.5c-0.1,0.5,2.9,2,6.4-0.4c0,0.2-0.2,0.4-0.4,0.6c-2,2.2-8.1,1.4-7.8,0.5c1.3-3.4,5.8-5.8,7.3-5.5
	C272.3,455.7,267.4,457.5,266.7,460.5z"/>
<path class="st16" d="M309.2,509.6L309.2,509.6l-6.7,3.1l0,0c-0.8,0.4-1.7,0-2-0.7c-0.4-0.8,0-1.7,0.7-2v0l6.7-3.1h0
	c0.8-0.4,1.7,0,2,0.7l0,0l0,0C310.3,508.4,309.9,509.3,309.2,509.6z"/>
<path class="st3" d="M305.1,512.3c-1.4,0-2.5-1.2-2.5-2.6c0-1.4,1.2-2.6,2.6-2.5c1.4,0,2.5,1.2,2.5,2.6
	C307.7,511.2,306.5,512.3,305.1,512.3z"/>
<path class="st1" d="M301.7,512.8l8.2-3.8c0.6-0.3,0.9-1,0.6-1.7c-0.3-0.6-1-0.9-1.7-0.6l-8.2,3.8c-0.6,0.3-0.9,1-0.6,1.7
	C300.3,512.8,301,513.1,301.7,512.8z"/>
<path class="st16" d="M272.3,532L272.3,532l-8,3.7c-0.8,0.4-1.8,0-2.1-0.8l0,0l0,0c-0.4-0.8,0-1.7,0.8-2.1l0,0l8-3.7l0,0
	c0.8-0.4,1.8,0,2.1,0.8l0,0l0,0C273.4,530.6,273.1,531.6,272.3,532z"/>
<path class="st3" d="M267.4,535.3c-1.6,0-2.8-1.3-2.8-2.9c0-1.6,1.3-2.9,2.9-2.9c1.6,0,2.8,1.3,2.8,2.9
	C270.3,534,269,535.3,267.4,535.3z"/>
<path class="st1" d="M263.6,535.8l9.2-4.3c0.7-0.3,1-1.2,0.7-1.9c-0.3-0.7-1.2-1-1.9-0.7l-9.2,4.3c-0.7,0.3-1,1.2-0.7,1.9
	C262,535.8,262.9,536.1,263.6,535.8z"/>
<path class="st3" d="M142.8,516.2c4.1-6,15.6-21.2,31.5-32c1.4-0.2,2.7-0.1,3.5,0.6c2.3,1.9,16.9,9.1,26.1,11.4
	c9.3,2.3,24.9,4.7,26.9,5.1c2,0.5,4.2,0.5,4.7,1.4c0.4,0.7,1,2.1-1,4.8c-2,2.7-6.4,10.1-9.8,17.8c-3.4,7.7-4.7,13.2-13.6,13.6
	C202.5,539.1,148.4,528.5,142.8,516.2z"/>
<path class="st3" d="M196.1,570.1c0,0-8.8-4-27.1,5c-18.3,9-17.6,11.4-16,13.9c0.4,0.6,21.1,0,28.7-4
	C189.3,580.9,189,575.3,196.1,570.1z"/>
<path class="st4" d="M158.4,607.1c-2.6-1.1-3.5-3.9-3.5-3.9s0.7-6.6,5-8.2c0.2-0.1,0.4-0.2,0.7-0.2c-2.8,2.3-4.1,4.2-4.5,8.5
	c1.4,5.3,14,3,17.7,2.7c3.6-0.4,4.8-5.7,5-10.8c0-1.3-0.7-2.2-1.8-2.8c0.6,0,0.9-0.1,0.9-0.1s2.9,1.5,2.5,3.8
	c-0.5,2.3-1.8,10-3.4,10.8C175.4,607.7,161,608.3,158.4,607.1z"/>
<path class="st4" d="M165.2,613.9c0,0,7.8,0,8.5-0.5c0.5-0.3,1.2-1.2,1.6-1.8c0.7-0.1,1.5-0.2,2.2-0.3c0,0-1.7,3.5-2.5,3.6
	c-0.8,0-10.4,0.6-10.4,0.6s-2.5-1.4-3.3-3.3c0,0,0.6,0,1.5,0.1C163.8,613.1,165.2,613.9,165.2,613.9z"/>
<path class="st3" d="M320.2,552c-5.3-0.8-8.5-9-7.1-18.4c1.4-9.4,6.7-16.4,12-15.6s8.5,9,7.1,18.4
	C330.9,545.8,325.5,552.8,320.2,552z"/>
<path class="st0" d="M317.4,534.2c0-0.3,0.1-0.7,0.2-1c0,0,0-0.1,0-0.1c0.1-0.3,0.1-0.6,0.2-1c0,0,0,0,0-0.1c0,0,0,0,0-0.1
	c0.1-0.3,0.1-0.6,0.2-0.9c0-0.1,0-0.2,0.1-0.3c0,0,0,0,0,0c0.1-0.2,0.1-0.5,0.2-0.7c0,0,0,0,0,0c0-0.1,0.1-0.2,0.1-0.3
	c0.1-0.2,0.2-0.5,0.3-0.7c0,0,0,0,0-0.1c0,0,0-0.1,0-0.1c0-0.1,0.1-0.2,0.1-0.3c0-0.1,0.1-0.1,0.1-0.2c0-0.1,0.1-0.2,0.1-0.3
	c0,0,0-0.1,0.1-0.1c0,0,0,0,0-0.1c0.1-0.2,0.2-0.4,0.3-0.6c0,0,0,0,0,0c0,0,0-0.1,0.1-0.1c0.1-0.1,0.1-0.2,0.2-0.4c0,0,0,0,0,0
	c0.1-0.1,0.1-0.3,0.2-0.4c0,0,0,0,0,0c0,0,0-0.1,0.1-0.1c0.1-0.1,0.1-0.2,0.2-0.3c0,0,0-0.1,0.1-0.1c0.1-0.1,0.1-0.2,0.2-0.3
	c0,0,0,0,0-0.1c0,0,0,0,0-0.1c0.1-0.1,0.2-0.3,0.3-0.4c0,0,0,0,0,0c0.1-0.1,0.2-0.3,0.3-0.4c0,0,0,0,0,0c0.1-0.1,0.2-0.2,0.3-0.3
	c0,0,0-0.1,0.1-0.1c0.1-0.1,0.2-0.2,0.3-0.3c0,0,0,0,0,0c0.3-0.3,0.7-0.6,1-0.8c0,0,0,0,0,0c0,0,0.1,0,0.1-0.1
	c0.1-0.1,0.2-0.1,0.3-0.2c0,0,0.1,0,0.1-0.1c0,0,0,0,0,0c0,0,0.1,0,0.1-0.1c0,0,0.1,0,0.1,0c0,0,0.1,0,0.1,0c0,0,0,0,0,0
	c0,0,0.1,0,0.1-0.1c0,0,0,0,0.1,0c0,0,0.1,0,0.1,0c0.1,0,0.2-0.1,0.3-0.1c0,0,0,0,0,0c0.1,0,0.1,0,0.2-0.1c0,0,0.1,0,0.1,0
	c0,0,0.1,0,0.1,0c3.7,0.5,5.8,6.9,4.8,14.1c-0.9,6.4-4,11.4-7.3,12.1c0,0,0,0,0,0c0,0-0.1,0-0.1,0
	C318.5,547.8,316.4,541.5,317.4,534.2z"/>
<path class="st3" d="M204.8,621.4c-10.1-3.7-14.5-17-9.8-29.6c4.7-12.6,16.7-19.8,26.8-16.1c10.1,3.7,14.5,17,9.8,29.6
	C226.9,618,214.9,625.2,204.8,621.4z"/>
<path class="st0" d="M219.5,579.8c7.6,2.4,11.4,12.1,8.5,22c-2.9,10-11.3,16.6-19.2,15.2c-7.6-2.4-11.4-12.1-8.5-22
	C203.2,585.1,211.7,578.4,219.5,579.8z"/>
<path class="st4" d="M201.1,596.1c-0.5,2-0.7,4-0.6,6c0.1,2.1,0.6,3.9,1.3,5.6c0.1,0.1,0.2,0.1,0.3,0.1c0,0,0.1,0,0.1-0.1l2.6-2.5
	c-0.1-0.3-0.2-0.6-0.3-0.8c-0.3-1-0.5-2-0.6-3.2c-0.1-1.1,0-2.2,0.2-3.3c0.1-0.3,0.1-0.7,0.2-1l-2.8-1c0,0-0.1,0-0.1,0
	C201.2,595.9,201.1,596,201.1,596.1z"/>
<path class="st4" d="M225.1,598.8c-0.1,0.3-0.1,0.7-0.2,1l2.8,1c0,0,0.1,0,0.1,0c0.1,0,0.2-0.1,0.2-0.3c0.5-1.9,0.7-4,0.5-6
	c-0.1-2.1-0.6-3.9-1.3-5.5c-0.1-0.1-0.1-0.2-0.3-0.1c0,0-0.1,0-0.1,0.1l-2.6,2.5c0.1,0.3,0.2,0.6,0.3,0.9c0.3,1,0.5,2,0.6,3.1
	C225.3,596.7,225.2,597.8,225.1,598.8z"/>
<path class="st4" d="M215.6,582c-0.1,0-0.3,0.2-0.2,0.4l0.2,3.5c0.3,0,0.6,0,0.9,0c1.9,0.1,3.7,0.7,5.1,1.9c0.2,0.2,0.4,0.4,0.6,0.6
	l2.6-2.5c0.1-0.1,0.1-0.3,0-0.5C222.4,582.9,219.2,581.7,215.6,582C215.7,582,215.6,582,215.6,582z"/>
<path class="st4" d="M222.8,604.9c-1.2,1.9-2.8,3.5-4.6,4.6c-0.3,0.2-0.6,0.3-0.9,0.5l0.2,3.5c0,0.2,0.1,0.3,0.3,0.2c0,0,0,0,0,0
	c3.5-1.6,6.4-4.5,8.3-8.1c0.1-0.2,0-0.4-0.1-0.4l-2.8-1C223.1,604.4,222.9,604.6,222.8,604.9z"/>
<path class="st0" d="M212,590.9c0.1-0.1,0.2-0.2,0.2-0.3l-0.2-3.7c-0.3,0.1-0.6,0.3-0.8,0.4c-1.9,1.1-3.5,2.7-4.7,4.6
	c-0.2,0.3-0.4,0.6-0.5,0.9l2.9,1.1c0,0,0.1,0,0.1,0c0.1,0,0.1-0.1,0.2-0.1C209.9,592.6,210.8,591.6,212,590.9z"/>
<path class="st4" d="M206.4,591.9c1.2-1.9,2.8-3.5,4.7-4.6c0.3-0.2,0.6-0.3,0.8-0.4l-0.2-3.5c0-0.2-0.2-0.3-0.3-0.2c0,0,0,0,0,0
	c-3.5,1.6-6.4,4.5-8.4,8.1c-0.1,0.2,0,0.4,0.1,0.4l2.8,1C206,592.5,206.2,592.2,206.4,591.9z"/>
<path class="st0" d="M221.6,587.8c-1.4-1.2-3.2-1.9-5.1-1.9c-0.3,0-0.6,0-0.9,0l0.2,3.7c0,0.1,0.1,0.2,0.2,0.2
	c1.2,0.1,2.3,0.5,3.2,1.2c0.1,0,0.1,0.1,0.2,0c0,0,0.1,0,0.1-0.1l2.6-2.6C222,588.2,221.8,588,221.6,587.8z"/>
<path class="st0" d="M217.2,605.9c-0.1,0.1-0.2,0.2-0.2,0.3l0.2,3.7c0.3-0.1,0.6-0.3,0.9-0.5c1.8-1.1,3.4-2.7,4.6-4.6
	c0.2-0.3,0.4-0.6,0.5-0.9l-2.9-1.1c0,0-0.1,0-0.1,0c-0.1,0-0.1,0.1-0.2,0.1C219.3,604.3,218.3,605.2,217.2,605.9z"/>
<path class="st0" d="M221.9,598.5c0,0.1,0,0.3,0.1,0.3l2.9,1.1c0.1-0.3,0.1-0.7,0.2-1c0.2-1.1,0.2-2.2,0.1-3.3
	c-0.1-1.1-0.3-2.2-0.6-3.1c-0.1-0.3-0.2-0.6-0.3-0.9l-2.6,2.6c-0.1,0.1-0.1,0.2-0.1,0.4c0.2,0.6,0.3,1.3,0.3,2
	C222,597.1,221.9,597.8,221.9,598.5z"/>
<path class="st4" d="M204.4,611c-0.1,0.1-0.2,0.3,0,0.5c2.4,2.5,5.6,3.7,9.1,3.4c0,0,0,0,0,0c0.1,0,0.2-0.2,0.2-0.4l-0.2-3.5
	c-0.3,0-0.6,0-0.8,0c-1.9,0-3.7-0.7-5.1-1.9c-0.2-0.2-0.4-0.4-0.6-0.6L204.4,611z"/>
<path class="st0" d="M209.7,605.9c0,0-0.1,0-0.1,0.1l-2.6,2.6c0.2,0.2,0.4,0.4,0.6,0.6c1.4,1.2,3.2,1.8,5.1,1.9c0.3,0,0.6,0,0.8,0
	l-0.2-3.6c0-0.1-0.1-0.2-0.2-0.2c-1.2-0.1-2.3-0.5-3.2-1.2C209.9,605.8,209.8,605.8,209.7,605.9z"/>
<path class="st0" d="M204.1,598c-0.2,1.1-0.2,2.2-0.2,3.3c0.1,1.1,0.3,2.2,0.6,3.2c0.1,0.3,0.2,0.6,0.3,0.8l2.6-2.6
	c0.1-0.1,0.1-0.2,0.1-0.4c-0.2-0.6-0.3-1.3-0.3-2c0-0.7,0-1.4,0.1-2c0-0.1,0-0.3-0.1-0.3l-2.9-1.1
	C204.2,597.3,204.1,597.6,204.1,598z"/>
<path class="st11" d="M215.8,616.9c1.7-0.5,3.5-1.3,5.3-2.4c4.6-3,8-8.2,9.1-14c2.7-13.7-6.3-23.3-16.9-20.5
	c-1.7,0.5-3.5,1.2-5.3,2.4c-4.6,3-8,8.2-9.2,14C196.2,610.1,205.2,619.7,215.8,616.9z M212.1,590.5c0,0.1-0.1,0.3-0.2,0.3
	c-1.1,0.7-2.1,1.7-2.9,2.8c0,0.1-0.1,0.1-0.2,0.1c0,0-0.1,0-0.1,0l-2.9-1.1l-2.8-1c-0.1,0-0.2-0.3-0.1-0.4c1.9-3.6,4.9-6.6,8.4-8.1
	c0,0,0,0,0,0c0.1,0,0.3,0.1,0.3,0.2l0.2,3.5L212.1,590.5z M224.7,585.9l-2.6,2.5l-2.6,2.6c0,0-0.1,0.1-0.1,0.1c-0.1,0-0.1,0-0.2,0
	c-0.9-0.7-2-1.1-3.2-1.2c-0.1,0-0.2-0.1-0.2-0.2l-0.2-3.6l-0.2-3.5c0-0.2,0.1-0.3,0.2-0.4c0,0,0,0,0,0c3.6-0.3,6.8,1,9.1,3.4
	C224.9,585.5,224.9,585.8,224.7,585.9z M227.7,600.9l-2.8-1l-2.9-1.1c-0.1,0-0.2-0.2-0.2-0.3c0.1-0.7,0.1-1.3,0.1-2
	c-0.1-0.7-0.2-1.4-0.4-2c0-0.1,0-0.3,0.1-0.4l2.6-2.6l2.6-2.5c0,0,0.1-0.1,0.1-0.1c0.1,0,0.2,0,0.2,0.1c0.7,1.6,1.2,3.5,1.3,5.5
	c0.1,2-0.1,4-0.5,6c0,0.1-0.1,0.2-0.2,0.3C227.8,600.9,227.7,600.9,227.7,600.9z M217,606.3c0-0.1,0.1-0.3,0.2-0.3
	c1.1-0.7,2.1-1.7,2.9-2.8c0.1-0.1,0.1-0.1,0.2-0.1c0,0,0.1,0,0.1,0l2.9,1.1l2.8,1c0.2,0,0.2,0.3,0.1,0.4c-1.9,3.6-4.9,6.6-8.3,8.1
	c0,0,0,0,0,0c-0.1,0-0.3-0.1-0.3-0.2l-0.2-3.5L217,606.3z M204.4,611l2.6-2.5l2.6-2.6c0,0,0.1-0.1,0.1-0.1c0.1,0,0.1,0,0.2,0
	c0.9,0.7,2,1.1,3.2,1.2c0.1,0,0.2,0.1,0.2,0.2l0.2,3.6l0.2,3.5c0,0.2-0.1,0.3-0.2,0.4c0,0,0,0,0,0c-3.6,0.3-6.8-0.9-9.1-3.4
	C204.2,611.3,204.3,611.1,204.4,611z M201.1,596.1c0-0.1,0.1-0.2,0.2-0.3c0,0,0.1,0,0.1,0l2.8,1l2.9,1.1c0.1,0,0.2,0.2,0.2,0.3
	c-0.1,0.7-0.1,1.4-0.1,2.1c0.1,0.7,0.2,1.4,0.4,2c0,0.1,0,0.3-0.1,0.4l-2.6,2.6l-2.6,2.5c0,0-0.1,0.1-0.1,0.1c-0.1,0-0.2,0-0.3-0.1
	c-0.7-1.7-1.2-3.5-1.3-5.6C200.4,600.1,200.6,598.1,201.1,596.1z"/>
<path class="st0" d="M219,597.2c0.2,2.8-1.7,5.6-4.1,6.3c-2.5,0.7-4.6-1.1-4.8-3.9c-0.2-2.8,1.7-5.6,4.1-6.3
	C216.7,592.7,218.8,594.4,219,597.2z"/>
<path class="st4" d="M328.9,532.2c0,0.2,0,0.5,0.1,0.7l1.4-0.2c0,0,0,0,0.1,0c0,0,0.1-0.1,0.1-0.2c-0.1-1.3-0.2-2.6-0.6-3.8
	c-0.4-1.2-0.8-2.2-1.4-3c0-0.1-0.1,0-0.1,0c0,0,0,0,0,0.1l-0.8,2.3c0.1,0.1,0.2,0.3,0.3,0.4c0.3,0.5,0.5,1.1,0.7,1.7
	C328.7,530.8,328.8,531.5,328.9,532.2z"/>
<path class="st4" d="M317.7,538.1c0,1.3,0.2,2.6,0.6,3.8c0.3,1.2,0.8,2.2,1.4,3c0,0,0.1,0,0.1,0c0,0,0,0,0.1-0.1l0.8-2.3
	c-0.1-0.1-0.2-0.3-0.3-0.4c-0.3-0.5-0.5-1.1-0.7-1.7c-0.2-0.7-0.3-1.4-0.4-2.1c0-0.2,0-0.5-0.1-0.7l-1.4,0.2c0,0,0,0-0.1,0
	C317.7,537.9,317.7,538,317.7,538.1z"/>
<path class="st4" d="M322.3,525c-0.1,0.1-0.1,0.2-0.1,0.3l0.6,2.1c0.1-0.1,0.2-0.2,0.4-0.3c0.9-0.6,1.8-0.7,2.6-0.4
	c0.1,0,0.2,0.1,0.4,0.1l0.8-2.3c0-0.1,0-0.3,0-0.3C325.5,523.4,323.9,523.6,322.3,525C322.3,524.9,322.3,524.9,322.3,525z"/>
<path class="st0" d="M326.3,539c0,0.1-0.1,0.2,0,0.3l0.6,2.2c0.1-0.2,0.2-0.4,0.3-0.5c0.7-1.2,1.2-2.7,1.5-4.2
	c0-0.2,0.1-0.5,0.1-0.7l-1.5,0.2c0,0,0,0-0.1,0c0,0-0.1,0.1-0.1,0.1C327,537.3,326.7,538.2,326.3,539z"/>
<path class="st4" d="M328.7,536.7c-0.3,1.5-0.8,3-1.5,4.2c-0.1,0.2-0.2,0.4-0.3,0.5l0.6,2.1c0,0.1,0.1,0.1,0.2,0c0,0,0,0,0,0
	c1.3-2,2.3-4.7,2.6-7.5c0-0.1,0-0.2-0.1-0.2l-1.4,0.2C328.8,536.2,328.7,536.4,328.7,536.7z"/>
<path class="st4" d="M319.5,533.8c0.3-1.5,0.8-3,1.5-4.2c0.1-0.2,0.2-0.3,0.3-0.5l-0.6-2.1c0-0.1-0.1-0.1-0.2,0c0,0,0,0,0,0
	c-1.4,2-2.3,4.7-2.6,7.5c0,0.1,0,0.2,0.1,0.2l1.4-0.2C319.4,534.3,319.5,534.1,319.5,533.8z"/>
<path class="st0" d="M327.4,533c0,0.1,0.1,0.2,0.1,0.1l1.4-0.2c0-0.2,0-0.5,0-0.7c-0.1-0.7-0.2-1.4-0.4-2c-0.2-0.7-0.4-1.2-0.7-1.7
	c-0.1-0.2-0.2-0.3-0.3-0.4l-0.8,2.4c0,0.1,0,0.2,0,0.2c0.2,0.3,0.3,0.7,0.4,1.1C327.2,532.2,327.3,532.6,327.4,533z"/>
<path class="st4" d="M321.2,546.1c0,0.1,0,0.3,0,0.3c1.4,0.8,3,0.5,4.6-0.8l0,0c0.1-0.1,0.1-0.2,0.1-0.3l-0.6-2.1
	c-0.1,0.1-0.2,0.2-0.4,0.3c-0.9,0.6-1.8,0.7-2.6,0.5c-0.1,0-0.3-0.1-0.4-0.1L321.2,546.1z"/>
<path class="st0" d="M321.9,531.5c0-0.1,0.1-0.2,0-0.3l-0.6-2.1c-0.1,0.2-0.2,0.3-0.3,0.5c-0.7,1.2-1.2,2.7-1.5,4.2
	c0,0.2-0.1,0.5-0.1,0.7l1.5-0.2c0,0,0,0,0.1,0c0,0,0-0.1,0.1-0.1C321.1,533.2,321.5,532.3,321.9,531.5z"/>
<path class="st0" d="M322.9,541.3C322.9,541.3,322.9,541.3,322.9,541.3l-0.9,2.5c0.1,0.1,0.2,0.1,0.4,0.2c0.8,0.3,1.7,0.1,2.6-0.5
	c0.1-0.1,0.2-0.2,0.4-0.3l-0.6-2.1c0-0.1-0.1-0.1-0.1-0.1C324.1,541.3,323.5,541.4,322.9,541.3C323,541.2,323,541.2,322.9,541.3z"/>
<path class="st0" d="M325.8,526.6c-0.8-0.3-1.7-0.1-2.6,0.4c-0.1,0.1-0.3,0.2-0.4,0.3l0.6,2.1c0,0.1,0.1,0.1,0.1,0.1
	c0.5-0.3,1.1-0.4,1.6-0.3c0,0,0.1,0,0.1,0c0,0,0,0,0-0.1l0.8-2.4C326,526.7,325.9,526.7,325.8,526.6z"/>
<path class="st0" d="M319.3,538.3c0.1,0.7,0.2,1.4,0.4,2.1c0.2,0.7,0.4,1.2,0.7,1.7c0.1,0.1,0.2,0.3,0.3,0.4l0.8-2.4
	c0-0.1,0-0.2,0-0.2c-0.2-0.3-0.3-0.7-0.4-1.1c-0.1-0.4-0.2-0.8-0.2-1.3c0-0.1,0-0.2-0.1-0.1l-1.5,0.2
	C319.2,537.8,319.3,538,319.3,538.3z"/>
<path class="st17" d="M316.7,538.9c0.7,9.2,6,12.2,10.4,7.2c0.7-0.8,1.4-1.8,2-3.1c1.7-3.2,2.5-7.5,2.2-11.4
	c-0.7-9.2-6-12.2-10.4-7.2c-0.7,0.8-1.4,1.8-2,3.1C317.3,530.8,316.5,535,316.7,538.9z M321.9,531.5c-0.4,0.8-0.7,1.7-0.9,2.6
	c0,0.1,0,0.1-0.1,0.1c0,0,0,0-0.1,0l-1.5,0.2l-1.4,0.2c-0.1,0-0.1-0.1-0.1-0.2c0.4-2.8,1.3-5.5,2.6-7.5c0,0,0,0,0,0
	c0.1-0.1,0.1,0,0.2,0l0.6,2.1l0.6,2.1C321.9,531.3,321.9,531.4,321.9,531.5z M330.3,532.7l-1.4,0.2l-1.5,0.2c0,0-0.1,0-0.1-0.1
	c-0.1-0.4-0.1-0.8-0.3-1.2c-0.1-0.4-0.3-0.8-0.4-1.1c0-0.1,0-0.2,0-0.2l0.8-2.4l0.8-2.3c0,0,0-0.1,0-0.1c0,0,0.1-0.1,0.1,0
	c0.5,0.8,1,1.8,1.4,3c0.3,1.2,0.5,2.5,0.6,3.8C330.5,532.5,330.4,532.6,330.3,532.7C330.4,532.7,330.4,532.7,330.3,532.7z
	 M326.3,539c0.4-0.8,0.7-1.7,0.9-2.6c0-0.1,0-0.1,0.1-0.1c0,0,0,0,0.1,0l1.4-0.2l1.4-0.2c0.1,0,0.1,0.1,0.1,0.2
	c-0.4,2.8-1.3,5.5-2.6,7.5c0,0,0,0,0,0c-0.1,0.1-0.1,0-0.2,0l-0.6-2.1l-0.6-2.2C326.3,539.2,326.3,539.1,326.3,539z M326.1,526.8
	l-0.8,2.4c0,0,0,0.1,0,0.1c0,0-0.1,0-0.1,0c-0.5-0.1-1.1-0.1-1.6,0.3c0,0-0.1,0-0.1-0.1l-0.6-2.1l-0.6-2.1c0-0.1,0-0.2,0.1-0.3
	c0,0,0,0,0,0c1.6-1.3,3.2-1.5,4.6-0.8c0.1,0,0.1,0.2,0,0.3L326.1,526.8z M321.2,546.1l0.8-2.3l0.8-2.4c0,0,0-0.1,0-0.1
	c0,0,0.1,0,0.1,0c0.5,0.1,1.1,0,1.6-0.3c0.1,0,0.1,0,0.1,0.1l0.6,2.1l0.6,2.1c0,0.1,0,0.2-0.1,0.3l0,0c-1.6,1.3-3.2,1.5-4.6,0.8
	C321.2,546.3,321.2,546.2,321.2,546.1z M317.7,538.1c0-0.1,0-0.2,0.1-0.2c0,0,0,0,0.1,0l1.4-0.2l1.5-0.2c0,0,0.1,0,0.1,0.1
	c0.1,0.4,0.1,0.9,0.2,1.3c0.1,0.4,0.3,0.8,0.4,1.1c0,0.1,0,0.2,0,0.2l-0.8,2.4l-0.8,2.3c0,0,0,0.1-0.1,0.1c0,0-0.1,0.1-0.1,0
	c-0.6-0.8-1-1.8-1.4-3C317.9,540.7,317.8,539.4,317.7,538.1z"/>
<path class="st0" d="M325.9,533.1c0.5,1.7,0,3.9-1,5.1c-1,1.2-2.2,0.8-2.7-0.9c-0.5-1.7,0-3.9,1-5.1
	C324.2,531.1,325.4,531.5,325.9,533.1z"/>
<path class="st7" d="M654,53.1c-0.8-2.1,0.4-3.7,1.5-4.8c-1.4-1.7-3-3.5-5.3-4.7c-13.3-6.9-23.1,1.4-23.1,1.4s5.3-3.3,11.5,6.2
	c1.3-0.2,2.8,0.1,4,1.9c1.8,2.7,0.9,5.5-1,6.8c0.4,7.6-6.9,8.7-6.9,8.7c6.6,0.8,17.1,6.4,17.1,6.4c4.8-0.8,10.1-9.2,8.1-18.2
	C657.8,56.4,654.9,55.5,654,53.1z"/>
<path class="st18" d="M665.3,54.8c-0.6,3.5-3.4,6.7-7,9.1c-4,2.6-8.9,3.9-13.2,3.5v0c-3.6-0.4-6.9-1.9-9.8-4
	c0.2-0.7,0.3-1.6,0.2-2.6c-0.1-1.2-0.6-2.5-1.8-3.4l0,0c-2-1.6-4.1-1.2-5.4-0.8c-2.7-3.4-4.8-7-6.3-9.7c-0.7-1.4-1.3-2.6-1.7-3.4
	c-0.1-0.3-0.3-0.6-0.4-0.8c4.2-1.2,8.8-3.5,12.4-5.4c1.9-1,3.5-1.9,4.7-2.6c0.6-0.3,1-0.6,1.3-0.8c1.4,3.5,4.5,8,8.1,12.2
	c-0.5,1-1,2.7,0,4.3l0,0l0,0c0.7,1.1,1.9,1.8,3.1,2.1c1.1,0.3,2.3,0.3,3.2,0c0.5,0.4,0.9,0.8,1.3,1.1 M665.3,54.8l-11-1.3
	c0,0,0,0,0,0 M665.3,54.8c-0.6,0.4-1.5,0.8-2.6,1c-2.2,0.5-5.2,0.3-8.5-2.4 M665.3,54.8l-11-1.3"/>
<path class="st7" d="M647.5,64.7c-7.3,2.4-12.5-0.9-12.6-1c3,2.2,6.4,3.8,10.1,4.1c5.9,0.6,13.1-2.2,17.3-6.7
	C657,66.8,647.5,64.7,647.5,64.7z"/>
<path class="st19" d="M636.9,39.3c0,0,2.3,5.5,6.7,9.3"/>
<path class="st19" d="M629.8,42c0,0,1.2,3.7,4.2,6.9c2.9,3.2,5.5,5.5,5.7,6.3"/>
<path class="st12" d="M643.8,61c0,0,5.1-1.5,6.6-3.1c0,0,3.1,1.9,6.6,1.3c0,0-2.3,2.7-6.8,4C650.1,63.2,646.8,63.8,643.8,61z"/>
<path class="st20" d="M356.3,115.5c0.4-0.8,1.8-1.7,2.1-2.9c0.8-4.2-0.3-9.1-4.9-10.7c-5.5-1.9-11.4,1-16.3,4.2
	c-10.3,6.7-19.4,15.2-26.9,24.9c-1.4,1.8-2.8,3.8-2.7,6.1c0.1,5,7,7.1,11.7,5.3c4.7-1.8,8.2-5.8,12.8-7.9c4.5-2.1,11.4-1.2,12.6,3.7
	c1.6,6.5-7.4,9.5-13.3,12.6c-5.6,2.9-6.7,8.3-8.3,13.9c-0.7,2.4-1.2,6.5-3.1,8.2c-2.2,2-4.4,1-7.2,2c-3.6,1.2-6.4,4.3-7.1,8.1
	c-1.4,7,1.6,14.2,0.7,21.3c-0.7,5.4-3.6,10.9-2.1,16.1c2.2,7.7,12.5,10.3,16.2,17.4c3.3,6.3,0.5,13.9,0.9,21
	c0.3,5.4,1.1,13.4,4.5,17.8c3.9,4.9,10.3,7.6,12.8,13.7c1.8,4.4,0.8,9.3,0.4,14.1c-0.4,4.7,0,10.1,3.7,13.2c2.3,1.9,5.4,2.5,8,4
	c5,2.9,7.1,8.3,10.6,12.6c4.3,5.3,10.4,7.4,15.7,11.4c8.7,6.4,17.4,12.9,26.1,19.3c4.1,3,8.3,6.1,11.2,10.3
	c3.2,4.5,4.6,9.9,6.9,14.9c5.7,12.4,18.6,23.7,33.1,22.5c3.1-0.2,6.2-1.7,7.8-4.3c0.9-1.5,1.3-3.2,2.2-4.6c1.5-2.3,4.3-3.5,7-3.8
	c3.9-0.4,14.9,1.1,11.6-7.4c-2.2-5.6-10.3-4.7-15.8-2.6c-5.6,2.1-13.2,4-16.4-1c4.4-6.5,13.8-7.3,21.4-5.2c8.5,2.3,16,7.4,24.9,8.4
	c13.3,1.6,26-2,38.9-4.5c14.2-2.8,28.3-6,42.3-9.6c28-7.1,55.6-15.9,82.7-26.1c32.6-12.3,65.1-27.3,89.8-51.9
	c22.4-22.3,37-51.1,51.3-79.3c11.5-22.8,23-45.7,31.4-69.8c2.7-7.7,4.9-16.7,0.8-23.8c-3.2-5.5-13.5-11.4-12.6-18.4
	c0.5-4,3.8-7,6.3-10.1c1.4-1.8,2.7-4.1,2-6.3c-1.3-4.2-8.4-4.3-9.8-8.5c-0.6-1.8,0.1-3.8,1.1-5.4c3.4-5.4,10.2-6.6,5.9-14.4
	c-5.5-10-26.8-10.8-36.4-14.7c-14.9-5.9-26-13.4-43-12.6c-42.4,2.1-75,38.7-115.8,50.7c-55.9,16.5-114.7-15.6-172.9-13.1
	c0.8-2.1,1.6-4.2,2.3-6.4c-5.9-4.3-14.4-2.4-20.9,0.9c-6.5,3.4-12.6,8.1-19.9,9.2c-5.2,0.8-11.1-0.3-15.2,2.9
	c-3.7,2.8-4.6,7.9-7.8,11.3c-8.3,9-28,2.6-32.3,14.1c-1.1,2.9-0.7,6.2-2.2,8.8c-0.8,1.3-3.3,2.7-4.9,2.2
	C356.1,116.7,355.9,116.1,356.3,115.5z"/>
<path class="st20" d="M327.3,302.2c-1.7-1.3-3.4-2.6-5.5-3c-2.1-0.4-4.5,0.4-5.3,2.4c-0.7,1.8,0.3,3.9,1.4,5.5
	c1.2,1.6,2.7,3.1,3.1,5c0.3,1.2,0.1,2.5,0.2,3.7c0.5,3.9,5,6.8,8.8,5.5c1.5-2.3,3.1-4.9,2.5-7.5c-0.2-1-0.7-1.9-1.2-2.7
	c-1.4-2.5-2.8-5.1-4.2-7.7"/>
<path class="st20" d="M370,73.5c-2.7,0.8-4.7,4.3-3,6.6c0.4,0.5,1,1.3,0.5,1.8c-5.1-0.6-10,4.6-9.2,9.7c0.1,0.8,0.4,1.6,0.9,2.3
	c1.1,1.3,3,1.4,4.7,1.5c3.5,0.2,7.2,0.3,10.5-0.9c3.3-1.2,6.2-4.3,6.1-7.8c0-0.5-0.1-1.1-0.4-1.6c-1-1.4-3.6-1-4.3-2.5
	c-1-2.4,3.6-4.1,2.5-7C377.3,72.9,372.3,72.8,370,73.5z"/>
<path class="st20" d="M417.1,51.4c-3,0.1-6.1-0.3-8.8,1c-2.6,1.3-4.2,4-4.8,6.8c-0.5,2.9,0.3,6.4,3,7.6c1.2,0.5,2.5,0.5,3.7,0.6
	c3.2,0,6.4,0.1,9.5,0.1c3.7,0,7.4,0.1,11-0.9c3.6-0.9,7-3,8.7-6.3c1.3-2.4,1.8-5.5,4-7.1c0.6-0.4,1.4-0.7,2-1.2
	c1.6-1.4,1.4-4,0.1-5.6c-3.4-4.2-8.4-2.7-12.2-0.6C428.1,48.7,423.6,51.3,417.1,51.4z"/>
<path class="st20" d="M510.7,52.5c-4.3-2.3-10.2-0.5-12.6,3.7c-0.5,0.8-0.8,2-0.1,2.7c0.3,0.3,0.7,0.5,1.1,0.6
	c4.5,1.7,9.6,1.9,14.3,0.5c0.6-0.2,1.2-0.4,1.7-0.8c1.3-1.1,1-3.4-0.1-4.7c-1.2-1.3-2.9-1.8-4.6-2.3"/>
<path class="st20" d="M619.7,55.6c-2.2,0.8-4.4,1.7-6.3,3.1c-3.1,2.3-4.9,6-6.1,9.6c-1.1,3.5-1.7,7.5,0,10.8
	c1.8,3.4,5.8,5.4,9.7,5.1c3.9-0.3,7.4-2.7,9.6-5.8c1.9-2.7,3-6.1,5.4-8.4c2.4-2.2,5.6-3.1,8.8-3.8c3.2-0.6,6.5-1.1,9.3-2.6
	c2.8-1.5,5.2-4.5,4.9-7.7c-0.1-0.7-0.3-1.5-0.8-2c-0.5-0.5-1.2-0.7-1.8-0.8C641.3,50.1,630.4,51.5,619.7,55.6z"/>
<path class="st20" d="M665.4,37.2c-2.3-1.2-4.7-2.5-7.3-2.6c-2.6-0.2-5.5,1-6.5,3.4c-0.4,1-0.5,2.1-0.4,3.2c0,1.6,0.3,3.3,1.7,4.2
	c0.7,0.5,1.7,0.5,2.5,0.5c3.4-0.1,6.8-0.9,9.9-2.4c1.1-0.5,2.3-1.2,3-2.2c0.7-1,1-2.5,0.4-3.6C668,36.6,666.3,36.2,665.4,37.2"/>
<path class="st20" d="M639.3,40.9c-2.2-0.4-4.3,2-3.6,4.1c0.6,2.1,3.7,2.9,5.3,1.4c1.6-1.5,0.9-4.6-1.2-5.4"/>
<path class="st20" d="M746.9,26c-1.4,0.1-2.2,1.6-2.8,2.9c-0.1,0.3-0.2,0.6-0.2,0.9c0,0.5,0.4,0.8,0.8,1.1c1.3,1,2.8,1.7,4.4,1.8
	c1.6,0.1,3.3-0.4,4.4-1.6c0.7-0.7,1.1-1.7,0.9-2.6c-0.3-1.2-1.5-2-2.7-2.2c-1.2-0.3-2.5-0.2-3.7-0.3"/>
<path class="st20" d="M791.1,27.2c-3,1.3-4.8,5.4-2.9,8.1c1.1,1.5,2.9,2.2,4,3.8c0.4,0.6,0.6,1.2,1,1.7c2.1,3,6.9,1.9,10.1,3.6
	c0.9,0.4,1.6,1.1,2.5,1.6c2.5,1.5,5.9,1.7,8.6,0.5c2.7-1.2,4.7-3.9,5.2-6.8c0.2-0.9,0.2-1.9-0.1-2.8c-0.9-2.7-4-4-6.7-4.9
	c-3.9-1.3-7.8-2.5-11.8-3.6C797.8,27.5,794.4,25.7,791.1,27.2z"/>
<path class="st20" d="M834,50.8c-1.4-0.2-2.8-0.4-4.1,0.2c-2.4,1.2-2.5,4.7-1,6.9c1.5,2.2,4,3.4,6.3,4.8c3.1,1.9,5.8,4.2,8.6,6.5
	c0.7,0.6,1.5,1.2,2.4,1.6c2.3,0.9,4.9-0.3,6.4-2.2c2.2-2.9,2-7.4-0.4-10.1c-1.3-1.5-3-2.4-4.7-3.3C843.1,53.1,838.6,51.6,834,50.8z"
	/>
<path class="st20" d="M836.3,78.4c-2.2,0.6-4,2.4-4.6,4.5c-0.3,0.9-0.3,2-0.3,2.9c0.2,3.1,1.4,6.1,2.7,9c0.6,1.3,1.2,2.7,2.1,3.7
	c1,1.1,2.4,1.8,3.8,1.6c2.1-0.3,3.3-2.5,3.9-4.5C846.1,89.7,846.9,75.5,836.3,78.4z"/>
<path class="st20" d="M484.7,404.3c-1.1,0.4-2.1,1.4-2.3,2.6c-0.2,1.2,0.4,2.5,1.4,3.1c0.6,0.3,1.3,0.4,2,0.5
	c2.5,0.3,5.1,0.5,7.4-0.5c2.5-1.1,4.3-3.8,4.4-6.5c0.1-3.7-3-5.3-5.7-3c-1,0.8-1.2,1.9-2.4,2.6C488,404,486.2,403.7,484.7,404.3z"/>
<path class="st21" d="M483.6,131c0,0-4.5-0.3-5.3,3.2c-0.8,3.5,4.7,16.6,10.8,15.3c6.1-1.3,4.7-5.5,4.7-5.5L483.6,131z"/>
<path class="st22" d="M510.9,185.6c0.5,4.5,12,11.1,22.7,7.1c0.7-0.3,1.4-0.6,2-0.9c-2.8-3-8-5.5-9.7-8.5
	c-2.5-4.3,3.2-12.5,5.7-16.1c0,0-7.6-2.2-14-4l-12.2,6.9C509.5,174.7,510.4,181.1,510.9,185.6z"/>
<path class="st2" d="M709.5,174c2.8-4.8,0.5-10.3-1-10.3c-4.7,0.7-8.3,6.8-10.4,9.9c0,0-2.5,0.8-4,6.4c-0.4,1.6-0.2,2.9,0.4,3.8
	C698.7,185.3,706.9,178.3,709.5,174z"/>
<path class="st23" d="M614.6,142.8c0,0,16.3-7.1,27.5-6.7c11.2,0.5,21.9,5.5,30.4,10.4c8.6,4.8,35.7,18,37.8,20.9l-1.2,9.7l-8.2,5.7
	c0,0-31.8-10-40-13.7c-8.2-3.7-18.3-8.6-22.6-8.8c0,0-9,7.1-19.6,5.4C608.2,164,614.6,142.8,614.6,142.8z"/>
<path class="st21" d="M700.9,182.8l4.5-3.2C695,168,670.8,162,659.5,159.1c-11.5-2.9-12.8-11.5-12.8-11.5c-0.4,3.8-5.5,10-8.4,12.6
	c4.3,0.2,14.4,5.1,22.6,8.8C669.1,172.8,700.9,182.8,700.9,182.8z"/>
<path class="st0" d="M734.1,205.3l-27.3-17.4l-7.3-0.9c0,0-3.6-0.7-5-3.2c4.2,1.4,9.9-6.8,12.4-11.1c2.8-4.8,3-9.1,1.5-9.1
	c4.7-0.7,9.3,6.1,11.7,11.3c2.4,5.2,4.2,7.8,5.6,9.7c1.4,1.9,7.9,8.6,9,11.4c1.2,2.8,0,3.7,0,3.7S737.6,205.7,734.1,205.3z"/>
<path class="st24" d="M699.5,187c0,0-0.4-2.4,2.3-3.1c2.8-0.7,15.9-0.4,25.2,8.5c0,0,6.7,11.3,6.9,13.3c0.3,2.1-1.4,3.9-3.9,2.9
	c0,0,0.7,3.9-2.4,3.4c-3.1-0.5-7.6-5.2-11.7-12.1c-2.8-4.8-4.8-4.9-5.7-4.2c-0.8,0.7-1.2,6.2-4.4,6.5c-3.2,0.3-4-2.7-4.1-5.8
	C701.6,193.3,701.1,189.7,699.5,187z"/>
<path class="st25" d="M733.6,207.8c-1.2,0.2-2.6,0-3.1-1.8c-1-3.5-4.7-8.7-4.7-8.7s4.1,9.7,4.3,11.4
	C731.7,209.3,732.9,208.8,733.6,207.8z"/>
<path class="st2" d="M735.4,198.1c-2-2.9-4.7-4.6-4.7-4.6s3.4,4.5,4.2,6.3C734.9,199.8,735.4,199.3,735.4,198.1z"/>
<path class="st11" d="M632.7,242.7c0,0,0.4-5.5,9.3-8.3c8.9-2.8,12.5,1.5,12.5,1.5s5.8,8.3,7.8,10.4c2,2.2,2.7,6.1,2.7,6.1
	L632.7,242.7z"/>
<path class="st26" d="M634.1,243.9c0,0,12.5-10.7,21.1-4.7c0,0,10.5,11.5,11.4,15.7c0.9,4.2-13.8,7.7-13.8,7.7L634.1,243.9z"/>
<path class="st26" d="M619.1,347.2c0,0,3.5-4.2,6.8-7.3c3.3-3.1,2.8-8.5,8.3-11.9c5.5-3.3,13.8-3.2,17.2,8.2
	c3.4,11.4,1.9,13.9,7,21.7c5.1,7.8,9.9,24.4-1,27.2c-10.8,2.8-17.1-8.4-20.2-19.5c0,0-4,3.2-6.7-1.4
	C627.9,359.7,619.1,347.2,619.1,347.2z"/>
<path class="st11" d="M658.4,357.9c-5.1-7.8-3.7-10.3-7-21.7c-3.4-11.4-11.7-11.5-17.2-8.2c-3.7,2.3-4.7,5.5-6,8.4
	c0,0,3.1-6.5,9-6.9c6-0.3,11,4.4,12.3,13.1c1.3,8.7,3,13.6,7.2,21.7c4.3,8.1,2.1,10.3-3.2,12.3c-4.2,1.6-9.3,1.6-12.3-0.5
	c3.6,6.4,8.8,10.9,16.1,9C668.2,382.4,663.5,365.8,658.4,357.9z"/>
<path class="st22" d="M643.4,352.2c1.6-0.7,2-3.5,0.9-6.2s-3.4-4.5-5-3.8c-1.6,0.7-2,3.5-0.9,6.2
	C639.5,351.2,641.8,352.9,643.4,352.2z"/>
<path class="st27" d="M640.2,373.8c0,0,5.2,2.7,14.6-3.1"/>
<path class="st27" d="M638.7,370.2c0,0,4.7,3.6,13.8-2.6"/>
<path class="st27" d="M638,368.3c0,0,6.8,3.3,12.4-4.7"/>
<path class="st27" d="M648.7,359.8c-1.1,9.4-11.5,5.8-11.5,5.8s9,0.4,9.6-7.3"/>
<path class="st27" d="M644.6,357.6c0,0,1.9,6.3-7.4,8.1c0,0,7.2-2,5.4-7.1"/>
<path class="st27" d="M640.8,359.3c0,0,2.3,4.2-3.6,6.4"/>
<path class="st28" d="M638.4,355.6c0.4,3.4,0.9,6.6,0,7.4c-0.9,0.8-4.7,4.8-6.5,1.9c-1.8-2.9-0.6-7.4-0.6-7.4L621,346.3
	c0,0,0-1.6,2.5-2.1c2.5-0.6,3.9-0.3,6.5,0.4L638.4,355.6z"/>
<path class="st29" d="M547,262.8c0,0-1.6-1,3.2,25.3c4.9,26.3,18.6,89.1,27.5,95.9c8.8,6.8,24.3,4,58.1-21.5
	c6-4.5,0.5-14.6-3.1-16.8c-3.6-2.2-8.2-1.4-15.6,1.1c-7.4,2.5-19.2,8.7-19.2,8.7s-11.7-63.6-5.8-77.5c0,0,13.7,0.2,20.6-1.6
	c0,0,6-1.4,31.2,13.4c25.2,14.9,38.7,24.6,47.8,19.5c9.1-5.1,9.8-15.8,4.1-23c-5.7-7.1-27.1-30-29.1-31.3c-2-1.3-8.2-0.3-10.2,1.6
	c0,0-33.1-25.2-45.9-31.5C597.7,218.9,547,262.8,547,262.8z"/>
<path class="st7" d="M672.3,297.7c-21.5-13.6-52.2-32.2-53.9-41.4s2.8-15.1-3.1-24.5c-5.9-9.4-61,37.4-61,37.4s2.4,8.1,12.6,9.7
	c10.2,1.5,15.2-0.4,18.4,8c3.2,8.3,3.6,26,6.8,29.8c-1.8-16.1-2.7-32.5-0.1-38.7c0,0,13.7,0.2,20.6-1.6c0,0,6-1.4,31.2,13.4
	c25.2,14.9,38.7,24.6,47.8,19.5c3-1.7,5.1-4,6.4-6.7C692,304.4,683.2,304.6,672.3,297.7z"/>
<path class="st7" d="M637.4,360.7c3.2-5-1.5-13.1-4.7-15.1c-3.6-2.2-8.2-1.4-15.6,1.1c-7.4,2.5-19.2,8.7-19.2,8.7
	c0.8,4.7,2,10.2,0.8,11.8c0,0,25.5-18,36.5-15C637.5,352.9,638,357.4,637.4,360.7z"/>
<path class="st7" d="M666.2,259.4c-1.4-1.4,0.1-2.4,2.6-2.4c-1.1-1.1-1.8-1.7-2.1-1.9c-2-1.3-8.2-0.3-10.2,1.6
	c4.1,3.1,31.8,24.4,31.8,24.4S668.4,261.7,666.2,259.4z"/>
<path class="st0" d="M539.6,163.1c0,0,4.9-6.3,20.9-9.4c16-3.1,32.8-1.8,53.8-12.7c0,0,6.8,1.2,10.5,10.9c3.7,9.7-1.3,16.3-1.3,16.3
	s-23,4.6-27.1,16.4c-4.1,11.7-1.4,23.8-1.4,23.8s15.8,11.7,18.7,17.3c2.9,5.6,8.4,15.3-0.6,28.9c-9,13.6-20.4,24.2-42.8,22.3
	c-8.7-0.7-16.5-2.2-22.8-6c-6.3-3.9-6.5-6.9-12.2-11.2c-5.7-4.3-13.3-7.8-20.8-15.8c-7.5-7.9-16.1-19-29.3-18.2
	c-13.2,0.8-17.7,16.3-26.9,18.7c-9.2,2.4-19-17.4-18.2-23c0.9-5.7,16.4-12.5,23-20.5c6.7-7.9,21-21.4,47.5-25.1L539.6,163.1z"/>
<path class="st2" d="M509.2,177c0,0-6,4,3.6,12l32.9-16.7c0,0,0.1-5.4-1.6-7.5c-3.5-4.1-8.4,0.8-8.4,0.8L509.2,177z"/>
<path class="st24" d="M538.9,151.1c0,0,1,11.8,5.2,17.3c4.2,5.5,0,20.1-10.6,24.2s-22.2-2.5-22.7-7.1c-0.5-4.5-1.3-10.9-5.6-15.6
	L538.9,151.1z"/>
<path class="st25" d="M545.5,171.5c-0.1,0.7-0.3,1.3-0.5,1.9c-1.4,4.7-4.8,8.6-8.8,11.3c-2.5,1.7-5.5,3-8.4,2.5
	c-3-0.5-5.7-3.3-5.1-6.2c0.5-2.6,3.1-4.1,5.3-5.6c2.2-1.5,4.3-3.4,6-5.5c1.6-1.9,3-4.1,4-6.4c0.8-1.8,2.3-4.5,1.8-6.5
	c-0.5-2.3-3-2.2-4.9-2.3c-0.7,0-1.5-0.1-2.2-0.2L505.3,170c4.2,4.7,5.1,11,5.6,15.6c0.5,4.5,12,11.1,22.7,7.1
	C542.6,189.2,547,178.1,545.5,171.5z"/>
<path class="st2" d="M459.6,243c-0.2,0.7-0.6,1.1-1.1,1.3c0,0,0,0,0,0c-0.4,0.2-0.7,0.2-1.1,0.3l-0.1,0
	c-7.5,0.6-15.2-12.6-16.9-19.9c-0.2-0.7-0.3-1.3-0.3-1.8c0.1-1.1,1.6-2.2,4.6-1.6c0.4,0.1,0.8,0.2,1.2,0.3c4,1.4,11.6,9.3,13.2,15.6
	C459.9,240.2,459.9,242,459.6,243z"/>
<path class="st24" d="M459.6,243c-0.3,0.4-0.7,0.9-1.1,1.3c0,0,0,0,0,0c-6.9,7.9-25.7,19.7-31.5,20.3c-6.3,0.6-13-8.3-13-8.3
	l10.5-18.8l15.9-12.8l4.3-3.4c0.4,0.1,0.8,0.2,1.2,0.3c4,1.4,11.6,9.3,13.2,15.6C459.9,240.2,459.9,242,459.6,243z"/>
<path class="st25" d="M458.5,244.4C458.5,244.4,458.5,244.4,458.5,244.4c0.4-0.5,0.8-0.9,1.1-1.3c0.3-1.1,0.2-2.8-0.5-5.8
	c-1.6-6.3-9.3-14.2-13.2-15.6c-0.4-0.1-0.8-0.3-1.2-0.3l-1.8,1.4c0,0,13.1,5.7,9.9,15.5c-3.2,9.8-25.6,25.1-22.8,18.7
	c2.8-6.4,15.2-17,9.1-21.6c-6.1-4.6-19.6,23.1-19.6,23.1s0.1,5.6,7.6,6.2C433.1,263.9,451.7,252.2,458.5,244.4z"/>
<path class="st25" d="M437,234.8c-0.9-0.4-2.3-0.5-4.1-0.2c-4.4,0.7-7.7,4.4-9.1,2.5c-0.1-0.1-0.1-0.2-0.2-0.4
	c-0.1,1.5,1.1,3.2,2.2,3.4c1.9,0.4,3.7-1,5.2-2.4c1.5-1.4,3.1-2.9,5-3.1C436.3,234.7,436.7,234.7,437,234.8z"/>
<path class="st24" d="M427.1,264.6c0,0-5.4,6.7-17.2,6.8c-11.8,0.1-17.5-12.4-18.6-18.7c-1-6.2,0.1-6.9-1.6-12.3
	c-1.7-5.4-1-7.1,0.5-7.7c1.5-0.6,5.1,0.5,6.8,5.4c0,0,1.2-7.3,7.7-6.4c0,0,1.7-4.1,7.2-4.3c0,0,3.3-9.8,5.4-11.4
	c2.2-1.6,5.1-0.8,5.5,3.7c0.5,4.4-0.1,16.4,1.5,17.8c1.6,1.4,4.5-2.1,8.8-3.3c4.3-1.1,6.1,0.1,6.1,2.1c-0.1,2-2.1,6.8-6.4,11.3
	c-4.3,4.5-9.2,15-9.2,15"/>
<path class="st25" d="M400.9,235.3c2.7-1.2,4.5-2.2,3.9-3.7c0,0.1-0.1,0.1-0.1,0.1c-6.6-0.8-7.7,6.4-7.7,6.4
	c0.6,1.8,2.8,7.6,2.8,7.6S397.8,236.7,400.9,235.3z"/>
<path class="st22" d="M413.7,227.3c0.2,0,0.4-0.1,0.5-0.1C414,227.3,413.9,227.3,413.7,227.3z"/>
<path class="st22" d="M412.7,227.5c0.4-0.1,0.7-0.1,1-0.2C413.3,227.4,412.9,227.5,412.7,227.5z"/>
<path class="st22" d="M412.7,227.5C412.7,227.5,412.7,227.5,412.7,227.5C412.7,227.5,412.7,227.5,412.7,227.5z"/>
<path class="st22" d="M412.6,227.5C412.6,227.5,412.7,227.5,412.6,227.5C412.6,227.5,412.6,227.5,412.6,227.5z"/>
<path class="st22" d="M414.2,227.2c0.1,0,0.2,0,0.2,0C414.3,227.2,414.3,227.2,414.2,227.2z"/>
<path class="st22" d="M414.4,227.2C414.4,227.2,414.5,227.2,414.4,227.2C414.5,227.2,414.5,227.2,414.4,227.2z"/>
<path class="st22" d="M414.7,227.2c0.1,0,0.1,0,0.1,0C414.7,227.1,414.7,227.2,414.7,227.2z"/>
<path class="st22" d="M414.8,227.1C414.8,227.1,414.8,227.1,414.8,227.1L414.8,227.1z"/>
<path class="st22" d="M414.6,227.2C414.6,227.2,414.6,227.2,414.6,227.2C414.6,227.2,414.6,227.2,414.6,227.2z"/>
<path class="st22" d="M414.5,227.2C414.5,227.2,414.5,227.2,414.5,227.2C414.6,227.2,414.5,227.2,414.5,227.2z"/>
<path class="st25" d="M412.6,227.5l-0.5-0.3c-0.1,0.1-0.1,0.2-0.1,0.2c-5.6,0.3-7.2,4.3-7.2,4.3c1.6,0.3,3.4,1.9,2.8,4.7
	c-0.5,2.7-1.9,3.1-1.9,4.5c0,0,1.6-2.9,2.8-3.4c1.2-0.6,1-4.7,0-5.7C407.5,231,407.8,228.3,412.6,227.5z"/>
<path class="st30" d="M412,227.5c2.2,0,6,1.9,5.3,5.4c-0.7,3.5-4.1,4.1-4.1,4.1"/>
<path class="st31" d="M491.6,88.2c-3.3,1.7-9.6,7.4-12.3,17.7c-2.7,10.3-2,18.4,1.4,25.4c3.3,7,6.8,10.8,9.2,16.5
	c2.4,5.6,12,27.5,23.9,28.4c4.6,0.4,13.7-1.5,17.2-8.2c3.5-6.8,8.1-8.2,9.5-17.1c1.2-7.9-0.2-20.1-1.5-27.7
	c-1.2-7.6-2.9-18.7-6.7-25.2c-3.8-6.5-9.6-9.3-14-9.3c-4.4,0-8.6-0.8-13.1-2.1C500.8,85.2,494.9,86.4,491.6,88.2z"/>
<path class="st32" d="M512.8,101c-4-1.8-7-3-11.2-2c-4.3,0.5-7,3.4-9.4,4c-1.5,0.4-5.5,1.2-6.9,2c-2.9,1.6-4.5,2.6-6,5.5
	c-1.2,2.4-1.1,5.4-1.5,8.1c0.1,4.7,1.2,8.9,3,12.7c3.3,7,6.8,10.8,9.2,16.5c0.2,0.6,0.6,1.3,1,2.2c0.2-0.3,0.5-0.5,0.6-0.9
	c0.5-0.9,0.6-2,0.7-3.1c0.2-4.5-0.8-8.9-0.9-13.4c-0.1-3,0.4-6.2,2.1-8.8c1.9-2.8,5.2-4.3,8.1-5.9c3.3-1.8,6.5-3.9,9.5-6.2
	c1.3-1,6.9-1.9,7.2-3.7C518.5,106.2,514.2,101.6,512.8,101z"/>
<path class="st23" d="M500,112.3c4-1.3,4.9-5.2,10.7-6.5c5.8-1.4,13.2,6.2,19,14.1c5.9,7.9,8.4,14.4,8,18.5
	c-0.4,4.1-2,15.5-4.9,16.1c-2.9,0.7-3.1-8.4-7.4-8c-4.3,0.4-16.6,5.4-20.3,9.1c-1.6,1.7,0.2,7.4-1.8,8.1s-6.8-1.9-13.7-17.6
	c-6.9-15.8-5.9-28.2-2.8-30.7C491.2,111.9,494.5,114.1,500,112.3z"/>
<path class="st24" d="M515,153.3c3.1-1.5,9.8-4.9,11.5-2.5c1.6,2.2,1.5,13-6.4,15.7c-8,2.7-14.3-5.2-13.4-7.9
	C507.4,157,513.1,154.3,515,153.3z"/>
<path class="st23" d="M543.2,113.1c-4.9-0.1-6.2,3.2-6.4,7.2c-0.2,4,4.1,18.5,4.1,18.5s-0.5-5,1.4-6.3c0,0,4.4-0.9,5.5-5.2
	C548.8,123.1,549.1,113.2,543.2,113.1z"/>
<path class="st30" d="M541.3,118.6c0,0,2.8,0.4,3.8,3.5c1,3.1-1.6,5-1.6,5"/>
<path class="st33" d="M511.2,127.5c0,0,5.5-4.9,11.2-0.6"/>
<path class="st33" d="M501.4,134.1c0,0-5.4-1.5-8.2,2.8"/>
<path class="st33" d="M504.3,135.9c0,0,3.9,4.8,3.5,11.9c-0.1,2,3.3,3.4,6.3,1.5c3-1.9,3.7-2.4,3.6-3.9"/>
<path class="st31" d="M518.3,161.2c1.4-0.5,2.3-0.5,2.6,0.4c0.3,1,0,2.6-1.4,3.1c-1.5,0.5-3-0.5-3.2-1.4
	C516.1,162.2,516.8,161.7,518.3,161.2z"/>
<path class="st1" d="M510.5,159.6c-0.8-0.3-0.5-1.3,0.4-1.4c2.7-0.3,7.3-1.4,11.7-5.2c0.7-0.6,1.7-0.1,1.3,0.8c-1,2-2.9,4.5-6.7,5.8
	C514.1,160.6,511.9,160.2,510.5,159.6z"/>
<path class="st32" d="M500.8,143.2c0.9-0.4,1.1-1.7,0.6-3c-0.5-1.3-1.7-2-2.5-1.7c-0.9,0.4-1.1,1.7-0.6,3
	C498.8,142.8,499.9,143.5,500.8,143.2z"/>
<path class="st32" d="M518.9,136.5c0.9-0.4,1.1-1.7,0.6-3c-0.5-1.3-1.7-2-2.5-1.7c-0.9,0.4-1.1,1.7-0.6,3
	C516.9,136.1,518.1,136.9,518.9,136.5z"/>
<path class="st25" d="M701.8,183.9c-2.8,0.7-2.3,3.1-2.3,3.1c1.7,2.7,2.1,6.3,2.3,9.5c0.2,3.1,0.9,6.1,4.1,5.8c0.5,0,1-0.2,1.3-0.5
	c-0.2-0.2-0.4-0.3-0.6-0.5c-0.9-0.8-1-2.3-0.9-3.6c0.2-2.1,0.6-4.3,0.7-6.4c0.1-1.7,0-3.5-0.5-5.1c-0.1-0.4-0.3-0.9-0.5-1.2
	c-0.2-0.5-0.5-0.9-0.9-1.3C703.3,183.7,702.4,183.8,701.8,183.9z"/>
<path class="st25" d="M729.4,210.2c-1.3-0.3-2.5-0.8-3.5-1.5c-4.8-3.3-5.8-11.7-11.6-13.6c-0.9-0.3-3.1-0.5-3.7,0.6
	c1-0.5,2.9-0.1,5.5,4.3c4,6.8,8.6,11.6,11.7,12.1c1.7,0.3,2.3-0.8,2.4-1.8C729.8,210.3,729.6,210.3,729.4,210.2z"/>
<path class="st2" d="M613,254.6c9-13.6,3.5-23.3,0.6-28.9c-2.9-5.6-18.7-17.3-18.7-17.3c1,11.8,4.1,15.6,11.3,22.2
	s11.6,17.5,0.7,32.2C609.1,260.2,611.1,257.5,613,254.6z"/>
<path class="st2" d="M622.3,147c0.2,0.5,3.6,10.9-1.6,14.7c-5.3,3.9-25.6,5.2-26.5,33.1c0.2-3.3,0.9-6.8,2.1-10.4
	c4.1-11.7,27.1-16.4,27.1-16.4s5-6.6,1.3-16.3C624,149.9,623.2,148.3,622.3,147z"/>
<path class="st2" d="M518.7,228.5c-19.2-11.2-33.2-5.5-41.6,0c2.3-1.5,5-2.5,8.1-2.7c13.2-0.8,21.8,10.3,29.3,18.2
	c7.5,7.9,15.1,11.5,20.8,15.8c5.7,4.3,6,7.3,12.2,11.2c6.3,3.9,14.1,5.3,22.8,6c6.7,0.6,12.4,0,17.4-1.4
	C541.7,275.2,538.6,240.1,518.7,228.5z"/>
<path class="st22" d="M476.2,229.1C476.2,229.1,476.2,229.1,476.2,229.1C476.2,229.1,476.2,229.1,476.2,229.1z"/>
<path class="st25" d="M417.5,216.1c-1.9,1.4-4.5,8.8-5.2,10.9c0.2,0.3,0.4,0.5,0.7,0.6c1.2,0.4,2.9,1.3,2.9,1.3s-2.1-6,2.7-13.3
	C418.1,215.7,417.8,215.8,417.5,216.1z"/>
<path class="st25" d="M409.9,271.4c8-0.1,13-3.1,15.4-5.1c-1,0.4-1.9,0.9-2.9,1.3c-3.5,1.4-7.3,1.6-11.1,1.3c-1.9-0.2-3.8-0.5-5.6-1
	c-3.8-1.2-7.2-3.7-9.8-6.8c-2-2.4-3.5-5.1-4.6-8C392.5,259.5,398.3,271.5,409.9,271.4z"/>
<path class="st32" d="M522.3,89.9c0.4-0.1,0.8-0.1,1.2-0.1c-1.8-0.8-3.6-1.2-5.2-1.2c-4.4,0-8.6-0.8-13.1-2.1
	c-0.2-0.1-0.4-0.1-0.7-0.2c1.7,1.2,3.6,2.1,5.1,3.7c1.9,2.1,3.3,4.6,5.3,6.6c2,2,5.1,3.3,7.7,2.3c0.3-0.1,0.6-0.3,0.8-0.6
	c0.3-0.4,0.2-0.9,0.1-1.4c-0.5-2-2.6-3.5-2.6-5.6c0-0.5,0.1-1,0.5-1.2C521.8,90,522.1,90,522.3,89.9z"/>
<path class="st3" d="M464.8,175.5c9.2,1.2,14.5,9.8,11.8,19.3c-2.6,9.5-12.2,16.2-21.4,15c-9.2-1.2-14.5-9.8-11.8-19.3
	C446,181.1,455.6,174.3,464.8,175.5z M458.6,196.9l8-3.2l-3.6-12.5l-9.7,10.7L458.6,196.9z M456.7,204.1l9.5-9l-8,3.4l-5.4-5
	L456.7,204.1z"/>
<path class="st1" d="M466.2,195.1l-9.5,9l-3.9-10.6l5.4,5L466.2,195.1z"/>
<path class="st1" d="M463,181.2l3.6,12.5l-8,3.2l-5.3-5L463,181.2z"/>
<path class="st4" d="M471.4,177.9c-2.1-2-4.9-3.4-8.1-3.8c-9.2-1.2-18.7,5.5-21.4,15c-1.7,6.1-0.1,11.8,3.7,15.5l1.5,1.4
	c-3.8-3.6-5.4-9.4-3.7-15.5c2.6-9.5,12.2-16.2,21.4-15c3.3,0.4,6,1.8,8.1,3.8L471.4,177.9z"/>
<path class="st4" d="M395.6,595.4c4.6-1.9,6.3-8.1,3.8-13.9c-2.4-5.8-8.1-8.9-12.7-6.9c-4.6,1.9-6.3,8.1-3.8,13.9
	C385.4,594.2,391,597.3,395.6,595.4z"/>
<path class="st3" d="M401,595.4c4.6-1.9,6.3-8.1,3.8-13.9c-2.4-5.8-8.1-8.9-12.7-6.9c-4.6,1.9-6.3,8.1-3.8,13.9
	C390.8,594.2,396.4,597.3,401,595.4z"/>
<path class="st1" d="M398.8,590.1c2.2-0.9,3.1-4,1.9-6.8c-1.2-2.8-4-4.4-6.2-3.4c-2.2,0.9-3.1,4-1.9,6.8
	C393.7,589.5,396.5,591.1,398.8,590.1z"/>
<path class="st4" d="M488.2,597.3c4.6-1.9,6.3-8.1,3.8-13.9c-2.4-5.8-8.1-8.9-12.7-6.9c-4.6,1.9-6.3,8.1-3.8,13.9
	C478,596.1,483.6,599.2,488.2,597.3z"/>
<path class="st3" d="M493.6,597.3c4.6-1.9,6.3-8.1,3.8-13.9c-2.4-5.8-8.1-8.9-12.7-6.9c-4.6,1.9-6.3,8.1-3.8,13.9
	C483.4,596.1,489,599.2,493.6,597.3z"/>
<path class="st1" d="M491.4,592c2.2-0.9,3.1-4,1.9-6.8c-1.2-2.8-4-4.4-6.2-3.4c-2.2,0.9-3.1,4-1.9,6.8
	C486.3,591.4,489.1,592.9,491.4,592z"/>
<path class="st4" d="M444.9,640.5c4.6-1.9,6.3-8.1,3.8-13.9c-2.4-5.8-8.1-8.9-12.7-6.9c-4.6,1.9-6.3,8.1-3.8,13.9
	C434.7,639.3,440.4,642.4,444.9,640.5z"/>
<path class="st3" d="M450.3,640.5c4.6-1.9,6.3-8.1,3.8-13.9c-2.4-5.8-8.1-8.9-12.7-6.9c-4.6,1.9-6.3,8.1-3.8,13.9
	C440.1,639.3,445.8,642.4,450.3,640.5z"/>
<path class="st1" d="M448.1,635.2c2.2-0.9,3.1-4,1.9-6.8c-1.2-2.8-4-4.4-6.2-3.4c-2.2,0.9-3.1,4-1.9,6.8
	C443.1,634.6,445.9,636.2,448.1,635.2z"/>
<path class="st4" d="M353.4,640.5c4.6-1.9,6.3-8.1,3.8-13.9c-2.4-5.8-8.1-8.9-12.7-6.9c-4.6,1.9-6.3,8.1-3.8,13.9
	C343.2,639.3,348.8,642.4,353.4,640.5z"/>
<path class="st3" d="M358.8,640.5c4.6-1.9,6.3-8.1,3.8-13.9c-2.4-5.8-8.1-8.9-12.7-6.9c-4.6,1.9-6.3,8.1-3.8,13.9
	C348.6,639.3,354.3,642.4,358.8,640.5z"/>
<path class="st1" d="M356.6,635.2c2.2-0.9,3.1-4,1.9-6.8c-1.2-2.8-4-4.4-6.2-3.4c-2.2,0.9-3.1,4-1.9,6.8
	C351.5,634.6,354.3,636.2,356.6,635.2z"/>
<path class="st3" d="M541.4,334.5c-2.7-0.6-5.4,1.1-6,3.8l-49.9,221.9h-95.3c0,0,14.3-221.1,14.8-223.8c0.5-2.7-1.3-5.3-4-5.8
	c-2.7-0.5-5.3,1.3-5.8,4l-15.5,228.1l-47,44.1c-1.5,1.4-2,3.6-1.2,5.5c0.8,1.9,2.6,3.2,4.7,3.2h97.8c1.1,0,2.3-0.4,3.2-1.1
	l55.7-45.3c0.9-0.7,1.5-1.7,1.7-2.8l50.7-225.8C545.8,337.8,544.1,335.1,541.4,334.5z M432.1,605.4h-83.4l37.6-35.3
	c0.2,0,0.4,0.1,0.6,0.1h88.5L432.1,605.4z"/>
<path class="st34" d="M256.4,398.9l45.3,119.9l137.5-1.8l74.2-57.1l19.6-112.6"/>
<path class="st34" d="M441.5,396.5l-2.3,120.6"/>
<path class="st34" d="M448,451.8l68.4-42.5"/>
<path class="st34" d="M508.4,377.4l-11.6,81.9"/>
<path class="st34" d="M477.6,396.5l-9,82.8"/>
<path class="st34" d="M286.3,460.4l144.5-4.7"/>
<path class="st34" d="M313.5,415.3l23,93.7"/>
<path class="st34" d="M376.1,413.1l16,93.9"/>
<path class="st12" d="M228.1,373.2c0,0,13.7-18.9,23.1-21.1C260.4,349.9,241.6,364.2,228.1,373.2z"/>
<path class="st12" d="M438.2,408c-12.6,8.4-24.8,25.5-35,25.1c-10.2-0.4-11.2-10.5-27.2-9.5c-16,0.9-26.6,17.9-49.7,18.7
	c-23.1,0.8-27.2-11.2-46.7-13.5c-19.5-2.3-25,0.3-32.9-7.3c-7.9-7.6-2.7-16.1-10-20.3c-7.3-4.2-11.9,3.9-17.2,1.2
	c-5.3-2.7-2.7-16.3,5.9-26c-1.3,1.3-21.9,23.1-21.2,36.7c0.7,14.1,18.9,13.8,26.5,24.2c7.6,10.3,4.1,41.5,36.6,49.6
	c32.5,8.1,59.7-19,84.5-22.1c10.3-1.3,28,3.7,43.6-1.2c15.6-4.9,38.2-28.2,45-37.4c6.7-9,17.2-25.9,32-26.6
	C468.4,399.6,449.4,400.6,438.2,408z M272.2,464.8c-13.1,0.5-17-9.5-13.3-14.4c10.9-14,30.3,1.3,29.9,5.4
	C288.4,459.9,285.4,464.3,272.2,464.8z M384.8,448.7c-4.8,3.1-11.3,3.1-12.1-0.5c-2.1-9.4,14.6-9.9,17-8.1
	C392.1,441.8,389.5,445.6,384.8,448.7z"/>
<path class="st12" d="M435.2,486.2c0,0,13.1,10.5,39,0c25.9-10.5,34.5-23.1,48.5-23.6c14-0.5,13.4,8.8,26.7,8.3
	c13.3-0.5,21.5-13,25.2-18.7c3.8-5.7,6.6-18.5,25.4-14.4c18.8,4.1,24.6-4.9,28.7-15.4c4.1-10.4,5-16.5,27-25.6
	c22-9,12-42.1,50.2-42.1c0,0-15.3-3.5-26.8,4c-11.5,7.5-15.1,23.3-31.6,27.7c-16.6,4.4-16.5,8.9-19.1,15.2
	c-2.6,6.3-2.5,10.7-23.2,10.1c-20.7-0.6-33.7,3.7-42.9,28.8c-5.6,15.5-22.6,21-41.1,20.5c-18.4-0.5-33.3,2.5-44.2,10.9
	C466.1,480.4,452.3,495.9,435.2,486.2z"/>
<path class="st12" d="M314.3,522.4c0,0-2.2,0.5-1.7,9.8c0.5,9.3-10,24.2,3.4,34.8c0,0,12,34.3,56.9,11.9c0,0,14,18.7,40.7-0.8
	c0,0,18.7,22.9,73.8-36.1c0,0-27.7,22-50.9,22c-6.3,0-1.5-5.8-9.6-7.7c-8.1-1.8-13.2,12.2-37,5.3c-8-2.3,3.7-13.5-17.8-13.5
	c-16.7,0-25.9,9.8-43.8,6.3C310.3,551.1,314.3,522.4,314.3,522.4z"/>
<path class="st12" d="M493.4,537.8c0,0,13.3-22.8,20.4-22.9C520.9,514.7,516.7,529.2,493.4,537.8z"/>
<path class="st12" d="M603.5,138.7c-2.1,0.6-3.6-2-2.1-3.6c4.8-5,12.3-11.2,16.5-6.9C622.5,132.9,611.2,136.7,603.5,138.7z"/>
<path class="st12" d="M426.6,135.9c-1.7,0.2-2.9-1-1.7-1.8c4.7-3.1,13-7.8,17.6-4.9C447.3,132.3,434.3,134.8,426.6,135.9z"/>
<path class="st12" d="M652.9,244c-1.1,0.3-2-0.9-1.4-1.8c3.1-5,10.1-14.9,15-9.7C671.6,237.7,658.9,242.3,652.9,244z"/>
<path class="st12" d="M640.6,333.8c-0.6,0.5-1.5-0.2-1.2-0.9c1-2.5,3.5-6.5,9.1-11c9.3-7.6,18.1-5.5,16.3,0
	c-1.8,5.5-10.4,7.2-15.5,7.8C646,330,642.7,332.2,640.6,333.8z"/>
<path class="st12" d="M710.4,337.1c0,0,2-5.3,7.3-8.6c5.4-3.4,11.5-0.1,7.8,3.3C722,335.1,717.5,330,710.4,337.1z"/>
<path class="st12" d="M322.9,185.8c2.8,5.7,11.8,5.4,25.6,0.3c13.8-5.1,13.6-13.7,35.9-18.6c6.6-1.5,8.5-4.9,7.7-7
	c-0.8-2.1-10.4-0.1-10.6-2.5c-0.2-2.4,14.1-12.2,29.3-16.2c4.1-1.1,7.2-4.4-2-3.3c-9.2,1-14.6,5.9-26.7,11.5
	c-12.1,5.6-29.1,12.3-44.1,17.2C323,172,320.3,180.4,322.9,185.8z"/>
<path class="st2" d="M384.1,342.9l-135.9,60.5l27.6-40.9l96.7-49.9l2.9,2.8L384.1,342.9z"/>
<path class="st2" d="M244.1,374.7l4.1,28.7l193.9-2.2l112.2-60.7l11-32l-23.1,5.7l-101.4,50.5l-179.7,6.7L244.1,374.7z"/>
<path class="st3" d="M545.3,320.1c-0.3,0-0.6,0-0.9-0.1c-3.3-0.5-5.5-3.6-5-6.9l1.4-8.7c1.4-8.8,7.9-15.9,16.5-18.1l35.3-8.9
	c3.2-0.8,6.5,1.1,7.3,4.3c0.8,3.2-1.1,6.5-4.4,7.3l-35.3,8.9c-4,1-7,4.3-7.6,8.4l-1.4,8.7C550.8,318,548.2,320.1,545.3,320.1z"/>
<path class="st3" d="M398.5,318.6c-2.5,0-4.8-1.5-5.6-3.9l-2.9-7.9c-1.4-3.7-4.6-6.3-8.5-6.7l-39-4.2c-3.3-0.4-5.7-3.3-5.3-6.6
	c0.4-3.3,3.3-5.7,6.6-5.3l39,4.2c8.5,0.9,15.6,6.5,18.5,14.5l2.9,7.9c1.1,3.1-0.5,6.6-3.6,7.7C399.8,318.5,399.2,318.6,398.5,318.6z
	"/>
<path class="st2" d="M375.4,315.4l8.7,27.6l170.2-2.5v-29.3H376.1L375.4,315.4z"/>
<path class="st2" d="M565.3,308.5l-23.1,5.7L442.1,364v4.7v32.6l112.2-60.7L565.3,308.5z"/>
<path class="st0" d="M373,309.3l-128.9,65.4l198-6.1l123.2-60.2L373,309.3z M441.9,361.7l-161.8,4.1l95.3-50.4l163.4-1.3
	L441.9,361.7z"/>
<path class="st35" d="M126.9,272.9c0,0,12.9,10.1,30,17.1"/>
<path class="st35" d="M327.9,330c0,0,28-1.3,36.7-24.2c8.7-22.9-9.5-31.3-9.5-31.3"/>
<path class="st36" d="M248.2,300.6l125.7-57.1c2.9-1.3,6.3-0.6,8.5,1.7c2.6,2.7,2.9,6.9,0.8,9.9l-76.3,104.6
	c-2.8,3.8-6.8,6.7-11.3,8.1l-105,32.3c-4,1.2-8.4-0.6-10.4-4.5l-1.1-2.1L248.2,300.6z"/>
<path class="st12" d="M274.1,297.2l44.4-19.7c3.3-1.4,6.7,1.7,5.6,5.2l-7,22l-38.4,20L274.1,297.2z"/>
<path class="st7" d="M265.8,317.7l59-24.4c1.3-0.5,2.4,1,1.6,2.1l-37,51.6L265.8,317.7z"/>
<path class="st7" d="M190.6,399.9l105-32.3c4.5-1.4,8.5-4.2,11.3-8.1L383,255.2c1.9-2.5,2.1-6.1,0.4-8.8c-2.1-3.3-6.2-4.4-9.5-2.9
	c0,0,3.5-0.3,1.4,2.8c-1.8,2.6-60.5,84.8-76,106.6c-2.4,3.4-5.9,5.9-9.9,7.1l-110.3,33.4l1.1,2.1
	C182.2,399.3,186.5,401.2,190.6,399.9z"/>
<path class="st11" d="M265.5,172.6l30.9,175.5c1.1,6.2-2.5,12.1-8.3,14l-111.7,35.6c-2.8,0.9-5.8-1-6.2-4L153.4,265
	c-0.5-3.8,0.9-7.6,3.7-10.2l95.5-86.9c1.9-1.8,4.6-2.4,7.2-1.7C262.7,167,265,169.5,265.5,172.6z"/>
<path class="st1" d="M299.9,309.2l12-4.8l-7.2,10.8l-11.8,4.5L299.9,309.2z"/>
<path class="st1" d="M289.3,324.4l11.6-3.5l-8.1,12.2L289.3,324.4z"/>
<path class="st3" d="M306.3,351.3c0.8,0.6,2,0.4,2.5-0.4l5.1-7.1c0.6-0.8,0.4-2-0.4-2.6l-0.1-0.1c-0.8-0.7-2-0.5-2.6,0.4l-5,7.1
	C305.2,349.5,305.4,350.7,306.3,351.3z"/>
<path class="st3" d="M326.8,322.6c0.9,0.6,2.1,0.4,2.7-0.5l3.1-4.2c0.7-0.9,0.5-2.2-0.5-2.9c-0.9-0.7-2.2-0.5-2.9,0.5l-3,4.3
	C325.5,320.6,325.8,321.9,326.8,322.6z"/>
<path class="st3" d="M334.2,312.6c0.9,0.6,2.1,0.4,2.7-0.5l3.1-4.2c0.7-0.9,0.5-2.2-0.5-2.9c-0.9-0.7-2.2-0.5-2.9,0.5l-3,4.3
	C333,310.6,333.3,311.9,334.2,312.6z"/>
<path class="st3" d="M345.7,296.3L345.7,296.3c1,0.7,2.3,0.5,3-0.5l0.1-0.2c0.6-0.9,0.4-2.2-0.4-2.9c-0.9-0.7-2.2-0.6-3,0.3
	l-0.1,0.1C344.5,294.1,344.7,295.5,345.7,296.3z"/>
<path class="st12" d="M259.7,166.2c-2.4-0.7-5-0.1-6.9,1.5c0.8-0.5,3.3-0.8,5.7,11.5c2.5,13,24.2,138.3,29.5,169.2
	c0.7,3.9-1.6,7.7-5.3,9l-104.7,34.3c-2.3,0.7-4.8-0.1-6.2-2l-2.5-3.4l1,7.2c0.4,3,3.4,4.9,6.2,4L288.2,362c5.9-1.9,9.4-7.8,8.3-14
	l-30.9-175.5C265,169.5,262.7,167,259.7,166.2z"/>
<path class="st0" d="M117.5,273.6l6.3,4.1c1.8,1.2,4.2,0.6,5.3-1.2l1.9-3.1c1.1-1.8,0.5-4.3-1.3-5.4l-7.7-4.7L117.5,273.6z"/>
<path class="st4" d="M4.6,222.5l93.9,65.8c5.1,3.6,12.1,2,15.1-3.4l15.9-28.7c2.6-4.8,1.2-10.9-3.3-14l-85.1-59.3
	c-5.5-3.8-12.8-3.1-17.3,1.6L2.9,206.4C-1.6,211-0.8,218.7,4.6,222.5z"/>
<path class="st3" d="M6.1,215l97,67.5c4.6,3.2,10.8,1.8,13.5-3.1l12.9-23.3c2.6-4.8,1.2-10.9-3.3-14l-85.1-59.3
	c-5.5-3.8-12.8-3.1-17.3,1.6L4.9,204.3C1.9,207.4,2.5,212.5,6.1,215z"/>
<path class="st1" d="M123.3,246.7L38,186.6c-3.3-2.3-7.8-1.9-10.5,1l-0.9,1c-0.4,0.5-0.5,1.2-0.1,1.7l1,1.4c0.4,0.5,0.3,1.2-0.1,1.7
	l-7.6,8.4c-0.3,0.3-0.6,0.4-1,0.4l-4.6,0c-0.4,0-0.7,0.1-0.9,0.4l-3.1,3.3c-1.9,2-1.6,5.4,0.8,7l94.6,65.5c1.9,1.3,4.5,0.7,5.7-1.3
	l13.5-24.4C125.8,250.6,125.2,248,123.3,246.7z"/>
<path class="st2" d="M314.9,333.8l3.1,5.9l8.1-1.5c1.5-0.3,2.8-1.1,3.7-2.4l3.5-5.2c0.6-0.8,0.6-1.9,0.1-2.7l-0.9-1.7
	c-0.6-1.1-1.7-1.7-2.8-1.5l-9.2,1.3L314.9,333.8z"/>
<path class="st0" d="M314.9,333.8l9.2-1.3c1.4-0.2,2.6-1,3.4-2.1l3.1-4.5c0.4-0.6-0.1-1.5-0.8-1.4l-9.2,1.3L314.9,333.8z"/>
<path class="st35" d="M160.1,315.8c-3.2,0.6-14.7,3.2-19.8,10.8c-2.4,3.5-3,7.5-2,12c2,8.9,12.2,9.3,24.1,9.9c0.7,0,1.4,0.1,2.1,0.1
	c13.3,0.6,29.2,2,38.3,15.6c4.8,7.1,8.4,13.3,11.3,18.7c0.4,0.8,0.9,1.6,1.3,2.4c0.5,0.8,0.9,1.7,1.3,2.5c0.7,1.3,1.3,2.5,1.9,3.6
	c5.2,9.7,8.9,15,17.2,15.5c2.2,0.1,4.3-0.4,6.3-1.5c10.7-5.6,19.8-24.5,21.3-27.7"/>
<path class="st35" d="M156.5,255.1c-0.2-0.3-19.2-35.6,1.5-50.1c10.3-7.2,18-1.1,29.7,8.2c12.4,9.9,29.5,23.5,59.8,30.3
	c15.2,3.4,27,5.4,36.5,7c16.3,2.8,24.5,4.2,27.7,9c1.9,2.8,1.9,6.7,1,11.8"/>
<path class="st1" d="M496,577.2l-3.2,6.4l-8.3,3l3.2-6.3L496,577.2z"/>
<path class="st1" d="M504.6,582.9l-3.2,6.4l-8.3,3l3.2-6.4L504.6,582.9z"/>
<path class="st1" d="M513.2,588.5l-3.2,6.4l-8.4,3l3.2-6.3L513.2,588.5z"/>
<path class="st0" d="M540.5,553.9c10.2,6.6-0.2,27.1-23.2,45.7c-23,18.6-49.9,28.3-60.1,21.6c-10.2-6.6,0.2-27.1,23.2-45.7
	C503.4,557,530.3,547.3,540.5,553.9z M473.6,608l23.9-8.6l3.2-6.4l-15.5,5.6l6-11.8l-8.4,3L473.6,608z M524.1,567.2l-23.9,8.6
	l-3.2,6.4l15.5-5.6l-6,11.7l8.4-3L524.1,567.2z M487.6,580.3l-3.2,6.4l8.4-3l3.2-6.4L487.6,580.3z M501.6,597.9l8.4-3l3.2-6.4
	l-8.4,3L501.6,597.9z M501.4,589.2l3.2-6.4l-8.4,3l-3.2,6.4L501.4,589.2z"/>
<path class="st1" d="M524.1,567.2l-9.2,18.1l-8.4,3l6-11.8l-15.5,5.6l3.2-6.4L524.1,567.2z"/>
<path class="st1" d="M500.7,593l-3.2,6.4l-23.8,8.6l9.2-18.1l8.4-3l-6,11.8L500.7,593z"/>
<path class="st2" d="M542.6,555.9l8,10.5c6.2,8.1-4.3,26.7-25.4,43.7c-23,18.6-49.9,28.3-60.1,21.6c-0.9-0.6-1.6-1.2-2.1-2l-8-10.5
	c0.6,0.7,1.3,1.4,2.1,2c10.2,6.6,37.1-3,60.1-21.6C538.3,582.6,548.8,564,542.6,555.9z"/>
<path class="st4" d="M702,88.3l-0.7,1.1c-0.9,1.6-3.5,2-6.4,0.9c-3.7-1.4-6.6-4.7-6.6-7.4c0-0.5,0.1-1,0.4-1.4l0.7-1.1
	c-0.2,0.4-0.4,0.9-0.4,1.4c-0.1,2.7,2.9,6,6.6,7.4C698.6,90.3,701.1,89.9,702,88.3z"/>
<path class="st3" d="M695.8,79.6c3.7,1.4,6.6,4.7,6.6,7.4c-0.1,2.7-3.1,3.7-6.8,2.3c-3.7-1.4-6.6-4.7-6.6-7.4
	C689.1,79.2,692.2,78.2,695.8,79.6z M695.6,85.6l2.8-0.1l-2.7-4.3l-2.7,2.2L695.6,85.6z M695.6,87.6l2.8-1.7l-2.8,0.2l-2.6-2.2
	L695.6,87.6z"/>
<path class="st1" d="M695.8,81.1l2.7,4.3l-2.8,0.1l-2.6-2.2L695.8,81.1z"/>
<path class="st1" d="M698.4,85.8l-2.8,1.7l-2.6-3.8l2.6,2.2L698.4,85.8z"/>
<path class="st0" d="M780,165.7c-9.3,0-18-4.2-23.8-11.5c-5-6.3-7.2-14.2-6.2-22.3c1-8,5-15.2,11.3-20.1c5.4-4.2,11.8-6.5,18.7-6.5
	c9.3,0,18,4.2,23.8,11.5c10.3,13.1,8,32.1-5.1,42.4C793.2,163.4,786.8,165.7,780,165.7z"/>
<path class="st2" d="M779.9,105.5c8.9,0,17.7,3.9,23.6,11.4c10.2,13,8,31.8-5,42c-5.5,4.3-12,6.4-18.5,6.4
	c-8.9,0-17.7-3.9-23.6-11.4c-10.2-13-8-31.8,5-42C766.9,107.6,773.5,105.5,779.9,105.5z M779.9,105c-6.9,0-13.4,2.3-18.8,6.5
	c-6.4,5-10.5,12.2-11.4,20.3c-1,8.1,1.3,16.1,6.3,22.5c5.8,7.4,14.6,11.7,24,11.7c6.9,0,13.4-2.3,18.8-6.5
	c6.4-5,10.5-12.3,11.4-20.3c1-8.1-1.3-16.1-6.3-22.5C798.1,109.2,789.4,105,779.9,105z"/>
<path class="st2" d="M798.5,137.8c-0.4,11.9-7.1,20.9-14.2,27.2c5-0.7,9.9-2.7,14.2-6.1c13-10.2,15.3-29,5-42
	c-5-6.3-12-10.1-19.3-11.1C790.4,110.9,799.1,121,798.5,137.8z"/>
<path class="st3" d="M804.8,130.8c-2,0.6-4.2,1.2-6.4,1.9c-1.3,0.4-2.6,0.8-3.9,1.2l-0.1,0c-0.3-1.3-0.6-2.6-1-3.8
	c0.8-0.4,1.5-0.8,2.1-1.3c0.9-0.7,1.6-1.5,2.2-2.4c2.6-4.2,1.5-10.7-0.7-15.6c-0.3-0.2-0.7-0.5-1-0.7c2.5,4.8,3.9,11.7,1.2,16
	c-0.9,1.4-2.3,2.6-4,3.4c-1.3-4-3.3-8-6-11.8c-4.8-6.9-10.9-10-14.6-11.2c-0.4,0.1-0.7,0.2-1.1,0.3c3.6,1.1,10.1,3.9,15.2,11.3
	c2.7,3.8,4.7,7.7,6,11.7c-0.1,0.1-0.3,0.1-0.4,0.2c-5.4,2.1-8.4-0.3-12.1-3.3c-3.5-2.8-7.4-5.9-14.1-6.7c-4.9-0.6-10,0.9-12.7,1.9
	c-0.1,0.3-0.3,0.6-0.4,0.8c2.4-1,7.8-2.8,13-2.2c6.6,0.8,10.4,3.8,13.8,6.5c3.8,3,7.1,5.6,12.8,3.4c0.1-0.1,0.2-0.1,0.4-0.2
	c0.4,1.2,0.7,2.5,1,3.7c-8.3,2.5-17.7,5.3-25.6,7.7c-7.2,2.2-13.1,4-15.9,4.8c0.1,0.2,0.2,0.4,0.2,0.6c2.8-0.8,8.6-2.6,15.8-4.8
	c7.9-2.4,17.3-5.3,25.6-7.7c0.4,2.2,0.6,4.3,0.6,6.5h-0.1c-7.3,0-10.6,4.3-14.1,8.9c-2,2.6-4,5.2-6.8,7.4c-2.7,2.1-6.8,2.8-9.8,2.8
	c0.3,0.2,0.7,0.4,1,0.6c3-0.1,6.7-0.9,9.2-2.9c2.9-2.3,5-5,7-7.6c3.6-4.6,6.6-8.7,13.6-8.7h0.1c0,2.8-0.4,5.6-1.1,8.6
	c-0.8,3.6-3.2,7.8-6.6,11.7h0l-0.1,0.1c-0.7,0.8-1.5,1.6-2.2,2.4l-0.4,0.4c0.4-0.1,0.8-0.1,1.2-0.2c0.6-0.6,1.3-1.3,1.9-2l0,0
	l0.1-0.2c3.5-4.1,5.9-8.3,6.8-12.1c0.7-3,1-5.8,1.1-8.7c1,0.1,2,0.3,2.9,0.6c4.1,1.6,6.3,6.6,7.2,9.1c0.1-0.2,0.3-0.5,0.4-0.7
	c-1-2.7-3.3-7.4-7.4-9c-1-0.4-2-0.6-3.1-0.7c0-2.3-0.2-4.5-0.6-6.7l0.2-0.1c1.3-0.4,2.6-0.8,3.9-1.2c2.2-0.7,4.4-1.3,6.4-1.9
	c1.6-0.5,3.1-0.9,4.5-1.3c0-0.2-0.1-0.4-0.1-0.6C808,129.9,806.4,130.3,804.8,130.8z"/>
<path class="st3" d="M316.6,103.6c-0.2,0.7-0.5,1.3-0.9,1.9c-0.4,0.6-0.8,1.1-1.4,1.4c-0.6,0.4-1.2,0.7-1.9,0.9
	c-0.7,0.2-1.4,0.2-2,0.1c-0.6-0.1-1.2-0.3-1.7-0.7c-0.5-0.4-0.9-0.9-1.2-1.5l-3.1-7.2l8.9-6.2l3.1,7.2c0.3,0.6,0.4,1.3,0.4,2.1
	C316.9,102.3,316.8,102.9,316.6,103.6z"/>
<path class="st1" d="M317.9,109.8c-0.5,0.6-1,1.1-1.5,1.5c-1.1,0.8-2.3,1.3-3.5,1.5c-1.2,0.2-2.3,0.1-3.4-0.2
	c-1.1-0.3-2.1-0.9-3-1.7c-0.9-0.8-1.6-1.8-2.2-3.1l0.5,1.2l-3,2.1l-1.3-2.9l3-2.1l-0.8-1.9l-3,2.1l-1.3-2.9l3-2.1l-3.2-7.5l3.1-2.1
	l1.3,2.9l20.8-14.5l-1.3-2.9l3.1-2.2l3.2,7.6l3.3-2.3l1.3,2.9l-3.3,2.3l1.2,2.7l-0.3-0.8l3.3-2.3l1.3,2.9l-3.4,2.4l-0.1-0.1
	c0.2,0.9,0.4,1.7,0.4,2.7c0.1,1.4-0.1,2.7-0.4,4c-0.3,1.3-0.9,2.5-1.7,3.7c-0.8,1.1-1.7,2.1-2.8,2.9c-1.2,0.8-2.4,1.2-3.6,1.1
	c-1.3-0.1-2.5-0.6-3.6-1.5c0,0.9-0.1,1.7-0.3,2.6c-0.2,0.8-0.4,1.6-0.7,2.3C318.8,108.5,318.4,109.2,317.9,109.8z M312.5,107.8
	c0.7-0.2,1.3-0.5,1.9-0.9c0.5-0.4,1-0.8,1.4-1.4c0.4-0.6,0.7-1.2,0.9-1.9c0.2-0.7,0.3-1.4,0.3-2.1c0-0.7-0.2-1.4-0.4-2.1l-3.1-7.2
	l-8.9,6.2l3.1,7.2c0.3,0.7,0.7,1.1,1.2,1.5c0.5,0.4,1.1,0.6,1.7,0.7C311.1,108,311.8,108,312.5,107.8z M325.2,84l-8.8,6.1l3,7
	c0.3,0.7,0.7,1.2,1.1,1.6c0.5,0.4,1,0.7,1.5,0.8c0.5,0.2,1.1,0.2,1.8,0.1c0.6-0.1,1.2-0.3,1.7-0.7c0.6-0.4,1.1-0.9,1.6-1.6
	c0.5-0.6,0.8-1.3,1.1-2.1c0.3-0.7,0.4-1.5,0.4-2.2c0-0.8-0.1-1.5-0.4-2.1L325.2,84z"/>
<path class="st3" d="M344.6,76.5c7.6,17.5,1.3,40.3-13.9,50.9c-15.2,10.6-33.7,5.1-41.2-12.5c-7.6-17.5-1.3-40.3,13.9-50.9
	C318.6,53.4,337,59,344.6,76.5z M312.9,112.7c1.2-0.2,2.3-0.7,3.5-1.5c0.6-0.4,1.1-0.9,1.5-1.5c0.5-0.6,0.8-1.3,1.2-2
	c0.3-0.7,0.6-1.5,0.7-2.3c0.2-0.8,0.3-1.7,0.3-2.6c1.2,1,2.4,1.5,3.6,1.5c1.3,0.1,2.5-0.3,3.6-1.1c1.1-0.8,2-1.7,2.8-2.9
	c0.8-1.1,1.3-2.4,1.7-3.7c0.3-1.3,0.5-2.7,0.4-4c0-0.9-0.2-1.8-0.4-2.7l0.1,0.1l3.4-2.4l-1.3-2.9l-3.3,2.3l0.3,0.8l-1.2-2.7l3.3-2.3
	l-1.3-2.9l-3.3,2.3l-3.3-7.6l-3.1,2.2l1.3,2.9l-20.8,14.5l-1.3-2.9l-3.1,2.1l3.2,7.5l-3,2.1l1.3,2.9l3-2.1l0.8,1.9l-3,2.1l1.3,2.9
	l3-2.1l-0.5-1.2c0.5,1.3,1.2,2.3,2.2,3.1c0.9,0.8,1.9,1.4,3,1.7C310.6,112.9,311.7,112.9,312.9,112.7z"/>
<path class="st3" d="M320.6,98.7c-0.5-0.4-0.8-0.9-1.1-1.6l-3-7l8.8-6.1l3,7c0.3,0.6,0.4,1.3,0.4,2.1c0,0.8-0.2,1.5-0.4,2.2
	c-0.3,0.7-0.6,1.4-1.1,2.1c-0.5,0.6-1,1.1-1.6,1.6c-0.5,0.4-1.1,0.6-1.7,0.7c-0.6,0.1-1.2,0.1-1.8-0.1
	C321.6,99.4,321.1,99.1,320.6,98.7z"/>
<path class="st4" d="M308,132l-5.7-1.5c-7.8-2.1-14.6-7.9-18.5-17c-7.5-17.5-1.3-40.3,13.9-50.9c7.4-5.1,15.5-6.5,22.7-4.5l5.7,1.5
	c-7.3-1.9-15.4-0.6-22.7,4.5c-15.2,10.6-21.5,33.4-13.9,50.9C293.3,124,300.2,129.9,308,132z"/>
<path class="st1" d="M240.4,45.1l2.3,13.9l-7.6,1.9L232.8,47L240.4,45.1z"/>
<path class="st1" d="M262,88l2.3,13.9l-21.6,5.4l-6.5-39.5l7.6-1.9l4.2,25.7L262,88z"/>
<path class="st0" d="M273.2,16.4c19.5,23.7,26.9,68.2,16.4,99.4c-10.5,31.2-34.8,37.4-54.3,13.7c-19.5-23.7-26.9-68.2-16.4-99.4
	C229.4-1.1,253.7-7.3,273.2,16.4z M242.7,107.3l21.6-5.4L262,88l-14,3.5l-4.2-25.7l-7.6,1.9L242.7,107.3z M265.7,38.7l-21.6,5.4
	l2.3,13.9l14-3.5l4.2,25.6l7.6-1.9L265.7,38.7z M232.8,47l2.3,13.9l7.6-1.9l-2.3-13.9L232.8,47z M268.1,100.9l7.6-1.9l-2.3-13.9
	l-7.6,1.9L268.1,100.9z M259.2,79l-2.3-13.9l-7.6,1.9l2.3,13.9L259.2,79z"/>
<path class="st1" d="M249.3,67l2.3,13.9l7.6-1.9l-2.3-13.9L249.3,67z"/>
<path class="st1" d="M265.7,38.7l6.5,39.5l-7.6,1.9l-4.2-25.6l-14,3.5l-2.3-13.9L265.7,38.7z"/>
<path class="st1" d="M273.4,85.1l2.3,13.9l-7.6,1.9L265.8,87L273.4,85.1z"/>
<path class="st2" d="M289,14.4C280.1,3.6,270.2-1,261.1,0.2l-15.8,2c9.1-1.1,19,3.5,27.9,14.3c19.5,23.7,26.9,68.2,16.4,99.4
	c-5.7,17-15.5,26.6-26.4,27.9l15.8-2c10.9-1.4,20.7-10.9,26.4-27.9C315.9,82.6,308.5,38.1,289,14.4z"/>
<path class="st11" d="M735.8,248.5l-3.4-3c0,0-5.6,1.1-11.2,8.3c-5.6,7.2-4.8,12.4-4.8,12.4l4.2,3.7L735.8,248.5z"/>
<path class="st37" d="M745.3,247.2c-5.5-3.6-13.3-0.3-22.4,13.7c-6.4,9.7-3.8,16-0.6,17.5c3.2,1.5,11.4-1.3,18.9-10.9
	C748.7,257.9,749.3,249.8,745.3,247.2z"/>
<path class="st11" d="M745.3,247.2c-5.5-3.6-13.3-0.3-22.4,13.7c-6.4,9.7-3.8,16-0.6,17.5c1,0.5,2.5,0.5,4.3,0.1
	c-4.5-1.2-6.4-5.9,1-17.7c8.1-12.8,15.9-13.9,18.5-12.1c1,0.6,1.5,2.3,1.7,4.1C747.8,250.2,746.9,248.2,745.3,247.2z"/>
<path class="st38" d="M735.5,267.8c0,0-3.7-10.3,8.1-14.8c11.8-4.5,8.4-8.8,5.9-9.3c-2.6-0.5-17.9,0.2-18.5-7
	c-0.6-7.2,8.8-15.9,16.8-13.4c4.3,1.4,4.8,4.6,3.7,6.1c-1.1,1.5-2.1,4.2-0.1,5.3c2.1,1.1,8.6,1,10.3,7.4c1.7,6.4-0.5,11.9-7,13.2
	c-6.6,1.4-10.9,0.2-11,6.2C743.6,267.7,735.5,267.8,735.5,267.8z"/>
<path class="st18" d="M736.4,264L736.4,264c4.4-3.1,9.5-4,13.5-4.1c2-0.1,3.8,0,5,0.2c0.6,0.1,1.1,0.1,1.5,0.2c0.1,0,0.2,0,0.3,0
	l14.3,32.7l-19.7,15.5l-25.4-28C726.2,275.8,729.4,268.8,736.4,264z M756.7,259.8c-0.1,0-0.1,0-0.2,0c0,0,0,0.1,0,0.1L756.7,259.8z"
	/>
<path class="st12" d="M758.9,293.1c-11.5,4.8-28.4-8.8-33.3-14.1c-0.1,0.5-0.2,1.1-0.2,1.6l25.8,28.5l20.4-16.1l-3.1-7
	C766.4,288.7,763.3,291.3,758.9,293.1z"/>
<path class="st37" d="M751.1,309.2c1.1,2,8.8-2.4,13.1-5.6c4.3-3.2,8.2-8.4,7.3-10.4c-0.9-2-10.1,2.3-13.2,5.1
	C755.2,301,749.6,306.3,751.1,309.2z"/>
<path class="st12" d="M784.7,308.2c2.6-7.4,2.1-14.3-1-15.3c-3.1-1.1-7.8,4.1-10.4,11.5c-2.6,7.4-2.1,14.3,1,15.3
	C777.5,320.8,782.1,315.7,784.7,308.2z"/>
<path class="st37" d="M783.7,292.9c-0.2-0.1-0.4-0.1-0.7-0.1c2,1.5,1.8,7.8-0.6,14.7c-2.4,6.9-6.2,12-8.7,12
	c0.2,0.1,0.4,0.2,0.6,0.3c3.1,1.1,7.8-4.1,10.4-11.5C787.3,300.8,786.8,294,783.7,292.9z"/>
<path class="st12" d="M780.3,284.8c-5.6-4.3-7.7-10.6-5.8-12.8c1.9-2.2,8-0.5,13.6,3.9c5.6,4.3,8.6,9.6,6.7,11.9
	C793,290,785.9,289.2,780.3,284.8z"/>
<path class="st37" d="M794.9,287.8c0.1-0.2,0.2-0.3,0.3-0.5c-2,1.2-8.3,0-13.5-4.1c-5.2-4-7.5-9.5-6.7-11.6
	c-0.2,0.1-0.3,0.2-0.4,0.4c-1.9,2.2,0.2,8.4,5.8,12.8C785.9,289.2,793,290,794.9,287.8z"/>
<g>
	<g>
		<g>
			<g>
				<path class="st1" d="M572.6,201.5c-0.9,0.6-2.1,0.4-2.7-0.6l-2.2-3.4c-0.3-0.4-0.1-0.9,0.2-1.2s0.9-0.1,1.2,0.2l2.2,3.4
					c0.1,0.1,0.3,0.2,0.4,0.1c0.1-0.1,0.2-0.3,0.1-0.4l-2.2-3.4c-0.6-0.9-1.8-1.1-2.6-0.5c-0.9,0.6-1.1,1.8-0.5,2.6l2.9,4.4
					c0.3,0.4,0.1,0.9-0.2,1.2c-0.4,0.3-0.9,0.1-1.2-0.2l-2.9-4.4c-1.1-1.7-0.6-3.8,1-4.9c1.7-1.1,3.8-0.6,4.9,1l2.2,3.4
					C573.8,199.7,573.5,200.9,572.6,201.5z"/>
			</g>
		</g>
		<g>
			<g>
				<path class="st1" d="M576.3,199.1c-0.4,0.3-0.9,0.1-1.2-0.2l-3.4-5.2c-0.3-0.4-0.8-0.5-1.2-0.2s-0.9,0.1-1.2-0.2
					c-0.3-0.4-0.1-0.9,0.2-1.2c1.2-0.8,2.7-0.5,3.5,0.7l3.4,5.2C576.9,198.3,576.7,198.8,576.3,199.1z"/>
			</g>
		</g>
	</g>
</g>
</svg>
