<?xml version="1.0" encoding="utf-8"?>
<!-- Generator: Adobe Illustrator 24.1.3, SVG Export Plug-In . SVG Version: 6.00 Build 0)  -->
<svg version="1.1" id="图层_1" xmlns="http://www.w3.org/2000/svg" xmlns:xlink="http://www.w3.org/1999/xlink" x="0px" y="0px"
	 viewBox="0 0 200 48" style="enable-background:new 0 0 200 48;" xml:space="preserve">
<style type="text/css">
	.st0{fill:#C8CDD6;}
	.st1{opacity:0.4;}
	.st2{fill:#CFD7E8;}
	.st3{fill:#DDE4F1;}
	.st4{fill:#C8D4E9;}
	.st5{fill:#778197;}
</style>
<g>
	<path class="st0" d="M30.7,34.1h-3.2V18.5h3.2V34.1z"/>
	<path class="st0" d="M42.2,18.2c1.8,0,3.2,0.6,4.4,1.8c1.1,1.3,1.7,2.8,1.7,4.7V34H45v-8.8c0-1.2-0.4-2.2-1.1-2.9
		c-0.8-0.8-1.8-1.2-2.9-1.2c-1.3,0-2.3,0.4-3.2,1.2c-0.8,0.8-1.2,1.8-1.2,2.9V34h-3.2V18.5h3.2v4c0.4-1.3,1.1-2.4,2.1-3.2
		C39.8,18.6,40.9,18.2,42.2,18.2L42.2,18.2z"/>
	<path class="st0" d="M58.2,18.2c2.5,0,4.5,0.9,6.1,2.7c1.5,1.8,2.2,3.9,1.9,6.5H53.3c0.2,1.3,0.8,2.2,1.8,3.1
		c0.9,0.8,2,1.2,3.4,1.2c1,0,1.9-0.3,2.7-0.8c0.8-0.5,1.4-1.2,1.9-2l2.7,1.2c-0.7,1.3-1.7,2.4-2.9,3.2c-1.3,0.8-2.7,1.2-4.4,1.2
		c-2.3,0-4.3-0.8-5.9-2.3c-1.6-1.5-2.4-3.4-2.4-5.8s0.8-4.2,2.3-5.8C54,19,55.9,18.2,58.2,18.2L58.2,18.2z M58.2,21
		C57,21,56,21.3,55.1,22c-0.8,0.7-1.4,1.7-1.7,2.8h9.5c-0.3-1.1-0.8-2.1-1.7-2.8C60.4,21.3,59.4,21,58.2,21z"/>
	<path class="st0" d="M75,18.2c1.9,0,3.4,0.5,4.6,1.5c1.2,1,1.8,2.4,1.8,4.2v10.2h-3.2v-4.1c-1,2.9-2.9,4.4-5.8,4.4
		c-1.3,0-2.5-0.4-3.4-1.2c-0.9-0.8-1.3-1.8-1.3-3.2c0-1.5,0.6-2.7,1.6-3.4c1.1-0.8,2.5-1.3,4.1-1.4l3-0.3c1.1-0.1,1.7-0.6,1.7-1.5
		c0-0.8-0.3-1.3-0.8-1.8c-0.6-0.4-1.3-0.7-2.2-0.7c-0.9,0-1.8,0.2-2.4,0.7c-0.6,0.5-1.1,1.2-1.3,2.1l-3.2-0.8
		c0.3-1.5,1.1-2.6,2.3-3.5C71.7,18.6,73.3,18.2,75,18.2L75,18.2z M73.5,31.8c1.3,0,2.5-0.4,3.4-1.3c0.9-0.9,1.3-1.9,1.3-3.1v-0.8
		c-0.2,0.4-0.8,0.6-1.8,0.8l-2.9,0.4c-0.8,0.1-1.4,0.4-1.8,0.7s-0.7,0.8-0.7,1.5c0,0.6,0.2,1.1,0.7,1.5
		C72.1,31.6,72.7,31.8,73.5,31.8L73.5,31.8z"/>
	<path class="st0" d="M25.3,34.1H10.6V18.5h3.4v12.6h11.4V34.1z"/>
	<path class="st0" d="M84.3,18.2c1.7,0,3-1.3,3-3s-1.3-3-3-3c-1.7,0-3,1.3-3,3S82.7,18.2,84.3,18.2z"/>
</g>
<g class="st1">
	<path class="st2" d="M109.1,29l-6.2-3.7l6.2,8.8V29z"/>
	<path class="st3" d="M109.1,29v5.1l6.2-8.8L109.1,29z"/>
	<path class="st4" d="M109.1,21.3v6.4l6.2-3.7L109.1,21.3z"/>
	<path class="st3" d="M102.9,24l6.2,3.7v-6.4L102.9,24z"/>
	<path class="st5" d="M109.1,21.3l6.2,2.8l-6.2-10.3V21.3z"/>
	<path class="st3" d="M109.1,21.3l6.2,2.8l-6.2-10.3V21.3z"/>
	<path class="st5" d="M109.1,13.7L102.9,24l6.2-2.8V13.7z"/>
	<path class="st2" d="M109.1,13.7L102.9,24l6.2-2.8V13.7z"/>
	<path class="st5" d="M129.5,25.5c0-1.3-0.4-2.4-1.2-3.2c-0.8-0.8-1.8-1.2-3.1-1.2c-1.2,0-2.2,0.4-3,1.2s-1.2,1.8-1.2,3.1
		c0,1.2,0.4,2.2,1.2,3c0.8,0.8,1.8,1.2,3.1,1.2c0.8,0,1.5-0.1,2.1-0.4c0.6-0.3,1.1-0.7,1.5-1.3l-1.7-0.8c-0.5,0.5-1.2,0.8-1.9,0.8
		c-0.6,0-1.1-0.2-1.6-0.5c-0.4-0.3-0.7-0.8-0.7-1.4h6.5L129.5,25.5z M123.1,24.3c0.2-0.5,0.5-0.8,0.7-1c0.4-0.3,0.9-0.5,1.5-0.5
		c0.5,0,1,0.1,1.4,0.4c0.4,0.3,0.7,0.6,0.8,1.1H123.1z"/>
	<path class="st5" d="M131.4,18.3h2v3h1.2V23h-1.2v6.3h-2V23h-1v-1.7h1V18.3z"/>
	<path class="st5" d="M135.7,18.2h2v3.9c0.4-0.3,0.8-0.6,1.2-0.8c0.4-0.2,0.8-0.3,1.2-0.3c0.8,0,1.5,0.3,2,0.8
		c0.5,0.5,0.7,1.2,0.7,2.1v5.3h-2v-3.5c0-0.9,0-1.6-0.1-1.9c-0.1-0.3-0.2-0.6-0.5-0.7c-0.2-0.2-0.5-0.2-0.8-0.2
		c-0.4,0-0.8,0.1-1.1,0.4c-0.3,0.3-0.5,0.6-0.6,1.1c-0.1,0.2-0.1,0.8-0.1,1.7v3.2h-2L135.7,18.2L135.7,18.2z"/>
	<path class="st5" d="M152.8,25.9h-6.5c0.1,0.6,0.3,1,0.7,1.4c0.4,0.3,0.9,0.5,1.6,0.5c0.8,0,1.4-0.3,1.9-0.8l1.7,0.8
		c-0.4,0.6-0.9,1-1.5,1.3c-0.6,0.3-1.3,0.4-2.1,0.4c-1.3,0-2.3-0.4-3.1-1.2c-0.8-0.8-1.2-1.8-1.2-3c0-1.2,0.4-2.2,1.2-3.1
		c0.8-0.8,1.8-1.2,3-1.2c1.3,0,2.3,0.4,3.1,1.2c0.8,0.8,1.2,1.9,1.2,3.2L152.8,25.9z M150.8,24.3c-0.1-0.4-0.4-0.8-0.8-1.1
		c-0.4-0.3-0.8-0.4-1.4-0.4c-0.6,0-1.1,0.2-1.5,0.5c-0.3,0.2-0.5,0.5-0.7,1H150.8z"/>
	<path class="st5" d="M153.9,21.3h1.7v1c0.2-0.4,0.4-0.7,0.7-0.9c0.3-0.2,0.6-0.3,1-0.3c0.3,0,0.5,0.1,0.8,0.2l-0.6,1.7
		c-0.2-0.1-0.4-0.2-0.6-0.2c-0.3,0-0.6,0.2-0.8,0.6c-0.2,0.4-0.3,1.1-0.3,2.3l0,0.4v3.2h-2L153.9,21.3L153.9,21.3z"/>
	<path class="st5" d="M167.3,25.9h-6.5c0.1,0.6,0.3,1,0.7,1.4c0.4,0.3,0.9,0.5,1.6,0.5c0.8,0,1.4-0.3,1.9-0.8l1.7,0.8
		c-0.4,0.6-0.9,1-1.5,1.3c-0.6,0.3-1.3,0.4-2.1,0.4c-1.3,0-2.3-0.4-3.1-1.2c-0.8-0.8-1.2-1.8-1.2-3c0-1.2,0.4-2.2,1.2-3.1
		c0.8-0.8,1.8-1.2,3-1.2c1.3,0,2.3,0.4,3.1,1.2c0.8,0.8,1.2,1.9,1.2,3.2L167.3,25.9z M165.3,24.3c-0.1-0.4-0.4-0.8-0.8-1.1
		c-0.4-0.3-0.8-0.4-1.4-0.4c-0.6,0-1.1,0.2-1.5,0.5c-0.3,0.2-0.5,0.5-0.7,1H165.3z"/>
	<path class="st5" d="M168.9,21.3h2v3.9c0,0.8,0.1,1.3,0.2,1.6c0.1,0.3,0.3,0.5,0.5,0.7c0.2,0.2,0.5,0.2,0.8,0.2
		c0.3,0,0.6-0.1,0.9-0.2c0.2-0.2,0.4-0.4,0.5-0.7c0.1-0.2,0.1-0.7,0.1-1.5v-3.9h2v3.4c0,1.4-0.1,2.4-0.3,2.9
		c-0.3,0.6-0.7,1.1-1.2,1.4c-0.5,0.3-1.2,0.5-2,0.5c-0.9,0-1.6-0.2-2.1-0.6c-0.5-0.4-0.9-0.9-1.1-1.6c-0.2-0.5-0.2-1.4-0.2-2.7
		L168.9,21.3L168.9,21.3z"/>
	<path class="st5" d="M178,21.3h2v0.9c0.3-0.4,0.7-0.7,1.1-0.8c0.4-0.2,0.9-0.3,1.4-0.3c0.5,0,1,0.1,1.4,0.4c0.4,0.2,0.7,0.6,1,1.1
		c0.3-0.5,0.7-0.8,1.2-1.1c0.5-0.2,1-0.4,1.5-0.4c0.6,0,1.1,0.1,1.5,0.4c0.4,0.3,0.7,0.6,0.9,1c0.2,0.4,0.3,1.1,0.3,2.1v4.7h-2v-4.1
		c0-0.9-0.1-1.5-0.3-1.8c-0.2-0.3-0.6-0.5-1-0.5c-0.3,0-0.7,0.1-0.9,0.3c-0.3,0.2-0.5,0.5-0.6,0.8c-0.1,0.3-0.2,0.9-0.2,1.7v3.6h-2
		v-3.9c0-0.7-0.1-1.2-0.2-1.6c-0.1-0.3-0.3-0.6-0.5-0.7c-0.2-0.2-0.5-0.2-0.8-0.2c-0.3,0-0.6,0.1-0.9,0.3c-0.3,0.2-0.5,0.5-0.6,0.8
		c-0.1,0.4-0.2,0.9-0.2,1.7v3.6h-2L178,21.3L178,21.3z"/>
</g>
</svg>
