<?xml version="1.0" encoding="utf-8"?>
<!-- Generator: Adobe Illustrator 24.1.3, SVG Export Plug-In . SVG Version: 6.00 Build 0)  -->
<svg version="1.1" id="layer_1" xmlns="http://www.w3.org/2000/svg" xmlns:xlink="http://www.w3.org/1999/xlink" x="0px" y="0px"
	 viewBox="0 0 1400 585" style="enable-background:new 0 0 1400 585;" xml:space="preserve">
<style type="text/css">
	.st0{fill:#FFFFFF;}
	.st1{fill:#FFFFFF;stroke:#2F2E41;stroke-width:2;stroke-linecap:round;stroke-linejoin:round;stroke-miterlimit:10;}
	.st2{fill:#FF4480;}
	.st3{fill:#FFFFFF;stroke:#FF4480;stroke-width:2;stroke-linecap:round;stroke-linejoin:round;stroke-miterlimit:10;}
	.st4{fill:none;stroke:#FF4480;stroke-width:2;stroke-linecap:round;stroke-linejoin:round;stroke-miterlimit:10;}
	.st5{fill:#2F2E41;}
	.st6{fill:none;stroke:#E0E0E0;stroke-width:2;stroke-dasharray:4,4;}
	.st7{fill:none;stroke:#E0E0E0;stroke-width:2;stroke-linecap:round;}
	.st8{fill:#E0E0E0;}
	.st9{fill:#FFFFFF;stroke:#FF4480;stroke-linejoin:round;stroke-miterlimit:10;}
	.st10{fill:none;stroke:#2F2E41;stroke-width:2;stroke-linecap:round;stroke-linejoin:round;stroke-miterlimit:10;}
	.st11{fill:#FF4480;stroke:#FF4480;stroke-width:2;stroke-linecap:round;stroke-linejoin:round;stroke-miterlimit:10;}
	.st12{fill:#FF4480;}
</style>
<g>
	<path class="st0" d="M96,132c30.9,0,56-25.1,56-56c0-30.9-25.1-56-56-56c-30.9,0-56,25.1-56,56C40,106.9,65.1,132,96,132z"/>
	<path class="st1" d="M93.9,74.3c5,0,9.1-4.1,9.1-9.1c0-5-4.1-9.1-9.1-9.1c-5,0-9.1,4.1-9.1,9.1C84.8,70.3,88.8,74.3,93.9,74.3z"/>
	<path class="st1" d="M81,94.4c-3.1,0-5.3-3-4.3-6c2.5-7.1,9.2-12.2,17.2-12.2c8,0,14.7,5.1,17.2,12.2c1,2.9-1.2,6-4.3,6H81z"/>
	<path class="st2" d="M96.4,67.4c0.4,0,0.8,0.4,0.7,0.8c-0.4,1.4-1.7,2.5-3.2,2.5c-1.6,0-2.9-1.1-3.2-2.5c-0.1-0.4,0.2-0.8,0.6-0.8
		H96.4z"/>
	<path class="st3" d="M114,95.9h-11.7c-0.9,0-1.6-0.8-1.6-1.8l0.6-10.9c0.1-0.9,0.7-1.6,1.6-1.6h10.5c0.8,0,1.5,0.7,1.6,1.6
		l0.6,10.9C115.7,95.1,114.9,95.9,114,95.9z"/>
	<path class="st4" d="M110.9,85.6v-5.2c0-1.5-1.2-2.8-2.8-2.8c-1.5,0-2.8,1.2-2.8,2.8v5.2"/>
</g>
<path class="st5" d="M86,162.1c-1.3,0-2.2-0.4-2.9-1.1c-0.7-0.8-1-1.9-1-3.3v-5.5h1.2v5.4c0,0.8,0.2,1.6,0.5,2.3
	c0.4,0.7,1.1,1,2.2,1c1.1,0,1.8-0.3,2.1-1c0.4-0.7,0.5-1.5,0.5-2.3v-5.4h1.2v5.5c0,1.4-0.3,2.5-1,3.3
	C88.2,161.7,87.2,162.1,86,162.1z M94.3,162.1c-0.6,0-1.1-0.1-1.6-0.4c-0.4-0.2-0.8-0.6-1-0.9c-0.2-0.4-0.3-0.8-0.3-1.2v-0.1h1.2
	v0.1c0,0.2,0.1,0.5,0.2,0.7c0.1,0.2,0.3,0.4,0.6,0.6c0.3,0.1,0.6,0.2,1,0.2c0.4,0,0.8-0.1,1.1-0.3c0.3-0.2,0.4-0.5,0.4-0.9
	c0-0.3-0.1-0.6-0.4-0.8c-0.2-0.2-0.5-0.3-0.9-0.4l-1-0.1c-0.6-0.1-1.1-0.3-1.5-0.6c-0.4-0.3-0.6-0.8-0.6-1.4c0-0.7,0.2-1.2,0.7-1.6
	c0.5-0.4,1.1-0.6,1.9-0.6c0.6,0,1.1,0.1,1.5,0.3c0.4,0.2,0.7,0.5,0.9,0.8c0.2,0.3,0.3,0.7,0.3,1.1v0.1h-1.2v0c0-0.2-0.1-0.4-0.2-0.6
	c-0.1-0.2-0.3-0.4-0.5-0.5c-0.2-0.1-0.5-0.2-0.9-0.2c-0.4,0-0.8,0.1-1.1,0.3c-0.3,0.2-0.4,0.5-0.4,0.9c0,0.3,0.1,0.5,0.3,0.7
	c0.2,0.2,0.5,0.3,0.8,0.4l1.1,0.2c0.6,0.1,1.1,0.3,1.6,0.6c0.4,0.3,0.6,0.8,0.6,1.4c0,0.4-0.1,0.8-0.4,1.2c-0.2,0.3-0.6,0.6-1,0.8
	C95.3,162,94.9,162.1,94.3,162.1z M101.9,162.1c-0.8,0-1.4-0.2-1.9-0.5c-0.5-0.4-0.9-0.8-1.1-1.4c-0.3-0.6-0.4-1.2-0.4-1.9
	c0-0.7,0.1-1.3,0.4-1.9c0.3-0.6,0.6-1.1,1.2-1.4c0.5-0.4,1.2-0.5,1.9-0.5c1,0,1.8,0.3,2.4,1c0.6,0.7,0.9,1.6,0.9,2.9v0.3h-5.5v0.1
	c0,0.4,0.1,0.8,0.3,1.2c0.2,0.4,0.4,0.7,0.8,0.9s0.7,0.3,1.2,0.3c0.5,0,0.9-0.1,1.2-0.4s0.6-0.6,0.8-1h1.2c-0.2,0.7-0.6,1.2-1.1,1.7
	C103.4,161.9,102.7,162.1,101.9,162.1z M104,157.8c0-0.8-0.2-1.4-0.6-1.8s-0.9-0.6-1.5-0.6c-0.7,0-1.2,0.2-1.6,0.7
	c-0.4,0.4-0.6,1-0.6,1.7H104z M106.9,154.6h1.2v1.2h0.1c0.1-0.3,0.3-0.6,0.6-0.8c0.3-0.2,0.7-0.4,1.2-0.4c0.1,0,0.3,0,0.3,0
	c0.1,0,0.2,0,0.3,0.1l0,1.2c-0.1,0-0.3-0.1-0.4-0.1c-0.1,0-0.2,0-0.4,0c-1.2,0-1.7,0.7-1.7,2.1v4.2h-1.2V154.6z"/>
<path class="st5" d="M655.4,554.2h1.8l2.9,7.5h0l2.9-7.5h1.8v9.8h-1.2v-7.9h-0.1l-3,7.9h-0.9l-3-7.9h-0.1v7.9h-1.2V554.2z
	 M669.6,564.1c-0.7,0-1.2-0.2-1.7-0.5c-0.5-0.3-0.8-0.8-1.1-1.4c-0.2-0.6-0.4-1.2-0.4-2c0-0.7,0.1-1.4,0.4-2c0.3-0.6,0.6-1,1.1-1.4
	c0.5-0.3,1-0.5,1.7-0.5s1.2,0.2,1.6,0.5s0.7,0.7,0.9,1.1h0.1v-1.4h1.2v7.4h-1.2v-1.5h-0.1c-0.2,0.4-0.5,0.8-1,1.1
	S670.3,564.1,669.6,564.1z M670,563.1c0.7,0,1.3-0.3,1.7-0.8c0.4-0.5,0.6-1.2,0.6-2c0-0.8-0.2-1.5-0.6-2c-0.4-0.5-0.9-0.8-1.7-0.8
	c-0.7,0-1.3,0.3-1.7,0.8c-0.4,0.5-0.6,1.2-0.6,2c0,0.8,0.2,1.5,0.6,2C668.7,562.8,669.3,563.1,670,563.1z M675.7,556.6h1.2v7.4h-1.2
	V556.6z M676.3,555.2c-0.2,0-0.4-0.1-0.6-0.2c-0.1-0.2-0.2-0.3-0.2-0.6s0.1-0.4,0.2-0.5c0.1-0.2,0.3-0.2,0.6-0.2
	c0.2,0,0.4,0.1,0.6,0.2c0.2,0.1,0.2,0.3,0.2,0.5s-0.1,0.4-0.2,0.6C676.7,555.2,676.5,555.2,676.3,555.2z M679.1,556.6h1.2v1.3h0.1
	c0.2-0.4,0.5-0.8,0.9-1.1c0.4-0.3,0.9-0.4,1.5-0.4c0.6,0,1.1,0.1,1.6,0.4c0.4,0.3,0.7,0.7,0.9,1.2c0.2,0.5,0.3,1,0.3,1.6v4.4h-1.2
	v-4.3c0-0.7-0.2-1.3-0.6-1.7c-0.4-0.4-0.9-0.6-1.5-0.6c-0.6,0-1.2,0.2-1.5,0.6c-0.4,0.4-0.6,0.9-0.6,1.6v4.3h-1.2V556.6z
	 M690.9,564.1c-0.8,0-1.4-0.2-1.9-0.5c-0.5-0.4-0.9-0.8-1.1-1.4c-0.3-0.6-0.4-1.2-0.4-1.9c0-0.7,0.1-1.3,0.4-1.9
	c0.3-0.6,0.6-1.1,1.2-1.4c0.5-0.4,1.2-0.5,1.9-0.5c1,0,1.8,0.3,2.4,1c0.6,0.7,0.9,1.6,0.9,2.9v0.3h-5.5v0.1c0,0.4,0.1,0.8,0.3,1.2
	s0.4,0.7,0.8,0.9s0.7,0.3,1.2,0.3c0.5,0,0.9-0.1,1.2-0.4c0.3-0.2,0.6-0.6,0.8-1h1.2c-0.2,0.7-0.6,1.2-1.1,1.7
	C692.4,563.9,691.7,564.1,690.9,564.1z M693,559.8c0-0.8-0.2-1.4-0.6-1.8s-0.9-0.6-1.5-0.6c-0.7,0-1.2,0.2-1.6,0.7
	c-0.4,0.4-0.6,1-0.6,1.7H693z M697.9,557.6v4.3c0,0.3,0,0.6,0,0.8c0,0.2,0.1,0.3,0.3,0.4c0.1,0.1,0.4,0.1,0.7,0.1
	c0.2,0,0.5,0,0.7-0.1v0.9c-0.1,0-0.2,0.1-0.4,0.1c-0.2,0-0.4,0-0.7,0c-0.5,0-0.9-0.1-1.2-0.2c-0.3-0.2-0.4-0.4-0.5-0.6
	c-0.1-0.3-0.1-0.6-0.1-1.1v-4.5h-1.4v-1h1.4v-2.4h1.2v2.4h1.8v1H697.9z M704.6,554.2h1.4l5.2,7.9h0.1v-7.9h1.2v9.8h-1.4l-5.2-7.8
	h-0.1v7.8h-1.2V554.2z M717.7,564.1c-0.7,0-1.4-0.2-1.9-0.5c-0.5-0.4-0.9-0.8-1.2-1.4c-0.3-0.6-0.4-1.2-0.4-1.9s0.1-1.3,0.4-1.9
	c0.3-0.6,0.6-1.1,1.2-1.4c0.5-0.4,1.2-0.5,1.9-0.5c0.7,0,1.4,0.2,1.9,0.5c0.5,0.4,0.9,0.8,1.2,1.4c0.3,0.6,0.4,1.2,0.4,1.9
	c0,0.7-0.1,1.3-0.4,1.9c-0.3,0.6-0.7,1.1-1.2,1.4C719.1,563.9,718.5,564.1,717.7,564.1z M717.7,563.1c0.5,0,0.9-0.1,1.2-0.4
	c0.3-0.3,0.6-0.6,0.8-1c0.2-0.4,0.3-0.9,0.3-1.4c0-0.8-0.2-1.5-0.6-2c-0.4-0.5-0.9-0.8-1.6-0.8c-0.5,0-0.9,0.1-1.2,0.4
	c-0.3,0.3-0.6,0.6-0.8,1c-0.2,0.4-0.3,0.9-0.3,1.4c0,0.8,0.2,1.5,0.6,2C716.5,562.8,717,563.1,717.7,563.1z M725.7,564.1
	c-0.7,0-1.2-0.2-1.7-0.5c-0.5-0.3-0.8-0.8-1-1.4c-0.2-0.6-0.4-1.2-0.4-2c0-0.7,0.1-1.4,0.4-2c0.2-0.6,0.6-1,1.1-1.4
	c0.5-0.3,1-0.5,1.7-0.5c0.7,0,1.2,0.2,1.6,0.5c0.4,0.3,0.7,0.7,0.9,1.1h0.1v-4.5h1.2V564h-1.2v-1.5h-0.1c-0.2,0.4-0.5,0.8-1,1.1
	C726.8,563.9,726.3,564.1,725.7,564.1z M726,563.1c0.7,0,1.3-0.3,1.7-0.8c0.4-0.5,0.6-1.2,0.6-2c0-0.8-0.2-1.5-0.6-2
	c-0.4-0.5-0.9-0.8-1.7-0.8c-0.7,0-1.3,0.3-1.7,0.8c-0.4,0.5-0.6,1.2-0.6,2c0,0.8,0.2,1.5,0.6,2C724.7,562.8,725.3,563.1,726,563.1z
	 M734.7,564.1c-0.8,0-1.4-0.2-1.9-0.5c-0.5-0.4-0.9-0.8-1.1-1.4c-0.3-0.6-0.4-1.2-0.4-1.9c0-0.7,0.1-1.3,0.4-1.9
	c0.3-0.6,0.6-1.1,1.2-1.4s1.2-0.5,1.9-0.5c1,0,1.8,0.3,2.4,1c0.6,0.7,0.9,1.6,0.9,2.9v0.3h-5.5v0.1c0,0.4,0.1,0.8,0.3,1.2
	c0.2,0.4,0.4,0.7,0.8,0.9s0.7,0.3,1.2,0.3c0.5,0,0.9-0.1,1.2-0.4c0.3-0.2,0.6-0.6,0.8-1h1.2c-0.2,0.7-0.6,1.2-1.1,1.7
	C736.2,563.9,735.5,564.1,734.7,564.1z M736.8,559.8c0-0.8-0.2-1.4-0.6-1.8c-0.4-0.4-0.9-0.6-1.5-0.6c-0.7,0-1.2,0.2-1.6,0.7
	c-0.4,0.4-0.6,1-0.6,1.7H736.8z M742.3,564.1c-0.6,0-1.1-0.1-1.6-0.4c-0.4-0.2-0.8-0.6-1-0.9c-0.2-0.4-0.3-0.8-0.3-1.2v-0.1h1.2v0.1
	c0,0.2,0.1,0.5,0.2,0.7c0.1,0.2,0.3,0.4,0.6,0.6c0.3,0.1,0.6,0.2,1,0.2c0.4,0,0.8-0.1,1.1-0.3c0.3-0.2,0.4-0.5,0.4-0.9
	c0-0.3-0.1-0.6-0.3-0.8c-0.2-0.2-0.5-0.3-0.9-0.4l-1-0.1c-0.6-0.1-1.1-0.3-1.5-0.6c-0.4-0.3-0.6-0.8-0.6-1.4c0-0.7,0.2-1.2,0.7-1.6
	c0.5-0.4,1.1-0.6,1.9-0.6c0.6,0,1.1,0.1,1.5,0.3c0.4,0.2,0.7,0.5,0.9,0.8c0.2,0.3,0.3,0.7,0.3,1.1v0.1h-1.2v0c0-0.2-0.1-0.4-0.2-0.6
	c-0.1-0.2-0.3-0.4-0.5-0.5c-0.2-0.1-0.5-0.2-0.9-0.2c-0.4,0-0.8,0.1-1.1,0.3c-0.3,0.2-0.4,0.5-0.4,0.9c0,0.3,0.1,0.5,0.3,0.7
	s0.5,0.3,0.8,0.4l1,0.2c0.6,0.1,1.1,0.3,1.6,0.6c0.4,0.3,0.6,0.8,0.6,1.4c0,0.4-0.1,0.8-0.4,1.2c-0.2,0.3-0.6,0.6-1,0.8
	C743.3,564,742.8,564.1,742.3,564.1z"/>
<path class="st6" d="M22,405h316c3.9,0,7,3.1,7,7v162c0,3.9-3.1,7-7,7H22c-3.9,0-7-3.1-7-7V412C15,408.1,18.1,405,22,405z"/>
<path class="st6" d="M1062,405h316c3.9,0,7,3.1,7,7v162c0,3.9-3.1,7-7,7h-316c-3.9,0-7-3.1-7-7V412C1055,408.1,1058.1,405,1062,405z
	"/>
<line class="st7" x1="1214" y1="478" x2="1226" y2="478"/>
<line class="st7" x1="1220" y1="472" x2="1220" y2="484"/>
<line class="st7" x1="181" y1="478" x2="193" y2="478"/>
<line class="st7" x1="187" y1="472" x2="187" y2="484"/>
<circle class="st8" cx="96" cy="170" r="2"/>
<circle class="st8" cx="96" cy="180" r="2"/>
<circle class="st8" cx="96" cy="190" r="2"/>
<circle class="st8" cx="96" cy="200" r="2"/>
<circle class="st8" cx="1304" cy="170" r="2"/>
<circle class="st8" cx="1304" cy="180" r="2"/>
<circle class="st8" cx="1304" cy="190" r="2"/>
<circle class="st8" cx="1304" cy="200" r="2"/>
<circle class="st8" cx="90" cy="266" r="2"/>
<circle class="st8" cx="100" cy="266" r="2"/>
<circle class="st8" cx="110" cy="266" r="2"/>
<circle class="st8" cx="120" cy="266" r="2"/>
<circle class="st8" cx="130" cy="266" r="2"/>
<circle class="st8" cx="140" cy="266" r="2"/>
<circle class="st8" cx="150" cy="266" r="2"/>
<circle class="st8" cx="160" cy="266" r="2"/>
<circle class="st8" cx="170" cy="266" r="2"/>
<circle class="st8" cx="180" cy="266" r="2"/>
<circle class="st8" cx="190" cy="266" r="2"/>
<circle class="st8" cx="200" cy="266" r="2"/>
<circle class="st8" cx="210" cy="266" r="2"/>
<circle class="st8" cx="220" cy="266" r="2"/>
<circle class="st8" cx="230" cy="266" r="2"/>
<circle class="st8" cx="240" cy="266" r="2"/>
<circle class="st8" cx="250" cy="266" r="2"/>
<circle class="st8" cx="260" cy="266" r="2"/>
<circle class="st8" cx="270" cy="266" r="2"/>
<circle class="st8" cx="280" cy="266" r="2"/>
<circle class="st8" cx="290" cy="266" r="2"/>
<circle class="st8" cx="300" cy="266" r="2"/>
<circle class="st8" cx="310" cy="266" r="2"/>
<circle class="st8" cx="320" cy="266" r="2"/>
<circle class="st8" cx="330" cy="266" r="2"/>
<circle class="st8" cx="340" cy="266" r="2"/>
<circle class="st8" cx="350" cy="266" r="2"/>
<circle class="st8" cx="360" cy="266" r="2"/>
<circle class="st8" cx="370" cy="266" r="2"/>
<circle class="st8" cx="380" cy="266" r="2"/>
<circle class="st8" cx="390" cy="266" r="2"/>
<circle class="st8" cx="400" cy="266" r="2"/>
<circle class="st8" cx="410" cy="266" r="2"/>
<circle class="st8" cx="420" cy="266" r="2"/>
<circle class="st8" cx="430" cy="266" r="2"/>
<circle class="st8" cx="440" cy="266" r="2"/>
<circle class="st8" cx="450" cy="266" r="2"/>
<circle class="st8" cx="460" cy="266" r="2"/>
<circle class="st8" cx="470" cy="266" r="2"/>
<circle class="st8" cx="480" cy="266" r="2"/>
<circle class="st8" cx="490" cy="266" r="2"/>
<circle class="st8" cx="500" cy="266" r="2"/>
<circle class="st8" cx="510" cy="266" r="2"/>
<circle class="st8" cx="520" cy="266" r="2"/>
<circle class="st8" cx="530" cy="266" r="2"/>
<circle class="st8" cx="540" cy="266" r="2"/>
<circle class="st8" cx="550" cy="266" r="2"/>
<circle class="st8" cx="560" cy="266" r="2"/>
<circle class="st8" cx="570" cy="266" r="2"/>
<circle class="st8" cx="580" cy="266" r="2"/>
<circle class="st8" cx="590" cy="266" r="2"/>
<circle class="st8" cx="600" cy="266" r="2"/>
<circle class="st8" cx="610" cy="266" r="2"/>
<circle class="st8" cx="620" cy="266" r="2"/>
<circle class="st8" cx="630" cy="266" r="2"/>
<circle class="st8" cx="640" cy="266" r="2"/>
<circle class="st8" cx="650" cy="266" r="2"/>
<circle class="st8" cx="660" cy="266" r="2"/>
<circle class="st8" cx="670" cy="266" r="2"/>
<circle class="st8" cx="680" cy="266" r="2"/>
<circle class="st8" cx="690" cy="266" r="2"/>
<circle class="st8" cx="700" cy="266" r="2"/>
<circle class="st8" cx="710" cy="266" r="2"/>
<circle class="st8" cx="720" cy="266" r="2"/>
<circle class="st8" cx="730" cy="266" r="2"/>
<circle class="st8" cx="740" cy="266" r="2"/>
<circle class="st8" cx="750" cy="266" r="2"/>
<circle class="st8" cx="760" cy="266" r="2"/>
<circle class="st8" cx="770" cy="266" r="2"/>
<circle class="st8" cx="780" cy="266" r="2"/>
<circle class="st8" cx="790" cy="266" r="2"/>
<circle class="st8" cx="800" cy="266" r="2"/>
<circle class="st8" cx="810" cy="266" r="2"/>
<circle class="st8" cx="820" cy="266" r="2"/>
<circle class="st8" cx="830" cy="266" r="2"/>
<circle class="st8" cx="840" cy="266" r="2"/>
<circle class="st8" cx="850" cy="266" r="2"/>
<circle class="st8" cx="860" cy="266" r="2"/>
<circle class="st8" cx="870" cy="266" r="2"/>
<circle class="st8" cx="880" cy="266" r="2"/>
<circle class="st8" cx="890" cy="266" r="2"/>
<circle class="st8" cx="900" cy="266" r="2"/>
<circle class="st8" cx="910" cy="266" r="2"/>
<circle class="st8" cx="920" cy="266" r="2"/>
<circle class="st8" cx="930" cy="266" r="2"/>
<circle class="st8" cx="940" cy="266" r="2"/>
<circle class="st8" cx="950" cy="266" r="2"/>
<circle class="st8" cx="960" cy="266" r="2"/>
<circle class="st8" cx="970" cy="266" r="2"/>
<circle class="st8" cx="980" cy="266" r="2"/>
<circle class="st8" cx="990" cy="266" r="2"/>
<circle class="st8" cx="1000" cy="266" r="2"/>
<circle class="st8" cx="1010" cy="266" r="2"/>
<circle class="st8" cx="1020" cy="266" r="2"/>
<circle class="st8" cx="1030" cy="266" r="2"/>
<circle class="st8" cx="1040" cy="266" r="2"/>
<circle class="st8" cx="1050" cy="266" r="2"/>
<circle class="st8" cx="1060" cy="266" r="2"/>
<circle class="st8" cx="1070" cy="266" r="2"/>
<circle class="st8" cx="1080" cy="266" r="2"/>
<circle class="st8" cx="1090" cy="266" r="2"/>
<circle class="st8" cx="1100" cy="266" r="2"/>
<circle class="st8" cx="1110" cy="266" r="2"/>
<circle class="st8" cx="1120" cy="266" r="2"/>
<circle class="st8" cx="1130" cy="266" r="2"/>
<circle class="st8" cx="1140" cy="266" r="2"/>
<circle class="st8" cx="1150" cy="266" r="2"/>
<circle class="st8" cx="1160" cy="266" r="2"/>
<circle class="st8" cx="1170" cy="266" r="2"/>
<circle class="st8" cx="1180" cy="266" r="2"/>
<circle class="st8" cx="1190" cy="266" r="2"/>
<circle class="st8" cx="1200" cy="266" r="2"/>
<circle class="st8" cx="1210" cy="266" r="2"/>
<circle class="st8" cx="1220" cy="266" r="2"/>
<circle class="st8" cx="1230" cy="266" r="2"/>
<circle class="st8" cx="1240" cy="266" r="2"/>
<circle class="st8" cx="1250" cy="266" r="2"/>
<circle class="st8" cx="1260" cy="266" r="2"/>
<circle class="st8" cx="1270" cy="266" r="2"/>
<circle class="st8" cx="1280" cy="266" r="2"/>
<circle class="st8" cx="1290" cy="266" r="2"/>
<circle class="st8" cx="1300" cy="266" r="2"/>
<circle class="st8" cx="1310" cy="266" r="2"/>
<circle class="st8" cx="506.4" cy="37.4" r="2"/>
<circle class="st8" cx="512.6" cy="45.2" r="2"/>
<circle class="st8" cx="518.9" cy="53" r="2"/>
<circle class="st8" cx="525.1" cy="60.8" r="2"/>
<circle class="st8" cx="531.3" cy="68.7" r="2"/>
<circle class="st8" cx="537.5" cy="76.5" r="2"/>
<circle class="st8" cx="543.8" cy="84.3" r="2"/>
<circle class="st8" cx="550" cy="92.1" r="2"/>
<circle class="st8" cx="556.2" cy="100" r="2"/>
<circle class="st8" cx="562.4" cy="107.8" r="2"/>
<circle class="st8" cx="568.7" cy="115.6" r="2"/>
<circle class="st8" cx="574.9" cy="123.5" r="2"/>
<circle class="st8" cx="581.1" cy="131.3" r="2"/>
<circle class="st8" cx="587.3" cy="139.1" r="2"/>
<circle class="st8" cx="593.6" cy="146.9" r="2"/>
<circle class="st8" cx="599.8" cy="154.8" r="2"/>
<circle class="st8" cx="606" cy="162.6" r="2"/>
<circle class="st8" cx="612.2" cy="170.4" r="2"/>
<circle class="st8" cx="618.5" cy="178.2" r="2"/>
<circle class="st8" cx="624.7" cy="186.1" r="2"/>
<circle class="st8" cx="630.9" cy="193.9" r="2"/>
<circle class="st8" cx="637.1" cy="201.7" r="2"/>
<circle class="st8" cx="643.4" cy="209.5" r="2"/>
<circle class="st8" cx="649.6" cy="217.4" r="2"/>
<circle class="st8" cx="655.8" cy="225.2" r="2"/>
<circle class="st8" cx="662" cy="233" r="2"/>
<circle class="st8" cx="668.3" cy="240.9" r="2"/>
<circle class="st8" cx="674.5" cy="248.7" r="2"/>
<circle class="st8" cx="680.7" cy="256.5" r="2"/>
<circle class="st8" cx="686.9" cy="264.3" r="2"/>
<circle class="st8" cx="693.2" cy="272.2" r="2"/>
<circle class="st8" cx="699.4" cy="280" r="2"/>
<circle class="st8" cx="705.6" cy="287.8" r="2"/>
<circle class="st8" cx="711.8" cy="295.6" r="2"/>
<circle class="st8" cx="718" cy="303.5" r="2"/>
<circle class="st8" cx="724.3" cy="311.3" r="2"/>
<circle class="st8" cx="730.5" cy="319.1" r="2"/>
<circle class="st8" cx="736.7" cy="326.9" r="2"/>
<circle class="st8" cx="742.9" cy="334.8" r="2"/>
<circle class="st8" cx="749.2" cy="342.6" r="2"/>
<circle class="st8" cx="755.4" cy="350.4" r="2"/>
<circle class="st8" cx="761.6" cy="358.3" r="2"/>
<circle class="st8" cx="767.8" cy="366.1" r="2"/>
<circle class="st8" cx="774.1" cy="373.9" r="2"/>
<circle class="st8" cx="780.3" cy="381.7" r="2"/>
<circle class="st8" cx="786.5" cy="389.6" r="2"/>
<circle class="st8" cx="792.7" cy="397.4" r="2"/>
<circle class="st8" cx="799" cy="405.2" r="2"/>
<circle class="st8" cx="805.2" cy="413" r="2"/>
<circle class="st8" cx="811.4" cy="420.9" r="2"/>
<circle class="st8" cx="817.6" cy="428.7" r="2"/>
<circle class="st8" cx="823.9" cy="436.5" r="2"/>
<circle class="st8" cx="830.1" cy="444.3" r="2"/>
<circle class="st8" cx="836.3" cy="452.2" r="2"/>
<circle class="st8" cx="842.5" cy="460" r="2"/>
<circle class="st8" cx="848.8" cy="467.8" r="2"/>
<circle class="st8" cx="855" cy="475.7" r="2"/>
<circle class="st8" cx="861.2" cy="483.5" r="2"/>
<circle class="st8" cx="867.4" cy="491.3" r="2"/>
<circle class="st8" cx="873.7" cy="499.1" r="2"/>
<circle class="st8" cx="879.9" cy="507" r="2"/>
<circle class="st8" cx="886.1" cy="514.8" r="2"/>
<circle class="st8" cx="886.1" cy="37.4" r="2"/>
<circle class="st8" cx="879.9" cy="45.2" r="2"/>
<circle class="st8" cx="873.7" cy="53" r="2"/>
<circle class="st8" cx="867.4" cy="60.8" r="2"/>
<circle class="st8" cx="861.2" cy="68.7" r="2"/>
<circle class="st8" cx="855" cy="76.5" r="2"/>
<circle class="st8" cx="848.8" cy="84.3" r="2"/>
<circle class="st8" cx="842.5" cy="92.1" r="2"/>
<circle class="st8" cx="836.3" cy="100" r="2"/>
<circle class="st8" cx="830.1" cy="107.8" r="2"/>
<circle class="st8" cx="823.9" cy="115.6" r="2"/>
<circle class="st8" cx="817.6" cy="123.5" r="2"/>
<circle class="st8" cx="811.4" cy="131.3" r="2"/>
<circle class="st8" cx="805.2" cy="139.1" r="2"/>
<circle class="st8" cx="799" cy="146.9" r="2"/>
<circle class="st8" cx="792.7" cy="154.8" r="2"/>
<circle class="st8" cx="786.5" cy="162.6" r="2"/>
<circle class="st8" cx="780.3" cy="170.4" r="2"/>
<circle class="st8" cx="774.1" cy="178.2" r="2"/>
<circle class="st8" cx="767.8" cy="186.1" r="2"/>
<circle class="st8" cx="761.6" cy="193.9" r="2"/>
<circle class="st8" cx="755.4" cy="201.7" r="2"/>
<circle class="st8" cx="749.2" cy="209.5" r="2"/>
<circle class="st8" cx="743" cy="217.4" r="2"/>
<circle class="st8" cx="736.7" cy="225.2" r="2"/>
<circle class="st8" cx="730.5" cy="233" r="2"/>
<circle class="st8" cx="724.3" cy="240.9" r="2"/>
<circle class="st8" cx="718.1" cy="248.7" r="2"/>
<circle class="st8" cx="711.8" cy="256.5" r="2"/>
<circle class="st8" cx="705.6" cy="264.3" r="2"/>
<circle class="st8" cx="699.4" cy="272.2" r="2"/>
<circle class="st8" cx="693.2" cy="280" r="2"/>
<circle class="st8" cx="686.9" cy="287.8" r="2"/>
<circle class="st8" cx="680.7" cy="295.6" r="2"/>
<circle class="st8" cx="674.5" cy="303.5" r="2"/>
<circle class="st8" cx="668.3" cy="311.3" r="2"/>
<circle class="st8" cx="662" cy="319.1" r="2"/>
<circle class="st8" cx="655.8" cy="326.9" r="2"/>
<circle class="st8" cx="649.6" cy="334.8" r="2"/>
<circle class="st8" cx="643.4" cy="342.6" r="2"/>
<circle class="st8" cx="637.1" cy="350.4" r="2"/>
<circle class="st8" cx="630.9" cy="358.3" r="2"/>
<circle class="st8" cx="624.7" cy="366.1" r="2"/>
<circle class="st8" cx="618.5" cy="373.9" r="2"/>
<circle class="st8" cx="612.2" cy="381.7" r="2"/>
<circle class="st8" cx="606" cy="389.6" r="2"/>
<circle class="st8" cx="599.8" cy="397.4" r="2"/>
<circle class="st8" cx="593.6" cy="405.2" r="2"/>
<circle class="st8" cx="587.3" cy="413" r="2"/>
<circle class="st8" cx="581.1" cy="420.9" r="2"/>
<circle class="st8" cx="574.9" cy="428.7" r="2"/>
<circle class="st8" cx="568.7" cy="436.5" r="2"/>
<circle class="st8" cx="562.4" cy="444.3" r="2"/>
<circle class="st8" cx="556.2" cy="452.2" r="2"/>
<circle class="st8" cx="550" cy="460" r="2"/>
<circle class="st8" cx="543.8" cy="467.8" r="2"/>
<circle class="st8" cx="537.5" cy="475.7" r="2"/>
<circle class="st8" cx="531.3" cy="483.5" r="2"/>
<circle class="st8" cx="525.1" cy="491.3" r="2"/>
<circle class="st8" cx="518.9" cy="499.1" r="2"/>
<circle class="st8" cx="512.6" cy="507" r="2"/>
<circle class="st8" cx="506.4" cy="514.8" r="2"/>
<circle class="st8" cx="700" cy="31.1" r="2"/>
<circle class="st8" cx="700" cy="41.1" r="2"/>
<circle class="st8" cx="700" cy="51.1" r="2"/>
<circle class="st8" cx="700" cy="61.1" r="2"/>
<circle class="st8" cx="700" cy="71.1" r="2"/>
<circle class="st8" cx="700" cy="81.1" r="2"/>
<circle class="st8" cx="700" cy="91.1" r="2"/>
<circle class="st8" cx="700" cy="101.1" r="2"/>
<circle class="st8" cx="700" cy="111.1" r="2"/>
<circle class="st8" cx="700" cy="121.1" r="2"/>
<circle class="st8" cx="700" cy="131.1" r="2"/>
<circle class="st8" cx="700" cy="141.1" r="2"/>
<circle class="st8" cx="700" cy="151.1" r="2"/>
<circle class="st8" cx="700" cy="161.1" r="2"/>
<circle class="st8" cx="700" cy="171.1" r="2"/>
<circle class="st8" cx="700" cy="181.1" r="2"/>
<circle class="st8" cx="700" cy="191.1" r="2"/>
<circle class="st8" cx="700" cy="201.1" r="2"/>
<circle class="st8" cx="700" cy="211.1" r="2"/>
<circle class="st8" cx="700" cy="221.1" r="2"/>
<circle class="st8" cx="700" cy="231.1" r="2"/>
<circle class="st8" cx="700" cy="241.1" r="2"/>
<circle class="st8" cx="700" cy="251.1" r="2"/>
<circle class="st8" cx="700" cy="261.1" r="2"/>
<circle class="st8" cx="700" cy="271.1" r="2"/>
<circle class="st8" cx="700" cy="281.1" r="2"/>
<circle class="st8" cx="700" cy="291.1" r="2"/>
<circle class="st8" cx="700" cy="301.1" r="2"/>
<circle class="st8" cx="700" cy="311.1" r="2"/>
<circle class="st8" cx="700" cy="321.1" r="2"/>
<circle class="st8" cx="700" cy="331.1" r="2"/>
<circle class="st8" cx="700" cy="341.1" r="2"/>
<circle class="st8" cx="700" cy="351.1" r="2"/>
<circle class="st8" cx="700" cy="361.1" r="2"/>
<circle class="st8" cx="700" cy="371.1" r="2"/>
<circle class="st8" cx="700" cy="381.1" r="2"/>
<circle class="st8" cx="700" cy="391.1" r="2"/>
<circle class="st8" cx="700" cy="401.1" r="2"/>
<circle class="st8" cx="700" cy="411.1" r="2"/>
<circle class="st8" cx="700" cy="421.1" r="2"/>
<circle class="st8" cx="700" cy="431.1" r="2"/>
<circle class="st8" cx="700" cy="441.1" r="2"/>
<circle class="st8" cx="700" cy="451.1" r="2"/>
<circle class="st8" cx="700" cy="461.1" r="2"/>
<circle class="st8" cx="700" cy="471.1" r="2"/>
<circle class="st8" cx="700" cy="481.1" r="2"/>
<circle class="st8" cx="700" cy="491.1" r="2"/>
<circle class="st8" cx="700" cy="501.1" r="2"/>
<circle class="st8" cx="700" cy="511.1" r="2"/>
<circle class="st8" cx="700" cy="521.1" r="2"/>
<circle class="st8" cx="700" cy="531.1" r="2"/>
<circle class="st8" cx="525" cy="76" r="2"/>
<circle class="st8" cx="535" cy="76" r="2"/>
<circle class="st8" cx="545" cy="76" r="2"/>
<circle class="st8" cx="555" cy="76" r="2"/>
<circle class="st8" cx="565" cy="76" r="2"/>
<circle class="st8" cx="575" cy="76" r="2"/>
<circle class="st8" cx="585" cy="76" r="2"/>
<circle class="st8" cx="595" cy="76" r="2"/>
<circle class="st8" cx="605" cy="76" r="2"/>
<circle class="st8" cx="615" cy="76" r="2"/>
<circle class="st8" cx="625" cy="76" r="2"/>
<circle class="st8" cx="635" cy="76" r="2"/>
<circle class="st8" cx="645" cy="76" r="2"/>
<circle class="st8" cx="655" cy="76" r="2"/>
<circle class="st8" cx="665" cy="76" r="2"/>
<circle class="st8" cx="675" cy="76" r="2"/>
<circle class="st8" cx="685" cy="76" r="2"/>
<circle class="st8" cx="695" cy="76" r="2"/>
<circle class="st8" cx="705" cy="76" r="2"/>
<circle class="st8" cx="715" cy="76" r="2"/>
<circle class="st8" cx="725" cy="76" r="2"/>
<circle class="st8" cx="735" cy="76" r="2"/>
<circle class="st8" cx="745" cy="76" r="2"/>
<circle class="st8" cx="755" cy="76" r="2"/>
<circle class="st8" cx="765" cy="76" r="2"/>
<circle class="st8" cx="775" cy="76" r="2"/>
<circle class="st8" cx="785" cy="76" r="2"/>
<circle class="st8" cx="795" cy="76" r="2"/>
<circle class="st8" cx="805" cy="76" r="2"/>
<circle class="st8" cx="815" cy="76" r="2"/>
<circle class="st8" cx="825" cy="76" r="2"/>
<circle class="st8" cx="835" cy="76" r="2"/>
<circle class="st8" cx="845" cy="76" r="2"/>
<circle class="st8" cx="855" cy="76" r="2"/>
<circle class="st8" cx="865" cy="76" r="2"/>
<circle class="st8" cx="875" cy="76" r="2"/>
<circle class="st8" cx="913" cy="76" r="2"/>
<circle class="st8" cx="923" cy="76" r="2"/>
<circle class="st8" cx="933" cy="76" r="2"/>
<circle class="st8" cx="943" cy="76" r="2"/>
<circle class="st8" cx="953" cy="76" r="2"/>
<circle class="st8" cx="963" cy="76" r="2"/>
<circle class="st8" cx="973" cy="76" r="2"/>
<circle class="st8" cx="983" cy="76" r="2"/>
<circle class="st8" cx="993" cy="76" r="2"/>
<circle class="st8" cx="1003" cy="76" r="2"/>
<circle class="st8" cx="1013" cy="76" r="2"/>
<circle class="st8" cx="1023" cy="76" r="2"/>
<circle class="st8" cx="1033" cy="76" r="2"/>
<circle class="st8" cx="1043" cy="76" r="2"/>
<circle class="st8" cx="1053" cy="76" r="2"/>
<circle class="st8" cx="1063" cy="76" r="2"/>
<circle class="st8" cx="1073" cy="76" r="2"/>
<circle class="st8" cx="1083" cy="76" r="2"/>
<circle class="st8" cx="1093" cy="76" r="2"/>
<circle class="st8" cx="1103" cy="76" r="2"/>
<circle class="st8" cx="1113" cy="76" r="2"/>
<circle class="st8" cx="1123" cy="76" r="2"/>
<circle class="st8" cx="1133" cy="76" r="2"/>
<circle class="st8" cx="1143" cy="76" r="2"/>
<circle class="st8" cx="1153" cy="76" r="2"/>
<circle class="st8" cx="1163" cy="76" r="2"/>
<circle class="st8" cx="1173" cy="76" r="2"/>
<circle class="st8" cx="1183" cy="76" r="2"/>
<circle class="st8" cx="1193" cy="76" r="2"/>
<circle class="st8" cx="1203" cy="76" r="2"/>
<circle class="st8" cx="1213" cy="76" r="2"/>
<circle class="st8" cx="1223" cy="76" r="2"/>
<circle class="st8" cx="1233" cy="76" r="2"/>
<circle class="st8" cx="1243" cy="76" r="2"/>
<circle class="st8" cx="1253" cy="76" r="2"/>
<circle class="st8" cx="1263" cy="76" r="2"/>
<circle class="st8" cx="350" cy="478" r="2"/>
<circle class="st8" cx="360" cy="478" r="2"/>
<circle class="st8" cx="370" cy="478" r="2"/>
<circle class="st8" cx="380" cy="478" r="2"/>
<circle class="st8" cx="390" cy="478" r="2"/>
<circle class="st8" cx="400" cy="478" r="2"/>
<circle class="st8" cx="410" cy="478" r="2"/>
<circle class="st8" cx="420" cy="478" r="2"/>
<circle class="st8" cx="430" cy="478" r="2"/>
<circle class="st8" cx="440" cy="478" r="2"/>
<circle class="st8" cx="450" cy="478" r="2"/>
<circle class="st8" cx="460" cy="478" r="2"/>
<circle class="st8" cx="470" cy="478" r="2"/>
<circle class="st8" cx="480" cy="478" r="2"/>
<circle class="st8" cx="490" cy="478" r="2"/>
<circle class="st8" cx="500" cy="478" r="2"/>
<circle class="st8" cx="510" cy="478" r="2"/>
<circle class="st8" cx="520" cy="478" r="2"/>
<circle class="st8" cx="530" cy="478" r="2"/>
<circle class="st8" cx="540" cy="478" r="2"/>
<circle class="st8" cx="550" cy="478" r="2"/>
<circle class="st8" cx="560" cy="478" r="2"/>
<circle class="st8" cx="570" cy="478" r="2"/>
<circle class="st8" cx="580" cy="478" r="2"/>
<circle class="st8" cx="590" cy="478" r="2"/>
<circle class="st8" cx="600" cy="478" r="2"/>
<circle class="st8" cx="610" cy="478" r="2"/>
<circle class="st8" cx="620" cy="478" r="2"/>
<circle class="st8" cx="630" cy="478" r="2"/>
<circle class="st8" cx="640" cy="478" r="2"/>
<circle class="st8" cx="650" cy="478" r="2"/>
<circle class="st8" cx="660" cy="478" r="2"/>
<circle class="st8" cx="670" cy="478" r="2"/>
<circle class="st8" cx="680" cy="478" r="2"/>
<circle class="st8" cx="690" cy="478" r="2"/>
<circle class="st8" cx="700" cy="478" r="2"/>
<circle class="st8" cx="710" cy="478" r="2"/>
<circle class="st8" cx="720" cy="478" r="2"/>
<circle class="st8" cx="730" cy="478" r="2"/>
<circle class="st8" cx="740" cy="478" r="2"/>
<circle class="st8" cx="750" cy="478" r="2"/>
<circle class="st8" cx="760" cy="478" r="2"/>
<circle class="st8" cx="770" cy="478" r="2"/>
<circle class="st8" cx="780" cy="478" r="2"/>
<circle class="st8" cx="790" cy="478" r="2"/>
<circle class="st8" cx="800" cy="478" r="2"/>
<circle class="st8" cx="810" cy="478" r="2"/>
<circle class="st8" cx="820" cy="478" r="2"/>
<circle class="st8" cx="830" cy="478" r="2"/>
<circle class="st8" cx="840" cy="478" r="2"/>
<circle class="st8" cx="850" cy="478" r="2"/>
<circle class="st8" cx="860" cy="478" r="2"/>
<circle class="st8" cx="870" cy="478" r="2"/>
<circle class="st8" cx="880" cy="478" r="2"/>
<circle class="st8" cx="890" cy="478" r="2"/>
<circle class="st8" cx="900" cy="478" r="2"/>
<circle class="st8" cx="910" cy="478" r="2"/>
<circle class="st8" cx="920" cy="478" r="2"/>
<circle class="st8" cx="930" cy="478" r="2"/>
<circle class="st8" cx="940" cy="478" r="2"/>
<circle class="st8" cx="950" cy="478" r="2"/>
<circle class="st8" cx="960" cy="478" r="2"/>
<circle class="st8" cx="970" cy="478" r="2"/>
<circle class="st8" cx="980" cy="478" r="2"/>
<circle class="st8" cx="990" cy="478" r="2"/>
<circle class="st8" cx="1000" cy="478" r="2"/>
<circle class="st8" cx="1010" cy="478" r="2"/>
<circle class="st8" cx="1020" cy="478" r="2"/>
<circle class="st8" cx="1030" cy="478" r="2"/>
<circle class="st8" cx="1040" cy="478" r="2"/>
<circle class="st8" cx="1050" cy="478" r="2"/>
<path class="st9" d="M700,330c-35.3,0-64-28.7-64-64s28.7-64,64-64s64,28.7,64,64S735.3,330,700,330z"/>
<g>
	<path class="st0" d="M96,322c30.9,0,56-25.1,56-56s-25.1-56-56-56c-30.9,0-56,25.1-56,56S65.1,322,96,322z"/>
	<path class="st3" d="M112.2,280.2H86c-0.8,0-1.5-0.7-1.5-1.5v-30c0-0.8,0.7-1.5,1.5-1.5h26.2c0.8,0,1.5,0.7,1.5,1.5v30
		C113.7,279.6,113.1,280.2,112.2,280.2z"/>
	<path class="st1" d="M106.9,285.5H79.3c-0.8,0-1.5-0.7-1.5-1.5V254c0-0.8,0.7-1.5,1.5-1.5h27.7c0.8,0,1.5,0.7,1.5,1.5V284
		C108.5,284.8,107.8,285.5,106.9,285.5z"/>
	<path class="st5" d="M86,260.8c0.8,0,1.5-0.7,1.5-1.5s-0.7-1.5-1.5-1.5c-0.8,0-1.5,0.7-1.5,1.5S85.2,260.8,86,260.8z"/>
	<path class="st5" d="M99.5,260.8c0.8,0,1.5-0.7,1.5-1.5s-0.7-1.5-1.5-1.5s-1.5,0.7-1.5,1.5S98.7,260.8,99.5,260.8z"/>
	<path class="st4" d="M86,259.2v2.3c0,3.7,3,6.8,6.8,6.8c3.7,0,6.8-3,6.8-6.8v-2.3"/>
</g>
<path class="st5" d="M66.5,342.2h3.9c0.7,0,1.2,0.1,1.6,0.4c0.4,0.3,0.7,0.6,0.9,1c0.2,0.4,0.3,0.8,0.3,1.2c0,0.4-0.1,0.8-0.3,1.1
	c-0.2,0.3-0.4,0.5-0.6,0.7s-0.5,0.3-0.7,0.3v0.1c0.2,0,0.5,0.1,0.8,0.3c0.3,0.1,0.6,0.4,0.9,0.7c0.3,0.3,0.4,0.8,0.4,1.3
	c0,0.5-0.1,0.9-0.3,1.3c-0.2,0.4-0.5,0.8-1,1c-0.4,0.3-1,0.4-1.7,0.4h-4.1V342.2z M70.1,346.5c0.5,0,1-0.1,1.4-0.4
	c0.4-0.3,0.6-0.7,0.6-1.3c0-0.6-0.2-1-0.6-1.2c-0.4-0.3-0.8-0.4-1.4-0.4h-2.4v3.3H70.1z M70.3,351c0.6,0,1.1-0.1,1.5-0.4
	c0.4-0.3,0.6-0.7,0.6-1.4c0-0.6-0.2-1.1-0.6-1.3c-0.4-0.3-0.9-0.4-1.5-0.4h-2.7v3.5H70.3z M75.2,344.6h1.2v1.2h0.1
	c0.1-0.3,0.3-0.6,0.6-0.8c0.3-0.2,0.7-0.3,1.2-0.3c0.1,0,0.3,0,0.3,0c0.1,0,0.2,0,0.3,0.1l0,1.2c-0.1,0-0.3-0.1-0.4-0.1
	c-0.1,0-0.2,0-0.4,0c-1.2,0-1.7,0.7-1.7,2.1v4.2h-1.2V344.6z M83.2,352.1c-0.7,0-1.4-0.2-1.9-0.5c-0.5-0.4-0.9-0.8-1.2-1.4
	c-0.3-0.6-0.4-1.2-0.4-1.9s0.1-1.3,0.4-1.9c0.3-0.6,0.6-1.1,1.2-1.4c0.5-0.4,1.2-0.5,1.9-0.5c0.7,0,1.4,0.2,1.9,0.5
	c0.5,0.4,0.9,0.8,1.2,1.4c0.3,0.6,0.4,1.2,0.4,1.9s-0.1,1.3-0.4,1.9c-0.3,0.6-0.7,1.1-1.2,1.4C84.6,351.9,83.9,352.1,83.2,352.1z
	 M83.2,351.1c0.5,0,0.9-0.1,1.2-0.4c0.3-0.3,0.6-0.6,0.8-1c0.2-0.4,0.3-0.9,0.3-1.4c0-0.8-0.2-1.5-0.6-2c-0.4-0.5-0.9-0.8-1.6-0.8
	c-0.5,0-0.9,0.1-1.2,0.4c-0.3,0.3-0.6,0.6-0.8,1c-0.2,0.4-0.3,0.9-0.3,1.4c0,0.8,0.2,1.5,0.6,2C81.9,350.8,82.5,351.1,83.2,351.1z
	 M87.8,344.6h1.1l1.6,6.1h0.1l1.9-6.1h1.1l1.9,6.1h0.1l1.6-6.1h1.1l-2,7.4h-1.5l-1.6-5.4H93l-1.6,5.4h-1.5L87.8,344.6z M102.3,352.1
	c-0.6,0-1.1-0.1-1.6-0.4c-0.4-0.2-0.8-0.6-1-0.9c-0.2-0.4-0.3-0.8-0.3-1.2v-0.1h1.2v0.1c0,0.2,0.1,0.5,0.2,0.7
	c0.1,0.2,0.3,0.4,0.6,0.6c0.3,0.1,0.6,0.2,1,0.2c0.4,0,0.8-0.1,1.1-0.3c0.3-0.2,0.4-0.5,0.4-0.9c0-0.3-0.1-0.6-0.3-0.8
	c-0.2-0.2-0.5-0.3-0.9-0.4l-1-0.1c-0.6-0.1-1.1-0.3-1.5-0.6c-0.4-0.3-0.6-0.8-0.6-1.4c0-0.7,0.2-1.2,0.7-1.6
	c0.5-0.4,1.1-0.6,1.9-0.6c0.6,0,1.1,0.1,1.5,0.3c0.4,0.2,0.7,0.5,0.9,0.8c0.2,0.3,0.3,0.7,0.3,1.1v0.1h-1.2v0c0-0.2-0.1-0.4-0.2-0.6
	c-0.1-0.2-0.3-0.4-0.5-0.5c-0.2-0.1-0.5-0.2-0.9-0.2c-0.4,0-0.8,0.1-1.1,0.3c-0.3,0.2-0.4,0.5-0.4,0.9c0,0.3,0.1,0.5,0.3,0.7
	c0.2,0.2,0.5,0.3,0.8,0.4l1,0.2c0.6,0.1,1.1,0.3,1.6,0.6c0.4,0.3,0.6,0.8,0.6,1.4c0,0.4-0.1,0.8-0.4,1.2c-0.2,0.3-0.6,0.6-1,0.8
	C103.3,352,102.8,352.1,102.3,352.1z M106.8,344.6h1.2v7.4h-1.2V344.6z M107.4,343.2c-0.2,0-0.4-0.1-0.6-0.2
	c-0.1-0.2-0.2-0.3-0.2-0.6s0.1-0.4,0.2-0.5c0.1-0.2,0.3-0.2,0.6-0.2s0.4,0.1,0.6,0.2c0.2,0.1,0.2,0.3,0.2,0.5s-0.1,0.4-0.2,0.6
	C107.8,343.2,107.7,343.2,107.4,343.2z M110.3,344.6h1.2v1.3h0.1c0.2-0.4,0.5-0.8,0.9-1.1c0.4-0.3,0.9-0.4,1.5-0.4
	c0.6,0,1.1,0.1,1.6,0.4c0.4,0.3,0.7,0.7,0.9,1.2c0.2,0.5,0.3,1,0.3,1.6v4.4h-1.2v-4.3c0-0.7-0.2-1.3-0.6-1.7
	c-0.4-0.4-0.9-0.6-1.5-0.6c-0.6,0-1.2,0.2-1.5,0.6c-0.4,0.4-0.6,0.9-0.6,1.6v4.3h-1.2V344.6z M122.2,355c-0.3,0-0.5,0-0.7-0.1
	c-0.2,0-0.3-0.1-0.5-0.2v-1c0.1,0,0.3,0.1,0.5,0.1c0.2,0,0.4,0.1,0.6,0.1c0.7,0,1.3-0.2,1.6-0.6c0.4-0.4,0.6-1,0.6-1.6v-1.3h-0.1
	c-0.2,0.4-0.5,0.8-1,1.1c-0.4,0.3-1,0.4-1.6,0.4c-0.6,0-1.2-0.2-1.6-0.5c-0.5-0.3-0.8-0.8-1.1-1.3c-0.3-0.6-0.4-1.2-0.4-1.9
	c0-0.7,0.1-1.4,0.4-1.9c0.3-0.6,0.6-1,1.1-1.3c0.5-0.3,1-0.5,1.6-0.5c0.6,0,1.2,0.2,1.6,0.5c0.4,0.3,0.7,0.7,0.9,1.1h0.1v-1.4h1.2v7
	c0,0.5-0.1,1-0.3,1.5c-0.2,0.5-0.6,0.9-1,1.3C123.6,354.8,123,355,122.2,355z M122,350.8c0.5,0,0.9-0.1,1.2-0.4
	c0.3-0.3,0.6-0.6,0.7-1c0.2-0.4,0.3-0.9,0.3-1.3c0-0.5-0.1-0.9-0.3-1.3c-0.2-0.4-0.4-0.7-0.7-1c-0.3-0.3-0.7-0.4-1.2-0.4
	c-0.7,0-1.3,0.3-1.7,0.8c-0.4,0.5-0.6,1.1-0.6,1.9c0,0.5,0.1,0.9,0.2,1.4c0.2,0.4,0.4,0.7,0.7,1C121.2,350.7,121.6,350.8,122,350.8z
	"/>
<g>
	<path class="st0" d="M952,322c30.9,0,56-25.1,56-56s-25.1-56-56-56s-56,25.1-56,56S921.1,322,952,322z"/>
	<path class="st1" d="M970.3,280.9h-37.8c-1,0-1.8-0.8-1.8-1.8v-25.8c0-1,0.8-1.8,1.8-1.8h37.8c1,0,1.8,0.8,1.8,1.8v25.8
		C972,280.1,971.3,280.9,970.3,280.9z"/>
	<path class="st4" d="M930.8,259.1H972"/>
	<path class="st10" d="M935.9,274.5h4.2"/>
	<path class="st3" d="M966,283.7c4.5,0,8.2-3.7,8.2-8.2c0-4.5-3.7-8.2-8.2-8.2c-4.5,0-8.2,3.7-8.2,8.2
		C957.8,280,961.5,283.7,966,283.7z"/>
	<path class="st2" d="M963.5,278.6l0.6-0.9c0.6,0.4,1.1,0.7,1.7,0.7c0.8,0,1.1-0.4,1.1-1c0-1.5-3.2-1.3-3.2-3.5
		c0-1.3,0.9-2.1,2.3-2.1c1,0,1.6,0.4,2.1,0.9l-0.7,0.8c-0.4-0.4-0.8-0.6-1.4-0.6c-0.6,0-1,0.3-1,0.9c0,1.4,3.2,1.1,3.2,3.5
		c0,1.3-0.9,2.2-2.4,2.2C965.1,279.5,964.1,279.2,963.5,278.6z M965.6,270.7h0.9v1.6h-0.9V270.7z M965.6,279h0.9v1.7h-0.9V279z"/>
</g>
<path class="st5" d="M910.8,343.3v3.2l4.1,0v1h-4.1v4.5h-1.2v-9.8h5.9v1.1H910.8z M916.9,344.6h1.2v7.4h-1.2V344.6z M917.4,343.2
	c-0.2,0-0.4-0.1-0.6-0.2c-0.1-0.2-0.2-0.3-0.2-0.6s0.1-0.4,0.2-0.5c0.1-0.2,0.3-0.2,0.6-0.2s0.4,0.1,0.6,0.2
	c0.2,0.1,0.2,0.3,0.2,0.5s-0.1,0.4-0.2,0.6C917.9,343.2,917.7,343.2,917.4,343.2z M923,352.1c-0.7,0-1.2-0.2-1.7-0.5
	c-0.5-0.3-0.8-0.8-1-1.4c-0.2-0.6-0.4-1.2-0.4-2s0.1-1.4,0.4-2c0.3-0.6,0.6-1,1.1-1.4c0.5-0.3,1-0.5,1.7-0.5s1.2,0.2,1.6,0.5
	s0.7,0.7,0.9,1.1h0.1v-1.4h1.2v7.4h-1.2v-1.5h-0.1c-0.2,0.4-0.5,0.8-1,1.1C924.1,351.9,923.6,352.1,923,352.1z M923.3,351.1
	c0.7,0,1.3-0.3,1.7-0.8c0.4-0.5,0.6-1.2,0.6-2s-0.2-1.5-0.6-2c-0.4-0.5-0.9-0.8-1.7-0.8c-0.7,0-1.3,0.3-1.7,0.8
	c-0.4,0.5-0.6,1.2-0.6,2c0,0.8,0.2,1.5,0.6,2C922,350.8,922.6,351.1,923.3,351.1z M931,345.6v4.3c0,0.3,0,0.6,0,0.8
	c0,0.2,0.1,0.3,0.3,0.4c0.1,0.1,0.4,0.1,0.7,0.1c0.2,0,0.5,0,0.7-0.1v0.9c-0.1,0-0.2,0.1-0.4,0.1c-0.2,0-0.4,0-0.7,0
	c-0.5,0-0.9-0.1-1.2-0.2c-0.3-0.2-0.4-0.4-0.5-0.6c-0.1-0.3-0.1-0.6-0.1-1.1v-4.5h-1.4v-1h1.4v-2.4h1.2v2.4h1.8v1H931z M941,342.2
	c0.8,0,1.4,0.2,1.9,0.5c0.5,0.3,0.9,0.7,1.1,1.2c0.2,0.5,0.3,1,0.3,1.5c0,0.5-0.1,1.1-0.3,1.5c-0.2,0.5-0.6,0.9-1.1,1.2
	c-0.5,0.3-1.2,0.5-2,0.5h-2.2v3.4h-1.2v-9.8H941z M940.9,347.6c0.7,0,1.2-0.2,1.7-0.5c0.5-0.3,0.7-0.9,0.7-1.7
	c0-0.8-0.2-1.3-0.7-1.6c-0.4-0.3-1-0.5-1.7-0.5h-2v4.3H940.9z M948.6,352.1c-0.7,0-1.2-0.2-1.7-0.5c-0.5-0.3-0.8-0.8-1-1.4
	c-0.2-0.6-0.4-1.2-0.4-2s0.1-1.4,0.4-2c0.3-0.6,0.6-1,1.1-1.4c0.5-0.3,1-0.5,1.7-0.5c0.7,0,1.2,0.2,1.6,0.5c0.4,0.3,0.7,0.7,0.9,1.1
	h0.1v-1.4h1.2v7.4h-1.2v-1.5h-0.1c-0.2,0.4-0.5,0.8-1,1.1C949.8,351.9,949.2,352.1,948.6,352.1z M949,351.1c0.7,0,1.3-0.3,1.7-0.8
	c0.4-0.5,0.6-1.2,0.6-2s-0.2-1.5-0.6-2c-0.4-0.5-0.9-0.8-1.7-0.8c-0.7,0-1.3,0.3-1.7,0.8c-0.4,0.5-0.6,1.2-0.6,2
	c0,0.8,0.2,1.5,0.6,2C947.7,350.8,948.2,351.1,949,351.1z M957.3,353c-0.1,0.4-0.3,0.6-0.4,0.9c-0.1,0.2-0.4,0.5-0.7,0.7
	c-0.3,0.2-0.7,0.3-1.2,0.3c-0.3,0-0.5,0-0.8-0.1v-0.9c0.2,0,0.4,0.1,0.6,0.1c0.3,0,0.6-0.1,0.7-0.2c0.2-0.1,0.3-0.3,0.4-0.4
	c0.1-0.2,0.2-0.5,0.4-0.8l0.3-0.8l-2.7-7h1.3l2.1,5.7h0.1l2.2-5.7h1.3L957.3,353z M962.2,344.6h1.2v1.4h0.1c0-0.1,0.1-0.3,0.3-0.5
	c0.2-0.3,0.4-0.5,0.8-0.7c0.3-0.2,0.8-0.3,1.3-0.3c0.5,0,1,0.1,1.3,0.4c0.4,0.3,0.6,0.5,0.8,0.8c0.2,0.3,0.3,0.5,0.3,0.5h0.1
	c0.1-0.3,0.4-0.7,0.8-1.1c0.4-0.4,1-0.6,1.8-0.6c0.6,0,1.1,0.2,1.5,0.5c0.4,0.3,0.7,0.7,0.9,1.2c0.2,0.5,0.3,1,0.3,1.5v4.4h-1.2
	v-4.3c0-0.7-0.2-1.2-0.6-1.6c-0.4-0.4-0.8-0.5-1.4-0.5c-0.6,0-1,0.2-1.4,0.6c-0.4,0.4-0.6,0.9-0.6,1.6v4.3h-1.2v-4.3
	c0-0.7-0.2-1.2-0.6-1.6c-0.4-0.4-0.8-0.5-1.4-0.5c-0.6,0-1,0.2-1.4,0.6c-0.4,0.4-0.6,0.9-0.6,1.6v4.3h-1.2V344.6z M978.7,352.1
	c-0.8,0-1.4-0.2-1.9-0.5c-0.5-0.4-0.9-0.8-1.1-1.4c-0.3-0.6-0.4-1.2-0.4-1.9c0-0.7,0.1-1.3,0.4-1.9c0.3-0.6,0.6-1.1,1.2-1.4
	c0.5-0.4,1.2-0.5,1.9-0.5c1,0,1.8,0.3,2.4,1c0.6,0.7,0.9,1.6,0.9,2.9v0.3h-5.5v0.1c0,0.4,0.1,0.8,0.3,1.2c0.2,0.4,0.4,0.7,0.8,0.9
	s0.7,0.3,1.2,0.3c0.5,0,0.9-0.1,1.2-0.4c0.3-0.2,0.6-0.6,0.8-1h1.2c-0.2,0.7-0.6,1.2-1.1,1.7C980.3,351.9,979.6,352.1,978.7,352.1z
	 M980.8,347.8c0-0.8-0.2-1.4-0.6-1.8c-0.4-0.4-0.9-0.6-1.5-0.6c-0.7,0-1.2,0.2-1.6,0.7c-0.4,0.4-0.6,1-0.6,1.7H980.8z M983.8,344.6
	h1.2v1.3h0.1c0.2-0.4,0.5-0.8,0.9-1.1c0.4-0.3,0.9-0.4,1.5-0.4c0.6,0,1.1,0.1,1.6,0.4c0.4,0.3,0.7,0.7,0.9,1.2
	c0.2,0.5,0.3,1,0.3,1.6v4.4h-1.2v-4.3c0-0.7-0.2-1.3-0.6-1.7c-0.4-0.4-0.9-0.6-1.5-0.6c-0.6,0-1.2,0.2-1.5,0.6
	c-0.4,0.4-0.6,0.9-0.6,1.6v4.3h-1.2V344.6z M994,345.6v4.3c0,0.3,0,0.6,0,0.8c0,0.2,0.1,0.3,0.3,0.4c0.1,0.1,0.4,0.1,0.7,0.1
	c0.2,0,0.5,0,0.7-0.1v0.9c-0.1,0-0.2,0.1-0.4,0.1c-0.2,0-0.4,0-0.7,0c-0.5,0-0.9-0.1-1.2-0.2c-0.3-0.2-0.4-0.4-0.5-0.6
	c-0.1-0.3-0.1-0.6-0.1-1.1v-4.5h-1.4v-1h1.4v-2.4h1.2v2.4h1.8v1H994z"/>
<g>
	<path class="st0" d="M272,322c30.9,0,56-25.1,56-56s-25.1-56-56-56s-56,25.1-56,56S241.1,322,272,322z"/>
	<path class="st2" d="M290.1,256c0-0.2,0-0.4,0-0.5c0-3-2.4-5.4-5.4-5.4c-2,0-3.8,1.1-4.7,2.8l3.4,3.1H290.1L290.1,256z"/>
	<path class="st0" d="M263.9,256l8-8c1-1,2.8-1,3.8,0l7.8,7.8"/>
	<path class="st4" d="M263.9,256l8-8c1-1,2.8-1,3.8,0l7.8,7.8"/>
	<path class="st0" d="M264.7,274.2H284c1.6,0,3-1,3.5-2.6l3.9-12.5c0.4-1.2-0.5-2.4-1.8-2.4h-29.6"/>
	<path class="st10" d="M264.7,274.2H284c1.6,0,3-1,3.5-2.6l3.9-12.5c0.4-1.2-0.5-2.4-1.8-2.4h-29.6"/>
	<path class="st10" d="M251.9,251.2h5c0.8,0,1.6,0.6,1.8,1.4l6.2,23.4c0.4,1.6,1.9,2.7,3.5,2.7h21"/>
	<path class="st5" d="M265.1,287c1.3,0,2.4-1.1,2.4-2.4c0-1.3-1.1-2.4-2.4-2.4c-1.3,0-2.4,1.1-2.4,2.4
		C262.6,285.9,263.7,287,265.1,287z"/>
	<path class="st5" d="M285.2,287c1.3,0,2.4-1.1,2.4-2.4c0-1.3-1.1-2.4-2.4-2.4s-2.4,1.1-2.4,2.4C282.8,285.9,283.9,287,285.2,287z"
		/>
</g>
<path class="st5" d="M240.1,349.1h-4l-1,2.9h-1.2l3.7-9.8h1.1l3.7,9.8h-1.2L240.1,349.1z M239.7,348.2l-1.6-4.4H238l-1.6,4.4H239.7z
	 M246.2,352.1c-0.7,0-1.2-0.2-1.7-0.5c-0.5-0.3-0.8-0.8-1-1.4c-0.2-0.6-0.4-1.2-0.4-2c0-0.7,0.1-1.4,0.4-2c0.2-0.6,0.6-1,1.1-1.4
	c0.5-0.3,1-0.5,1.7-0.5c0.7,0,1.2,0.2,1.6,0.5c0.4,0.3,0.7,0.7,0.9,1.1h0.1v-4.5h1.2V352h-1.2v-1.5h-0.1c-0.2,0.4-0.5,0.8-1,1.1
	C247.4,351.9,246.9,352.1,246.2,352.1z M246.6,351.1c0.7,0,1.3-0.3,1.7-0.8c0.4-0.5,0.6-1.2,0.6-2s-0.2-1.5-0.6-2
	c-0.4-0.5-0.9-0.8-1.7-0.8c-0.7,0-1.3,0.3-1.7,0.8c-0.4,0.5-0.6,1.2-0.6,2c0,0.8,0.2,1.5,0.6,2C245.3,350.8,245.9,351.1,246.6,351.1
	z M254.9,352.1c-0.7,0-1.2-0.2-1.7-0.5c-0.5-0.3-0.8-0.8-1.1-1.4c-0.2-0.6-0.4-1.2-0.4-2c0-0.7,0.1-1.4,0.4-2c0.2-0.6,0.6-1,1.1-1.4
	c0.5-0.3,1-0.5,1.7-0.5c0.7,0,1.2,0.2,1.6,0.5c0.4,0.3,0.7,0.7,0.9,1.1h0.1v-4.5h1.2V352h-1.2v-1.5h-0.1c-0.2,0.4-0.5,0.8-1,1.1
	C256.1,351.9,255.5,352.1,254.9,352.1z M255.3,351.1c0.7,0,1.3-0.3,1.7-0.8c0.4-0.5,0.6-1.2,0.6-2s-0.2-1.5-0.6-2
	c-0.4-0.5-0.9-0.8-1.7-0.8c-0.7,0-1.3,0.3-1.7,0.8c-0.4,0.5-0.6,1.2-0.6,2c0,0.8,0.2,1.5,0.6,2C254,350.8,254.5,351.1,255.3,351.1z
	 M270.6,343.3h-2.9v8.7h-1.2v-8.7h-2.9v-1.1h7V343.3z M274.2,352.1c-0.7,0-1.4-0.2-1.9-0.5c-0.5-0.4-0.9-0.8-1.2-1.4
	c-0.3-0.6-0.4-1.2-0.4-1.9s0.1-1.3,0.4-1.9c0.3-0.6,0.6-1.1,1.2-1.4c0.5-0.4,1.2-0.5,1.9-0.5c0.7,0,1.4,0.2,1.9,0.5
	c0.5,0.4,0.9,0.8,1.2,1.4c0.3,0.6,0.4,1.2,0.4,1.9s-0.1,1.3-0.4,1.9c-0.3,0.6-0.7,1.1-1.2,1.4C275.6,351.9,275,352.1,274.2,352.1z
	 M274.2,351.1c0.5,0,0.9-0.1,1.2-0.4c0.3-0.3,0.6-0.6,0.8-1c0.2-0.4,0.3-0.9,0.3-1.4c0-0.8-0.2-1.5-0.6-2s-0.9-0.8-1.6-0.8
	c-0.5,0-0.9,0.1-1.2,0.4c-0.3,0.3-0.6,0.6-0.8,1c-0.2,0.4-0.3,0.9-0.3,1.4c0,0.8,0.2,1.5,0.6,2C273,350.8,273.5,351.1,274.2,351.1z
	 M286.8,352.1c-0.9,0-1.7-0.2-2.4-0.6c-0.7-0.4-1.2-1-1.5-1.8c-0.3-0.8-0.5-1.6-0.5-2.6s0.2-1.8,0.5-2.6c0.4-0.8,0.9-1.4,1.5-1.8
	c0.7-0.4,1.5-0.7,2.4-0.7c1.1,0,2,0.3,2.7,0.9c0.7,0.6,1.2,1.5,1.4,2.5h-1.2c-0.2-0.7-0.6-1.3-1.1-1.7c-0.5-0.4-1.2-0.6-1.9-0.6
	c-1,0-1.8,0.4-2.3,1.1c-0.5,0.7-0.8,1.7-0.8,2.9c0,1.2,0.3,2.2,0.8,2.9c0.5,0.7,1.3,1.1,2.3,1.1c0.7,0,1.3-0.2,1.8-0.6
	c0.5-0.4,0.9-0.9,1.1-1.5h1.2c-0.3,1-0.7,1.7-1.5,2.3C288.7,351.8,287.8,352.1,286.8,352.1z M295.3,352.1c-0.7,0-1.2-0.2-1.7-0.5
	c-0.5-0.3-0.8-0.8-1-1.4c-0.2-0.6-0.4-1.2-0.4-2s0.1-1.4,0.4-2c0.3-0.6,0.6-1,1.1-1.4c0.5-0.3,1-0.5,1.7-0.5c0.7,0,1.2,0.2,1.6,0.5
	c0.4,0.3,0.7,0.7,0.9,1.1h0.1v-1.4h1.2v7.4h-1.2v-1.5h-0.1c-0.2,0.4-0.5,0.8-1,1.1C296.5,351.9,296,352.1,295.3,352.1z M295.7,351.1
	c0.7,0,1.3-0.3,1.7-0.8c0.4-0.5,0.6-1.2,0.6-2s-0.2-1.5-0.6-2c-0.4-0.5-0.9-0.8-1.7-0.8c-0.7,0-1.3,0.3-1.7,0.8
	c-0.4,0.5-0.6,1.2-0.6,2c0,0.8,0.2,1.5,0.6,2C294.4,350.8,295,351.1,295.7,351.1z M301.2,344.6h1.2v1.2h0.1c0.1-0.3,0.3-0.6,0.6-0.8
	c0.3-0.2,0.7-0.3,1.2-0.3c0.1,0,0.3,0,0.4,0c0.1,0,0.2,0,0.3,0.1l0,1.2c-0.1,0-0.3-0.1-0.4-0.1c-0.1,0-0.2,0-0.4,0
	c-1.2,0-1.7,0.7-1.7,2.1v4.2h-1.2V344.6z M308.2,345.6v4.3c0,0.3,0,0.6,0,0.8c0,0.2,0.1,0.3,0.3,0.4c0.1,0.1,0.4,0.1,0.7,0.1
	c0.2,0,0.5,0,0.7-0.1v0.9c-0.1,0-0.2,0.1-0.4,0.1c-0.2,0-0.4,0-0.7,0c-0.5,0-0.9-0.1-1.2-0.2c-0.3-0.2-0.4-0.4-0.5-0.6
	c-0.1-0.3-0.1-0.6-0.1-1.1v-4.5h-1.4v-1h1.4v-2.4h1.2v2.4h1.8v1H308.2z"/>
<g>
	<path class="st0" d="M1128,322c30.9,0,56-25.1,56-56s-25.1-56-56-56s-56,25.1-56,56S1097.1,322,1128,322z"/>
	<path class="st2" d="M1146.1,256c0-0.2,0-0.4,0-0.5c0-3-2.4-5.4-5.4-5.4c-2,0-3.8,1.1-4.7,2.8l3.4,3.1H1146.1L1146.1,256z"/>
	<path class="st0" d="M1119.9,256l8-8c1.1-1,2.8-1,3.8,0l7.8,7.8"/>
	<path class="st4" d="M1119.9,256l8-8c1.1-1,2.8-1,3.8,0l7.8,7.8"/>
	<path class="st0" d="M1120.7,274.2h19.3c1.6,0,3-1,3.5-2.6l3.9-12.5c0.4-1.2-0.5-2.4-1.8-2.4h-29.6"/>
	<path class="st10" d="M1120.7,274.2h19.3c1.6,0,3-1,3.5-2.6l3.9-12.5c0.4-1.2-0.5-2.4-1.8-2.4h-29.6"/>
	<path class="st10" d="M1107.9,251.2h5c0.8,0,1.6,0.6,1.8,1.4l6.2,23.4c0.4,1.6,1.9,2.7,3.5,2.7h21"/>
	<path class="st5" d="M1121.1,287c1.3,0,2.4-1.1,2.4-2.4c0-1.3-1.1-2.4-2.4-2.4s-2.4,1.1-2.4,2.4
		C1118.7,285.9,1119.7,287,1121.1,287z"/>
	<path class="st5" d="M1141.2,287c1.3,0,2.4-1.1,2.4-2.4c0-1.3-1.1-2.4-2.4-2.4s-2.4,1.1-2.4,2.4
		C1138.8,285.9,1139.9,287,1141.2,287z"/>
</g>
<path class="st5" d="M1096.1,349.1h-4l-1,2.9h-1.2l3.7-9.8h1.2l3.7,9.8h-1.2L1096.1,349.1z M1095.7,348.2l-1.6-4.4h-0.1l-1.6,4.4
	H1095.7z M1102.2,352.1c-0.7,0-1.2-0.2-1.7-0.5c-0.5-0.3-0.8-0.8-1.1-1.4c-0.2-0.6-0.4-1.2-0.4-2c0-0.7,0.1-1.4,0.4-2
	c0.2-0.6,0.6-1,1.1-1.4c0.5-0.3,1-0.5,1.7-0.5s1.2,0.2,1.6,0.5c0.4,0.3,0.7,0.7,0.9,1.1h0.1v-4.5h1.2V352h-1.2v-1.5h-0.1
	c-0.2,0.4-0.6,0.8-1,1.1C1103.4,351.9,1102.9,352.1,1102.2,352.1z M1102.6,351.1c0.7,0,1.3-0.3,1.7-0.8c0.4-0.5,0.6-1.2,0.6-2
	s-0.2-1.5-0.6-2c-0.4-0.5-0.9-0.8-1.7-0.8c-0.7,0-1.3,0.3-1.7,0.8c-0.4,0.5-0.6,1.2-0.6,2c0,0.8,0.2,1.5,0.6,2
	C1101.3,350.8,1101.9,351.1,1102.6,351.1z M1110.9,352.1c-0.7,0-1.2-0.2-1.7-0.5c-0.4-0.3-0.8-0.8-1-1.4c-0.2-0.6-0.4-1.2-0.4-2
	c0-0.7,0.1-1.4,0.4-2c0.2-0.6,0.6-1,1.1-1.4c0.5-0.3,1-0.5,1.7-0.5c0.6,0,1.2,0.2,1.6,0.5c0.4,0.3,0.7,0.7,0.9,1.1h0.1v-4.5h1.2V352
	h-1.2v-1.5h-0.1c-0.2,0.4-0.5,0.8-1,1.1C1112.1,351.9,1111.6,352.1,1110.9,352.1z M1111.3,351.1c0.7,0,1.3-0.3,1.7-0.8
	c0.4-0.5,0.6-1.2,0.6-2s-0.2-1.5-0.6-2c-0.4-0.5-0.9-0.8-1.7-0.8c-0.7,0-1.3,0.3-1.7,0.8c-0.4,0.5-0.6,1.2-0.6,2
	c0,0.8,0.2,1.5,0.6,2C1110,350.8,1110.5,351.1,1111.3,351.1z M1126.6,343.3h-2.9v8.7h-1.2v-8.7h-2.9v-1.1h7V343.3z M1130.2,352.1
	c-0.8,0-1.4-0.2-1.9-0.5c-0.5-0.4-0.9-0.8-1.2-1.4c-0.3-0.6-0.4-1.2-0.4-1.9s0.1-1.3,0.4-1.9c0.3-0.6,0.7-1.1,1.2-1.4
	c0.5-0.4,1.2-0.5,1.9-0.5c0.7,0,1.4,0.2,1.9,0.5c0.5,0.4,0.9,0.8,1.2,1.4c0.3,0.6,0.4,1.2,0.4,1.9s-0.1,1.3-0.4,1.9
	s-0.7,1.1-1.2,1.4C1131.6,351.9,1130.9,352.1,1130.2,352.1z M1130.2,351.1c0.5,0,0.8-0.1,1.2-0.4c0.3-0.3,0.6-0.6,0.8-1
	c0.2-0.4,0.3-0.9,0.3-1.4c0-0.8-0.2-1.5-0.6-2c-0.4-0.5-0.9-0.8-1.6-0.8c-0.5,0-0.9,0.1-1.2,0.4c-0.3,0.3-0.6,0.6-0.8,1
	c-0.2,0.4-0.3,0.9-0.3,1.4c0,0.8,0.2,1.5,0.6,2C1129,350.8,1129.5,351.1,1130.2,351.1z M1142.8,352.1c-0.9,0-1.7-0.2-2.4-0.6
	c-0.7-0.4-1.2-1-1.5-1.8c-0.3-0.8-0.5-1.6-0.5-2.6s0.2-1.8,0.5-2.6c0.3-0.8,0.9-1.4,1.5-1.8c0.7-0.4,1.4-0.7,2.4-0.7
	c1.1,0,2,0.3,2.7,0.9c0.7,0.6,1.2,1.5,1.4,2.5h-1.2c-0.2-0.7-0.6-1.3-1.1-1.7c-0.5-0.4-1.2-0.6-1.9-0.6c-1,0-1.8,0.4-2.3,1.1
	c-0.5,0.7-0.8,1.7-0.8,2.9c0,1.2,0.3,2.2,0.8,2.9c0.5,0.7,1.3,1.1,2.3,1.1c0.7,0,1.3-0.2,1.8-0.6c0.5-0.4,0.9-0.9,1.1-1.5h1.2
	c-0.3,1-0.8,1.7-1.5,2.3C1144.7,351.8,1143.8,352.1,1142.8,352.1z M1151.3,352.1c-0.7,0-1.2-0.2-1.7-0.5s-0.8-0.8-1.1-1.4
	c-0.2-0.6-0.4-1.2-0.4-2s0.1-1.4,0.4-2c0.2-0.6,0.6-1,1.1-1.4c0.5-0.3,1-0.5,1.7-0.5s1.2,0.2,1.6,0.5c0.4,0.3,0.7,0.7,0.9,1.1h0.1
	v-1.4h1.2v7.4h-1.2v-1.5h-0.1c-0.2,0.4-0.5,0.8-0.9,1.1C1152.5,351.9,1152,352.1,1151.3,352.1z M1151.7,351.1c0.7,0,1.3-0.3,1.7-0.8
	c0.4-0.5,0.6-1.2,0.6-2s-0.2-1.5-0.6-2c-0.4-0.5-0.9-0.8-1.7-0.8c-0.7,0-1.3,0.3-1.7,0.8c-0.4,0.5-0.6,1.2-0.6,2
	c0,0.8,0.2,1.5,0.6,2C1150.4,350.8,1151,351.1,1151.7,351.1z M1157.2,344.6h1.2v1.2h0.1c0.1-0.3,0.3-0.6,0.6-0.8
	c0.3-0.2,0.7-0.3,1.2-0.3c0.2,0,0.3,0,0.3,0c0.1,0,0.2,0,0.3,0.1l0,1.2c-0.2,0-0.3-0.1-0.4-0.1c-0.1,0-0.2,0-0.4,0
	c-1.2,0-1.7,0.7-1.7,2.1v4.2h-1.2V344.6z M1164.2,345.6v4.3c0,0.3,0,0.6,0,0.8c0,0.2,0.1,0.3,0.3,0.4c0.2,0.1,0.4,0.1,0.7,0.1
	c0.2,0,0.5,0,0.7-0.1v0.9c-0.1,0-0.2,0.1-0.4,0.1c-0.2,0-0.4,0-0.7,0c-0.5,0-0.9-0.1-1.2-0.2c-0.3-0.2-0.4-0.4-0.5-0.6
	c-0.1-0.3-0.1-0.6-0.1-1.1v-4.5h-1.4v-1h1.4v-2.4h1.2v2.4h1.8v1H1164.2z"/>
<g>
	<path class="st0" d="M448,322c30.9,0,56-25.1,56-56s-25.1-56-56-56s-56,25.1-56,56S417.1,322,448,322z"/>
	<path class="st3" d="M441.9,265.5c3.9,0,7-3.1,7-7c0-3.9-3.1-7-7-7s-7,3.1-7,7C434.9,262.4,438.1,265.5,441.9,265.5z"/>
	<path class="st2" d="M453.2,261.8c4.7,0,8.5-3.8,8.5-8.5c0-4.7-3.8-8.5-8.5-8.5c-4.7,0-8.5,3.8-8.5,8.5
		C444.7,257.9,448.5,261.8,453.2,261.8z"/>
	<path class="st0" d="M450.4,254.8c0,0.1,0,0.1-0.1,0.1l-1-0.2l-0.3,1l1.8,0.4l-0.4,1.4l1,0.2l0.4-1.4l0.6,0.1l-0.4,1.4l0.9,0.2
		l0.4-1.4l0.7,0.2c0.5,0.1,2.2,0.1,2.6-1.3c0.3-0.8-0.1-1.7-0.9-2.1c-0.8-0.4,1.1-0.3,1.2-1.3c0.2-0.9-0.5-1.4-0.9-1.6
		c-0.3-0.2-0.7-0.3-1-0.4l0.4-1.5l-0.9-0.2l-0.4,1.5l-0.7-0.2l0.4-1.5l-0.9-0.2l-0.4,1.5l-1.9-0.4l-0.2,0.9l1,0.2
		c0.1,0,0.1,0.1,0.1,0.1L450.4,254.8z M453.2,250.5l1.1,0.3c0.2,0,1.1,0.4,0.9,1.2c-0.1,0.4-0.5,0.7-1,0.7c-0.1,0-0.2,0-0.3,0
		l-1.2-0.3L453.2,250.5z M452.5,253.2l1.7,0.4c0.3,0.1,0.5,0.2,0.6,0.4c0.1,0.2,0.1,0.5,0.1,0.7c-0.2,0.6-0.8,0.7-1.1,0.7
		c0,0-0.1,0-0.1,0l-1.7-0.4L452.5,253.2z"/>
	<path class="st1" d="M463.4,286h-31c-1.1,0-2-0.9-2-2v-23c0-1.1,0.9-2,2-2h31c1.1,0,2,0.9,2,2v23C465.4,285.1,464.6,286,463.4,286z
		"/>
	<path class="st1" d="M454.9,277h10.5v-9h-10.5c-2.5,0-4.5,2-4.5,4.5S452.5,277,454.9,277z"/>
	<path class="st5" d="M454.9,274c0.8,0,1.5-0.7,1.5-1.5s-0.7-1.5-1.5-1.5c-0.8,0-1.5,0.7-1.5,1.5S454.1,274,454.9,274z"/>
</g>
<path class="st5" d="M407.5,342.2c0.8,0,1.4,0.2,1.9,0.5c0.5,0.3,0.9,0.7,1.1,1.2c0.2,0.5,0.3,1,0.3,1.5c0,0.5-0.1,1.1-0.3,1.5
	c-0.2,0.5-0.6,0.9-1.1,1.2c-0.5,0.3-1.2,0.5-2,0.5h-2.2v3.4h-1.2v-9.8H407.5z M407.3,347.6c0.7,0,1.2-0.2,1.7-0.5
	c0.5-0.3,0.7-0.9,0.7-1.7c0-0.8-0.2-1.3-0.7-1.6c-0.4-0.3-1-0.5-1.7-0.5h-2v4.3H407.3z M414.5,352.1c-0.6,0-1-0.1-1.2-0.3
	c-0.3-0.2-0.4-0.4-0.5-0.7c-0.1-0.3-0.1-0.7-0.1-1.1l0-8.5h1.2v8.3c0,0.4,0,0.6,0,0.8c0,0.2,0.1,0.3,0.3,0.4
	c0.1,0.1,0.4,0.2,0.7,0.2c0.2,0,0.4,0,0.5,0v0.9C415.1,352,414.8,352.1,414.5,352.1z M419.7,352.1c-0.7,0-1.2-0.2-1.7-0.5
	c-0.5-0.3-0.8-0.8-1-1.4c-0.2-0.6-0.4-1.2-0.4-2s0.1-1.4,0.4-2c0.3-0.6,0.6-1,1.1-1.4c0.5-0.3,1-0.5,1.7-0.5c0.7,0,1.2,0.2,1.6,0.5
	s0.7,0.7,0.9,1.1h0.1v-1.4h1.2v7.4h-1.2v-1.5h-0.1c-0.2,0.4-0.5,0.8-1,1.1C420.8,351.9,420.3,352.1,419.7,352.1z M420,351.1
	c0.7,0,1.3-0.3,1.7-0.8c0.4-0.5,0.6-1.2,0.6-2s-0.2-1.5-0.6-2c-0.4-0.5-0.9-0.8-1.7-0.8c-0.7,0-1.3,0.3-1.7,0.8
	c-0.4,0.5-0.6,1.2-0.6,2c0,0.8,0.2,1.5,0.6,2C418.7,350.8,419.3,351.1,420,351.1z M428.8,352.1c-0.8,0-1.4-0.2-1.9-0.5
	c-0.5-0.4-0.9-0.8-1.2-1.4c-0.3-0.6-0.4-1.2-0.4-1.9s0.1-1.3,0.4-1.9c0.3-0.6,0.6-1.1,1.2-1.4c0.5-0.4,1.2-0.5,1.9-0.5
	c1,0,1.7,0.3,2.2,0.8c0.6,0.6,0.9,1.2,1,2h-1.2c-0.1-0.5-0.3-1-0.6-1.3c-0.3-0.3-0.8-0.5-1.4-0.5c-0.7,0-1.3,0.3-1.7,0.8
	c-0.4,0.5-0.6,1.2-0.6,2c0,0.8,0.2,1.5,0.6,2c0.4,0.5,1,0.8,1.7,0.8c0.6,0,1.1-0.2,1.4-0.5c0.3-0.3,0.6-0.8,0.6-1.3h1.2
	c-0.1,0.8-0.4,1.5-1,2C430.5,351.8,429.7,352.1,428.8,352.1z M436.8,352.1c-0.8,0-1.4-0.2-1.9-0.5c-0.5-0.4-0.9-0.8-1.1-1.4
	c-0.3-0.6-0.4-1.2-0.4-1.9c0-0.7,0.1-1.3,0.4-1.9c0.3-0.6,0.6-1.1,1.2-1.4c0.5-0.4,1.2-0.5,1.9-0.5c1,0,1.8,0.3,2.4,1
	c0.6,0.7,0.9,1.6,0.9,2.9v0.3h-5.5v0.1c0,0.4,0.1,0.8,0.3,1.2c0.2,0.4,0.4,0.7,0.8,0.9s0.7,0.3,1.2,0.3c0.5,0,0.9-0.1,1.2-0.4
	c0.3-0.2,0.6-0.6,0.8-1h1.2c-0.2,0.7-0.6,1.2-1.1,1.7C438.3,351.9,437.6,352.1,436.8,352.1z M438.9,347.8c0-0.8-0.2-1.4-0.6-1.8
	c-0.4-0.4-0.9-0.6-1.5-0.6c-0.7,0-1.2,0.2-1.6,0.7c-0.4,0.4-0.6,1-0.6,1.7H438.9z M449.2,352.1c-0.9,0-1.7-0.2-2.4-0.6
	c-0.7-0.4-1.2-1-1.5-1.8c-0.3-0.8-0.5-1.6-0.5-2.6c0-1,0.2-1.8,0.5-2.6c0.4-0.8,0.9-1.4,1.5-1.8c0.7-0.4,1.5-0.7,2.4-0.7
	c0.9,0,1.7,0.2,2.4,0.7c0.7,0.4,1.2,1,1.5,1.8c0.3,0.8,0.5,1.6,0.5,2.6c0,1-0.2,1.8-0.5,2.6c-0.3,0.8-0.9,1.3-1.5,1.8
	C450.9,351.9,450.1,352.1,449.2,352.1z M449.1,351c0.6,0,1.2-0.2,1.7-0.5c0.5-0.3,0.8-0.8,1.1-1.4c0.3-0.6,0.4-1.3,0.4-2
	c0-0.8-0.1-1.4-0.4-2c-0.3-0.6-0.6-1.1-1.1-1.4c-0.5-0.3-1-0.5-1.7-0.5c-0.6,0-1.2,0.2-1.7,0.5c-0.5,0.3-0.8,0.8-1.1,1.4
	c-0.3,0.6-0.4,1.3-0.4,2c0,0.8,0.1,1.4,0.4,2c0.3,0.6,0.6,1,1.1,1.4C447.9,350.8,448.5,351,449.1,351z M455.3,344.6h1.2v1.2h0.1
	c0.1-0.3,0.3-0.6,0.6-0.8c0.3-0.2,0.7-0.3,1.2-0.3c0.1,0,0.3,0,0.4,0c0.1,0,0.2,0,0.3,0.1l0,1.2c-0.1,0-0.3-0.1-0.4-0.1
	c-0.1,0-0.2,0-0.4,0c-1.2,0-1.7,0.7-1.7,2.1v4.2h-1.2V344.6z M462.9,352.1c-0.7,0-1.2-0.2-1.7-0.5c-0.5-0.3-0.8-0.8-1-1.4
	c-0.2-0.6-0.4-1.2-0.4-2c0-0.7,0.1-1.4,0.4-2c0.2-0.6,0.6-1,1.1-1.4c0.5-0.3,1-0.5,1.7-0.5c0.7,0,1.2,0.2,1.6,0.5
	c0.4,0.3,0.7,0.7,0.9,1.1h0.1v-4.5h1.2V352h-1.2v-1.5h-0.1c-0.2,0.4-0.5,0.8-1,1.1C464.1,351.9,463.6,352.1,462.9,352.1z
	 M463.3,351.1c0.7,0,1.3-0.3,1.7-0.8c0.4-0.5,0.6-1.2,0.6-2s-0.2-1.5-0.6-2c-0.4-0.5-0.9-0.8-1.7-0.8c-0.7,0-1.3,0.3-1.7,0.8
	c-0.4,0.5-0.6,1.2-0.6,2c0,0.8,0.2,1.5,0.6,2C462,350.8,462.6,351.1,463.3,351.1z M472,352.1c-0.8,0-1.4-0.2-1.9-0.5
	c-0.5-0.4-0.9-0.8-1.1-1.4c-0.3-0.6-0.4-1.2-0.4-1.9c0-0.7,0.1-1.3,0.4-1.9c0.3-0.6,0.6-1.1,1.2-1.4c0.5-0.4,1.2-0.5,1.9-0.5
	c1,0,1.8,0.3,2.4,1c0.6,0.7,0.9,1.6,0.9,2.9v0.3h-5.5v0.1c0,0.4,0.1,0.8,0.3,1.2c0.2,0.4,0.4,0.7,0.8,0.9s0.7,0.3,1.2,0.3
	c0.5,0,0.9-0.1,1.2-0.4c0.3-0.2,0.6-0.6,0.8-1h1.2c-0.2,0.7-0.6,1.2-1.1,1.7C473.5,351.9,472.8,352.1,472,352.1z M474.1,347.8
	c0-0.8-0.2-1.4-0.6-1.8c-0.4-0.4-0.9-0.6-1.5-0.6c-0.7,0-1.2,0.2-1.6,0.7c-0.4,0.4-0.6,1-0.6,1.7H474.1z M477,344.6h1.2v1.2h0.1
	c0.1-0.3,0.3-0.6,0.6-0.8c0.3-0.2,0.7-0.3,1.2-0.3c0.1,0,0.3,0,0.4,0c0.1,0,0.2,0,0.3,0.1l0,1.2c-0.1,0-0.3-0.1-0.4-0.1
	c-0.1,0-0.2,0-0.4,0c-1.2,0-1.7,0.7-1.7,2.1v4.2H477V344.6z"/>
<path class="st0" d="M1304,322c30.9,0,56-25.1,56-56s-25.1-56-56-56s-56,25.1-56,56S1273.1,322,1304,322z"/>
<path class="st10" d="M1317.8,259.3h-31.5c-1.4,0-2.5-1.1-2.5-2.5v-5.4c0-1.4,1.1-2.5,2.5-2.5h31.5c1.4,0,2.5,1.1,2.5,2.5v5.4
	C1320.4,258.2,1319.2,259.3,1317.8,259.3z"/>
<path class="st10" d="M1317.8,269.8h-31.5c-1.4,0-2.5-1.1-2.5-2.5v-5.4c0-1.4,1.1-2.5,2.5-2.5h31.5c1.4,0,2.5,1.1,2.5,2.5v5.4
	C1320.4,268.6,1319.2,269.8,1317.8,269.8z"/>
<path class="st10" d="M1317.8,280.2h-31.5c-1.4,0-2.5-1.1-2.5-2.5v-5.4c0-1.4,1.1-2.5,2.5-2.5h31.5c1.4,0,2.5,1.1,2.5,2.5v5.4
	C1320.4,279.1,1319.2,280.2,1317.8,280.2z"/>
<path class="st10" d="M1290.3,280.2v3.9"/>
<path class="st10" d="M1313.8,280.2v3.9"/>
<path class="st2" d="M1289.7,255.4c0.7,0,1.3-0.6,1.3-1.3c0-0.7-0.6-1.3-1.3-1.3s-1.3,0.6-1.3,1.3
	C1288.3,254.8,1288.9,255.4,1289.7,255.4z"/>
<path class="st2" d="M1289.7,265.9c0.7,0,1.3-0.6,1.3-1.3s-0.6-1.3-1.3-1.3s-1.3,0.6-1.3,1.3S1288.9,265.9,1289.7,265.9z"/>
<path class="st2" d="M1289.7,276.3c0.7,0,1.3-0.6,1.3-1.3c0-0.7-0.6-1.3-1.3-1.3s-1.3,0.6-1.3,1.3
	C1288.3,275.7,1288.9,276.3,1289.7,276.3z"/>
<path class="st4" d="M1283.8,284.2h36.6"/>
<path class="st3" d="M1322.8,286H1311c-0.8,0-1.4-0.6-1.4-1.4v-13.9c0-0.8,0.6-1.4,1.4-1.4h9l4.2,4.2v11.1
	C1324.2,285.3,1323.6,286,1322.8,286z"/>
<path class="st2" d="M1319.3,269.2v3.4c0,0.8,0.6,1.4,1.4,1.4h3.5L1319.3,269.2z"/>
<path class="st4" d="M1313.1,277.6h5.6"/>
<path class="st4" d="M1313.1,281.8h7.7"/>
<path class="st5" d="M1257.6,342.2h1.2l3,8.6h0.1l3-8.6h1.2l-3.4,9.8h-1.7L1257.6,342.2z M1267.4,344.6h1.2v7.4h-1.2V344.6z
	 M1268,343.2c-0.2,0-0.4-0.1-0.6-0.2c-0.1-0.2-0.2-0.3-0.2-0.6s0.1-0.4,0.2-0.5c0.2-0.2,0.3-0.2,0.6-0.2c0.2,0,0.4,0.1,0.6,0.2
	c0.1,0.1,0.2,0.3,0.2,0.5s-0.1,0.4-0.2,0.6C1268.4,343.2,1268.2,343.2,1268,343.2z M1273.9,352.1c-0.8,0-1.4-0.2-1.9-0.5
	c-0.5-0.4-0.9-0.8-1.2-1.4c-0.2-0.6-0.4-1.2-0.4-1.9c0-0.7,0.1-1.3,0.4-1.9c0.2-0.6,0.6-1.1,1.2-1.4c0.5-0.4,1.2-0.5,1.9-0.5
	c1,0,1.8,0.3,2.4,1c0.6,0.7,0.9,1.6,0.9,2.9v0.3h-5.5v0.1c0,0.4,0.1,0.8,0.3,1.2c0.2,0.4,0.5,0.7,0.8,0.9c0.3,0.2,0.7,0.3,1.2,0.3
	c0.5,0,0.9-0.1,1.2-0.4c0.3-0.2,0.6-0.6,0.8-1h1.2c-0.2,0.7-0.6,1.2-1.1,1.7C1275.5,351.9,1274.8,352.1,1273.9,352.1z M1276,347.8
	c0-0.8-0.2-1.4-0.6-1.8c-0.4-0.4-0.9-0.6-1.5-0.6c-0.7,0-1.2,0.2-1.6,0.7c-0.4,0.4-0.6,1-0.6,1.7H1276z M1278.3,344.6h1.2l1.6,6.1
	h0.1l1.9-6.1h1.1l1.9,6.1h0.1l1.6-6.1h1.2l-2,7.4h-1.5l-1.6-5.4h-0.1l-1.6,5.4h-1.5L1278.3,344.6z M1296.9,342.2
	c0.8,0,1.4,0.2,1.9,0.5c0.5,0.3,0.9,0.7,1.1,1.2c0.2,0.5,0.3,1,0.3,1.5c0,0.5-0.1,1.1-0.3,1.5c-0.2,0.5-0.6,0.9-1.1,1.2
	c-0.5,0.3-1.2,0.5-2,0.5h-2.2v3.4h-1.2v-9.8H1296.9z M1296.8,347.6c0.7,0,1.2-0.2,1.7-0.5c0.5-0.3,0.7-0.9,0.7-1.7
	c0-0.8-0.2-1.3-0.7-1.6c-0.4-0.3-1-0.5-1.7-0.5h-2v4.3H1296.8z M1301.8,344.6h1.2v1.2h0.1c0.1-0.3,0.3-0.6,0.6-0.8
	c0.3-0.2,0.7-0.3,1.2-0.3c0.2,0,0.3,0,0.4,0c0.1,0,0.2,0,0.3,0.1l0,1.2c-0.1,0-0.3-0.1-0.4-0.1c-0.1,0-0.2,0-0.4,0
	c-1.2,0-1.7,0.7-1.7,2.1v4.2h-1.2V344.6z M1309.8,352.1c-0.8,0-1.4-0.2-1.9-0.5c-0.5-0.4-0.9-0.8-1.2-1.4c-0.3-0.6-0.4-1.2-0.4-1.9
	s0.1-1.3,0.4-1.9c0.3-0.6,0.7-1.1,1.2-1.4c0.5-0.4,1.2-0.5,1.9-0.5c0.7,0,1.4,0.2,1.9,0.5c0.5,0.4,0.9,0.8,1.2,1.4
	c0.3,0.6,0.4,1.2,0.4,1.9s-0.1,1.3-0.4,1.9s-0.7,1.1-1.2,1.4C1311.2,351.9,1310.6,352.1,1309.8,352.1z M1309.8,351.1
	c0.5,0,0.8-0.1,1.2-0.4c0.3-0.3,0.6-0.6,0.8-1c0.2-0.4,0.3-0.9,0.3-1.4c0-0.8-0.2-1.5-0.6-2c-0.4-0.5-0.9-0.8-1.6-0.8
	c-0.5,0-0.9,0.1-1.2,0.4c-0.3,0.3-0.6,0.6-0.8,1c-0.2,0.4-0.3,0.9-0.3,1.4c0,0.8,0.2,1.5,0.6,2
	C1308.6,350.8,1309.2,351.1,1309.8,351.1z M1317.8,352.1c-0.7,0-1.2-0.2-1.7-0.5c-0.5-0.3-0.8-0.8-1-1.4c-0.2-0.6-0.4-1.2-0.4-2
	c0-0.7,0.1-1.4,0.4-2c0.2-0.6,0.6-1,1.1-1.4c0.5-0.3,1-0.5,1.7-0.5c0.6,0,1.2,0.2,1.6,0.5c0.4,0.3,0.7,0.7,0.9,1.1h0.1v-4.5h1.2V352
	h-1.2v-1.5h-0.1c-0.2,0.4-0.5,0.8-1,1.1C1318.9,351.9,1318.4,352.1,1317.8,352.1z M1318.2,351.1c0.7,0,1.3-0.3,1.7-0.8
	c0.4-0.5,0.6-1.2,0.6-2s-0.2-1.5-0.6-2c-0.4-0.5-0.9-0.8-1.7-0.8c-0.7,0-1.3,0.3-1.7,0.8c-0.4,0.5-0.6,1.2-0.6,2
	c0,0.8,0.2,1.5,0.6,2C1316.9,350.8,1317.4,351.1,1318.2,351.1z M1330.2,352h-1.2v-1.4h-0.1c-0.2,0.4-0.5,0.8-0.9,1.1
	c-0.4,0.3-0.9,0.4-1.5,0.4c-0.6,0-1.1-0.1-1.5-0.4c-0.4-0.3-0.7-0.7-0.9-1.2c-0.2-0.5-0.3-1-0.3-1.6v-4.3h1.2v4.2
	c0,0.7,0.2,1.3,0.5,1.7c0.4,0.4,0.8,0.6,1.4,0.6c0.6,0,1.1-0.2,1.5-0.6c0.4-0.4,0.6-1,0.6-1.6v-4.2h1.2V352z M1335.3,352.1
	c-0.8,0-1.4-0.2-1.9-0.5c-0.5-0.4-0.9-0.8-1.2-1.4c-0.2-0.6-0.4-1.2-0.4-1.9s0.1-1.3,0.4-1.9c0.3-0.6,0.6-1.1,1.2-1.4
	c0.5-0.4,1.2-0.5,1.9-0.5c0.9,0,1.7,0.3,2.2,0.8c0.5,0.6,0.9,1.2,1,2h-1.2c-0.1-0.5-0.3-1-0.6-1.3c-0.3-0.3-0.8-0.5-1.4-0.5
	c-0.8,0-1.3,0.3-1.7,0.8c-0.4,0.5-0.6,1.2-0.6,2c0,0.8,0.2,1.5,0.6,2c0.4,0.5,1,0.8,1.7,0.8c0.6,0,1-0.2,1.4-0.5
	c0.3-0.3,0.6-0.8,0.6-1.3h1.2c-0.1,0.8-0.5,1.5-1,2C1337,351.8,1336.2,352.1,1335.3,352.1z M1342.2,345.6v4.3c0,0.3,0,0.6,0,0.8
	c0,0.2,0.1,0.3,0.3,0.4c0.2,0.1,0.4,0.1,0.7,0.1c0.2,0,0.5,0,0.7-0.1v0.9c-0.1,0-0.2,0.1-0.4,0.1c-0.2,0-0.4,0-0.7,0
	c-0.5,0-0.9-0.1-1.2-0.2c-0.3-0.2-0.4-0.4-0.5-0.6c-0.1-0.3-0.1-0.6-0.1-1.1v-4.5h-1.4v-1h1.4v-2.4h1.2v2.4h1.8v1H1342.2z
	 M1348.2,352.1c-0.6,0-1.1-0.1-1.5-0.4c-0.4-0.2-0.8-0.6-1-0.9c-0.2-0.4-0.3-0.8-0.3-1.2v-0.1h1.2v0.1c0,0.2,0.1,0.5,0.2,0.7
	c0.1,0.2,0.3,0.4,0.6,0.6c0.3,0.1,0.6,0.2,1,0.2c0.4,0,0.8-0.1,1.1-0.3c0.3-0.2,0.4-0.5,0.4-0.9c0-0.3-0.1-0.6-0.3-0.8
	c-0.2-0.2-0.5-0.3-0.8-0.4l-1-0.1c-0.6-0.1-1.1-0.3-1.5-0.6c-0.4-0.3-0.6-0.8-0.6-1.4c0-0.7,0.2-1.2,0.7-1.6
	c0.5-0.4,1.1-0.6,1.9-0.6c0.6,0,1.1,0.1,1.4,0.3c0.4,0.2,0.7,0.5,0.9,0.8c0.2,0.3,0.3,0.7,0.3,1.1v0.1h-1.2v0c0-0.2-0.1-0.4-0.2-0.6
	c-0.1-0.2-0.2-0.4-0.5-0.5c-0.2-0.1-0.5-0.2-0.9-0.2c-0.4,0-0.8,0.1-1.1,0.3c-0.3,0.2-0.4,0.5-0.4,0.9c0,0.3,0.1,0.5,0.3,0.7
	c0.2,0.2,0.5,0.3,0.8,0.4l1.1,0.2c0.6,0.1,1.1,0.3,1.5,0.6c0.4,0.3,0.6,0.8,0.6,1.4c0,0.4-0.1,0.8-0.4,1.2s-0.6,0.6-1,0.8
	C1349.2,352,1348.8,352.1,1348.2,352.1z"/>
<g>
	<path class="st0" d="M699,534c30.9,0,56-25.1,56-56s-25.1-56-56-56s-56,25.1-56,56S668.1,534,699,534z"/>
	<path class="st10" d="M714.8,471.3h-31.5c-1.4,0-2.5-1.1-2.5-2.5v-5.4c0-1.4,1.1-2.5,2.5-2.5h31.5c1.4,0,2.5,1.1,2.5,2.5v5.4
		C717.3,470.2,716.2,471.3,714.8,471.3z"/>
	<path class="st10" d="M714.8,481.8h-31.5c-1.4,0-2.5-1.1-2.5-2.5v-5.4c0-1.4,1.1-2.5,2.5-2.5h31.5c1.4,0,2.5,1.1,2.5,2.5v5.4
		C717.3,480.6,716.2,481.8,714.8,481.8z"/>
	<path class="st10" d="M714.8,492.2h-31.5c-1.4,0-2.5-1.1-2.5-2.5v-5.4c0-1.4,1.1-2.5,2.5-2.5h31.5c1.4,0,2.5,1.1,2.5,2.5v5.4
		C717.3,491.1,716.2,492.2,714.8,492.2z"/>
	<path class="st10" d="M687.2,492.2v3.9"/>
	<path class="st10" d="M710.8,492.2v3.9"/>
	<path class="st2" d="M686.6,467.4c0.7,0,1.3-0.6,1.3-1.3c0-0.7-0.6-1.3-1.3-1.3c-0.7,0-1.3,0.6-1.3,1.3
		C685.3,466.8,685.9,467.4,686.6,467.4z"/>
	<path class="st2" d="M686.6,477.9c0.7,0,1.3-0.6,1.3-1.3s-0.6-1.3-1.3-1.3c-0.7,0-1.3,0.6-1.3,1.3S685.9,477.9,686.6,477.9z"/>
	<path class="st2" d="M686.6,488.3c0.7,0,1.3-0.6,1.3-1.3c0-0.7-0.6-1.3-1.3-1.3c-0.7,0-1.3,0.6-1.3,1.3
		C685.3,487.7,685.9,488.3,686.6,488.3z"/>
	<path class="st4" d="M680.7,496.2h36.6"/>
</g>
<g>
	<path class="st0" d="M541,534c30.9,0,56-25.1,56-56s-25.1-56-56-56s-56,25.1-56,56S510.1,534,541,534z"/>
	<path class="st10" d="M556.8,471.3h-31.5c-1.4,0-2.5-1.1-2.5-2.5v-5.4c0-1.4,1.1-2.5,2.5-2.5h31.5c1.4,0,2.5,1.1,2.5,2.5v5.4
		C559.3,470.2,558.2,471.3,556.8,471.3z"/>
	<path class="st10" d="M556.8,481.8h-31.5c-1.4,0-2.5-1.1-2.5-2.5v-5.4c0-1.4,1.1-2.5,2.5-2.5h31.5c1.4,0,2.5,1.1,2.5,2.5v5.4
		C559.3,480.6,558.2,481.8,556.8,481.8z"/>
	<path class="st10" d="M556.8,492.2h-31.5c-1.4,0-2.5-1.1-2.5-2.5v-5.4c0-1.4,1.1-2.5,2.5-2.5h31.5c1.4,0,2.5,1.1,2.5,2.5v5.4
		C559.3,491.1,558.2,492.2,556.8,492.2z"/>
	<path class="st10" d="M529.2,492.2v3.9"/>
	<path class="st10" d="M552.8,492.2v3.9"/>
	<path class="st2" d="M528.6,467.4c0.7,0,1.3-0.6,1.3-1.3c0-0.7-0.6-1.3-1.3-1.3c-0.7,0-1.3,0.6-1.3,1.3
		C527.3,466.8,527.9,467.4,528.6,467.4z"/>
	<path class="st2" d="M528.6,477.9c0.7,0,1.3-0.6,1.3-1.3s-0.6-1.3-1.3-1.3c-0.7,0-1.3,0.6-1.3,1.3S527.9,477.9,528.6,477.9z"/>
	<path class="st2" d="M528.6,488.3c0.7,0,1.3-0.6,1.3-1.3c0-0.7-0.6-1.3-1.3-1.3c-0.7,0-1.3,0.6-1.3,1.3
		C527.3,487.7,527.9,488.3,528.6,488.3z"/>
	<path class="st4" d="M522.7,496.2h36.6"/>
</g>
<g>
	<path class="st0" d="M858.3,534c30.9,0,56-25.1,56-56s-25.1-56-56-56c-30.9,0-56,25.1-56,56S827.4,534,858.3,534z"/>
	<path class="st10" d="M874.1,471.3h-31.6c-1.4,0-2.5-1.1-2.5-2.5v-5.4c0-1.4,1.1-2.5,2.5-2.5h31.6c1.4,0,2.5,1.1,2.5,2.5v5.4
		C876.6,470.2,875.5,471.3,874.1,471.3z"/>
	<path class="st10" d="M874.1,481.8h-31.6c-1.4,0-2.5-1.1-2.5-2.5v-5.4c0-1.4,1.1-2.5,2.5-2.5h31.6c1.4,0,2.5,1.1,2.5,2.5v5.4
		C876.6,480.6,875.5,481.8,874.1,481.8z"/>
	<path class="st10" d="M874.1,492.2h-31.6c-1.4,0-2.5-1.1-2.5-2.5v-5.4c0-1.4,1.1-2.5,2.5-2.5h31.6c1.4,0,2.5,1.1,2.5,2.5v5.4
		C876.6,491.1,875.5,492.2,874.1,492.2z"/>
	<path class="st10" d="M846.6,492.2v3.9"/>
	<path class="st10" d="M870.1,492.2v3.9"/>
	<path class="st2" d="M845.9,467.4c0.7,0,1.3-0.6,1.3-1.3c0-0.7-0.6-1.3-1.3-1.3c-0.7,0-1.3,0.6-1.3,1.3
		C844.6,466.8,845.2,467.4,845.9,467.4z"/>
	<path class="st2" d="M845.9,477.9c0.7,0,1.3-0.6,1.3-1.3s-0.6-1.3-1.3-1.3c-0.7,0-1.3,0.6-1.3,1.3S845.2,477.9,845.9,477.9z"/>
	<path class="st2" d="M845.9,488.3c0.7,0,1.3-0.6,1.3-1.3c0-0.7-0.6-1.3-1.3-1.3c-0.7,0-1.3,0.6-1.3,1.3
		C844.6,487.7,845.2,488.3,845.9,488.3z"/>
	<path class="st4" d="M840,496.2h36.6"/>
</g>
<g>
	<path class="st0" d="M272,534c30.9,0,56-25.1,56-56s-25.1-56-56-56s-56,25.1-56,56S241.1,534,272,534z"/>
	<path class="st11" d="M263.7,469.8v9.1c0,1.2-1,2.3-2.3,2.3h-9.8v-3.2c0-1.6,0.9-3,2.4-3.7L263.7,469.8z"/>
	<path class="st10" d="M289.2,494.1h-35.5c-1.1,0-2-0.9-2-2v-14.1c0-1.6,0.9-3,2.4-3.7l9.7-4.5v-4.6c0-1.6,1.3-2.9,2.9-2.9h22.6
		c1.6,0,3,1.3,3,3v25.8C292.2,492.7,290.8,494.1,289.2,494.1z"/>
	<path class="st1" d="M261.6,498.2c2.5,0,4.6-2.1,4.6-4.6c0-2.5-2.1-4.6-4.6-4.6c-2.5,0-4.6,2.1-4.6,4.6
		C257,496.2,259.1,498.2,261.6,498.2z"/>
	<path class="st1" d="M280.9,498.2c2.5,0,4.6-2.1,4.6-4.6c0-2.5-2.1-4.6-4.6-4.6c-2.5,0-4.6,2.1-4.6,4.6
		C276.3,496.2,278.3,498.2,280.9,498.2z"/>
	<path class="st4" d="M273.4,474.8l3.7,3.4l6.7-7.1"/>
	<path class="st10" d="M292.2,486.2h-26.6c-1,0-1.9-0.8-1.9-1.9v-14.6"/>
</g>
<path class="st5" d="M214.6,554.2c0.8,0,1.4,0.2,1.9,0.5c0.5,0.3,0.9,0.7,1.1,1.2s0.3,1,0.3,1.5c0,0.5-0.1,1.1-0.3,1.5
	c-0.2,0.5-0.6,0.9-1.1,1.2c-0.5,0.3-1.2,0.5-2,0.5h-2.2v3.4h-1.2v-9.8H214.6z M214.5,559.6c0.7,0,1.2-0.2,1.7-0.5
	c0.5-0.3,0.7-0.9,0.7-1.7c0-0.8-0.2-1.3-0.7-1.6c-0.4-0.3-1-0.5-1.7-0.5h-2v4.3H214.5z M222,564.1c-0.7,0-1.2-0.2-1.7-0.5
	c-0.5-0.3-0.8-0.8-1.1-1.4c-0.2-0.6-0.4-1.2-0.4-2c0-0.7,0.1-1.4,0.4-2c0.3-0.6,0.6-1,1.1-1.4c0.5-0.3,1-0.5,1.7-0.5
	s1.2,0.2,1.6,0.5s0.7,0.7,0.9,1.1h0.1v-1.4h1.2v7.4h-1.2v-1.5h-0.1c-0.2,0.4-0.5,0.8-1,1.1C223.1,563.9,222.6,564.1,222,564.1z
	 M222.3,563.1c0.7,0,1.3-0.3,1.7-0.8c0.4-0.5,0.6-1.2,0.6-2c0-0.8-0.2-1.5-0.6-2c-0.4-0.5-0.9-0.8-1.7-0.8c-0.7,0-1.3,0.3-1.7,0.8
	c-0.4,0.5-0.6,1.2-0.6,2c0,0.8,0.2,1.5,0.6,2C221,562.8,221.6,563.1,222.3,563.1z M230.8,564.1c-0.8,0-1.4-0.2-1.9-0.5
	c-0.5-0.4-0.9-0.8-1.2-1.4c-0.3-0.6-0.4-1.2-0.4-1.9c0-0.7,0.1-1.3,0.4-1.9c0.3-0.6,0.6-1.1,1.2-1.4c0.5-0.4,1.2-0.5,1.9-0.5
	c1,0,1.7,0.3,2.2,0.8c0.6,0.6,0.9,1.2,1,2h-1.2c-0.1-0.5-0.3-1-0.6-1.3c-0.3-0.3-0.8-0.5-1.4-0.5c-0.7,0-1.3,0.3-1.7,0.8
	c-0.4,0.5-0.6,1.2-0.6,2c0,0.8,0.2,1.5,0.6,2c0.4,0.5,1,0.8,1.7,0.8c0.6,0,1.1-0.2,1.4-0.5c0.3-0.3,0.6-0.8,0.6-1.3h1.2
	c-0.1,0.8-0.4,1.5-1,2C232.5,563.8,231.8,564.1,230.8,564.1z M235.6,553.5h1.2v5.9h0.1l2.8-2.8h1.4l-3.3,3.3l3.4,4.1h-1.4l-2.9-3.6
	h-0.1v3.6h-1.2V553.5z M242.6,556.6h1.2v7.4h-1.2V556.6z M243.2,555.2c-0.2,0-0.4-0.1-0.6-0.2c-0.1-0.2-0.2-0.3-0.2-0.6
	s0.1-0.4,0.2-0.5c0.1-0.2,0.3-0.2,0.6-0.2c0.2,0,0.4,0.1,0.6,0.2c0.2,0.1,0.2,0.3,0.2,0.5s-0.1,0.4-0.2,0.6
	C243.6,555.2,243.5,555.2,243.2,555.2z M245.9,556.6h1.2v1.3h0.1c0.2-0.4,0.5-0.8,0.9-1.1c0.4-0.3,0.9-0.4,1.5-0.4
	c0.6,0,1.1,0.1,1.6,0.4c0.4,0.3,0.7,0.7,0.9,1.2c0.2,0.5,0.3,1,0.3,1.6v4.4h-1.2v-4.3c0-0.7-0.2-1.3-0.6-1.7
	c-0.4-0.4-0.9-0.6-1.5-0.6c-0.6,0-1.2,0.2-1.5,0.6c-0.4,0.4-0.6,0.9-0.6,1.6v4.3h-1.2V556.6z M257.6,567c-0.3,0-0.5,0-0.7-0.1
	c-0.2,0-0.3-0.1-0.5-0.2v-1c0.1,0,0.3,0.1,0.5,0.1c0.2,0,0.4,0.1,0.6,0.1c0.7,0,1.3-0.2,1.6-0.6c0.4-0.4,0.6-1,0.6-1.6v-1.3h-0.1
	c-0.2,0.4-0.5,0.8-1,1.1c-0.4,0.3-1,0.4-1.6,0.4s-1.2-0.2-1.6-0.5s-0.8-0.8-1.1-1.3c-0.3-0.6-0.4-1.2-0.4-1.9c0-0.7,0.1-1.4,0.4-1.9
	c0.3-0.6,0.6-1,1.1-1.3c0.5-0.3,1-0.5,1.6-0.5c0.6,0,1.2,0.2,1.6,0.5c0.4,0.3,0.7,0.7,0.9,1.1h0.1v-1.4h1.2v7c0,0.5-0.1,1-0.3,1.5
	c-0.2,0.5-0.6,0.9-1.1,1.3C259,566.8,258.4,567,257.6,567z M257.4,562.8c0.5,0,0.9-0.1,1.2-0.4c0.3-0.3,0.6-0.6,0.7-1
	c0.2-0.4,0.3-0.9,0.3-1.3c0-0.5-0.1-0.9-0.3-1.3c-0.2-0.4-0.4-0.7-0.7-1c-0.3-0.3-0.7-0.4-1.2-0.4c-0.7,0-1.3,0.3-1.7,0.8
	c-0.4,0.5-0.6,1.1-0.6,1.9c0,0.5,0.1,0.9,0.2,1.4c0.2,0.4,0.4,0.7,0.7,1C256.5,562.7,256.9,562.8,257.4,562.8z M274,564h-1.4
	l-1.5-1.7H271l-0.1,0.1c-0.2,0.4-0.6,0.8-1.1,1.1c-0.4,0.3-1,0.5-1.7,0.5c-0.5,0-0.9-0.1-1.3-0.3c-0.4-0.2-0.7-0.5-1-0.9
	c-0.2-0.4-0.4-0.8-0.4-1.4c0-0.6,0.2-1.2,0.5-1.6c0.3-0.4,0.8-0.8,1.4-1l0.5-0.2v-0.1l-0.1-0.1c-0.3-0.3-0.5-0.6-0.8-1
	c-0.2-0.4-0.3-0.8-0.3-1.3c0-0.5,0.1-0.9,0.4-1.3c0.3-0.4,0.6-0.6,1-0.8c0.4-0.2,0.8-0.3,1.3-0.3c0.5,0,1,0.1,1.4,0.3
	c0.4,0.2,0.8,0.5,1,0.9c0.3,0.4,0.4,0.9,0.4,1.4v0.3H271v-0.2c0-0.5-0.2-0.9-0.4-1.2c-0.3-0.3-0.6-0.4-1.1-0.4c-0.4,0-0.7,0.1-1,0.4
	c-0.3,0.2-0.4,0.6-0.4,1c0,0.3,0,0.5,0.1,0.7c0.1,0.2,0.2,0.4,0.3,0.6c0.1,0.2,0.4,0.4,0.7,0.8l1.8,2l0.9-1.6h1.2l-1.5,2.4L274,564z
	 M270.4,561.5l-1.8-2l-0.6,0.2c-0.4,0.1-0.8,0.4-1,0.7c-0.2,0.3-0.3,0.6-0.3,1c0,0.5,0.1,0.9,0.4,1.2c0.3,0.3,0.7,0.4,1.2,0.4
	c0.5,0,0.9-0.1,1.2-0.4c0.3-0.3,0.6-0.6,0.8-1L270.4,561.5z M280.7,564.1c-0.8,0-1.4-0.2-1.9-0.5c-0.5-0.3-0.9-0.7-1.2-1.2
	c-0.3-0.5-0.4-1-0.4-1.6v-0.1h1.3v0.1c0,0.3,0.1,0.7,0.2,1c0.2,0.3,0.4,0.6,0.7,0.8c0.3,0.2,0.8,0.3,1.3,0.3c0.6,0,1.1-0.2,1.5-0.5
	c0.4-0.3,0.6-0.7,0.6-1.3c0-0.4-0.1-0.8-0.4-1.1c-0.3-0.3-0.7-0.5-1.1-0.5l-1.4-0.3c-1.6-0.4-2.5-1.2-2.5-2.6c0-0.6,0.1-1,0.4-1.5
	c0.3-0.4,0.6-0.7,1.1-1c0.5-0.2,1-0.4,1.7-0.4c0.7,0,1.3,0.1,1.8,0.4s0.9,0.7,1.2,1.1c0.3,0.5,0.4,0.9,0.4,1.4v0.1h-1.3v0
	c0-0.3-0.1-0.6-0.2-0.9c-0.1-0.3-0.4-0.6-0.7-0.8c-0.3-0.2-0.7-0.3-1.2-0.3c-0.6,0-1.1,0.2-1.4,0.5c-0.3,0.3-0.5,0.7-0.5,1.2
	c0,0.4,0.1,0.7,0.4,1c0.3,0.3,0.6,0.4,1.1,0.5l1.3,0.3c1.8,0.4,2.7,1.2,2.7,2.6c0,0.6-0.1,1.1-0.4,1.5c-0.3,0.4-0.7,0.8-1.2,1
	C282,564,281.4,564.1,280.7,564.1z M285.7,553.5h1.2v4.4h0.1c0.2-0.4,0.5-0.8,0.9-1.1c0.4-0.3,0.9-0.4,1.5-0.4
	c0.6,0,1.1,0.1,1.6,0.4c0.4,0.3,0.7,0.7,0.9,1.2c0.2,0.5,0.3,1,0.3,1.6v4.4h-1.2v-4.3c0-0.7-0.2-1.3-0.6-1.7
	c-0.4-0.4-0.9-0.6-1.5-0.6c-0.6,0-1.1,0.2-1.5,0.6c-0.4,0.4-0.6,0.9-0.6,1.6v4.3h-1.2V553.5z M294.2,556.6h1.2v7.4h-1.2V556.6z
	 M294.7,555.2c-0.2,0-0.4-0.1-0.6-0.2c-0.1-0.2-0.2-0.3-0.2-0.6s0.1-0.4,0.2-0.5c0.2-0.2,0.3-0.2,0.6-0.2s0.4,0.1,0.6,0.2
	c0.2,0.1,0.2,0.3,0.2,0.5s-0.1,0.4-0.2,0.6C295.1,555.2,295,555.2,294.7,555.2z M301.2,564.1c-0.6,0-1.2-0.2-1.6-0.5
	c-0.4-0.3-0.7-0.7-1-1.1h-0.1v4.4h-1.2v-10.2h1.2v1.4h0.1c0.2-0.4,0.5-0.8,0.9-1.1c0.4-0.3,0.9-0.5,1.6-0.5c0.7,0,1.2,0.2,1.7,0.5
	c0.5,0.3,0.8,0.8,1.1,1.4c0.2,0.6,0.4,1.2,0.4,2c0,0.7-0.1,1.4-0.4,2c-0.2,0.6-0.6,1-1.1,1.4C302.4,563.9,301.9,564.1,301.2,564.1z
	 M300.8,563.1c0.7,0,1.3-0.3,1.7-0.8c0.4-0.5,0.6-1.2,0.6-2c0-0.8-0.2-1.5-0.6-2c-0.4-0.5-0.9-0.8-1.7-0.8c-0.7,0-1.3,0.3-1.7,0.8
	c-0.4,0.5-0.6,1.2-0.6,2c0,0.8,0.2,1.5,0.6,2C299.6,562.8,300.1,563.1,300.8,563.1z M309.7,564.1c-0.6,0-1.2-0.2-1.6-0.5
	c-0.4-0.3-0.7-0.7-1-1.1h-0.1v4.4h-1.2v-10.2h1.2v1.4h0.1c0.2-0.4,0.5-0.8,0.9-1.1c0.4-0.3,0.9-0.5,1.6-0.5c0.7,0,1.2,0.2,1.7,0.5
	c0.5,0.3,0.8,0.8,1.1,1.4c0.2,0.6,0.4,1.2,0.4,2c0,0.7-0.1,1.4-0.4,2c-0.2,0.6-0.6,1-1.1,1.4C310.9,563.9,310.4,564.1,309.7,564.1z
	 M309.3,563.1c0.7,0,1.3-0.3,1.7-0.8c0.4-0.5,0.6-1.2,0.6-2c0-0.8-0.2-1.5-0.6-2c-0.4-0.5-0.9-0.8-1.7-0.8c-0.7,0-1.3,0.3-1.7,0.8
	c-0.4,0.5-0.6,1.2-0.6,2c0,0.8,0.2,1.5,0.6,2C308.1,562.8,308.6,563.1,309.3,563.1z M314.5,556.6h1.2v7.4h-1.2V556.6z M315.1,555.2
	c-0.2,0-0.4-0.1-0.6-0.2c-0.1-0.2-0.2-0.3-0.2-0.6s0.1-0.4,0.2-0.5c0.1-0.2,0.3-0.2,0.6-0.2s0.4,0.1,0.6,0.2
	c0.2,0.1,0.2,0.3,0.2,0.5s-0.1,0.4-0.2,0.6C315.5,555.2,315.3,555.2,315.1,555.2z M317.7,556.6h1.2v1.3h0.1c0.2-0.4,0.5-0.8,0.9-1.1
	c0.4-0.3,0.9-0.4,1.5-0.4c0.6,0,1.1,0.1,1.6,0.4c0.4,0.3,0.7,0.7,0.9,1.2c0.2,0.5,0.3,1,0.3,1.6v4.4h-1.2v-4.3
	c0-0.7-0.2-1.3-0.6-1.7c-0.4-0.4-0.9-0.6-1.5-0.6c-0.6,0-1.2,0.2-1.5,0.6c-0.4,0.4-0.6,0.9-0.6,1.6v4.3h-1.2V556.6z M329.4,567
	c-0.3,0-0.5,0-0.7-0.1c-0.2,0-0.3-0.1-0.5-0.2v-1c0.1,0,0.3,0.1,0.5,0.1c0.2,0,0.4,0.1,0.6,0.1c0.7,0,1.3-0.2,1.6-0.6
	c0.4-0.4,0.6-1,0.6-1.6v-1.3h-0.1c-0.2,0.4-0.5,0.8-1,1.1c-0.4,0.3-1,0.4-1.6,0.4s-1.2-0.2-1.6-0.5c-0.5-0.3-0.8-0.8-1.1-1.3
	c-0.3-0.6-0.4-1.2-0.4-1.9c0-0.7,0.1-1.4,0.4-1.9c0.3-0.6,0.6-1,1.1-1.3c0.5-0.3,1-0.5,1.6-0.5c0.6,0,1.2,0.2,1.6,0.5
	c0.4,0.3,0.7,0.7,0.9,1.1h0.1v-1.4h1.2v7c0,0.5-0.1,1-0.3,1.5c-0.2,0.5-0.6,0.9-1.1,1.3C330.9,566.8,330.2,567,329.4,567z
	 M329.3,562.8c0.5,0,0.9-0.1,1.2-0.4c0.3-0.3,0.6-0.6,0.7-1c0.2-0.4,0.3-0.9,0.3-1.3c0-0.5-0.1-0.9-0.3-1.3c-0.2-0.4-0.4-0.7-0.7-1
	c-0.3-0.3-0.7-0.4-1.2-0.4c-0.7,0-1.3,0.3-1.7,0.8c-0.4,0.5-0.6,1.1-0.6,1.9c0,0.5,0.1,0.9,0.2,1.4c0.2,0.4,0.4,0.7,0.7,1
	C328.4,562.7,328.8,562.8,329.3,562.8z"/>
<g>
	<path class="st0" d="M96,534c30.9,0,56-25.1,56-56s-25.1-56-56-56c-30.9,0-56,25.1-56,56S65.1,534,96,534z"/>
	<path class="st2" d="M84.7,476.2c4.7,0,8.5-3.8,8.5-8.5s-3.8-8.5-8.5-8.5c-4.7,0-8.5,3.8-8.5,8.5S80,476.2,84.7,476.2z"/>
	<path class="st0" d="M84.5,472l-1.4-1c-3.1-2.1-3.1-3.7-3.1-4.3c0-1.5,1.1-2.7,2.6-2.7c0.8,0,1.5,0.4,1.9,1c0.5-0.6,1.2-1,1.9-1
		c1.4,0,2.6,1.2,2.6,2.7c0,0.6,0,2.2-3.1,4.3L84.5,472z"/>
	<path class="st1" d="M103.5,494.1H76.3c-0.8,0-1.5-0.7-1.5-1.5V473c0-0.9,0.7-1.5,1.5-1.5h27.2c0.8,0,1.5,0.7,1.5,1.5v19.6
		C105,493.4,104.3,494.1,103.5,494.1z"/>
	<path class="st4" d="M89.9,471.4v22.7"/>
	<path class="st1" d="M110.4,493.6l-17.8-27.2c-0.4-0.7-0.3-1.6,0.4-2.1l5-3.3c0.7-0.5,1.6-0.3,2.1,0.4l17.8,27.2
		c0.4,0.7,0.3,1.6-0.4,2.1l-5,3.3C111.8,494.5,110.9,494.3,110.4,493.6z"/>
	<path class="st4" d="M109,475.1l-7.5,4.9"/>
	<path class="st3" d="M109,475.1l-2.1-3.2c-1.2-1.8-0.7-4.2,1.1-5.3s4.2-0.7,5.3,1.1c1.2,1.8,0.7,4.2-1.1,5.3L109,475.1z"/>
	<path class="st3" d="M109,475.1l2.1,3.2c1.2,1.8,3.5,2.3,5.3,1.1c1.8-1.2,2.3-3.6,1.1-5.3c-1.2-1.8-3.5-2.3-5.3-1.1L109,475.1z"/>
</g>
<path class="st5" d="M59.1,564.1c-1,0-1.8-0.2-2.4-0.7c-0.6-0.5-1.1-1.1-1.4-1.9c-0.3-0.8-0.4-1.6-0.4-2.4c0-0.9,0.2-1.7,0.5-2.4
	c0.3-0.8,0.8-1.4,1.4-1.9c0.7-0.5,1.5-0.7,2.5-0.7c1.1,0,2,0.3,2.6,0.9c0.7,0.6,1.2,1.3,1.4,2.2H62c-0.2-0.6-0.5-1.1-1-1.5
	c-0.5-0.4-1.1-0.5-1.8-0.5c-1,0-1.7,0.4-2.3,1.1c-0.6,0.7-0.8,1.7-0.8,2.9c0,1.3,0.3,2.2,0.8,2.9c0.6,0.7,1.3,1.1,2.3,1.1
	c0.6,0,1.1-0.1,1.5-0.4c0.4-0.3,0.8-0.6,1-1c0.2-0.4,0.4-0.9,0.4-1.5l0-0.4h-2.7v-0.9h3.9v5.1h-1v-1.6h-0.1
	c-0.1,0.1-0.2,0.3-0.4,0.6c-0.2,0.3-0.5,0.5-1,0.8C60.3,564,59.8,564.1,59.1,564.1z M68.3,564.1c-0.8,0-1.4-0.2-1.9-0.5
	c-0.5-0.4-0.9-0.8-1.1-1.4c-0.3-0.6-0.4-1.2-0.4-1.9c0-0.7,0.1-1.3,0.4-1.9c0.3-0.6,0.6-1.1,1.2-1.4c0.5-0.4,1.2-0.5,1.9-0.5
	c1,0,1.8,0.3,2.4,1c0.6,0.7,0.9,1.6,0.9,2.9v0.3H66v0.1c0,0.4,0.1,0.8,0.3,1.2c0.2,0.4,0.4,0.7,0.8,0.9c0.3,0.2,0.7,0.3,1.2,0.3
	c0.5,0,0.9-0.1,1.2-0.4c0.3-0.2,0.6-0.6,0.8-1h1.2c-0.2,0.7-0.6,1.2-1.1,1.7C69.8,563.9,69.1,564.1,68.3,564.1z M70.3,559.8
	c0-0.8-0.2-1.4-0.6-1.8c-0.4-0.4-0.9-0.6-1.5-0.6c-0.7,0-1.2,0.2-1.6,0.7c-0.4,0.4-0.6,1-0.6,1.7H70.3z M75.3,557.6v4.3
	c0,0.3,0,0.6,0,0.8c0,0.2,0.1,0.3,0.3,0.4c0.1,0.1,0.4,0.1,0.7,0.1c0.2,0,0.5,0,0.7-0.1v0.9c-0.1,0-0.2,0.1-0.4,0.1
	c-0.2,0-0.4,0-0.7,0c-0.5,0-0.9-0.1-1.2-0.2c-0.3-0.2-0.4-0.4-0.5-0.6c-0.1-0.3-0.1-0.6-0.1-1.1v-4.5h-1.4v-1h1.4v-2.4h1.2v2.4H77v1
	H75.3z M85,560.1h-1.8v3.9H82v-9.8h3.3c0.8,0,1.4,0.1,1.9,0.4c0.5,0.3,0.9,0.7,1.1,1.1s0.3,0.9,0.3,1.4c0,0.7-0.2,1.3-0.6,1.8
	c-0.4,0.5-1,0.9-1.9,1l2.6,4h-1.3L85,560.1z M83.2,559.1h2c0.7,0,1.2-0.1,1.7-0.4c0.5-0.3,0.7-0.8,0.7-1.5c0-0.7-0.2-1.2-0.7-1.4
	c-0.5-0.3-1-0.4-1.7-0.4h-2V559.1z M93.6,564.1c-0.8,0-1.4-0.2-1.9-0.5c-0.5-0.4-0.9-0.8-1.1-1.4c-0.3-0.6-0.4-1.2-0.4-1.9
	c0-0.7,0.1-1.3,0.4-1.9c0.3-0.6,0.6-1.1,1.2-1.4c0.5-0.4,1.2-0.5,1.9-0.5c1,0,1.8,0.3,2.4,1c0.6,0.7,0.9,1.6,0.9,2.9v0.3h-5.5v0.1
	c0,0.4,0.1,0.8,0.3,1.2s0.4,0.7,0.8,0.9c0.3,0.2,0.7,0.3,1.2,0.3c0.5,0,0.9-0.1,1.2-0.4c0.3-0.2,0.6-0.6,0.8-1h1.2
	c-0.2,0.7-0.6,1.2-1.1,1.7C95.2,563.9,94.5,564.1,93.6,564.1z M95.7,559.8c0-0.8-0.2-1.4-0.6-1.8s-0.9-0.6-1.5-0.6
	c-0.7,0-1.2,0.2-1.6,0.7c-0.4,0.4-0.6,1-0.6,1.7H95.7z M98,556.6h1.1l1.6,6.1h0.1l1.9-6.1h1.1l1.9,6.1h0.1l1.6-6.1h1.1l-2,7.4H105
	l-1.6-5.4h-0.1l-1.6,5.4h-1.5L98,556.6z M112.5,564.1c-0.7,0-1.2-0.2-1.7-0.5c-0.5-0.3-0.8-0.8-1.1-1.4c-0.2-0.6-0.4-1.2-0.4-2
	c0-0.7,0.1-1.4,0.4-2c0.3-0.6,0.6-1,1.1-1.4c0.5-0.3,1-0.5,1.7-0.5s1.2,0.2,1.6,0.5s0.7,0.7,0.9,1.1h0.1v-1.4h1.2v7.4h-1.2v-1.5
	h-0.1c-0.2,0.4-0.5,0.8-1,1.1S113.2,564.1,112.5,564.1z M112.9,563.1c0.7,0,1.3-0.3,1.7-0.8c0.4-0.5,0.6-1.2,0.6-2
	c0-0.8-0.2-1.5-0.6-2c-0.4-0.5-0.9-0.8-1.7-0.8c-0.7,0-1.3,0.3-1.7,0.8c-0.4,0.5-0.6,1.2-0.6,2c0,0.8,0.2,1.5,0.6,2
	C111.6,562.8,112.2,563.1,112.9,563.1z M118.5,556.6h1.2v1.2h0.1c0.1-0.3,0.3-0.6,0.6-0.8c0.3-0.2,0.7-0.3,1.2-0.3
	c0.1,0,0.3,0,0.4,0c0.1,0,0.2,0,0.3,0.1l0,1.2c-0.2,0-0.3-0.1-0.4-0.1c-0.1,0-0.2,0-0.4,0c-1.2,0-1.7,0.7-1.7,2.1v4.2h-1.2V556.6z
	 M126.1,564.1c-0.7,0-1.2-0.2-1.7-0.5c-0.5-0.3-0.8-0.8-1.1-1.4c-0.2-0.6-0.4-1.2-0.4-2c0-0.7,0.1-1.4,0.4-2c0.2-0.6,0.6-1,1.1-1.4
	c0.5-0.3,1-0.5,1.7-0.5c0.7,0,1.2,0.2,1.6,0.5c0.4,0.3,0.7,0.7,0.9,1.1h0.1v-4.5h1.2V564h-1.2v-1.5h-0.1c-0.2,0.4-0.5,0.8-1,1.1
	C127.3,563.9,126.7,564.1,126.1,564.1z M126.5,563.1c0.7,0,1.3-0.3,1.7-0.8c0.4-0.5,0.6-1.2,0.6-2c0-0.8-0.2-1.5-0.6-2
	c-0.4-0.5-0.9-0.8-1.7-0.8c-0.7,0-1.3,0.3-1.7,0.8c-0.4,0.5-0.6,1.2-0.6,2c0,0.8,0.2,1.5,0.6,2C125.2,562.8,125.7,563.1,126.5,563.1
	z M134.5,564.1c-0.6,0-1.1-0.1-1.6-0.4c-0.4-0.2-0.8-0.6-1-0.9c-0.2-0.4-0.3-0.8-0.3-1.2v-0.1h1.2v0.1c0,0.2,0.1,0.5,0.2,0.7
	c0.1,0.2,0.3,0.4,0.6,0.6c0.3,0.1,0.6,0.2,1,0.2c0.4,0,0.8-0.1,1.1-0.3c0.3-0.2,0.4-0.5,0.4-0.9c0-0.3-0.1-0.6-0.4-0.8
	c-0.2-0.2-0.5-0.3-0.9-0.4l-1-0.1c-0.6-0.1-1.1-0.3-1.5-0.6c-0.4-0.3-0.6-0.8-0.6-1.4c0-0.7,0.2-1.2,0.7-1.6
	c0.5-0.4,1.1-0.6,1.9-0.6c0.6,0,1.1,0.1,1.5,0.3c0.4,0.2,0.7,0.5,0.9,0.8c0.2,0.3,0.3,0.7,0.3,1.1v0.1H136v0c0-0.2-0.1-0.4-0.2-0.6
	c-0.1-0.2-0.3-0.4-0.5-0.5c-0.2-0.1-0.5-0.2-0.9-0.2c-0.4,0-0.8,0.1-1.1,0.3c-0.3,0.2-0.4,0.5-0.4,0.9c0,0.3,0.1,0.5,0.3,0.7
	c0.2,0.2,0.5,0.3,0.8,0.4l1.1,0.2c0.6,0.1,1.1,0.3,1.6,0.6c0.4,0.3,0.6,0.8,0.6,1.4c0,0.4-0.1,0.8-0.4,1.2c-0.2,0.3-0.6,0.6-1,0.8
	S135.1,564.1,134.5,564.1z"/>
<g>
	<path class="st0" d="M1304,534c30.9,0,56-25.1,56-56s-25.1-56-56-56s-56,25.1-56,56S1273.1,534,1304,534z"/>
	<path class="st2" d="M1292.7,476.2c4.7,0,8.5-3.8,8.5-8.5s-3.8-8.5-8.5-8.5c-4.7,0-8.5,3.8-8.5,8.5S1288,476.2,1292.7,476.2z"/>
	<path class="st0" d="M1292.5,472l-1.4-1c-3.1-2.1-3.1-3.7-3.1-4.3c0-1.5,1.2-2.7,2.6-2.7c0.8,0,1.5,0.4,1.9,1c0.5-0.6,1.2-1,1.9-1
		c1.4,0,2.6,1.2,2.6,2.7c0,0.6,0,2.2-3.1,4.3L1292.5,472z"/>
	<path class="st1" d="M1311.5,494.1h-27.2c-0.9,0-1.5-0.7-1.5-1.5V473c0-0.9,0.7-1.5,1.5-1.5h27.2c0.8,0,1.5,0.7,1.5,1.5v19.6
		C1313,493.4,1312.3,494.1,1311.5,494.1z"/>
	<path class="st4" d="M1297.9,471.4v22.7"/>
	<path class="st1" d="M1318.4,493.6l-17.8-27.2c-0.4-0.7-0.3-1.6,0.4-2.1l5-3.3c0.7-0.5,1.6-0.3,2.1,0.4l17.8,27.2
		c0.5,0.7,0.3,1.6-0.4,2.1l-5,3.3C1319.8,494.5,1318.9,494.3,1318.4,493.6z"/>
	<path class="st4" d="M1317,475.1l-7.5,4.9"/>
	<path class="st3" d="M1317,475.1l-2.1-3.2c-1.2-1.8-0.7-4.2,1.1-5.3c1.8-1.2,4.2-0.7,5.3,1.1s0.7,4.2-1.1,5.3L1317,475.1z"/>
	<path class="st3" d="M1317,475.1l2.1,3.2c1.2,1.8,3.5,2.3,5.3,1.1c1.8-1.2,2.3-3.6,1.1-5.3s-3.5-2.3-5.3-1.1L1317,475.1z"/>
</g>
<path class="st5" d="M1267.1,564.1c-1,0-1.8-0.2-2.4-0.7c-0.6-0.5-1.1-1.1-1.4-1.9c-0.3-0.8-0.5-1.6-0.5-2.4c0-0.9,0.2-1.7,0.5-2.4
	c0.3-0.8,0.8-1.4,1.4-1.9c0.7-0.5,1.5-0.7,2.5-0.7c1.1,0,2,0.3,2.6,0.9c0.7,0.6,1.2,1.3,1.4,2.2h-1.3c-0.2-0.6-0.5-1.1-1-1.5
	c-0.5-0.4-1.1-0.5-1.8-0.5c-1,0-1.7,0.4-2.3,1.1c-0.6,0.7-0.8,1.7-0.8,2.9c0,1.3,0.3,2.2,0.8,2.9c0.6,0.7,1.3,1.1,2.3,1.1
	c0.6,0,1.1-0.1,1.5-0.4c0.4-0.3,0.8-0.6,1-1c0.2-0.4,0.3-0.9,0.4-1.5l0-0.4h-2.8v-0.9h3.9v5.1h-1v-1.6h-0.1
	c-0.1,0.1-0.2,0.3-0.4,0.6c-0.2,0.3-0.5,0.5-1,0.8C1268.3,564,1267.8,564.1,1267.1,564.1z M1276.2,564.1c-0.8,0-1.4-0.2-1.9-0.5
	s-0.9-0.8-1.2-1.4c-0.2-0.6-0.4-1.2-0.4-1.9c0-0.7,0.1-1.3,0.4-1.9c0.2-0.6,0.6-1.1,1.2-1.4s1.2-0.5,1.9-0.5c1,0,1.8,0.3,2.4,1
	c0.6,0.7,0.9,1.6,0.9,2.9v0.3h-5.5v0.1c0,0.4,0.1,0.8,0.3,1.2c0.2,0.4,0.4,0.7,0.8,0.9c0.3,0.2,0.7,0.3,1.2,0.3
	c0.5,0,0.9-0.1,1.2-0.4c0.3-0.2,0.6-0.6,0.8-1h1.2c-0.2,0.7-0.6,1.2-1.1,1.7C1277.8,563.9,1277.1,564.1,1276.2,564.1z M1278.3,559.8
	c0-0.8-0.2-1.4-0.6-1.8c-0.4-0.4-0.9-0.6-1.5-0.6c-0.7,0-1.2,0.2-1.6,0.7c-0.4,0.4-0.6,1-0.6,1.7H1278.3z M1283.3,557.6v4.3
	c0,0.3,0,0.6,0,0.8c0,0.2,0.1,0.3,0.3,0.4c0.2,0.1,0.4,0.1,0.7,0.1c0.2,0,0.5,0,0.7-0.1v0.9c-0.1,0-0.2,0.1-0.4,0.1
	c-0.2,0-0.4,0-0.7,0c-0.5,0-1-0.1-1.2-0.2c-0.3-0.2-0.4-0.4-0.5-0.6c-0.1-0.3-0.1-0.6-0.1-1.1v-4.5h-1.4v-1h1.4v-2.4h1.2v2.4h1.8v1
	H1283.3z M1293,560.1h-1.8v3.9h-1.2v-9.8h3.3c0.8,0,1.5,0.1,2,0.4c0.5,0.3,0.9,0.7,1.1,1.1c0.2,0.4,0.3,0.9,0.3,1.4
	c0,0.7-0.2,1.3-0.6,1.8c-0.4,0.5-1,0.9-1.9,1l2.6,4h-1.3L1293,560.1z M1291.2,559.1h2c0.7,0,1.2-0.1,1.7-0.4s0.7-0.8,0.7-1.5
	c0-0.7-0.2-1.2-0.7-1.4c-0.5-0.3-1-0.4-1.7-0.4h-2V559.1z M1301.6,564.1c-0.8,0-1.4-0.2-1.9-0.5c-0.5-0.4-0.9-0.8-1.1-1.4
	c-0.2-0.6-0.4-1.2-0.4-1.9c0-0.7,0.1-1.3,0.4-1.9c0.2-0.6,0.6-1.1,1.2-1.4s1.2-0.5,1.9-0.5c1,0,1.8,0.3,2.4,1
	c0.6,0.7,0.9,1.6,0.9,2.9v0.3h-5.5v0.1c0,0.4,0.1,0.8,0.3,1.2c0.2,0.4,0.4,0.7,0.8,0.9c0.3,0.2,0.7,0.3,1.2,0.3
	c0.5,0,0.9-0.1,1.2-0.4c0.4-0.2,0.6-0.6,0.8-1h1.2c-0.2,0.7-0.6,1.2-1.1,1.7C1303.2,563.9,1302.5,564.1,1301.6,564.1z M1303.7,559.8
	c0-0.8-0.2-1.4-0.6-1.8c-0.4-0.4-0.9-0.6-1.5-0.6c-0.7,0-1.2,0.2-1.6,0.7c-0.4,0.4-0.6,1-0.6,1.7H1303.7z M1306,556.6h1.1l1.6,6.1
	h0.1l1.9-6.1h1.1l1.9,6.1h0.1l1.6-6.1h1.1l-2,7.4h-1.5l-1.6-5.4h-0.1l-1.6,5.4h-1.5L1306,556.6z M1320.5,564.1
	c-0.7,0-1.2-0.2-1.7-0.5c-0.5-0.3-0.8-0.8-1-1.4c-0.2-0.6-0.4-1.2-0.4-2c0-0.7,0.1-1.4,0.4-2c0.2-0.6,0.6-1,1.1-1.4
	c0.5-0.3,1-0.5,1.7-0.5c0.7,0,1.2,0.2,1.6,0.5c0.4,0.3,0.7,0.7,0.9,1.1h0.1v-1.4h1.2v7.4h-1.2v-1.5h-0.1c-0.2,0.4-0.5,0.8-1,1.1
	S1321.2,564.1,1320.5,564.1z M1320.9,563.1c0.7,0,1.3-0.3,1.6-0.8c0.4-0.5,0.6-1.2,0.6-2c0-0.8-0.2-1.5-0.6-2
	c-0.4-0.5-0.9-0.8-1.6-0.8c-0.7,0-1.3,0.3-1.7,0.8c-0.4,0.5-0.6,1.2-0.6,2c0,0.8,0.2,1.5,0.6,2
	C1319.6,562.8,1320.2,563.1,1320.9,563.1z M1326.5,556.6h1.2v1.2h0.1c0.1-0.3,0.3-0.6,0.7-0.8c0.3-0.2,0.7-0.3,1.2-0.3
	c0.2,0,0.3,0,0.3,0c0.1,0,0.2,0,0.3,0.1l-0.1,1.2c-0.1,0-0.3-0.1-0.4-0.1c-0.1,0-0.2,0-0.4,0c-1.2,0-1.7,0.7-1.7,2.1v4.2h-1.2V556.6
	z M1334.1,564.1c-0.7,0-1.2-0.2-1.7-0.5c-0.5-0.3-0.8-0.8-1.1-1.4c-0.2-0.6-0.4-1.2-0.4-2c0-0.7,0.1-1.4,0.4-2
	c0.2-0.6,0.6-1,1.1-1.4c0.5-0.3,1-0.5,1.7-0.5c0.7,0,1.2,0.2,1.6,0.5c0.4,0.3,0.7,0.7,0.9,1.1h0.1v-4.5h1.2V564h-1.2v-1.5h-0.1
	c-0.2,0.4-0.5,0.8-0.9,1.1C1335.3,563.9,1334.7,564.1,1334.1,564.1z M1334.5,563.1c0.7,0,1.3-0.3,1.7-0.8c0.4-0.5,0.6-1.2,0.6-2
	c0-0.8-0.2-1.5-0.6-2c-0.4-0.5-0.9-0.8-1.7-0.8c-0.7,0-1.3,0.3-1.7,0.8c-0.4,0.5-0.6,1.2-0.6,2c0,0.8,0.2,1.5,0.6,2
	C1333.2,562.8,1333.7,563.1,1334.5,563.1z M1342.6,564.1c-0.6,0-1.1-0.1-1.6-0.4c-0.4-0.2-0.8-0.6-1-0.9c-0.2-0.4-0.3-0.8-0.3-1.2
	v-0.1h1.2v0.1c0,0.2,0.1,0.5,0.2,0.7c0.1,0.2,0.3,0.4,0.6,0.6c0.3,0.1,0.6,0.2,0.9,0.2c0.5,0,0.8-0.1,1.1-0.3
	c0.3-0.2,0.5-0.5,0.5-0.9c0-0.3-0.1-0.6-0.3-0.8c-0.2-0.2-0.5-0.3-0.9-0.4l-1-0.1c-0.6-0.1-1.1-0.3-1.5-0.6
	c-0.4-0.3-0.6-0.8-0.6-1.4c0-0.7,0.2-1.2,0.7-1.6c0.5-0.4,1.1-0.6,1.9-0.6c0.6,0,1.1,0.1,1.5,0.3c0.4,0.2,0.7,0.5,0.9,0.8
	c0.2,0.3,0.3,0.7,0.3,1.1v0.1h-1.2v0c0-0.2,0-0.4-0.1-0.6c-0.1-0.2-0.3-0.4-0.5-0.5c-0.2-0.1-0.5-0.2-0.9-0.2
	c-0.4,0-0.8,0.1-1.1,0.3c-0.3,0.2-0.4,0.5-0.4,0.9c0,0.3,0.1,0.5,0.3,0.7c0.2,0.2,0.5,0.3,0.8,0.4l1.1,0.2c0.6,0.1,1.1,0.3,1.6,0.6
	c0.4,0.3,0.6,0.8,0.6,1.4c0,0.4-0.1,0.8-0.4,1.2c-0.2,0.3-0.6,0.6-1,0.8C1343.5,564,1343.1,564.1,1342.6,564.1z"/>
<path class="st5" d="M1094.3,564.1c-1.2,0-2.2-0.4-2.9-1.1c-0.7-0.8-1-1.9-1-3.3v-5.5h1.2v5.4c0,0.8,0.2,1.6,0.5,2.3
	c0.4,0.7,1.1,1,2.2,1c1.1,0,1.8-0.3,2.1-1c0.4-0.7,0.5-1.5,0.5-2.3v-5.4h1.2v5.5c0,1.4-0.3,2.5-1,3.3
	C1096.4,563.7,1095.5,564.1,1094.3,564.1z M1104,564.1c-0.7,0-1.2-0.2-1.6-0.5s-0.7-0.7-1-1.1h-0.1v4.4h-1.2v-10.2h1.2v1.4h0.1
	c0.2-0.4,0.5-0.8,0.9-1.1c0.4-0.3,0.9-0.5,1.6-0.5c0.7,0,1.2,0.2,1.7,0.5c0.5,0.3,0.8,0.8,1.1,1.4c0.2,0.6,0.4,1.2,0.4,2
	c0,0.7-0.1,1.4-0.4,2c-0.2,0.6-0.6,1-1.1,1.4C1105.2,563.9,1104.6,564.1,1104,564.1z M1103.6,563.1c0.7,0,1.3-0.3,1.7-0.8
	c0.4-0.5,0.6-1.2,0.6-2c0-0.8-0.2-1.5-0.6-2c-0.4-0.5-0.9-0.8-1.7-0.8c-0.7,0-1.3,0.3-1.7,0.8c-0.4,0.5-0.6,1.2-0.6,2
	c0,0.8,0.2,1.5,0.6,2C1102.3,562.8,1102.9,563.1,1103.6,563.1z M1111.6,564.1c-0.6,0-1.2-0.2-1.7-0.5c-0.5-0.3-0.8-0.8-1.1-1.4
	c-0.2-0.6-0.4-1.2-0.4-2c0-0.7,0.1-1.4,0.4-2c0.2-0.6,0.6-1,1.1-1.4c0.5-0.3,1-0.5,1.7-0.5c0.7,0,1.2,0.2,1.6,0.5
	c0.4,0.3,0.7,0.7,0.9,1.1h0.1v-4.5h1.2V564h-1.2v-1.5h-0.1c-0.2,0.4-0.5,0.8-0.9,1.1C1112.7,563.9,1112.2,564.1,1111.6,564.1z
	 M1111.9,563.1c0.7,0,1.3-0.3,1.7-0.8c0.4-0.5,0.6-1.2,0.6-2c0-0.8-0.2-1.5-0.6-2c-0.4-0.5-0.9-0.8-1.7-0.8c-0.7,0-1.3,0.3-1.7,0.8
	c-0.4,0.5-0.6,1.2-0.6,2c0,0.8,0.2,1.5,0.6,2C1110.7,562.8,1111.2,563.1,1111.9,563.1z M1120.2,564.1c-0.6,0-1.2-0.2-1.7-0.5
	c-0.5-0.3-0.8-0.8-1.1-1.4c-0.2-0.6-0.4-1.2-0.4-2c0-0.7,0.1-1.4,0.4-2c0.2-0.6,0.6-1,1.1-1.4c0.5-0.3,1-0.5,1.7-0.5
	c0.7,0,1.2,0.2,1.6,0.5c0.4,0.3,0.7,0.7,0.9,1.1h0.1v-1.4h1.2v7.4h-1.2v-1.5h-0.1c-0.2,0.4-0.5,0.8-0.9,1.1
	C1121.4,563.9,1120.8,564.1,1120.2,564.1z M1120.6,563.1c0.7,0,1.3-0.3,1.7-0.8c0.4-0.5,0.6-1.2,0.6-2c0-0.8-0.2-1.5-0.6-2
	c-0.4-0.5-0.9-0.8-1.7-0.8c-0.7,0-1.3,0.3-1.7,0.8c-0.4,0.5-0.6,1.2-0.6,2c0,0.8,0.2,1.5,0.6,2
	C1119.3,562.8,1119.8,563.1,1120.6,563.1z M1128.2,557.6v4.3c0,0.3,0,0.6,0,0.8c0,0.2,0.1,0.3,0.3,0.4c0.2,0.1,0.4,0.1,0.7,0.1
	c0.2,0,0.5,0,0.7-0.1v0.9c-0.1,0-0.2,0.1-0.4,0.1c-0.2,0-0.4,0-0.7,0c-0.5,0-0.9-0.1-1.2-0.2c-0.3-0.2-0.4-0.4-0.5-0.6
	c-0.1-0.3-0.1-0.6-0.1-1.1v-4.5h-1.4v-1h1.4v-2.4h1.2v2.4h1.8v1H1128.2z M1134.8,564.1c-0.8,0-1.4-0.2-1.9-0.5
	c-0.5-0.4-0.9-0.8-1.2-1.4c-0.2-0.6-0.4-1.2-0.4-1.9c0-0.7,0.1-1.3,0.4-1.9c0.2-0.6,0.6-1.1,1.2-1.4c0.5-0.4,1.2-0.5,1.9-0.5
	c1,0,1.8,0.3,2.4,1c0.6,0.7,0.9,1.6,0.9,2.9v0.3h-5.5v0.1c0,0.4,0.1,0.8,0.3,1.2c0.2,0.4,0.4,0.7,0.8,0.9c0.3,0.2,0.7,0.3,1.2,0.3
	c0.5,0,0.9-0.1,1.2-0.4c0.3-0.2,0.6-0.6,0.8-1h1.2c-0.2,0.7-0.6,1.2-1.1,1.7C1136.4,563.9,1135.7,564.1,1134.8,564.1z M1136.9,559.8
	c0-0.8-0.2-1.4-0.6-1.8c-0.4-0.4-0.9-0.6-1.5-0.6c-0.7,0-1.2,0.2-1.6,0.7c-0.4,0.4-0.6,1-0.6,1.7H1136.9z M1146.3,564.1
	c-0.8,0-1.4-0.2-1.9-0.5c-0.5-0.3-0.9-0.7-1.2-1.2c-0.3-0.5-0.4-1-0.4-1.6v-0.1h1.3v0.1c0,0.3,0.1,0.7,0.2,1
	c0.2,0.3,0.4,0.6,0.7,0.8c0.3,0.2,0.8,0.3,1.3,0.3c0.6,0,1.1-0.2,1.5-0.5c0.4-0.3,0.6-0.7,0.6-1.3c0-0.4-0.2-0.8-0.4-1.1
	c-0.3-0.3-0.7-0.5-1.1-0.5l-1.4-0.3c-1.6-0.4-2.5-1.2-2.5-2.6c0-0.6,0.1-1,0.4-1.5c0.3-0.4,0.7-0.7,1.1-1c0.5-0.2,1.1-0.4,1.7-0.4
	c0.7,0,1.3,0.1,1.8,0.4s0.9,0.7,1.2,1.1c0.3,0.5,0.4,0.9,0.4,1.4v0.1h-1.3v0c0-0.3-0.1-0.6-0.2-0.9c-0.1-0.3-0.3-0.6-0.7-0.8
	c-0.3-0.2-0.7-0.3-1.2-0.3c-0.6,0-1.1,0.2-1.4,0.5c-0.4,0.3-0.5,0.7-0.5,1.2c0,0.4,0.1,0.7,0.4,1c0.3,0.3,0.6,0.4,1.1,0.5l1.3,0.3
	c1.8,0.4,2.7,1.2,2.7,2.6c0,0.6-0.1,1.1-0.4,1.5c-0.3,0.4-0.7,0.8-1.2,1C1147.6,564,1147,564.1,1146.3,564.1z M1153.5,557.6v4.3
	c0,0.3,0,0.6,0,0.8c0,0.2,0.1,0.3,0.3,0.4c0.2,0.1,0.4,0.1,0.7,0.1c0.2,0,0.5,0,0.7-0.1v0.9c-0.1,0-0.2,0.1-0.4,0.1
	c-0.2,0-0.4,0-0.7,0c-0.6,0-0.9-0.1-1.2-0.2c-0.3-0.2-0.4-0.4-0.5-0.6c-0.1-0.3-0.1-0.6-0.1-1.1v-4.5h-1.4v-1h1.4v-2.4h1.2v2.4h1.8
	v1H1153.5z M1159.7,564.1c-0.7,0-1.2-0.2-1.7-0.5s-0.8-0.8-1.1-1.4c-0.2-0.6-0.4-1.2-0.4-2c0-0.7,0.1-1.4,0.4-2
	c0.2-0.6,0.6-1,1.1-1.4c0.5-0.3,1-0.5,1.7-0.5c0.7,0,1.2,0.2,1.6,0.5c0.4,0.3,0.7,0.7,0.9,1.1h0.1v-1.4h1.2v7.4h-1.2v-1.5h-0.1
	c-0.2,0.4-0.5,0.8-0.9,1.1C1160.9,563.9,1160.3,564.1,1159.7,564.1z M1160.1,563.1c0.7,0,1.3-0.3,1.7-0.8c0.4-0.5,0.6-1.2,0.6-2
	c0-0.8-0.2-1.5-0.6-2c-0.4-0.5-0.9-0.8-1.7-0.8c-0.7,0-1.3,0.3-1.7,0.8c-0.4,0.5-0.6,1.2-0.6,2c0,0.8,0.2,1.5,0.6,2
	C1158.8,562.8,1159.3,563.1,1160.1,563.1z M1167.7,557.6v4.3c0,0.3,0,0.6,0,0.8c0,0.2,0.1,0.3,0.3,0.4c0.2,0.1,0.4,0.1,0.7,0.1
	c0.2,0,0.5,0,0.7-0.1v0.9c-0.1,0-0.2,0.1-0.4,0.1c-0.2,0-0.4,0-0.7,0c-0.5,0-0.9-0.1-1.2-0.2c-0.3-0.2-0.4-0.4-0.5-0.6
	c-0.1-0.3-0.1-0.6-0.1-1.1v-4.5h-1.4v-1h1.4v-2.4h1.2v2.4h1.8v1H1167.7z M1177.6,564h-1.2v-1.4h-0.1c-0.2,0.4-0.5,0.8-0.9,1.1
	c-0.4,0.3-0.9,0.4-1.5,0.4c-0.6,0-1.1-0.1-1.5-0.4c-0.4-0.3-0.7-0.7-0.9-1.2c-0.2-0.5-0.3-1-0.3-1.6v-4.3h1.2v4.2
	c0,0.7,0.2,1.3,0.5,1.7c0.4,0.4,0.8,0.6,1.4,0.6c0.6,0,1.1-0.2,1.5-0.6c0.4-0.4,0.6-1,0.6-1.6v-4.2h1.2V564z M1182.2,564.1
	c-0.6,0-1.1-0.1-1.6-0.4c-0.4-0.2-0.8-0.6-1-0.9c-0.2-0.4-0.3-0.8-0.3-1.2v-0.1h1.2v0.1c0,0.2,0.1,0.5,0.2,0.7
	c0.1,0.2,0.3,0.4,0.6,0.6c0.3,0.1,0.6,0.2,1,0.2c0.4,0,0.8-0.1,1.1-0.3c0.3-0.2,0.4-0.5,0.4-0.9c0-0.3-0.1-0.6-0.3-0.8
	c-0.2-0.2-0.5-0.3-0.8-0.4l-1-0.1c-0.6-0.1-1.1-0.3-1.5-0.6c-0.4-0.3-0.6-0.8-0.6-1.4c0-0.7,0.2-1.2,0.7-1.6
	c0.5-0.4,1.1-0.6,1.9-0.6c0.6,0,1,0.1,1.4,0.3c0.4,0.2,0.7,0.5,0.9,0.8c0.2,0.3,0.3,0.7,0.3,1.1v0.1h-1.2v0c0-0.2,0-0.4-0.2-0.6
	c-0.1-0.2-0.2-0.4-0.5-0.5c-0.2-0.1-0.5-0.2-0.9-0.2c-0.5,0-0.8,0.1-1.1,0.3c-0.3,0.2-0.4,0.5-0.4,0.9c0,0.3,0.1,0.5,0.3,0.7
	c0.2,0.2,0.5,0.3,0.8,0.4l1,0.2c0.6,0.1,1.1,0.3,1.6,0.6c0.4,0.3,0.6,0.8,0.6,1.4c0,0.4-0.1,0.8-0.4,1.2s-0.6,0.6-1,0.8
	C1183.2,564,1182.7,564.1,1182.2,564.1z"/>
<g>
	<path class="st0" d="M1136,534c30.9,0,56-25.1,56-56s-25.1-56-56-56s-56,25.1-56,56S1105.1,534,1136,534z"/>
	<path class="st10" d="M1151.7,465.3c2.5,3.4,4.1,7.7,4.1,12.3c0,11.4-9.2,20.6-20.6,20.6s-20.6-9.2-20.6-20.6
		c0-11.4,9.2-20.6,20.6-20.6"/>
	<path class="st2" d="M1135.1,492c7.9,0,14.3-6.4,14.3-14.3s-6.4-14.3-14.3-14.3c-7.9,0-14.3,6.4-14.3,14.3S1127.2,492,1135.1,492z"
		/>
	<path class="st10" d="M1150.3,469.7l1.1-4.9l4.8,1.1"/>
	<path class="st0" d="M1132.2,480.6c0,0.1,0,0.1-0.2,0.1l-1.4-0.4l-0.4,1.5l2.6,0.6l-0.5,2.1l1.4,0.4l0.5-2.1l0.9,0.2l-0.5,2.1
		l1.3,0.3l0.5-2.1l1,0.2c0.7,0.2,3.2,0.2,3.7-2c0.4-1.2-0.2-2.5-1.3-3.1c-1.1-0.6,1.5-0.5,1.8-1.9c0.2-1.4-0.8-2.1-1.3-2.4
		c-0.4-0.3-0.9-0.5-1.4-0.6l0.5-2.2l-1.3-0.3l-0.5,2.2l-1-0.2l0.6-2.2l-1.3-0.3l-0.6,2.2l-2.7-0.7l-0.3,1.3l1.5,0.4
		c0.1,0,0.1,0.1,0.1,0.2L1132.2,480.6z M1136.3,474.3l1.6,0.4c0.3,0.1,1.5,0.6,1.2,1.7c-0.1,0.6-0.7,1.1-1.4,1c-0.1,0-0.3,0-0.4,0
		l-1.7-0.4L1136.3,474.3z M1135.3,478.4l2.4,0.6c0.4,0.1,0.7,0.3,0.8,0.7c0.2,0.3,0.2,0.7,0.1,1.1c-0.2,0.9-1.1,1.1-1.5,1.1
		c-0.1,0-0.1,0-0.2,0l-2.4-0.6L1135.3,478.4z"/>
</g>
<g>
	<path class="st0" d="M700,132c30.9,0,56-25.1,56-56c0-30.9-25.1-56-56-56s-56,25.1-56,56C644,106.9,669.1,132,700,132z"/>
	<path class="st10" d="M715.8,69.3h-31.5c-1.4,0-2.5-1.1-2.5-2.5v-5.4c0-1.4,1.1-2.5,2.5-2.5h31.5c1.4,0,2.5,1.1,2.5,2.5v5.4
		C718.3,68.2,717.2,69.3,715.8,69.3z"/>
	<path class="st10" d="M715.8,79.8h-31.5c-1.4,0-2.5-1.1-2.5-2.5v-5.4c0-1.4,1.1-2.5,2.5-2.5h31.5c1.4,0,2.5,1.1,2.5,2.5v5.4
		C718.3,78.7,717.2,79.8,715.8,79.8z"/>
	<path class="st10" d="M715.8,90.2h-31.5c-1.4,0-2.5-1.1-2.5-2.5v-5.4c0-1.4,1.1-2.5,2.5-2.5h31.5c1.4,0,2.5,1.1,2.5,2.5v5.4
		C718.3,89.1,717.2,90.2,715.8,90.2z"/>
	<path class="st10" d="M688.2,90.2v3.9"/>
	<path class="st10" d="M711.8,90.2v3.9"/>
	<path class="st2" d="M687.6,65.4c0.7,0,1.3-0.6,1.3-1.3c0-0.7-0.6-1.3-1.3-1.3c-0.7,0-1.3,0.6-1.3,1.3
		C686.3,64.8,686.9,65.4,687.6,65.4z"/>
	<path class="st2" d="M687.6,75.9c0.7,0,1.3-0.6,1.3-1.3c0-0.7-0.6-1.3-1.3-1.3c-0.7,0-1.3,0.6-1.3,1.3
		C686.3,75.3,686.9,75.9,687.6,75.9z"/>
	<path class="st2" d="M687.6,86.3c0.7,0,1.3-0.6,1.3-1.3s-0.6-1.3-1.3-1.3c-0.7,0-1.3,0.6-1.3,1.3S686.9,86.3,687.6,86.3z"/>
	<path class="st4" d="M681.7,94.2h36.6"/>
</g>
<g>
	<path class="st0" d="M540,132c30.9,0,56-25.1,56-56c0-30.9-25.1-56-56-56s-56,25.1-56,56C484,106.9,509.1,132,540,132z"/>
	<path class="st10" d="M555.8,69.3h-31.5c-1.4,0-2.5-1.1-2.5-2.5v-5.4c0-1.4,1.1-2.5,2.5-2.5h31.5c1.4,0,2.5,1.1,2.5,2.5v5.4
		C558.3,68.2,557.2,69.3,555.8,69.3z"/>
	<path class="st10" d="M555.8,79.8h-31.5c-1.4,0-2.5-1.1-2.5-2.5v-5.4c0-1.4,1.1-2.5,2.5-2.5h31.5c1.4,0,2.5,1.1,2.5,2.5v5.4
		C558.3,78.7,557.2,79.8,555.8,79.8z"/>
	<path class="st10" d="M555.8,90.2h-31.5c-1.4,0-2.5-1.1-2.5-2.5v-5.4c0-1.4,1.1-2.5,2.5-2.5h31.5c1.4,0,2.5,1.1,2.5,2.5v5.4
		C558.3,89.1,557.2,90.2,555.8,90.2z"/>
	<path class="st10" d="M528.2,90.2v3.9"/>
	<path class="st10" d="M551.8,90.2v3.9"/>
	<path class="st2" d="M527.6,65.4c0.7,0,1.3-0.6,1.3-1.3c0-0.7-0.6-1.3-1.3-1.3c-0.7,0-1.3,0.6-1.3,1.3
		C526.3,64.8,526.9,65.4,527.6,65.4z"/>
	<path class="st2" d="M527.6,75.9c0.7,0,1.3-0.6,1.3-1.3c0-0.7-0.6-1.3-1.3-1.3c-0.7,0-1.3,0.6-1.3,1.3
		C526.3,75.3,526.9,75.9,527.6,75.9z"/>
	<path class="st2" d="M527.6,86.3c0.7,0,1.3-0.6,1.3-1.3s-0.6-1.3-1.3-1.3c-0.7,0-1.3,0.6-1.3,1.3S526.9,86.3,527.6,86.3z"/>
	<path class="st4" d="M521.7,94.2h36.6"/>
</g>
<g>
	<path class="st0" d="M860,132c30.9,0,56-25.1,56-56c0-30.9-25.1-56-56-56s-56,25.1-56,56C804,106.9,829.1,132,860,132z"/>
	<path class="st10" d="M875.8,69.3h-31.5c-1.4,0-2.5-1.1-2.5-2.5v-5.4c0-1.4,1.1-2.5,2.5-2.5h31.5c1.4,0,2.5,1.1,2.5,2.5v5.4
		C878.3,68.2,877.2,69.3,875.8,69.3z"/>
	<path class="st10" d="M875.8,79.8h-31.5c-1.4,0-2.5-1.1-2.5-2.5v-5.4c0-1.4,1.1-2.5,2.5-2.5h31.5c1.4,0,2.5,1.1,2.5,2.5v5.4
		C878.3,78.7,877.2,79.8,875.8,79.8z"/>
	<path class="st10" d="M875.8,90.2h-31.5c-1.4,0-2.5-1.1-2.5-2.5v-5.4c0-1.4,1.1-2.5,2.5-2.5h31.5c1.4,0,2.5,1.1,2.5,2.5v5.4
		C878.3,89.1,877.2,90.2,875.8,90.2z"/>
	<path class="st10" d="M848.2,90.2v3.9"/>
	<path class="st10" d="M871.8,90.2v3.9"/>
	<path class="st2" d="M847.6,65.4c0.7,0,1.3-0.6,1.3-1.3c0-0.7-0.6-1.3-1.3-1.3c-0.7,0-1.3,0.6-1.3,1.3
		C846.3,64.8,846.9,65.4,847.6,65.4z"/>
	<path class="st2" d="M847.6,75.9c0.7,0,1.3-0.6,1.3-1.3c0-0.7-0.6-1.3-1.3-1.3c-0.7,0-1.3,0.6-1.3,1.3
		C846.3,75.3,846.9,75.9,847.6,75.9z"/>
	<path class="st2" d="M847.6,86.3c0.7,0,1.3-0.6,1.3-1.3s-0.6-1.3-1.3-1.3c-0.7,0-1.3,0.6-1.3,1.3S846.9,86.3,847.6,86.3z"/>
	<path class="st4" d="M841.7,94.2h36.6"/>
</g>
<path class="st0" d="M1304,129c30.9,0,56-25.1,56-56c0-30.9-25.1-56-56-56s-56,25.1-56,56C1248,103.9,1273.1,129,1304,129z"/>
<path class="st1" d="M1301.9,71.3c5,0,9.1-4.1,9.1-9.1s-4.1-9.1-9.1-9.1s-9.1,4.1-9.1,9.1S1296.8,71.3,1301.9,71.3z"/>
<path class="st1" d="M1289,91.4c-3.1,0-5.3-3-4.3-6c2.5-7.1,9.2-12.2,17.2-12.2s14.7,5.1,17.2,12.2c1,2.9-1.2,6-4.3,6H1289z"/>
<path class="st2" d="M1301.5,89.3l-1.8-1.8c-0.2-0.2-0.3-0.4-0.2-0.7l1.2-6.9c0-0.2,0.2-0.3,0.4-0.3h1.8c0.2,0,0.3,0.1,0.4,0.3
	l1.2,6.9c0,0.2,0,0.5-0.2,0.7l-1.8,1.8C1302.1,89.5,1301.7,89.5,1301.5,89.3z"/>
<path class="st2" d="M1302.9,76h-2.1c-0.3,0-0.5,0.3-0.5,0.6l0.2,1.5c0,0.2,0.2,0.4,0.5,0.4h1.6c0.2,0,0.4-0.2,0.5-0.4l0.2-1.5
	C1303.4,76.3,1303.2,76,1302.9,76z"/>
<path class="st3" d="M1322.1,92.9h-11.8c-0.8,0-1.4-0.6-1.4-1.4V77.6c0-0.8,0.6-1.4,1.4-1.4h9l4.2,4.2v11.1
	C1323.5,92.2,1322.9,92.9,1322.1,92.9z"/>
<path class="st2" d="M1318.6,76.2v3.4c0,0.8,0.6,1.4,1.4,1.4h3.5L1318.6,76.2z"/>
<path class="st4" d="M1312.4,84.5h5.6"/>
<path class="st4" d="M1312.4,88.7h7.7"/>
<path class="st5" d="M1287.1,149.2h3.9c0.6,0,1.2,0.1,1.6,0.4c0.4,0.3,0.7,0.6,0.9,1c0.2,0.4,0.3,0.8,0.3,1.2c0,0.4-0.1,0.8-0.3,1.1
	c-0.2,0.3-0.4,0.5-0.6,0.7c-0.3,0.2-0.5,0.3-0.7,0.3v0.1c0.2,0,0.5,0.1,0.8,0.3c0.3,0.1,0.6,0.4,0.9,0.7c0.2,0.3,0.4,0.8,0.4,1.3
	c0,0.5-0.1,0.9-0.3,1.3c-0.2,0.4-0.5,0.8-1,1c-0.4,0.3-1,0.4-1.7,0.4h-4.1V149.2z M1290.7,153.5c0.5,0,1-0.1,1.4-0.4
	c0.4-0.3,0.6-0.7,0.6-1.3c0-0.6-0.2-1-0.6-1.2c-0.4-0.3-0.8-0.4-1.4-0.4h-2.4v3.3H1290.7z M1291,158c0.6,0,1.1-0.1,1.5-0.4
	s0.6-0.7,0.6-1.4c0-0.6-0.2-1.1-0.6-1.3c-0.4-0.3-0.9-0.4-1.5-0.4h-2.7v3.5H1291z M1295.8,151.6h1.2v1.2h0.1
	c0.1-0.3,0.3-0.6,0.6-0.8c0.3-0.2,0.7-0.4,1.2-0.4c0.2,0,0.3,0,0.4,0c0.1,0,0.2,0,0.3,0.1l0,1.2c-0.2,0-0.3-0.1-0.4-0.1
	s-0.2,0-0.4,0c-1.2,0-1.7,0.7-1.7,2.1v4.2h-1.2V151.6z M1303.8,159.1c-0.8,0-1.4-0.2-1.9-0.5c-0.5-0.4-0.9-0.8-1.2-1.4
	c-0.3-0.6-0.4-1.2-0.4-1.9c0-0.7,0.1-1.3,0.4-1.9c0.3-0.6,0.7-1.1,1.2-1.4c0.5-0.4,1.2-0.5,1.9-0.5c0.7,0,1.4,0.2,1.9,0.5
	c0.5,0.4,0.9,0.8,1.2,1.4c0.3,0.6,0.4,1.2,0.4,1.9c0,0.7-0.1,1.3-0.4,1.9s-0.7,1.1-1.2,1.4C1305.2,158.9,1304.6,159.1,1303.8,159.1z
	 M1303.8,158.1c0.5,0,0.8-0.1,1.2-0.4c0.3-0.3,0.6-0.6,0.8-1c0.2-0.4,0.3-0.9,0.3-1.4c0-0.8-0.2-1.5-0.6-2c-0.4-0.5-0.9-0.8-1.6-0.8
	c-0.5,0-0.9,0.1-1.2,0.4s-0.6,0.6-0.8,1c-0.2,0.4-0.3,0.9-0.3,1.4c0,0.8,0.2,1.5,0.6,2C1302.6,157.8,1303.1,158.1,1303.8,158.1z
	 M1309.1,148.5h1.2v5.9h0.1l2.8-2.8h1.4l-3.3,3.3l3.4,4.1h-1.4l-2.9-3.6h-0.1v3.6h-1.2V148.5z M1319,159.1c-0.8,0-1.4-0.2-1.9-0.5
	c-0.5-0.4-0.9-0.8-1.1-1.4c-0.3-0.6-0.4-1.2-0.4-1.9c0-0.7,0.1-1.3,0.4-1.9c0.2-0.6,0.6-1.1,1.2-1.4c0.5-0.4,1.2-0.5,1.9-0.5
	c1,0,1.8,0.3,2.4,1c0.6,0.7,0.9,1.6,0.9,2.9v0.3h-5.5v0.1c0,0.4,0.1,0.8,0.3,1.2c0.2,0.4,0.4,0.7,0.8,0.9c0.3,0.2,0.7,0.3,1.2,0.3
	c0.5,0,0.9-0.1,1.2-0.4c0.3-0.2,0.6-0.6,0.8-1h1.2c-0.2,0.7-0.6,1.2-1.1,1.7C1320.5,158.9,1319.8,159.1,1319,159.1z M1321.1,154.8
	c0-0.8-0.2-1.4-0.6-1.8c-0.4-0.4-0.9-0.6-1.5-0.6c-0.7,0-1.2,0.2-1.6,0.7c-0.4,0.4-0.6,1-0.6,1.7H1321.1z M1324,151.6h1.2v1.2h0.1
	c0.1-0.3,0.3-0.6,0.6-0.8c0.3-0.2,0.7-0.4,1.2-0.4c0.2,0,0.3,0,0.3,0c0.1,0,0.2,0,0.3,0.1l0,1.2c-0.1,0-0.3-0.1-0.4-0.1
	c-0.1,0-0.2,0-0.4,0c-1.2,0-1.7,0.7-1.7,2.1v4.2h-1.2V151.6z"/>
<circle class="st0" cx="700" cy="266.6" r="57.5"/>
<g>
	<g>
		<g>
			<g>
				<path class="st12" d="M699.8,293.1c-6.1,0-10.9-4.8-10.9-10.9v-22.2c0-2.6,2.2-4.8,4.8-4.8c2.6,0,4.8,2.2,4.8,4.8v22.2
					c0,0.9,0.9,1.7,1.7,1.7s1.7-0.9,1.7-1.7v-22.2c0-5.7-4.8-10.4-10.4-10.4s-10.4,4.8-10.4,10.4v28.7c0,2.6-2.2,4.8-4.8,4.8
					c-2.6,0-4.8-2.2-4.8-4.8v-28.7c0-10.9,8.7-19.6,19.6-19.6c10.9,0,19.6,8.7,19.6,19.6v22.2C710.6,288.3,705.8,293.1,699.8,293.1z
					"/>
			</g>
		</g>
		<g>
			<g>
				<path class="st12" d="M724.1,293.1c-2.6,0-4.8-2.2-4.8-4.8V254c0-2.6-2.2-4.8-4.8-4.8s-4.8-2.2-4.8-4.8s2.2-4.8,4.8-4.8
					c7.8,0,13.9,6.1,13.9,13.9v34.3C728.9,291.4,726.7,293.1,724.1,293.1z"/>
			</g>
		</g>
	</g>
</g>
<g>
	<path d="M663.3,353.1c-0.2,0-0.4-0.1-0.6-0.2c-0.2-0.2-0.2-0.4-0.2-0.6v-4.3l-2.1,2.7c-0.2,0.2-0.4,0.3-0.7,0.3
		c-0.3,0-0.5-0.1-0.7-0.3l-2.1-2.7v4.3c0,0.2-0.1,0.4-0.2,0.6c-0.2,0.2-0.4,0.2-0.6,0.2c-0.2,0-0.4-0.1-0.6-0.2
		c-0.2-0.2-0.2-0.4-0.2-0.6v-6.7c0-0.4,0.2-0.7,0.6-0.8c0.4-0.1,0.7,0,0.9,0.3l2.9,3.7l2.9-3.7c0.2-0.3,0.6-0.4,0.9-0.3
		s0.6,0.4,0.6,0.8v6.7c0,0.2-0.1,0.4-0.2,0.6C663.7,353,663.5,353.1,663.3,353.1z"/>
	<path d="M673.5,351.8c0.1,0.2,0.1,0.4,0,0.6c-0.1,0.2-0.2,0.4-0.4,0.5c-0.1,0.1-0.2,0.1-0.4,0.1c-0.4,0-0.6-0.2-0.8-0.5l-0.6-1.2
		h-4l-0.6,1.2c-0.1,0.2-0.3,0.3-0.5,0.4c-0.2,0.1-0.4,0.1-0.6,0c-0.2-0.1-0.3-0.3-0.4-0.5c-0.1-0.2-0.1-0.4,0-0.6l3.4-6.7
		c0.1-0.3,0.4-0.4,0.8-0.4c0.4,0,0.6,0.1,0.7,0.4L673.5,351.8z M670.5,349.7l-1.2-2.3l-1.2,2.3H670.5z"/>
	<path d="M674.6,345.5c0-0.2,0.1-0.4,0.2-0.6c0.2-0.2,0.4-0.2,0.6-0.2h3.6c0.8,0,1.5,0.3,2.1,0.9c0.6,0.6,0.9,1.3,0.9,2.1
		c0,0.5-0.1,1-0.4,1.5c-0.3,0.4-0.6,0.8-1.1,1.1l1.3,1.4c0.2,0.2,0.2,0.4,0.2,0.6c0,0.2-0.1,0.4-0.3,0.6c-0.2,0.1-0.3,0.2-0.6,0.2
		c-0.2,0-0.5-0.1-0.6-0.3l-1.9-2.1h-2.4v1.6c0,0.2-0.1,0.4-0.2,0.6c-0.2,0.2-0.4,0.3-0.6,0.3c-0.2,0-0.4-0.1-0.6-0.3
		c-0.2-0.2-0.2-0.4-0.2-0.6V345.5z M676.3,349h2.8c0.4,0,0.7-0.1,0.9-0.4c0.3-0.3,0.4-0.6,0.4-0.9c0-0.4-0.1-0.7-0.4-0.9
		c-0.3-0.3-0.6-0.4-0.9-0.4h-2.8V349z"/>
	<path d="M683.3,346.4c-0.2,0-0.4-0.1-0.6-0.2c-0.2-0.2-0.2-0.4-0.2-0.6c0-0.2,0.1-0.4,0.2-0.6c0.2-0.2,0.4-0.2,0.6-0.2h5.8
		c0.2,0,0.4,0.1,0.6,0.2c0.2,0.2,0.2,0.4,0.2,0.6c0,0.2-0.1,0.4-0.2,0.6c-0.2,0.2-0.4,0.2-0.6,0.2h-2v5.9c0,0.2-0.1,0.4-0.2,0.6
		c-0.2,0.2-0.4,0.3-0.6,0.3s-0.4-0.1-0.6-0.3c-0.2-0.2-0.3-0.4-0.3-0.6v-5.9H683.3z"/>
	<path d="M691.7,353.1c-0.2,0-0.4-0.1-0.6-0.2c-0.2-0.2-0.2-0.4-0.2-0.6v-6.7c0-0.2,0.1-0.4,0.2-0.6c0.2-0.2,0.4-0.2,0.6-0.2h5.8
		c0.2,0,0.4,0.1,0.6,0.2c0.2,0.2,0.2,0.4,0.2,0.6c0,0.2-0.1,0.4-0.2,0.6c-0.2,0.2-0.4,0.2-0.6,0.2h-4.9v1.7h4.4
		c0.2,0,0.4,0.1,0.6,0.2c0.2,0.2,0.3,0.4,0.3,0.6c0,0.2-0.1,0.4-0.3,0.6c-0.2,0.2-0.4,0.2-0.6,0.2h-4.4v1.7h4.9
		c0.2,0,0.4,0.1,0.6,0.2c0.2,0.2,0.2,0.4,0.2,0.6s-0.1,0.4-0.2,0.6c-0.2,0.2-0.4,0.2-0.6,0.2H691.7z"/>
	<path d="M706.1,344.9c0.2,0.2,0.3,0.3,0.3,0.6c0,0.2-0.1,0.4-0.2,0.6l-2.4,2.8l2.4,2.8c0.2,0.2,0.2,0.4,0.2,0.6
		c0,0.2-0.1,0.4-0.3,0.6c-0.2,0.1-0.3,0.2-0.6,0.2c-0.3,0-0.5-0.1-0.6-0.3l-2.2-2.6l-2.2,2.6c-0.2,0.2-0.4,0.3-0.6,0.3
		c-0.2,0-0.4-0.1-0.6-0.2c-0.2-0.2-0.3-0.3-0.3-0.6c0-0.2,0.1-0.4,0.2-0.6l2.4-2.8l-2.4-2.8c-0.2-0.2-0.2-0.4-0.2-0.6
		c0-0.2,0.1-0.4,0.3-0.6c0.2-0.2,0.4-0.2,0.6-0.2c0.2,0,0.4,0.1,0.6,0.3l2.2,2.6l2.2-2.6c0.2-0.2,0.3-0.3,0.6-0.3
		C705.7,344.7,705.9,344.7,706.1,344.9z"/>
	<path d="M711.2,348.9c0-1.2,0.4-2.1,1.2-3c0.8-0.8,1.8-1.2,3-1.2c1.4,0,2.5,0.5,3.3,1.6c0.1,0.2,0.2,0.4,0.2,0.6
		c0,0.2-0.1,0.4-0.3,0.6c-0.2,0.1-0.4,0.2-0.6,0.2c-0.2,0-0.4-0.1-0.6-0.3c-0.5-0.6-1.2-1-2-1c-0.7,0-1.3,0.2-1.8,0.7
		c-0.5,0.5-0.7,1.1-0.7,1.8s0.2,1.3,0.7,1.8c0.5,0.5,1.1,0.7,1.8,0.7c0.8,0,1.5-0.3,2-1c0.1-0.2,0.3-0.3,0.6-0.3
		c0.2,0,0.4,0,0.6,0.2c0.2,0.1,0.3,0.3,0.3,0.6c0,0.2,0,0.4-0.2,0.6c-0.8,1.1-1.9,1.6-3.3,1.6c-1.2,0-2.1-0.4-3-1.2
		C711.6,351,711.2,350,711.2,348.9z"/>
	<path d="M723.7,353.1c-1.2,0-2.1-0.4-3-1.2c-0.8-0.8-1.2-1.8-1.2-3s0.4-2.1,1.2-3c0.8-0.8,1.8-1.2,3-1.2c1.2,0,2.1,0.4,3,1.2
		c0.8,0.8,1.2,1.8,1.2,3s-0.4,2.1-1.2,3C725.9,352.7,724.9,353.1,723.7,353.1z M723.7,346.4c-0.7,0-1.3,0.2-1.8,0.7
		c-0.5,0.5-0.7,1.1-0.7,1.8s0.2,1.3,0.7,1.8c0.5,0.5,1.1,0.7,1.8,0.7c0.7,0,1.3-0.2,1.8-0.7c0.5-0.5,0.7-1.1,0.7-1.8
		s-0.2-1.3-0.7-1.8C725,346.6,724.4,346.4,723.7,346.4z"/>
	<path d="M729.1,345.5c0-0.2,0.1-0.4,0.2-0.6c0.2-0.2,0.4-0.2,0.6-0.2h3.6c0.8,0,1.5,0.3,2.1,0.9c0.6,0.6,0.9,1.3,0.9,2.1
		c0,0.5-0.1,1-0.4,1.5c-0.3,0.4-0.6,0.8-1.1,1.1l1.3,1.4c0.2,0.2,0.2,0.4,0.2,0.6c0,0.2-0.1,0.4-0.3,0.6c-0.2,0.1-0.3,0.2-0.6,0.2
		c-0.2,0-0.5-0.1-0.6-0.3l-1.9-2.1h-2.4v1.6c0,0.2-0.1,0.4-0.2,0.6c-0.2,0.2-0.4,0.3-0.6,0.3c-0.2,0-0.4-0.1-0.6-0.3
		c-0.2-0.2-0.2-0.4-0.2-0.6V345.5z M730.8,349h2.8c0.4,0,0.7-0.1,0.9-0.4c0.3-0.3,0.4-0.6,0.4-0.9c0-0.4-0.1-0.7-0.4-0.9
		c-0.3-0.3-0.6-0.4-0.9-0.4h-2.8V349z"/>
	<path d="M738.6,353.1c-0.2,0-0.4-0.1-0.6-0.2c-0.2-0.2-0.2-0.4-0.2-0.6v-6.7c0-0.2,0.1-0.4,0.2-0.6c0.2-0.2,0.4-0.2,0.6-0.2h5.8
		c0.2,0,0.4,0.1,0.6,0.2c0.2,0.2,0.2,0.4,0.2,0.6c0,0.2-0.1,0.4-0.2,0.6c-0.2,0.2-0.4,0.2-0.6,0.2h-4.9v1.7h4.4
		c0.2,0,0.4,0.1,0.6,0.2c0.2,0.2,0.3,0.4,0.3,0.6c0,0.2-0.1,0.4-0.3,0.6c-0.2,0.2-0.4,0.2-0.6,0.2h-4.4v1.7h4.9
		c0.2,0,0.4,0.1,0.6,0.2c0.2,0.2,0.2,0.4,0.2,0.6s-0.1,0.4-0.2,0.6c-0.2,0.2-0.4,0.2-0.6,0.2H738.6z"/>
</g>
</svg>
