<?xml version="1.0" encoding="utf-8"?>
<!-- Generator: Adobe Illustrator 24.1.3, SVG Export Plug-In . SVG Version: 6.00 Build 0)  -->
<svg version="1.1" id="图层_1" xmlns="http://www.w3.org/2000/svg" xmlns:xlink="http://www.w3.org/1999/xlink" x="0px" y="0px"
	 viewBox="0 0 672 626" style="enable-background:new 0 0 672 626;" xml:space="preserve">
<style type="text/css">
	.st0{fill:#FFFFFF;stroke:#E0E0E0;stroke-linejoin:round;stroke-miterlimit:10;}
	.st1{fill:#E6E6E6;}
	.st2{fill:none;stroke:#E0E0E0;stroke-linecap:round;stroke-linejoin:round;stroke-dasharray:12.09,12.09;}
	.st3{fill:none;stroke:#E0E0E0;stroke-linecap:round;stroke-linejoin:round;}
	.st4{fill:#FFFFFF;}
	.st5{fill:none;stroke:#E0E0E0;stroke-linecap:round;stroke-linejoin:round;stroke-miterlimit:10;stroke-dasharray:12,12;}
	.st6{fill:none;stroke:#E6E6E6;stroke-linecap:round;stroke-linejoin:round;stroke-miterlimit:10;}
	.st7{fill:#515667;}
	.st8{fill:#FFFFFF;stroke:#21202F;stroke-linejoin:round;stroke-miterlimit:10;}
	.st9{fill:#FF4480;}
	.st10{fill:none;stroke:#FFFFFF;stroke-width:2;stroke-linecap:round;stroke-linejoin:round;stroke-miterlimit:10;}
	.st11{opacity:0.36;fill:#FFFFFF;enable-background:new    ;}
	.st12{fill:#FFFFFF;stroke:#E6E6E6;stroke-linejoin:round;stroke-miterlimit:10;}
	.st13{fill:none;stroke:#E0E0E0;stroke-width:2;stroke-linecap:round;stroke-linejoin:round;stroke-miterlimit:10;}
	.st14{fill:none;stroke:#FFFFFF;stroke-linecap:round;stroke-linejoin:round;stroke-miterlimit:10;}
	.st15{fill:#E0E0E0;stroke:#E0E0E0;}
	.st16{fill:#E0E0E0;}
	.st17{fill:none;stroke:#E6E6E6;stroke-width:2;stroke-linecap:round;stroke-linejoin:round;stroke-miterlimit:10;}
	.st18{fill:#FFB8B8;stroke:#FAA5A5;stroke-linejoin:round;stroke-miterlimit:10;}
	.st19{fill:#E6E6E6;stroke:#E0E0E0;}
	.st20{fill:#2F2E41;}
	.st21{fill:#D44E72;}
	.st22{fill:#FFFFFF;stroke:#E0E0E0;stroke-linejoin:round;}
	.st23{fill:#FFFFFF;filter:url(#Adobe_OpacityMaskFilter);}
	.st24{mask:url(#path-98-inside-1_33_3726_1_);fill:#E0E0E0;}
	.st25{fill:none;stroke:#FAA5A5;stroke-linecap:round;stroke-linejoin:round;stroke-miterlimit:10;}
	.st26{fill:#A0616A;}
	.st27{fill:#864B53;}
	.st28{fill:#FFFFFF;stroke:#E6E6E6;}
	.st29{fill-rule:evenodd;clip-rule:evenodd;fill:#FFFFFF;}
	.st30{fill-rule:evenodd;clip-rule:evenodd;fill:#FFFFFF;filter:url(#Adobe_OpacityMaskFilter_1_);}
	.st31{mask:url(#path-138-inside-2_33_3726_1_);fill:#E0E0E0;}
	.st32{fill:none;stroke:#FF4480;stroke-width:2;stroke-linecap:round;stroke-linejoin:round;stroke-miterlimit:10;}
	.st33{fill:#FF4480;}
</style>
<path class="st0" d="M226.7,99.9L35.5,164.2v440l191.2-64.3V99.9z"/>
<path class="st1" d="M55.6,240.1c0,1.3,0,2.6,0,3.9c0.9,22.1,14.4,43.2,34.1,53.4c9.2,4.8,19.8,7.3,27.9,13.8
	c8.2,6.5,13.2,16.3,21.1,23.3c8.1,7.2,19,11.1,29.8,10.6c7.7-0.4,15.8-3.3,20-9.8c3.9-6,3.7-13.8,4.8-20.9
	c2-13.2,8.8-25.1,12.5-37.9c9-30.5,0.4-63.3-9.4-93.6c-6.6-20.7-21.3-34.1-43.8-24.7c-8,3.3-15.1,8.4-22.8,12.1
	c-14.3,7-30.6,9.6-44.3,17.9C67.7,199,56.1,219.4,55.6,240.1z"/>
<path class="st1" d="M99.5,445.1c-1.7,4.4-3.5,8.7-5.4,13c-4.7,10.1-10.6,20.1-11.6,31.2c-0.7,8,1.3,16.1-0.4,23.9
	c-1.1,4.9-3.6,9.3-5.2,14.1c-1.6,4.7-2.3,10.2,0.2,14.6c2.1,3.8,6.3,6.1,10.6,6.8c4.3,0.7,8.7-0.1,12.9-1.3
	c17.6-5.1,32.4-17.7,42.6-32.9c10.2-15.2,16.1-32.9,19.9-50.8c3.3-15.4,5.1-31.3,2.5-46.9c-1-6.1-2.8-12.3-6.7-17.2
	c-15.7-19.6-39.8,5.2-47.9,19.5C106.4,427.4,103,436.3,99.5,445.1z"/>
<path class="st0" d="M226.7,99.9l191.2,64.3v440l-191.2-64.3V99.9z"/>
<path class="st0" d="M609,99.9l-191.2,64.3v440L609,539.9V99.9z"/>
<path class="st1" d="M529.4,164c-4.8,1.6-9.8,3-15.1,3.8c-10.8,1.7-21.7,1.6-32.4,3.4s-21.6,6.1-28.4,14.5
	c-9.2,11.3-8.9,28.6-1.3,41c5.2,8.4,13.2,14.8,22.1,19.2c21.2,10.5,47.2,9.7,68.5-0.6c21.3-10.3,37.7-29.6,46.2-51.6
	c3.7-9.7,6-20.8,2-30.5c-4.9-11.9-18.1-15.3-29.4-11.5C550.4,155.3,540.3,160.4,529.4,164z"/>
<path class="st1" d="M509.5,306.8c-9.5,3-17.8,8.6-23.1,17.4c-6.1,10.1-8.4,22-10,33.7c-3.5,24.4-5.2,49.4-13.4,72.7
	c-7.9,22.5-21.7,42.9-26.6,66.3c-1.9,9-2.4,18.4,0.1,27.2c2.5,8.8,8.5,16.9,16.8,20.7c13.9,6.2,30-0.7,43.4-8
	c33.7-18.3,67.3-41.1,84.3-75.5c15-30.3,15.2-66.2,7.3-99.1c-4.3-17.7-11.4-35.8-26-46.8C548.4,305,526.9,301.3,509.5,306.8z"/>
<path class="st1" d="M377,202c4.9,0.5,9.5,2,13.5,5.2c7.1,5.5,9.3,15.1,10.9,23.9c13.9,76,13.4,156.7-16.7,227.9
	c-3.7,8.6-8.9,18.1-18.1,20.1c-5.1,1.1-10.4-0.4-15.6-1.1c-5.2-0.7-11.2-0.1-14.5,3.9c-3.6,4.4-2.4,11.3,1,15.8
	c3.5,4.5,8.6,7.4,13.4,10.4c8.5,5.4,16.4,11.9,23.3,19.3c5.8,6.1,11.3,13.8,10.5,22.2c-0.9,10.2-11.3,17.7-21.6,18.1
	s-20-4.8-27.8-11.4c-11.8-9.9-20.9-23.4-23.6-38.6s1.4-31.8,12.4-42.6c6.5-6.5,15.2-10.9,20-18.8c3.9-6.4,4.6-14.1,4.3-21.6
	c-0.2-5.2-0.8-10.6-3.5-15c-2.6-4.4-7-7.3-10.8-10.7c-13.6-12.2-20.5-30.3-23.9-48.3c-3.3-18-3.5-36.4-6.1-54.5
	c-3.3-23.2-10.3-48.4,0.9-68.9c7.9-14.5,22.9-22.7,37.9-28.2C352.8,205.5,365.6,200.9,377,202z"/>
<path class="st2" d="M110.6,440.9c-46.9-63.3-14.5-225.9,39.3-244.7c56.6-19.8,57.1,141.5,86.8,146.2c21.8,3.4,44.8-6,60.2-21.9
	c8.1-8.4,14.1-18.7,20-28.8c6.2-10.6,12.3-21.2,18.5-31.7c4.2-7.2,8.5-14.5,14.5-20.3c17.7-17.3,49.9-16.2,66.4,2.2
	c11.4,12.6,14.8,30.3,18.1,46.9c6,30.3,13,60.4,20.8,90.3c4.2,16.2,9.4,33.3,22,44.3c13.3,11.5,33.4,13.7,49.5,6.7
	c16.1-7,28-22.3,32.3-39.3c2.3-9.1,2.6-18.5,2.9-27.8c0.4-13.1,0.9-26.1,1.3-39.2c0.5-16.5,1.1-33.3,5.9-49.2
	c4.4-14.6,12.3-28.1,15.4-43c1.8-8.9,3.6-20.1-2-27c-8.5-10.5-33.4-26.1-64.6-4.5"/>
<path class="st3" d="M114.4,445.7c1.3,1.5,2.7,3,4.2,4.3"/>
<path class="st4" d="M512,210c2.8,0,5-2.2,5-5s-2.2-5-5-5s-5,2.2-5,5S509.2,210,512,210z"/>
<path class="st4" d="M561,352c2.8,0,5-2.2,5-5s-2.2-5-5-5s-5,2.2-5,5S558.2,352,561,352z"/>
<path class="st4" d="M507,439c2.8,0,5-2.2,5-5s-2.2-5-5-5s-5,2.2-5,5S504.2,439,507,439z"/>
<path class="st4" d="M376,233c2.8,0,5-2.2,5-5s-2.2-5-5-5s-5,2.2-5,5S373.2,233,376,233z"/>
<path class="st0" d="M157.1,203.8c4.1,0,7.5-3.4,7.5-7.5c0-4.1-3.4-7.5-7.5-7.5c-4.1,0-7.5,3.4-7.5,7.5
	C149.6,200.4,153,203.8,157.1,203.8z"/>
<path class="st0" d="M121.2,455c4.1,0,7.5-3.4,7.5-7.5c0-4.1-3.4-7.5-7.5-7.5s-7.5,3.4-7.5,7.5C113.7,451.7,117,455,121.2,455z"/>
<path class="st5" d="M133.7,415.1c0.2,0,0.5,0,0.8,0"/>
<path class="st6" d="M209.3,27l205.2,100.7"/>
<path class="st1" d="M185.4,34.8c-0.5-0.1-0.9-0.2-1.4-0.4c-1-0.5-2.8-2.9-4.5-5l-6.7-2.9c-0.4-0.2-0.8-0.5-0.9-1
	c-0.2-0.4-0.2-0.9,0-1.3c0.3-0.7,0.9-1.1,1.7-1.1l-2.5-2.4c-0.4-0.4,0-1,0.5-0.8c3.2,1.4,6.1,2.5,7.4,2.9l4,1.1l5.9,10.1
	c0.4,0.7-0.2,1.4-0.9,1.3L185.4,34.8z"/>
<path class="st1" d="M207.2,18.7c0.2-0.1,0.2-0.3,0.2-0.6c0-0.2-0.2-0.4-0.4-0.5l-0.9-0.3c-0.8-0.3-1.6-0.3-2.4-0.1l-10.3,2.3
	c-2.4-1.5-4.9-2.9-7.4-4.3l18.6-12.8c0.2-0.1,0.3-0.4,0.2-0.6s-0.2-0.4-0.4-0.5l-3.4-1.3c-0.9-0.3-1.8-0.3-2.8,0.1l-10.5,4.4
	l-5.1-2.2c-0.5-0.2-1.1-0.2-1.6,0c-0.5,0.2-0.9,0.6-1.2,1.1c-0.5,1.1,0,2.3,1.1,2.8l0.9,0.4l-8,2.4c-3.4-1.5-6.8-2.7-10.1-3.5
	c-1.3-0.3-3.2,0.1-5,0.3c-2.4,0.2-4.3,0-5,1.4c-0.9,1.9,5,4.9,6.2,5.3c2.8,1.4,16.3,7.5,19.4,8.3l19.4,5.2c1.8,0.7,2.8-0.9,2-2
	L207.2,18.7z"/>
<path class="st7" d="M336.1,585.3H125.8c-12.8,0-23.2-10.4-23.2-23.2V110.4c0-12.8,10.4-23.2,23.2-23.2h210.3
	c12.8,0,23.2,10.4,23.2,23.2v451.7C359.3,574.9,348.9,585.3,336.1,585.3z"/>
<path class="st8" d="M336.1,100.3h-46.4c-2.5,0-4.5,2-4.5,4.5v6.4c0,3.8-3,6.8-6.8,6.8h-95c-3.8,0-6.8-3.1-6.8-6.8v-6.4
	c0-2.5-2-4.5-4.5-4.5h-46.4c-6.5,0-11.7,5.2-11.7,11.7v448.4c0,6.5,5.2,11.7,11.7,11.7h210.2c6.5,0,11.7-5.2,11.7-11.7V112
	C347.8,105.5,342.6,100.3,336.1,100.3z"/>
<path class="st9" d="M318.9,151.3h-65.8c-3.8,0-7.3,2.1-8.8,5.6c-2.2,5.2-7.3,8.8-13.3,8.8c-6,0-11.1-3.6-13.3-8.8
	c-1.5-3.5-5-5.6-8.8-5.6H143c-6.2,0-11.2,5-11.2,11.2v98.6c0,6.2,5,11.2,11.2,11.2h65.8c3.8,0,7.3-2.1,8.8-5.6
	c2.2-5.2,7.3-8.8,13.3-8.8c6,0,11.1,3.6,13.3,8.8c1.5,3.5,5,5.6,8.8,5.6h65.8c6.2,0,11.2-5,11.2-11.2v-98.6
	C330.1,156.4,325.1,151.3,318.9,151.3z"/>
<path class="st10" d="M147.6,200.7h36.7"/>
<path class="st4" d="M182.8,212h-33.2c-1.1,0-2,0.9-2,2v10.1c0,1.1,0.9,2,2,2h33.2c1.1,0,2-0.9,2-2V214
	C184.8,212.8,183.9,212,182.8,212z"/>
<path class="st10" d="M147.6,247.1h45.3"/>
<path class="st10" d="M277.8,200.7h36.7"/>
<path class="st4" d="M312.5,212h-33.2c-1.1,0-2,0.9-2,2v10.1c0,1.1,0.9,2,2,2h33.2c1.1,0,2-0.9,2-2V214
	C314.5,212.8,313.6,212,312.5,212z"/>
<path class="st10" d="M269.2,247.1h45.3"/>
<path class="st4" d="M249.6,181h-37.2c-1.8,0-3.2,1.4-3.2,3.2c0,1.8,1.4,3.2,3.2,3.2h37.2c1.8,0,3.2-1.4,3.2-3.2
	C252.8,182.4,251.4,181,249.6,181z"/>
<path class="st4" d="M224.1,231h2.4l8.4-9.8c0,0,2.4,0,5.5,0c3,0,3.5-2.1,3.5-2.1s-0.4-2.1-3.5-2.1c-3,0-5.5,0-5.5,0l-8.4-9.8h-2.4
	l5.4,10.1c0,0-4.8,0.2-5.9,0.7l-4.3-4.4l-1.3,0.1l2.3,5.5l-2.3,5.5l1.3,0.1l4.3-4.4c1.1,0.4,5.9,0.7,5.9,0.7L224.1,231z"/>
<path class="st11" d="M201.8,219.9c0.5,0,0.9-0.4,0.9-0.9c0-0.5-0.4-0.9-0.9-0.9c-0.5,0-0.9,0.4-0.9,0.9
	C201,219.5,201.4,219.9,201.8,219.9z"/>
<path class="st11" d="M206.6,219.9c0.5,0,0.9-0.4,0.9-0.9c0-0.5-0.4-0.9-0.9-0.9c-0.5,0-0.9,0.4-0.9,0.9
	C205.7,219.5,206.1,219.9,206.6,219.9z"/>
<path class="st11" d="M211.3,219.9c0.5,0,0.9-0.4,0.9-0.9c0-0.5-0.4-0.9-0.9-0.9c-0.5,0-0.9,0.4-0.9,0.9
	C210.5,219.5,210.9,219.9,211.3,219.9z"/>
<path class="st11" d="M254.3,219.9c0.5,0,0.9-0.4,0.9-0.9c0-0.5-0.4-0.9-0.9-0.9c-0.5,0-0.9,0.4-0.9,0.9
	C253.5,219.5,253.9,219.9,254.3,219.9z"/>
<path class="st11" d="M259.1,219.9c0.5,0,0.9-0.4,0.9-0.9c0-0.5-0.4-0.9-0.9-0.9s-0.9,0.4-0.9,0.9
	C258.2,219.5,258.6,219.9,259.1,219.9z"/>
<path class="st11" d="M263.8,219.9c0.5,0,0.9-0.4,0.9-0.9c0-0.5-0.4-0.9-0.9-0.9c-0.5,0-0.9,0.4-0.9,0.9
	C263,219.5,263.3,219.9,263.8,219.9z"/>
<path class="st12" d="M305.8,549.6h-56c-3.2,0-6.2,1.8-7.5,4.8c-1.9,4.4-6.2,7.5-11.3,7.5s-9.5-3.1-11.3-7.5c-1.2-3-4.3-4.8-7.5-4.8
	h-56c-5.3,0-9.5,4.3-9.5,9.5v12.1h168.6v-12.1C315.3,553.8,311,549.6,305.8,549.6z"/>
<path class="st0" d="M307.9,293.2h-57.6c-3.3,0-6.4,1.9-7.7,4.9c-1.9,4.5-6.4,7.7-11.6,7.7s-9.7-3.2-11.6-7.7
	c-1.3-3-4.4-4.9-7.7-4.9H154c-5.4,0-9.8,4.4-9.8,9.8v86.3c0,5.4,4.4,9.8,9.8,9.8h57.6c3.3,0,6.4-1.9,7.7-4.9
	c1.9-4.5,6.4-7.7,11.6-7.7s9.7,3.2,11.6,7.7c1.3,3,4.4,4.9,7.7,4.9h57.6c5.4,0,9.8-4.4,9.8-9.8V303
	C317.7,297.6,313.3,293.2,307.9,293.2z"/>
<path class="st13" d="M286.9,369.8h19.6"/>
<path class="st13" d="M155.1,312.8H218"/>
<path class="st13" d="M291.6,312.8h14.9"/>
<path class="st1" d="M197,325.2h-38c-2.2,0-4,1.8-4,4v38c0,2.2,1.8,4,4,4h38c2.2,0,4-1.8,4-4v-38C201,327,199.2,325.2,197,325.2z"/>
<path class="st1" d="M252.3,325.2h-39c-1.1,0-2,0.9-2,2v4.1c0,1.1,0.9,2,2,2h39c1.1,0,2-0.9,2-2v-4.1
	C254.3,326.1,253.4,325.2,252.3,325.2z"/>
<path class="st1" d="M304.5,325.2h-15.6c-1.1,0-2,0.9-2,2v4.1c0,1.1,0.9,2,2,2h15.6c1.1,0,2-0.9,2-2v-4.1
	C306.5,326.1,305.6,325.2,304.5,325.2z"/>
<path class="st13" d="M211.3,347.1h43"/>
<path class="st13" d="M211.3,369.8H231"/>
<path class="st13" d="M249.1,369.8h19.6"/>
<path class="st14" d="M182,338.5h-13.6v19.3H182V338.5z"/>
<path class="st14" d="M187.8,345H182v12.8h5.8V345z"/>
<path class="st14" d="M167.3,357.8h21.5"/>
<path class="st14" d="M172.3,342.5h5.7"/>
<path class="st14" d="M172.3,345.9h5.7"/>
<path class="st14" d="M172.3,349.3h5.7"/>
<path class="st14" d="M172.3,352.7h5.7"/>
<path class="st0" d="M307.9,421.9h-57.6c-3.3,0-6.4,1.9-7.7,4.9c-1.9,4.5-6.4,7.7-11.6,7.7s-9.7-3.2-11.6-7.7
	c-1.3-3-4.4-4.9-7.7-4.9H154c-5.4,0-9.8,4.4-9.8,9.8V518c0,5.4,4.4,9.8,9.8,9.8h57.6c3.3,0,6.4-1.9,7.7-4.9
	c1.9-4.5,6.4-7.7,11.6-7.7s9.7,3.2,11.6,7.7c1.3,3,4.4,4.9,7.7,4.9h57.6c5.4,0,9.8-4.4,9.8-9.8v-86.3
	C317.7,426.3,313.3,421.9,307.9,421.9z"/>
<path class="st0" d="M212.8,443.9h-53.8c-2.2,0-4,1.8-4,4v53.8c0,2.2,1.8,4,4,4h53.8c2.2,0,4-1.8,4-4v-53.8
	C216.8,445.7,215,443.9,212.8,443.9z"/>
<path class="st1" d="M279.1,443.9h-51.4c-1.1,0-2,0.9-2,2v4.1c0,1.1,0.9,2,2,2h51.4c1.1,0,2-0.9,2-2v-4.1
	C281.1,444.8,280.2,443.9,279.1,443.9z"/>
<path class="st15" d="M300.6,506.6h-11.5c-3,0-5.4-2.4-5.4-5.4c0-3,2.4-5.4,5.4-5.4h11.5c3,0,5.4,2.4,5.4,5.4
	C306,504.2,303.6,506.6,300.6,506.6z"/>
<path class="st12" d="M271.6,507.1h-11.5c-3.2,0-5.9-2.6-5.9-5.9s2.6-5.9,5.9-5.9h11.5c3.2,0,5.9,2.6,5.9,5.9
	S274.9,507.1,271.6,507.1z"/>
<path class="st0" d="M184,471.2c0,0-12.8,5.2-8.1,21l8.1-1c0,0-6.2-10.8,2.3-18.7L184,471.2z"/>
<path class="st16" d="M170.6,497.1h25.1c0,0-1.8-7.8-11.4-7.8C174.7,489.3,171.5,492.8,170.6,497.1z"/>
<path class="st1" d="M185.2,467.5c0,0-2.2,5.5,0.5,11.3c3,6.6,8.5,6.3,8.5,6.3s0.5-4.7-2.1-10.4
	C189.4,468.9,185.2,467.5,185.2,467.5z"/>
<path class="st16" d="M186,475.2c1.5,0,2.7-1.2,2.7-2.7c0-1.5-1.2-2.7-2.7-2.7c-1.5,0-2.7,1.2-2.7,2.7
	C183.2,474,184.5,475.2,186,475.2z"/>
<path class="st16" d="M201.2,467.4c0,0-4.8-3.1-10.8-1.7c-6.8,1.6-7.6,6.8-7.6,6.8s4.4,1.4,10.3,0
	C199.1,471.1,201.2,467.4,201.2,467.4z"/>
<path class="st1" d="M178.5,452.6c0,0-2.5,5.2-0.4,10.9c2.4,6.6,7.7,6.7,7.7,6.7s0.9-4.5-1.3-10.2
	C182.5,454.2,178.5,452.6,178.5,452.6z"/>
<path class="st16" d="M186.7,469.7c0,0-5.2-3.8-12-2.5c-7.7,1.4-8.8,7.2-8.8,7.2s4.8,1.8,11.5,0.6S186.7,469.7,186.7,469.7z"/>
<path class="st1" d="M196.8,462.5c2.4,0,4.4-2,4.4-4.4c0-2.4-2-4.4-4.4-4.4c-2.4,0-4.4,2-4.4,4.4
	C192.4,460.5,194.4,462.5,196.8,462.5z"/>
<path class="st17" d="M225.7,469.8h48.4"/>
<path class="st17" d="M225.7,483.6h80.8"/>
<path class="st0" d="M345.3,367.5h-53.7c-6.4,0-11.5,5.2-11.5,11.5v104.1h5.5V379.4c0-3.8,3.1-6.9,6.9-6.9h52c3.8,0,6.9,3.1,6.9,6.9
	v103.7h5.5V379C356.8,372.6,351.6,367.5,345.3,367.5z"/>
<path class="st15" d="M339,375.6h-41c-3.2,0-5.8-2.6-5.8-5.8c0-3.2,2.6-5.8,5.8-5.8h41c3.2,0,5.8,2.6,5.8,5.8
	C344.8,373,342.2,375.6,339,375.6z"/>
<path class="st15" d="M287.1,625.5c-2.8,0-5-2.2-5-5v-10.6h10v10.6C292.1,623.2,289.9,625.5,287.1,625.5z"/>
<path class="st15" d="M349.8,625.5c-2.8,0-5-2.2-5-5v-10.6h10v10.6C354.8,623.2,352.5,625.5,349.8,625.5z"/>
<path class="st0" d="M349.9,615.8H287c-11.9,0-21.5-9.6-21.5-21.5V482.1c0-11.9,9.6-21.5,21.5-21.5h62.8c11.9,0,21.5,9.6,21.5,21.5
	v112.1C371.4,606.1,361.8,615.8,349.9,615.8z"/>
<path class="st0" d="M337.6,589.7h-38.2c-8.2,0-15-6.7-15-14.9v-73.1c0-8.2,6.7-15,15-15h38.2c8.2,0,14.9,6.7,14.9,15v73.1
	C352.5,583,345.8,589.7,337.6,589.7z"/>
<path class="st1" d="M328.6,516.5h-20.3c-3.5,0-6.3-2.8-6.3-6.3c0-3.5,2.8-6.3,6.3-6.3h20.3c3.5,0,6.3,2.8,6.3,6.3
	C334.9,513.7,332.1,516.5,328.6,516.5z"/>
<path class="st9" d="M380.9,203c-2.7-2.7-7.1-2.7-9.9,0c-2.7,2.7-2.7,7.1,0,9.9l4.9,4.9l4.9-4.9C383.7,210.2,383.7,205.8,380.9,203z
	 M376,210.7c-1.4,0-2.5-1.1-2.5-2.5s1.1-2.5,2.5-2.5s2.5,1.1,2.5,2.5S377.3,210.7,376,210.7z"/>
<path class="st1" d="M205.7,63.6v53.1c0,4.8-3.9,8.7-8.7,8.7H99.2l-8.5,12.8v-21.1V63.6c0-4.8,3.9-8.7,8.7-8.7H197
	C201.8,54.9,205.7,58.8,205.7,63.6z"/>
<path class="st10" d="M109,92h80"/>
<path class="st10" d="M109,77h80"/>
<path class="st10" d="M109,107h51"/>
<path class="st18" d="M91,186.6c-2.7-3.1-3.1-5.1-3.4-8.2c-0.3-3.1-0.1-9.7-0.1-9.7s-5.2-1.3-7.2-1.3c-2.1,0-13.3,2.8-13.3,2.8
	l-16.4,30.4l-5.6,16.1l26,4.9l-1.2-12.2l8.7-4.6l11.6-7.3c0,0,0.2-3.1,0.1-4.8C90.1,191.1,92.4,188.1,91,186.6z"/>
<path class="st19" d="M24.6,257.5L58.8,302l-6,34.9c-0.2-0.1-0.6-0.1-1-0.2c-1-0.2-2.3-0.6-4-1.1c-3.4-1-7.9-2.4-12.6-4.4
	c-4.7-1.9-9.6-4.3-13.7-7.2c-4.1-2.9-7.3-6.2-8.8-9.9c-1.5-3.7-1.5-9.1-0.6-15.2c0.9-6.1,2.6-12.8,4.5-19.1c1.9-6.3,4-12,5.6-16.3
	c0.8-2.1,1.5-3.8,2-5C24.3,258.1,24.5,257.8,24.6,257.5z"/>
<path class="st20" d="M7.8,584.4c0,0-7.6,13.3-7.8,19.9c0,0,6.9,9.7,39.3,10.7c32.5,1,30.1-1.8,30.1-1.8l1.1-6.1l-34.3-14.4
	L7.8,584.4z"/>
<path class="st9" d="M29.4,400.4c0,0-0.3,50.6,3.5,84.6c0,0-10.3,27.7-15,58.9c-4.7,31.2-10.1,40.5-10.1,40.5s7.9,9.8,28.5,8.3
	L60,452.9L29.4,400.4z"/>
<path class="st20" d="M36.2,604.4c0,0-2.1,7.1-1.7,13.9c0.4,6.8,35.9,10.1,73,5.7c0,0,1.6-6.4-1.3-10.7c0,0-16.6-2.6-22.6-5.1
	c-6.1-2.5-10.8-6.5-14.2-6.7C66,601.4,36.2,604.4,36.2,604.4z"/>
<path class="st16" d="M18.8,379.5c0,0,0.2-8.2,8.1-8.4c8-0.2,3.8-13,3.8-13l-11,1.7C19.7,359.8,17.1,372.2,18.8,379.5z"/>
<path class="st9" d="M24.3,360.1c0,0-3.9,23.5,3.6,44.7c7.5,21.2,10.3,29.5,11.5,43c1.2,13.5,4.1,41.3,6.3,49.1
	c0,0-13.3,60.6-13.4,108.8c0,0,5.2,5.2,20,4.4c9-0.5,17.2-6.4,17.1-8.6c0,0-7.9-16.5-4.4-37.9c3.5-21.4,22.2-96.5,26-125.9
	c3.8-29.4,6.6-64.9,5.4-72.3C95.3,358,24.3,360.1,24.3,360.1z"/>
<path class="st21" d="M96.7,371.9c0,0-1.7-3.6-4.4-9c-15.4-4.3-68-2.8-68-2.8s-3.9,23.5,3.6,44.7c7.5,21.2,10.3,29.5,11.5,43
	c1.2,13.5,4.1,41.3,6.3,49.1c0,0-13.3,60.6-13.4,108.8c0,0,5.2,5.2,20,4.4c2.7-0.1,5.3-0.8,7.7-1.6c0,0-19,5.3-21.3-6.9
	c-10.1-54.6,19-93.3,11.8-104.8s2.6-27.1-5.3-58.6s-19-52-10.8-58.3C54.1,364.4,96.6,371.9,96.7,371.9z"/>
<path class="st22" d="M40,220c0,0-16,12.9-15.5,36.2c0.5,23.3,7.6,36.8,6.4,57.7s-18.2,41.7-12.2,65.7c0,0-1.1-8.2,2.4-15.9
	c0,0,4.3,5.6,4.6,13.6c0,0,43.7-17.7,81.1-1.7c0,0-13.7-30.1-10-74.1l1.2-24.7c0,0-0.7-15.6-9.3-30l-2.2-7.4L65,221.3l-21.8-4.5
	L40,220z"/>
<path class="st1" d="M40,220c0,0,19.8-0.4,36.4,17.2l8.5,4.5l-2.3,4.3c0,0,11.3,13.2,14.2,24.2c0,0-2.2-14.4-9.9-25.1l-0.6-4.3
	l-16.8-14.4l-16.8-6.3l-10-1.5L40,220z"/>
<path class="st1" d="M59.3,239.4c0,0,12-2,22.4,8.5s15.2,22.3,15.2,22.3l-8.5,7.7c0,0-27.2-19.2-28.4-22.5S59.3,239.4,59.3,239.4z"
	/>
<path class="st1" d="M93.6,324.3c1,2.6,2.2,5.1,3.4,7.4c-0.8-9.1-1-19.3,0-30.4l0.3-5.3L44.9,251c0,0-1.5,21.4,22.6,40.2
	C91.5,309.9,90,314.9,93.6,324.3z"/>
<path class="st22" d="M38.6,213.3l1.4,6.7c0,0,17.9-3.7,37.6,16.2l8.5,5.3l-2.2,4.4c0,0,11.3,10.1,14.3,30.8c0,0,1.9-25.1-18.4-47.9
	c0,0-1.4-9.7-3.3-11.9C74.6,214.5,60.7,209.3,38.6,213.3z"/>
<path class="st16" d="M140.2,243.7c0,0,3.8,1.6,7.3,5.4c3.5,3.8,7.2,8,7.3,9.5c0.1,1.5-9.2,3.2-9.5,3c-0.3-0.2-5.7-5.1-5.7-7.6
	C139.5,251.6,140.2,243.7,140.2,243.7z"/>
<path class="st18" d="M141.4,251.1c0,0-0.9-9.5,3.2-17.1c2.7-5,9.6-6.9,11.3-9.6c0.9-1.5,2.6-1.1,3-0.7c0.7,0.6,1.8,2.6-1.4,5.8
	s-3.4,3.5-2.8,3.8s9.6,1.1,15.1-5.1c2.5-2.8,3.7-4.9,5.8-4.4c2.1,0.5-0.5,5.1-1.6,6.4c0,0,1.5-0.2,2.8-2c1.4-1.8,2.7-1.8,3.5-0.9
	c0.9,0.9-0.1,4.9-4.3,7.8c0,0,1.6-0.6,2.6-1.5c1.1-0.9,2.6-1.2,3.2-0.3c0.6,0.9-0.8,3.6-4.9,5.9c0,0,1.4-0.3,2-0.7
	c0.7-0.4,1.5-0.1,1.8,0.4c0.3,0.5,0.3,1.6-1.2,2.6s-7.2,3.7-12.9,4.3c-5.7,0.6-14.2,7.8-15.8,11.5
	C149.4,260.9,141.4,251.1,141.4,251.1z"/>
<path class="st4" d="M45.2,248.6c0,0-5.1,16.2,21.4,39c26.5,22.8,32.3,27.8,49.8,20.9c9.3-3.6,38.3-49.9,38.3-49.9
	s-9.8-4.1-14.6-14.9c0,0-27.3,34.8-36.3,32.9c-9-2-21.7-41.6-46.2-36.8"/>
<defs>
	<filter id="Adobe_OpacityMaskFilter" filterUnits="userSpaceOnUse" x="43.8" y="238.4" width="112.4" height="74">
		<feColorMatrix  type="matrix" values="1 0 0 0 0  0 1 0 0 0  0 0 1 0 0  0 0 0 1 0"/>
	</filter>
</defs>
<mask maskUnits="userSpaceOnUse" x="43.8" y="238.4" width="112.4" height="74" id="path-98-inside-1_33_3726_1_">
	<path class="st23" d="M45.2,248.6c0,0-5.1,16.2,21.4,39c26.5,22.8,32.3,27.8,49.8,20.9c9.3-3.6,38.3-49.9,38.3-49.9
		s-9.8-4.1-14.6-14.9c0,0-27.3,34.8-36.3,32.9c-9-2-21.7-41.6-46.2-36.8"/>
</mask>
<path class="st24" d="M66.7,287.6l0.7-0.8h0L66.7,287.6z M116.5,308.5l-0.4-0.9h0L116.5,308.5z M154.7,258.6l0.8,0.5l0.6-1l-1.1-0.5
	L154.7,258.6z M140.2,243.7l0.9-0.4l-0.7-1.5l-1,1.3L140.2,243.7z M45.2,248.6c-1-0.3-1-0.3-1-0.3c0,0,0,0,0,0c0,0,0,0,0,0
	c0,0,0,0,0,0c0,0,0,0,0,0.1c0,0,0,0.1,0,0.2c0,0.1-0.1,0.4-0.1,0.6c-0.1,0.5-0.2,1.3-0.2,2.3c-0.1,2,0.1,4.8,1.2,8.4
	c2.1,7.1,7.6,17,21,28.5l1.3-1.5C54.2,275.5,49,265.9,47,259.3c-1-3.3-1.2-6-1.1-7.7c0-0.9,0.1-1.6,0.2-2c0-0.2,0.1-0.4,0.1-0.5
	c0-0.1,0-0.1,0-0.1c0,0,0,0,0,0c0,0,0,0,0,0c0,0,0,0,0,0c0,0,0,0,0,0C46.2,248.9,46.2,248.9,45.2,248.6z M66,288.4
	c13.2,11.4,21.4,18.4,28.5,21.8c3.6,1.7,7,2.4,10.6,2.3c3.6-0.2,7.4-1.2,11.8-2.9l-0.7-1.9c-4.3,1.7-7.9,2.6-11.1,2.8
	c-3.2,0.1-6.3-0.5-9.6-2.1c-6.8-3.2-14.7-10-28-21.5L66,288.4z M116.8,309.5c1.4-0.5,2.9-1.8,4.6-3.4c1.7-1.7,3.6-3.8,5.7-6.2
	c4-4.9,8.6-11,12.8-17.1c4.2-6,8.1-11.9,11-16.3c1.4-2.2,2.6-4,3.4-5.3c0.4-0.6,0.7-1.1,0.9-1.5c0.1-0.2,0.2-0.3,0.2-0.4
	c0,0,0-0.1,0.1-0.1c0,0,0,0,0,0c0,0,0,0,0,0c0,0,0,0,0,0c0,0,0,0-0.8-0.5c-0.8-0.5-0.8-0.5-0.8-0.5c0,0,0,0,0,0c0,0,0,0,0,0
	c0,0,0,0,0,0c0,0,0,0.1-0.1,0.1c-0.1,0.1-0.1,0.2-0.2,0.4c-0.2,0.3-0.5,0.8-0.9,1.5c-0.8,1.3-2,3.1-3.4,5.3
	c-2.9,4.4-6.8,10.3-11,16.3c-4.2,6-8.7,12.1-12.7,16.9c-2,2.4-3.9,4.5-5.5,6.1c-1.7,1.6-3,2.6-4,3L116.8,309.5z M154.7,258.6
	c0.4-0.9,0.4-0.9,0.4-0.9l0,0l0,0c0,0,0,0,0,0c0,0,0,0,0,0c0,0,0,0-0.1,0c-0.1,0-0.2-0.1-0.3-0.1c-0.3-0.1-0.6-0.3-1.1-0.6
	c-1-0.5-2.3-1.4-3.8-2.5c-3-2.3-6.5-5.9-8.8-11.1l-1.8,0.8c2.5,5.6,6.2,9.4,9.4,11.9c1.6,1.2,3,2.1,4,2.7c0.5,0.3,0.9,0.5,1.2,0.6
	c0.1,0.1,0.3,0.1,0.3,0.2c0,0,0.1,0,0.1,0c0,0,0,0,0,0c0,0,0,0,0,0c0,0,0,0,0,0h0C154.4,259.5,154.4,259.5,154.7,258.6z
	 M140.2,243.7c-0.8-0.6-0.8-0.6-0.8-0.6c0,0,0,0,0,0c0,0,0,0,0,0c0,0,0,0,0,0c0,0,0,0-0.1,0.1c-0.1,0.1-0.1,0.2-0.2,0.3
	c-0.2,0.3-0.5,0.6-0.9,1.1c-0.8,0.9-1.9,2.3-3.2,3.9c-2.7,3.2-6.4,7.5-10.3,11.7c-4,4.2-8.2,8.3-11.9,11.3c-1.9,1.5-3.6,2.6-5.1,3.3
	c-1.5,0.7-2.7,1-3.5,0.8l-0.4,2c1.5,0.3,3.1-0.1,4.8-0.9c1.7-0.8,3.6-2.1,5.5-3.6c3.9-3,8.2-7.3,12.2-11.5c4-4.3,7.7-8.6,10.4-11.8
	c1.4-1.6,2.5-3,3.2-3.9c0.4-0.5,0.7-0.9,0.9-1.1c0.1-0.1,0.2-0.2,0.2-0.3c0,0,0-0.1,0.1-0.1c0,0,0,0,0,0c0,0,0,0,0,0c0,0,0,0,0,0
	C141,244.3,141,244.3,140.2,243.7z M104.1,275.6c-0.8-0.2-1.9-0.8-3.1-2.1c-1.2-1.2-2.5-2.8-3.9-4.8c-2.8-3.8-6.1-8.9-9.7-13.7
	c-7.4-9.5-17-18.8-29.9-16.2l0.4,2c11.6-2.3,20.5,5.9,27.9,15.5c3.7,4.8,6.8,9.7,9.7,13.7c1.4,2,2.8,3.7,4.1,5
	c1.3,1.3,2.6,2.3,4.1,2.6L104.1,275.6z"/>
<path class="st1" d="M53.5,322.9c0,0,8.4,28.2,38.8,28.5c3.7,0,5.7-4.8-4.5-7.9C77.6,340.5,60.4,331.9,53.5,322.9z"/>
<path class="st25" d="M174.1,230.2c-0.6,0.8-4.6,4.8-7.2,5.3"/>
<path class="st25" d="M176,235c0,0-4.1,2.4-7.2,2.8"/>
<path class="st25" d="M177,239.2c-1.3,0.7-4.6,1.7-5.7,1.8"/>
<path class="st21" d="M85.1,416.2c0.1-1.1-0.8,58.6-8.1,56.5C69.7,470.5,80.5,462.2,85.1,416.2z"/>
<path class="st16" d="M115.9,270.2C115.9,270.2,115.9,270.2,115.9,270.2C115.9,270.2,115.9,270.2,115.9,270.2z"/>
<path class="st1" d="M105.2,283.3c-0.3-3.3,6.1-9.2,9.1-11.8c-4.2,3.5-8,5.6-10.5,5.1c-1.3-0.3-2.6-1.3-4-2.8
	C105.3,280.7,105.6,287.2,105.2,283.3z"/>
<path class="st16" d="M98.3,271.9c-0.2-0.3-0.5-0.6-0.8-1C97.7,271.2,97.9,271.5,98.3,271.9C98.2,271.9,98.2,271.9,98.3,271.9z"/>
<path class="st26" d="M47,157.1c-4.1,1.7-4.8,5.3-8.4,4.8c0,0,1.9,1.2,6.2-0.5C49.2,159.7,47,157.1,47,157.1z"/>
<path class="st27" d="M85.4,183.5c0.6,0,1-0.5,1-1c0-0.6-0.5-1-1-1c-0.6,0-1,0.5-1,1C84.3,183,84.8,183.5,85.4,183.5z"/>
<path class="st27" d="M88,177.2c0.2,0.7-0.4,1.4-2.4,1.9c-2,0.4-4.7,0.4-4.9-0.3s2.3-1.8,4.3-2.3C87.1,176,87.9,176.5,88,177.2z"/>
<path class="st26" d="M86.6,192.7c-2.8,1.6-4.9,5.4-7.2,4.8c-0.9-0.3-2.9-1.5-4.7-3.1c0,0-2-7.3-0.9-13.1l1.8-1.5
	c0.5-0.7,0.7-1.6,0.6-2.4l-0.6-5.1c0.1,0,0.1,0,0.1,0s12.3,2.2,15.1-4c2.8-6.3,0.7-11-1.9-12.8c-6.3-4.3-11.6-2.1-17.7,1.3
	c0,0-15.4-3.3-24.1,0.3c-2.7,1.1-4.3,5.6-6.1,9.3c0,0,0,0.1,0,0.1c-1.8,3.6-1.8,8,0.2,11.5c2.9,5.1,6.7,13.1,8.9,22.6l8.6,1.3
	c2.4,0.3,4.7-0.7,6-2.8l4.6-7.2l-2.3-2.2c0,0-3.8-2.9-2.9-6.2c0.8-3.2,3.6-4.5,6.1-2.6c0.1,0.1,0.2,0.1,0.2,0.2s0.2,0.1,0.2,0.2
	c0.1,0.1,0.1,0.1,0.2,0.2c0.6,0.6,0.8,1.1,1,1.5c0,0.1,0.1,0.2,0.1,0.3c0.6,2.8-2.2,8.7-2.5,8.7c0,0-1.7,18.2,6,22.6
	c0.8,0.5,1.8,0.7,2.7,0.8c7.2,0.4,11.6-1.4,12.1-7.1c0.2-2.4,0.4-5.3,0.5-7.8c0-0.7,0.6-1.2,0.6-1.9c0.1-2.9,0-5.1-0.4-5.4
	C89.5,192.4,87.2,192.3,86.6,192.7z"/>
<path class="st27" d="M61.8,196.9c-2.2,0.6-4.7,0.6-6.8-0.5c-2-1.1-3.3-3-4.5-5c-0.3-0.6-0.7-1.1-1-1.7c-2.1-3.5-4.6-6.8-7.4-9.8
	c2.7,5.1,6,12.3,7.9,20.7l8.6,1.3c2.4,0.4,4.7-0.7,6-2.8l3.3-5.3C66,195.1,64,196.2,61.8,196.9z"/>
<path class="st27" d="M86.5,169.2c-3.3,2-7.1,3-10.9,2.8c0,0,0.1,0.1,0.1,0.1c0,0,0,0,0,0s12.3,2.2,15.1-4c1.3-2.8,1.5-5.3,1.2-7.4
	c0,0.5,0,1-0.1,1.5C91.4,165.3,89.1,167.7,86.5,169.2z"/>
<circle class="st28" cx="609.5" cy="458.5" r="47"/>
<path class="st7" d="M479,339c8.8,0,16-7.2,16-16s-7.2-16-16-16s-16,7.2-16,16S470.2,339,479,339z"/>
<path class="st4" d="M484.6,325.2c-0.1-0.3-0.3-0.6-0.5-0.9c-0.2-0.3-0.4-0.5-0.7-0.7c-0.3-0.2-0.6-0.4-0.9-0.6
	c0.7-0.3,1.2-0.7,1.6-1.3c0.4-0.5,0.6-1.1,0.6-1.8c0-0.6-0.1-1.2-0.4-1.7c-0.2-0.5-0.6-1-1-1.4c-0.4-0.4-0.9-0.7-1.5-0.9
	c-0.4-0.1-0.8-0.2-1.2-0.3h0.1v-1.9h-1.5v1.8l0.4,0h-1.4v-1.8h-1.5v1.8l-3.8,0v1.7h1.5v11.6H473v1.7h3.8v1.7h1.5v-1.7h1v1.7h1.5
	v-1.7h-0.6c0.6,0,1.2-0.1,1.8-0.3c0.6-0.2,1-0.6,1.5-1c0.4-0.4,0.7-0.9,1-1.4c0.2-0.5,0.4-1.1,0.4-1.8
	C484.8,325.8,484.7,325.5,484.6,325.2z M476.5,317.3h3.6c0.3,0,0.6,0.1,0.9,0.2c0.3,0.2,0.5,0.3,0.8,0.6c0.2,0.2,0.4,0.5,0.5,0.8
	c0.1,0.3,0.2,0.6,0.2,1c0,0.3-0.1,0.6-0.2,0.9c-0.1,0.3-0.3,0.5-0.5,0.7c-0.2,0.2-0.5,0.4-0.8,0.5c-0.3,0.1-0.6,0.2-0.9,0.2h-3.6
	L476.5,317.3L476.5,317.3z M482.4,327.2c-0.1,0.3-0.3,0.6-0.5,0.9c-0.2,0.3-0.5,0.5-0.7,0.6c-0.3,0.2-0.6,0.2-0.9,0.2h-3.7v-5h3.7
	c0.3,0,0.6,0.1,0.9,0.2c0.3,0.1,0.5,0.3,0.7,0.5c0.2,0.2,0.4,0.4,0.5,0.7c0.1,0.3,0.2,0.6,0.2,0.8
	C482.6,326.5,482.5,326.8,482.4,327.2z"/>
<path class="st9" d="M653,437c10.5,0,19-8.5,19-19s-8.5-19-19-19s-19,8.5-19,19S642.5,437,653,437z"/>
<path class="st4" d="M646.4,418.1l6.5,4l6.8-3.9l-6.8-11.2L646.4,418.1z"/>
<path class="st4" d="M646.4,419.7l6.6,9.3l6.7-9.5l-6.8,4.1L646.4,419.7z"/>
<circle class="st9" cx="435.5" cy="433.5" r="36.5"/>
<path class="st4" d="M447.8,445.2h-25.4c-1.3,0-2.4-1.1-2.4-2.4v-14c0-1.3,1.1-2.4,2.4-2.4h25.4c1.3,0,2.4,1.1,2.4,2.4v14
	C450.2,444.2,449.1,445.2,447.8,445.2z"/>
<path class="st9" d="M434.6,442.9c3.8,0,6.9-3.1,6.9-6.9c0-3.8-3.1-6.9-6.9-6.9c-3.8,0-6.9,3.1-6.9,6.9
	C427.8,439.8,430.8,442.9,434.6,442.9z"/>
<path class="st4" d="M434.6,440.1c2.3,0,4.1-1.8,4.1-4.1s-1.8-4.1-4.1-4.1s-4.1,1.8-4.1,4.1S432.4,440.1,434.6,440.1z"/>
<path class="st9" d="M445.6,430.7c0.9,0,1.6-0.7,1.6-1.6s-0.7-1.6-1.6-1.6s-1.6,0.7-1.6,1.6S444.8,430.7,445.6,430.7z"/>
<path class="st4" d="M438.3,426.5H430c-0.9,0-1.6-0.7-1.6-1.6c0-0.9,0.7-1.6,1.6-1.6h8.3c0.9,0,1.6,0.7,1.6,1.6
	C440,425.7,439.2,426.5,438.3,426.5z"/>
<path class="st4" d="M443.7,424.8c0.5-0.3,0.3-1.3-0.2-2.2c-0.6-0.9-1.4-1.4-1.9-1.1c-0.5,0.3-0.3,1.3,0.2,2.2
	C442.4,424.6,443.2,425.1,443.7,424.8z"/>
<path class="st4" d="M446.5,424.4c0.7-0.4,1.1-1.1,0.9-1.4c-0.2-0.3-1-0.3-1.7,0.2c-0.7,0.4-1.1,1.1-0.9,1.4
	C445.1,425,445.8,424.9,446.5,424.4z"/>
<path class="st9" d="M477.9,433.3c0.7,0.4,0.7,1.3,0,1.7l-8.1,4.7c-0.7,0.4-1.5-0.1-1.5-0.9v-9.4c0-0.8,0.8-1.3,1.5-0.9L477.9,433.3
	z"/>
<ellipse class="st7" cx="512.5" cy="162.5" rx="26.5" ry="26.5"/>
<path class="st7" d="M512.9,192.3c-0.4,0.7-1.4,0.7-1.8,0l-2.7-5.1c-0.4-0.7,0.1-1.5,0.9-1.5h5.4c0.8,0,1.2,0.8,0.9,1.5L512.9,192.3
	z"/>
<path class="st29" d="M561.5,272c-16.3,0-29.5,13.2-29.5,29.5c0,14.9,11,27.2,25.4,29.2l2.8,4.8c0.4,0.7,1.3,0.7,1.7,0l2.7-4.7
	c14.9-1.5,26.4-14.1,26.4-29.3C591,285.2,577.8,272,561.5,272z"/>
<defs>
	<filter id="Adobe_OpacityMaskFilter_1_" filterUnits="userSpaceOnUse" x="531" y="271" width="61" height="66">
		<feColorMatrix  type="matrix" values="1 0 0 0 0  0 1 0 0 0  0 0 1 0 0  0 0 0 1 0"/>
	</filter>
</defs>
<mask maskUnits="userSpaceOnUse" x="531" y="271" width="61" height="66" id="path-138-inside-2_33_3726_1_">
	<path class="st30" d="M561.5,272c-16.3,0-29.5,13.2-29.5,29.5c0,14.9,11,27.2,25.4,29.2l2.8,4.8c0.4,0.7,1.3,0.7,1.7,0l2.7-4.7
		c14.9-1.5,26.4-14.1,26.4-29.3C591,285.2,577.8,272,561.5,272z"/>
</mask>
<path class="st31" d="M532,301.5h1H532z M561.5,272v-1V272z M557.4,330.7l0.9-0.5l-0.2-0.4l-0.5-0.1L557.4,330.7z M560.1,335.5
	l-0.9,0.5l0,0L560.1,335.5z M561.9,335.5l0.9,0.5l0,0L561.9,335.5z M564.6,330.8l-0.1-1l-0.5,0.1l-0.3,0.4L564.6,330.8z M533,301.5
	c0-15.7,12.8-28.5,28.5-28.5v-2c-16.8,0-30.5,13.7-30.5,30.5H533z M557.5,329.7c-13.8-1.9-24.5-13.8-24.5-28.2h-2
	c0,15.4,11.4,28.1,26.2,30.2L557.5,329.7z M561,335l-2.8-4.8l-1.7,1l2.8,4.8L561,335z M561,335L561,335l-1.7,1
	c0.8,1.3,2.7,1.3,3.5,0L561,335z M563.7,330.3L561,335l1.7,1l2.7-4.7L563.7,330.3z M590,301.5c0,14.7-11.2,26.9-25.5,28.3l0.2,2
	c15.4-1.6,27.3-14.6,27.3-30.3H590z M561.5,273c15.7,0,28.5,12.8,28.5,28.5h2c0-16.8-13.7-30.5-30.5-30.5V273z"/>
<path class="st9" d="M566,312h-15v-18.9c0-1.2,1-2.1,2.2-2.1h10.6c1.2,0,2.2,1,2.2,2.1L566,312L566,312z"/>
<path class="st21" d="M571,312h-5v-14h3.8c0.6,0,1.2,0.7,1.2,1.5V312z"/>
<path class="st32" d="M549,311h24"/>
<path class="st10" d="M556,296h5"/>
<path class="st10" d="M556,301h5"/>
<path class="st10" d="M556,307h5"/>
<path class="st4" d="M512.6,159.8c0,0-6.8,2.7-4.3,11.1l4.3-0.5c0,0-3.3-5.7,1.2-9.9L512.6,159.8z"/>
<path class="st4" d="M505.5,173.5h13.2c0,0-1-4.1-6-4.1C507.6,169.4,506,171.2,505.5,173.5z"/>
<path class="st4" d="M513.2,157.9c0,0-1.1,2.9,0.2,5.9c1.6,3.5,4.5,3.3,4.5,3.3s0.3-2.5-1.1-5.5
	C515.4,158.6,513.2,157.9,513.2,157.9z"/>
<path class="st16" d="M513.6,161.9c0.8,0,1.4-0.6,1.4-1.4c0-0.8-0.6-1.4-1.4-1.4s-1.4,0.6-1.4,1.4
	C512.2,161.3,512.8,161.9,513.6,161.9z"/>
<path class="st4" d="M521.6,157.8c0,0-2.5-1.6-5.7-0.9c-3.6,0.8-4,3.6-4,3.6s2.3,0.7,5.4,0C520.5,159.7,521.6,157.8,521.6,157.8z"/>
<path class="st4" d="M509.7,150c0,0-1.3,2.7-0.2,5.7c1.3,3.5,4.1,3.5,4.1,3.5s0.5-2.4-0.7-5.4C511.7,150.9,509.7,150,509.7,150z"/>
<path class="st4" d="M514,159c0,0-2.7-2-6.3-1.3c-4.1,0.8-4.7,3.8-4.7,3.8s2.5,1,6.1,0.3C512.6,161.2,514,159,514,159z"/>
<path class="st4" d="M519.3,155.2c1.3,0,2.3-1,2.3-2.3c0-1.3-1-2.3-2.3-2.3c-1.3,0-2.3,1-2.3,2.3C517,154.2,518,155.2,519.3,155.2z"
	/>
<g>
	<g>
		<g>
			<g>
				<path class="st33" d="M609.3,479.7c-4.9,0-8.7-3.8-8.7-8.7v-17.7c0-2.1,1.7-3.8,3.8-3.8c2.1,0,3.8,1.7,3.8,3.8V471
					c0,0.7,0.7,1.4,1.4,1.4s1.4-0.7,1.4-1.4v-17.7c0-4.5-3.8-8.3-8.3-8.3c-4.5,0-8.3,3.8-8.3,8.3v22.9c0,2.1-1.7,3.8-3.8,3.8
					c-2.1,0-3.8-1.7-3.8-3.8v-22.9c0-8.7,7-15.6,15.6-15.6s15.6,6.9,15.6,15.6V471C618,475.9,614.2,479.7,609.3,479.7z"/>
			</g>
		</g>
		<g>
			<g>
				<path class="st33" d="M628.8,479.7c-2.1,0-3.8-1.7-3.8-3.8v-27.5c0-2.1-1.7-3.8-3.8-3.8c-2.1,0-3.8-1.7-3.8-3.8s1.7-3.8,3.8-3.8
					c6.3,0,11.1,4.9,11.1,11.1v27.5C632.6,478.3,630.8,479.7,628.8,479.7z"/>
			</g>
		</g>
	</g>
</g>
</svg>
