<svg width="180" height="23" viewBox="0 0 180 23" fill="none" xmlns="http://www.w3.org/2000/svg">
<g clip-path="url(#clip0_644_9514)">
<path d="M20.1004 21.8998H16.9004V6.2998H20.1004V21.8998Z" fill="#C8CDD6"/>
<path d="M31.6008 6C33.4008 6 34.8008 6.6 36.0008 7.8C37.1008 9.1 37.7008 10.6 37.7008 12.5V21.8H34.4008V13C34.4008 11.8 34.0008 10.8 33.3008 10.1C32.5008 9.3 31.5008 8.9 30.4008 8.9C29.1008 8.9 28.1008 9.3 27.2008 10.1C26.4008 10.9 26.0008 11.9 26.0008 13V21.8H22.8008V6.3H26.0008V10.3C26.4008 9 27.1008 7.9 28.1008 7.1C29.2008 6.4 30.3008 6 31.6008 6Z" fill="#C8CDD6"/>
<path d="M47.5996 6C50.0996 6 52.0996 6.9 53.6996 8.7C55.1996 10.5 55.8996 12.6 55.5996 15.2H42.6996C42.8996 16.5 43.4996 17.4 44.4996 18.3C45.3996 19.1 46.4996 19.5 47.8996 19.5C48.8996 19.5 49.7996 19.2 50.5996 18.7C51.3996 18.2 51.9996 17.5 52.4996 16.7L55.1996 17.9C54.4996 19.2 53.4996 20.3 52.2996 21.1C50.9996 21.9 49.5996 22.3 47.8996 22.3C45.5996 22.3 43.5996 21.5 41.9996 20C40.3996 18.5 39.5996 16.6 39.5996 14.2C39.5996 11.8 40.3996 10 41.8996 8.4C43.3996 6.8 45.2996 6 47.5996 6ZM47.5996 8.8C46.3996 8.8 45.3996 9.1 44.4996 9.8C43.6996 10.5 43.0996 11.5 42.7996 12.6H52.2996C51.9996 11.5 51.4996 10.5 50.5996 9.8C49.7996 9.1 48.7996 8.8 47.5996 8.8Z" fill="#C8CDD6"/>
<path d="M64.3996 6C66.2996 6 67.7996 6.5 68.9996 7.5C70.1996 8.5 70.7996 9.9 70.7996 11.7V21.9H67.5996V17.8C66.5996 20.7 64.6996 22.2 61.7996 22.2C60.4996 22.2 59.2996 21.8 58.3996 21C57.4996 20.2 57.0996 19.2 57.0996 17.8C57.0996 16.3 57.6996 15.1 58.6996 14.4C59.7996 13.6 61.1996 13.1 62.7996 13L65.7996 12.7C66.8996 12.6 67.4996 12.1 67.4996 11.2C67.4996 10.4 67.1996 9.9 66.6996 9.4C66.0996 9 65.3996 8.7 64.4996 8.7C63.5996 8.7 62.6996 8.9 62.0996 9.4C61.4996 9.9 60.9996 10.6 60.7996 11.5L57.5996 10.7C57.8996 9.2 58.6996 8.1 59.8996 7.2C61.0996 6.4 62.6996 6 64.3996 6ZM62.8996 19.6C64.1996 19.6 65.3996 19.2 66.2996 18.3C67.1996 17.4 67.5996 16.4 67.5996 15.2V14.4C67.3996 14.8 66.7996 15 65.7996 15.2L62.8996 15.6C62.0996 15.7 61.4996 16 61.0996 16.3C60.6996 16.6 60.3996 17.1 60.3996 17.8C60.3996 18.4 60.5996 18.9 61.0996 19.3C61.4996 19.4 62.0996 19.6 62.8996 19.6Z" fill="#C8CDD6"/>
<path d="M14.7 21.8998H0V6.2998H3.4V18.8998H14.8V21.8998H14.7Z" fill="#C8CDD6"/>
<path d="M73.6992 6C75.3992 6 76.6992 4.7 76.6992 3C76.6992 1.3 75.3992 0 73.6992 0C71.9992 0 70.6992 1.3 70.6992 3C70.6992 4.7 72.0992 6 73.6992 6Z" fill="#C8CDD6"/>
<g opacity="0.4">
<path d="M98.5008 16.8001L92.3008 13.1001L98.5008 21.9001V16.8001Z" fill="#CFD7E8"/>
<path d="M98.5 16.8001V21.9001L104.7 13.1001L98.5 16.8001Z" fill="#DDE4F1"/>
<path d="M98.5 9.1001V15.5001L104.7 11.8001L98.5 9.1001Z" fill="#C8D4E9"/>
<path d="M92.3008 11.8001L98.5008 15.5001V9.1001L92.3008 11.8001Z" fill="#DDE4F1"/>
<path d="M98.5 9.1001L104.7 11.9001L98.5 1.6001V9.1001Z" fill="#778197"/>
<path d="M98.5 9.1001L104.7 11.9001L98.5 1.6001V9.1001Z" fill="#DDE4F1"/>
<path d="M98.5008 1.5L92.3008 11.8L98.5008 9V1.5Z" fill="#778197"/>
<path d="M98.5008 1.5L92.3008 11.8L98.5008 9V1.5Z" fill="#CFD7E8"/>
<path d="M118.9 13.2999C118.9 11.9999 118.5 10.8999 117.7 10.0999C116.9 9.2999 115.9 8.8999 114.6 8.8999C113.4 8.8999 112.4 9.2999 111.6 10.0999C110.8 10.8999 110.4 11.8999 110.4 13.1999C110.4 14.3999 110.8 15.3999 111.6 16.1999C112.4 16.9999 113.4 17.3999 114.7 17.3999C115.5 17.3999 116.2 17.2999 116.8 16.9999C117.4 16.6999 117.9 16.2999 118.3 15.6999L116.6 14.8999C116.1 15.3999 115.4 15.6999 114.7 15.6999C114.1 15.6999 113.6 15.4999 113.1 15.1999C112.7 14.8999 112.4 14.3999 112.4 13.7999H118.9V13.2999ZM112.5 12.0999C112.7 11.5999 113 11.2999 113.2 11.0999C113.6 10.7999 114.1 10.5999 114.7 10.5999C115.2 10.5999 115.7 10.6999 116.1 10.9999C116.5 11.2999 116.8 11.5999 116.9 12.0999H112.5Z" fill="#778197"/>
<path d="M120.801 6.1001H122.801V9.1001H124.001V10.8001H122.801V17.1001H120.801V10.8001H119.801V9.1001H120.801V6.1001Z" fill="#778197"/>
<path d="M125.1 6H127.1V9.9C127.5 9.6 127.9 9.3 128.3 9.1C128.7 8.9 129.1 8.8 129.5 8.8C130.3 8.8 131 9.1 131.5 9.6C132 10.1 132.2 10.8 132.2 11.7V17H130.2V13.5C130.2 12.6 130.2 11.9 130.1 11.6C130 11.3 129.9 11 129.6 10.9C129.4 10.7 129.1 10.7 128.8 10.7C128.4 10.7 128 10.8 127.7 11.1C127.4 11.4 127.2 11.7 127.1 12.2C127 12.4 127 13 127 13.9V17.1H125L125.1 6Z" fill="#778197"/>
<path d="M142.201 13.6998H135.701C135.801 14.2998 136.001 14.6998 136.401 15.0998C136.801 15.3998 137.301 15.5998 138.001 15.5998C138.801 15.5998 139.401 15.2998 139.901 14.7998L141.601 15.5998C141.201 16.1998 140.701 16.5998 140.101 16.8998C139.501 17.1998 138.801 17.2998 138.001 17.2998C136.701 17.2998 135.701 16.8998 134.901 16.0998C134.101 15.2998 133.701 14.2998 133.701 13.0998C133.701 11.8998 134.101 10.8998 134.901 9.9998C135.701 9.1998 136.701 8.7998 137.901 8.7998C139.201 8.7998 140.201 9.1998 141.001 9.9998C141.801 10.7998 142.201 11.8998 142.201 13.1998V13.6998ZM140.201 12.0998C140.101 11.6998 139.801 11.2998 139.401 10.9998C139.001 10.6998 138.601 10.5998 138.001 10.5998C137.401 10.5998 136.901 10.7998 136.501 11.0998C136.201 11.2998 136.001 11.5998 135.801 12.0998H140.201Z" fill="#778197"/>
<path d="M143.301 9.0999H145.001V10.0999C145.201 9.6999 145.401 9.3999 145.701 9.1999C146.001 8.9999 146.301 8.8999 146.701 8.8999C147.001 8.8999 147.201 8.9999 147.501 9.0999L146.901 10.7999C146.701 10.6999 146.501 10.5999 146.301 10.5999C146.001 10.5999 145.701 10.7999 145.501 11.1999C145.301 11.5999 145.201 12.2999 145.201 13.4999V13.8999V17.0999H143.201L143.301 9.0999Z" fill="#778197"/>
<path d="M156.701 13.6998H150.201C150.301 14.2998 150.501 14.6998 150.901 15.0998C151.301 15.3998 151.801 15.5998 152.501 15.5998C153.301 15.5998 153.901 15.2998 154.401 14.7998L156.101 15.5998C155.701 16.1998 155.201 16.5998 154.601 16.8998C154.001 17.1998 153.301 17.2998 152.501 17.2998C151.201 17.2998 150.201 16.8998 149.401 16.0998C148.601 15.2998 148.201 14.2998 148.201 13.0998C148.201 11.8998 148.601 10.8998 149.401 9.9998C150.201 9.1998 151.201 8.7998 152.401 8.7998C153.701 8.7998 154.701 9.1998 155.501 9.9998C156.301 10.7998 156.701 11.8998 156.701 13.1998V13.6998ZM154.701 12.0998C154.601 11.6998 154.301 11.2998 153.901 10.9998C153.501 10.6998 153.101 10.5998 152.501 10.5998C151.901 10.5998 151.401 10.7998 151.001 11.0998C150.701 11.2998 150.501 11.5998 150.301 12.0998H154.701Z" fill="#778197"/>
<path d="M158.301 9.1001H160.301V13.0001C160.301 13.8001 160.401 14.3001 160.501 14.6001C160.601 14.9001 160.801 15.1001 161.001 15.3001C161.201 15.5001 161.501 15.5001 161.801 15.5001C162.101 15.5001 162.401 15.4001 162.701 15.3001C162.901 15.1001 163.101 14.9001 163.201 14.6001C163.301 14.4001 163.301 13.9001 163.301 13.1001V9.2001H165.301V12.6001C165.301 14.0001 165.201 15.0001 165.001 15.5001C164.701 16.1001 164.301 16.6001 163.801 16.9001C163.301 17.2001 162.601 17.4001 161.801 17.4001C160.901 17.4001 160.201 17.2001 159.701 16.8001C159.201 16.4001 158.801 15.9001 158.601 15.2001C158.401 14.7001 158.401 13.8001 158.401 12.5001L158.301 9.1001Z" fill="#778197"/>
<path d="M167.4 9.0999H169.4V9.9999C169.7 9.5999 170.1 9.2999 170.5 9.1999C170.9 8.9999 171.4 8.8999 171.9 8.8999C172.4 8.8999 172.9 8.9999 173.3 9.2999C173.7 9.4999 174 9.8999 174.3 10.3999C174.6 9.8999 175 9.5999 175.5 9.2999C176 9.0999 176.5 8.8999 177 8.8999C177.6 8.8999 178.1 8.9999 178.5 9.2999C178.9 9.5999 179.2 9.8999 179.4 10.2999C179.6 10.6999 179.7 11.3999 179.7 12.3999V17.0999H177.7V12.9999C177.7 12.0999 177.6 11.4999 177.4 11.1999C177.2 10.8999 176.8 10.6999 176.4 10.6999C176.1 10.6999 175.7 10.7999 175.5 10.9999C175.2 11.1999 175 11.4999 174.9 11.7999C174.8 12.0999 174.7 12.6999 174.7 13.4999V17.0999H172.7V13.1999C172.7 12.4999 172.6 11.9999 172.5 11.5999C172.4 11.2999 172.2 10.9999 172 10.8999C171.8 10.6999 171.5 10.6999 171.2 10.6999C170.9 10.6999 170.6 10.7999 170.3 10.9999C170 11.1999 169.8 11.4999 169.7 11.7999C169.6 12.1999 169.5 12.6999 169.5 13.4999V17.0999H167.5L167.4 9.0999Z" fill="#778197"/>
</g>
</g>
<defs>
<clipPath id="clip0_644_9514">
<rect width="179.7" height="22.3" fill="white"/>
</clipPath>
</defs>
</svg>
