<?xml version="1.0" encoding="utf-8"?>
<!-- Generator: Adobe Illustrator 24.1.3, SVG Export Plug-In . SVG Version: 6.00 Build 0)  -->
<svg version="1.1" id="图层_1" xmlns="http://www.w3.org/2000/svg" xmlns:xlink="http://www.w3.org/1999/xlink" x="0px" y="0px"
	 viewBox="0 0 576 508" style="enable-background:new 0 0 576 508;" xml:space="preserve">
<style type="text/css">
	.st0{fill:#21202F;}
	.st1{fill:#E6E6E6;}
	.st2{fill:#FFFFFF;}
	.st3{fill:#FFFFFF;stroke:#E0E0E0;stroke-linejoin:round;stroke-miterlimit:10;}
	.st4{fill:#E0E0E0;}
	.st5{fill:#FFFFFF;stroke:#E0E0E0;}
	.st6{fill:#FFFFFF;stroke:#FFFFFF;stroke-width:2;stroke-linejoin:round;stroke-miterlimit:10;}
	.st7{fill:none;stroke:#FFFFFF;stroke-width:2;stroke-linecap:round;stroke-linejoin:round;stroke-miterlimit:10;}
	.st8{fill:#FF4480;}
	.st9{fill:none;stroke:#FFFFFF;stroke-width:2;stroke-linecap:round;stroke-miterlimit:10;}
	.st10{fill:#2F2E41;}
	.st11{fill:#D44E72;}
	.st12{fill:none;stroke:#D44E72;stroke-linecap:round;stroke-linejoin:round;stroke-miterlimit:10;}
	.st13{fill:#A0616A;}
	.st14{fill:#864B53;}
	.st15{fill:none;stroke:#864B53;stroke-linecap:round;stroke-linejoin:round;stroke-miterlimit:10;}
	.st16{fill:none;stroke:#E0E0E0;stroke-linecap:round;stroke-linejoin:round;stroke-miterlimit:10;}
	.st17{fill:none;stroke:#2F2E41;stroke-linecap:round;stroke-linejoin:round;stroke-miterlimit:10;}
	.st18{fill:#515667;}
	.st19{fill:none;stroke:#2F2E41;stroke-linejoin:round;stroke-miterlimit:10;}
	.st20{fill:none;stroke:#FFFFFF;stroke-width:2;stroke-linejoin:round;stroke-miterlimit:10;}
	.st21{fill:#FFFFFF;stroke:#E6E6E6;}
	.st22{fill:#E0E0E0;stroke:#FFFFFF;stroke-linejoin:round;stroke-miterlimit:10;}
	.st23{fill:none;stroke:#FFFFFF;stroke-linecap:round;stroke-linejoin:round;stroke-miterlimit:10;}
	.st24{fill:#FF4480;}
</style>
<circle class="st0" cx="198" cy="99.9" r="25"/>
<circle class="st1" cx="275" cy="144.9" r="38"/>
<path class="st2" d="M287.5,149.8c-0.1,0.7-0.4,1.4-0.8,1.9c-0.3,0.5-0.8,0.9-1.4,1.3c-0.6,0.4-1.5,0.6-2.6,0.6c-0.7,0-1.4,0-2-0.1
	c-0.6-0.1-1.2-0.2-1.7-0.5s-0.9-0.5-1.2-0.9s-0.5-0.8-0.5-1.3c-0.1-0.5,0-1.1,0.2-1.7c0.2-0.6,0.5-1.1,0.9-1.6
	c0.4-0.5,0.9-0.9,1.5-1.2c0.6-0.3,1.2-0.4,1.9-0.4c1.2,0,2.2,0.2,3.1,0.6v-11.8l-12.9,1.9l0.1,15.8v0.7c0,0.6-0.1,1.1-0.3,1.7
	c-0.2,0.5-0.5,1-0.9,1.4c-0.4,0.4-0.9,0.8-1.5,1c-0.6,0.2-1.2,0.4-1.9,0.4c-0.8,0-1.5-0.1-2.1-0.2c-0.6-0.1-1.2-0.4-1.7-0.6
	c-0.5-0.3-0.9-0.6-1.2-1c-0.3-0.4-0.5-0.9-0.5-1.4c-0.1-0.5,0-1,0.2-1.5c0.2-0.5,0.5-0.9,1-1.3c0.4-0.4,0.9-0.7,1.5-1
	c0.6-0.3,1.2-0.4,1.9-0.5c0.5-0.1,1-0.1,1.6,0c0.5,0.1,1,0.2,1.4,0.3v-15.8l17.9-2.6L287.5,149.8L287.5,149.8z"/>
<path class="st3" d="M532.1,111.4H364.6V125h167.5V111.4z"/>
<path class="st3" d="M465.1,52h-14.7v59.4h14.7V52z"/>
<path class="st4" d="M484.8,57.6h-19.7v53.8h19.7V57.6z"/>
<path class="st3" d="M502,50h-17.2v61.4H502V50z"/>
<path class="st4" d="M519.2,40.4H502v71h17.2V40.4z"/>
<path class="st4" d="M403,39.5c11.3,11.3,11.3,29.6,0,40.8C391.8,69.1,391.8,50.8,403,39.5z"/>
<path class="st5" d="M402.2,79.3c0.3-13.7,11.3-24.8,25.1-25.1C427,68,415.9,79.1,402.2,79.3z"/>
<path class="st3" d="M377.6,53.8c0,14.4,11.7,26.1,26.1,26.1C403.7,65.4,392,53.8,377.6,53.8z"/>
<path class="st1" d="M402.7,111.4c-8.9,0-16.4-6.7-17.4-15.6L383.6,81c-0.1-1.3,0.9-2.5,2.2-2.5h33.6c1.3,0,2.4,1.2,2.2,2.5
	l-1.6,14.8C419.1,104.7,411.6,111.4,402.7,111.4z"/>
<path class="st6" d="M188.4,108.2h-2.3c-0.7,0-1.2-0.6-1.2-1.2v-6.9c0-0.7,0.6-1.2,1.2-1.2h2.3c0.7,0,1.2,0.6,1.2,1.2v6.9
	C189.6,107.6,189.1,108.2,188.4,108.2z"/>
<path class="st6" d="M210.3,108.2H208c-0.7,0-1.2-0.6-1.2-1.2v-6.9c0-0.7,0.6-1.2,1.2-1.2h2.3c0.7,0,1.2,0.6,1.2,1.2v6.9
	C211.5,107.6,210.9,108.2,210.3,108.2z"/>
<path class="st7" d="M189.6,106v-9.7c0-4.7,3.8-8.6,8.6-8.6c4.7,0,8.6,3.8,8.6,8.6v9.7"/>
<path class="st7" d="M192.4,103.5h3.9l1.1-3.5l2.5,6.8l1.3-3.3h2.6"/>
<path class="st8" d="M372.8,76.5c-0.1,0-0.3-0.1-0.4-0.3c-0.1-0.2-0.2-0.5-0.3-1c-0.1-0.8-0.4-1.4-0.8-1.8c-0.4-0.4-1.1-0.7-2-0.8
	c-0.9-0.2-1.7-0.6-2.4-1.1c-0.7-0.6-1.3-1.1-1.8-1.6c-0.5-0.4-0.8-0.6-1-0.5c-0.2,0.1-0.4,0.4-0.4,0.7v4.2c0,1.1,0,2.4,0,3.7
	c0,1.3,0,2.6,0,3.8v4.9c0,0.5-0.1,1-0.2,1.6c-0.2,0.6-0.5,1.2-1,1.7c-0.5,0.5-1.1,1-1.9,1.4c-0.8,0.4-1.8,0.6-3,0.7
	c-1.2,0.1-2.3-0.2-3.3-0.6c-1-0.5-1.7-1.1-2.2-1.8c-0.5-0.8-0.8-1.6-0.8-2.5c0-0.9,0.4-1.7,1.2-2.5c0.8-0.8,1.6-1.3,2.4-1.6
	c0.9-0.3,1.7-0.5,2.5-0.5c0.8,0,1.5,0,2.2,0.2c0.6,0.1,1.1,0.3,1.4,0.4v-8.7c0-2.4,0-5.1,0-8.2c0-0.6,0.1-1.1,0.5-1.5
	s0.7-0.6,1.2-0.7c0.4-0.1,0.8,0,1.1,0.3c0.3,0.2,0.6,0.6,0.8,1c0.3,0.4,0.6,0.9,1.1,1.4c0.4,0.5,1,1.1,1.7,1.6
	c0.6,0.5,1.2,0.8,1.6,1s0.9,0.4,1.3,0.6c0.4,0.2,0.8,0.4,1.2,0.6c0.4,0.2,0.8,0.6,1.3,1.2c0.5,0.5,0.8,1.1,0.9,1.7s0.1,1.1,0,1.6
	s-0.2,0.8-0.4,1.1C373.1,76.4,372.9,76.5,372.8,76.5z"/>
<path class="st1" d="M241.2,8.7v31.9c0,4.8,3.9,8.7,8.7,8.7h81.2l8.5,12.8V41V8.7c0-4.8-3.9-8.7-8.7-8.7h-81.1
	C245.1,0,241.2,3.9,241.2,8.7z"/>
<path class="st9" d="M321.8,16h-65.2"/>
<path class="st9" d="M321.8,31h-31.3"/>
<path class="st10" d="M525,260.9c8.8,0,16-7.2,16-16c0-8.8-7.2-16-16-16s-16,7.2-16,16C509,253.7,516.2,260.9,525,260.9z"/>
<path class="st2" d="M519.4,244.9l5.5,3.4l5.7-3.3l-5.7-9.5L519.4,244.9z"/>
<path class="st2" d="M519.4,246.3l5.5,7.9l5.7-8l-5.7,3.5L519.4,246.3z"/>
<path class="st5" d="M413.9,211c5.7,0,10.3,4.6,10.3,10.3l-0.3,229.6c0,15.4-12.5,27.9-27.9,27.9H1.6c-1.6-24.1,10.6-58.1,35.5-87.6
	c12.5-14.8,35.6-31.3,60.2-46.5c24.6-15.1,50.8-28.9,69.3-38.2c37.3-18.7,53.1-54.9,53.9-74.7c0.4-9.7,3.2-14.9,6.6-17.6
	c3.5-2.7,7.7-3.1,11.3-3.1H413.9z"/>
<path class="st1" d="M1.2,479.8c-0.3,0-0.5-0.2-0.5-0.5c-1.9-26,12.1-60.8,35.7-88.8c25.2-29.9,92.2-66,129.9-85
	c37.4-18.8,52.6-55.3,53.3-73.8c0.8-19.4,11.1-21.7,18.9-21.7c0.3,0,0.5,0.2,0.5,0.5s-0.2,0.5-0.5,0.5c-0.6,0-14.8,0.5-14.9,26.5
	c0,14.7-1.1,29.5-14.1,48.9c-15.2,22.8-44.8,48.3-90.2,78.2c-65.2,42.8-65.2,88.7-65.2,113.3v1.1c0,0.2-0.1,0.3-0.2,0.4l-0.5,0.3
	c-0.1,0-0.2,0.1-0.3,0.1L1.2,479.8L1.2,479.8z"/>
<path class="st4" d="M238.5,210.5c-1.1,0-15.3,0.7-15.3,27c0,27.4-2.7,60.1-104.1,126.6C52.6,407.8,53.6,454.7,53.6,479l-0.5,0.3
	h-52c-1.8-24.3,10.5-58.7,35.6-88.5c25.1-29.8,92.6-66.2,129.7-84.8c37.1-18.6,52.8-54.6,53.6-74.3
	C220.9,212.2,231.3,210.5,238.5,210.5z M238.5,209.5c-7.9,0-18.6,2.3-19.4,22.2c-0.4,10.9-5.3,24.7-13,37c-6.8,10.9-19.3,26-40,36.4
	C128.4,324,61.3,360.3,36,390.2C24,404.5,14.3,420.6,8,436.8c-6,15.4-8.7,30.2-7.8,42.6c0,0.5,0.5,0.9,1,0.9h52
	c0.2,0,0.4-0.1,0.6-0.2l0.5-0.3c0.3-0.2,0.4-0.5,0.4-0.8v-1.1c0-24.5,0-70.2,65-112.9c45.5-29.9,75-55.5,90.3-78.3
	c13.1-19.6,14.2-34.4,14.2-49.2c0-10.6,2.4-18.4,7-22.6c3.4-3.2,7-3.4,7.4-3.4c0.5,0,1-0.5,1-1C239.5,210,239,209.5,238.5,209.5z"/>
<path class="st2" d="M402.6,205.7c-4,0-31.4-0.7-57.9-1.3c-25.8-0.6-50.1-1.2-53.6-1.2c-6.3,0-25.6,0-25.6-20.9
	c0-20.5,15.2-27.3,22.1-27.3c1.1,0,105.6,1.1,115,1.1c9.3,0,19.2,10.1,19.2,25.1C421.7,195.9,410.2,205.7,402.6,205.7z"/>
<path class="st4" d="M287.6,155.4c0,0,105.5,1.1,115,1.1c9.5,0,18.7,10.5,18.7,24.6c0,14-10.9,24.1-18.7,24.1
	c-7.8,0-104.4-2.6-111.5-2.6c-7,0-25.1-0.5-25.1-20.4S280.5,155.4,287.6,155.4z M287.6,154.4c-7.1,0-22.6,7-22.6,27.9
	c0,8.9,3.5,15.2,10.5,18.5c5.9,2.8,12.7,2.8,15.6,2.8c3.4,0,27.8,0.6,53.6,1.2c26.5,0.7,53.9,1.3,57.9,1.3c7.8,0,19.7-10,19.7-25.1
	c0-13.9-9-25.6-19.7-25.6C393.2,155.6,288.6,154.5,287.6,154.4C287.6,154.4,287.6,154.4,287.6,154.4z"/>
<path class="st4" d="M345.4,156c-8.4-0.1-16.8-0.2-24.5-0.2c-3.3,3.5-6.2,6.8-5.9,7.1c0.7,0.8-4.3,14.4-5.7,18.3
	c-1,2.7-7.8,14.6-11.9,21.6c14.4,0.3,49.3,1.2,75.1,1.8c-0.4-3.2-2.2-7.7-7.4-13.8c-11.9-13.9-20.5-3.3-20.5-3.3s-8.7-10.4-8.7-13.9
	C335.9,162.5,342.6,157.7,345.4,156z"/>
<path class="st10" d="M99.1,472.1c0,0,0.9,16.2-4.5,17.5c-5.4,1.3-54.7,4.2-56.3-1.4c-1.6-5.6,20.8-13.3,34.6-15.4
	C86.7,470.6,99.1,472.1,99.1,472.1z"/>
<path class="st8" d="M86.8,476.1c-7.5,0-13.8-2.7-14.1-2.9c-0.2-0.1-0.3-0.3-0.3-0.5C83.7,362,96.7,309,114.9,300.7
	c41.4-18.9,129.4-25,130.3-25c0,0,0,0,0,0c0,0,0.1,0,0.1,0l19.3,5c0.2,0,0.3,0.2,0.4,0.4c0.1,0.3,7.3,29-19.5,45.7
	c-25.6,15.9-103.5,21.7-110,22.1c-3.1,32.7-35.5,122.5-35.9,123.4c0,0.1-0.1,0.2-0.2,0.2C96,474.9,91.8,476.1,86.8,476.1z"/>
<path class="st11" d="M245.2,276.2l19.3,5c0,0,7.5,28.4-19.3,45.1S135,348.4,135,348.4c-2.8,32.7-35.9,123.7-35.9,123.7
	c-3.8,2.6-8.2,3.5-12.3,3.5c-7.5,0-13.9-2.8-13.9-2.8c9.7-95.7,22-162.4,42.2-171.6C156.9,282.1,245.2,276.2,245.2,276.2z
	 M245.2,275.2C245.2,275.2,245.1,275.2,245.2,275.2c-1,0.1-89,6.2-130.5,25.1c-9.9,4.5-18.3,22.2-25.6,54.1
	c-6.2,27.4-11.9,66.1-17.2,118.3c0,0.4,0.2,0.8,0.6,1c0.3,0.1,6.7,2.9,14.3,2.9c5,0,9.4-1.2,12.9-3.7c0.2-0.1,0.3-0.3,0.4-0.5
	c0.3-0.9,32.6-90,35.9-123.1c9.3-0.6,84.2-6.2,109.8-22.2c14.2-8.8,18.8-20.9,20.2-29.5c1.5-9.3-0.4-16.4-0.4-16.7
	c-0.1-0.4-0.4-0.6-0.7-0.7l-19.3-5C245.4,275.2,245.3,275.2,245.2,275.2z"/>
<path class="st11" d="M217.9,336.4l29.1-37.1c0,0-22.7,13.9-46.1,20.1c-57,15.1-47,27.2-64,25.4c-6.7-0.7-9.7-3.2-10.4-3.7
	c1.1,0.7,4.5,7.2,4.4,12.6c-0.2,6.1-10.2,47-11.2,49.1c-0.9,2.1-25,64-34.5,67.1c-3.9,1.2-6.6,2.8-7.9,4.2
	c5.4,1.5,14.7,2.8,21.8-2.2c0,0,33.1-91,35.9-123.7C135,348.4,183.1,345.2,217.9,336.4z"/>
<path class="st10" d="M65.7,493.4c0,0,1.9,4.2-3.6,8.1c-5.4,3.9-12.3,7.7-17.2,6c-4.9-1.7-13.2-10.4-25.1-16.3
	c-11.9-5.9-15-18.4-9.9-18.4c5-0.1,37.7,7.3,37.7,7.3L65.7,493.4z"/>
<path class="st8" d="M331.9,291.9c0,0,6.4,48.4-39.4,62.6s-117.1,24-117.1,24s-12.7,17.5-29.3,33.9c-16.6,16.4-77.6,80.9-77.6,80.9
	S54.3,497,47.6,480c0,0,72.8-114.8,103.9-137.9c31.1-23,65.2-15.2,96.6-43.6l20.4-10.5L331.9,291.9z"/>
<path class="st11" d="M331.9,291.9l-60.8-3.7l-21.9-3.7c0,0,12.3,24.1,63.8,18c9.7,0,15.6,10.8,10.3,18.8
	c-2.4,3.6-5.9,7.5-11.2,11.4c-20.7,15.1-120.7,48.6-141.9,39.7c0,0,5.2,4.6-18.7,29c-23.9,24.4-77.2,87.2-85.4,88.9
	s-12.9-1.6-12.9-1.6c6.9,6.8,15.4,4.6,15.4,4.6s61-64.5,77.6-80.9c16.6-16.4,29.3-33.9,29.3-33.9s71.3-9.9,117.1-24.1
	C338.3,340.3,331.9,291.9,331.9,291.9z"/>
<path class="st12" d="M331.9,291.9c0,0,6.4,48.4-39.4,62.6s-117.1,24-117.1,24s-12.7,17.5-29.3,33.9c-16.6,16.4-77.6,80.9-77.6,80.9
	S54.3,497,47.6,480c0,0,72.8-114.8,103.9-137.9c31.1-23,65.2-15.2,96.6-43.6"/>
<path class="st2" d="M191.3,479.8c-0.3,0-0.5-0.2-0.5-0.5l0-0.5c0-0.2,0-0.5,0-0.7c0-39,13.7-72.1,40.8-98.6
	c21.9-21.4,52.5-38.5,91.2-51c65-21,78.3-79.3,78.3-93.8c0-11.9,4-24.7,12.8-24.7c3,0,5.9,1.2,8,3.3c2.1,2.1,3.3,5,3.3,8l-0.3,229.6
	c0,15.9-13,28.9-28.9,28.9H191.3L191.3,479.8z"/>
<path class="st4" d="M413.9,210.5c6,0,10.8,4.9,10.8,10.8l-0.3,229.6c0,15.7-12.8,28.4-28.4,28.4H191.3c0-0.4,0-0.8,0-1.2
	c0-84.8,64.5-127.4,131.6-149.1s78.7-81.9,78.7-94.3C401.6,222.4,405.8,210.5,413.9,210.5z M413.9,209.5c-9.2,0-13.3,13.1-13.3,25.2
	c0,14.4-13.2,72.5-78,93.3c-38.7,12.5-69.5,29.7-91.4,51.1c-27.2,26.6-40.9,59.8-40.9,98.9c0,0.2,0,0.5,0,0.8c0,0.2,0,0.3,0,0.5
	c0,0.5,0.5,1,1,1H396c16.2,0,29.4-13.2,29.4-29.4l0.3-229.6c0-3.2-1.2-6.1-3.5-8.4C420,210.7,417.1,209.5,413.9,209.5z"/>
<path class="st1" d="M419.1,211.8c-3.6,0.7-8.3,3.9-9.2,16c-1.5,19.8-12,86.3-69.6,115.3c-55.8,28.1-100.2,49-102.9,136.2H396
	c15.7,0,28.4-12.7,28.4-28.4l0.3-229.6C424.7,217.3,422.5,213.7,419.1,211.8z"/>
<path class="st1" d="M305.7,179.1c0,0-22.2-2.4-33.8,4.2c-11.6,6.6-27.5,22.3-31.2,28.8c0,0,0.2,15.2,12.7,21.6l9.7-3.1
	c0,0-7.3,32.4-20.1,43c0,0,4.6,24.3,48.4,25.9c36.1,1.3,40.6-7.7,40.6-7.7s-0.1-11.9,10.9-49.7c0,0,14.1,5.1,29-4.9
	c0,0-2-36.8-13.5-52.4c-3.4-4.6-24.9-6.2-29.4-5.3C324.4,180.6,305.7,179.1,305.7,179.1z"/>
<path class="st4" d="M306.5,196.9c0.8,0.9,1.7,1.4,2.6,1.4c0.1,0,0.1,0,0.2,0c4.8-0.3,9.2-6.2,13.7-18.4c-0.4,0-0.7,0-1.1,0
	c-4.3,11.4-8.4,17.1-12.7,17.4c-0.7,0.1-1.4-0.3-2-1c-2.4-2.8-3.8-10.3-4.2-17.4c-0.3,0-0.6,0-1-0.1
	C302.4,186.1,303.8,193.9,306.5,196.9z"/>
<path class="st4" d="M297.9,247.1c-2.8-2.6-4.3-6.6-4.3-6.6s-16.8-11.2-20-13.1c-1.9-1.1-6.6,2.2-11.1,5.9
	c-2.1,8-8.9,31.6-19.5,40.3c0,0,2,10.6,16,18.3c0,0-4.7-4.3-9.7-12.6c-5.1-8.3,7.3-22.1,9.1-26c1.8-3.9,11.4-2,23.8-1.7
	C294.5,251.9,300.7,249.8,297.9,247.1z"/>
<path class="st4" d="M341.8,245.5c-1.3-2.9-3.5-14.6-3.5-14.6c-1.7-11.4,1.5-25.7,1.5-25.7s-5.8,10.7-3.4,33.2
	c2.4,22.6-7.7,39.6-16.5,38.8c-8.7-0.8-9.6,2.5-0.8,2.1s13.5,5.1,8,8.1c-5.3,2.9-23.8,14.8-48.6,10.8c3.8,0.6,8,1.1,12.7,1.2
	c36.1,1.3,40.6-7.7,40.6-7.7S331.8,280.7,341.8,245.5z"/>
<path class="st13" d="M312.5,187.9c-3.6,0-5.3-1.6-6-2.9c-1.2-2.1-0.7-4.7,0.2-6.2c1.5-2.5,2.1-9.8,1.4-13.4
	c-0.8-3.9,20.5-9.8,27.1-11.6c0,0,0.1,0,0.1,0c0.2,0,0.3,0.1,0.4,0.2c0.1,0.2,0.1,0.4,0,0.6c-0.1,0.1-7.4,13.4-4.9,25
	c0,0.1,0,0.3-0.1,0.4C330.5,180.2,325.5,187.9,312.5,187.9z"/>
<path class="st14" d="M335.3,154.3c0,0-7.6,13.4-5,25.3c0,0-5,7.8-17.9,7.8c-6.8,0-7-5.7-5.3-8.3c1.6-2.6,2.2-10,1.4-13.8
	C307.8,161.5,335.3,154.3,335.3,154.3z M335.3,153.3c-0.1,0-0.2,0-0.2,0c-0.1,0-7,1.8-13.7,4.1c-12.6,4.2-14.1,6.4-13.8,8
	c0.7,3.5,0.2,10.8-1.3,13.1c-1,1.6-1.5,4.4-0.3,6.7c0.8,1.4,2.6,3.1,6.4,3.1c13.3,0,18.5-7.9,18.7-8.2c0.1-0.2,0.2-0.5,0.1-0.8
	c-2.5-11.4,4.8-24.5,4.9-24.6c0.2-0.3,0.2-0.8-0.1-1.1C335.9,153.5,335.6,153.3,335.3,153.3z"/>
<path class="st14" d="M308.6,165.3c0.7,3.8,0.2,11.2-1.4,13.8s-1.5,8.3,5.3,8.3c0.1,0,0.2,0,0.3,0c-7.8-2.8-3.1-13,0.5-14.5
	c15.5-6.5,16.2-15.2,19-16C327.5,158.2,307.9,161.9,308.6,165.3z"/>
<path class="st13" d="M310.3,170.7c-6.1,0-10.2-3.8-11.1-10.4c-2.1-15.7-2.3-20.7-2.3-21.6l-3-5.8c0-0.1-0.1-0.2,0-0.3l3-17.6
	c0-0.2,0.1-0.3,0.3-0.4c0.1,0,0.1,0,0.2,0c0.1,0,0.2,0,0.3,0.1l9.3,5.6l35,13c0.1,0,0.2,0.1,0.2,0.2l4.7,6.8c0.1,0.2,0.1,0.4,0,0.5
	l-6.1,10.1c0,0.1-0.1,0.1-0.2,0.2l-9.7,5.7C324.4,168.3,316.1,170.7,310.3,170.7z"/>
<path class="st14" d="M297.4,115.2l9.3,5.6l35.1,13.1l4.7,6.8l-6.1,10.1l-9.8,5.8c-6.1,10.6-13.9,13.7-20.4,13.7
	c-5.7,0-9.7-3.4-10.6-10c-2.4-17.1-2.3-21.6-2.3-21.6l-3-5.9L297.4,115.2z M297.4,114.2c-0.1,0-0.3,0-0.4,0.1
	c-0.3,0.1-0.5,0.4-0.6,0.7l-3,17.6c0,0.2,0,0.4,0.1,0.6l2.9,5.6c0,1.2,0.3,6.5,2.3,21.5c0.9,6.9,5.2,10.8,11.6,10.8
	c5.9,0,14.4-2.4,21.1-13.9l9.6-5.6c0.1-0.1,0.3-0.2,0.3-0.4l6.1-10.1c0.2-0.3,0.2-0.8,0-1.1l-4.7-6.8c-0.1-0.2-0.3-0.3-0.5-0.4
	l-35-13l-9.2-5.6C297.7,114.2,297.6,114.2,297.4,114.2z"/>
<path class="st15" d="M306,141.5c0,0,1.3,4.7-2.4,9.5c-0.3,0.4-0.3,1,0,1.4c0.5,0.6,1.5,1.5,3.1,2.1"/>
<path class="st13" d="M372.5,284.2c-0.2,0-0.4,0-0.6-0.1c-28.2-5.8-58.8-52.3-59.1-52.8l-2.3-2.4l1.1-9.8l11.4,0.7l31,23.9
	c0.1,0.1,0.2,0.1,0.3,0.1c0,0,0,0,0,0c8.1-0.7,14.4-4.2,16.2-5.2c9.9,22.9,9.1,37.5,5.4,43.1C375.1,283.4,373.8,284.2,372.5,284.2z"
	/>
<path class="st14" d="M312.1,219.7l10.8,0.6l30.9,23.8c0.2,0.1,0.4,0.2,0.6,0.2c0,0,0.1,0,0.1,0c7.5-0.7,13.6-3.7,15.9-5
	c9.5,22.4,8.8,36.7,5.2,42.1c-0.9,1.4-2.1,2.2-3.2,2.2c-0.2,0-0.3,0-0.5,0c-28-5.7-58.4-52.1-58.7-52.6c0-0.1-0.1-0.1-0.1-0.1
	l-2.1-2.1L312.1,219.7z M311.2,218.6l-1.2,10.5l2.4,2.5c0,0,30.7,47.1,59.4,53c0.2,0.1,0.5,0.1,0.7,0.1c5.9,0,12.1-15.4-1.6-46.8
	c0,0-7.1,4.7-16.5,5.5l-31.2-24L311.2,218.6z"/>
<path class="st14" d="M370.9,237.9L370.9,237.9c-6.4,3.5-12.1,5.3-17,5.5c1.4,1.3,3.4,2.9,7,4.9c9,5,9.9,8.8,10,9.2
	c-0.5-4.4-6.4-9.2-10-11.8c-1.1-0.8-0.9-2.5,0.5-2.9C369.6,240.4,370.9,237.9,370.9,237.9z"/>
<path class="st10" d="M323.3,219.3l-12-0.7l-1.2,10.5l2.4,2.5c0,0,1.8,3.1,5.2,7.4c0.6-12.8,12.2-14.6,12.2-14.6L323.3,219.3z"/>
<path class="st16" d="M309.3,197.8c0,0-2.9,8.7-1.9,22.3c1,13.6,0.6,37.4-6.9,50.1s-20.2,10.4-24.7,12c-4.5,1.6-4.4,6.3-2.4,7.4
	c2,1.1,3.6,4.9,1.6,5.6c-2,0.7-0.7-12.7,6-18.9c13.1-12-2.1-26.8-2.1-26.8"/>
<path class="st17" d="M308.3,196.8c0,0-2.9,8.7-1.9,22.3c1,13.6,0.6,37.4-6.9,50.1s-20.2,10.4-24.7,12c-4.5,1.6-4.4,6.3-2.4,7.4
	c2,1.1,3.6,4.9,1.6,5.6c-2,0.7-0.7-12.7,6-18.9c13.1-12-2.1-26.8-2.1-26.8"/>
<path class="st13" d="M309,231.6c-5.1,0-13-1.8-14.2-5.1c-1.5-4.3,0-8.4,0-8.5c0.1-0.1,0-0.3-0.1-0.5c-0.1-0.1-0.2-0.2-0.4-0.2
	h-10.7c-1.1,0-2-0.9-2-2c0-1,0.7-1.8,1.7-2l14.8-2.7c0.1,0,0.2-0.1,0.3-0.1c0,0,3.5-3.6,8.5-3.8c0.1,0,0.3,0,0.4,0
	c9.3,0,14.2,9.6,15.4,12.2c-9.4,0.8-10.5,10.4-10.6,12.4C311.2,231.5,310.2,231.6,309,231.6z"/>
<path class="st14" d="M307.2,207.2c8.4,0,13.1,8.1,14.6,11.3c-8.7,1.1-10.1,9.8-10.3,12.4c-0.6,0.1-1.5,0.2-2.5,0.2
	c-5.6,0-12.8-2.1-13.7-4.8c-1.4-4.1,0-8.1,0-8.2c0.1-0.3,0.1-0.6-0.1-0.9c-0.2-0.3-0.5-0.4-0.8-0.4h-10.7c-0.8,0-1.5-0.7-1.5-1.5
	c0-0.7,0.5-1.4,1.3-1.5l14.8-2.7c0.2,0,0.4-0.1,0.5-0.3c0,0,3.3-3.5,8.1-3.6C306.9,207.2,307.1,207.2,307.2,207.2z M307.2,206.2
	c-0.1,0-0.3,0-0.4,0c-5.3,0.1-8.8,3.9-8.8,3.9l-14.8,2.7c-1.2,0.2-2.1,1.3-2.1,2.5c0,1.4,1.1,2.5,2.5,2.5h10.7c0,0-1.6,4.3,0,8.8
	c1.2,3.6,9.4,5.5,14.7,5.5c1.4,0,2.7-0.1,3.5-0.4c0,0,0-12,10.9-12.3C323.3,219.3,318.4,206.2,307.2,206.2z"/>
<path class="st15" d="M354.2,243.8c2.7,2,7.9,5.3,11.4,7.5c3.5,2.2,5.7,6.7,5.6,8.5"/>
<path class="st4" d="M385.2,181.1c0,16.7,9,23.6,18,24.1c7.7-0.6,18-10.5,18-24.1c0-14-9.2-24.6-18.7-24.6
	C395.5,156.6,385.2,163.9,385.2,181.1z"/>
<path class="st18" d="M261.6,249.5c-0.2,0-0.4-0.1-0.5-0.4l-15.4-52.5c0-0.1,0-0.3,0.1-0.4c0.1-0.1,0.2-0.2,0.4-0.2h31.4
	c0.2,0,0.4,0.1,0.5,0.4l16.6,51.6c0.1,0.2,0,0.3-0.1,0.4c-0.1,0.1-0.2,0.2-0.4,0.2C294.3,248.6,261.6,249.5,261.6,249.5z"/>
<path class="st0" d="M277.7,196.5l16.6,51.6l-32.7,0.9l-15.3-52.5H277.7z M277.7,195.5h-31.4c-0.3,0-0.6,0.1-0.8,0.4
	s-0.2,0.6-0.2,0.9l15.4,52.5c0.1,0.4,0.5,0.7,1,0.7c0,0,0,0,0,0l32.7-0.9c0.3,0,0.6-0.2,0.8-0.4c0.2-0.3,0.2-0.6,0.1-0.9l-16.6-51.6
	C278.5,195.8,278.1,195.5,277.7,195.5z"/>
<path class="st0" d="M260,243.5c5-1.4,22.4-7.4,19-21.5c-4-16.5-18.2,5.1-18.2,5.1l-3.6,6.5L260,243.5z"/>
<path class="st13" d="M224.4,259.8c-5.4,0-8.9-3-10-8.8c-2-9.8,22.2-30.5,26.6-34.2c1.6,8.2,6.8,11.8,7,12c0.1,0.1,0.2,0.1,0.3,0.1
	c0.1,0,0.2,0,0.3-0.1c0.2-0.1,0.2-0.3,0.2-0.5c-0.6-3.7,2-8.4,3.2-10.4c0.1,0.5,0.3,1,0.4,1.4c0.2,0.5,0.3,1,0.4,1.4
	c0.1,0.6,0.5,1.8,1.6,1.8c0.1,0,0.2,0,0.4,0c8.2-1.6,18.1-10.4,21-13.1c0.3-0.3,0.8-0.5,1.2-0.5c0.4,0,0.7,0.1,0.9,0.3
	c1.5,1.3-0.4,4.5-0.4,4.5c-0.1,0.1-0.1,0.3,0,0.5c0.1,0.2,0.2,0.3,0.4,0.3c0.7,0.1,1.1,0.5,1.4,1c0.6,1.3-0.3,3.6-0.7,4.4
	c-0.1,0.1-0.1,0.3,0,0.4c0.1,0.1,0.2,0.2,0.4,0.3c0.5,0.1,0.7,0.3,0.8,0.5c0.6,1.2-0.7,3.8-1.1,4.7c-0.1,0.2-0.1,0.5,0.1,0.6
	c0.1,0.1,0.5,0.4,0.4,1.3c-0.5,3-5.9,8.8-13.2,11.1c-1.8,0.6-3,0.9-3.9,1.1c-3.4,0.9-3.4,0.9-11.8,7.1c-1.6,1.1-3.4,2.5-5.6,4
	C236.7,256.8,229.7,259.8,224.4,259.8z"/>
<path class="st14" d="M277,209.4c0.2,0,0.4,0,0.6,0.2c1,0.9,0,3.2-0.5,3.9c-0.2,0.3-0.2,0.6-0.1,0.9s0.4,0.5,0.7,0.6
	c0.7,0.1,0.9,0.5,1,0.7c0.5,1.1-0.4,3.2-0.7,3.9c-0.1,0.3-0.2,0.6,0,0.9c0.2,0.3,0.4,0.5,0.7,0.5c0.3,0.1,0.4,0.2,0.4,0.2
	c0.4,0.8-0.4,3-1.1,4.2c-0.2,0.4-0.1,1,0.3,1.3c0.1,0,0.3,0.2,0.2,0.8c-0.5,2.8-5.8,8.5-12.9,10.7c-1.8,0.5-2.9,0.9-3.9,1.1
	c-3.5,0.9-3.6,1-12,7.1c-1.6,1.1-3.4,2.5-5.6,4.1c-7.7,5.6-14.6,8.6-19.8,8.6c-5.1,0-8.4-2.9-9.5-8.4c-1.6-8.2,16.9-25.8,25.8-33.2
	c1.8,7.9,6.8,11.3,7,11.5c0.2,0.1,0.4,0.2,0.6,0.2c0.2,0,0.4-0.1,0.5-0.2c0.3-0.2,0.5-0.6,0.4-1c-0.5-3,1.3-6.8,2.6-9.1
	c0,0.1,0.1,0.2,0.1,0.3c0.2,0.5,0.3,1,0.4,1.4c0.1,0.6,0.6,2.2,2.1,2.2c0.1,0,0.3,0,0.5-0.1c8.1-1.6,17.5-9.8,21.2-13.2
	C276.4,209.6,276.7,209.4,277,209.4z M277,208.4c-0.5,0-1.1,0.2-1.5,0.6c-3,2.8-12.7,11.4-20.8,13c-0.1,0-0.2,0-0.2,0
	c-0.7,0-1-0.7-1.2-1.4c-0.2-1-0.8-2.4-1.1-3.9c0,0-4.8,6.7-3.9,11.7c0,0-5.6-3.7-6.9-12.5c0,0-29.6,24-27.4,35.2
	c1.2,5.9,4.8,9.2,10.5,9.2c5.2,0,12-2.7,20.4-8.8c17.5-12.7,12.2-9.3,21.2-12.2s15.7-11.3,13-13.3c0,0,3-5.4,0-5.9
	c0,0,2.8-5.3-1-6.1c0,0,2.2-3.6,0.3-5.2C277.9,208.6,277.4,208.4,277,208.4z"/>
<path class="st14" d="M241.1,215c0,0-2.9,2.8,5.7,14.1c0,0-14.9,6.9-17.3,10c0,0,6.1-3.3,11.7-5.8c4.1-1.9,8.4-2.7,7.6-4.4
	C248.9,228.9,244.3,225.5,241.1,215z"/>
<path class="st0" d="M246.3,197c-0.2,0-0.4-0.1-0.4-0.3c-0.1-0.2-0.1-0.4,0-0.5l1.5-2.3c0.1-0.1,0.2-0.2,0.4-0.2h31
	c0.2,0,0.3,0.1,0.4,0.2c0.1,0.1,0.1,0.3,0,0.5l-1.1,2.3c-0.1,0.2-0.3,0.3-0.5,0.3L246.3,197L246.3,197z"/>
<path class="st0" d="M278.8,194.2l-1.1,2.3h-31.4l1.5-2.3H278.8z M278.8,193.2h-31c-0.3,0-0.6,0.2-0.8,0.4l-1.5,2.3
	c-0.2,0.3-0.2,0.7,0,1c0.2,0.3,0.5,0.5,0.9,0.5h31.4c0.4,0,0.7-0.2,0.9-0.6l1.1-2.3c0.1-0.3,0.1-0.7-0.1-1
	C279.4,193.4,279.1,193.2,278.8,193.2z"/>
<path class="st0" d="M294.3,248.6c-0.2,0-0.4-0.2-0.5-0.4l-16.6-51.6c0-0.1,0-0.2,0-0.4l1.1-2.3c0.1-0.2,0.3-0.3,0.5-0.3
	c0,0,0,0,0,0c0.2,0,0.4,0.2,0.4,0.4l16.4,51.6c0,0.1,0,0.2,0,0.3l-0.9,2.2C294.7,248.4,294.5,248.6,294.3,248.6
	C294.3,248.6,294.3,248.6,294.3,248.6z"/>
<path class="st0" d="M278.8,194.2l16.4,51.6l-0.9,2.2l-16.6-51.6L278.8,194.2z M278.8,193.2c-0.4,0-0.7,0.2-0.9,0.6l-1.1,2.3
	c-0.1,0.2-0.1,0.5,0,0.7l16.6,51.6c0.1,0.4,0.5,0.7,0.9,0.7c0,0,0,0,0,0c0.4,0,0.8-0.2,0.9-0.6l0.9-2.2c0.1-0.2,0.1-0.5,0-0.7
	l-16.4-51.6C279.6,193.5,279.3,193.2,278.8,193.2C278.8,193.2,278.8,193.2,278.8,193.2z"/>
<path class="st10" d="M276.2,248.6l2.2,2.5c0.4,0.4,0.9,0.6,1.4,0.4c0.9-0.3,1.3-1.4,0.7-2.2l-0.6-0.8L276.2,248.6z"/>
<path class="st15" d="M227.7,240.6c6.1-5.3,21.6-10.1,21.6-10.1l-0.5-2.1"/>
<path class="st15" d="M278,214.1c0,0-4.5,6.3-13.7,10.3"/>
<path class="st15" d="M279,220.1c0,0-5.1,8.1-10.9,9.6"/>
<path class="st15" d="M279,226c0,0-3.6,6.6-8.8,8.2"/>
<path class="st3" d="M300.4,105.2c0,0,9.6-17.1,32.2-9.5c22.6,7.6,9.5,36,9.5,36s-31.6-7.3-39.8-19L300.4,105.2z"/>
<path class="st4" d="M344.1,111.3c0.1,3.4-0.3,6.9-1.7,10c-1.5,3.1-4.3,5.7-7.6,6.2c-1.1,0.2-2.3,0.1-3.4,0
	c-6.6-0.6-12.9-3.4-17.8-7.8c-1.8-1.6-3.5-3.9-2.7-6.1c0.2-0.5,0.4-1,0.3-1.5c-0.3-1.3-2.2-0.8-3.5-0.9c-1.2-0.1-2.3-1.1-2.8-2.2
	c-0.5-1.1-0.6-2.4-0.6-3.7c0-1.8,0.7-3.6,0.3-5.1c-2.9,2.6-4.2,5-4.2,5l1.9,7.5c8.3,11.7,39.8,19,39.8,19s7.6-16.4,1.3-27.6
	C343.8,106.4,344.1,108.9,344.1,111.3z"/>
<path class="st4" d="M342.1,131.7c0,0,24.2,6.9,24,15.6c-0.3,8.7-24,0-24,0l1.6-10.9L342.1,131.7z"/>
<path class="st10" d="M346.8,141c0.2,0.1,3.5,1.1,3-0.7c-0.5-1.9-3.8-6.3-7.7-8.6c0,0-6.2-2.2-13.6-5.2c-8-3.3-17.4-7.7-21.6-11.4
	l-0.1-0.1l-0.9-0.9c0.4-0.2,0.8-0.4,1.2-0.6c0.8-0.3,1.6-0.5,2.5-0.7c0.2,0,0.4,0,0.6-0.1c1.4-0.1,2.7-1.2,2.6-2.6
	c-0.1-1.4-1.2-2.7-2.6-2.6c-2.3,0.1-4.6,0.8-6.6,1.9c0-3.1-0.2-6.1-0.5-9.1c-0.1-1.4-1.1-2.7-2.6-2.6c-1.3,0.1-2.8,1.2-2.6,2.6
	c0.1,1,0.2,2,0.2,2.9c-2.9-4.3-6.9-8.1-11.5-10c-3.2-1.3-6.9,1.4-7.8,4.4c-1,3.6,1.2,6.4,4.3,7.7c-0.4-0.1,0.8,0.9,0.9,1
	c0.8,0.8,1.6,1.6,2.3,2.4c0.4,0.5,0.9,1,1.3,1.6c-1.9,0-3.7,0-5.6,0.2c-3.4,0.4-6.3,2.6-6.3,6.3c0,3.1,2.9,6.7,6.3,6.3
	c1-0.1,2-0.2,3-0.2c-2.6,3.2-5,6.5-7,10c-3.9,7.2,7,13.6,10.9,6.4c0.7-1.4,1.5-2.6,2.4-3.9c-0.4,2.2-0.8,4.5-1.2,6.7
	c-0.7,4,5.4,5.7,6.1,1.7l2.4-13c0.3,2.7,0.6,5.3,0.9,8c0.4,4,6.8,4.1,6.3,0c-0.4-3.3-0.7-6.6-1.1-9.8c1.1,2.5,2.2,4.9,3.2,7.5
	c0.4,1.1,1.4,1.8,2.6,1.5c1-0.3,1.8-1.5,1.5-2.6c-0.6-2.2-1.3-4-2.2-6c1.5,1.6,2.4,3.1,3.6,4.8c1.1,1.6,2.9,1.3,3.2,1.2
	c1-0.4,1.2-1.5,1-2.3c-0.2-0.7-0.4-1.4-0.4-2.1c0-0.1,0-0.1,0-0.2c0-0.2,0-0.3,0-0.5c0.1,0,0.1,0.1,0.2,0.1c0.2,0.2,0.4,0.4,0.6,0.7
	c0.2,0.3,0.4,0.6,0.5,0.9c0.3,0.8,0.6,1.5,0.9,2.3c0,0.1,0.1,0.1,0.1,0.1c0.4,0.8,0.8,1.6,1.3,2.4c0.3,0.4,0.6,0.8,0.9,1.2
	c0.3,0.4,0.6,0.8,1,1.1c0.4,0.3,1,0.2,1.2-0.2c0.2-0.4,0.2-1,0.2-1.5c0-1-0.1-2,0.2-3c0-0.1,0.2-0.5,0.3-0.6c2.2,2,3.7,4.7,4,7.6
	c0.2,1.9,0.1,3.8-0.2,4.5c-0.7,1.6,1.5,2.1,2.8-0.7c1.3-2.8,0.6-6.4,3.2-9.6c2.3-2.9,6.2-1.6,6.9-0.2c1.4,2.6,1.1,8.2-2.8,11.9
	c-3.9,3.7-7.7,3.3-7.7,3.3s-0.4,8.6,4.3,10.1c4.7,1.5,4.1-6.8,4.1-6.8s3.9,8.2,6.9,5.7c2.9-2.5-1.2-8.7-1.2-8.7s3.5,2.5,5.5,0.9
	C352.2,150.4,347,141.3,346.8,141z"/>
<path class="st14" d="M314.5,148.7c-0.6,0-0.6,1,0,1C315.2,149.7,315.2,148.7,314.5,148.7z"/>
<path class="st14" d="M320.3,152.8c-0.6,0-0.6,1,0,1C320.9,153.8,320.9,152.8,320.3,152.8z"/>
<path class="st14" d="M322.6,150.4c-0.6,0-0.6,1,0,1C323.2,151.4,323.2,150.4,322.6,150.4z"/>
<path class="st14" d="M319.5,148.5c-0.6,0-0.6,1,0,1C320.1,149.5,320.1,148.5,319.5,148.5z"/>
<path class="st14" d="M316.4,152c-0.6,0-0.6,1,0,1C317,153,317,152,316.4,152z"/>
<path class="st14" d="M311.9,152c-0.6,0-0.6,1,0,1C312.5,153,312.5,152,311.9,152z"/>
<path class="st14" d="M315.2,143.1c0.6,0,1.2-0.5,1.2-1.2c0-0.6-0.5-1.2-1.2-1.2c-0.6,0-1.2,0.5-1.2,1.2
	C314,142.5,314.6,143.1,315.2,143.1z"/>
<path class="st14" d="M300.9,148.7c-0.6,0-0.6,1,0,1C301.5,149.7,301.5,148.7,300.9,148.7z"/>
<path class="st14" d="M298.7,150.9c-0.6,0-0.6,1,0,1C299.3,151.9,299.3,150.9,298.7,150.9z"/>
<path class="st14" d="M301,152c-0.6,0-0.6,1,0,1C301.6,153,301.6,152,301,152z"/>
<path class="st15" d="M306.5,161.4c1.9,0.7,4,0.7,5.8-0.1"/>
<path class="st0" d="M350.2,151.9c2-1.6-3.3-10.6-3.5-11c0.2,0.1,3.5,1.1,3-0.7c-0.5-1.9-3.8-6.3-7.7-8.6c0,0-6.2-2.2-13.6-5.2
	c-8-3.3-17.4-7.7-21.7-11.4l-0.1-0.1l-0.2-0.2c-0.2,0.3-0.1,0.8,0.1,1.1c1.6,4.5,5.8,7.5,10.2,9.4c0.4,0.2,0.8,0.3,1.1,0.4
	c4.9,1.8,10,2.5,14.9,4.1c2.7,0.9,5.4,2.2,7,4.6c0,0,0,0,0,0.1c0.6,0.3,1.1,0.7,1.3,1c1.4,2.6,1.1,8.2-2.9,11.9
	c-3.9,3.7-7.7,3.3-7.7,3.3s-0.4,8.6,4.3,10.1s4.1-6.8,4.1-6.8s3.9,8.2,6.9,5.7c2.9-2.5-1.2-8.7-1.2-8.7S348.3,153.5,350.2,151.9z"/>
<path class="st0" d="M284.8,92.8c-2.7-0.1-5.5,2.2-6.2,4.7c-1,3.6,1.2,6.4,4.3,7.7c-0.4-0.1,0.8,0.9,0.9,1c0.8,0.8,1.6,1.6,2.3,2.4
	c0.3,0.3,0.6,0.7,0.9,1c0.5-0.1,0.9-0.4,1.1-0.8c0.9-1.5-1-3.1-2.4-4.2c-2-1.6-3.4-3.9-3.5-6.4C282.2,96.3,283.1,94.1,284.8,92.8z"
	/>
<path class="st0" d="M281.5,142c-2.3-6-1-13.4,3.6-18c-0.2-0.2-0.5-0.3-0.8-0.5c-2.4,3-4.7,6-6.5,9.4
	C275.7,137,278.2,140.8,281.5,142z"/>
<path class="st0" d="M281.9,123.2c1-0.1,2-0.2,3-0.2c-0.1,0.1-0.2,0.3-0.3,0.4c0.4-0.2,0.7-0.6,0.8-1.1c0.3-1.8-2.2-2.2-4-2.7
	c-2.7-0.6-4.9-3.2-4.9-5.9c-0.5,0.9-0.9,1.9-0.9,3.1C275.5,120,278.4,123.6,281.9,123.2z"/>
<path class="st0" d="M336.5,142.8c-0.7,0-2.6,0.4-2.1,3.2c0.1,0.9,1.2,0.9,1.4,1.4c0.3,0.9-0.3,2.2-1,3.1c-0.3,0.3-0.2,0.9,0.1,1.1
	c0.3,0.2,0.6,0.1,0.9-0.1c1.2-1.2,4.3-4.7,2.8-7.7C338.1,142.9,336.5,142.8,336.5,142.8z"/>
<path class="st19" d="M335.1,151.1c0,0-6.5,5.3-10.7,18.9c-4.2,13.7-9.6,26.3-16.2,26.8c-6.6,0.4-9.9-25.9-6.4-28.9"/>
<path class="st3" d="M402.7,432.5c-8.8-0.1-45.6,3.4-48.6,27.7c-3,24.3,39.1,30.5,83,29.3c43.9-1.2,61.7-13.9,61.8-29.5
	c0.2-15.6-19.9-24.1-46.1-26.1C426.6,431.7,402.7,432.5,402.7,432.5z"/>
<path class="st16" d="M364.8,454.6c0,0,5.8-2.4,14.5,6.8"/>
<path class="st16" d="M411.1,475.2c0,0,3.4-9.7,22.3-6.8"/>
<path class="st16" d="M488.2,453.9c0,0-8.3-0.8-11.1,4.9"/>
<path class="st3" d="M472.1,454.5c0,0,7.3,2.4,6.7,7.7c-0.6,5.3-7.5,6.1-13.4,5.2c-5.8-0.9-9.9-6.2-9.9-6.2L472.1,454.5z"/>
<path class="st16" d="M465.4,474.9c0,0-1.5-6.9-12.2-8.6"/>
<path class="st2" d="M433.5,411.9c0,0,6,3.9,8.5,8.9c0,0,9.3-2.7,18.2-0.1c0,0,3.9-6.6,7.7-6.9c0,0,5.4,2.6,5.1,17.1
	c0,0,6.6,12.1,2.8,22.9c-3.8,10.7-16.5,16.4-41.9,13c0,0-4,5.8-19.7-0.5c0,0-13.7,8.9-32.1-0.7c-14.8-7.7-6.4-23.9-0.8-25.1
	c0,0-2-15.3,14.4-22.3c16.4-7,31.2,4.9,31.2,4.9S429.4,414.8,433.5,411.9z"/>
<path class="st1" d="M390.3,453.7c0,0-5.2,1.2-7,5c-0.9,1.9-1.1,4.6-1.1,6.7c0,0,0,0,0,0c1.6,0.8,3.1,1.5,4.7,2.1
	c-0.1-2.1,0-5.2,1.2-7.4c1.5-2.9,4.5-4,5.8-4.4C392.8,455.3,391.6,454.6,390.3,453.7L390.3,453.7z"/>
<path class="st1" d="M396.6,456.7c-0.8,1.4-2.2,4.4-2,8.1c0.1,2.1,0.9,3.7,1.7,5c3,0.3,5.7,0.1,8.1-0.2c-1.5-1.7-3.4-4.3-3.5-6.6
	c-0.1-2.5,0.3-4.8,0.6-6.2C400.1,457.1,398.5,457.1,396.6,456.7z"/>
<path class="st1" d="M417.1,463.2c-0.9,1.5-2,2.6-2.7,3c0,0-0.5,0.3-1.4,0.8c-7.5-3-8.1-9-8-11.3c1.2-0.6,2.2-1.2,3-1.8
	C409.1,459.9,414.9,462.5,417.1,463.2z"/>
<path class="st1" d="M434.4,418.6c-0.5-0.3-1.1-0.1-1.3,0.4c-0.6,1.5-1.8,4.4-1.8,6.4c0,2,4,0,6.1-1.2c0.8-0.4,1-1.4,0.5-2.1
	C437.2,421,436,419.5,434.4,418.6z"/>
<path class="st1" d="M467.1,420.6c-0.7,0.7-1.8,1.8-2.2,3.3c-0.2,0.7,0.2,1.4,0.9,1.6l2.6,0.8c0.7,0.2,1.4-0.3,1.4-1
	c0-1.1-0.2-2.8-1.3-4.6C468,420.4,467.4,420.3,467.1,420.6z"/>
<path class="st16" d="M435.7,447.1c0,0,1.8,2,5.1,2c3.3,0,4-1.5,4-1.5"/>
<path class="st16" d="M461.2,447.9c0,0,0.2,1.3,4.6,1.3c3.2,0,3.9-2,3.9-2"/>
<path class="st4" d="M452.7,449.9l1.6-0.1c0.9,0,1.5,0.9,1.1,1.7c-0.6,1.3-2.4,1.6-3.3,0.5l-0.2-0.2
	C451.2,451.2,451.7,450,452.7,449.9z"/>
<path class="st16" d="M434,466.7c1.3-1.5,2.1-8.2-8.5-11.1"/>
<path class="st3" d="M428.6,456.7c-3.2,1-7.3,3.8-6.7,11.9c9.5,2,12.1-1.9,12.1-1.9C435.2,465.3,435.9,459.9,428.6,456.7z"/>
<path class="st16" d="M414.4,466.2c2.7-1.5,8.4-11,1.9-14.9c-2.5-1.5-5.5,0.6-7.3,1.9c-1.7,1.3-9.4,8.1-19.9-0.4"/>
<path class="st16" d="M381.5,440.4c0.8,3.7,1.6,4.4,1.6,4.4"/>
<path class="st1" d="M442.7,428.5c2.3,0.8,3.9-3.4,2.9-8.4c-2.2,0.3-3.6,0.7-3.6,0.7S440.1,427.6,442.7,428.5z"/>
<path class="st1" d="M450.1,429.2c3.6,0.3,4.2-6.2,3.6-9.6c-2.1-0.1-4.2,0-5.9,0.2C447.4,422.4,446.7,428.9,450.1,429.2z"/>
<path class="st1" d="M457.7,429.2c4.2-0.4,2.6-8.5,2.6-8.5c-1.3-0.4-2.5-0.6-3.8-0.8C455.6,423.4,454.7,429.5,457.7,429.2z"/>
<path class="st1" d="M424.9,421.5c-1.3-0.8-3.2-1.9-5.5-2.8c-1.6,2.5-1.5,6.5-0.9,8c0.8,2.1,4.7,2.9,4.4-1.1
	C422.8,423.4,423.9,422.1,424.9,421.5z"/>
<path class="st1" d="M411.4,416.3c-0.4,0.5-0.7,1.1-0.9,1.7c-0.7,1.9-0.7,4.1,0.2,6c0,0,0,0,0,0.1c0.5,1,2.9,4.1,3.8,1.8
	c0.7-1.9-0.4-3.9,0.3-5.7c0.4-0.9,1.1-1.4,1.8-2c0.1-0.1,0.2-0.2,0.3-0.3C415.2,417.1,413.4,416.6,411.4,416.3z"/>
<path class="st1" d="M400.4,416.6c-0.4,1-0.4,2.1-0.5,3.1c-0.3,3-0.3,10.5,4.7,8.8c1.5-0.5,1.8-2,1.6-3.4c-0.3-2-1-3.8-0.7-5.9
	c0.2-1,0.6-2,1.2-2.9c0.1-0.1,0.2-0.3,0.5-0.4C405,415.9,402.7,416.1,400.4,416.6z"/>
<path class="st1" d="M395.9,418.1c-1.7,0.7-3.2,1.5-4.5,2.4c-0.6,2.3-0.3,4.9,0.2,7.1c0.3,1.3,0.8,2.7,1.8,3.6
	c1.2,1.1,3.3,1.5,4.4,0.1c1.7-2.2-0.9-5-1.4-7.2c-0.2-0.7-0.3-1.4-0.3-2.1c-0.1-1.3,0-2.7,0.3-4C396.1,418,396,418,395.9,418.1z"/>
<path class="st1" d="M382,433.9c0.1,0.5,0.3,0.9,0.6,1.3c1.3,2.1,3.5,4,6,4.4c1.2,0.2,2.6-0.1,2.9-1.5c0.3-1.9-1.2-3.2-2.3-4.6
	c-1.6-1.8-2.1-4.1-2.2-6.4c-0.1-1-0.1-1.9,0-2.8C384,427.5,382.6,431,382,433.9z"/>
<path class="st16" d="M433.5,411.9c0,0,6,3.9,8.5,8.9c0,0,9.3-2.7,18.2-0.1c0,0,3.9-6.6,7.7-6.9c0,0,5.4,2.6,5.1,17.1
	c0,0,6.6,12.1,2.8,22.9c-3.8,10.7-16.5,16.4-41.9,13c0,0-4,5.8-19.7-0.5c0,0-13.7,8.9-32.1-0.7c-14.8-7.7-6.4-23.9-0.8-25.1
	c0,0-2-15.3,14.4-22.3c16.4-7,31.2,4.9,31.2,4.9S429.4,414.8,433.5,411.9z"/>
<circle class="st8" cx="428" cy="334.9" r="28"/>
<path class="st7" d="M422.1,323.9l-7.1,8.6l12.8,14l12.9-14l-6.6-8.6H422.1z"/>
<path class="st7" d="M421.7,333.3l6.1,7l6-7"/>
<circle class="st8" cx="66" cy="243.9" r="39"/>
<circle class="st4" cx="189" cy="183.9" r="15"/>
<path class="st20" d="M77.3,230.6h-8.5c-1.5,0-2.8,1.2-2.8,2.8c0-1.5-1.2-2.8-2.8-2.8h-8.5c-1.5,0-2.8,1.2-2.8,2.8v20.9
	c0,1.5,1.2,2.8,2.8,2.8h7.8c0.8,1,2.1,1.6,3.4,1.6s2.6-0.6,3.4-1.6h7.8c1.5,0,2.8-1.2,2.8-2.8v-20.9C80,231.9,78.8,230.6,77.3,230.6
	z"/>
<path class="st7" d="M66,233.4v15"/>
<path class="st7" d="M56.4,236.5h5.2"/>
<path class="st7" d="M56.4,243.6h5.2"/>
<path class="st7" d="M56.4,250.7h5.2"/>
<path class="st7" d="M70.9,236.5h5.2"/>
<path class="st7" d="M70.9,243.6h5.2"/>
<path class="st7" d="M70.9,250.7h5.2"/>
<circle class="st21" cx="522.5" cy="154.4" r="47"/>
<path class="st22" d="M189.2,190.6c3.6,0,6.6-2.9,6.6-6.6c0-3.6-2.9-6.6-6.6-6.6s-6.6,2.9-6.6,6.6
	C182.6,187.7,185.5,190.6,189.2,190.6z"/>
<path class="st2" d="M189.1,182.1c0.8,0,1.4-0.6,1.4-1.4s-0.6-1.4-1.4-1.4c-0.8,0-1.4,0.6-1.4,1.4S188.4,182.1,189.1,182.1z"/>
<path class="st2" d="M189.1,189c0.8,0,1.4-0.6,1.4-1.4c0-0.8-0.6-1.4-1.4-1.4c-0.8,0-1.4,0.6-1.4,1.4
	C187.8,188.4,188.4,189,189.1,189z"/>
<path class="st2" d="M192.6,185.5c0.8,0,1.4-0.6,1.4-1.4c0-0.8-0.6-1.4-1.4-1.4s-1.4,0.6-1.4,1.4
	C191.2,184.9,191.8,185.5,192.6,185.5z"/>
<path class="st2" d="M185.7,185.5c0.8,0,1.4-0.6,1.4-1.4c0-0.8-0.6-1.4-1.4-1.4s-1.4,0.6-1.4,1.4C184.3,184.9,185,185.5,185.7,185.5
	z"/>
<path class="st23" d="M189.1,190.6h6.2"/>
<path class="st8" d="M557,211.9c10.5,0,19-8.5,19-19c0-10.5-8.5-19-19-19s-19,8.5-19,19C538,203.4,546.5,211.9,557,211.9z"/>
<path class="st2" d="M563.7,195.5c-0.1-0.4-0.3-0.7-0.5-1c-0.2-0.3-0.5-0.6-0.8-0.9c-0.3-0.3-0.7-0.5-1.1-0.7
	c0.8-0.4,1.5-0.9,1.9-1.5c0.4-0.6,0.7-1.3,0.7-2.1c0-0.7-0.1-1.4-0.4-2c-0.3-0.6-0.7-1.2-1.2-1.6c-0.5-0.5-1.1-0.8-1.7-1.1
	c-0.4-0.2-0.9-0.3-1.4-0.3h0.1v-2.2h-1.8v2.2l0.5,0h-1.6v-2.2h-1.8v2.2l-4.6,0v2.1h1.8v13.8h-1.8v2h4.6v2h1.8v-2h1.1v2h1.8v-2h-0.7
	c0.8,0,1.5-0.1,2.1-0.4c0.7-0.3,1.2-0.7,1.7-1.1c0.5-0.5,0.9-1,1.2-1.7c0.3-0.6,0.4-1.3,0.4-2.1
	C563.9,196.2,563.8,195.8,563.7,195.5z M554.1,186.1h4.2c0.4,0,0.8,0.1,1.1,0.3c0.3,0.2,0.6,0.4,0.9,0.7c0.3,0.3,0.5,0.6,0.6,1
	c0.1,0.4,0.2,0.8,0.2,1.1c0,0.3-0.1,0.7-0.2,1c-0.1,0.3-0.3,0.6-0.6,0.9c-0.3,0.2-0.6,0.5-0.9,0.6c-0.3,0.1-0.7,0.2-1.1,0.2h-4.2
	L554.1,186.1L554.1,186.1z M561,197.8c-0.1,0.4-0.3,0.7-0.6,1c-0.3,0.3-0.6,0.5-0.9,0.7c-0.3,0.2-0.7,0.3-1.1,0.3h-4.4V194h4.4
	c0.4,0,0.8,0.1,1.1,0.2c0.3,0.1,0.6,0.3,0.9,0.6c0.3,0.2,0.5,0.5,0.6,0.9c0.1,0.3,0.2,0.7,0.2,1C561.2,197.1,561.2,197.4,561,197.8z
	"/>
<g>
	<g>
		<g>
			<g>
				<path class="st24" d="M522.3,175.6c-4.9,0-8.7-3.8-8.7-8.7v-17.7c0-2.1,1.7-3.8,3.8-3.8c2.1,0,3.8,1.7,3.8,3.8v17.7
					c0,0.7,0.7,1.4,1.4,1.4s1.4-0.7,1.4-1.4v-17.7c0-4.5-3.8-8.3-8.3-8.3c-4.5,0-8.3,3.8-8.3,8.3v22.9c0,2.1-1.7,3.8-3.8,3.8
					c-2.1,0-3.8-1.7-3.8-3.8v-22.9c0-8.7,7-15.6,15.6-15.6s15.6,6.9,15.6,15.6v17.7C531,171.7,527.2,175.6,522.3,175.6z"/>
			</g>
		</g>
		<g>
			<g>
				<path class="st24" d="M541.8,175.6c-2.1,0-3.8-1.7-3.8-3.8v-27.5c0-2.1-1.7-3.8-3.8-3.8c-2.1,0-3.8-1.7-3.8-3.8
					c0-2.1,1.7-3.8,3.8-3.8c6.3,0,11.1,4.9,11.1,11.1v27.5C545.6,174.2,543.8,175.6,541.8,175.6z"/>
			</g>
		</g>
	</g>
</g>
</svg>
