<?xml version="1.0" encoding="utf-8"?>
<!-- Generator: Adobe Illustrator 24.1.3, SVG Export Plug-In . SVG Version: 6.00 Build 0)  -->
<svg version="1.1" id="图层_1" xmlns="http://www.w3.org/2000/svg" xmlns:xlink="http://www.w3.org/1999/xlink" x="0px" y="0px"
	 viewBox="0 0 72 72" style="enable-background:new 0 0 72 72;" xml:space="preserve">
<style type="text/css">
	.st0{fill:#FF4480;}
	.st1{fill:#FFFFFF;}
</style>
<path class="st0" d="M36,72C16.1,72,0,55.9,0,36S16.1,0,36,0s36,16.1,36,36S55.9,72,36,72z"/>
<g>
	<g>
		<g>
			<g>
				<path class="st1" d="M35.9,50.9c-3.4,0-6.1-2.7-6.1-6.1V32.3c0-1.5,1.2-2.7,2.7-2.7c1.5,0,2.7,1.2,2.7,2.7v12.5c0,0.5,0.5,1,1,1
					s1-0.5,1-1V32.3c0-3.2-2.7-5.9-5.9-5.9c-3.2,0-5.9,2.7-5.9,5.9v16.1c0,1.5-1.2,2.7-2.7,2.7c-1.5,0-2.7-1.2-2.7-2.7V32.3
					c0-6.1,4.9-11,11-11s11,4.9,11,11v12.5C42,48.2,39.3,50.9,35.9,50.9z"/>
			</g>
		</g>
		<g>
			<g>
				<path class="st1" d="M49.6,50.9c-1.5,0-2.7-1.2-2.7-2.7V28.9c0-1.5-1.2-2.7-2.7-2.7s-2.7-1.2-2.7-2.7c0-1.5,1.2-2.7,2.7-2.7
					c4.4,0,7.8,3.4,7.8,7.8V48C52.2,49.9,51,50.9,49.6,50.9z"/>
			</g>
		</g>
	</g>
</g>
</svg>
