<svg width="128" height="128" viewBox="0 0 128 128" fill="none" xmlns="http://www.w3.org/2000/svg">
<path d="M64 128C99.3462 128 128 99.3462 128 64C128 28.6538 99.3462 0 64 0C28.6538 0 0 28.6538 0 64C0 99.3462 28.6538 128 64 128Z" fill="#FF4480"/>
<path d="M63.453 93C57.0922 93 51.976 87.8869 51.976 81.5302V58.4523C51.976 55.8266 54.1884 53.6156 56.8157 53.6156C59.443 53.6156 61.6554 55.8266 61.6554 58.4523V81.5302C61.6554 82.4975 62.485 83.3266 63.453 83.3266C64.4209 83.3266 65.2506 82.4975 65.2506 81.5302V58.4523C65.2506 52.5101 60.4109 47.6734 54.465 47.6734C48.5191 47.6734 43.6794 52.5101 43.6794 58.4523V88.1633C43.6794 90.7889 41.467 93 38.8397 93C36.2124 93 34 90.7889 34 88.1633V58.4523C34 47.1206 43.1263 38 54.465 38C65.8037 38 74.93 47.1206 74.93 58.4523V81.5302C74.93 87.7487 69.8137 93 63.453 93Z" fill="white"/>
<path d="M88.7574 93C86.1301 93 83.9177 90.7889 83.9177 88.1633V52.5101C83.9177 49.8844 81.8435 47.6734 79.078 47.6734C76.4507 47.6734 74.2383 45.4623 74.2383 42.8367C74.2383 40.2111 76.589 38 79.2163 38C87.2363 38 93.7353 44.495 93.7353 52.5101V88.1633C93.5971 90.7889 91.5229 93 88.7574 93Z" fill="white"/>
</svg>
