<svg width="351" height="89" viewBox="0 0 351 89" fill="none" xmlns="http://www.w3.org/2000/svg">
<path d="M171.52 63C172.448 63 173.248 62.68 173.92 62.04C174.56 61.368 174.88 60.568 174.88 59.64V32.76C174.88 31.16 174.128 30.104 172.624 29.592C171.12 29.08 169.872 29.448 168.88 30.696L157.12 45.576L145.36 30.696C144.368 29.416 143.12 29.048 141.616 29.592C140.112 30.104 139.36 31.16 139.36 32.76V59.64C139.36 60.568 139.68 61.368 140.32 62.04C140.992 62.68 141.792 63 142.72 63C143.648 63 144.448 62.68 145.12 62.04C145.76 61.368 146.08 60.568 146.08 59.64V42.456L154.48 53.064C155.12 53.896 156 54.312 157.12 54.312C158.24 54.312 159.12 53.896 159.76 53.064L168.16 42.456V59.64C168.16 60.568 168.48 61.368 169.12 62.04C169.792 62.68 170.592 63 171.52 63ZM191.146 49.56L195.802 40.248L200.41 49.56H191.146ZM198.778 31.224C198.202 30.104 197.21 29.544 195.802 29.544C194.362 29.544 193.354 30.104 192.778 31.224L179.338 58.104C178.922 58.936 178.858 59.8 179.146 60.696C179.434 61.56 179.994 62.2 180.826 62.616C181.658 63.032 182.522 63.096 183.418 62.808C184.282 62.52 184.922 61.96 185.338 61.128L187.786 56.28H203.77L206.218 61.128C206.826 62.376 207.834 63 209.242 63C209.754 63 210.25 62.872 210.73 62.616C211.562 62.2 212.122 61.56 212.41 60.696C212.698 59.8 212.634 58.936 212.218 58.104L198.778 31.224ZM223.424 36.12H234.464C235.904 36.12 237.152 36.632 238.208 37.656C239.232 38.68 239.744 39.928 239.744 41.4C239.744 42.84 239.232 44.088 238.208 45.144C237.152 46.168 235.904 46.68 234.464 46.68H223.424V36.12ZM216.704 59.64C216.704 60.568 217.024 61.352 217.664 61.992C218.336 62.664 219.136 63 220.064 63C220.992 63 221.792 62.664 222.464 61.992C223.104 61.352 223.424 60.568 223.424 59.64V53.4H232.976L240.608 61.896C241.28 62.632 242.112 63 243.104 63C243.968 63 244.72 62.712 245.36 62.136C246.032 61.528 246.4 60.76 246.464 59.832C246.496 58.904 246.208 58.088 245.6 57.384L240.512 51.72C242.304 50.664 243.744 49.24 244.832 47.448C245.92 45.592 246.464 43.576 246.464 41.4C246.464 38.104 245.296 35.272 242.96 32.904C240.592 30.568 237.76 29.4 234.464 29.4H220.064C219.136 29.4 218.336 29.72 217.664 30.36C217.024 31.032 216.704 31.832 216.704 32.76V59.64ZM259.938 36.12V59.64C259.938 60.568 260.274 61.352 260.946 61.992C261.586 62.664 262.37 63 263.298 63C264.226 63 265.026 62.664 265.698 61.992C266.338 61.352 266.658 60.568 266.658 59.64V36.12H274.818C275.746 36.12 276.546 35.8 277.218 35.16C277.858 34.488 278.178 33.688 278.178 32.76C278.178 31.832 277.858 31.032 277.218 30.36C276.546 29.72 275.746 29.4 274.818 29.4H251.778C250.85 29.4 250.05 29.72 249.378 30.36C248.738 31.032 248.418 31.832 248.418 32.76C248.418 33.688 248.738 34.488 249.378 35.16C250.05 35.8 250.85 36.12 251.778 36.12H259.938ZM308.401 63C309.329 63 310.129 62.68 310.801 62.04C311.441 61.368 311.761 60.568 311.761 59.64C311.761 58.712 311.441 57.912 310.801 57.24C310.129 56.6 309.329 56.28 308.401 56.28H288.721V49.56H306.481C307.409 49.56 308.193 49.24 308.833 48.6C309.505 47.928 309.841 47.128 309.841 46.2C309.841 45.272 309.505 44.472 308.833 43.8C308.193 43.16 307.409 42.84 306.481 42.84H288.721V36.12H308.401C309.329 36.12 310.129 35.8 310.801 35.16C311.441 34.488 311.761 33.688 311.761 32.76C311.761 31.832 311.441 31.032 310.801 30.36C310.129 29.72 309.329 29.4 308.401 29.4H285.361C284.433 29.4 283.633 29.72 282.961 30.36C282.321 31.032 282.001 31.832 282.001 32.76V59.64C282.001 60.568 282.321 61.368 282.961 62.04C283.633 62.68 284.433 63 285.361 63H308.401ZM342.852 30.216C342.148 29.608 341.332 29.336 340.404 29.4C339.476 29.464 338.708 29.848 338.1 30.552L329.124 41.016L320.148 30.552C319.54 29.848 318.772 29.464 317.844 29.4C316.948 29.336 316.132 29.608 315.396 30.216C314.692 30.824 314.308 31.592 314.244 32.52C314.18 33.448 314.452 34.264 315.06 34.968L324.708 46.2L315.06 57.432C314.452 58.136 314.18 58.952 314.244 59.88C314.308 60.808 314.692 61.576 315.396 62.184C316.036 62.728 316.772 63 317.604 63C318.628 63 319.476 62.616 320.148 61.848L329.124 51.384L338.1 61.848C338.772 62.616 339.62 63 340.644 63C341.476 63 342.212 62.728 342.852 62.184C343.556 61.576 343.94 60.808 344.004 59.88C344.068 58.952 343.796 58.136 343.188 57.432L333.54 46.2L343.188 34.968C343.796 34.264 344.068 33.448 344.004 32.52C343.94 31.592 343.556 30.824 342.852 30.216Z" fill="#FF4480"/>
<path d="M36.6887 33.0806V70.0684C36.6887 75.9776 41.448 80.7538 47.3363 80.7538C53.2245 80.7538 57.9838 75.9776 57.9838 70.0684V33.0806C57.9838 19.2185 46.7828 8 32.9919 8C19.201 8 8 19.2407 8 33.0806V80.776" stroke="#FF4480" stroke-width="15" stroke-miterlimit="10" stroke-linecap="round" stroke-linejoin="round"/>
<path d="M92.3691 80.776V23.4394C92.3691 14.9088 85.4847 8 76.9844 8" stroke="#FF4480" stroke-width="15" stroke-miterlimit="10" stroke-linecap="round" stroke-linejoin="round"/>
</svg>
