<svg width="238" height="65" viewBox="0 0 238 65" fill="none" xmlns="http://www.w3.org/2000/svg">
<g clip-path="url(#clip0_610_7222)">
<path d="M119.891 44.912C119.243 44.912 118.757 44.7486 118.271 44.2587C117.785 43.7687 117.623 43.2788 117.623 42.6255V30.7034L111.791 38.0527C111.305 38.7059 110.819 38.8692 110.009 38.8692C109.198 38.8692 108.712 38.5426 108.226 38.0527L102.394 30.7034V42.6255C102.394 43.2788 102.232 43.7687 101.746 44.2587C101.26 44.7486 100.774 44.912 100.126 44.912C99.4776 44.912 98.9915 44.7486 98.5055 44.2587C98.0194 43.7687 97.8574 43.2788 97.8574 42.6255V24.0074C97.8574 22.8642 98.3435 22.211 99.4776 21.8843C100.45 21.5577 101.422 21.721 102.07 22.7009L110.171 32.9899L118.271 22.7009C118.919 21.8843 119.729 21.5577 120.864 21.8843C121.998 22.211 122.484 23.0275 122.484 24.0074V42.6255C122.484 43.2788 122.322 43.7687 121.836 44.2587C121.026 44.7486 120.54 44.912 119.891 44.912Z" fill="white"/>
<path d="M147.757 41.4823C148.081 42.1355 148.081 42.6255 147.919 43.2788C147.757 43.932 147.271 44.2586 146.785 44.5853C146.461 44.7486 146.137 44.9119 145.813 44.9119C144.841 44.9119 144.193 44.422 143.707 43.6054L142.087 40.3391H131.07L129.45 43.6054C129.126 44.2587 128.802 44.5853 128.154 44.7486C127.505 44.9119 127.019 44.9119 126.371 44.5853C125.723 44.2586 125.399 43.932 125.237 43.2788C125.075 42.6255 125.075 42.1355 125.399 41.4823L134.472 23.0275C134.796 22.2109 135.606 21.8843 136.578 21.8843C137.55 21.8843 138.198 22.2109 138.685 23.0275L147.757 41.4823ZM139.657 35.6029L136.578 29.2335L133.338 35.6029H139.657Z" fill="white"/>
<path d="M150.836 24.0071C150.836 23.3539 150.998 22.8639 151.484 22.374C151.97 21.884 152.456 21.7207 153.104 21.7207H162.987C165.255 21.7207 167.199 22.5373 168.82 24.1705C170.44 25.8036 171.25 27.7634 171.25 30.0498C171.25 31.5197 170.926 32.9895 170.116 34.2961C169.306 35.6026 168.334 36.5825 167.199 37.2358L170.764 41.1554C171.25 41.6453 171.412 42.1353 171.412 42.7885C171.412 43.4418 171.088 43.9318 170.602 44.4217C170.116 44.7483 169.63 45.075 168.982 45.075C168.334 45.075 167.685 44.7483 167.199 44.2584L162.015 38.379H155.534V42.6252C155.534 43.2785 155.372 43.7684 154.886 44.2584C154.4 44.7483 153.914 44.9117 153.266 44.9117C152.618 44.9117 152.132 44.7483 151.646 44.2584C151.16 43.7684 150.998 43.2785 150.998 42.6252V24.0071H150.836ZM155.372 33.6428H162.987C163.959 33.6428 164.769 33.3162 165.579 32.6629C166.227 32.0096 166.551 31.0297 166.551 30.0498C166.551 29.0699 166.227 28.09 165.579 27.4368C164.931 26.7835 163.959 26.4569 162.987 26.4569H155.372V33.6428Z" fill="white"/>
<path d="M174.815 26.2936C174.167 26.2936 173.681 26.1303 173.195 25.6403C172.709 25.1504 172.547 24.6604 172.547 24.0071C172.547 23.3539 172.709 22.8639 173.195 22.374C173.681 21.884 174.167 21.7207 174.815 21.7207H190.531C191.179 21.7207 191.665 21.884 192.151 22.374C192.637 22.8639 192.799 23.3539 192.799 24.0071C192.799 24.6604 192.637 25.1504 192.151 25.6403C191.665 26.1303 191.179 26.2936 190.531 26.2936H184.86V42.4619C184.86 43.1152 184.698 43.6051 184.212 44.0951C183.726 44.585 183.24 44.7483 182.592 44.7483C181.944 44.7483 181.458 44.585 180.972 44.0951C180.486 43.6051 180.324 43.1152 180.324 42.4619V26.2936H174.815Z" fill="white"/>
<path d="M197.821 44.9117C197.173 44.9117 196.687 44.7483 196.201 44.2584C195.715 43.7684 195.553 43.2785 195.553 42.6252V24.0071C195.553 23.3539 195.715 22.8639 196.201 22.374C196.687 21.884 197.173 21.7207 197.821 21.7207H213.536C214.184 21.7207 214.671 21.884 215.157 22.374C215.643 22.8639 215.805 23.3539 215.805 24.0071C215.805 24.6604 215.643 25.1504 215.157 25.6403C214.671 26.1303 214.184 26.2936 213.536 26.2936H200.089V31.0297H212.24C212.888 31.0297 213.374 31.1931 213.86 31.683C214.346 32.173 214.508 32.6629 214.508 33.3162C214.508 33.9694 214.346 34.4594 213.86 34.9493C213.374 35.4393 212.888 35.6026 212.24 35.6026H200.089V40.1755H213.536C214.184 40.1755 214.671 40.3388 215.157 40.8287C215.643 41.3187 215.805 41.8086 215.805 42.4619C215.805 43.1152 215.643 43.6051 215.157 44.0951C214.671 44.585 214.184 44.7483 213.536 44.7483H197.821V44.9117Z" fill="white"/>
<path d="M237.19 22.2109C237.676 22.7008 238 23.1908 238 23.844C238 24.4973 237.838 24.9872 237.514 25.4772L230.871 33.1531L237.514 40.9923C238 41.4822 238.162 41.9722 238 42.6254C237.838 43.2787 237.676 43.7687 237.19 44.2586C236.704 44.5852 236.218 44.7485 235.732 44.7485C235.084 44.7485 234.436 44.4219 233.95 43.932L227.793 36.746L221.637 43.932C221.15 44.4219 220.664 44.7485 219.854 44.7485C219.206 44.7485 218.72 44.5852 218.396 44.2586C217.91 43.7687 217.586 43.2787 217.586 42.6254C217.586 41.9722 217.748 41.4822 218.072 40.9923L224.715 33.1531L218.072 25.4772C217.586 24.9872 217.424 24.4973 217.586 23.844C217.586 23.1908 217.91 22.7008 218.396 22.2109C218.882 21.7209 219.53 21.5576 220.016 21.7209C220.664 21.7209 221.15 22.0475 221.637 22.5375L227.793 29.7234L233.95 22.5375C234.436 22.0475 234.922 21.7209 235.57 21.7209C236.218 21.7209 236.704 21.8842 237.19 22.2109Z" fill="white"/>
<path d="M34.5092 65C27.0565 65 21.0619 58.9573 21.0619 51.4447V24.1709C21.0619 21.0678 23.6542 18.4548 26.7325 18.4548C29.8108 18.4548 32.403 21.0678 32.403 24.1709V51.4447C32.403 52.5879 33.3751 53.5678 34.5092 53.5678C35.6433 53.5678 36.6154 52.5879 36.6154 51.4447V24.1709C36.6154 17.1482 30.9449 11.4322 23.9782 11.4322C17.0116 11.4322 11.341 17.1482 11.341 24.1709V59.2839C11.341 62.3869 8.74881 65 5.67052 65C2.59224 65 0 62.3869 0 59.2839V24.1709C0 10.7789 10.693 0 23.9782 0C37.2634 0 47.9564 10.7789 47.9564 24.1709V51.4447C47.9564 58.794 41.9619 65 34.5092 65Z" fill="white"/>
<path d="M64.1581 65C61.0798 65 58.4875 62.3869 58.4875 59.2839V17.1482C58.4875 14.0452 56.0573 11.4322 52.817 11.4322C49.7387 11.4322 47.1465 8.8191 47.1465 5.71608C47.1465 2.61307 49.9007 0 52.979 0C62.3759 0 69.9906 7.67588 69.9906 17.1482V59.2839C69.8286 62.3869 67.3984 65 64.1581 65Z" fill="white"/>
</g>
<defs>
<clipPath id="clip0_610_7222">
<rect width="238" height="65" fill="white"/>
</clipPath>
</defs>
</svg>
