<svg width="1400" height="512" viewBox="0 0 1400 512" fill="none" xmlns="http://www.w3.org/2000/svg">
<path d="M855.77 346V166L699.88 76L544 166V346L699.88 436L855.77 346Z" stroke="#E0E0E0" stroke-miterlimit="10" stroke-linecap="round" stroke-linejoin="round"/>
<path d="M699.88 76V436" stroke="#E0E0E0" stroke-miterlimit="10" stroke-linecap="round" stroke-linejoin="round"/>
<path d="M544 346L855.77 166" stroke="#E0E0E0" stroke-miterlimit="10" stroke-linecap="round" stroke-linejoin="round"/>
<path d="M544 166L855.77 346" stroke="#E0E0E0" stroke-miterlimit="10" stroke-linecap="round" stroke-linejoin="round"/>
<path d="M699.88 76L855.77 346" stroke="#E0E0E0" stroke-miterlimit="10" stroke-linecap="round" stroke-linejoin="round"/>
<path d="M544 346H855.77" stroke="#E0E0E0" stroke-miterlimit="10" stroke-linecap="round" stroke-linejoin="round"/>
<path d="M699.88 76L544 346" stroke="#E0E0E0" stroke-miterlimit="10" stroke-linecap="round" stroke-linejoin="round"/>
<path d="M855.77 166H544" stroke="#E0E0E0" stroke-miterlimit="10" stroke-linecap="round" stroke-linejoin="round"/>
<path d="M699.88 436L544 166" stroke="#E0E0E0" stroke-miterlimit="10" stroke-linecap="round" stroke-linejoin="round"/>
<path d="M855.77 166L699.88 436" stroke="#E0E0E0" stroke-miterlimit="10" stroke-linecap="round" stroke-linejoin="round"/>
<g filter="url(#filter0_d_86_3804)">
<path d="M755.381 76C755.381 106.652 730.533 131.5 699.881 131.5C669.229 131.5 644.381 106.652 644.381 76C644.381 45.3482 669.229 20.5 699.881 20.5C730.533 20.5 755.381 45.3482 755.381 76Z" fill="white" stroke="#E0E0E0"/>
<path d="M715.661 69.3301H684.111C682.721 69.3301 681.581 68.2001 681.581 66.8001V61.4001C681.581 60.0101 682.711 58.8701 684.111 58.8701H715.661C717.051 58.8701 718.191 60.0001 718.191 61.4001V66.8101C718.181 68.2001 717.051 69.3301 715.661 69.3301Z" stroke="#2F2E41" stroke-width="2" stroke-miterlimit="10" stroke-linecap="round" stroke-linejoin="round"/>
<path d="M715.661 79.7801H684.111C682.721 79.7801 681.581 78.6501 681.581 77.2501V71.8401C681.581 70.4501 682.711 69.3101 684.111 69.3101H715.661C717.051 69.3101 718.191 70.4401 718.191 71.8401V77.2501C718.181 78.6501 717.051 79.7801 715.661 79.7801Z" stroke="#2F2E41" stroke-width="2" stroke-miterlimit="10" stroke-linecap="round" stroke-linejoin="round"/>
<path d="M715.661 90.24H684.111C682.721 90.24 681.581 89.11 681.581 87.71V82.3C681.581 80.91 682.711 79.77 684.111 79.77H715.661C717.051 79.77 718.191 80.9 718.191 82.3V87.71C718.181 89.11 717.051 90.24 715.661 90.24Z" stroke="#2F2E41" stroke-width="2" stroke-miterlimit="10" stroke-linecap="round" stroke-linejoin="round"/>
<path d="M688.121 90.2402V94.1602" stroke="#2F2E41" stroke-width="2" stroke-miterlimit="10" stroke-linecap="round" stroke-linejoin="round"/>
<path d="M711.651 90.2402V94.1602" stroke="#2F2E41" stroke-width="2" stroke-miterlimit="10" stroke-linecap="round" stroke-linejoin="round"/>
<path d="M687.471 65.41C688.195 65.41 688.781 64.8235 688.781 64.1C688.781 63.3765 688.195 62.79 687.471 62.79C686.748 62.79 686.161 63.3765 686.161 64.1C686.161 64.8235 686.748 65.41 687.471 65.41Z" fill="#FF4480"/>
<path d="M687.471 75.87C688.195 75.87 688.781 75.2835 688.781 74.56C688.781 73.8365 688.195 73.25 687.471 73.25C686.748 73.25 686.161 73.8365 686.161 74.56C686.161 75.2835 686.748 75.87 687.471 75.87Z" fill="#FF4480"/>
<path d="M687.471 86.3202C688.195 86.3202 688.781 85.7337 688.781 85.0102C688.781 84.2867 688.195 83.7002 687.471 83.7002C686.748 83.7002 686.161 84.2867 686.161 85.0102C686.161 85.7337 686.748 86.3202 687.471 86.3202Z" fill="#FF4480"/>
<path d="M681.581 94.1602H718.181" stroke="#FF4480" stroke-width="2" stroke-miterlimit="10" stroke-linecap="round" stroke-linejoin="round"/>
</g>
<g filter="url(#filter1_d_86_3804)">
<path d="M911.27 166C911.27 196.652 886.421 221.5 855.77 221.5C825.118 221.5 800.27 196.652 800.27 166C800.27 135.348 825.118 110.5 855.77 110.5C886.421 110.5 911.27 135.348 911.27 166Z" fill="white" stroke="#E0E0E0"/>
<path d="M871.539 159.33H839.989C838.599 159.33 837.459 158.2 837.459 156.8V151.39C837.459 150 838.589 148.86 839.989 148.86H871.539C872.929 148.86 874.069 149.99 874.069 151.39V156.8C874.069 158.2 872.939 159.33 871.539 159.33Z" stroke="#2F2E41" stroke-width="2" stroke-miterlimit="10" stroke-linecap="round" stroke-linejoin="round"/>
<path d="M871.539 169.78H839.989C838.599 169.78 837.459 168.65 837.459 167.25V161.84C837.459 160.45 838.589 159.31 839.989 159.31H871.539C872.929 159.31 874.069 160.44 874.069 161.84V167.25C874.069 168.65 872.939 169.78 871.539 169.78Z" stroke="#2F2E41" stroke-width="2" stroke-miterlimit="10" stroke-linecap="round" stroke-linejoin="round"/>
<path d="M871.539 180.24H839.989C838.599 180.24 837.459 179.11 837.459 177.71V172.3C837.459 170.91 838.589 169.77 839.989 169.77H871.539C872.929 169.77 874.069 170.9 874.069 172.3V177.71C874.069 179.11 872.939 180.24 871.539 180.24Z" stroke="#2F2E41" stroke-width="2" stroke-miterlimit="10" stroke-linecap="round" stroke-linejoin="round"/>
<path d="M843.999 180.24V184.16" stroke="#2F2E41" stroke-width="2" stroke-miterlimit="10" stroke-linecap="round" stroke-linejoin="round"/>
<path d="M867.529 180.24V184.16" stroke="#2F2E41" stroke-width="2" stroke-miterlimit="10" stroke-linecap="round" stroke-linejoin="round"/>
<path d="M843.349 155.41C844.073 155.41 844.659 154.824 844.659 154.1C844.659 153.377 844.073 152.79 843.349 152.79C842.626 152.79 842.039 153.377 842.039 154.1C842.039 154.824 842.626 155.41 843.349 155.41Z" fill="#FF4480"/>
<path d="M843.349 165.87C844.073 165.87 844.659 165.283 844.659 164.56C844.659 163.837 844.073 163.25 843.349 163.25C842.626 163.25 842.039 163.837 842.039 164.56C842.039 165.283 842.626 165.87 843.349 165.87Z" fill="#FF4480"/>
<path d="M843.349 176.32C844.073 176.32 844.659 175.733 844.659 175.01C844.659 174.286 844.073 173.7 843.349 173.7C842.626 173.7 842.039 174.286 842.039 175.01C842.039 175.733 842.626 176.32 843.349 176.32Z" fill="#FF4480"/>
<path d="M837.469 184.16H874.069" stroke="#FF4480" stroke-width="2" stroke-miterlimit="10" stroke-linecap="round" stroke-linejoin="round"/>
</g>
<g filter="url(#filter2_d_86_3804)">
<path d="M911.27 346C911.27 376.652 886.421 401.5 855.77 401.5C825.118 401.5 800.27 376.652 800.27 346C800.27 315.348 825.118 290.5 855.77 290.5C886.421 290.5 911.27 315.348 911.27 346Z" fill="white" stroke="#E0E0E0"/>
<path d="M871.539 339.33H839.989C838.599 339.33 837.459 338.2 837.459 336.8V331.39C837.459 330 838.589 328.86 839.989 328.86H871.539C872.929 328.86 874.069 329.99 874.069 331.39V336.8C874.069 338.2 872.939 339.33 871.539 339.33Z" stroke="#2F2E41" stroke-width="2" stroke-miterlimit="10" stroke-linecap="round" stroke-linejoin="round"/>
<path d="M871.539 349.78H839.989C838.599 349.78 837.459 348.65 837.459 347.25V341.84C837.459 340.45 838.589 339.31 839.989 339.31H871.539C872.929 339.31 874.069 340.44 874.069 341.84V347.25C874.069 348.65 872.939 349.78 871.539 349.78Z" stroke="#2F2E41" stroke-width="2" stroke-miterlimit="10" stroke-linecap="round" stroke-linejoin="round"/>
<path d="M871.539 360.24H839.989C838.599 360.24 837.459 359.11 837.459 357.71V352.3C837.459 350.91 838.589 349.77 839.989 349.77H871.539C872.929 349.77 874.069 350.9 874.069 352.3V357.71C874.069 359.11 872.939 360.24 871.539 360.24Z" stroke="#2F2E41" stroke-width="2" stroke-miterlimit="10" stroke-linecap="round" stroke-linejoin="round"/>
<path d="M843.999 360.24V364.16" stroke="#2F2E41" stroke-width="2" stroke-miterlimit="10" stroke-linecap="round" stroke-linejoin="round"/>
<path d="M867.529 360.24V364.16" stroke="#2F2E41" stroke-width="2" stroke-miterlimit="10" stroke-linecap="round" stroke-linejoin="round"/>
<path d="M843.349 335.41C844.073 335.41 844.659 334.824 844.659 334.1C844.659 333.377 844.073 332.79 843.349 332.79C842.626 332.79 842.039 333.377 842.039 334.1C842.039 334.824 842.626 335.41 843.349 335.41Z" fill="#FF4480"/>
<path d="M843.349 345.87C844.073 345.87 844.659 345.283 844.659 344.56C844.659 343.837 844.073 343.25 843.349 343.25C842.626 343.25 842.039 343.837 842.039 344.56C842.039 345.283 842.626 345.87 843.349 345.87Z" fill="#FF4480"/>
<path d="M843.349 356.32C844.073 356.32 844.659 355.733 844.659 355.01C844.659 354.286 844.073 353.7 843.349 353.7C842.626 353.7 842.039 354.286 842.039 355.01C842.039 355.733 842.626 356.32 843.349 356.32Z" fill="#FF4480"/>
<path d="M837.469 364.16H874.069" stroke="#FF4480" stroke-width="2" stroke-miterlimit="10" stroke-linecap="round" stroke-linejoin="round"/>
</g>
<g filter="url(#filter3_d_86_3804)">
<path d="M755.381 436C755.381 466.652 730.533 491.5 699.881 491.5C669.229 491.5 644.381 466.652 644.381 436C644.381 405.348 669.229 380.5 699.881 380.5C730.533 380.5 755.381 405.348 755.381 436Z" fill="white" stroke="#E0E0E0"/>
<path d="M715.661 429.33H684.111C682.721 429.33 681.581 428.2 681.581 426.8V421.39C681.581 420 682.711 418.86 684.111 418.86H715.661C717.051 418.86 718.191 419.99 718.191 421.39V426.8C718.181 428.2 717.051 429.33 715.661 429.33Z" stroke="#2F2E41" stroke-width="2" stroke-miterlimit="10" stroke-linecap="round" stroke-linejoin="round"/>
<path d="M715.661 439.78H684.111C682.721 439.78 681.581 438.65 681.581 437.25V431.84C681.581 430.45 682.711 429.31 684.111 429.31H715.661C717.051 429.31 718.191 430.44 718.191 431.84V437.25C718.181 438.65 717.051 439.78 715.661 439.78Z" stroke="#2F2E41" stroke-width="2" stroke-miterlimit="10" stroke-linecap="round" stroke-linejoin="round"/>
<path d="M715.661 450.24H684.111C682.721 450.24 681.581 449.11 681.581 447.71V442.3C681.581 440.91 682.711 439.77 684.111 439.77H715.661C717.051 439.77 718.191 440.9 718.191 442.3V447.71C718.181 449.11 717.051 450.24 715.661 450.24Z" stroke="#2F2E41" stroke-width="2" stroke-miterlimit="10" stroke-linecap="round" stroke-linejoin="round"/>
<path d="M688.121 450.24V454.16" stroke="#2F2E41" stroke-width="2" stroke-miterlimit="10" stroke-linecap="round" stroke-linejoin="round"/>
<path d="M711.651 450.24V454.16" stroke="#2F2E41" stroke-width="2" stroke-miterlimit="10" stroke-linecap="round" stroke-linejoin="round"/>
<path d="M687.471 425.41C688.195 425.41 688.781 424.824 688.781 424.1C688.781 423.377 688.195 422.79 687.471 422.79C686.748 422.79 686.161 423.377 686.161 424.1C686.161 424.824 686.748 425.41 687.471 425.41Z" fill="#FF4480"/>
<path d="M687.471 435.87C688.195 435.87 688.781 435.283 688.781 434.56C688.781 433.837 688.195 433.25 687.471 433.25C686.748 433.25 686.161 433.837 686.161 434.56C686.161 435.283 686.748 435.87 687.471 435.87Z" fill="#FF4480"/>
<path d="M687.471 446.32C688.195 446.32 688.781 445.733 688.781 445.01C688.781 444.286 688.195 443.7 687.471 443.7C686.748 443.7 686.161 444.286 686.161 445.01C686.161 445.733 686.748 446.32 687.471 446.32Z" fill="#FF4480"/>
<path d="M681.581 454.16H718.181" stroke="#FF4480" stroke-width="2" stroke-miterlimit="10" stroke-linecap="round" stroke-linejoin="round"/>
</g>
<g filter="url(#filter4_d_86_3804)">
<path d="M599.5 346C599.5 376.652 574.652 401.5 544 401.5C513.348 401.5 488.5 376.652 488.5 346C488.5 315.348 513.348 290.5 544 290.5C574.652 290.5 599.5 315.348 599.5 346Z" fill="white" stroke="#E0E0E0"/>
<path d="M559.77 339.33H528.22C526.83 339.33 525.69 338.2 525.69 336.8V331.39C525.69 330 526.82 328.86 528.22 328.86H559.77C561.16 328.86 562.3 329.99 562.3 331.39V336.8C562.3 338.2 561.17 339.33 559.77 339.33Z" stroke="#2F2E41" stroke-width="2" stroke-miterlimit="10" stroke-linecap="round" stroke-linejoin="round"/>
<path d="M559.77 349.78H528.22C526.83 349.78 525.69 348.65 525.69 347.25V341.84C525.69 340.45 526.82 339.31 528.22 339.31H559.77C561.16 339.31 562.3 340.44 562.3 341.84V347.25C562.3 348.65 561.17 349.78 559.77 349.78Z" stroke="#2F2E41" stroke-width="2" stroke-miterlimit="10" stroke-linecap="round" stroke-linejoin="round"/>
<path d="M559.77 360.24H528.22C526.83 360.24 525.69 359.11 525.69 357.71V352.3C525.69 350.91 526.82 349.77 528.22 349.77H559.77C561.16 349.77 562.3 350.9 562.3 352.3V357.71C562.3 359.11 561.17 360.24 559.77 360.24Z" stroke="#2F2E41" stroke-width="2" stroke-miterlimit="10" stroke-linecap="round" stroke-linejoin="round"/>
<path d="M532.24 360.24V364.16" stroke="#2F2E41" stroke-width="2" stroke-miterlimit="10" stroke-linecap="round" stroke-linejoin="round"/>
<path d="M555.761 360.24V364.16" stroke="#2F2E41" stroke-width="2" stroke-miterlimit="10" stroke-linecap="round" stroke-linejoin="round"/>
<path d="M531.581 335.41C532.304 335.41 532.891 334.824 532.891 334.1C532.891 333.377 532.304 332.79 531.581 332.79C530.857 332.79 530.271 333.377 530.271 334.1C530.271 334.824 530.857 335.41 531.581 335.41Z" fill="#FF4480"/>
<path d="M531.581 345.87C532.304 345.87 532.891 345.283 532.891 344.56C532.891 343.837 532.304 343.25 531.581 343.25C530.857 343.25 530.271 343.837 530.271 344.56C530.271 345.283 530.857 345.87 531.581 345.87Z" fill="#FF4480"/>
<path d="M531.581 356.32C532.304 356.32 532.891 355.733 532.891 355.01C532.891 354.286 532.304 353.7 531.581 353.7C530.857 353.7 530.271 354.286 530.271 355.01C530.271 355.733 530.857 356.32 531.581 356.32Z" fill="#FF4480"/>
<path d="M525.7 364.16H562.3" stroke="#FF4480" stroke-width="2" stroke-miterlimit="10" stroke-linecap="round" stroke-linejoin="round"/>
</g>
<g filter="url(#filter5_d_86_3804)">
<path d="M599.5 166C599.5 196.652 574.652 221.5 544 221.5C513.348 221.5 488.5 196.652 488.5 166C488.5 135.348 513.348 110.5 544 110.5C574.652 110.5 599.5 135.348 599.5 166Z" fill="white" stroke="#E0E0E0"/>
<path d="M559.77 159.33H528.22C526.83 159.33 525.69 158.2 525.69 156.8V151.39C525.69 150 526.82 148.86 528.22 148.86H559.77C561.16 148.86 562.3 149.99 562.3 151.39V156.8C562.3 158.2 561.17 159.33 559.77 159.33Z" stroke="#2F2E41" stroke-width="2" stroke-miterlimit="10" stroke-linecap="round" stroke-linejoin="round"/>
<path d="M559.77 169.78H528.22C526.83 169.78 525.69 168.65 525.69 167.25V161.84C525.69 160.45 526.82 159.31 528.22 159.31H559.77C561.16 159.31 562.3 160.44 562.3 161.84V167.25C562.3 168.65 561.17 169.78 559.77 169.78Z" stroke="#2F2E41" stroke-width="2" stroke-miterlimit="10" stroke-linecap="round" stroke-linejoin="round"/>
<path d="M559.77 180.24H528.22C526.83 180.24 525.69 179.11 525.69 177.71V172.3C525.69 170.91 526.82 169.77 528.22 169.77H559.77C561.16 169.77 562.3 170.9 562.3 172.3V177.71C562.3 179.11 561.17 180.24 559.77 180.24Z" stroke="#2F2E41" stroke-width="2" stroke-miterlimit="10" stroke-linecap="round" stroke-linejoin="round"/>
<path d="M532.24 180.24V184.16" stroke="#2F2E41" stroke-width="2" stroke-miterlimit="10" stroke-linecap="round" stroke-linejoin="round"/>
<path d="M555.761 180.24V184.16" stroke="#2F2E41" stroke-width="2" stroke-miterlimit="10" stroke-linecap="round" stroke-linejoin="round"/>
<path d="M531.581 155.41C532.304 155.41 532.891 154.824 532.891 154.1C532.891 153.377 532.304 152.79 531.581 152.79C530.857 152.79 530.271 153.377 530.271 154.1C530.271 154.824 530.857 155.41 531.581 155.41Z" fill="#FF4480"/>
<path d="M531.581 165.87C532.304 165.87 532.891 165.283 532.891 164.56C532.891 163.837 532.304 163.25 531.581 163.25C530.857 163.25 530.271 163.837 530.271 164.56C530.271 165.283 530.857 165.87 531.581 165.87Z" fill="#FF4480"/>
<path d="M531.581 176.32C532.304 176.32 532.891 175.733 532.891 175.01C532.891 174.286 532.304 173.7 531.581 173.7C530.857 173.7 530.271 174.286 530.271 175.01C530.271 175.733 530.857 176.32 531.581 176.32Z" fill="#FF4480"/>
<path d="M525.7 184.16H562.3" stroke="#FF4480" stroke-width="2" stroke-miterlimit="10" stroke-linecap="round" stroke-linejoin="round"/>
</g>
<circle cx="700" cy="256" r="60" fill="#FF4480"/>
<g filter="url(#filter6_d_86_3804)">
<path d="M151.5 256C151.5 286.652 126.652 311.5 96 311.5C65.3482 311.5 40.5 286.652 40.5 256C40.5 225.348 65.3482 200.5 96 200.5C126.652 200.5 151.5 225.348 151.5 256Z" fill="white" stroke="#E0E0E0"/>
<path d="M93.8598 254.33C98.8856 254.33 102.96 250.256 102.96 245.23C102.96 240.204 98.8856 236.13 93.8598 236.13C88.834 236.13 84.7598 240.204 84.7598 245.23C84.7598 250.256 88.834 254.33 93.8598 254.33Z" fill="white" stroke="#2F2E41" stroke-width="2" stroke-miterlimit="10" stroke-linecap="round" stroke-linejoin="round"/>
<path d="M80.9901 274.38C77.9001 274.38 75.6401 271.34 76.6501 268.42C79.1201 261.29 85.8901 256.17 93.8601 256.17C101.83 256.17 108.6 261.29 111.07 268.42C112.08 271.34 109.82 274.38 106.73 274.38H80.9901Z" fill="white" stroke="#2F2E41" stroke-width="2" stroke-miterlimit="10" stroke-linecap="round" stroke-linejoin="round"/>
<path d="M96.4504 247.38C96.8904 247.38 97.2104 247.8 97.1004 248.22C96.7304 249.67 95.4104 250.74 93.8504 250.74C92.2904 250.74 90.9704 249.67 90.6004 248.22C90.4904 247.8 90.8204 247.38 91.2504 247.38H96.4504Z" fill="#FF4480"/>
<path d="M114.01 275.88H102.31C101.4 275.88 100.67 275.07 100.73 274.11L101.34 263.23C101.39 262.35 102.08 261.65 102.92 261.65H113.4C114.24 261.65 114.93 262.34 114.98 263.23L115.59 274.11C115.65 275.06 114.92 275.88 114.01 275.88Z" fill="white" stroke="#FF4480" stroke-width="2" stroke-miterlimit="10" stroke-linecap="round" stroke-linejoin="round"/>
<path d="M110.93 265.61V260.46C110.93 258.93 109.69 257.68 108.15 257.68C106.62 257.68 105.37 258.92 105.37 260.46V265.61" stroke="#FF4480" stroke-width="2" stroke-miterlimit="10" stroke-linecap="round" stroke-linejoin="round"/>
</g>
<g filter="url(#filter7_d_86_3804)">
<path d="M1359.5 256C1359.5 286.652 1334.65 311.5 1304 311.5C1273.35 311.5 1248.5 286.652 1248.5 256C1248.5 225.348 1273.35 200.5 1304 200.5C1334.65 200.5 1359.5 225.348 1359.5 256Z" fill="white" stroke="#E0E0E0"/>
<path d="M1301.86 254.33C1306.89 254.33 1310.96 250.256 1310.96 245.23C1310.96 240.204 1306.89 236.13 1301.86 236.13C1296.83 236.13 1292.76 240.204 1292.76 245.23C1292.76 250.256 1296.83 254.33 1301.86 254.33Z" fill="white" stroke="#2F2E41" stroke-width="2" stroke-miterlimit="10" stroke-linecap="round" stroke-linejoin="round"/>
<path d="M1289 274.37C1285.91 274.37 1283.65 271.33 1284.66 268.41C1287.13 261.28 1293.9 256.16 1301.87 256.16C1309.84 256.16 1316.61 261.28 1319.08 268.41C1320.09 271.33 1317.83 274.37 1314.74 274.37H1289Z" fill="white" stroke="#2F2E41" stroke-width="2" stroke-miterlimit="10" stroke-linecap="round" stroke-linejoin="round"/>
<path d="M1301.46 272.34L1299.62 270.51C1299.43 270.32 1299.35 270.08 1299.39 269.83L1300.59 262.96C1300.62 262.81 1300.78 262.69 1300.97 262.69H1302.76C1302.95 262.69 1303.11 262.8 1303.14 262.96L1304.34 269.83C1304.38 270.07 1304.3 270.32 1304.11 270.51L1302.27 272.34C1302.05 272.55 1301.67 272.55 1301.46 272.34Z" fill="#FF4480"/>
<path d="M1302.93 259.02H1300.8C1300.5 259.02 1300.27 259.29 1300.32 259.58L1300.57 261.06C1300.61 261.29 1300.81 261.46 1301.05 261.46H1302.68C1302.92 261.46 1303.12 261.29 1303.16 261.06L1303.41 259.58C1303.45 259.29 1303.23 259.02 1302.93 259.02Z" fill="#FF4480"/>
<path d="M1322.11 275.87H1310.28C1309.51 275.87 1308.89 275.25 1308.89 274.48V260.57C1308.89 259.8 1309.51 259.18 1310.28 259.18H1319.26L1323.49 263.35V274.48C1323.5 275.25 1322.88 275.87 1322.11 275.87Z" fill="white" stroke="#FF4480" stroke-width="2" stroke-miterlimit="10" stroke-linecap="round" stroke-linejoin="round"/>
<path d="M1318.64 259.18V262.59C1318.64 263.36 1319.26 263.98 1320.03 263.98H1323.51L1318.64 259.18Z" fill="#FF4480"/>
<path d="M1312.37 267.53H1317.94" stroke="#FF4480" stroke-width="2" stroke-miterlimit="10" stroke-linecap="round" stroke-linejoin="round"/>
<path d="M1312.37 271.7H1320.03" stroke="#FF4480" stroke-width="2" stroke-miterlimit="10" stroke-linecap="round" stroke-linejoin="round"/>
</g>
<path d="M179 258L189 263.774V252.226L179 258ZM520 258L510 252.226V263.774L520 258ZM188 259H511V257H188V259Z" fill="#E0E0E0"/>
<path d="M880 258L890 263.774V252.226L880 258ZM1221 258L1211 252.226V263.774L1221 258ZM889 259H1212V257H889V259Z" fill="#E0E0E0"/>
<path d="M239.443 246.768V248H233.763V246.768H236.035V238.448H235.971L233.731 240.56V238.912L235.971 236.8H237.331V246.768H239.443ZM248.949 248.16C247.605 248.16 246.597 247.701 245.925 246.784C245.264 245.856 244.933 244.656 244.933 243.184V241.52C244.933 240.048 245.264 238.859 245.925 237.952C246.597 237.035 247.605 236.576 248.949 236.576C250.293 236.576 251.296 237.035 251.957 237.952C252.619 238.859 252.949 240.048 252.949 241.52V243.184C252.949 244.656 252.613 245.856 251.941 246.784C251.28 247.701 250.283 248.16 248.949 248.16ZM248.949 246.944C249.76 246.944 250.379 246.624 250.805 245.984C251.243 245.344 251.461 244.395 251.461 243.136V241.584C251.461 240.325 251.248 239.381 250.821 238.752C250.395 238.112 249.771 237.792 248.949 237.792C248.128 237.792 247.499 238.112 247.061 238.752C246.635 239.381 246.421 240.325 246.421 241.584V243.136C246.421 244.395 246.635 245.344 247.061 245.984C247.499 246.624 248.128 246.944 248.949 246.944ZM265.021 246.768V248H259.341V246.768H261.613V238.448H261.549L259.309 240.56V238.912L261.549 236.8H262.909V246.768H265.021ZM276.911 246.768V248H271.231V246.768H273.503V238.448H273.439L271.199 240.56V238.912L273.439 236.8H274.799V246.768H276.911ZM286.418 248.16C285.074 248.16 284.066 247.701 283.394 246.784C282.733 245.856 282.402 244.656 282.402 243.184V241.52C282.402 240.048 282.733 238.859 283.394 237.952C284.066 237.035 285.074 236.576 286.418 236.576C287.762 236.576 288.765 237.035 289.426 237.952C290.087 238.859 290.418 240.048 290.418 241.52V243.184C290.418 244.656 290.082 245.856 289.41 246.784C288.749 247.701 287.751 248.16 286.418 248.16ZM286.418 246.944C287.229 246.944 287.847 246.624 288.274 245.984C288.711 245.344 288.93 244.395 288.93 243.136V241.584C288.93 240.325 288.717 239.381 288.29 238.752C287.863 238.112 287.239 237.792 286.418 237.792C285.597 237.792 284.967 238.112 284.53 238.752C284.103 239.381 283.89 240.325 283.89 241.584V243.136C283.89 244.395 284.103 245.344 284.53 245.984C284.967 246.624 285.597 246.944 286.418 246.944ZM300.152 248.16C298.808 248.16 297.8 247.701 297.128 246.784C296.467 245.856 296.136 244.656 296.136 243.184V241.52C296.136 240.048 296.467 238.859 297.128 237.952C297.8 237.035 298.808 236.576 300.152 236.576C301.496 236.576 302.499 237.035 303.16 237.952C303.822 238.859 304.152 240.048 304.152 241.52V243.184C304.152 244.656 303.816 245.856 303.144 246.784C302.483 247.701 301.486 248.16 300.152 248.16ZM300.152 246.944C300.963 246.944 301.582 246.624 302.008 245.984C302.446 245.344 302.664 244.395 302.664 243.136V241.584C302.664 240.325 302.451 239.381 302.024 238.752C301.598 238.112 300.974 237.792 300.152 237.792C299.331 237.792 298.702 238.112 298.264 238.752C297.838 239.381 297.624 240.325 297.624 241.584V243.136C297.624 244.395 297.838 245.344 298.264 245.984C298.702 246.624 299.331 246.944 300.152 246.944ZM316.224 246.768V248H310.544V246.768H312.816V238.448H312.752L310.512 240.56V238.912L312.752 236.8H314.112V246.768H316.224ZM328.114 246.768V248H322.434V246.768H324.706V238.448H324.642L322.402 240.56V238.912L324.642 236.8H326.002V246.768H328.114ZM337.621 248.16C336.277 248.16 335.269 247.701 334.597 246.784C333.936 245.856 333.605 244.656 333.605 243.184V241.52C333.605 240.048 333.936 238.859 334.597 237.952C335.269 237.035 336.277 236.576 337.621 236.576C338.965 236.576 339.968 237.035 340.629 237.952C341.29 238.859 341.621 240.048 341.621 241.52V243.184C341.621 244.656 341.285 245.856 340.613 246.784C339.952 247.701 338.954 248.16 337.621 248.16ZM337.621 246.944C338.432 246.944 339.05 246.624 339.477 245.984C339.914 245.344 340.133 244.395 340.133 243.136V241.584C340.133 240.325 339.92 239.381 339.493 238.752C339.066 238.112 338.442 237.792 337.621 237.792C336.8 237.792 336.17 238.112 335.733 238.752C335.306 239.381 335.093 240.325 335.093 241.584V243.136C335.093 244.395 335.306 245.344 335.733 245.984C336.17 246.624 336.8 246.944 337.621 246.944ZM353.693 246.768V248H348.013V246.768H350.285V238.448H350.221L347.981 240.56V238.912L350.221 236.8H351.581V246.768H353.693ZM363.199 248.16C361.855 248.16 360.847 247.701 360.175 246.784C359.514 245.856 359.183 244.656 359.183 243.184V241.52C359.183 240.048 359.514 238.859 360.175 237.952C360.847 237.035 361.855 236.576 363.199 236.576C364.543 236.576 365.546 237.035 366.207 237.952C366.869 238.859 367.199 240.048 367.199 241.52V243.184C367.199 244.656 366.863 245.856 366.191 246.784C365.53 247.701 364.533 248.16 363.199 248.16ZM363.199 246.944C364.01 246.944 364.629 246.624 365.055 245.984C365.493 245.344 365.711 244.395 365.711 243.136V241.584C365.711 240.325 365.498 239.381 365.071 238.752C364.645 238.112 364.021 237.792 363.199 237.792C362.378 237.792 361.749 238.112 361.311 238.752C360.885 239.381 360.671 240.325 360.671 241.584V243.136C360.671 244.395 360.885 245.344 361.311 245.984C361.749 246.624 362.378 246.944 363.199 246.944ZM379.271 246.768V248H373.591V246.768H375.863V238.448H375.799L373.559 240.56V238.912L375.799 236.8H377.159V246.768H379.271ZM388.777 248.16C387.433 248.16 386.425 247.701 385.753 246.784C385.092 245.856 384.761 244.656 384.761 243.184V241.52C384.761 240.048 385.092 238.859 385.753 237.952C386.425 237.035 387.433 236.576 388.777 236.576C390.121 236.576 391.124 237.035 391.785 237.952C392.447 238.859 392.777 240.048 392.777 241.52V243.184C392.777 244.656 392.441 245.856 391.769 246.784C391.108 247.701 390.111 248.16 388.777 248.16ZM388.777 246.944C389.588 246.944 390.207 246.624 390.633 245.984C391.071 245.344 391.289 244.395 391.289 243.136V241.584C391.289 240.325 391.076 239.381 390.649 238.752C390.223 238.112 389.599 237.792 388.777 237.792C387.956 237.792 387.327 238.112 386.889 238.752C386.463 239.381 386.249 240.325 386.249 241.584V243.136C386.249 244.395 386.463 245.344 386.889 245.984C387.327 246.624 387.956 246.944 388.777 246.944ZM404.849 246.768V248H399.169V246.768H401.441V238.448H401.377L399.137 240.56V238.912L401.377 236.8H402.737V246.768H404.849ZM416.739 246.768V248H411.059V246.768H413.331V238.448H413.267L411.027 240.56V238.912L413.267 236.8H414.627V246.768H416.739ZM426.246 248.16C424.902 248.16 423.894 247.701 423.222 246.784C422.561 245.856 422.23 244.656 422.23 243.184V241.52C422.23 240.048 422.561 238.859 423.222 237.952C423.894 237.035 424.902 236.576 426.246 236.576C427.59 236.576 428.593 237.035 429.254 237.952C429.915 238.859 430.246 240.048 430.246 241.52V243.184C430.246 244.656 429.91 245.856 429.238 246.784C428.577 247.701 427.579 248.16 426.246 248.16ZM426.246 246.944C427.057 246.944 427.675 246.624 428.102 245.984C428.539 245.344 428.758 244.395 428.758 243.136V241.584C428.758 240.325 428.545 239.381 428.118 238.752C427.691 238.112 427.067 237.792 426.246 237.792C425.425 237.792 424.795 238.112 424.358 238.752C423.931 239.381 423.718 240.325 423.718 241.584V243.136C423.718 244.395 423.931 245.344 424.358 245.984C424.795 246.624 425.425 246.944 426.246 246.944ZM442.318 246.768V248H436.638V246.768H438.91V238.448H438.846L436.606 240.56V238.912L438.846 236.8H440.206V246.768H442.318ZM454.208 246.768V248H448.528V246.768H450.8V238.448H450.736L448.496 240.56V238.912L450.736 236.8H452.096V246.768H454.208ZM466.099 246.768V248H460.419V246.768H462.691V238.448H462.627L460.387 240.56V238.912L462.627 236.8H463.987V246.768H466.099Z" fill="#FF4480"/>
<path d="M940.443 246.768V248H934.763V246.768H937.035V238.448H936.971L934.731 240.56V238.912L936.971 236.8H938.331V246.768H940.443ZM949.949 248.16C948.605 248.16 947.597 247.701 946.925 246.784C946.264 245.856 945.933 244.656 945.933 243.184V241.52C945.933 240.048 946.264 238.859 946.925 237.952C947.597 237.035 948.605 236.576 949.949 236.576C951.293 236.576 952.296 237.035 952.957 237.952C953.619 238.859 953.949 240.048 953.949 241.52V243.184C953.949 244.656 953.613 245.856 952.941 246.784C952.28 247.701 951.283 248.16 949.949 248.16ZM949.949 246.944C950.76 246.944 951.379 246.624 951.805 245.984C952.243 245.344 952.461 244.395 952.461 243.136V241.584C952.461 240.325 952.248 239.381 951.821 238.752C951.395 238.112 950.771 237.792 949.949 237.792C949.128 237.792 948.499 238.112 948.061 238.752C947.635 239.381 947.421 240.325 947.421 241.584V243.136C947.421 244.395 947.635 245.344 948.061 245.984C948.499 246.624 949.128 246.944 949.949 246.944ZM966.021 246.768V248H960.341V246.768H962.613V238.448H962.549L960.309 240.56V238.912L962.549 236.8H963.909V246.768H966.021ZM977.911 246.768V248H972.231V246.768H974.503V238.448H974.439L972.199 240.56V238.912L974.439 236.8H975.799V246.768H977.911ZM987.418 248.16C986.074 248.16 985.066 247.701 984.394 246.784C983.733 245.856 983.402 244.656 983.402 243.184V241.52C983.402 240.048 983.733 238.859 984.394 237.952C985.066 237.035 986.074 236.576 987.418 236.576C988.762 236.576 989.765 237.035 990.426 237.952C991.087 238.859 991.418 240.048 991.418 241.52V243.184C991.418 244.656 991.082 245.856 990.41 246.784C989.749 247.701 988.751 248.16 987.418 248.16ZM987.418 246.944C988.229 246.944 988.847 246.624 989.274 245.984C989.711 245.344 989.93 244.395 989.93 243.136V241.584C989.93 240.325 989.717 239.381 989.29 238.752C988.863 238.112 988.239 237.792 987.418 237.792C986.597 237.792 985.967 238.112 985.53 238.752C985.103 239.381 984.89 240.325 984.89 241.584V243.136C984.89 244.395 985.103 245.344 985.53 245.984C985.967 246.624 986.597 246.944 987.418 246.944ZM1001.15 248.16C999.808 248.16 998.8 247.701 998.128 246.784C997.467 245.856 997.136 244.656 997.136 243.184V241.52C997.136 240.048 997.467 238.859 998.128 237.952C998.8 237.035 999.808 236.576 1001.15 236.576C1002.5 236.576 1003.5 237.035 1004.16 237.952C1004.82 238.859 1005.15 240.048 1005.15 241.52V243.184C1005.15 244.656 1004.82 245.856 1004.14 246.784C1003.48 247.701 1002.49 248.16 1001.15 248.16ZM1001.15 246.944C1001.96 246.944 1002.58 246.624 1003.01 245.984C1003.45 245.344 1003.66 244.395 1003.66 243.136V241.584C1003.66 240.325 1003.45 239.381 1003.02 238.752C1002.6 238.112 1001.97 237.792 1001.15 237.792C1000.33 237.792 999.702 238.112 999.264 238.752C998.838 239.381 998.624 240.325 998.624 241.584V243.136C998.624 244.395 998.838 245.344 999.264 245.984C999.702 246.624 1000.33 246.944 1001.15 246.944ZM1017.22 246.768V248H1011.54V246.768H1013.82V238.448H1013.75L1011.51 240.56V238.912L1013.75 236.8H1015.11V246.768H1017.22ZM1029.11 246.768V248H1023.43V246.768H1025.71V238.448H1025.64L1023.4 240.56V238.912L1025.64 236.8H1027V246.768H1029.11ZM1038.62 248.16C1037.28 248.16 1036.27 247.701 1035.6 246.784C1034.94 245.856 1034.61 244.656 1034.61 243.184V241.52C1034.61 240.048 1034.94 238.859 1035.6 237.952C1036.27 237.035 1037.28 236.576 1038.62 236.576C1039.97 236.576 1040.97 237.035 1041.63 237.952C1042.29 238.859 1042.62 240.048 1042.62 241.52V243.184C1042.62 244.656 1042.29 245.856 1041.61 246.784C1040.95 247.701 1039.95 248.16 1038.62 248.16ZM1038.62 246.944C1039.43 246.944 1040.05 246.624 1040.48 245.984C1040.91 245.344 1041.13 244.395 1041.13 243.136V241.584C1041.13 240.325 1040.92 239.381 1040.49 238.752C1040.07 238.112 1039.44 237.792 1038.62 237.792C1037.8 237.792 1037.17 238.112 1036.73 238.752C1036.31 239.381 1036.09 240.325 1036.09 241.584V243.136C1036.09 244.395 1036.31 245.344 1036.73 245.984C1037.17 246.624 1037.8 246.944 1038.62 246.944ZM1054.69 246.768V248H1049.01V246.768H1051.28V238.448H1051.22L1048.98 240.56V238.912L1051.22 236.8H1052.58V246.768H1054.69ZM1064.2 248.16C1062.86 248.16 1061.85 247.701 1061.18 246.784C1060.51 245.856 1060.18 244.656 1060.18 243.184V241.52C1060.18 240.048 1060.51 238.859 1061.18 237.952C1061.85 237.035 1062.86 236.576 1064.2 236.576C1065.54 236.576 1066.55 237.035 1067.21 237.952C1067.87 238.859 1068.2 240.048 1068.2 241.52V243.184C1068.2 244.656 1067.86 245.856 1067.19 246.784C1066.53 247.701 1065.53 248.16 1064.2 248.16ZM1064.2 246.944C1065.01 246.944 1065.63 246.624 1066.06 245.984C1066.49 245.344 1066.71 244.395 1066.71 243.136V241.584C1066.71 240.325 1066.5 239.381 1066.07 238.752C1065.64 238.112 1065.02 237.792 1064.2 237.792C1063.38 237.792 1062.75 238.112 1062.31 238.752C1061.88 239.381 1061.67 240.325 1061.67 241.584V243.136C1061.67 244.395 1061.88 245.344 1062.31 245.984C1062.75 246.624 1063.38 246.944 1064.2 246.944ZM1080.27 246.768V248H1074.59V246.768H1076.86V238.448H1076.8L1074.56 240.56V238.912L1076.8 236.8H1078.16V246.768H1080.27ZM1089.78 248.16C1088.43 248.16 1087.43 247.701 1086.75 246.784C1086.09 245.856 1085.76 244.656 1085.76 243.184V241.52C1085.76 240.048 1086.09 238.859 1086.75 237.952C1087.43 237.035 1088.43 236.576 1089.78 236.576C1091.12 236.576 1092.12 237.035 1092.79 237.952C1093.45 238.859 1093.78 240.048 1093.78 241.52V243.184C1093.78 244.656 1093.44 245.856 1092.77 246.784C1092.11 247.701 1091.11 248.16 1089.78 248.16ZM1089.78 246.944C1090.59 246.944 1091.21 246.624 1091.63 245.984C1092.07 245.344 1092.29 244.395 1092.29 243.136V241.584C1092.29 240.325 1092.08 239.381 1091.65 238.752C1091.22 238.112 1090.6 237.792 1089.78 237.792C1088.96 237.792 1088.33 238.112 1087.89 238.752C1087.46 239.381 1087.25 240.325 1087.25 241.584V243.136C1087.25 244.395 1087.46 245.344 1087.89 245.984C1088.33 246.624 1088.96 246.944 1089.78 246.944ZM1105.85 246.768V248H1100.17V246.768H1102.44V238.448H1102.38L1100.14 240.56V238.912L1102.38 236.8H1103.74V246.768H1105.85ZM1117.74 246.768V248H1112.06V246.768H1114.33V238.448H1114.27L1112.03 240.56V238.912L1114.27 236.8H1115.63V246.768H1117.74ZM1127.25 248.16C1125.9 248.16 1124.89 247.701 1124.22 246.784C1123.56 245.856 1123.23 244.656 1123.23 243.184V241.52C1123.23 240.048 1123.56 238.859 1124.22 237.952C1124.89 237.035 1125.9 236.576 1127.25 236.576C1128.59 236.576 1129.59 237.035 1130.25 237.952C1130.92 238.859 1131.25 240.048 1131.25 241.52V243.184C1131.25 244.656 1130.91 245.856 1130.24 246.784C1129.58 247.701 1128.58 248.16 1127.25 248.16ZM1127.25 246.944C1128.06 246.944 1128.68 246.624 1129.1 245.984C1129.54 245.344 1129.76 244.395 1129.76 243.136V241.584C1129.76 240.325 1129.54 239.381 1129.12 238.752C1128.69 238.112 1128.07 237.792 1127.25 237.792C1126.42 237.792 1125.8 238.112 1125.36 238.752C1124.93 239.381 1124.72 240.325 1124.72 241.584V243.136C1124.72 244.395 1124.93 245.344 1125.36 245.984C1125.8 246.624 1126.42 246.944 1127.25 246.944ZM1143.32 246.768V248H1137.64V246.768H1139.91V238.448H1139.85L1137.61 240.56V238.912L1139.85 236.8H1141.21V246.768H1143.32ZM1155.21 246.768V248H1149.53V246.768H1151.8V238.448H1151.74L1149.5 240.56V238.912L1151.74 236.8H1153.1V246.768H1155.21ZM1167.1 246.768V248H1161.42V246.768H1163.69V238.448H1163.63L1161.39 240.56V238.912L1163.63 236.8H1164.99V246.768H1167.1Z" fill="#FF4480"/>
<path d="M699.414 266.671C694.595 266.671 690.718 262.797 690.718 257.981V240.496C690.718 238.506 692.395 236.831 694.385 236.831C696.376 236.831 698.052 238.506 698.052 240.496V257.981C698.052 258.714 698.681 259.342 699.414 259.342C700.147 259.342 700.776 258.714 700.776 257.981V240.496C700.776 235.994 697.109 232.329 692.604 232.329C688.099 232.329 684.432 235.994 684.432 240.496V263.007C684.432 264.996 682.756 266.671 680.765 266.671C678.775 266.671 677.099 264.996 677.099 263.007V240.496C677.099 231.91 684.013 225 692.604 225C701.195 225 708.11 231.91 708.11 240.496V257.981C708.11 262.693 704.233 266.671 699.414 266.671Z" fill="white"/>
<path d="M718.586 266.671C716.596 266.671 714.92 264.996 714.92 263.007V235.994C714.92 234.004 713.348 232.329 711.253 232.329C709.262 232.329 707.586 230.654 707.586 228.665C707.586 226.675 709.367 225 711.358 225C717.434 225 722.358 229.921 722.358 235.994V263.007C722.253 264.996 720.682 266.671 718.586 266.671Z" fill="white"/>
<path d="M681.405 285.938C681.158 285.938 680.973 285.877 680.787 285.692C680.602 285.506 680.54 285.321 680.54 285.074V280.57L678.318 283.347C678.133 283.594 677.947 283.655 677.639 283.655C677.33 283.655 677.145 283.532 676.959 283.347L674.737 280.57V285.074C674.737 285.321 674.675 285.506 674.49 285.692C674.304 285.877 674.119 285.938 673.872 285.938C673.625 285.938 673.44 285.877 673.255 285.692C673.07 285.506 673.008 285.321 673.008 285.074V278.04C673.008 277.608 673.193 277.361 673.625 277.238C673.996 277.115 674.366 277.176 674.613 277.546L677.7 281.434L680.787 277.546C681.034 277.238 681.343 277.115 681.775 277.238C682.208 277.361 682.393 277.67 682.393 278.04V285.074C682.393 285.321 682.331 285.506 682.146 285.692C681.837 285.877 681.652 285.938 681.405 285.938Z" fill="white"/>
<path d="M692.025 284.642C692.149 284.889 692.149 285.074 692.087 285.321C692.025 285.568 691.84 285.691 691.655 285.815C691.531 285.876 691.408 285.938 691.284 285.938C690.914 285.938 690.667 285.753 690.482 285.445L689.864 284.21H685.666L685.048 285.445C684.925 285.691 684.801 285.815 684.554 285.876C684.307 285.938 684.122 285.938 683.875 285.815C683.628 285.691 683.505 285.568 683.443 285.321C683.381 285.074 683.381 284.889 683.505 284.642L686.962 277.67C687.086 277.361 687.394 277.238 687.765 277.238C688.135 277.238 688.382 277.361 688.568 277.67L692.025 284.642ZM688.938 282.421L687.765 280.015L686.53 282.421H688.938Z" fill="white"/>
<path d="M693.197 278.04C693.197 277.793 693.259 277.608 693.444 277.423C693.629 277.238 693.815 277.176 694.062 277.176H697.828C698.692 277.176 699.433 277.485 700.051 278.102C700.668 278.719 700.977 279.459 700.977 280.323C700.977 280.879 700.853 281.434 700.545 281.928C700.236 282.421 699.866 282.791 699.433 283.038L700.792 284.519C700.977 284.704 701.039 284.889 701.039 285.136C701.039 285.383 700.915 285.568 700.73 285.753C700.545 285.877 700.359 286 700.113 286C699.866 286 699.619 285.877 699.433 285.692L697.458 283.47H694.988V285.075C694.988 285.321 694.926 285.506 694.741 285.692C694.556 285.877 694.37 285.938 694.123 285.938C693.876 285.938 693.691 285.877 693.506 285.692C693.321 285.506 693.259 285.321 693.259 285.075V278.04H693.197ZM694.926 281.681H697.828C698.198 281.681 698.507 281.557 698.816 281.31C699.063 281.064 699.186 280.693 699.186 280.323C699.186 279.953 699.063 279.583 698.816 279.336C698.569 279.089 698.198 278.966 697.828 278.966H694.926V281.681Z" fill="white"/>
<path d="M702.336 278.904C702.089 278.904 701.904 278.842 701.719 278.657C701.533 278.472 701.472 278.287 701.472 278.04C701.472 277.793 701.533 277.608 701.719 277.423C701.904 277.238 702.089 277.176 702.336 277.176H708.325C708.572 277.176 708.757 277.238 708.943 277.423C709.128 277.608 709.19 277.793 709.19 278.04C709.19 278.287 709.128 278.472 708.943 278.657C708.757 278.842 708.572 278.904 708.325 278.904H706.164V285.013C706.164 285.26 706.102 285.445 705.917 285.63C705.732 285.815 705.547 285.877 705.3 285.877C705.053 285.877 704.868 285.815 704.682 285.63C704.497 285.445 704.435 285.26 704.435 285.013V278.904H702.336Z" fill="white"/>
<path d="M711.103 285.938C710.856 285.938 710.67 285.877 710.485 285.692C710.3 285.506 710.238 285.321 710.238 285.075V278.04C710.238 277.793 710.3 277.608 710.485 277.423C710.67 277.238 710.856 277.176 711.103 277.176H717.092C717.339 277.176 717.524 277.238 717.709 277.423C717.894 277.608 717.956 277.793 717.956 278.04C717.956 278.287 717.894 278.472 717.709 278.657C717.524 278.842 717.339 278.904 717.092 278.904H711.967V280.693H716.598C716.845 280.693 717.03 280.755 717.215 280.94C717.401 281.125 717.462 281.311 717.462 281.557C717.462 281.804 717.401 281.989 717.215 282.174C717.03 282.359 716.845 282.421 716.598 282.421H711.967V284.149H717.092C717.339 284.149 717.524 284.211 717.709 284.396C717.894 284.581 717.956 284.766 717.956 285.013C717.956 285.26 717.894 285.445 717.709 285.63C717.524 285.815 717.339 285.877 717.092 285.877H711.103V285.938Z" fill="white"/>
<path d="M726.107 277.361C726.293 277.546 726.416 277.731 726.416 277.978C726.416 278.225 726.354 278.41 726.231 278.595L723.699 281.495L726.231 284.457C726.416 284.642 726.478 284.827 726.416 285.074C726.354 285.321 726.293 285.506 726.107 285.691C725.922 285.815 725.737 285.876 725.552 285.876C725.305 285.876 725.058 285.753 724.873 285.568L722.526 282.853L720.18 285.568C719.995 285.753 719.81 285.876 719.501 285.876C719.254 285.876 719.069 285.815 718.945 285.691C718.76 285.506 718.636 285.321 718.636 285.074C718.636 284.827 718.698 284.642 718.822 284.457L721.353 281.495L718.822 278.595C718.636 278.41 718.575 278.225 718.636 277.978C718.636 277.731 718.76 277.546 718.945 277.361C719.13 277.176 719.377 277.114 719.563 277.176C719.81 277.176 719.995 277.299 720.18 277.484L722.526 280.2L724.873 277.484C725.058 277.299 725.243 277.176 725.49 277.176C725.737 277.176 725.922 277.238 726.107 277.361Z" fill="white"/>
<defs>
<filter id="filter0_d_86_3804" x="635.881" y="16" width="128" height="128" filterUnits="userSpaceOnUse" color-interpolation-filters="sRGB">
<feFlood flood-opacity="0" result="BackgroundImageFix"/>
<feColorMatrix in="SourceAlpha" type="matrix" values="0 0 0 0 0 0 0 0 0 0 0 0 0 0 0 0 0 0 127 0" result="hardAlpha"/>
<feOffset dy="4"/>
<feGaussianBlur stdDeviation="4"/>
<feComposite in2="hardAlpha" operator="out"/>
<feColorMatrix type="matrix" values="0 0 0 0 0.101961 0 0 0 0 0.168627 0 0 0 0 0.419608 0 0 0 0.15 0"/>
<feBlend mode="normal" in2="BackgroundImageFix" result="effect1_dropShadow_86_3804"/>
<feBlend mode="normal" in="SourceGraphic" in2="effect1_dropShadow_86_3804" result="shape"/>
</filter>
<filter id="filter1_d_86_3804" x="791.77" y="106" width="128" height="128" filterUnits="userSpaceOnUse" color-interpolation-filters="sRGB">
<feFlood flood-opacity="0" result="BackgroundImageFix"/>
<feColorMatrix in="SourceAlpha" type="matrix" values="0 0 0 0 0 0 0 0 0 0 0 0 0 0 0 0 0 0 127 0" result="hardAlpha"/>
<feOffset dy="4"/>
<feGaussianBlur stdDeviation="4"/>
<feComposite in2="hardAlpha" operator="out"/>
<feColorMatrix type="matrix" values="0 0 0 0 0.101961 0 0 0 0 0.168627 0 0 0 0 0.419608 0 0 0 0.15 0"/>
<feBlend mode="normal" in2="BackgroundImageFix" result="effect1_dropShadow_86_3804"/>
<feBlend mode="normal" in="SourceGraphic" in2="effect1_dropShadow_86_3804" result="shape"/>
</filter>
<filter id="filter2_d_86_3804" x="791.77" y="286" width="128" height="128" filterUnits="userSpaceOnUse" color-interpolation-filters="sRGB">
<feFlood flood-opacity="0" result="BackgroundImageFix"/>
<feColorMatrix in="SourceAlpha" type="matrix" values="0 0 0 0 0 0 0 0 0 0 0 0 0 0 0 0 0 0 127 0" result="hardAlpha"/>
<feOffset dy="4"/>
<feGaussianBlur stdDeviation="4"/>
<feComposite in2="hardAlpha" operator="out"/>
<feColorMatrix type="matrix" values="0 0 0 0 0.101961 0 0 0 0 0.168627 0 0 0 0 0.419608 0 0 0 0.15 0"/>
<feBlend mode="normal" in2="BackgroundImageFix" result="effect1_dropShadow_86_3804"/>
<feBlend mode="normal" in="SourceGraphic" in2="effect1_dropShadow_86_3804" result="shape"/>
</filter>
<filter id="filter3_d_86_3804" x="635.881" y="376" width="128" height="128" filterUnits="userSpaceOnUse" color-interpolation-filters="sRGB">
<feFlood flood-opacity="0" result="BackgroundImageFix"/>
<feColorMatrix in="SourceAlpha" type="matrix" values="0 0 0 0 0 0 0 0 0 0 0 0 0 0 0 0 0 0 127 0" result="hardAlpha"/>
<feOffset dy="4"/>
<feGaussianBlur stdDeviation="4"/>
<feComposite in2="hardAlpha" operator="out"/>
<feColorMatrix type="matrix" values="0 0 0 0 0.101961 0 0 0 0 0.168627 0 0 0 0 0.419608 0 0 0 0.15 0"/>
<feBlend mode="normal" in2="BackgroundImageFix" result="effect1_dropShadow_86_3804"/>
<feBlend mode="normal" in="SourceGraphic" in2="effect1_dropShadow_86_3804" result="shape"/>
</filter>
<filter id="filter4_d_86_3804" x="480" y="286" width="128" height="128" filterUnits="userSpaceOnUse" color-interpolation-filters="sRGB">
<feFlood flood-opacity="0" result="BackgroundImageFix"/>
<feColorMatrix in="SourceAlpha" type="matrix" values="0 0 0 0 0 0 0 0 0 0 0 0 0 0 0 0 0 0 127 0" result="hardAlpha"/>
<feOffset dy="4"/>
<feGaussianBlur stdDeviation="4"/>
<feComposite in2="hardAlpha" operator="out"/>
<feColorMatrix type="matrix" values="0 0 0 0 0.101961 0 0 0 0 0.168627 0 0 0 0 0.419608 0 0 0 0.15 0"/>
<feBlend mode="normal" in2="BackgroundImageFix" result="effect1_dropShadow_86_3804"/>
<feBlend mode="normal" in="SourceGraphic" in2="effect1_dropShadow_86_3804" result="shape"/>
</filter>
<filter id="filter5_d_86_3804" x="480" y="106" width="128" height="128" filterUnits="userSpaceOnUse" color-interpolation-filters="sRGB">
<feFlood flood-opacity="0" result="BackgroundImageFix"/>
<feColorMatrix in="SourceAlpha" type="matrix" values="0 0 0 0 0 0 0 0 0 0 0 0 0 0 0 0 0 0 127 0" result="hardAlpha"/>
<feOffset dy="4"/>
<feGaussianBlur stdDeviation="4"/>
<feComposite in2="hardAlpha" operator="out"/>
<feColorMatrix type="matrix" values="0 0 0 0 0.101961 0 0 0 0 0.168627 0 0 0 0 0.419608 0 0 0 0.15 0"/>
<feBlend mode="normal" in2="BackgroundImageFix" result="effect1_dropShadow_86_3804"/>
<feBlend mode="normal" in="SourceGraphic" in2="effect1_dropShadow_86_3804" result="shape"/>
</filter>
<filter id="filter6_d_86_3804" x="32" y="196" width="128" height="128" filterUnits="userSpaceOnUse" color-interpolation-filters="sRGB">
<feFlood flood-opacity="0" result="BackgroundImageFix"/>
<feColorMatrix in="SourceAlpha" type="matrix" values="0 0 0 0 0 0 0 0 0 0 0 0 0 0 0 0 0 0 127 0" result="hardAlpha"/>
<feOffset dy="4"/>
<feGaussianBlur stdDeviation="4"/>
<feComposite in2="hardAlpha" operator="out"/>
<feColorMatrix type="matrix" values="0 0 0 0 0.101961 0 0 0 0 0.168627 0 0 0 0 0.419608 0 0 0 0.15 0"/>
<feBlend mode="normal" in2="BackgroundImageFix" result="effect1_dropShadow_86_3804"/>
<feBlend mode="normal" in="SourceGraphic" in2="effect1_dropShadow_86_3804" result="shape"/>
</filter>
<filter id="filter7_d_86_3804" x="1240" y="196" width="128" height="128" filterUnits="userSpaceOnUse" color-interpolation-filters="sRGB">
<feFlood flood-opacity="0" result="BackgroundImageFix"/>
<feColorMatrix in="SourceAlpha" type="matrix" values="0 0 0 0 0 0 0 0 0 0 0 0 0 0 0 0 0 0 127 0" result="hardAlpha"/>
<feOffset dy="4"/>
<feGaussianBlur stdDeviation="4"/>
<feComposite in2="hardAlpha" operator="out"/>
<feColorMatrix type="matrix" values="0 0 0 0 0.101961 0 0 0 0 0.168627 0 0 0 0 0.419608 0 0 0 0.15 0"/>
<feBlend mode="normal" in2="BackgroundImageFix" result="effect1_dropShadow_86_3804"/>
<feBlend mode="normal" in="SourceGraphic" in2="effect1_dropShadow_86_3804" result="shape"/>
</filter>
</defs>
</svg>
