<?xml version="1.0" encoding="utf-8"?>
<!-- Generator: Adobe Illustrator 24.1.3, SVG Export Plug-In . SVG Version: 6.00 Build 0)  -->
<svg version="1.1" id="图层_1" xmlns="http://www.w3.org/2000/svg" xmlns:xlink="http://www.w3.org/1999/xlink" x="0px" y="0px"
	 viewBox="0 0 681 558" style="enable-background:new 0 0 681 558;" xml:space="preserve">
<style type="text/css">
	.st0{fill:#515667;}
	.st1{fill:#FFFFFF;stroke:#21202F;stroke-linejoin:round;stroke-miterlimit:10;}
	.st2{fill:#E6E6E6;}
	.st3{fill:#FFFFFF;stroke:#E0E0E0;stroke-linejoin:round;stroke-miterlimit:10;}
	.st4{fill:#E6E6E6;stroke:#E6E6E6;stroke-linejoin:round;stroke-miterlimit:10;}
	.st5{fill:#2F2E41;}
	.st6{fill:#FF4480;}
	.st7{fill:#FFFFFF;}
	.st8{fill:#E0E0E0;}
	.st9{fill:none;stroke:#FFFFFF;stroke-width:2;}
	.st10{fill:none;stroke:#FFFFFF;stroke-width:2;stroke-linecap:round;stroke-linejoin:round;stroke-miterlimit:10;}
	.st11{fill:none;stroke:#FFFFFF;stroke-width:2;stroke-linecap:round;stroke-miterlimit:10;}
	.st12{fill:#D44E72;}
	.st13{fill:#FFB8B8;stroke:#FAA5A5;stroke-linejoin:round;stroke-miterlimit:10;}
	.st14{fill:#21202F;}
	.st15{fill:#FFB8B8;}
	.st16{fill:none;stroke:#FAA5A5;stroke-linejoin:round;stroke-miterlimit:10;}
	.st17{fill:#A0616A;}
	.st18{fill:none;stroke:#2F2E41;stroke-miterlimit:10;}
	.st19{fill:none;stroke:#2F2E41;stroke-linecap:round;stroke-miterlimit:10;}
	.st20{fill:#FAA5A5;}
	.st21{fill:none;stroke:#FAA5A5;stroke-linecap:round;stroke-miterlimit:10;}
	.st22{fill:#864B53;}
	.st23{fill:#FFFFFF;stroke:#E6E6E6;}
	.st24{fill:#FF4480;}
</style>
<path class="st0" d="M80.5,477.2h445.2c8.7,0,15.8-7.1,15.8-15.8V178.1c0-8.7-7.1-15.8-15.8-15.8H80.5c-8.7,0-15.8,7.1-15.8,15.8
	v283.2C64.7,470.1,71.8,477.2,80.5,477.2z"/>
<path class="st1" d="M86.6,477.2h433.1c3.9,0,7-3.1,7-7V185.7c0-3.9-3.1-7-7-7H86.6c-3.9,0-7,3.1-7,7v284.5
	C79.6,474.1,82.7,477.2,86.6,477.2z"/>
<path class="st0" d="M40.9,497h524.5c18.1,0,32.8-14.7,32.8-32.8c0-6.5-5.2-11.7-11.7-11.7H19.8c-6.5,0-11.7,5.2-11.7,11.7
	C8.1,482.3,22.7,497,40.9,497z"/>
<path class="st2" d="M143.7,376h333.8c2.2,0,4,1.8,4,4v49.9c0,2.2-1.8,4-4,4H143.7c-2.2,0-4-1.8-4-4V380
	C139.7,377.8,141.5,376,143.7,376z"/>
<path class="st2" d="M312.5,229.4h165c2.2,0,4,1.8,4,4v11.1c0,2.2-1.8,4-4,4h-165c-2.2,0-4-1.8-4-4v-11.1
	C308.5,231.2,310.3,229.4,312.5,229.4z"/>
<path class="st2" d="M128.6,229.4h165c2.2,0,4,1.8,4,4v11.1c0,2.2-1.8,4-4,4h-165c-2.2,0-4-1.8-4-4v-11.1
	C124.6,231.2,126.4,229.4,128.6,229.4z"/>
<path class="st2" d="M128.6,265.8h165c2.2,0,4,1.8,4,4v11.1c0,2.2-1.8,4-4,4h-165c-2.2,0-4-1.8-4-4v-11.1
	C124.6,267.6,126.4,265.8,128.6,265.8z"/>
<path class="st2" d="M128.6,302.2h165c2.2,0,4,1.8,4,4v11.1c0,2.2-1.8,4-4,4h-165c-2.2,0-4-1.8-4-4v-11.1
	C124.6,304,126.4,302.2,128.6,302.2z"/>
<path class="st2" d="M128.6,338.6h165c2.2,0,4,1.8,4,4v11.1c0,2.2-1.8,4-4,4h-165c-2.2,0-4-1.8-4-4v-11.1
	C124.6,340.4,126.4,338.6,128.6,338.6z"/>
<path class="st3" d="M7.6,483.1H264c3.7,0,6.6-3,6.6-6.6V314.1c0-3.6-3-6.6-6.6-6.6H7.6c-3.7,0-6.6,3-6.6,6.6v162.4
	C1,480.1,4,483.1,7.6,483.1z"/>
<path class="st4" d="M31.8,338.7h95.3c4.4,0,8,3.6,8,8V442c0,4.4-3.6,8-8,8H31.8c-4.4,0-8-3.6-8-8v-95.3
	C23.8,342.3,27.4,338.7,31.8,338.7z"/>
<path class="st2" d="M193.9,353.2h55.5c2.2,0,4,1.8,4,4v7.9c0,2.2-1.8,4-4,4h-55.5c-2.2,0-4-1.8-4-4v-7.9
	C189.9,355,191.7,353.2,193.9,353.2z"/>
<path class="st2" d="M159,383.9h90.5c2.2,0,4,1.8,4,4v7.9c0,2.2-1.8,4-4,4H159c-2.2,0-4-1.8-4-4v-7.9
	C155,385.7,156.8,383.9,159,383.9z"/>
<path class="st2" d="M159,414.9h90.5c2.2,0,4,1.8,4,4V446c0,2.2-1.8,4-4,4H159c-2.2,0-4-1.8-4-4v-27.1
	C155,416.7,156.8,414.9,159,414.9z"/>
<path class="st2" d="M312.5,274.1h165c2.2,0,4,1.8,4,4v75.6c0,2.2-1.8,4-4,4h-165c-2.2,0-4-1.8-4-4v-75.6
	C308.5,275.9,310.3,274.1,312.5,274.1z"/>
<path class="st2" d="M250.7,326.6c-1.9,0-3.5-1.5-3.5-3.5c0-1.9,1.5-3.4,3.5-3.4s3.5,1.5,3.5,3.4
	C254.1,325.1,252.6,326.6,250.7,326.6z"/>
<path class="st5" d="M239.2,326.6c-1.9,0-3.4-1.5-3.4-3.5c0-1.9,1.5-3.4,3.4-3.4c1.9,0,3.5,1.5,3.5,3.4
	C242.7,325.1,241.1,326.6,239.2,326.6z"/>
<path class="st6" d="M227.8,326.6c-1.9,0-3.4-1.5-3.4-3.5c0-1.9,1.5-3.4,3.4-3.4c1.9,0,3.5,1.5,3.5,3.4
	C231.2,325.1,229.7,326.6,227.8,326.6z"/>
<path class="st2" d="M526.6,91.1v180.3c0,4.9,4,8.9,8.9,8.9h136.3c5.1,0,9.2-4.1,9.2-9.2V76.5c0-5.1-4.1-9.2-9.2-9.2H550.4
	L526.6,91.1z"/>
<path class="st7" d="M586.6,168.3h71.5c1.1,0,2,0.9,2,2v5.5c0,1.1-0.9,2-2,2h-71.5c-1.1,0-2-0.9-2-2v-5.5
	C584.6,169.2,585.5,168.3,586.6,168.3z"/>
<path class="st7" d="M551.9,191.8h106.1c1.1,0,2,0.9,2,2v6.6c0,1.1-0.9,2-2,2H551.9c-1.1,0-2-0.9-2-2v-6.6
	C549.9,192.7,550.8,191.8,551.9,191.8z"/>
<path class="st7" d="M551.9,216.6h106.1c1.1,0,2,0.9,2,2v6.6c0,1.1-0.9,2-2,2H551.9c-1.1,0-2-0.9-2-2v-6.6
	C549.9,217.5,550.8,216.6,551.9,216.6z"/>
<path class="st7" d="M551.9,241.5h106.1c1.1,0,2,0.9,2,2v6.6c0,1.1-0.9,2-2,2H551.9c-1.1,0-2-0.9-2-2v-6.6
	C549.9,242.4,550.8,241.5,551.9,241.5z"/>
<path class="st8" d="M550.4,67.3v18.7c0,2.9-2.3,5.2-5.2,5.2h-18.6L550.4,67.3z"/>
<path class="st7" d="M594.5,157.8h60.1c3,0,5.5-2.4,5.5-5.5V92.3c0-3-2.4-5.5-5.5-5.5h-60.1c-3,0-5.5,2.4-5.5,5.5v60.1
	C589.1,155.4,591.5,157.8,594.5,157.8z"/>
<path class="st6" d="M189.1,0h53.4c25.4,0,50.7,0,76.1,0c6.1,0,11.1,5,11.1,11.1v27.7c0,6.1-5,11.1-11.1,11.1h-23.8v12.6L282,49.9
	h-92.9c-6.1,0-11.1-5-11.1-11.1V11.1C178,5,183,0,189.1,0z"/>
<path class="st0" d="M644.5,136.5c-2,0-3.5-1.6-3.5-3.5c0-1.9,1.6-3.5,3.5-3.5s3.5,1.6,3.5,3.5C648,134.9,646.4,136.5,644.5,136.5z"
	/>
<path class="st7" d="M640,135.8c10.2,0,13.6-1.1,13.7-4.7c0.2-4.4-3.7-6.3-7.7-7.9c-1.7-0.7-3.9-1.8-6.2-2.9
	c-2.9-1.4-5.8-2.9-8.3-3.8c-4.2-1.5-13.3-1.6-15.1-1.6h-0.2c-0.3,0-8.3,0.2-11,1.2c-2,0.8-3.6,2.9-4.6,4.3c-0.4,0.5-0.7,1-0.9,1.2
	c-2.3,2.2-4.4,7.3-2.6,10.8c1.4,2.6,7.5,2.7,18.7,2.9c3.9,0,8.4,0.1,13.4,0.3C633.8,135.7,637.3,135.8,640,135.8
	C640,135.8,640,135.8,640,135.8z"/>
<path class="st8" d="M616.4,115.5c-0.1,0-0.2,0-0.2,0s-8.2,0.2-10.8,1.2c-2.6,1-4.5,4.5-5.4,5.4c-2.1,2-4.2,6.9-2.5,10.2
	c1.7,3.2,12.9,2.2,31.7,2.9c4.3,0.2,7.9,0.2,10.8,0.2c10,0,13.1-1,13.2-4.2c0.2-4.1-3.5-5.9-7.4-7.4c-3.9-1.6-10-5.1-14.5-6.7
	C627.2,115.5,618,115.5,616.4,115.5z M616.4,114.5c1.8,0,11,0.1,15.3,1.6c2.6,0.9,5.5,2.4,8.4,3.8c2.3,1.1,4.5,2.2,6.2,2.9
	c3.1,1.2,8.2,3.2,8,8.4c-0.2,4.3-4.9,5.1-14.2,5.1c-2.8,0-6.2-0.1-10.9-0.2c-5-0.2-9.5-0.2-13.4-0.3c-11.7-0.2-17.6-0.2-19.1-3.1
	c-1.9-3.7,0.3-9.1,2.7-11.4c0.2-0.2,0.5-0.6,0.9-1.1c1.1-1.5,2.7-3.7,4.9-4.5c2.8-1,10.8-1.2,11.2-1.2L616.4,114.5z"/>
<path class="st0" d="M627.4,116.1c1.5,0.2,2.9,0.5,4,0.9c3.4,1.2,7.6,3.5,11.2,5.2c-3.4,0.5-9.1,0.6-12.3-1.9c-3.6-2.8-8-4-8-4
	L627.4,116.1z"/>
<path class="st0" d="M613.5,116.8c2.9-0.1,6.4-0.6,12.4,2.4s6,4.2,5.4,4.4c-0.5,0.2-13.8-0.6-19.1-1.2s-7.6-1-7.7-2.8
	C604.4,117.8,604.7,117.2,613.5,116.8z"/>
<path class="st2" d="M644.1,123.7c0,0-6.3-0.3-6.8,0.1c-0.5,0.3,5.9,4.2,12.3,3.1C649.6,126.8,649.8,126.1,644.1,123.7z"/>
<path class="st7" d="M640,135.8c10.2,0,13.6-1.1,13.7-4.7c0-1-0.1-1.9-0.5-2.8c-0.1-0.1-0.2-0.2-0.3-0.3c-0.1,0-0.1,0-0.2,0
	c-0.1,0-0.2,0-0.3,0.1c-0.6,0.3-1.8,0.8-4.2,0.8c-0.2,0-0.5,0-0.7,0c-2.7-0.1-4.6-1.1-6.6-2.2c-2.1-1.2-4.3-2.4-7.6-2.4h-0.3
	c-0.5,0-0.9,0-1.4,0c-6.3,0-15.3-0.9-19.9-1.9c-1.7-0.4-3.9-0.6-6.5-0.6c-2.5,0-4.7,0.2-5.9,0.3c-0.1,0-0.2,0.1-0.3,0.2
	c-1.9,2.1-3.7,6.8-1.9,10.1c1.4,2.7,7.5,2.7,18.7,2.9c3.9,0,8.4,0.1,13.4,0.3C633.8,135.7,637.3,135.8,640,135.8
	C640,135.8,640,135.8,640,135.8z"/>
<path class="st8" d="M605.2,122.4c-2.4,0-4.6,0.2-5.8,0.3c-1.9,2.1-3.4,6.6-1.9,9.5c1.7,3.2,12.9,2.2,31.7,2.9
	c4.3,0.2,7.9,0.2,10.8,0.2c10,0,13.1-1,13.2-4.2c0-1-0.1-1.8-0.5-2.5c-0.7,0.4-2.1,0.9-4.5,0.9c-0.2,0-0.5,0-0.8,0
	c-5.8-0.2-8-4.6-14.1-4.6c-0.1,0-0.2,0-0.3,0c-0.5,0-1,0-1.5,0c-6.3,0-15.4-0.9-20.1-1.9C609.7,122.5,607.4,122.4,605.2,122.4z
	 M605.2,121.4c2.7,0,4.9,0.2,6.6,0.6c4.7,1.1,13.5,1.9,19.8,1.9c0.5,0,1,0,1.4,0c0.1,0,0.2,0,0.3,0c3.4,0,5.6,1.2,7.8,2.4
	c1.9,1.1,3.8,2.1,6.3,2.2c0.2,0,0.5,0,0.7,0c2.3,0,3.4-0.4,3.9-0.7c0.2-0.1,0.3-0.1,0.5-0.1c0.1,0,0.2,0,0.3,0
	c0.3,0.1,0.5,0.3,0.6,0.5c0.4,0.9,0.6,1.9,0.6,3c-0.2,4.4-4.9,5.1-14.2,5.1c-2.8,0-6.2-0.1-10.9-0.2c-5-0.2-9.5-0.2-13.4-0.3
	c-11.7-0.2-17.6-0.2-19.1-3.1c-1.8-3.5,0-8.4,2-10.7c0.2-0.2,0.4-0.3,0.6-0.3C600.4,121.5,602.7,121.4,605.2,121.4z"/>
<path class="st2" d="M602.3,132.4c8.7,2.4,33.1,1.1,42.8,0.4c5.1-0.3,7.2-1.4,8.1-2.3c0,0.2,0,0.5,0,0.7c-0.2,4.1-5.3,4.6-24,3.9
	c-18.8-0.7-30,0.3-31.7-2.9c-0.2-0.5-0.4-1-0.5-1.5C598.2,131.2,599.9,131.8,602.3,132.4z"/>
<path class="st0" d="M636.2,137.9c-2.5,0-4.6-2.1-4.6-4.6c0-2.5,2.1-4.6,4.6-4.6c2.5,0,4.6,2.1,4.6,4.6
	C640.8,135.9,638.7,137.9,636.2,137.9z"/>
<path class="st7" d="M636.2,136c-1.5,0-2.6-1.2-2.6-2.6c0-1.5,1.2-2.6,2.6-2.6c1.5,0,2.6,1.2,2.6,2.6
	C638.8,134.8,637.6,136,636.2,136z"/>
<path class="st0" d="M603,137.9c-2.5,0-4.6-2.1-4.6-4.6c0-2.5,2.1-4.6,4.6-4.6c2.5,0,4.6,2.1,4.6,4.6
	C607.6,135.9,605.5,137.9,603,137.9z"/>
<path class="st7" d="M603,136c-1.5,0-2.6-1.2-2.6-2.6c0-1.5,1.2-2.6,2.6-2.6c1.5,0,2.6,1.2,2.6,2.6C605.6,134.8,604.5,136,603,136z"
	/>
<path class="st9" d="M70.1,414.5h31.1v-41.5c0-2.1-1.7-3.8-3.8-3.8H73.9c-2.1,0-3.8,1.7-3.8,3.8V414.5z"/>
<path class="st9" d="M58,414.5h12.1v-29.3h-9.9c-1.3,0-2.3,1-2.3,2.3V414.5z"/>
<path class="st10" d="M105,415H54"/>
<path class="st10" d="M92.7,380h-14"/>
<path class="st10" d="M92.7,392h-14"/>
<path class="st10" d="M92.7,405h-14"/>
<path class="st11" d="M310.3,16.9h-112"/>
<path class="st11" d="M310.3,31.3h-112"/>
<path class="st6" d="M347.2,157.8c0,0-5.3,5.6-7.5,5.9s-6.9,0-6.9,0l10.1-14.5c0,0-0.9-4.5-8.3-8.2c-7.4-3.7-15.5-3.6-15.5-3.6
	l-36.4,46.9c0,0-1.6,10.3,9,11c10.6,0.7,52-1,52-1L347.2,157.8z"/>
<path class="st12" d="M334.7,141c7.4,3.7,8.3,8.2,8.3,8.2c-2.3,3.7-11.2,1-16.7-1.9c-5.5-2.9-8.4-8.1-7.1-9.8
	C319.1,137.4,327.3,137.3,334.7,141z"/>
<path class="st12" d="M331.6,175.5c-2,5-9.9,5.9-9.1,3.8s10.3-15.6,10.3-15.6s1,0.1,2.4,0.1C334.5,166.4,333.1,171.8,331.6,175.5z"
	/>
<path class="st12" d="M343.8,194.4c0,0-22.2,0.9-38.2,1.1c1-1.8,3.2-3.6,6-4.1c6.2-1.2,18.4-9.8,22.7-13.8c4.3-4.1,10-15.8,10-15.8
	s1.4-0.5,2.8-0.9L343.8,194.4z"/>
<path class="st13" d="M366.9,127.7c0,0-5,0.6-6.5,3.2c-1.5,2.7-5.4,7.8-10.7,8s-8.4,3.1-8.4,3.1l-9.7,2.6c0,0-6.3-2.4-6.1-4.1
	c0.2-1.7,3.9-4.9,3.9-4.9s7.7-8.3,8.5-12.4s6.6-13,13-15.2c6.4-2.2,14.4-0.5,14.8-0.1c0.3,0.4,4.6,16.5,4.6,16.5L366.9,127.7z"/>
<path class="st3" d="M342.5,145.2l-3.9,4.8c0,0-12.8-1.6-16.1-7.1l5.9-7.4c0.3-0.4,0.9-0.4,1.2,0.1c1.2,2,4.8,6.8,11.8,6.4
	c0,0,1,0.4,1.4,1.3C343,143.9,342.9,144.7,342.5,145.2z"/>
<path class="st5" d="M363.4,112.7c0,0-4,1.4-7.2,0.6l-9.3,5.6c-0.5,0.3-0.8,0.9-0.7,1.5l1.6,12.3c0.1,1.1,1.4,1.7,2.4,1.1l15.1-9.9
	L363.4,112.7z"/>
<path class="st5" d="M424.1,524.4l2.1,2.4v17.7c0,0-4.7-0.2-5.6,3.8c-1,4-6.9,11.9-33.6,9.1c-12.1-1.3-13.6-1.9-9.5-9.5
	c0,0-36.8,3-44.3-1.2c0,0,1.6-7.5,10.2-8c8.6-0.5,8.2-3.3,15.7-8.3c7.6-4.9,15.7-10.6,15.7-10.6l43.1-2.9L424.1,524.4z"/>
<path class="st14" d="M371.1,545.3c7-4.7,6.4-17.8-2.8-21c3.8-2.5,6.5-4.4,6.5-4.4l41.5-2.8c3.8,4.6,6.8,9,6.8,9s-20.3,0.4-26.2,1.6
	c-5.9,1.2-3.3,5.1-8.8,10.9c-5.5,5.8-10.6,9.4-10.6,9.4s-36.8,3-44.3-1.2C333.1,546.8,362.9,550.8,371.1,545.3z"/>
<path class="st14" d="M386.9,557.4c-8.3-0.9-11.6-1.4-11.5-4.2c1.9,1.6,23.3,2.4,32.3,1.2c9.1-1.2,10.9-4.8,12.4-10.9
	c0.8-3,3.5-4.3,6.1-4.8v5.7c0,0-4.7-0.2-5.6,3.8C419.6,552.3,413.7,560.2,386.9,557.4z"/>
<path class="st6" d="M409.7,147.3c0,0,32.1,10.7,34.2,15.1c2,4.4,1.8,26.2-4.7,42.9s-8.4,29-19,33l8.6,46.3l-4.4,2.3
	c0,0-5.9,58.9-2.5,81.2c3.5,22.3,9.2,53.3,8,78.1c-1.1,24.9-3.7,80.7-3.7,80.7s-29.1-7.5-36.8,0.7c0,0-8.7-4.7-18-4.5
	c0,0-5.2-4.7-5.2-7s6.5-15,6.5-15s1.6-62-1-86.5c-2.6-24.5-19.6-121.1-27.1-130.7c0,0-2.8,4.8-1.9,10.4l-6.6-2.1
	c0,0,8.3-55,5.9-72.8c-2.4-17.8-3.5-42.7-1.5-51.8c2-9.1,7.1-11.4,10.2-13.8s16-2,16-2L409.7,147.3z"/>
<path class="st12" d="M353.7,173.8l7.2-3.3l-4.2-8.4l52.3-14.8l0.7-0.1c0.1,0.1,2.6,0.9,6.1,2.1l-12.5,20.2h-9.6l5,9.4L357,227.9
	c0,0-1.6,10.9-2.8,13.7c-1.1,2.8-1.6,15.5,2.9,14.8c22.6-3.3,63-18.2,63-18.2l1.4,7.4c-14.8-1.1-17.6,1.2-35.6,13
	c-33.3,21.7-35.4,14.3-35.9,17.6c-0.5,3.2,5.1,19.6,5.1,19.6c40.2,3.1,69.2-8.9,69.2-8.9s-0.1,1.4-0.4,3.9
	c-14.4,6.1-53.5,15.7-53.5,15.7s14.2,45.4,20.1,101c6,55.6,0.5,112,0.5,112c5.5-1.4,22.5,2,35.1,5.6c0,1.1-0.1,1.8-0.1,1.8
	s-29.1-7.5-36.8,0.7c0,0-8.7-4.7-18-4.5c0,0-5.2-4.7-5.2-7c0-0.2,0.1-0.6,0.2-1c9,0.8,19.7,3.3,18.6,0.7
	c-1.8-4.3-12.2-14.7-12.2-14.7s1.6-62-1-86.5c-2.6-24.5-19.6-121.1-27.1-130.7c0,0-2.8,4.8-1.9,10.4l-3.1-1
	c2.8-18.3,11.4-56.8,11.4-56.8L353.7,173.8z"/>
<path class="st6" d="M404.8,138.9c0,0,3.9,0,6.1,3.8c2.2,3.8,2.5,6.4,2.5,6.4l-10.9,19.3l-9.8,2.1l3.9,7l-44.3,50.9l2.7-55.9
	l5.9-4.3l-4.3-6.2c0,0,3.3-9.6,7.6-11.3c4.3-1.7,6.5-1.4,6.5-1.4L404.8,138.9z"/>
<path class="st15" d="M365.7,108c0-1.2,0-11.8,0-11.8l14.6-4.6l19.2,2.6l6,8.5l-1.8,7.1c0.2,5.8-2.1,8.1-2.1,8.1l2.6,25.3l-10.9,6.7
	l-19.8,2.2l0.3-12.3c-3-0.3-5.2-1.1-5.6-1.5c-1.3-1.4-1.6-9.7-1.6-11.7c0-2-2.4-6.4-2.4-10.1C364.4,112.8,365.7,109.3,365.7,108z"/>
<path class="st16" d="M365.7,108c0-1.2,0-11.8,0-11.8l14.6-4.6l19.2,2.6l6,8.5l-1.8,7.1c0.2,5.8-2.1,8.1-2.1,8.1l2.6,25.3l-10.9,6.7
	l-19.8,2.2l0.3-12.3c-3-0.3-5.2-1.1-5.6-1.5c-1.3-1.4-1.6-9.7-1.6-11.7c0-2-2.4-6.4-2.4-10.1C364.4,112.8,365.7,109.3,365.7,108z"/>
<path class="st17" d="M382.9,79.6c0.5-0.7-0.1-1.6-0.9-1.6c-3.1,0.1-8.6,0.6-12.6,2.9c-5.9,3.4-8,8.2-7.7,10.8
	c0.3,2.6,1.4,5.8,5.1,7.1c3.1,1.1,14.9-0.6,20.2-2.5c1.5-0.6,3.2,0.3,3.5,1.8c0.2,0.9,0.3,2.2,0.2,3.8c-0.4,5.5-0.2,11.9-0.7,13.8
	s4.4,0,4.9-2c0.5-2,0.7-8.8,5.9-8.6c2.6,0.1,3.9,3.7,3.5,4.9c0,0,5-11.1,4.4-15.4c-0.6-4.3-3.1-7.3-8.3-7.6s-16.7,1.2-18.5-1
	C380.5,84.6,381.6,81.5,382.9,79.6z"/>
<path class="st18" d="M379.6,119.5c-2.8,0-5-2.6-5-5.9s2.2-5.9,5-5.9c2.8,0,5,2.6,5,5.9S382.4,119.5,379.6,119.5z"/>
<path class="st19" d="M395,112.3l-10.3-0.1"/>
<path class="st18" d="M374.9,111.8c0,0-1.4-0.4-4.7,0"/>
<path class="st18" d="M365.4,119.5c-2.8,0-5-2.6-5-5.9s2.2-5.9,5-5.9s5,2.6,5,5.9S368.2,119.5,365.4,119.5z"/>
<path class="st20" d="M384.6,138.4c9.1-4.3,11.8-10.1,11.8-10.1s-0.3,10.2-22.8,21.1l0.2-9.4C377,140.3,381,140.1,384.6,138.4z"/>
<path class="st7" d="M355.6,221.6c0.2,0,0.3-0.1,0.4-0.2c0.3-0.4,25.8-43.5,32.4-54.4c4.8-7.9,11.6-15.8,15.3-20
	c1.5-1.7,2.5-2.9,2.8-3.3c0.6-1,0.4-2,0.1-2.7c-0.3-0.6-0.9-1-1.5-1c-0.4,0-0.8,0.2-1.2,0.5c-5.4,5.2-23.3,9.7-26.8,9.9h-0.2
	c-2.9,0-3.7-2.9-3.8-3.1c-0.1-0.2-0.3-0.4-0.5-0.4c0,0,0,0-0.1,0c-2,0.2-3.2,2.8-5.2,10.9c-1.9,7.6-12.3,62.7-12.4,63.2
	c0,0.2,0.1,0.5,0.3,0.6C355.5,221.6,355.6,221.6,355.6,221.6z"/>
<path class="st8" d="M405.1,140.5c-0.3,0-0.5,0.1-0.8,0.4c-5.5,5.3-23.6,9.9-27.1,10c-0.1,0-0.1,0-0.2,0c-3.3,0-4.2-3.4-4.2-3.4
	c-1.7,0.2-2.9,2.8-4.8,10.5c-1.9,7.7-12.4,63.2-12.4,63.2s25.8-43.4,32.4-54.4c6.7-11,17.1-21.8,18.1-23.4
	C406.9,142.1,406.1,140.5,405.1,140.5z M405.1,139.5c0.8,0,1.5,0.5,1.9,1.2c0.5,1,0.5,2.2-0.1,3.2c-0.3,0.5-1.1,1.5-2.8,3.4
	c-3.7,4.2-10.5,12.1-15.2,20c-6.6,10.9-32.2,53.9-32.4,54.4c-0.2,0.3-0.5,0.5-0.9,0.5c-0.1,0-0.2,0-0.4-0.1
	c-0.5-0.2-0.7-0.6-0.6-1.1c0.4-2.3,10.5-55.6,12.4-63.3c2.1-8.4,3.4-11,5.6-11.3c0,0,0.1,0,0.1,0c0.5,0,0.8,0.3,1,0.7
	c0,0.1,0.8,2.7,3.3,2.7c0.1,0,0.1,0,0.1,0c3.3-0.1,21.2-4.7,26.4-9.7C404.2,139.6,404.8,139.5,405.1,139.5z"/>
<path class="st5" d="M375.4,152.2c0.5,0.1,2.4,2.1,2.7,4.2c0.3,2.1-3.8,9.6-3.8,9.6l-1.5,26.2l-17.2,28.9l6.4-33.7
	c0,0,8.5-18.8,9.5-21.2c1-2.4-0.7-9.2,0.1-11C372.5,153.5,375.4,152.2,375.4,152.2z"/>
<path class="st12" d="M435.5,163.7c0,0-18.5,4.1-37.5,43.1l-16.2,13.3c0,0,10.5-5.7,23.3-7.5c12.8-1.7,19.2,3.5,19.2,3.5
	s1.1-12-16.5-8.2c0,0,5-18.9,19.5-27.1c0,0-2.6-3.2-7.2-2.5C420.1,178.3,424.3,169.4,435.5,163.7z"/>
<path class="st12" d="M359.4,227.4c0,0,1.6-1.9,2.2,0c0.5,1.9,0.1,16.6-2.2,22.2c-2.3,5.6-2.8,7-3.8,2.1c-1-4.9,0-7.9,0-7.9
	L359.4,227.4z"/>
<path class="st7" d="M379.6,244.1c-1.2,0-2.2-0.6-2.2-1.2c0-0.7,1-1.2,2.2-1.2c1.2,0,2.2,0.6,2.2,1.2
	C381.8,243.6,380.8,244.1,379.6,244.1z"/>
<path class="st3" d="M359.4,227.4c0,0,1.8,6.5,0,12.2c-1.8,5.7-2.9,6.2-2.9,6.2l-8-1.4c0,0-1-1.3-1.1-5.1
	c-0.1-3.8,3.3-13.1,3.3-13.1L359.4,227.4z"/>
<path class="st7" d="M368.5,246.9c-1.3,0-2.3-0.6-2.3-1.4c0-0.8,1-1.4,2.3-1.4s2.3,0.6,2.3,1.4C370.8,246.3,369.8,246.9,368.5,246.9
	z"/>
<path class="st0" d="M312.8,185.8l18.8,57l-46.5-9.6l-19.9-58.4L312.8,185.8z"/>
<path class="st13" d="M350.9,227c0,0-6.9,0.6-10-3.2c-3.1-3.7-4.5-5.6-10.6-7c-6.1-1.4-8-2.1-8-2.1l2.3,7c0,0-5.7,1.3-11.1-0.7
	c-5.3-2-13.1-5.4-16.8-2.9c-1.2,0.8,3.1,2.1,4.2,3.9c1.2,1.8,2,4.1,3.2,7.1c1.2,3,6.9,8.2,12.7,9.6c5.8,1.4,18.4-0.6,21.8,0
	c3.4,0.6,9.5,2.1,10.2,1.3C349.7,239.3,351.7,232.7,350.9,227z"/>
<path class="st21" d="M400.1,109.7c-0.4,0-0.7,0.2-0.9,0.4c-0.9,0.7-1.5,1.8-1.7,2.9c-0.2,1.1-0.2,2.3,0,3.4"/>
<path class="st5" d="M379.3,115c-0.6,0-1-0.5-1-1c0-0.6,0.5-1,1-1c0.6,0,1,0.5,1,1C380.3,114.6,379.9,115,379.3,115z"/>
<path class="st5" d="M367.1,115c-0.6,0-1-0.5-1-1c0-0.6,0.5-1,1-1s1,0.5,1,1C368.1,114.6,367.6,115,367.1,115z"/>
<path class="st22" d="M376.5,104.5c0,0.7,0.7,1.3,3.1,1.3c2.4,0,5.6-0.6,5.6-1.3c0-0.7-3.2-1.3-5.6-1.3
	C377.2,103.2,376.5,103.8,376.5,104.5z"/>
<path class="st22" d="M369.8,104.8c0,0.5-0.5,1-2.3,1s-4.1-0.4-4.1-1c0-0.5,2.4-1,4.1-1C369.2,103.8,369.8,104.3,369.8,104.8z"/>
<path class="st21" d="M370.5,114.2c-0.6,2.6-1.2,5.1-1.9,7.7c-0.1,0.3-0.1,0.5-0.1,0.8c0,0.8,0.5,1.1,1.3,1.4
	c0.6,0.3,1.6,0.4,2.6,0.5"/>
<path class="st7" d="M373.4,132.1c3.3-0.1,5.2-4,5.3-4.1c0.1-0.2,0.1-0.5-0.1-0.6c-0.1-0.1-0.2-0.1-0.3-0.1c-0.1,0-0.2,0-0.3,0.1
	c0,0-1.9,1.4-6.5,1.4c-0.5,0-1.1,0-1.7-0.1c0,0,0,0,0,0c-0.1,0-0.3,0.1-0.4,0.2c-0.1,0.1-0.1,0.3-0.1,0.5c0.3,1,1.5,2.7,4.1,2.7
	H373.4z"/>
<path class="st20" d="M378.3,127.7c0,0-1.9,1.5-6.9,1.5c-0.5,0-1.1,0-1.7-0.1c0,0,0.7,2.4,3.6,2.4c0,0,0.1,0,0.1,0
	C376.4,131.5,378.3,127.7,378.3,127.7z M378.2,126.7c0.2,0,0.5,0.1,0.6,0.2c0.4,0.3,0.5,0.8,0.3,1.2c-0.1,0.2-2.2,4.3-5.7,4.4h-0.1
	c-2.9,0-4.2-2-4.5-3.1c-0.1-0.3,0-0.7,0.2-0.9c0.2-0.2,0.5-0.4,0.8-0.4c0,0,0,0,0.1,0c0.6,0,1.1,0.1,1.6,0.1c4.4,0,6.2-1.3,6.2-1.3
	C377.8,126.8,378,126.7,378.2,126.7z"/>
<path class="st21" d="M370.8,134.2c-1.3,1.2,0.4,3,1.6,3.3"/>
<path class="st22" d="M369.4,81c0.6-0.3,1.2-0.6,1.8-0.9c-0.1,0.1-0.3,0.2-0.5,0.3c-0.7,0.5-1.3,1-1.9,1.6c-0.5,0.6-0.9,1.4-1.2,2.1
	c-1.1,2.6-1.2,5,0,7.6c0.7,1.4,1.5,2.8,2.7,3.7c2.3,1.8,5.5,1.9,8.4,1.4c2.9-0.4,5.9-1.3,8.8-0.8c0.2,0,0.4,0.1,0.5,0.2
	c-0.4,0-0.8,0-1.2,0.2c-5.3,1.9-17.1,3.7-20.2,2.5c-3.6-1.3-4.8-4.5-5.1-7.1C361.4,89.2,363.5,84.5,369.4,81z"/>
<circle class="st23" cx="71.5" cy="172.5" r="47"/>
<path class="st6" d="M212,176.1c17.1,0,31-13.9,31-31s-13.9-31-31-31s-31,13.9-31,31S194.9,176.1,212,176.1z"/>
<path class="st7" d="M218.1,146.6l3.8,12c0.2,0.7-0.3,1.5-1.1,1.5h-17.6c-0.8,0-1.4-0.7-1.1-1.5l3.8-12c0.1-0.4,0.2-0.9,0.3-1.4
	l0.4-6.7c-0.5,0-0.7,1.1-0.7,1.1l-3.6-0.5c0,0,0-3.1,1.8-5.6c1.8-2.4,4.7-2.4,4.7-2.4c0,0.9,1.8,1.7,3.3,1.7v0
	c1.5,0,3.3-0.9,3.3-1.7c0,0,2.9,0,4.7,2.4c1.8,2.4,1.8,5.6,1.8,5.6l-3.6,0.5c0,0-0.2-1.1-0.7-1.1l0.4,6.7
	C217.9,145.7,218,146.1,218.1,146.6z"/>
<g>
	<g>
		<g>
			<g>
				<path class="st24" d="M71.3,193.7c-4.9,0-8.7-3.8-8.7-8.7v-17.7c0-2.1,1.7-3.8,3.8-3.8c2.1,0,3.8,1.7,3.8,3.8V185
					c0,0.7,0.7,1.4,1.4,1.4c0.7,0,1.4-0.7,1.4-1.4v-17.7c0-4.5-3.8-8.3-8.3-8.3c-4.5,0-8.3,3.8-8.3,8.3v22.9c0,2.1-1.7,3.8-3.8,3.8
					s-3.8-1.7-3.8-3.8v-22.9c0-8.7,7-15.6,15.6-15.6S80,158.6,80,167.3V185C80,189.9,76.2,193.7,71.3,193.7z"/>
			</g>
		</g>
		<g>
			<g>
				<path class="st24" d="M90.8,193.7c-2.1,0-3.8-1.7-3.8-3.8v-27.5c0-2.1-1.7-3.8-3.8-3.8c-2.1,0-3.8-1.7-3.8-3.8
					c0-2.1,1.7-3.8,3.8-3.8c6.3,0,11.1,4.9,11.1,11.1v27.5C94.6,192.3,92.8,193.7,90.8,193.7z"/>
			</g>
		</g>
	</g>
</g>
</svg>
