<svg width="600" height="556" viewBox="0 0 600 556" fill="none" xmlns="http://www.w3.org/2000/svg">
<path d="M383.386 533.618H69.1681C64.0137 533.618 59.8301 529.443 59.8301 524.299V264.712C59.8301 259.568 64.0137 255.393 69.1681 255.393H383.386C388.541 255.393 392.724 259.568 392.724 264.712V524.299C392.724 529.453 388.541 533.618 383.386 533.618Z" fill="#E6E6E6" stroke="#E0E0E0" stroke-miterlimit="10" stroke-linejoin="round"/>
<path d="M359.978 510.806H92.5799C88.2361 510.806 84.7031 507.29 84.7031 502.946V286.065C84.7031 281.73 88.2261 278.205 92.5799 278.205H359.978C364.322 278.205 367.855 281.72 367.855 286.065V502.946C367.855 507.29 364.322 510.806 359.978 510.806Z" fill="white" stroke="#E0E0E0" stroke-miterlimit="10" stroke-linejoin="round"/>
<path d="M340.57 234.349H112.175C102.837 234.349 93.7389 237.335 86.2225 242.859L69.168 255.403H383.586L366.532 242.859C359.005 237.335 349.908 234.349 340.57 234.349Z" fill="#E0E0E0" stroke="#E0E0E0" stroke-miterlimit="10" stroke-linejoin="round"/>
<path d="M164.758 330.44C136.614 330.44 113.795 353.212 113.795 381.297C113.795 409.382 136.614 432.154 164.758 432.154C192.902 432.154 215.722 409.382 215.722 381.297C215.722 353.212 192.902 330.44 164.758 330.44ZM199.278 375.744H171.354V347.029C185.716 349.766 196.956 361.262 199.278 375.744ZM158.173 347.029V375.744H130.249C132.561 361.262 143.811 349.766 158.173 347.029ZM130.649 388.897H158.173V415.544C144.491 412.938 133.652 402.391 130.649 388.897ZM171.354 415.544V388.897H198.878C195.865 402.391 185.026 412.938 171.354 415.544Z" fill="#E0E0E0"/>
<path d="M164.759 393.052C171.27 393.052 176.549 387.785 176.549 381.287C176.549 374.789 171.27 369.521 164.759 369.521C158.247 369.521 152.969 374.789 152.969 381.287C152.969 387.785 158.247 393.052 164.759 393.052Z" fill="#515667"/>
<path d="M354.662 488.634V514.152C354.662 518.547 378.292 522.102 407.437 522.102C436.582 522.102 460.212 518.547 460.212 514.152V488.634H354.662V488.634Z" fill="#E6E6E6" stroke="#E0E0E0" stroke-miterlimit="10" stroke-linejoin="round"/>
<path d="M407.437 496.584C436.584 496.584 460.212 493.024 460.212 488.634C460.212 484.243 436.584 480.684 407.437 480.684C378.29 480.684 354.662 484.243 354.662 488.634C354.662 493.024 378.29 496.584 407.437 496.584Z" fill="white" stroke="#C8D4E8" stroke-miterlimit="10" stroke-linejoin="round"/>
<path d="M354.662 462.646V488.164C354.662 492.559 378.292 496.114 407.437 496.114C436.582 496.114 460.212 492.559 460.212 488.164V462.646H354.662Z" fill="#E6E6E6" stroke="#E0E0E0" stroke-miterlimit="10" stroke-linejoin="round"/>
<path d="M407.437 470.596C436.584 470.596 460.212 467.037 460.212 462.646C460.212 458.255 436.584 454.696 407.437 454.696C378.29 454.696 354.662 458.255 354.662 462.646C354.662 467.037 378.29 470.596 407.437 470.596Z" fill="white" stroke="#C8D4E8" stroke-miterlimit="10" stroke-linejoin="round"/>
<path d="M354.662 436.648V462.166C354.662 466.561 378.292 470.116 407.437 470.116C436.582 470.116 460.212 466.561 460.212 462.166V436.648H354.662Z" fill="#E6E6E6" stroke="#E0E0E0" stroke-miterlimit="10" stroke-linejoin="round"/>
<path d="M407.437 444.598C436.584 444.598 460.212 441.039 460.212 436.648C460.212 432.258 436.584 428.698 407.437 428.698C378.29 428.698 354.662 432.258 354.662 436.648C354.662 441.039 378.29 444.598 407.437 444.598Z" fill="white" stroke="#C8D4E8" stroke-miterlimit="10" stroke-linejoin="round"/>
<path d="M354.662 410.66V436.178C354.662 440.573 378.292 444.129 407.437 444.129C436.582 444.129 460.212 440.573 460.212 436.178V410.66H354.662Z" fill="#E6E6E6" stroke="#E0E0E0" stroke-miterlimit="10" stroke-linejoin="round"/>
<path d="M407.437 418.611C436.584 418.611 460.212 415.051 460.212 410.661C460.212 406.27 436.584 402.71 407.437 402.71C378.29 402.71 354.662 406.27 354.662 410.661C354.662 415.051 378.29 418.611 407.437 418.611Z" fill="white" stroke="#E0E0E0" stroke-miterlimit="10" stroke-linejoin="round"/>
<path d="M118.1 517.008L105.279 536.564V556C105.279 556 392.194 556 401.282 556C410.37 556 418.106 552.055 418.106 546.192C418.106 540.329 418.106 527.735 418.106 527.735C418.106 527.735 416.065 517.418 398.049 517.418C380.034 517.418 118.1 517.008 118.1 517.008Z" fill="#2F2E41"/>
<path d="M398.049 517.418C380.034 517.418 118.1 517.008 118.1 517.008L105.279 536.564C105.279 536.564 392.214 536.564 399.791 536.564C407.367 536.564 418.096 535.575 418.096 527.735C418.106 527.735 416.065 517.418 398.049 517.418Z" fill="#515667"/>
<path d="M325.678 530.082H207.407C205.646 530.082 204.225 528.664 204.225 526.906V433.682H328.871V526.906C328.871 528.664 327.44 530.082 325.678 530.082Z" fill="#FF4480"/>
<path d="M204.225 457.552C216.965 460.488 240.105 462.456 266.548 462.456C292.99 462.456 316.13 460.488 328.871 457.552V433.682H204.225V457.552Z" fill="#D44E72"/>
<path d="M193.795 393.931V442.341C193.795 447.934 226.363 452.468 266.547 452.468C306.731 452.468 339.299 447.934 339.299 442.341V393.931H193.795V393.931Z" fill="#FF4480"/>
<path d="M339.299 393.931C339.299 397.027 329.341 399.794 313.637 401.651C300.946 403.159 284.502 404.058 266.547 404.058C248.181 404.058 231.407 403.119 218.606 401.551C203.393 399.694 193.795 396.967 193.795 393.931C193.795 390.895 203.393 388.168 218.606 386.31C231.407 384.752 248.181 383.813 266.547 383.813C284.492 383.813 300.926 384.712 313.617 386.21C329.331 388.068 339.299 390.835 339.299 393.931Z" fill="#D44E72"/>
<path d="M212.33 430.066C216.78 430.066 220.387 426.467 220.387 422.026C220.387 417.586 216.78 413.986 212.33 413.986C207.881 413.986 204.273 417.586 204.273 422.026C204.273 426.467 207.881 430.066 212.33 430.066Z" fill="white"/>
<path d="M151.26 306.599C171.574 306.599 188.041 290.166 188.041 269.895C188.041 249.624 171.574 233.19 151.26 233.19C130.946 233.19 114.479 249.624 114.479 269.895C114.479 290.166 130.946 306.599 151.26 306.599Z" fill="#FF4480"/>
<path d="M313.376 235.688C307.02 253.186 303.447 288.762 308.541 317.396C312.895 341.906 313.526 365.587 313.616 386.211C313.636 389.697 313.636 393.092 313.636 396.388V401.652C300.945 403.16 284.501 404.059 266.546 404.059C248.18 404.059 231.406 403.12 218.605 401.552V361.611C218.605 354.37 212.78 350.745 205.664 350.595C198.558 350.455 177.059 351.364 166.19 343.154C155.311 334.945 144.992 332.258 137.636 332.338C130.279 332.418 138.947 308.218 158.383 306.57C177.82 304.912 189.47 315.589 208.806 302.305C228.133 289.022 231.005 253.625 210.478 239.024C189.95 224.422 178.831 230.404 166.19 234.349C153.539 238.304 130.029 236.786 129.779 223.413C129.519 210.04 163.117 196.077 186.777 194.099C186.777 194.099 207.425 179.777 239.012 189.735C239.012 189.735 250.382 181.026 267.576 190.614C278.606 196.766 286.743 208.731 286.743 208.731C286.743 208.731 309.622 168.162 338.877 174.144C347.865 175.982 346.654 182.184 341.83 190.014C337.006 197.845 319.721 218.189 313.376 235.688Z" fill="#FFB8B8" stroke="#FAA5A5" stroke-miterlimit="10" stroke-linejoin="round"/>
<path d="M186.777 194.099C210.177 194.099 241.094 202.429 258.639 241.311" stroke="#FAA5A5" stroke-miterlimit="10" stroke-linecap="round" stroke-linejoin="round"/>
<path d="M239.014 189.734C251.144 194.139 276.466 208.731 280.639 233.19" stroke="#FAA5A5" stroke-miterlimit="10" stroke-linecap="round" stroke-linejoin="round"/>
<path d="M286.744 208.731C292.019 216.092 294.671 226.878 294.671 226.878" stroke="#FAA5A5" stroke-miterlimit="10" stroke-linecap="round" stroke-linejoin="round"/>
<path d="M157.994 337.901C158.915 336.622 159.755 335.084 160.236 333.327C161.757 327.813 158.714 325.916 155.301 324.597C151.889 323.269 147.545 321.761 142.03 324.597C142.03 324.597 139.148 328.223 138.777 332.348C144.102 332.498 150.768 334.036 157.994 337.901Z" fill="#FFDBDB" stroke="#FAA5A5" stroke-miterlimit="10" stroke-linejoin="round"/>
<path d="M132.031 217.071C133.863 220.187 139.388 221.475 140.649 220.896C142.29 220.137 158.534 215.223 154.46 209.49C152.659 206.963 150.367 205.645 148.355 204.966C141.049 208.551 135.094 212.736 132.031 217.071Z" fill="#FFDBDB" stroke="#FAA5A5" stroke-miterlimit="10" stroke-linejoin="round"/>
<path d="M18.0137 525.088V543.236C18.0137 546.362 34.808 548.889 55.5357 548.889C76.2634 548.889 93.0577 546.362 93.0577 543.236V525.088H18.0137Z" fill="#E6E6E6" stroke="#E0E0E0" stroke-miterlimit="10" stroke-linejoin="round"/>
<path d="M55.5357 530.742C76.2585 530.742 93.0577 528.211 93.0577 525.089C93.0577 521.966 76.2585 519.436 55.5357 519.436C34.8129 519.436 18.0137 521.966 18.0137 525.089C18.0137 528.211 34.8129 530.742 55.5357 530.742Z" fill="white" stroke="#E0E0E0" stroke-miterlimit="10" stroke-linejoin="round"/>
<path d="M61.2142 528.3C57.108 528.3 53.0018 527.616 51.8612 526.817L47.8691 523.852C47.4129 523.51 48.4394 523.167 50.1503 523.167C51.8612 523.167 53.5722 523.395 54.0284 523.852L58.0205 526.817C58.2487 526.931 58.819 527.045 59.5033 527.045C60.1877 527.045 60.5299 526.931 60.3018 526.817L56.3096 523.852C55.2831 523.053 51.405 522.483 47.5269 522.483C43.6488 522.483 41.5958 523.053 42.6223 523.738L47.641 527.616C48.0972 527.958 47.0707 528.3 45.3598 528.3C43.6488 528.3 41.9379 528.072 41.4817 527.616L36.463 523.738C34.524 522.369 38.8583 521.114 46.0441 521.114C53.23 521.114 60.758 522.369 62.583 523.738L66.5751 526.817C67.7157 527.616 65.2064 528.3 61.2142 528.3Z" fill="#FF4480"/>
<path d="M77.4109 528.3C75.7 528.3 73.9891 528.072 73.5328 527.616L67.4876 522.939C67.0313 522.597 65.3204 522.369 63.6095 522.369C61.8986 522.369 60.1877 522.141 59.7314 521.684C59.2752 521.228 60.3017 521 62.0127 521C67.1454 521 72.3922 521.798 73.7609 522.939L79.8062 527.616C80.1484 528.072 79.1218 528.3 77.4109 528.3Z" fill="#FF4480"/>
<path d="M411.214 413.3C407.108 413.3 403.002 412.616 401.861 411.817L397.869 408.852C397.413 408.51 398.439 408.167 400.15 408.167C401.861 408.167 403.572 408.395 404.028 408.852L408.021 411.817C408.249 411.931 408.819 412.045 409.503 412.045C410.188 412.045 410.53 411.931 410.302 411.817L406.31 408.852C405.283 408.053 401.405 407.483 397.527 407.483C393.649 407.483 391.596 408.053 392.622 408.738L397.641 412.616C398.097 412.958 397.071 413.3 395.36 413.3C393.649 413.3 391.938 413.072 391.482 412.616L386.463 408.738C384.524 407.369 388.858 406.114 396.044 406.114C403.23 406.114 410.758 407.369 412.583 408.738L416.575 411.817C417.716 412.616 415.206 413.3 411.214 413.3Z" fill="#FF4480"/>
<path d="M427.411 413.3C425.7 413.3 423.989 413.072 423.533 412.616L417.488 407.939C417.031 407.597 415.32 407.369 413.61 407.369C411.899 407.369 410.188 407.141 409.731 406.684C409.275 406.228 410.302 406 412.013 406C417.145 406 422.392 406.798 423.761 407.939L429.806 412.616C430.148 413.072 429.122 413.3 427.411 413.3Z" fill="#FF4480"/>
<path d="M1 503.665V521.813C1 524.939 17.7943 527.465 38.522 527.465C59.2497 527.465 76.0441 524.939 76.0441 521.813V503.665H1Z" fill="#E6E6E6" stroke="#E0E0E0" stroke-miterlimit="10" stroke-linejoin="round"/>
<path d="M38.522 509.318C59.2449 509.318 76.0441 506.787 76.0441 503.665C76.0441 500.543 59.2449 498.012 38.522 498.012C17.7992 498.012 1 500.543 1 503.665C1 506.787 17.7992 509.318 38.522 509.318Z" fill="white" stroke="#E0E0E0" stroke-miterlimit="10" stroke-linejoin="round"/>
<path d="M41.2142 507.3C37.108 507.3 33.0018 506.616 31.8612 505.817L27.8691 502.852C27.4129 502.51 28.4394 502.167 30.1503 502.167C31.8612 502.167 33.5722 502.395 34.0284 502.852L38.0205 505.817C38.2487 505.931 38.819 506.045 39.5033 506.045C40.1877 506.045 40.5299 505.931 40.3018 505.817L36.3096 502.852C35.2831 502.053 31.405 501.483 27.5269 501.483C23.6488 501.483 21.5958 502.053 22.6223 502.738L27.641 506.616C28.0972 506.958 27.0707 507.3 25.3598 507.3C23.6488 507.3 21.9379 507.072 21.4817 506.616L16.463 502.738C14.524 501.369 18.8583 500.114 26.0441 500.114C33.23 500.114 40.758 501.369 42.583 502.738L46.5751 505.817C47.7157 506.616 45.2064 507.3 41.2142 507.3Z" fill="#FF4480"/>
<path d="M57.4109 507.3C55.7 507.3 53.9891 507.072 53.5328 506.616L47.4876 501.939C47.0313 501.597 45.3204 501.369 43.6095 501.369C41.8986 501.369 40.1877 501.141 39.7314 500.684C39.2752 500.228 40.3017 500 42.0127 500C47.1454 500 52.3922 500.798 53.7609 501.939L59.8062 506.616C60.1484 507.072 59.1218 507.3 57.4109 507.3Z" fill="#FF4480"/>
<path d="M21.5566 481.583V499.73C21.5566 502.856 38.351 505.383 59.0787 505.383C79.8064 505.383 96.6007 502.856 96.6007 499.73V481.583H21.5566Z" fill="#2F2E41"/>
<path d="M59.0689 487.235C79.7917 487.235 96.5909 484.704 96.5909 481.582C96.5909 478.46 79.7917 475.929 59.0689 475.929C38.3461 475.929 21.5469 478.46 21.5469 481.582C21.5469 484.704 38.3461 487.235 59.0689 487.235Z" fill="#515667"/>
<path d="M515.518 472.284C509.293 448.743 492.128 431.834 473.532 428.628L472.671 425.392L457.989 429.267C434.159 435.549 421.298 464.983 429.244 495.026C437.191 525.068 462.953 544.325 486.773 538.042L501.456 534.167L500.595 530.931C515.188 518.986 521.743 495.815 515.518 472.284Z" fill="#2F2E41"/>
<path d="M501.458 534.207C525.284 527.929 538.156 498.489 530.208 468.451C522.261 438.414 496.503 419.152 472.676 425.43C448.85 431.708 435.978 461.148 443.926 491.186C451.874 521.224 477.632 540.485 501.458 534.207Z" fill="#515667"/>
<path d="M88.3846 93.7935C73.8922 113.369 69.2782 135.751 75.4435 150.034L73.4518 152.73L83.04 159.802C98.5833 171.267 126.187 160.301 144.693 135.312C163.198 110.323 165.59 80.7797 150.047 69.3139L140.459 62.2427L138.467 64.9393C122.964 63.2514 102.877 74.2178 88.3846 93.7935Z" fill="#D44E72"/>
<path d="M135.109 128.242C153.61 103.256 156.005 73.7073 140.458 62.2436C124.911 50.7798 97.3095 61.7422 78.8082 86.7287C60.3069 111.715 57.912 141.264 73.459 152.728C89.006 164.191 116.608 153.229 135.109 128.242Z" fill="#FF4480"/>
<path d="M437.952 239.443C429.565 228.766 418.206 222.983 409.598 224.162L408.447 222.694L403.223 226.779C394.746 233.411 396.547 249.83 407.256 263.463C417.965 277.086 433.509 282.759 441.986 276.128L447.21 272.043L446.059 270.574C449.272 262.504 446.35 250.12 437.952 239.443Z" fill="#E6E6E6" stroke="#E0E0E0" stroke-miterlimit="10" stroke-linejoin="round"/>
<path d="M447.235 272.047C455.714 265.413 453.908 248.99 443.203 235.363C432.497 221.736 416.945 216.067 408.467 222.7C399.988 229.333 401.794 245.757 412.499 259.384C423.205 273.01 438.757 278.68 447.235 272.047Z" fill="white" stroke="#E0E0E0" stroke-miterlimit="10" stroke-linejoin="round"/>
<path d="M335.625 40.5097C346.835 40.5097 355.923 31.4413 355.923 20.2549C355.923 9.06841 346.835 0 335.625 0C324.416 0 315.328 9.06841 315.328 20.2549C315.328 31.4413 324.416 40.5097 335.625 40.5097Z" fill="#515667"/>
<path d="M570.706 278.145L525.047 325.926L599 322.969L577.402 279.164C576.13 276.597 572.688 276.068 570.706 278.145Z" fill="#E0E0E0" stroke="#E0E0E0" stroke-miterlimit="10" stroke-linejoin="round"/>
<path d="M545.595 306.809C555.268 306.809 563.11 298.984 563.11 289.331C563.11 279.678 555.268 271.853 545.595 271.853C535.922 271.853 528.08 279.678 528.08 289.331C528.08 298.984 535.922 306.809 545.595 306.809Z" fill="#FF4480"/>
<path d="M545.344 298.194C543.24 298.194 541.548 296.502 541.548 294.399V286.766C541.548 285.897 542.28 285.166 543.149 285.166C544.018 285.166 544.749 285.897 544.749 286.766V294.399C544.749 294.719 545.024 294.994 545.344 294.994C545.664 294.994 545.939 294.719 545.939 294.399V286.766C545.939 284.8 544.338 283.2 542.371 283.2C540.404 283.2 538.803 284.8 538.803 286.766V296.594C538.803 297.462 538.072 298.194 537.202 298.194C536.333 298.194 535.602 297.462 535.602 296.594V286.766C535.602 283.017 538.62 280 542.371 280C546.122 280 549.14 283.017 549.14 286.766V294.399C549.14 296.457 547.448 298.194 545.344 298.194Z" fill="white"/>
<path d="M553.719 298.193C552.85 298.193 552.118 297.462 552.118 296.593V284.8C552.118 283.931 551.432 283.2 550.517 283.2C549.648 283.2 548.916 282.468 548.916 281.6C548.916 280.731 549.694 280 550.563 280C553.216 280 555.365 282.148 555.365 284.8V296.593C555.32 297.462 554.633 298.193 553.719 298.193Z" fill="white"/>
<path d="M540.029 287.483L493.63 346.63C492.138 348.528 492.599 351.294 494.621 352.622L531.722 376.832C537.897 380.857 546.084 379.859 551.099 374.465L599 322.969L545.604 286.614C543.803 285.396 541.37 285.775 540.029 287.483Z" fill="white" stroke="#E0E0E0" stroke-miterlimit="10" stroke-linejoin="round"/>
<path d="M516.991 307.818L511.357 314.3C509.765 316.128 510.016 318.914 511.907 320.433L523.407 329.661C526.59 332.218 531.174 332.018 534.126 329.192C537.519 325.946 537.449 320.512 533.976 317.346L523.107 307.459C521.325 305.851 518.563 306.01 516.991 307.818Z" fill="#E6E6E6" stroke="#E0E0E0" stroke-miterlimit="10" stroke-linejoin="round"/>
<path d="M528.631 327.204C530.776 327.204 532.515 325.469 532.515 323.329C532.515 321.189 530.776 319.454 528.631 319.454C526.487 319.454 524.748 321.189 524.748 323.329C524.748 325.469 526.487 327.204 528.631 327.204Z" fill="white"/>
<path d="M494.652 174.194L419.288 205.105C417.036 206.034 414.454 204.956 413.533 202.708L392.065 150.593C391.134 148.346 392.215 145.769 394.467 144.85L469.831 113.939C472.083 113.01 474.665 114.088 475.586 116.336L497.054 168.451C497.985 170.698 496.904 173.275 494.652 174.194Z" fill="white" stroke="#E0E0E0" stroke-miterlimit="10" stroke-linejoin="round"/>
<path d="M409.488 192.901L493.02 158.643" stroke="#E0E0E0" stroke-miterlimit="10" stroke-linejoin="round"/>
<path d="M403.404 154.408L427.495 144.521" stroke="#E0E0E0" stroke-width="2" stroke-miterlimit="10" stroke-linecap="round" stroke-linejoin="round"/>
<path d="M150.239 287.194C146.516 287.194 143.522 284.201 143.522 280.48V266.973C143.522 265.436 144.817 264.142 146.354 264.142C147.892 264.142 149.187 265.436 149.187 266.973V280.48C149.187 281.047 149.673 281.532 150.239 281.532C150.806 281.532 151.291 281.047 151.291 280.48V266.973C151.291 263.494 148.459 260.663 144.978 260.663C141.498 260.663 138.666 263.494 138.666 266.973V284.363C138.666 285.9 137.371 287.194 135.833 287.194C134.295 287.194 133 285.9 133 284.363V266.973C133 260.34 138.342 255.001 144.978 255.001C151.615 255.001 156.957 260.34 156.957 266.973V280.48C156.957 284.12 153.962 287.194 150.239 287.194Z" fill="white"/>
<path d="M165.053 287.192C163.515 287.192 162.22 285.898 162.22 284.361V263.493C162.22 261.956 161.006 260.662 159.387 260.662C157.85 260.662 156.555 259.368 156.555 257.831C156.555 256.294 157.931 255 159.468 255C164.163 255 167.967 258.802 167.967 263.493V284.361C167.886 285.898 166.672 287.192 165.053 287.192Z" fill="white"/>
<path d="M335.371 30.1832C333.131 30.1832 331.33 28.3828 331.33 26.1445V18.0184C331.33 17.0939 332.109 16.3154 333.034 16.3154C333.959 16.3154 334.738 17.0939 334.738 18.0184V26.1445C334.738 26.4851 335.03 26.777 335.371 26.777C335.712 26.777 336.004 26.4851 336.004 26.1445V18.0184C336.004 15.9261 334.3 14.223 332.206 14.223C330.112 14.223 328.408 15.9261 328.408 18.0184V28.4801C328.408 29.4046 327.629 30.1832 326.704 30.1832C325.779 30.1832 325 29.4046 325 28.4801V18.0184C325 14.0284 328.213 10.8169 332.206 10.8169C336.199 10.8169 339.412 14.0284 339.412 18.0184V26.1445C339.412 28.3341 337.611 30.1832 335.371 30.1832Z" fill="white"/>
<path d="M344.282 30.1827C343.357 30.1827 342.578 29.4041 342.578 28.4796V15.9256C342.578 15.0011 341.848 14.2225 340.874 14.2225C339.949 14.2225 339.17 13.444 339.17 12.5195C339.17 11.5949 339.998 10.8164 340.923 10.8164C343.747 10.8164 346.035 13.1034 346.035 15.9256V28.4796C345.986 29.4041 345.256 30.1827 344.282 30.1827Z" fill="white"/>
<path d="M94.5994 119.068C91.8557 116.977 91.2025 113.058 93.1622 110.314L100.348 100.123C101.132 98.9475 102.83 98.6862 104.006 99.4701C105.182 100.254 105.443 101.952 104.659 103.128L97.343 113.45C97.0817 113.842 97.0817 114.495 97.6043 114.887C97.9963 115.148 98.6495 115.148 99.0415 114.626L106.358 104.304C108.318 101.691 107.664 98.033 104.921 96.2039C102.308 94.3748 98.6495 95.028 96.8204 97.641L87.5443 110.706C86.7604 111.882 85.0619 112.143 84.0167 111.359C82.8408 110.575 82.7102 108.877 83.4941 107.701L92.6396 94.7667C96.1672 89.802 102.961 88.4955 108.056 91.8924C113.152 95.2893 114.458 102.344 110.8 107.44L103.353 117.761C101.393 120.505 97.343 121.158 94.5994 119.068Z" fill="white"/>
<path d="M105.967 127.56C104.791 126.645 104.399 124.947 105.314 123.771L116.942 107.44C117.856 106.264 117.464 104.565 116.289 103.782C114.982 102.998 114.721 101.299 115.635 100.123C116.55 98.9475 118.248 98.5556 119.424 99.4701C123.213 101.952 124.128 107.048 121.515 110.706L109.887 127.037C108.972 128.213 107.274 128.474 105.967 127.56Z" fill="white"/>
<path d="M434.61 253.776C432.95 254.542 430.525 253.648 429.12 251.606L424.269 244.329C423.631 243.563 423.758 242.541 424.397 242.158C425.035 241.775 426.056 242.158 426.695 243.052L431.674 250.329C431.929 250.584 432.312 250.84 432.567 250.712C432.823 250.584 432.823 250.201 432.695 249.946L427.716 242.669C426.439 240.754 424.141 239.86 422.609 240.626C421.077 241.392 420.822 243.563 422.099 245.478L428.482 254.925C428.993 255.691 428.993 256.585 428.227 256.968C427.588 257.351 426.567 256.968 425.929 256.074L419.545 246.627C417.12 243.052 417.503 238.967 420.439 237.562C423.375 236.158 427.716 237.818 430.142 241.392L435.121 248.669C436.397 250.712 436.27 253.01 434.61 253.776Z" fill="#FF4480"/>
<path d="M441.121 250.457C440.482 250.84 439.461 250.457 438.823 249.563L431.163 238.329C430.652 237.435 429.631 237.052 428.865 237.435C428.227 237.818 427.205 237.307 426.695 236.541C426.184 235.775 426.184 234.754 426.822 234.371C428.865 233.35 431.929 234.499 433.588 237.052L441.248 248.287C441.887 249.18 441.887 250.202 441.121 250.457Z" fill="#FF4480"/>
<path d="M495.212 496.312C491.506 497.676 487.318 495.897 485.872 492.317L480.447 479.109C479.794 477.628 480.586 475.827 482.066 475.173C483.546 474.519 485.348 475.311 486.001 476.792L491.472 490.206C491.69 490.7 492.321 491.102 493.021 490.838C493.515 490.62 493.917 489.989 493.653 489.289L488.182 475.874C486.863 472.374 482.927 470.756 479.473 472.281C476.099 473.68 474.481 477.616 475.88 480.99L482.796 497.985C483.45 499.465 482.658 501.266 481.258 501.794C479.778 502.448 478.057 501.53 477.403 500.049L470.533 483.261C467.906 476.8 470.822 469.434 477.237 466.601C483.651 463.768 491.27 466.844 493.942 473.511L499.333 487.052C500.778 490.633 498.919 494.947 495.212 496.312Z" fill="white"/>
<path d="M510.409 490.553C508.803 491.127 506.921 490.461 506.347 488.855L497.722 467.579C497.149 465.973 495.267 465.307 493.787 465.961C492.226 466.741 490.425 465.948 489.851 464.342C489.278 462.735 489.944 460.854 491.55 460.28C496.278 458.147 501.763 460.397 503.689 465.171L512.315 486.446C512.888 488.052 512.096 489.854 510.409 490.553Z" fill="white"/>
<path d="M63.1059 484.4C59.5059 484.4 55.9059 483.8 54.9059 483.1L51.4059 480.5C51.0059 480.2 51.9059 479.9 53.4059 479.9C54.9059 479.9 56.4059 480.1 56.8059 480.5L60.3059 483.1C60.5059 483.2 61.0059 483.3 61.6059 483.3C62.2059 483.3 62.5059 483.2 62.3059 483.1L58.8059 480.5C57.9059 479.8 54.5059 479.3 51.1059 479.3C47.7059 479.3 45.9059 479.8 46.8059 480.4L51.2059 483.8C51.6059 484.1 50.7059 484.4 49.2059 484.4C47.7059 484.4 46.2059 484.2 45.8059 483.8L41.4059 480.4C39.7059 479.2 43.5059 478.1 49.8059 478.1C56.1059 478.1 62.7059 479.2 64.3059 480.4L67.8059 483.1C68.8059 483.8 66.6059 484.4 63.1059 484.4Z" fill="white"/>
<path d="M77.306 484.4C75.806 484.4 74.306 484.2 73.906 483.8L68.606 479.7C68.206 479.4 66.706 479.2 65.206 479.2C63.706 479.2 62.206 479 61.806 478.6C61.406 478.2 62.306 478 63.806 478C68.306 478 72.906 478.7 74.106 479.7L79.406 483.8C79.706 484.2 78.806 484.4 77.306 484.4Z" fill="white"/>
</svg>
