<?xml version="1.0" encoding="utf-8"?>
<!-- Generator: Adobe Illustrator 24.1.3, SVG Export Plug-In . SVG Version: 6.00 Build 0)  -->
<svg version="1.1" id="图层_1" xmlns="http://www.w3.org/2000/svg" xmlns:xlink="http://www.w3.org/1999/xlink" x="0px" y="0px"
	 viewBox="0 0 600 556" style="enable-background:new 0 0 600 556;" xml:space="preserve">
<style type="text/css">
	.st0{fill:#E6E6E6;stroke:#E0E0E0;stroke-linejoin:round;stroke-miterlimit:10;}
	.st1{fill:#FFFFFF;stroke:#E0E0E0;stroke-linejoin:round;stroke-miterlimit:10;}
	.st2{fill:#E0E0E0;stroke:#E0E0E0;stroke-linejoin:round;stroke-miterlimit:10;}
	.st3{fill:#E0E0E0;}
	.st4{fill:#515667;}
	.st5{fill:#FFFFFF;stroke:#C8D4E8;stroke-linejoin:round;stroke-miterlimit:10;}
	.st6{fill:#2F2E41;}
	.st7{fill:#FF4480;}
	.st8{fill:#D44E72;}
	.st9{fill:#FFFFFF;}
	.st10{fill:#FFB8B8;stroke:#FAA5A5;stroke-linejoin:round;stroke-miterlimit:10;}
	.st11{fill:none;stroke:#FAA5A5;stroke-linecap:round;stroke-linejoin:round;stroke-miterlimit:10;}
	.st12{fill:#FFDBDB;stroke:#FAA5A5;stroke-linejoin:round;stroke-miterlimit:10;}
	.st13{fill:#FF4480;}
	.st14{fill:none;stroke:#E0E0E0;stroke-linejoin:round;stroke-miterlimit:10;}
	.st15{fill:none;stroke:#E0E0E0;stroke-width:2;stroke-linecap:round;stroke-linejoin:round;stroke-miterlimit:10;}
</style>
<path class="st0" d="M383.4,533.6H69.2c-5.2,0-9.3-4.2-9.3-9.3V264.7c0-5.1,4.2-9.3,9.3-9.3h314.2c5.2,0,9.3,4.2,9.3,9.3v259.6
	C392.7,529.5,388.5,533.6,383.4,533.6z"/>
<path class="st1" d="M360,510.8H92.6c-4.3,0-7.9-3.5-7.9-7.9V286.1c0-4.3,3.5-7.9,7.9-7.9H360c4.3,0,7.9,3.5,7.9,7.9v216.9
	C367.9,507.3,364.3,510.8,360,510.8z"/>
<path class="st2" d="M340.6,234.3H112.2c-9.3,0-18.4,3-26,8.5l-17.1,12.5h314.4l-17.1-12.5C359,237.3,349.9,234.3,340.6,234.3z"/>
<path class="st3" d="M164.8,330.4c-28.1,0-51,22.8-51,50.9s22.8,50.9,51,50.9s51-22.8,51-50.9S192.9,330.4,164.8,330.4z
	 M199.3,375.7h-27.9V347C185.7,349.8,197,361.3,199.3,375.7z M158.2,347v28.7h-27.9C132.6,361.3,143.8,349.8,158.2,347z
	 M130.6,388.9h27.5v26.6C144.5,412.9,133.7,402.4,130.6,388.9z M171.4,415.5v-26.6h27.5C195.9,402.4,185,412.9,171.4,415.5z"/>
<path class="st4" d="M164.8,393.1c6.5,0,11.8-5.3,11.8-11.8c0-6.5-5.3-11.8-11.8-11.8c-6.5,0-11.8,5.3-11.8,11.8
	C153,387.8,158.2,393.1,164.8,393.1z"/>
<path class="st0" d="M354.7,488.6v25.5c0,4.4,23.6,8,52.8,8c29.1,0,52.8-3.6,52.8-8v-25.5H354.7z"/>
<path class="st5" d="M407.4,496.6c29.1,0,52.8-3.6,52.8-8c0-4.4-23.6-8-52.8-8s-52.8,3.6-52.8,8C354.7,493,378.3,496.6,407.4,496.6z
	"/>
<path class="st0" d="M354.7,462.6v25.5c0,4.4,23.6,8,52.8,8c29.1,0,52.8-3.6,52.8-8v-25.5H354.7z"/>
<path class="st5" d="M407.4,470.6c29.1,0,52.8-3.6,52.8-8s-23.6-7.9-52.8-7.9s-52.8,3.6-52.8,7.9S378.3,470.6,407.4,470.6z"/>
<path class="st0" d="M354.7,436.6v25.5c0,4.4,23.6,8,52.8,8c29.1,0,52.8-3.6,52.8-8v-25.5H354.7z"/>
<path class="st5" d="M407.4,444.6c29.1,0,52.8-3.6,52.8-7.9c0-4.4-23.6-8-52.8-8s-52.8,3.6-52.8,8
	C354.7,441,378.3,444.6,407.4,444.6z"/>
<path class="st0" d="M354.7,410.7v25.5c0,4.4,23.6,8,52.8,8c29.1,0,52.8-3.6,52.8-8v-25.5H354.7z"/>
<path class="st1" d="M407.4,418.6c29.1,0,52.8-3.6,52.8-7.9c0-4.4-23.6-8-52.8-8s-52.8,3.6-52.8,8
	C354.7,415.1,378.3,418.6,407.4,418.6z"/>
<path class="st6" d="M118.1,517l-12.8,19.6V556c0,0,286.9,0,296,0c9.1,0,16.8-3.9,16.8-9.8c0-5.9,0-18.5,0-18.5s-2-10.3-20.1-10.3
	C380,517.4,118.1,517,118.1,517z"/>
<path class="st4" d="M398,517.4c-18,0-279.9-0.4-279.9-0.4l-12.8,19.6c0,0,286.9,0,294.5,0c7.6,0,18.3-1,18.3-8.8
	C418.1,527.7,416.1,517.4,398,517.4z"/>
<path class="st7" d="M325.7,530.1H207.4c-1.8,0-3.2-1.4-3.2-3.2v-93.2h124.6v93.2C328.9,528.7,327.4,530.1,325.7,530.1z"/>
<path class="st8" d="M204.2,457.6c12.7,2.9,35.9,4.9,62.3,4.9c26.4,0,49.6-2,62.3-4.9v-23.9H204.2V457.6z"/>
<path class="st7" d="M193.8,393.9v48.4c0,5.6,32.6,10.1,72.8,10.1s72.8-4.5,72.8-10.1v-48.4H193.8z"/>
<path class="st8" d="M339.3,393.9c0,3.1-10,5.9-25.7,7.7c-12.7,1.5-29.1,2.4-47.1,2.4c-18.4,0-35.1-0.9-47.9-2.5
	c-15.2-1.9-24.8-4.6-24.8-7.6s9.6-5.8,24.8-7.6c12.8-1.6,29.6-2.5,47.9-2.5c17.9,0,34.4,0.9,47.1,2.4
	C329.3,388.1,339.3,390.8,339.3,393.9z"/>
<path class="st9" d="M212.3,430.1c4.4,0,8.1-3.6,8.1-8c0-4.4-3.6-8-8.1-8c-4.4,0-8.1,3.6-8.1,8C204.3,426.5,207.9,430.1,212.3,430.1
	z"/>
<path class="st7" d="M151.3,306.6c20.3,0,36.8-16.4,36.8-36.7s-16.5-36.7-36.8-36.7s-36.8,16.4-36.8,36.7S130.9,306.6,151.3,306.6z"
	/>
<path class="st10" d="M313.4,235.7c-6.4,17.5-9.9,53.1-4.8,81.7c4.4,24.5,5,48.2,5.1,68.8c0,3.5,0,6.9,0,10.2v5.3
	c-12.7,1.5-29.1,2.4-47.1,2.4c-18.4,0-35.1-0.9-47.9-2.5v-39.9c0-7.2-5.8-10.9-12.9-11c-7.1-0.1-28.6,0.8-39.5-7.4
	c-10.9-8.2-21.2-10.9-28.6-10.8c-7.4,0.1,1.3-24.1,20.7-25.8c19.4-1.7,31.1,9,50.4-4.3c19.3-13.3,22.2-48.7,1.7-63.3
	c-20.5-14.6-31.6-8.6-44.3-4.7c-12.7,4-36.2,2.4-36.4-10.9c-0.3-13.4,33.3-27.3,57-29.3c0,0,20.6-14.3,52.2-4.4
	c0,0,11.4-8.7,28.6,0.9c11,6.2,19.2,18.1,19.2,18.1s22.9-40.6,52.1-34.6c9,1.8,7.8,8,3,15.9C337,197.8,319.7,218.2,313.4,235.7z"/>
<path class="st11" d="M186.8,194.1c23.4,0,54.3,8.3,71.9,47.2"/>
<path class="st11" d="M239,189.7c12.1,4.4,37.5,19,41.6,43.5"/>
<path class="st11" d="M286.7,208.7c5.3,7.4,7.9,18.1,7.9,18.1"/>
<path class="st12" d="M158,337.9c0.9-1.3,1.8-2.8,2.2-4.6c1.5-5.5-1.5-7.4-4.9-8.7c-3.4-1.3-7.8-2.8-13.3,0c0,0-2.9,3.6-3.3,7.8
	C144.1,332.5,150.8,334,158,337.9z"/>
<path class="st12" d="M132,217.1c1.8,3.1,7.4,4.4,8.6,3.8c1.6-0.8,17.9-5.7,13.8-11.4c-1.8-2.5-4.1-3.8-6.1-4.5
	C141,208.6,135.1,212.7,132,217.1z"/>
<path class="st0" d="M18,525.1v18.1c0,3.1,16.8,5.7,37.5,5.7s37.5-2.5,37.5-5.7v-18.1H18z"/>
<path class="st1" d="M55.5,530.7c20.7,0,37.5-2.5,37.5-5.7c0-3.1-16.8-5.7-37.5-5.7S18,522,18,525.1C18,528.2,34.8,530.7,55.5,530.7
	z"/>
<g>
	<g>
		<g>
			<g>
				<path class="st13" d="M56.3,528c-4.1,0-7.2-0.7-7-1.6l0.6-2.9c0.1-0.3,1.4-0.6,2.9-0.6c1.5,0,2.8,0.3,2.8,0.6l-0.1,2.9
					c0,0.1,0.6,0.3,1.1,0.3c0.6,0,1.1-0.1,1.1-0.3l-0.1-2.9c0-0.7-2.8-1.2-6.1-1.2c-3.3,0-6.2,0.5-6.4,1.2l-1.3,3.9
					c-0.1,0.4-1.7,0.7-3.5,0.7s-3.1-0.3-2.9-0.7l1.9-3.9c0.6-1.3,6-2.2,12-2.2s11.1,0.9,11.3,2.2l0.5,2.9
					C63.5,527.3,60.4,528,56.3,528z"/>
			</g>
		</g>
		<g>
			<g>
				<path class="st13" d="M72.8,528c-1.8,0-3.4-0.3-3.5-0.7l-1.5-4.5c-0.1-0.3-1.4-0.5-2.9-0.5c-1.5,0-2.8-0.2-2.8-0.5
					c0-0.3,1.1-0.5,2.6-0.5c4.4,0,8.1,0.7,8.5,1.5l2.3,4.5C75.9,527.8,74.6,528,72.8,528z"/>
			</g>
		</g>
	</g>
</g>
<path class="st0" d="M1,503.7v18.1c0,3.1,16.8,5.7,37.5,5.7s37.5-2.5,37.5-5.7v-18.1H1z"/>
<path class="st1" d="M38.5,509.3c20.7,0,37.5-2.5,37.5-5.7c0-3.1-16.8-5.7-37.5-5.7C17.8,498,1,500.5,1,503.7
	C1,506.8,17.8,509.3,38.5,509.3z"/>
<path class="st6" d="M515.5,472.3c-6.2-23.5-23.4-40.4-42-43.7l-0.9-3.2l-14.7,3.9c-23.8,6.3-36.7,35.7-28.7,65.8
	c7.9,30,33.7,49.3,57.5,43l14.7-3.9l-0.9-3.2C515.2,519,521.7,495.8,515.5,472.3z"/>
<path class="st4" d="M501.5,534.2c23.8-6.3,36.7-35.7,28.8-65.8c-7.9-30-33.7-49.3-57.5-43c-23.8,6.3-36.7,35.7-28.8,65.8
	S477.6,540.5,501.5,534.2z"/>
<path class="st8" d="M88.4,93.8c-14.5,19.6-19.1,42-12.9,56.2l-2,2.7l9.6,7.1c15.5,11.5,43.1,0.5,61.7-24.5
	c18.5-25,20.9-54.5,5.4-66l-9.6-7.1l-2,2.7C123,63.3,102.9,74.2,88.4,93.8z"/>
<path class="st7" d="M135.1,128.2c18.5-25,20.9-54.5,5.3-66c-15.5-11.5-43.1-0.5-61.6,24.5c-18.5,25-20.9,54.5-5.3,66
	C89,164.2,116.6,153.2,135.1,128.2z"/>
<g>
	<g>
		<g>
			<g>
				<path class="st13" d="M35.3,506c-4.1,0-7.2-0.7-7-1.6l0.6-2.9c0.1-0.3,1.4-0.6,2.9-0.6s2.8,0.3,2.8,0.6l-0.1,2.9
					c0,0.1,0.6,0.3,1.1,0.3c0.6,0,1.1-0.1,1.1-0.3l-0.1-2.9c0-0.7-2.8-1.2-6.1-1.2c-3.3,0-6.2,0.5-6.4,1.2l-1.3,3.9
					c-0.1,0.4-1.7,0.7-3.5,0.7s-3.1-0.3-2.9-0.7l1.9-3.9c0.6-1.3,6-2.2,12-2.2s11.1,0.9,11.3,2.2l0.5,2.9
					C42.5,505.2,39.4,506,35.3,506z"/>
			</g>
		</g>
		<g>
			<g>
				<path class="st13" d="M51.8,506c-1.8,0-3.4-0.3-3.5-0.7l-1.5-4.5c-0.1-0.3-1.4-0.5-2.9-0.5s-2.8-0.2-2.8-0.5
					c0-0.3,1.1-0.5,2.6-0.5c4.4,0,8.1,0.7,8.5,1.5l2.3,4.5C54.9,505.7,53.5,506,51.8,506z"/>
			</g>
		</g>
	</g>
</g>
<path class="st6" d="M21.6,481.6v18.1c0,3.1,16.8,5.7,37.5,5.7s37.5-2.5,37.5-5.7v-18.1H21.6z"/>
<path class="st4" d="M59.1,487.2c20.7,0,37.5-2.5,37.5-5.7s-16.8-5.7-37.5-5.7s-37.5,2.5-37.5,5.7S38.3,487.2,59.1,487.2z"/>
<path class="st0" d="M438,239.4c-8.4-10.7-19.7-16.5-28.4-15.3l-1.2-1.5l-5.2,4.1c-8.5,6.6-6.7,23.1,4,36.7
	c10.7,13.6,26.3,19.3,34.7,12.7l5.2-4.1l-1.2-1.5C449.3,262.5,446.4,250.1,438,239.4z"/>
<path class="st1" d="M447.2,272c8.5-6.6,6.7-23.1-4-36.7c-10.7-13.6-26.3-19.3-34.7-12.7c-8.5,6.6-6.7,23.1,4,36.7
	C423.2,273,438.8,278.7,447.2,272z"/>
<path class="st4" d="M335.6,40.5c11.2,0,20.3-9.1,20.3-20.3c0-11.2-9.1-20.3-20.3-20.3c-11.2,0-20.3,9.1-20.3,20.3
	C315.3,31.4,324.4,40.5,335.6,40.5z"/>
<path class="st2" d="M570.7,278.1L525,325.9l74-3l-21.6-43.8C576.1,276.6,572.7,276.1,570.7,278.1z"/>
<path class="st7" d="M545.6,306.8c9.7,0,17.5-7.8,17.5-17.5c0-9.7-7.8-17.5-17.5-17.5c-9.7,0-17.5,7.8-17.5,17.5
	C528.1,299,535.9,306.8,545.6,306.8z"/>
<path class="st1" d="M540,287.5l-46.4,59.1c-1.5,1.9-1,4.7,1,6l37.1,24.2c6.2,4,14.4,3,19.4-2.4L599,323l-53.4-36.4
	C543.8,285.4,541.4,285.8,540,287.5z"/>
<path class="st0" d="M517,307.8l-5.6,6.5c-1.6,1.8-1.3,4.6,0.6,6.1l11.5,9.2c3.2,2.6,7.8,2.4,10.7-0.5c3.4-3.2,3.3-8.7-0.1-11.8
	l-10.9-9.9C521.3,305.9,518.6,306,517,307.8z"/>
<path class="st9" d="M528.6,327.2c2.1,0,3.9-1.7,3.9-3.9c0-2.1-1.7-3.9-3.9-3.9c-2.1,0-3.9,1.7-3.9,3.9
	C524.7,325.5,526.5,327.2,528.6,327.2z"/>
<path class="st1" d="M494.7,174.2l-75.4,30.9c-2.3,0.9-4.8-0.1-5.8-2.4l-21.5-52.1c-0.9-2.2,0.1-4.8,2.4-5.7l75.4-30.9
	c2.3-0.9,4.8,0.1,5.8,2.4l21.5,52.1C498,170.7,496.9,173.3,494.7,174.2z"/>
<path class="st14" d="M409.5,192.9l83.5-34.3"/>
<path class="st15" d="M403.4,154.4l24.1-9.9"/>
<g>
	<g>
		<g>
			<g>
				<path class="st9" d="M335.5,29.1c-2,0-3.6-1.6-3.6-3.6v-7.4c0-0.9,0.7-1.6,1.6-1.6c0.9,0,1.6,0.7,1.6,1.6v7.4
					c0,0.3,0.3,0.6,0.6,0.6c0.3,0,0.6-0.3,0.6-0.6v-7.4c0-1.9-1.6-3.5-3.5-3.5c-1.9,0-3.5,1.6-3.5,3.5v9.6c0,0.9-0.7,1.6-1.6,1.6
					s-1.6-0.7-1.6-1.6v-9.6c0-3.6,2.9-6.6,6.6-6.6s6.6,2.9,6.6,6.6v7.4C339.2,27.5,337.6,29.1,335.5,29.1z"/>
			</g>
		</g>
		<g>
			<g>
				<path class="st9" d="M343.7,29.1c-0.9,0-1.6-0.7-1.6-1.6V16c0-0.9-0.7-1.6-1.6-1.6c-0.9,0-1.6-0.7-1.6-1.6
					c0-0.9,0.7-1.6,1.6-1.6c2.6,0,4.7,2,4.7,4.7v11.5C345.3,28.6,344.6,29.1,343.7,29.1z"/>
			</g>
		</g>
	</g>
</g>
<g>
	<g>
		<g>
			<g>
				<path class="st13" d="M407.9,413.2c-4.1,0-7.2-0.7-7-1.6l0.6-2.9c0.1-0.3,1.4-0.6,2.9-0.6s2.8,0.3,2.8,0.6l-0.1,2.9
					c0,0.1,0.6,0.3,1.1,0.3s1.1-0.1,1.1-0.3l-0.1-2.9c0-0.7-2.8-1.2-6.1-1.2s-6.2,0.5-6.4,1.2l-1.3,3.9c-0.1,0.4-1.7,0.7-3.5,0.7
					s-3.1-0.3-2.9-0.7l1.9-3.9c0.6-1.3,6-2.2,12-2.2c6.1,0,11.1,0.9,11.3,2.2l0.5,2.9C415.1,412.5,412,413.2,407.9,413.2z"/>
			</g>
		</g>
		<g>
			<g>
				<path class="st13" d="M424.4,413.2c-1.8,0-3.4-0.3-3.5-0.7l-1.5-4.5c-0.1-0.3-1.4-0.5-2.9-0.5s-2.8-0.2-2.8-0.5
					c0-0.3,1.1-0.5,2.6-0.5c4.4,0,8.1,0.7,8.5,1.5l2.3,4.5C427.5,413,426.1,413.2,424.4,413.2z"/>
			</g>
		</g>
	</g>
</g>
<g>
	<g>
		<g>
			<g>
				<path class="st9" d="M58.8,484.4c-4.1,0-7.2-0.7-7-1.6l0.6-2.9c0.1-0.3,1.4-0.6,2.9-0.6s2.8,0.3,2.8,0.6l-0.1,2.9
					c0,0.1,0.6,0.3,1.1,0.3s1.1-0.1,1.1-0.3l-0.1-2.9c0-0.7-2.8-1.2-6.1-1.2c-3.3,0-6.2,0.5-6.4,1.2l-1.3,3.9
					c-0.1,0.4-1.7,0.7-3.5,0.7s-3.1-0.3-2.9-0.7l1.9-3.9c0.6-1.3,6-2.2,12-2.2s11.1,0.9,11.3,2.2l0.5,2.9
					C66,483.6,62.9,484.4,58.8,484.4z"/>
			</g>
		</g>
		<g>
			<g>
				<path class="st9" d="M75.3,484.4c-1.8,0-3.4-0.3-3.5-0.7l-1.5-4.5c-0.1-0.3-1.4-0.5-2.9-0.5c-1.5,0-2.8-0.2-2.8-0.5
					c0-0.3,1.1-0.5,2.6-0.5c4.4,0,8.1,0.7,8.5,1.5l2.3,4.5C78.4,484.1,77.1,484.4,75.3,484.4z"/>
			</g>
		</g>
	</g>
</g>
<g>
	<g>
		<g>
			<g>
				<path class="st9" d="M498.6,499.3c-4.5,1.8-9.5-0.3-11.3-4.8l-6.6-16.4c-0.8-1.9,0.2-4.2,2.1-5c1.9-0.8,4.2,0.2,5,2.1l6.6,16.4
					c0.3,0.6,1.2,1,1.8,0.8c0.6-0.3,1-1.2,0.8-1.8l-6.6-16.4c-1.7-4.2-6.7-6.3-10.9-4.6c-4.2,1.7-6.3,6.7-4.6,10.9l8.6,21.3
					c0.8,1.9-0.2,4.2-2.1,5c-1.9,0.8-4.2-0.2-5-2.1l-8.6-21.3c-3.3-8.1,0.6-17.1,8.6-20.4c8.1-3.3,17.1,0.6,20.4,8.6l6.6,16.4
					C505.2,492.5,503.1,497.5,498.6,499.3z"/>
			</g>
		</g>
		<g>
			<g>
				<path class="st9" d="M516.6,492c-1.9,0.8-4.2-0.2-5-2.1l-10.3-25.4c-0.8-1.9-3-2.9-5-2.1c-1.9,0.8-4.2-0.2-5-2.1
					c-0.8-1.9,0.2-4.2,2.1-5c5.8-2.3,12.1,0.3,14.5,6.1l10.3,25.4C519.7,489.3,518.6,491.2,516.6,492z"/>
			</g>
		</g>
	</g>
</g>
<g>
	<g>
		<g>
			<g>
				<path class="st13" d="M437.3,252.4c-1,1.2-3,0.8-4.4-1l-5.3-6.7c-0.6-0.8-0.6-1.7,0-2.1c0.6-0.3,1.6,0,2.2,0.7l4.9,6.2
					c0.2,0.2,0.5,0.3,0.7,0.2c0.1-0.1,0.1-0.5-0.1-0.8l-4.8-6.1c-1.2-1.5-3.3-2.3-4.7-1.7c-1.5,0.7-1.7,2.9-0.2,4.7l7.3,9.2
					c0.7,0.8,0.8,2.1,0.2,2.8c-0.6,0.8-1.7,0.6-2.4-0.3l-7.9-10c-3-3.8-2.4-7.9,0.9-9.1c2.7-1,6.4,0.6,8.6,3.3l4.5,5.7
					C437.9,249.3,438.2,251.3,437.3,252.4z"/>
			</g>
		</g>
		<g>
			<g>
				<path class="st13" d="M440.6,248.4c-0.3,0.4-1,0.2-1.5-0.5l-6.6-8.3c-0.5-0.6-1.3-1-1.8-0.8c-0.5,0.2-1.4-0.1-1.9-0.8
					c-0.5-0.7-0.5-1.4,0-1.6c1.5-0.5,3.6,0.5,5,2.3l6.3,7.9C440.8,247.4,440.8,248.1,440.6,248.4z"/>
			</g>
		</g>
	</g>
</g>
<g>
	<g>
		<g>
			<g>
				<path class="st9" d="M545.5,297.8c-2,0-3.5-1.5-3.5-3.5v-7.1c0-0.8,0.7-1.5,1.5-1.5s1.5,0.7,1.5,1.5v7.1c0,0.3,0.3,0.6,0.6,0.6
					c0.3,0,0.6-0.3,0.6-0.6v-7.1c0-1.8-1.5-3.4-3.4-3.4c-1.8,0-3.4,1.5-3.4,3.4v9.2c0,0.8-0.7,1.5-1.5,1.5s-1.5-0.7-1.5-1.5v-9.2
					c0-3.5,2.8-6.3,6.3-6.3s6.3,2.8,6.3,6.3v7.1C549,296.3,547.5,297.8,545.5,297.8z"/>
			</g>
		</g>
		<g>
			<g>
				<path class="st9" d="M553.3,297.8c-0.8,0-1.5-0.7-1.5-1.5v-11c0-0.8-0.7-1.5-1.5-1.5c-0.8,0-1.5-0.7-1.5-1.5
					c0-0.8,0.7-1.5,1.5-1.5c2.5,0,4.5,2,4.5,4.5v11C554.9,297.3,554.2,297.8,553.3,297.8z"/>
			</g>
		</g>
	</g>
</g>
<g>
	<g>
		<g>
			<g>
				<path class="st9" d="M151.1,288.5c-4.3,0-7.6-3.4-7.6-7.6v-15.6c0-1.8,1.5-3.4,3.4-3.4c1.8,0,3.4,1.5,3.4,3.4v15.6
					c0,0.6,0.6,1.2,1.2,1.2s1.2-0.6,1.2-1.2v-15.6c0-4-3.4-7.3-7.3-7.3c-4,0-7.3,3.4-7.3,7.3v20.2c0,1.8-1.5,3.4-3.4,3.4
					s-3.4-1.5-3.4-3.4v-20.2c0-7.6,6.1-13.8,13.8-13.8c7.6,0,13.8,6.1,13.8,13.8v15.6C158.7,285.2,155.4,288.5,151.1,288.5z"/>
			</g>
		</g>
		<g>
			<g>
				<path class="st9" d="M168.2,288.5c-1.8,0-3.4-1.5-3.4-3.4V261c0-1.8-1.5-3.4-3.4-3.4s-3.4-1.5-3.4-3.4c0-1.8,1.5-3.4,3.4-3.4
					c5.5,0,9.8,4.3,9.8,9.8v24.1C171.6,287.3,170,288.5,168.2,288.5z"/>
			</g>
		</g>
	</g>
</g>
<g>
	<g>
		<g>
			<g>
				<path class="st9" d="M93.9,116.4c-2.1-2.1-2.1-5.9,0-8.8l7.5-10.3c0.9-1.2,2.5-1.7,3.5-1c1.1,0.7,1.2,2.3,0.3,3.6l-7.9,10.8
					c-0.3,0.4-0.3,1.1,0,1.4c0.3,0.3,1,0.2,1.3-0.3l8-10.9c2-2.8,1.7-6.4-0.6-7.8c-2.2-1.3-5.6-0.2-7.4,2.3l-9.4,12.8
					c-0.9,1.2-2.2,1.5-3,0.7c-0.7-0.7-0.7-2.3,0.1-3.4l9-12.3c3.4-4.7,9.3-6.8,13.6-4.5c4.8,2.5,5.7,9.1,1.6,14.7l-8.4,11.4
					C99.8,118,96.1,118.6,93.9,116.4z"/>
			</g>
		</g>
		<g>
			<g>
				<path class="st9" d="M103.8,126.3c-1.2-1.2-1.3-3.3-0.3-4.7l13.5-18.5c1-1.4,0.7-3.3-0.6-4c-1.3-0.8-1.5-2.5-0.6-3.8
					c1-1.3,2.9-1.9,4.2-1.2c4.3,2.2,5.4,7.5,2.1,11.9L108,125.4C106.8,127.6,105,127.5,103.8,126.3z"/>
			</g>
		</g>
	</g>
</g>
</svg>
